M48
; DRILL file {KiCad 8.0.4} date 2024-10-17T14:22:23+1100
; FORMAT={-:-/ absolute / inch / decimal}
; #@! TF.CreationDate,2024-10-17T14:22:23+11:00
; #@! TF.GenerationSoftware,Kicad,Pcbnew,8.0.4
; #@! TF.FileFunction,Plated,1,2,PTH
FMAT,2
INCH
; #@! TA.AperFunction,Plated,PTH,ViaDrill
T1C0.0118
%
G90
G05
T1
X0.3385Y-0.5717
X0.3385Y-1.3394
X0.3385Y-2.1072
X0.3685Y-0.6917
X0.3685Y-1.4594
X0.3685Y-2.2272
X0.3845Y-0.5517
X0.3845Y-1.3194
X0.3845Y-2.0872
X0.3885Y-0.8017
X0.3885Y-1.5694
X0.3885Y-2.3372
X0.4344Y-0.4866
X0.4344Y-1.2544
X0.4344Y-2.0221
X0.4885Y-0.9117
X0.4885Y-1.6794
X0.4885Y-2.4472
X0.5085Y-0.3917
X0.5085Y-1.1594
X0.5085Y-1.9272
X0.5185Y-0.5867
X0.5185Y-1.3544
X0.5185Y-2.1222
X0.5295Y-0.7907
X0.5295Y-1.5584
X0.5295Y-2.3262
X0.6085Y-0.3317
X0.6085Y-0.9717
X0.6085Y-1.0994
X0.6085Y-1.7394
X0.6085Y-1.8672
X0.6085Y-2.5072
X0.6585Y-0.8617
X0.6585Y-1.6294
X0.6585Y-2.3972
X0.7585Y-0.6917
X0.7585Y-1.4594
X0.7585Y-2.2272
X0.7885Y-0.3317
X0.7885Y-0.9817
X0.7885Y-1.0994
X0.7885Y-1.7494
X0.7885Y-1.8672
X0.7885Y-2.5172
X0.8545Y-0.7707
X0.8545Y-1.5384
X0.8545Y-2.3062
X0.8585Y-0.6367
X0.8585Y-1.4044
X0.8585Y-2.1722
X0.8685Y-0.5617
X0.8685Y-1.3294
X0.8685Y-2.0972
X0.8985Y-0.9217
X0.8985Y-1.6894
X0.8985Y-2.4572
X0.9085Y-0.4017
X0.9085Y-1.1694
X0.9085Y-1.9372
X0.9785Y-0.7817
X0.9785Y-1.5494
X0.9785Y-2.3172
X1.0385Y-0.6317
X1.0385Y-1.3994
X1.0385Y-2.1672
X1.1889Y-0.5717
X1.1889Y-1.3394
X1.1889Y-2.1072
X1.2189Y-0.6917
X1.2189Y-1.4594
X1.2189Y-2.2272
X1.2349Y-0.5517
X1.2349Y-1.3194
X1.2349Y-2.0872
X1.2389Y-0.8017
X1.2389Y-1.5694
X1.2389Y-2.3372
X1.2848Y-0.4866
X1.2848Y-1.2544
X1.2848Y-2.0221
X1.3389Y-0.9117
X1.3389Y-1.6794
X1.3389Y-2.4472
X1.3589Y-0.3917
X1.3589Y-1.1594
X1.3589Y-1.9272
X1.3689Y-0.5867
X1.3689Y-1.3544
X1.3689Y-2.1222
X1.3799Y-0.7907
X1.3799Y-1.5584
X1.3799Y-2.3262
X1.4589Y-0.3317
X1.4589Y-0.9717
X1.4589Y-1.0994
X1.4589Y-1.7394
X1.4589Y-1.8672
X1.4589Y-2.5072
X1.5089Y-0.8617
X1.5089Y-1.6294
X1.5089Y-2.3972
X1.6089Y-0.6917
X1.6089Y-1.4594
X1.6089Y-2.2272
X1.6389Y-0.3317
X1.6389Y-0.9817
X1.6389Y-1.0994
X1.6389Y-1.7494
X1.6389Y-1.8672
X1.6389Y-2.5172
X1.7049Y-0.7707
X1.7049Y-1.5384
X1.7049Y-2.3062
X1.7089Y-0.6367
X1.7089Y-1.4044
X1.7089Y-2.1722
X1.7189Y-0.5617
X1.7189Y-1.3294
X1.7189Y-2.0972
X1.7489Y-0.9217
X1.7489Y-1.6894
X1.7489Y-2.4572
X1.7589Y-0.4017
X1.7589Y-1.1694
X1.7589Y-1.9372
X1.8289Y-0.7817
X1.8289Y-1.5494
X1.8289Y-2.3172
X1.8889Y-0.6317
X1.8889Y-1.3994
X1.8889Y-2.1672
X2.0393Y-0.5717
X2.0393Y-1.3394
X2.0393Y-2.1072
X2.0693Y-0.6917
X2.0693Y-1.4594
X2.0693Y-2.2272
X2.0853Y-0.5517
X2.0853Y-1.3194
X2.0853Y-2.0872
X2.0893Y-0.8017
X2.0893Y-1.5694
X2.0893Y-2.3372
X2.1352Y-0.4866
X2.1352Y-1.2544
X2.1352Y-2.0221
X2.1893Y-0.9117
X2.1893Y-1.6794
X2.1893Y-2.4472
X2.2093Y-0.3917
X2.2093Y-1.1594
X2.2093Y-1.9272
X2.2193Y-0.5867
X2.2193Y-1.3544
X2.2193Y-2.1222
X2.2303Y-0.7907
X2.2303Y-1.5584
X2.2303Y-2.3262
X2.3093Y-0.3317
X2.3093Y-0.9717
X2.3093Y-1.0994
X2.3093Y-1.7394
X2.3093Y-1.8672
X2.3093Y-2.5072
X2.3593Y-0.8617
X2.3593Y-1.6294
X2.3593Y-2.3972
X2.4593Y-0.6917
X2.4593Y-1.4594
X2.4593Y-2.2272
X2.4893Y-0.3317
X2.4893Y-0.9817
X2.4893Y-1.0994
X2.4893Y-1.7494
X2.4893Y-1.8672
X2.4893Y-2.5172
X2.5553Y-0.7707
X2.5553Y-1.5384
X2.5553Y-2.3062
X2.5593Y-0.6367
X2.5593Y-1.4044
X2.5593Y-2.1722
X2.5693Y-0.5617
X2.5693Y-1.3294
X2.5693Y-2.0972
X2.5993Y-0.9217
X2.5993Y-1.6894
X2.5993Y-2.4572
X2.6093Y-0.4017
X2.6093Y-1.1694
X2.6093Y-1.9372
X2.6793Y-0.7817
X2.6793Y-1.5494
X2.6793Y-2.3172
X2.7393Y-0.6317
X2.7393Y-1.3994
X2.7393Y-2.1672
M30
