%TF.GenerationSoftware,KiCad,Pcbnew,8.0.4*%
%TF.CreationDate,2024-10-17T14:22:23+11:00*%
%TF.ProjectId,panel,70616e65-6c2e-46b6-9963-61645f706362,rev?*%
%TF.SameCoordinates,Original*%
%TF.FileFunction,Legend,Top*%
%TF.FilePolarity,Positive*%
%FSLAX46Y46*%
G04 Gerber Fmt 4.6, Leading zero omitted, Abs format (unit mm)*
G04 Created by KiCad (PCBNEW 8.0.4) date 2024-10-17 14:22:23*
%MOMM*%
%LPD*%
G01*
G04 APERTURE LIST*
G04 Aperture macros list*
%AMRoundRect*
0 Rectangle with rounded corners*
0 $1 Rounding radius*
0 $2 $3 $4 $5 $6 $7 $8 $9 X,Y pos of 4 corners*
0 Add a 4 corners polygon primitive as box body*
4,1,4,$2,$3,$4,$5,$6,$7,$8,$9,$2,$3,0*
0 Add four circle primitives for the rounded corners*
1,1,$1+$1,$2,$3*
1,1,$1+$1,$4,$5*
1,1,$1+$1,$6,$7*
1,1,$1+$1,$8,$9*
0 Add four rect primitives between the rounded corners*
20,1,$1+$1,$2,$3,$4,$5,0*
20,1,$1+$1,$4,$5,$6,$7,0*
20,1,$1+$1,$6,$7,$8,$9,0*
20,1,$1+$1,$8,$9,$2,$3,0*%
G04 Aperture macros list end*
%ADD10C,0.250000*%
%ADD11C,0.150000*%
%ADD12C,0.120000*%
%ADD13R,0.500000X0.500000*%
%ADD14RoundRect,0.135000X0.135000X0.185000X-0.135000X0.185000X-0.135000X-0.185000X0.135000X-0.185000X0*%
%ADD15RoundRect,0.140000X0.170000X-0.140000X0.170000X0.140000X-0.170000X0.140000X-0.170000X-0.140000X0*%
%ADD16RoundRect,0.140000X-0.140000X-0.170000X0.140000X-0.170000X0.140000X0.170000X-0.140000X0.170000X0*%
%ADD17C,1.152000*%
%ADD18C,2.000000*%
G04 APERTURE END LIST*
D10*
X63727273Y-36250000D02*
X61000000Y-40580127D01*
X68500000Y-31919873D02*
X68500000Y-36250000D01*
X45650000Y-20358439D02*
X46900000Y-21080127D01*
X59181818Y-40580127D02*
X57363636Y-40580127D01*
X61000000Y-12419873D02*
X59181818Y-12419873D01*
X37581818Y-31919873D02*
X34854545Y-36250000D01*
X68500000Y-55750000D02*
X71000000Y-55750000D01*
X61000000Y-9533122D02*
X54750000Y-13141561D01*
X61000000Y-47089746D02*
X68500000Y-51419873D01*
X46900000Y-60080127D02*
X39400000Y-64410254D01*
X59181818Y-31919873D02*
X56454545Y-36250000D01*
X61000000Y-8089746D02*
X68500000Y-12419873D01*
X43036364Y-31919873D02*
X37581818Y-40580127D01*
X21436364Y-51419873D02*
X15981818Y-60080127D01*
X25300000Y-16750000D02*
X27800000Y-16750000D01*
X51000000Y-16750000D02*
X53500000Y-14250000D01*
X53500000Y-12419873D02*
X61000000Y-8089746D01*
X25300000Y-38750000D02*
X24050000Y-38028312D01*
X25300000Y-12419873D02*
X25300000Y-16750000D01*
X25300000Y-55750000D02*
X27800000Y-55750000D01*
X45650000Y-57528312D02*
X45650000Y-52141561D01*
X7800000Y-36250000D02*
X10300000Y-33750000D01*
X17800000Y-51419873D02*
X15981818Y-51419873D01*
X42127273Y-36250000D02*
X39400000Y-40580127D01*
X31900000Y-31919873D02*
X39400000Y-27589746D01*
X17800000Y-43466878D02*
X24050000Y-39858439D01*
X56454545Y-36250000D02*
X58272727Y-36250000D01*
X61000000Y-31919873D02*
X59181818Y-31919873D01*
X64636364Y-12419873D02*
X59181818Y-21080127D01*
X68500000Y-51419873D02*
X68500000Y-55750000D01*
X61000000Y-43466878D02*
X67250000Y-39858439D01*
X7800000Y-16750000D02*
X10300000Y-14250000D01*
X33150000Y-20358439D02*
X39400000Y-23966878D01*
X19618182Y-21080127D02*
X22345455Y-16750000D01*
X68500000Y-12419873D02*
X68500000Y-16750000D01*
X39400000Y-40580127D02*
X41218182Y-40580127D01*
X20527273Y-16750000D02*
X17800000Y-21080127D01*
X17800000Y-12419873D02*
X15981818Y-12419873D01*
X49400000Y-16750000D02*
X46900000Y-19250000D01*
X29400000Y-36250000D02*
X31900000Y-33750000D01*
X62818182Y-31919873D02*
X64636364Y-31919873D01*
X10300000Y-16750000D02*
X7800000Y-16750000D01*
X57363636Y-21080127D02*
X62818182Y-12419873D01*
X24050000Y-39858439D02*
X25300000Y-40580127D01*
X54750000Y-20358439D02*
X61000000Y-23966878D01*
X39400000Y-43466878D02*
X45650000Y-39858439D01*
X17800000Y-48533122D02*
X11550000Y-52141561D01*
X41218182Y-51419873D02*
X43036364Y-51419873D01*
X22345455Y-16750000D02*
X20527273Y-16750000D01*
X53500000Y-33750000D02*
X54750000Y-34471688D01*
X24050000Y-20358439D02*
X25300000Y-21080127D01*
X39400000Y-62966878D02*
X45650000Y-59358439D01*
X11550000Y-13141561D02*
X10300000Y-12419873D01*
X31900000Y-21080127D02*
X31900000Y-16750000D01*
X36672727Y-16750000D02*
X39400000Y-12419873D01*
X31900000Y-12419873D02*
X39400000Y-8089746D01*
X35763636Y-21080127D02*
X41218182Y-12419873D01*
X39400000Y-25410254D02*
X31900000Y-21080127D01*
X61000000Y-29033122D02*
X54750000Y-32641561D01*
X59181818Y-21080127D02*
X57363636Y-21080127D01*
X63727273Y-16750000D02*
X61000000Y-21080127D01*
X34854545Y-55750000D02*
X36672727Y-55750000D01*
X11550000Y-39858439D02*
X17800000Y-43466878D01*
X54750000Y-53971688D02*
X54750000Y-59358439D01*
X43945455Y-36250000D02*
X42127273Y-36250000D01*
X46900000Y-12419873D02*
X46900000Y-16750000D01*
X41218182Y-31919873D02*
X43036364Y-31919873D01*
X54750000Y-52141561D02*
X53500000Y-51419873D01*
X67250000Y-20358439D02*
X68500000Y-21080127D01*
X25300000Y-19250000D02*
X24050000Y-18528312D01*
X68500000Y-21080127D02*
X61000000Y-25410254D01*
X37581818Y-21080127D02*
X35763636Y-21080127D01*
X31900000Y-51419873D02*
X39400000Y-47089746D01*
X33150000Y-34471688D02*
X33150000Y-39858439D01*
X10300000Y-40580127D02*
X10300000Y-36250000D01*
X24050000Y-38028312D02*
X24050000Y-32641561D01*
X68500000Y-60080127D02*
X61000000Y-64410254D01*
X20527273Y-55750000D02*
X17800000Y-60080127D01*
X15981818Y-21080127D02*
X14163636Y-21080127D01*
X29400000Y-16750000D02*
X31900000Y-14250000D01*
X71000000Y-16750000D02*
X68500000Y-19250000D01*
X37581818Y-12419873D02*
X34854545Y-16750000D01*
X53500000Y-31919873D02*
X61000000Y-27589746D01*
X61000000Y-51419873D02*
X59181818Y-51419873D01*
X46900000Y-16750000D02*
X49400000Y-16750000D01*
X39400000Y-23966878D02*
X45650000Y-20358439D01*
X17800000Y-31919873D02*
X15981818Y-31919873D01*
X67250000Y-13141561D02*
X61000000Y-9533122D01*
X33150000Y-32641561D02*
X31900000Y-31919873D01*
X33150000Y-14971688D02*
X33150000Y-20358439D01*
X39400000Y-51419873D02*
X37581818Y-51419873D01*
X17800000Y-62966878D02*
X24050000Y-59358439D01*
X61000000Y-64410254D02*
X53500000Y-60080127D01*
X10300000Y-14250000D02*
X11550000Y-14971688D01*
X67250000Y-52141561D02*
X61000000Y-48533122D01*
X19618182Y-51419873D02*
X21436364Y-51419873D01*
X39400000Y-44910254D02*
X31900000Y-40580127D01*
X10300000Y-55750000D02*
X7800000Y-55750000D01*
X37581818Y-60080127D02*
X35763636Y-60080127D01*
X53500000Y-36250000D02*
X51000000Y-36250000D01*
X27800000Y-36250000D02*
X25300000Y-38750000D01*
X39400000Y-47089746D02*
X46900000Y-51419873D01*
X31900000Y-40580127D02*
X31900000Y-36250000D01*
X68500000Y-19250000D02*
X67250000Y-18528312D01*
X14163636Y-60080127D02*
X19618182Y-51419873D01*
X17800000Y-64410254D02*
X10300000Y-60080127D01*
X24050000Y-52141561D02*
X17800000Y-48533122D01*
X42127273Y-16750000D02*
X39400000Y-21080127D01*
X67250000Y-38028312D02*
X67250000Y-32641561D01*
X11550000Y-14971688D02*
X11550000Y-20358439D01*
X31900000Y-53250000D02*
X33150000Y-53971688D01*
X68500000Y-40580127D02*
X61000000Y-44910254D01*
X21436364Y-12419873D02*
X15981818Y-21080127D01*
X34854545Y-16750000D02*
X36672727Y-16750000D01*
X31900000Y-14250000D02*
X33150000Y-14971688D01*
X10300000Y-21080127D02*
X10300000Y-16750000D01*
X39400000Y-29033122D02*
X33150000Y-32641561D01*
X59181818Y-51419873D02*
X56454545Y-55750000D01*
X33150000Y-13141561D02*
X31900000Y-12419873D01*
X31900000Y-33750000D02*
X33150000Y-34471688D01*
X54750000Y-59358439D02*
X61000000Y-62966878D01*
X68500000Y-38750000D02*
X67250000Y-38028312D01*
X15981818Y-51419873D02*
X13254545Y-55750000D01*
X71000000Y-55750000D02*
X68500000Y-58250000D01*
X37581818Y-51419873D02*
X34854545Y-55750000D01*
X15072727Y-16750000D02*
X17800000Y-12419873D01*
X17800000Y-40580127D02*
X19618182Y-40580127D01*
X61000000Y-25410254D02*
X53500000Y-21080127D01*
X67250000Y-18528312D02*
X67250000Y-13141561D01*
X19618182Y-12419873D02*
X21436364Y-12419873D01*
X65545455Y-16750000D02*
X63727273Y-16750000D01*
X13254545Y-16750000D02*
X15072727Y-16750000D01*
X57363636Y-40580127D02*
X62818182Y-31919873D01*
X15981818Y-40580127D02*
X14163636Y-40580127D01*
X64636364Y-51419873D02*
X59181818Y-60080127D01*
X62818182Y-12419873D02*
X64636364Y-12419873D01*
X45650000Y-13141561D02*
X39400000Y-9533122D01*
X54750000Y-39858439D02*
X61000000Y-43466878D01*
X35763636Y-40580127D02*
X41218182Y-31919873D01*
X39400000Y-8089746D02*
X46900000Y-12419873D01*
X10300000Y-33750000D02*
X11550000Y-34471688D01*
X61000000Y-21080127D02*
X62818182Y-21080127D01*
X17800000Y-60080127D02*
X19618182Y-60080127D01*
X7800000Y-55750000D02*
X10300000Y-53250000D01*
X62818182Y-60080127D02*
X65545455Y-55750000D01*
X10300000Y-36250000D02*
X7800000Y-36250000D01*
X33150000Y-53971688D02*
X33150000Y-59358439D01*
X17800000Y-23966878D02*
X24050000Y-20358439D01*
X24050000Y-13141561D02*
X17800000Y-9533122D01*
X15072727Y-55750000D02*
X17800000Y-51419873D01*
X19618182Y-60080127D02*
X22345455Y-55750000D01*
X63727273Y-55750000D02*
X61000000Y-60080127D01*
X17800000Y-21080127D02*
X19618182Y-21080127D01*
X49400000Y-55750000D02*
X46900000Y-58250000D01*
X54750000Y-34471688D02*
X54750000Y-39858439D01*
X10300000Y-53250000D02*
X11550000Y-53971688D01*
X41218182Y-21080127D02*
X43945455Y-16750000D01*
X11550000Y-53971688D02*
X11550000Y-59358439D01*
X39400000Y-64410254D02*
X31900000Y-60080127D01*
X61000000Y-23966878D02*
X67250000Y-20358439D01*
X39400000Y-21080127D02*
X41218182Y-21080127D01*
X34854545Y-36250000D02*
X36672727Y-36250000D01*
X25300000Y-31919873D02*
X25300000Y-36250000D01*
X39400000Y-48533122D02*
X33150000Y-52141561D01*
X53500000Y-21080127D02*
X53500000Y-16750000D01*
X58272727Y-16750000D02*
X61000000Y-12419873D01*
X36672727Y-36250000D02*
X39400000Y-31919873D01*
X25300000Y-21080127D02*
X17800000Y-25410254D01*
X11550000Y-32641561D02*
X10300000Y-31919873D01*
X61000000Y-62966878D02*
X67250000Y-59358439D01*
X10300000Y-31919873D02*
X17800000Y-27589746D01*
X53500000Y-14250000D02*
X54750000Y-14971688D01*
X31900000Y-55750000D02*
X29400000Y-55750000D01*
X11550000Y-52141561D02*
X10300000Y-51419873D01*
X67250000Y-57528312D02*
X67250000Y-52141561D01*
X27800000Y-16750000D02*
X25300000Y-19250000D01*
X25300000Y-51419873D02*
X25300000Y-55750000D01*
X45650000Y-39858439D02*
X46900000Y-40580127D01*
X43036364Y-51419873D02*
X37581818Y-60080127D01*
X53500000Y-51419873D02*
X61000000Y-47089746D01*
X51000000Y-36250000D02*
X53500000Y-33750000D01*
X53500000Y-55750000D02*
X51000000Y-55750000D01*
X13254545Y-36250000D02*
X15072727Y-36250000D01*
X24050000Y-57528312D02*
X24050000Y-52141561D01*
X53500000Y-40580127D02*
X53500000Y-36250000D01*
X17800000Y-9533122D02*
X11550000Y-13141561D01*
X53500000Y-16750000D02*
X51000000Y-16750000D01*
X61000000Y-60080127D02*
X62818182Y-60080127D01*
X43036364Y-12419873D02*
X37581818Y-21080127D01*
X58272727Y-36250000D02*
X61000000Y-31919873D01*
X54750000Y-13141561D02*
X53500000Y-12419873D01*
X31900000Y-36250000D02*
X29400000Y-36250000D01*
X65545455Y-36250000D02*
X63727273Y-36250000D01*
X62818182Y-21080127D02*
X65545455Y-16750000D01*
X45650000Y-52141561D02*
X39400000Y-48533122D01*
X71000000Y-36250000D02*
X68500000Y-38750000D01*
X17800000Y-29033122D02*
X11550000Y-32641561D01*
X24050000Y-59358439D02*
X25300000Y-60080127D01*
X46900000Y-31919873D02*
X46900000Y-36250000D01*
X53500000Y-60080127D02*
X53500000Y-55750000D01*
X39400000Y-60080127D02*
X41218182Y-60080127D01*
X46900000Y-21080127D02*
X39400000Y-25410254D01*
X11550000Y-20358439D02*
X17800000Y-23966878D01*
X61000000Y-48533122D02*
X54750000Y-52141561D01*
X68500000Y-58250000D02*
X67250000Y-57528312D01*
X51000000Y-55750000D02*
X53500000Y-53250000D01*
X46900000Y-36250000D02*
X49400000Y-36250000D01*
X24050000Y-18528312D02*
X24050000Y-13141561D01*
X57363636Y-60080127D02*
X62818182Y-51419873D01*
X67250000Y-39858439D02*
X68500000Y-40580127D01*
X61000000Y-27589746D02*
X68500000Y-31919873D01*
X15981818Y-60080127D02*
X14163636Y-60080127D01*
X22345455Y-36250000D02*
X20527273Y-36250000D01*
X11550000Y-59358439D02*
X17800000Y-62966878D01*
X15981818Y-12419873D02*
X13254545Y-16750000D01*
X14163636Y-40580127D02*
X19618182Y-31919873D01*
X29400000Y-55750000D02*
X31900000Y-53250000D01*
X46900000Y-55750000D02*
X49400000Y-55750000D01*
X67250000Y-32641561D02*
X61000000Y-29033122D01*
X13254545Y-55750000D02*
X15072727Y-55750000D01*
X41218182Y-12419873D02*
X43036364Y-12419873D01*
X17800000Y-27589746D02*
X25300000Y-31919873D01*
X56454545Y-55750000D02*
X58272727Y-55750000D01*
X61000000Y-40580127D02*
X62818182Y-40580127D01*
X65545455Y-55750000D02*
X63727273Y-55750000D01*
X31900000Y-60080127D02*
X31900000Y-55750000D01*
X11550000Y-34471688D02*
X11550000Y-39858439D01*
X45650000Y-38028312D02*
X45650000Y-32641561D01*
X54750000Y-14971688D02*
X54750000Y-20358439D01*
X39400000Y-12419873D02*
X37581818Y-12419873D01*
X33150000Y-59358439D02*
X39400000Y-62966878D01*
X17800000Y-44910254D02*
X10300000Y-40580127D01*
X10300000Y-51419873D02*
X17800000Y-47089746D01*
X33150000Y-39858439D02*
X39400000Y-43466878D01*
X42127273Y-55750000D02*
X39400000Y-60080127D01*
X25300000Y-36250000D02*
X27800000Y-36250000D01*
X46900000Y-58250000D02*
X45650000Y-57528312D01*
X39400000Y-27589746D02*
X46900000Y-31919873D01*
X62818182Y-40580127D02*
X65545455Y-36250000D01*
X46900000Y-38750000D02*
X45650000Y-38028312D01*
X35763636Y-60080127D02*
X41218182Y-51419873D01*
X22345455Y-55750000D02*
X20527273Y-55750000D01*
X37581818Y-40580127D02*
X35763636Y-40580127D01*
X20527273Y-36250000D02*
X17800000Y-40580127D01*
X45650000Y-18528312D02*
X45650000Y-13141561D01*
X15981818Y-31919873D02*
X13254545Y-36250000D01*
X45650000Y-59358439D02*
X46900000Y-60080127D01*
X19618182Y-31919873D02*
X21436364Y-31919873D01*
X25300000Y-40580127D02*
X17800000Y-44910254D01*
X56454545Y-16750000D02*
X58272727Y-16750000D01*
X19618182Y-40580127D02*
X22345455Y-36250000D01*
X10300000Y-60080127D02*
X10300000Y-55750000D01*
X59181818Y-12419873D02*
X56454545Y-16750000D01*
X64636364Y-31919873D02*
X59181818Y-40580127D01*
X68500000Y-36250000D02*
X71000000Y-36250000D01*
X31900000Y-16750000D02*
X29400000Y-16750000D01*
X46900000Y-40580127D02*
X39400000Y-44910254D01*
X43945455Y-16750000D02*
X42127273Y-16750000D01*
X58272727Y-55750000D02*
X61000000Y-51419873D01*
X46900000Y-51419873D02*
X46900000Y-55750000D01*
X68500000Y-16750000D02*
X71000000Y-16750000D01*
X27800000Y-55750000D02*
X25300000Y-58250000D01*
X14163636Y-21080127D02*
X19618182Y-12419873D01*
X15072727Y-36250000D02*
X17800000Y-31919873D01*
X49400000Y-36250000D02*
X46900000Y-38750000D01*
X61000000Y-44910254D02*
X53500000Y-40580127D01*
X43945455Y-55750000D02*
X42127273Y-55750000D01*
X41218182Y-40580127D02*
X43945455Y-36250000D01*
X33150000Y-52141561D02*
X31900000Y-51419873D01*
X67250000Y-59358439D02*
X68500000Y-60080127D01*
X17800000Y-8089746D02*
X25300000Y-12419873D01*
X62818182Y-51419873D02*
X64636364Y-51419873D01*
X25300000Y-58250000D02*
X24050000Y-57528312D01*
X41218182Y-60080127D02*
X43945455Y-55750000D01*
X10300000Y-12419873D02*
X17800000Y-8089746D01*
X53500000Y-53250000D02*
X54750000Y-53971688D01*
X54750000Y-32641561D02*
X53500000Y-31919873D01*
X36672727Y-55750000D02*
X39400000Y-51419873D01*
X17800000Y-47089746D02*
X25300000Y-51419873D01*
X39400000Y-9533122D02*
X33150000Y-13141561D01*
X24050000Y-32641561D02*
X17800000Y-29033122D01*
X45650000Y-32641561D02*
X39400000Y-29033122D01*
X46900000Y-19250000D02*
X45650000Y-18528312D01*
X59181818Y-60080127D02*
X57363636Y-60080127D01*
X25300000Y-60080127D02*
X17800000Y-64410254D01*
X17800000Y-25410254D02*
X10300000Y-21080127D01*
X39400000Y-31919873D02*
X37581818Y-31919873D01*
X21436364Y-31919873D02*
X15981818Y-40580127D01*
D11*
X56439409Y-69454819D02*
X56439409Y-70169104D01*
X56439409Y-70169104D02*
X56391790Y-70311961D01*
X56391790Y-70311961D02*
X56296552Y-70407200D01*
X56296552Y-70407200D02*
X56153695Y-70454819D01*
X56153695Y-70454819D02*
X56058457Y-70454819D01*
X57391790Y-70454819D02*
X56915600Y-70454819D01*
X56915600Y-70454819D02*
X56915600Y-69454819D01*
X58296552Y-70359580D02*
X58248933Y-70407200D01*
X58248933Y-70407200D02*
X58106076Y-70454819D01*
X58106076Y-70454819D02*
X58010838Y-70454819D01*
X58010838Y-70454819D02*
X57867981Y-70407200D01*
X57867981Y-70407200D02*
X57772743Y-70311961D01*
X57772743Y-70311961D02*
X57725124Y-70216723D01*
X57725124Y-70216723D02*
X57677505Y-70026247D01*
X57677505Y-70026247D02*
X57677505Y-69883390D01*
X57677505Y-69883390D02*
X57725124Y-69692914D01*
X57725124Y-69692914D02*
X57772743Y-69597676D01*
X57772743Y-69597676D02*
X57867981Y-69502438D01*
X57867981Y-69502438D02*
X58010838Y-69454819D01*
X58010838Y-69454819D02*
X58106076Y-69454819D01*
X58106076Y-69454819D02*
X58248933Y-69502438D01*
X58248933Y-69502438D02*
X58296552Y-69550057D01*
X59010838Y-69454819D02*
X59010838Y-70169104D01*
X59010838Y-70169104D02*
X58963219Y-70311961D01*
X58963219Y-70311961D02*
X58867981Y-70407200D01*
X58867981Y-70407200D02*
X58725124Y-70454819D01*
X58725124Y-70454819D02*
X58629886Y-70454819D01*
X59963219Y-70454819D02*
X59487029Y-70454819D01*
X59487029Y-70454819D02*
X59487029Y-69454819D01*
X60867981Y-70359580D02*
X60820362Y-70407200D01*
X60820362Y-70407200D02*
X60677505Y-70454819D01*
X60677505Y-70454819D02*
X60582267Y-70454819D01*
X60582267Y-70454819D02*
X60439410Y-70407200D01*
X60439410Y-70407200D02*
X60344172Y-70311961D01*
X60344172Y-70311961D02*
X60296553Y-70216723D01*
X60296553Y-70216723D02*
X60248934Y-70026247D01*
X60248934Y-70026247D02*
X60248934Y-69883390D01*
X60248934Y-69883390D02*
X60296553Y-69692914D01*
X60296553Y-69692914D02*
X60344172Y-69597676D01*
X60344172Y-69597676D02*
X60439410Y-69502438D01*
X60439410Y-69502438D02*
X60582267Y-69454819D01*
X60582267Y-69454819D02*
X60677505Y-69454819D01*
X60677505Y-69454819D02*
X60820362Y-69502438D01*
X60820362Y-69502438D02*
X60867981Y-69550057D01*
X61582267Y-69454819D02*
X61582267Y-70169104D01*
X61582267Y-70169104D02*
X61534648Y-70311961D01*
X61534648Y-70311961D02*
X61439410Y-70407200D01*
X61439410Y-70407200D02*
X61296553Y-70454819D01*
X61296553Y-70454819D02*
X61201315Y-70454819D01*
X62534648Y-70454819D02*
X62058458Y-70454819D01*
X62058458Y-70454819D02*
X62058458Y-69454819D01*
X63439410Y-70359580D02*
X63391791Y-70407200D01*
X63391791Y-70407200D02*
X63248934Y-70454819D01*
X63248934Y-70454819D02*
X63153696Y-70454819D01*
X63153696Y-70454819D02*
X63010839Y-70407200D01*
X63010839Y-70407200D02*
X62915601Y-70311961D01*
X62915601Y-70311961D02*
X62867982Y-70216723D01*
X62867982Y-70216723D02*
X62820363Y-70026247D01*
X62820363Y-70026247D02*
X62820363Y-69883390D01*
X62820363Y-69883390D02*
X62867982Y-69692914D01*
X62867982Y-69692914D02*
X62915601Y-69597676D01*
X62915601Y-69597676D02*
X63010839Y-69502438D01*
X63010839Y-69502438D02*
X63153696Y-69454819D01*
X63153696Y-69454819D02*
X63248934Y-69454819D01*
X63248934Y-69454819D02*
X63391791Y-69502438D01*
X63391791Y-69502438D02*
X63439410Y-69550057D01*
X64153696Y-69454819D02*
X64153696Y-70169104D01*
X64153696Y-70169104D02*
X64106077Y-70311961D01*
X64106077Y-70311961D02*
X64010839Y-70407200D01*
X64010839Y-70407200D02*
X63867982Y-70454819D01*
X63867982Y-70454819D02*
X63772744Y-70454819D01*
X65106077Y-70454819D02*
X64629887Y-70454819D01*
X64629887Y-70454819D02*
X64629887Y-69454819D01*
X66010839Y-70359580D02*
X65963220Y-70407200D01*
X65963220Y-70407200D02*
X65820363Y-70454819D01*
X65820363Y-70454819D02*
X65725125Y-70454819D01*
X65725125Y-70454819D02*
X65582268Y-70407200D01*
X65582268Y-70407200D02*
X65487030Y-70311961D01*
X65487030Y-70311961D02*
X65439411Y-70216723D01*
X65439411Y-70216723D02*
X65391792Y-70026247D01*
X65391792Y-70026247D02*
X65391792Y-69883390D01*
X65391792Y-69883390D02*
X65439411Y-69692914D01*
X65439411Y-69692914D02*
X65487030Y-69597676D01*
X65487030Y-69597676D02*
X65582268Y-69502438D01*
X65582268Y-69502438D02*
X65725125Y-69454819D01*
X65725125Y-69454819D02*
X65820363Y-69454819D01*
X65820363Y-69454819D02*
X65963220Y-69502438D01*
X65963220Y-69502438D02*
X66010839Y-69550057D01*
D12*
%TO.C,R1*%
X31113641Y-50798000D02*
X30806359Y-50798000D01*
X31113641Y-51558000D02*
X30806359Y-51558000D01*
%TO.C,C3*%
X56518000Y-57693836D02*
X56518000Y-57478164D01*
X57238000Y-57693836D02*
X57238000Y-57478164D01*
%TO.C,C1*%
X9252164Y-32334000D02*
X9467836Y-32334000D01*
X9252164Y-33054000D02*
X9467836Y-33054000D01*
%TO.C,C2*%
X66168164Y-38742000D02*
X66383836Y-38742000D01*
X66168164Y-39462000D02*
X66383836Y-39462000D01*
X44568164Y-58242000D02*
X44783836Y-58242000D01*
X44568164Y-58962000D02*
X44783836Y-58962000D01*
%TO.C,C3*%
X13318000Y-57693836D02*
X13318000Y-57478164D01*
X14038000Y-57693836D02*
X14038000Y-57478164D01*
X56518000Y-18693836D02*
X56518000Y-18478164D01*
X57238000Y-18693836D02*
X57238000Y-18478164D01*
%TO.C,C1*%
X52452164Y-51834000D02*
X52667836Y-51834000D01*
X52452164Y-52554000D02*
X52667836Y-52554000D01*
%TO.C,C2*%
X66168164Y-58242000D02*
X66383836Y-58242000D01*
X66168164Y-58962000D02*
X66383836Y-58962000D01*
%TO.C,C3*%
X34918000Y-57693836D02*
X34918000Y-57478164D01*
X35638000Y-57693836D02*
X35638000Y-57478164D01*
%TO.C,R1*%
X52713641Y-50798000D02*
X52406359Y-50798000D01*
X52713641Y-51558000D02*
X52406359Y-51558000D01*
%TO.C,C3*%
X34918000Y-18693836D02*
X34918000Y-18478164D01*
X35638000Y-18693836D02*
X35638000Y-18478164D01*
%TO.C,R1*%
X52713641Y-11798000D02*
X52406359Y-11798000D01*
X52713641Y-12558000D02*
X52406359Y-12558000D01*
%TO.C,C1*%
X52452164Y-12834000D02*
X52667836Y-12834000D01*
X52452164Y-13554000D02*
X52667836Y-13554000D01*
%TO.C,R1*%
X31113641Y-11798000D02*
X30806359Y-11798000D01*
X31113641Y-12558000D02*
X30806359Y-12558000D01*
X52713641Y-31298000D02*
X52406359Y-31298000D01*
X52713641Y-32058000D02*
X52406359Y-32058000D01*
%TO.C,C2*%
X22968164Y-38742000D02*
X23183836Y-38742000D01*
X22968164Y-39462000D02*
X23183836Y-39462000D01*
X44568164Y-19242000D02*
X44783836Y-19242000D01*
X44568164Y-19962000D02*
X44783836Y-19962000D01*
%TO.C,C1*%
X30852164Y-32334000D02*
X31067836Y-32334000D01*
X30852164Y-33054000D02*
X31067836Y-33054000D01*
%TO.C,R1*%
X31113641Y-31298000D02*
X30806359Y-31298000D01*
X31113641Y-32058000D02*
X30806359Y-32058000D01*
%TO.C,C3*%
X13318000Y-18693836D02*
X13318000Y-18478164D01*
X14038000Y-18693836D02*
X14038000Y-18478164D01*
%TO.C,C1*%
X30852164Y-12834000D02*
X31067836Y-12834000D01*
X30852164Y-13554000D02*
X31067836Y-13554000D01*
X52452164Y-32334000D02*
X52667836Y-32334000D01*
X52452164Y-33054000D02*
X52667836Y-33054000D01*
X30852164Y-51834000D02*
X31067836Y-51834000D01*
X30852164Y-52554000D02*
X31067836Y-52554000D01*
%TO.C,C3*%
X13318000Y-38193836D02*
X13318000Y-37978164D01*
X14038000Y-38193836D02*
X14038000Y-37978164D01*
%TO.C,C1*%
X9252164Y-12834000D02*
X9467836Y-12834000D01*
X9252164Y-13554000D02*
X9467836Y-13554000D01*
%TO.C,C2*%
X22968164Y-58242000D02*
X23183836Y-58242000D01*
X22968164Y-58962000D02*
X23183836Y-58962000D01*
X22968164Y-19242000D02*
X23183836Y-19242000D01*
X22968164Y-19962000D02*
X23183836Y-19962000D01*
%TO.C,C3*%
X34918000Y-38193836D02*
X34918000Y-37978164D01*
X35638000Y-38193836D02*
X35638000Y-37978164D01*
%TO.C,R1*%
X9513641Y-31298000D02*
X9206359Y-31298000D01*
X9513641Y-32058000D02*
X9206359Y-32058000D01*
%TO.C,C2*%
X66168164Y-19242000D02*
X66383836Y-19242000D01*
X66168164Y-19962000D02*
X66383836Y-19962000D01*
%TO.C,R1*%
X9513641Y-11798000D02*
X9206359Y-11798000D01*
X9513641Y-12558000D02*
X9206359Y-12558000D01*
%TO.C,C3*%
X56518000Y-38193836D02*
X56518000Y-37978164D01*
X57238000Y-38193836D02*
X57238000Y-37978164D01*
%TO.C,C2*%
X44568164Y-38742000D02*
X44783836Y-38742000D01*
X44568164Y-39462000D02*
X44783836Y-39462000D01*
%TO.C,C1*%
X9252164Y-51834000D02*
X9467836Y-51834000D01*
X9252164Y-52554000D02*
X9467836Y-52554000D01*
%TO.C,R1*%
X9513641Y-50798000D02*
X9206359Y-50798000D01*
X9513641Y-51558000D02*
X9206359Y-51558000D01*
%TD*%
%LPC*%
D13*
%TO.C,D16*%
X59011072Y-52869873D03*
X59911072Y-52869873D03*
X59911072Y-51969873D03*
X59011072Y-51969873D03*
%TD*%
%TO.C,D5*%
X23318750Y-50807493D03*
X23318750Y-51707493D03*
X24218750Y-51707493D03*
X24218750Y-50807493D03*
%TD*%
%TO.C,D3*%
X38950000Y-27861434D03*
X38950000Y-28761434D03*
X39850000Y-28761434D03*
X39850000Y-27861434D03*
%TD*%
%TO.C,D5*%
X66518750Y-31307493D03*
X66518750Y-32207493D03*
X67418750Y-32207493D03*
X67418750Y-31307493D03*
%TD*%
%TO.C,D8*%
X23687500Y-41499224D03*
X23687500Y-40599224D03*
X22787500Y-40599224D03*
X22787500Y-41499224D03*
%TD*%
%TO.C,D2*%
X14631250Y-29431105D03*
X14631250Y-30331105D03*
X15531250Y-30331105D03*
X15531250Y-29431105D03*
%TD*%
%TO.C,D21*%
X63556527Y-57200000D03*
X64456527Y-57200000D03*
X64456527Y-56300000D03*
X63556527Y-56300000D03*
%TD*%
%TO.C,D3*%
X60550000Y-8361434D03*
X60550000Y-9261434D03*
X61450000Y-9261434D03*
X61450000Y-8361434D03*
%TD*%
%TO.C,D11*%
X36725000Y-23334347D03*
X36725000Y-22434347D03*
X35825000Y-22434347D03*
X35825000Y-23334347D03*
%TD*%
%TO.C,D11*%
X36725000Y-42834347D03*
X36725000Y-41934347D03*
X35825000Y-41934347D03*
X35825000Y-42834347D03*
%TD*%
%TO.C,D19*%
X58819464Y-38547595D03*
X58819464Y-39447595D03*
X59719464Y-39447595D03*
X59719464Y-38547595D03*
%TD*%
%TO.C,D4*%
X63675000Y-49165653D03*
X63675000Y-50065653D03*
X64575000Y-50065653D03*
X64575000Y-49165653D03*
%TD*%
D14*
%TO.C,R1*%
X31470000Y-51178000D03*
X30450000Y-51178000D03*
%TD*%
D13*
%TO.C,D8*%
X23687500Y-21999224D03*
X23687500Y-21099224D03*
X22787500Y-21099224D03*
X22787500Y-21999224D03*
%TD*%
%TO.C,D5*%
X23318750Y-31307493D03*
X23318750Y-32207493D03*
X24218750Y-32207493D03*
X24218750Y-31307493D03*
%TD*%
%TO.C,D17*%
X40680536Y-33052405D03*
X40680536Y-33952405D03*
X41580536Y-33952405D03*
X41580536Y-33052405D03*
%TD*%
%TO.C,D6*%
X45825000Y-14669726D03*
X45825000Y-15569726D03*
X46725000Y-15569726D03*
X46725000Y-14669726D03*
%TD*%
%TO.C,D15*%
X57543473Y-35700000D03*
X58443473Y-35700000D03*
X58443473Y-34800000D03*
X57543473Y-34800000D03*
%TD*%
%TO.C,D12*%
X33881250Y-21692507D03*
X33881250Y-20792507D03*
X32981250Y-20792507D03*
X32981250Y-21692507D03*
%TD*%
%TO.C,D1*%
X11912500Y-31000776D03*
X11912500Y-31900776D03*
X12812500Y-31900776D03*
X12812500Y-31000776D03*
%TD*%
%TO.C,D16*%
X37411072Y-52869873D03*
X38311072Y-52869873D03*
X38311072Y-51969873D03*
X37411072Y-51969873D03*
%TD*%
%TO.C,D16*%
X37411072Y-33369873D03*
X38311072Y-33369873D03*
X38311072Y-32469873D03*
X37411072Y-32469873D03*
%TD*%
%TO.C,D13*%
X54575000Y-18830274D03*
X54575000Y-17930274D03*
X53675000Y-17930274D03*
X53675000Y-18830274D03*
%TD*%
%TO.C,D1*%
X33512500Y-11500776D03*
X33512500Y-12400776D03*
X34412500Y-12400776D03*
X34412500Y-11500776D03*
%TD*%
%TO.C,D14*%
X10843750Y-16130422D03*
X10843750Y-15230422D03*
X9943750Y-15230422D03*
X9943750Y-16130422D03*
%TD*%
%TO.C,D12*%
X12281250Y-41192507D03*
X12281250Y-40292507D03*
X11381250Y-40292507D03*
X11381250Y-41192507D03*
%TD*%
%TO.C,D4*%
X63675000Y-29665653D03*
X63675000Y-30565653D03*
X64575000Y-30565653D03*
X64575000Y-29665653D03*
%TD*%
%TO.C,D21*%
X41956527Y-18200000D03*
X42856527Y-18200000D03*
X42856527Y-17300000D03*
X41956527Y-17300000D03*
%TD*%
D15*
%TO.C,C3*%
X56878000Y-58066000D03*
X56878000Y-57106000D03*
%TD*%
D13*
%TO.C,D13*%
X11375000Y-18830274D03*
X11375000Y-17930274D03*
X10475000Y-17930274D03*
X10475000Y-18830274D03*
%TD*%
D16*
%TO.C,C1*%
X8880000Y-32694000D03*
X9840000Y-32694000D03*
%TD*%
D13*
%TO.C,D15*%
X14343473Y-35700000D03*
X15243473Y-35700000D03*
X15243473Y-34800000D03*
X14343473Y-34800000D03*
%TD*%
D16*
%TO.C,C2*%
X65796000Y-39102000D03*
X66756000Y-39102000D03*
%TD*%
D13*
%TO.C,D8*%
X66887500Y-60999224D03*
X66887500Y-60099224D03*
X65987500Y-60099224D03*
X65987500Y-60999224D03*
%TD*%
%TO.C,D17*%
X40680536Y-13552405D03*
X40680536Y-14452405D03*
X41580536Y-14452405D03*
X41580536Y-13552405D03*
%TD*%
%TO.C,D10*%
X18250000Y-44638566D03*
X18250000Y-43738566D03*
X17350000Y-43738566D03*
X17350000Y-44638566D03*
%TD*%
%TO.C,D12*%
X55481250Y-21692507D03*
X55481250Y-20792507D03*
X54581250Y-20792507D03*
X54581250Y-21692507D03*
%TD*%
%TO.C,D12*%
X12281250Y-21692507D03*
X12281250Y-20792507D03*
X11381250Y-20792507D03*
X11381250Y-21692507D03*
%TD*%
%TO.C,D10*%
X61450000Y-64138566D03*
X61450000Y-63238566D03*
X60550000Y-63238566D03*
X60550000Y-64138566D03*
%TD*%
%TO.C,D4*%
X20475000Y-49165653D03*
X20475000Y-50065653D03*
X21375000Y-50065653D03*
X21375000Y-49165653D03*
%TD*%
%TO.C,D11*%
X58325000Y-42834347D03*
X58325000Y-41934347D03*
X57425000Y-41934347D03*
X57425000Y-42834347D03*
%TD*%
%TO.C,D7*%
X24756250Y-17369578D03*
X24756250Y-18269578D03*
X25656250Y-18269578D03*
X25656250Y-17369578D03*
%TD*%
%TO.C,D19*%
X37219464Y-19047595D03*
X37219464Y-19947595D03*
X38119464Y-19947595D03*
X38119464Y-19047595D03*
%TD*%
%TO.C,D1*%
X55112500Y-50500776D03*
X55112500Y-51400776D03*
X56012500Y-51400776D03*
X56012500Y-50500776D03*
%TD*%
D17*
%TO.C,KiKit_TO_1*%
X2500000Y-2500000D03*
%TD*%
D13*
%TO.C,D3*%
X38950000Y-47361434D03*
X38950000Y-48261434D03*
X39850000Y-48261434D03*
X39850000Y-47361434D03*
%TD*%
%TO.C,D7*%
X24756250Y-56369578D03*
X24756250Y-57269578D03*
X25656250Y-57269578D03*
X25656250Y-56369578D03*
%TD*%
%TO.C,D14*%
X54043750Y-35630422D03*
X54043750Y-34730422D03*
X53143750Y-34730422D03*
X53143750Y-35630422D03*
%TD*%
%TO.C,D6*%
X24225000Y-53669726D03*
X24225000Y-54569726D03*
X25125000Y-54569726D03*
X25125000Y-53669726D03*
%TD*%
%TO.C,D19*%
X37219464Y-58047595D03*
X37219464Y-58947595D03*
X38119464Y-58947595D03*
X38119464Y-58047595D03*
%TD*%
D18*
%TO.C,KiKit_FID_T_2*%
X69300000Y-2500000D03*
%TD*%
D13*
%TO.C,D20*%
X18888928Y-20530127D03*
X19788928Y-20530127D03*
X19788928Y-19630127D03*
X18888928Y-19630127D03*
%TD*%
%TO.C,D7*%
X67956250Y-17369578D03*
X67956250Y-18269578D03*
X68856250Y-18269578D03*
X68856250Y-17369578D03*
%TD*%
D17*
%TO.C,KiKit_TO_3*%
X2500000Y-70000000D03*
%TD*%
D16*
%TO.C,C2*%
X44196000Y-58602000D03*
X45156000Y-58602000D03*
%TD*%
D15*
%TO.C,C3*%
X13678000Y-58066000D03*
X13678000Y-57106000D03*
%TD*%
D13*
%TO.C,D10*%
X39850000Y-25138566D03*
X39850000Y-24238566D03*
X38950000Y-24238566D03*
X38950000Y-25138566D03*
%TD*%
%TO.C,D13*%
X32975000Y-38330274D03*
X32975000Y-37430274D03*
X32075000Y-37430274D03*
X32075000Y-38330274D03*
%TD*%
D15*
%TO.C,C3*%
X56878000Y-19066000D03*
X56878000Y-18106000D03*
%TD*%
D13*
%TO.C,D15*%
X35943473Y-35700000D03*
X36843473Y-35700000D03*
X36843473Y-34800000D03*
X35943473Y-34800000D03*
%TD*%
%TO.C,D1*%
X11912500Y-11500776D03*
X11912500Y-12400776D03*
X12812500Y-12400776D03*
X12812500Y-11500776D03*
%TD*%
%TO.C,D11*%
X58325000Y-23334347D03*
X58325000Y-22434347D03*
X57425000Y-22434347D03*
X57425000Y-23334347D03*
%TD*%
%TO.C,D10*%
X61450000Y-25138566D03*
X61450000Y-24238566D03*
X60550000Y-24238566D03*
X60550000Y-25138566D03*
%TD*%
%TO.C,D7*%
X67956250Y-36869578D03*
X67956250Y-37769578D03*
X68856250Y-37769578D03*
X68856250Y-36869578D03*
%TD*%
%TO.C,D9*%
X20968750Y-62568895D03*
X20968750Y-61668895D03*
X20068750Y-61668895D03*
X20068750Y-62568895D03*
%TD*%
%TO.C,D12*%
X33881250Y-41192507D03*
X33881250Y-40292507D03*
X32981250Y-40292507D03*
X32981250Y-41192507D03*
%TD*%
%TO.C,D17*%
X19080536Y-13552405D03*
X19080536Y-14452405D03*
X19980536Y-14452405D03*
X19980536Y-13552405D03*
%TD*%
%TO.C,D6*%
X67425000Y-14669726D03*
X67425000Y-15569726D03*
X68325000Y-15569726D03*
X68325000Y-14669726D03*
%TD*%
%TO.C,D20*%
X18888928Y-40030127D03*
X19788928Y-40030127D03*
X19788928Y-39130127D03*
X18888928Y-39130127D03*
%TD*%
%TO.C,D6*%
X24225000Y-34169726D03*
X24225000Y-35069726D03*
X25125000Y-35069726D03*
X25125000Y-34169726D03*
%TD*%
%TO.C,D8*%
X45287500Y-41499224D03*
X45287500Y-40599224D03*
X44387500Y-40599224D03*
X44387500Y-41499224D03*
%TD*%
%TO.C,D3*%
X17350000Y-8361434D03*
X17350000Y-9261434D03*
X18250000Y-9261434D03*
X18250000Y-8361434D03*
%TD*%
%TO.C,D9*%
X20968750Y-23568895D03*
X20968750Y-22668895D03*
X20068750Y-22668895D03*
X20068750Y-23568895D03*
%TD*%
%TO.C,D8*%
X66887500Y-21999224D03*
X66887500Y-21099224D03*
X65987500Y-21099224D03*
X65987500Y-21999224D03*
%TD*%
%TO.C,D15*%
X57543473Y-55200000D03*
X58443473Y-55200000D03*
X58443473Y-54300000D03*
X57543473Y-54300000D03*
%TD*%
%TO.C,D7*%
X46356250Y-56369578D03*
X46356250Y-57269578D03*
X47256250Y-57269578D03*
X47256250Y-56369578D03*
%TD*%
D16*
%TO.C,C1*%
X52080000Y-52194000D03*
X53040000Y-52194000D03*
%TD*%
%TO.C,C2*%
X65796000Y-58602000D03*
X66756000Y-58602000D03*
%TD*%
D15*
%TO.C,C3*%
X35278000Y-58066000D03*
X35278000Y-57106000D03*
%TD*%
D13*
%TO.C,D8*%
X45287500Y-60999224D03*
X45287500Y-60099224D03*
X44387500Y-60099224D03*
X44387500Y-60999224D03*
%TD*%
D14*
%TO.C,R1*%
X53070000Y-51178000D03*
X52050000Y-51178000D03*
%TD*%
D13*
%TO.C,D18*%
X38950000Y-55300000D03*
X38950000Y-56200000D03*
X39850000Y-56200000D03*
X39850000Y-55300000D03*
%TD*%
%TO.C,D17*%
X62280536Y-13552405D03*
X62280536Y-14452405D03*
X63180536Y-14452405D03*
X63180536Y-13552405D03*
%TD*%
%TO.C,D17*%
X19080536Y-33052405D03*
X19080536Y-33952405D03*
X19980536Y-33952405D03*
X19980536Y-33052405D03*
%TD*%
%TO.C,D15*%
X14343473Y-16200000D03*
X15243473Y-16200000D03*
X15243473Y-15300000D03*
X14343473Y-15300000D03*
%TD*%
%TO.C,D3*%
X60550000Y-27861434D03*
X60550000Y-28761434D03*
X61450000Y-28761434D03*
X61450000Y-27861434D03*
%TD*%
%TO.C,D1*%
X55112500Y-11500776D03*
X55112500Y-12400776D03*
X56012500Y-12400776D03*
X56012500Y-11500776D03*
%TD*%
%TO.C,D21*%
X41956527Y-37700000D03*
X42856527Y-37700000D03*
X42856527Y-36800000D03*
X41956527Y-36800000D03*
%TD*%
D15*
%TO.C,C3*%
X35278000Y-19066000D03*
X35278000Y-18106000D03*
%TD*%
D13*
%TO.C,D16*%
X37411072Y-13869873D03*
X38311072Y-13869873D03*
X38311072Y-12969873D03*
X37411072Y-12969873D03*
%TD*%
%TO.C,D21*%
X20356527Y-57200000D03*
X21256527Y-57200000D03*
X21256527Y-56300000D03*
X20356527Y-56300000D03*
%TD*%
%TO.C,D13*%
X54575000Y-38330274D03*
X54575000Y-37430274D03*
X53675000Y-37430274D03*
X53675000Y-38330274D03*
%TD*%
%TO.C,D4*%
X20475000Y-29665653D03*
X20475000Y-30565653D03*
X21375000Y-30565653D03*
X21375000Y-29665653D03*
%TD*%
D14*
%TO.C,R1*%
X53070000Y-12178000D03*
X52050000Y-12178000D03*
%TD*%
D13*
%TO.C,D20*%
X40488928Y-59530127D03*
X41388928Y-59530127D03*
X41388928Y-58630127D03*
X40488928Y-58630127D03*
%TD*%
D16*
%TO.C,C1*%
X52080000Y-13194000D03*
X53040000Y-13194000D03*
%TD*%
D13*
%TO.C,D5*%
X44918750Y-11807493D03*
X44918750Y-12707493D03*
X45818750Y-12707493D03*
X45818750Y-11807493D03*
%TD*%
D14*
%TO.C,R1*%
X31470000Y-12178000D03*
X30450000Y-12178000D03*
%TD*%
D13*
%TO.C,D6*%
X45825000Y-34169726D03*
X45825000Y-35069726D03*
X46725000Y-35069726D03*
X46725000Y-34169726D03*
%TD*%
%TO.C,D18*%
X38950000Y-35800000D03*
X38950000Y-36700000D03*
X39850000Y-36700000D03*
X39850000Y-35800000D03*
%TD*%
%TO.C,D18*%
X17350000Y-35800000D03*
X17350000Y-36700000D03*
X18250000Y-36700000D03*
X18250000Y-35800000D03*
%TD*%
%TO.C,D13*%
X11375000Y-38330274D03*
X11375000Y-37430274D03*
X10475000Y-37430274D03*
X10475000Y-38330274D03*
%TD*%
%TO.C,D13*%
X11375000Y-57830274D03*
X11375000Y-56930274D03*
X10475000Y-56930274D03*
X10475000Y-57830274D03*
%TD*%
%TO.C,D19*%
X15619464Y-38547595D03*
X15619464Y-39447595D03*
X16519464Y-39447595D03*
X16519464Y-38547595D03*
%TD*%
%TO.C,D2*%
X57831250Y-9931105D03*
X57831250Y-10831105D03*
X58731250Y-10831105D03*
X58731250Y-9931105D03*
%TD*%
%TO.C,D9*%
X64168750Y-23568895D03*
X64168750Y-22668895D03*
X63268750Y-22668895D03*
X63268750Y-23568895D03*
%TD*%
%TO.C,D4*%
X42075000Y-10165653D03*
X42075000Y-11065653D03*
X42975000Y-11065653D03*
X42975000Y-10165653D03*
%TD*%
%TO.C,D11*%
X58325000Y-62334347D03*
X58325000Y-61434347D03*
X57425000Y-61434347D03*
X57425000Y-62334347D03*
%TD*%
%TO.C,D20*%
X62088928Y-59530127D03*
X62988928Y-59530127D03*
X62988928Y-58630127D03*
X62088928Y-58630127D03*
%TD*%
%TO.C,D5*%
X66518750Y-50807493D03*
X66518750Y-51707493D03*
X67418750Y-51707493D03*
X67418750Y-50807493D03*
%TD*%
D14*
%TO.C,R1*%
X53070000Y-31678000D03*
X52050000Y-31678000D03*
%TD*%
D13*
%TO.C,D18*%
X17350000Y-55300000D03*
X17350000Y-56200000D03*
X18250000Y-56200000D03*
X18250000Y-55300000D03*
%TD*%
%TO.C,D14*%
X54043750Y-16130422D03*
X54043750Y-15230422D03*
X53143750Y-15230422D03*
X53143750Y-16130422D03*
%TD*%
%TO.C,D1*%
X11912500Y-50500776D03*
X11912500Y-51400776D03*
X12812500Y-51400776D03*
X12812500Y-50500776D03*
%TD*%
%TO.C,D10*%
X61450000Y-44638566D03*
X61450000Y-43738566D03*
X60550000Y-43738566D03*
X60550000Y-44638566D03*
%TD*%
%TO.C,D5*%
X44918750Y-31307493D03*
X44918750Y-32207493D03*
X45818750Y-32207493D03*
X45818750Y-31307493D03*
%TD*%
%TO.C,D3*%
X17350000Y-47361434D03*
X17350000Y-48261434D03*
X18250000Y-48261434D03*
X18250000Y-47361434D03*
%TD*%
%TO.C,D21*%
X20356527Y-37700000D03*
X21256527Y-37700000D03*
X21256527Y-36800000D03*
X20356527Y-36800000D03*
%TD*%
D16*
%TO.C,C2*%
X22596000Y-39102000D03*
X23556000Y-39102000D03*
%TD*%
D13*
%TO.C,D12*%
X33881250Y-60692507D03*
X33881250Y-59792507D03*
X32981250Y-59792507D03*
X32981250Y-60692507D03*
%TD*%
%TO.C,D21*%
X41956527Y-57200000D03*
X42856527Y-57200000D03*
X42856527Y-56300000D03*
X41956527Y-56300000D03*
%TD*%
%TO.C,D4*%
X42075000Y-49165653D03*
X42075000Y-50065653D03*
X42975000Y-50065653D03*
X42975000Y-49165653D03*
%TD*%
D18*
%TO.C,KiKit_FID_T_1*%
X9500000Y-2500000D03*
%TD*%
D13*
%TO.C,D2*%
X57831250Y-48931105D03*
X57831250Y-49831105D03*
X58731250Y-49831105D03*
X58731250Y-48931105D03*
%TD*%
%TO.C,D10*%
X39850000Y-44638566D03*
X39850000Y-43738566D03*
X38950000Y-43738566D03*
X38950000Y-44638566D03*
%TD*%
D16*
%TO.C,C2*%
X44196000Y-19602000D03*
X45156000Y-19602000D03*
%TD*%
D13*
%TO.C,D7*%
X24756250Y-36869578D03*
X24756250Y-37769578D03*
X25656250Y-37769578D03*
X25656250Y-36869578D03*
%TD*%
D16*
%TO.C,C1*%
X30480000Y-32694000D03*
X31440000Y-32694000D03*
%TD*%
D14*
%TO.C,R1*%
X31470000Y-31678000D03*
X30450000Y-31678000D03*
%TD*%
D13*
%TO.C,D6*%
X67425000Y-53669726D03*
X67425000Y-54569726D03*
X68325000Y-54569726D03*
X68325000Y-53669726D03*
%TD*%
D15*
%TO.C,C3*%
X13678000Y-19066000D03*
X13678000Y-18106000D03*
%TD*%
D13*
%TO.C,D21*%
X63556527Y-18200000D03*
X64456527Y-18200000D03*
X64456527Y-17300000D03*
X63556527Y-17300000D03*
%TD*%
%TO.C,D7*%
X46356250Y-36869578D03*
X46356250Y-37769578D03*
X47256250Y-37769578D03*
X47256250Y-36869578D03*
%TD*%
%TO.C,D12*%
X12281250Y-60692507D03*
X12281250Y-59792507D03*
X11381250Y-59792507D03*
X11381250Y-60692507D03*
%TD*%
%TO.C,D3*%
X17350000Y-27861434D03*
X17350000Y-28761434D03*
X18250000Y-28761434D03*
X18250000Y-27861434D03*
%TD*%
%TO.C,D18*%
X60550000Y-55300000D03*
X60550000Y-56200000D03*
X61450000Y-56200000D03*
X61450000Y-55300000D03*
%TD*%
%TO.C,D21*%
X20356527Y-18200000D03*
X21256527Y-18200000D03*
X21256527Y-17300000D03*
X20356527Y-17300000D03*
%TD*%
%TO.C,D4*%
X63675000Y-10165653D03*
X63675000Y-11065653D03*
X64575000Y-11065653D03*
X64575000Y-10165653D03*
%TD*%
%TO.C,D10*%
X18250000Y-25138566D03*
X18250000Y-24238566D03*
X17350000Y-24238566D03*
X17350000Y-25138566D03*
%TD*%
%TO.C,D8*%
X45287500Y-21999224D03*
X45287500Y-21099224D03*
X44387500Y-21099224D03*
X44387500Y-21999224D03*
%TD*%
%TO.C,D9*%
X64168750Y-62568895D03*
X64168750Y-61668895D03*
X63268750Y-61668895D03*
X63268750Y-62568895D03*
%TD*%
D16*
%TO.C,C1*%
X30480000Y-13194000D03*
X31440000Y-13194000D03*
%TD*%
D13*
%TO.C,D20*%
X18888928Y-59530127D03*
X19788928Y-59530127D03*
X19788928Y-58630127D03*
X18888928Y-58630127D03*
%TD*%
%TO.C,D18*%
X60550000Y-35800000D03*
X60550000Y-36700000D03*
X61450000Y-36700000D03*
X61450000Y-35800000D03*
%TD*%
%TO.C,D6*%
X24225000Y-14669726D03*
X24225000Y-15569726D03*
X25125000Y-15569726D03*
X25125000Y-14669726D03*
%TD*%
%TO.C,D11*%
X15125000Y-42834347D03*
X15125000Y-41934347D03*
X14225000Y-41934347D03*
X14225000Y-42834347D03*
%TD*%
%TO.C,D14*%
X32443750Y-16130422D03*
X32443750Y-15230422D03*
X31543750Y-15230422D03*
X31543750Y-16130422D03*
%TD*%
%TO.C,D1*%
X55112500Y-31000776D03*
X55112500Y-31900776D03*
X56012500Y-31900776D03*
X56012500Y-31000776D03*
%TD*%
%TO.C,D15*%
X35943473Y-55200000D03*
X36843473Y-55200000D03*
X36843473Y-54300000D03*
X35943473Y-54300000D03*
%TD*%
%TO.C,D1*%
X33512500Y-31000776D03*
X33512500Y-31900776D03*
X34412500Y-31900776D03*
X34412500Y-31000776D03*
%TD*%
%TO.C,D14*%
X10843750Y-35630422D03*
X10843750Y-34730422D03*
X9943750Y-34730422D03*
X9943750Y-35630422D03*
%TD*%
%TO.C,D6*%
X67425000Y-34169726D03*
X67425000Y-35069726D03*
X68325000Y-35069726D03*
X68325000Y-34169726D03*
%TD*%
%TO.C,D7*%
X46356250Y-17369578D03*
X46356250Y-18269578D03*
X47256250Y-18269578D03*
X47256250Y-17369578D03*
%TD*%
%TO.C,D2*%
X14631250Y-48931105D03*
X14631250Y-49831105D03*
X15531250Y-49831105D03*
X15531250Y-48931105D03*
%TD*%
%TO.C,D8*%
X23687500Y-60999224D03*
X23687500Y-60099224D03*
X22787500Y-60099224D03*
X22787500Y-60999224D03*
%TD*%
%TO.C,D17*%
X62280536Y-52552405D03*
X62280536Y-53452405D03*
X63180536Y-53452405D03*
X63180536Y-52552405D03*
%TD*%
D16*
%TO.C,C1*%
X52080000Y-32694000D03*
X53040000Y-32694000D03*
%TD*%
D13*
%TO.C,D19*%
X15619464Y-19047595D03*
X15619464Y-19947595D03*
X16519464Y-19947595D03*
X16519464Y-19047595D03*
%TD*%
%TO.C,D2*%
X36231250Y-29431105D03*
X36231250Y-30331105D03*
X37131250Y-30331105D03*
X37131250Y-29431105D03*
%TD*%
D16*
%TO.C,C1*%
X30480000Y-52194000D03*
X31440000Y-52194000D03*
%TD*%
D13*
%TO.C,D14*%
X10843750Y-55130422D03*
X10843750Y-54230422D03*
X9943750Y-54230422D03*
X9943750Y-55130422D03*
%TD*%
%TO.C,D10*%
X39850000Y-64138566D03*
X39850000Y-63238566D03*
X38950000Y-63238566D03*
X38950000Y-64138566D03*
%TD*%
%TO.C,D13*%
X32975000Y-57830274D03*
X32975000Y-56930274D03*
X32075000Y-56930274D03*
X32075000Y-57830274D03*
%TD*%
%TO.C,D11*%
X15125000Y-23334347D03*
X15125000Y-22434347D03*
X14225000Y-22434347D03*
X14225000Y-23334347D03*
%TD*%
%TO.C,D15*%
X57543473Y-16200000D03*
X58443473Y-16200000D03*
X58443473Y-15300000D03*
X57543473Y-15300000D03*
%TD*%
%TO.C,D16*%
X15811072Y-52869873D03*
X16711072Y-52869873D03*
X16711072Y-51969873D03*
X15811072Y-51969873D03*
%TD*%
%TO.C,D5*%
X23318750Y-11807493D03*
X23318750Y-12707493D03*
X24218750Y-12707493D03*
X24218750Y-11807493D03*
%TD*%
%TO.C,D18*%
X60550000Y-16300000D03*
X60550000Y-17200000D03*
X61450000Y-17200000D03*
X61450000Y-16300000D03*
%TD*%
D15*
%TO.C,C3*%
X13678000Y-38566000D03*
X13678000Y-37606000D03*
%TD*%
D13*
%TO.C,D3*%
X60550000Y-47361434D03*
X60550000Y-48261434D03*
X61450000Y-48261434D03*
X61450000Y-47361434D03*
%TD*%
%TO.C,D14*%
X32443750Y-55130422D03*
X32443750Y-54230422D03*
X31543750Y-54230422D03*
X31543750Y-55130422D03*
%TD*%
%TO.C,D5*%
X44918750Y-50807493D03*
X44918750Y-51707493D03*
X45818750Y-51707493D03*
X45818750Y-50807493D03*
%TD*%
%TO.C,D7*%
X67956250Y-56369578D03*
X67956250Y-57269578D03*
X68856250Y-57269578D03*
X68856250Y-56369578D03*
%TD*%
%TO.C,D19*%
X15619464Y-58047595D03*
X15619464Y-58947595D03*
X16519464Y-58947595D03*
X16519464Y-58047595D03*
%TD*%
%TO.C,D11*%
X36725000Y-62334347D03*
X36725000Y-61434347D03*
X35825000Y-61434347D03*
X35825000Y-62334347D03*
%TD*%
%TO.C,D9*%
X42568750Y-23568895D03*
X42568750Y-22668895D03*
X41668750Y-22668895D03*
X41668750Y-23568895D03*
%TD*%
D16*
%TO.C,C1*%
X8880000Y-13194000D03*
X9840000Y-13194000D03*
%TD*%
D18*
%TO.C,KiKit_FID_T_4*%
X69300000Y-70000000D03*
%TD*%
D13*
%TO.C,D18*%
X17350000Y-16300000D03*
X17350000Y-17200000D03*
X18250000Y-17200000D03*
X18250000Y-16300000D03*
%TD*%
D16*
%TO.C,C2*%
X22596000Y-58602000D03*
X23556000Y-58602000D03*
%TD*%
D13*
%TO.C,D20*%
X62088928Y-40030127D03*
X62988928Y-40030127D03*
X62988928Y-39130127D03*
X62088928Y-39130127D03*
%TD*%
%TO.C,D8*%
X66887500Y-41499224D03*
X66887500Y-40599224D03*
X65987500Y-40599224D03*
X65987500Y-41499224D03*
%TD*%
%TO.C,D16*%
X59011072Y-13869873D03*
X59911072Y-13869873D03*
X59911072Y-12969873D03*
X59011072Y-12969873D03*
%TD*%
%TO.C,D13*%
X32975000Y-18830274D03*
X32975000Y-17930274D03*
X32075000Y-17930274D03*
X32075000Y-18830274D03*
%TD*%
D16*
%TO.C,C2*%
X22596000Y-19602000D03*
X23556000Y-19602000D03*
%TD*%
D13*
%TO.C,D9*%
X42568750Y-43068895D03*
X42568750Y-42168895D03*
X41668750Y-42168895D03*
X41668750Y-43068895D03*
%TD*%
%TO.C,D19*%
X37219464Y-38547595D03*
X37219464Y-39447595D03*
X38119464Y-39447595D03*
X38119464Y-38547595D03*
%TD*%
%TO.C,D16*%
X15811072Y-33369873D03*
X16711072Y-33369873D03*
X16711072Y-32469873D03*
X15811072Y-32469873D03*
%TD*%
%TO.C,D21*%
X63556527Y-37700000D03*
X64456527Y-37700000D03*
X64456527Y-36800000D03*
X63556527Y-36800000D03*
%TD*%
%TO.C,D13*%
X54575000Y-57830274D03*
X54575000Y-56930274D03*
X53675000Y-56930274D03*
X53675000Y-57830274D03*
%TD*%
%TO.C,D11*%
X15125000Y-62334347D03*
X15125000Y-61434347D03*
X14225000Y-61434347D03*
X14225000Y-62334347D03*
%TD*%
%TO.C,D16*%
X15811072Y-13869873D03*
X16711072Y-13869873D03*
X16711072Y-12969873D03*
X15811072Y-12969873D03*
%TD*%
%TO.C,D9*%
X64168750Y-43068895D03*
X64168750Y-42168895D03*
X63268750Y-42168895D03*
X63268750Y-43068895D03*
%TD*%
D17*
%TO.C,KiKit_TO_2*%
X76300000Y-2500000D03*
%TD*%
D13*
%TO.C,D4*%
X20475000Y-10165653D03*
X20475000Y-11065653D03*
X21375000Y-11065653D03*
X21375000Y-10165653D03*
%TD*%
%TO.C,D19*%
X58819464Y-19047595D03*
X58819464Y-19947595D03*
X59719464Y-19947595D03*
X59719464Y-19047595D03*
%TD*%
D15*
%TO.C,C3*%
X35278000Y-38566000D03*
X35278000Y-37606000D03*
%TD*%
D13*
%TO.C,D20*%
X40488928Y-40030127D03*
X41388928Y-40030127D03*
X41388928Y-39130127D03*
X40488928Y-39130127D03*
%TD*%
%TO.C,D12*%
X55481250Y-41192507D03*
X55481250Y-40292507D03*
X54581250Y-40292507D03*
X54581250Y-41192507D03*
%TD*%
%TO.C,D2*%
X14631250Y-9931105D03*
X14631250Y-10831105D03*
X15531250Y-10831105D03*
X15531250Y-9931105D03*
%TD*%
%TO.C,D17*%
X19080536Y-52552405D03*
X19080536Y-53452405D03*
X19980536Y-53452405D03*
X19980536Y-52552405D03*
%TD*%
%TO.C,D2*%
X36231250Y-9931105D03*
X36231250Y-10831105D03*
X37131250Y-10831105D03*
X37131250Y-9931105D03*
%TD*%
%TO.C,D10*%
X18250000Y-64138566D03*
X18250000Y-63238566D03*
X17350000Y-63238566D03*
X17350000Y-64138566D03*
%TD*%
%TO.C,D3*%
X38950000Y-8361434D03*
X38950000Y-9261434D03*
X39850000Y-9261434D03*
X39850000Y-8361434D03*
%TD*%
%TO.C,D19*%
X58819464Y-58047595D03*
X58819464Y-58947595D03*
X59719464Y-58947595D03*
X59719464Y-58047595D03*
%TD*%
%TO.C,D2*%
X36231250Y-48931105D03*
X36231250Y-49831105D03*
X37131250Y-49831105D03*
X37131250Y-48931105D03*
%TD*%
%TO.C,D16*%
X59011072Y-33369873D03*
X59911072Y-33369873D03*
X59911072Y-32469873D03*
X59011072Y-32469873D03*
%TD*%
%TO.C,D18*%
X38950000Y-16300000D03*
X38950000Y-17200000D03*
X39850000Y-17200000D03*
X39850000Y-16300000D03*
%TD*%
D14*
%TO.C,R1*%
X9870000Y-31678000D03*
X8850000Y-31678000D03*
%TD*%
D13*
%TO.C,D15*%
X14343473Y-55200000D03*
X15243473Y-55200000D03*
X15243473Y-54300000D03*
X14343473Y-54300000D03*
%TD*%
%TO.C,D12*%
X55481250Y-60692507D03*
X55481250Y-59792507D03*
X54581250Y-59792507D03*
X54581250Y-60692507D03*
%TD*%
D16*
%TO.C,C2*%
X65796000Y-19602000D03*
X66756000Y-19602000D03*
%TD*%
D13*
%TO.C,D15*%
X35943473Y-16200000D03*
X36843473Y-16200000D03*
X36843473Y-15300000D03*
X35943473Y-15300000D03*
%TD*%
D14*
%TO.C,R1*%
X9870000Y-12178000D03*
X8850000Y-12178000D03*
%TD*%
D13*
%TO.C,D9*%
X42568750Y-62568895D03*
X42568750Y-61668895D03*
X41668750Y-61668895D03*
X41668750Y-62568895D03*
%TD*%
%TO.C,D14*%
X54043750Y-55130422D03*
X54043750Y-54230422D03*
X53143750Y-54230422D03*
X53143750Y-55130422D03*
%TD*%
%TO.C,D9*%
X20968750Y-43068895D03*
X20968750Y-42168895D03*
X20068750Y-42168895D03*
X20068750Y-43068895D03*
%TD*%
%TO.C,D17*%
X40680536Y-52552405D03*
X40680536Y-53452405D03*
X41580536Y-53452405D03*
X41580536Y-52552405D03*
%TD*%
%TO.C,D5*%
X66518750Y-11807493D03*
X66518750Y-12707493D03*
X67418750Y-12707493D03*
X67418750Y-11807493D03*
%TD*%
D15*
%TO.C,C3*%
X56878000Y-38566000D03*
X56878000Y-37606000D03*
%TD*%
D13*
%TO.C,D1*%
X33512500Y-50500776D03*
X33512500Y-51400776D03*
X34412500Y-51400776D03*
X34412500Y-50500776D03*
%TD*%
%TO.C,D4*%
X42075000Y-29665653D03*
X42075000Y-30565653D03*
X42975000Y-30565653D03*
X42975000Y-29665653D03*
%TD*%
D16*
%TO.C,C2*%
X44196000Y-39102000D03*
X45156000Y-39102000D03*
%TD*%
D13*
%TO.C,D6*%
X45825000Y-53669726D03*
X45825000Y-54569726D03*
X46725000Y-54569726D03*
X46725000Y-53669726D03*
%TD*%
D16*
%TO.C,C1*%
X8880000Y-52194000D03*
X9840000Y-52194000D03*
%TD*%
D13*
%TO.C,D20*%
X62088928Y-20530127D03*
X62988928Y-20530127D03*
X62988928Y-19630127D03*
X62088928Y-19630127D03*
%TD*%
%TO.C,D14*%
X32443750Y-35630422D03*
X32443750Y-34730422D03*
X31543750Y-34730422D03*
X31543750Y-35630422D03*
%TD*%
%TO.C,D17*%
X62280536Y-33052405D03*
X62280536Y-33952405D03*
X63180536Y-33952405D03*
X63180536Y-33052405D03*
%TD*%
D18*
%TO.C,KiKit_FID_T_3*%
X9500000Y-70000000D03*
%TD*%
D14*
%TO.C,R1*%
X9870000Y-51178000D03*
X8850000Y-51178000D03*
%TD*%
D17*
%TO.C,KiKit_TO_4*%
X76300000Y-70000000D03*
%TD*%
D13*
%TO.C,D2*%
X57831250Y-29431105D03*
X57831250Y-30331105D03*
X58731250Y-30331105D03*
X58731250Y-29431105D03*
%TD*%
%TO.C,D20*%
X40488928Y-20530127D03*
X41388928Y-20530127D03*
X41388928Y-19630127D03*
X40488928Y-19630127D03*
%TD*%
%LPD*%
M02*
