%TF.GenerationSoftware,KiCad,Pcbnew,8.0.4*%
%TF.CreationDate,2024-10-23T12:54:15+11:00*%
%TF.ProjectId,SC_Logo_LED,53435f4c-6f67-46f5-9f4c-45442e6b6963,rev?*%
%TF.SameCoordinates,Original*%
%TF.FileFunction,Legend,Bot*%
%TF.FilePolarity,Positive*%
%FSLAX46Y46*%
G04 Gerber Fmt 4.6, Leading zero omitted, Abs format (unit mm)*
G04 Created by KiCad (PCBNEW 8.0.4) date 2024-10-23 12:54:15*
%MOMM*%
%LPD*%
G01*
G04 APERTURE LIST*
G04 Aperture macros list*
%AMRoundRect*
0 Rectangle with rounded corners*
0 $1 Rounding radius*
0 $2 $3 $4 $5 $6 $7 $8 $9 X,Y pos of 4 corners*
0 Add a 4 corners polygon primitive as box body*
4,1,4,$2,$3,$4,$5,$6,$7,$8,$9,$2,$3,0*
0 Add four circle primitives for the rounded corners*
1,1,$1+$1,$2,$3*
1,1,$1+$1,$4,$5*
1,1,$1+$1,$6,$7*
1,1,$1+$1,$8,$9*
0 Add four rect primitives between the rounded corners*
20,1,$1+$1,$2,$3,$4,$5,0*
20,1,$1+$1,$4,$5,$6,$7,0*
20,1,$1+$1,$6,$7,$8,$9,0*
20,1,$1+$1,$8,$9,$2,$3,0*%
G04 Aperture macros list end*
%ADD10C,0.150000*%
%ADD11C,0.200000*%
%ADD12RoundRect,0.750000X-0.000010X1.250000X-0.000010X-1.250000X0.000010X-1.250000X0.000010X1.250000X0*%
G04 APERTURE END LIST*
D10*
X157365819Y-96634493D02*
X158080104Y-96634493D01*
X158080104Y-96634493D02*
X158222961Y-96586874D01*
X158222961Y-96586874D02*
X158318200Y-96491636D01*
X158318200Y-96491636D02*
X158365819Y-96348779D01*
X158365819Y-96348779D02*
X158365819Y-96253541D01*
X158365819Y-97586874D02*
X158365819Y-97110684D01*
X158365819Y-97110684D02*
X157365819Y-97110684D01*
X158270580Y-98491636D02*
X158318200Y-98444017D01*
X158318200Y-98444017D02*
X158365819Y-98301160D01*
X158365819Y-98301160D02*
X158365819Y-98205922D01*
X158365819Y-98205922D02*
X158318200Y-98063065D01*
X158318200Y-98063065D02*
X158222961Y-97967827D01*
X158222961Y-97967827D02*
X158127723Y-97920208D01*
X158127723Y-97920208D02*
X157937247Y-97872589D01*
X157937247Y-97872589D02*
X157794390Y-97872589D01*
X157794390Y-97872589D02*
X157603914Y-97920208D01*
X157603914Y-97920208D02*
X157508676Y-97967827D01*
X157508676Y-97967827D02*
X157413438Y-98063065D01*
X157413438Y-98063065D02*
X157365819Y-98205922D01*
X157365819Y-98205922D02*
X157365819Y-98301160D01*
X157365819Y-98301160D02*
X157413438Y-98444017D01*
X157413438Y-98444017D02*
X157461057Y-98491636D01*
X157365819Y-99205922D02*
X158080104Y-99205922D01*
X158080104Y-99205922D02*
X158222961Y-99158303D01*
X158222961Y-99158303D02*
X158318200Y-99063065D01*
X158318200Y-99063065D02*
X158365819Y-98920208D01*
X158365819Y-98920208D02*
X158365819Y-98824970D01*
X158365819Y-100158303D02*
X158365819Y-99682113D01*
X158365819Y-99682113D02*
X157365819Y-99682113D01*
X158270580Y-101063065D02*
X158318200Y-101015446D01*
X158318200Y-101015446D02*
X158365819Y-100872589D01*
X158365819Y-100872589D02*
X158365819Y-100777351D01*
X158365819Y-100777351D02*
X158318200Y-100634494D01*
X158318200Y-100634494D02*
X158222961Y-100539256D01*
X158222961Y-100539256D02*
X158127723Y-100491637D01*
X158127723Y-100491637D02*
X157937247Y-100444018D01*
X157937247Y-100444018D02*
X157794390Y-100444018D01*
X157794390Y-100444018D02*
X157603914Y-100491637D01*
X157603914Y-100491637D02*
X157508676Y-100539256D01*
X157508676Y-100539256D02*
X157413438Y-100634494D01*
X157413438Y-100634494D02*
X157365819Y-100777351D01*
X157365819Y-100777351D02*
X157365819Y-100872589D01*
X157365819Y-100872589D02*
X157413438Y-101015446D01*
X157413438Y-101015446D02*
X157461057Y-101063065D01*
X157365819Y-101777351D02*
X158080104Y-101777351D01*
X158080104Y-101777351D02*
X158222961Y-101729732D01*
X158222961Y-101729732D02*
X158318200Y-101634494D01*
X158318200Y-101634494D02*
X158365819Y-101491637D01*
X158365819Y-101491637D02*
X158365819Y-101396399D01*
X158365819Y-102729732D02*
X158365819Y-102253542D01*
X158365819Y-102253542D02*
X157365819Y-102253542D01*
X158270580Y-103634494D02*
X158318200Y-103586875D01*
X158318200Y-103586875D02*
X158365819Y-103444018D01*
X158365819Y-103444018D02*
X158365819Y-103348780D01*
X158365819Y-103348780D02*
X158318200Y-103205923D01*
X158318200Y-103205923D02*
X158222961Y-103110685D01*
X158222961Y-103110685D02*
X158127723Y-103063066D01*
X158127723Y-103063066D02*
X157937247Y-103015447D01*
X157937247Y-103015447D02*
X157794390Y-103015447D01*
X157794390Y-103015447D02*
X157603914Y-103063066D01*
X157603914Y-103063066D02*
X157508676Y-103110685D01*
X157508676Y-103110685D02*
X157413438Y-103205923D01*
X157413438Y-103205923D02*
X157365819Y-103348780D01*
X157365819Y-103348780D02*
X157365819Y-103444018D01*
X157365819Y-103444018D02*
X157413438Y-103586875D01*
X157413438Y-103586875D02*
X157461057Y-103634494D01*
X157365819Y-104348780D02*
X158080104Y-104348780D01*
X158080104Y-104348780D02*
X158222961Y-104301161D01*
X158222961Y-104301161D02*
X158318200Y-104205923D01*
X158318200Y-104205923D02*
X158365819Y-104063066D01*
X158365819Y-104063066D02*
X158365819Y-103967828D01*
X158365819Y-105301161D02*
X158365819Y-104824971D01*
X158365819Y-104824971D02*
X157365819Y-104824971D01*
X158270580Y-106205923D02*
X158318200Y-106158304D01*
X158318200Y-106158304D02*
X158365819Y-106015447D01*
X158365819Y-106015447D02*
X158365819Y-105920209D01*
X158365819Y-105920209D02*
X158318200Y-105777352D01*
X158318200Y-105777352D02*
X158222961Y-105682114D01*
X158222961Y-105682114D02*
X158127723Y-105634495D01*
X158127723Y-105634495D02*
X157937247Y-105586876D01*
X157937247Y-105586876D02*
X157794390Y-105586876D01*
X157794390Y-105586876D02*
X157603914Y-105634495D01*
X157603914Y-105634495D02*
X157508676Y-105682114D01*
X157508676Y-105682114D02*
X157413438Y-105777352D01*
X157413438Y-105777352D02*
X157365819Y-105920209D01*
X157365819Y-105920209D02*
X157365819Y-106015447D01*
X157365819Y-106015447D02*
X157413438Y-106158304D01*
X157413438Y-106158304D02*
X157461057Y-106205923D01*
D11*
X152775219Y-106414673D02*
X151775219Y-106414673D01*
X151775219Y-106414673D02*
X151775219Y-106652768D01*
X151775219Y-106652768D02*
X151822838Y-106795625D01*
X151822838Y-106795625D02*
X151918076Y-106890863D01*
X151918076Y-106890863D02*
X152013314Y-106938482D01*
X152013314Y-106938482D02*
X152203790Y-106986101D01*
X152203790Y-106986101D02*
X152346647Y-106986101D01*
X152346647Y-106986101D02*
X152537123Y-106938482D01*
X152537123Y-106938482D02*
X152632361Y-106890863D01*
X152632361Y-106890863D02*
X152727600Y-106795625D01*
X152727600Y-106795625D02*
X152775219Y-106652768D01*
X152775219Y-106652768D02*
X152775219Y-106414673D01*
X152775219Y-107414673D02*
X151775219Y-107414673D01*
X152775219Y-107890863D02*
X151775219Y-107890863D01*
X151775219Y-107890863D02*
X152775219Y-108462291D01*
X152775219Y-108462291D02*
X151775219Y-108462291D01*
X149235219Y-107017863D02*
X149235219Y-106541673D01*
X149235219Y-106541673D02*
X149711409Y-106494054D01*
X149711409Y-106494054D02*
X149663790Y-106541673D01*
X149663790Y-106541673D02*
X149616171Y-106636911D01*
X149616171Y-106636911D02*
X149616171Y-106875006D01*
X149616171Y-106875006D02*
X149663790Y-106970244D01*
X149663790Y-106970244D02*
X149711409Y-107017863D01*
X149711409Y-107017863D02*
X149806647Y-107065482D01*
X149806647Y-107065482D02*
X150044742Y-107065482D01*
X150044742Y-107065482D02*
X150139980Y-107017863D01*
X150139980Y-107017863D02*
X150187600Y-106970244D01*
X150187600Y-106970244D02*
X150235219Y-106875006D01*
X150235219Y-106875006D02*
X150235219Y-106636911D01*
X150235219Y-106636911D02*
X150187600Y-106541673D01*
X150187600Y-106541673D02*
X150139980Y-106494054D01*
X149235219Y-107351197D02*
X150235219Y-107684530D01*
X150235219Y-107684530D02*
X149235219Y-108017863D01*
X154362838Y-106938482D02*
X154315219Y-106843244D01*
X154315219Y-106843244D02*
X154315219Y-106700387D01*
X154315219Y-106700387D02*
X154362838Y-106557530D01*
X154362838Y-106557530D02*
X154458076Y-106462292D01*
X154458076Y-106462292D02*
X154553314Y-106414673D01*
X154553314Y-106414673D02*
X154743790Y-106367054D01*
X154743790Y-106367054D02*
X154886647Y-106367054D01*
X154886647Y-106367054D02*
X155077123Y-106414673D01*
X155077123Y-106414673D02*
X155172361Y-106462292D01*
X155172361Y-106462292D02*
X155267600Y-106557530D01*
X155267600Y-106557530D02*
X155315219Y-106700387D01*
X155315219Y-106700387D02*
X155315219Y-106795625D01*
X155315219Y-106795625D02*
X155267600Y-106938482D01*
X155267600Y-106938482D02*
X155219980Y-106986101D01*
X155219980Y-106986101D02*
X154886647Y-106986101D01*
X154886647Y-106986101D02*
X154886647Y-106795625D01*
X155315219Y-107414673D02*
X154315219Y-107414673D01*
X154315219Y-107414673D02*
X155315219Y-107986101D01*
X155315219Y-107986101D02*
X154315219Y-107986101D01*
X155315219Y-108462292D02*
X154315219Y-108462292D01*
X154315219Y-108462292D02*
X154315219Y-108700387D01*
X154315219Y-108700387D02*
X154362838Y-108843244D01*
X154362838Y-108843244D02*
X154458076Y-108938482D01*
X154458076Y-108938482D02*
X154553314Y-108986101D01*
X154553314Y-108986101D02*
X154743790Y-109033720D01*
X154743790Y-109033720D02*
X154886647Y-109033720D01*
X154886647Y-109033720D02*
X155077123Y-108986101D01*
X155077123Y-108986101D02*
X155172361Y-108938482D01*
X155172361Y-108938482D02*
X155267600Y-108843244D01*
X155267600Y-108843244D02*
X155315219Y-108700387D01*
X155315219Y-108700387D02*
X155315219Y-108462292D01*
X154235838Y-94238482D02*
X154188219Y-94143244D01*
X154188219Y-94143244D02*
X154188219Y-94000387D01*
X154188219Y-94000387D02*
X154235838Y-93857530D01*
X154235838Y-93857530D02*
X154331076Y-93762292D01*
X154331076Y-93762292D02*
X154426314Y-93714673D01*
X154426314Y-93714673D02*
X154616790Y-93667054D01*
X154616790Y-93667054D02*
X154759647Y-93667054D01*
X154759647Y-93667054D02*
X154950123Y-93714673D01*
X154950123Y-93714673D02*
X155045361Y-93762292D01*
X155045361Y-93762292D02*
X155140600Y-93857530D01*
X155140600Y-93857530D02*
X155188219Y-94000387D01*
X155188219Y-94000387D02*
X155188219Y-94095625D01*
X155188219Y-94095625D02*
X155140600Y-94238482D01*
X155140600Y-94238482D02*
X155092980Y-94286101D01*
X155092980Y-94286101D02*
X154759647Y-94286101D01*
X154759647Y-94286101D02*
X154759647Y-94095625D01*
X155188219Y-94714673D02*
X154188219Y-94714673D01*
X154188219Y-94714673D02*
X155188219Y-95286101D01*
X155188219Y-95286101D02*
X154188219Y-95286101D01*
X155188219Y-95762292D02*
X154188219Y-95762292D01*
X154188219Y-95762292D02*
X154188219Y-96000387D01*
X154188219Y-96000387D02*
X154235838Y-96143244D01*
X154235838Y-96143244D02*
X154331076Y-96238482D01*
X154331076Y-96238482D02*
X154426314Y-96286101D01*
X154426314Y-96286101D02*
X154616790Y-96333720D01*
X154616790Y-96333720D02*
X154759647Y-96333720D01*
X154759647Y-96333720D02*
X154950123Y-96286101D01*
X154950123Y-96286101D02*
X155045361Y-96238482D01*
X155045361Y-96238482D02*
X155140600Y-96143244D01*
X155140600Y-96143244D02*
X155188219Y-96000387D01*
X155188219Y-96000387D02*
X155188219Y-95762292D01*
X149235219Y-95333863D02*
X149235219Y-94857673D01*
X149235219Y-94857673D02*
X149711409Y-94810054D01*
X149711409Y-94810054D02*
X149663790Y-94857673D01*
X149663790Y-94857673D02*
X149616171Y-94952911D01*
X149616171Y-94952911D02*
X149616171Y-95191006D01*
X149616171Y-95191006D02*
X149663790Y-95286244D01*
X149663790Y-95286244D02*
X149711409Y-95333863D01*
X149711409Y-95333863D02*
X149806647Y-95381482D01*
X149806647Y-95381482D02*
X150044742Y-95381482D01*
X150044742Y-95381482D02*
X150139980Y-95333863D01*
X150139980Y-95333863D02*
X150187600Y-95286244D01*
X150187600Y-95286244D02*
X150235219Y-95191006D01*
X150235219Y-95191006D02*
X150235219Y-94952911D01*
X150235219Y-94952911D02*
X150187600Y-94857673D01*
X150187600Y-94857673D02*
X150139980Y-94810054D01*
X149235219Y-95667197D02*
X150235219Y-96000530D01*
X150235219Y-96000530D02*
X149235219Y-96333863D01*
X152648219Y-92825673D02*
X151648219Y-92825673D01*
X151648219Y-92825673D02*
X151648219Y-93063768D01*
X151648219Y-93063768D02*
X151695838Y-93206625D01*
X151695838Y-93206625D02*
X151791076Y-93301863D01*
X151791076Y-93301863D02*
X151886314Y-93349482D01*
X151886314Y-93349482D02*
X152076790Y-93397101D01*
X152076790Y-93397101D02*
X152219647Y-93397101D01*
X152219647Y-93397101D02*
X152410123Y-93349482D01*
X152410123Y-93349482D02*
X152505361Y-93301863D01*
X152505361Y-93301863D02*
X152600600Y-93206625D01*
X152600600Y-93206625D02*
X152648219Y-93063768D01*
X152648219Y-93063768D02*
X152648219Y-92825673D01*
X151648219Y-94016149D02*
X151648219Y-94206625D01*
X151648219Y-94206625D02*
X151695838Y-94301863D01*
X151695838Y-94301863D02*
X151791076Y-94397101D01*
X151791076Y-94397101D02*
X151981552Y-94444720D01*
X151981552Y-94444720D02*
X152314885Y-94444720D01*
X152314885Y-94444720D02*
X152505361Y-94397101D01*
X152505361Y-94397101D02*
X152600600Y-94301863D01*
X152600600Y-94301863D02*
X152648219Y-94206625D01*
X152648219Y-94206625D02*
X152648219Y-94016149D01*
X152648219Y-94016149D02*
X152600600Y-93920911D01*
X152600600Y-93920911D02*
X152505361Y-93825673D01*
X152505361Y-93825673D02*
X152314885Y-93778054D01*
X152314885Y-93778054D02*
X151981552Y-93778054D01*
X151981552Y-93778054D02*
X151791076Y-93825673D01*
X151791076Y-93825673D02*
X151695838Y-93920911D01*
X151695838Y-93920911D02*
X151648219Y-94016149D01*
X151648219Y-94873292D02*
X152457742Y-94873292D01*
X152457742Y-94873292D02*
X152552980Y-94920911D01*
X152552980Y-94920911D02*
X152600600Y-94968530D01*
X152600600Y-94968530D02*
X152648219Y-95063768D01*
X152648219Y-95063768D02*
X152648219Y-95254244D01*
X152648219Y-95254244D02*
X152600600Y-95349482D01*
X152600600Y-95349482D02*
X152552980Y-95397101D01*
X152552980Y-95397101D02*
X152457742Y-95444720D01*
X152457742Y-95444720D02*
X151648219Y-95444720D01*
X151648219Y-95778054D02*
X151648219Y-96349482D01*
X152648219Y-96063768D02*
X151648219Y-96063768D01*
%LPC*%
D12*
%TO.C,J1*%
X149664000Y-98763000D03*
X152204000Y-98763000D03*
X154744000Y-98763000D03*
X154744000Y-103813000D03*
X152204000Y-103813000D03*
X149664000Y-103813000D03*
%TD*%
%LPD*%
M02*
