%TF.GenerationSoftware,KiCad,Pcbnew,8.0.4*%
%TF.CreationDate,2024-10-23T12:54:15+11:00*%
%TF.ProjectId,SC_Logo_LED,53435f4c-6f67-46f5-9f4c-45442e6b6963,rev?*%
%TF.SameCoordinates,Original*%
%TF.FileFunction,Copper,L2,Bot*%
%TF.FilePolarity,Positive*%
%FSLAX46Y46*%
G04 Gerber Fmt 4.6, Leading zero omitted, Abs format (unit mm)*
G04 Created by KiCad (PCBNEW 8.0.4) date 2024-10-23 12:54:15*
%MOMM*%
%LPD*%
G01*
G04 APERTURE LIST*
G04 Aperture macros list*
%AMRoundRect*
0 Rectangle with rounded corners*
0 $1 Rounding radius*
0 $2 $3 $4 $5 $6 $7 $8 $9 X,Y pos of 4 corners*
0 Add a 4 corners polygon primitive as box body*
4,1,4,$2,$3,$4,$5,$6,$7,$8,$9,$2,$3,0*
0 Add four circle primitives for the rounded corners*
1,1,$1+$1,$2,$3*
1,1,$1+$1,$4,$5*
1,1,$1+$1,$6,$7*
1,1,$1+$1,$8,$9*
0 Add four rect primitives between the rounded corners*
20,1,$1+$1,$2,$3,$4,$5,0*
20,1,$1+$1,$4,$5,$6,$7,0*
20,1,$1+$1,$6,$7,$8,$9,0*
20,1,$1+$1,$8,$9,$2,$3,0*%
G04 Aperture macros list end*
%TA.AperFunction,SMDPad,CuDef*%
%ADD10RoundRect,0.750000X-0.000010X1.250000X-0.000010X-1.250000X0.000010X-1.250000X0.000010X1.250000X0*%
%TD*%
%TA.AperFunction,ViaPad*%
%ADD11C,0.700000*%
%TD*%
%TA.AperFunction,Conductor*%
%ADD12C,0.300000*%
%TD*%
%TA.AperFunction,Conductor*%
%ADD13C,1.500000*%
%TD*%
%TA.AperFunction,Conductor*%
%ADD14C,0.200000*%
%TD*%
G04 APERTURE END LIST*
D10*
%TO.P,J1,1,Pin_1*%
%TO.N,+5V*%
X149664000Y-98763000D03*
%TO.P,J1,2,Pin_2*%
%TO.N,DOUT*%
X152204000Y-98763000D03*
%TO.P,J1,3,Pin_3*%
%TO.N,GND*%
X154744000Y-98763000D03*
%TO.P,J1,4,Pin_4*%
X154744000Y-103813000D03*
%TO.P,J1,5,Pin_5*%
%TO.N,DIN*%
X152204000Y-103813000D03*
%TO.P,J1,6,Pin_6*%
%TO.N,+5V*%
X149664000Y-103813000D03*
%TD*%
D11*
%TO.N,+5V*%
X144170400Y-98552000D03*
%TO.N,GND*%
X147320000Y-94488000D03*
X151130000Y-106426000D03*
X154432000Y-92964000D03*
X144272000Y-104902000D03*
X159258000Y-104394000D03*
X146812000Y-107696000D03*
X160782000Y-100584000D03*
X147574000Y-99441000D03*
X156464000Y-98806000D03*
X147853400Y-104622600D03*
X143764000Y-102108000D03*
X149860000Y-109220000D03*
X153670000Y-102108000D03*
X156108400Y-104114600D03*
X157226000Y-107950000D03*
X143002000Y-99060000D03*
X154432000Y-109474000D03*
X157480000Y-94742000D03*
X149860000Y-92964000D03*
%TO.N,DOUT*%
X156210000Y-100711000D03*
%TO.N,DIN*%
X145437267Y-96898769D03*
%TD*%
D12*
%TO.N,+5V*%
X144170400Y-100736400D02*
X147247000Y-103813000D01*
D13*
X149664000Y-98763000D02*
X149664000Y-103813000D01*
D12*
X144170400Y-98552000D02*
X144170400Y-100736400D01*
X147247000Y-103813000D02*
X149664000Y-103813000D01*
D14*
%TO.N,DOUT*%
X155575000Y-101346000D02*
X156210000Y-100711000D01*
X152787001Y-101346000D02*
X155575000Y-101346000D01*
X152204000Y-98763000D02*
X152204000Y-100762999D01*
X152204000Y-100762999D02*
X152787001Y-101346000D01*
%TO.N,DIN*%
X145437267Y-96898769D02*
X146687231Y-96898769D01*
X148082000Y-95504000D02*
X149860000Y-95504000D01*
X149860000Y-95504000D02*
X150876000Y-96520000D01*
X150876000Y-96520000D02*
X150876000Y-102485000D01*
X150876000Y-102485000D02*
X152204000Y-103813000D01*
X146687231Y-96898769D02*
X148082000Y-95504000D01*
%TD*%
%TA.AperFunction,Conductor*%
%TO.N,GND*%
G36*
X155737965Y-91955112D02*
G01*
X161385247Y-95215573D01*
X161991500Y-95565593D01*
X162039716Y-95616160D01*
X162053500Y-95672980D01*
X162053500Y-98954739D01*
X162053500Y-99060193D01*
X162080793Y-99162053D01*
X162133520Y-99253379D01*
X162208087Y-99327946D01*
X162541500Y-99520441D01*
X162589715Y-99571008D01*
X162603500Y-99627828D01*
X162603500Y-102948170D01*
X162583815Y-103015209D01*
X162541500Y-103055557D01*
X162299413Y-103195327D01*
X162208085Y-103248055D01*
X162133521Y-103322619D01*
X162080794Y-103413944D01*
X162080793Y-103413947D01*
X162053500Y-103515807D01*
X162053500Y-106903018D01*
X162033815Y-106970057D01*
X161991500Y-107010405D01*
X155737966Y-110620887D01*
X155675966Y-110637500D01*
X148732034Y-110637500D01*
X148670034Y-110620887D01*
X142416500Y-107010405D01*
X142368284Y-106959838D01*
X142354500Y-106903018D01*
X142354500Y-103515809D01*
X142354500Y-103515807D01*
X142327207Y-103413947D01*
X142274480Y-103322621D01*
X142199913Y-103248054D01*
X142108587Y-103195327D01*
X141866500Y-103055557D01*
X141818284Y-103004990D01*
X141804500Y-102948170D01*
X141804500Y-99627828D01*
X141824185Y-99560789D01*
X141866498Y-99520442D01*
X142199913Y-99327946D01*
X142274480Y-99253379D01*
X142327207Y-99162053D01*
X142354500Y-99060193D01*
X142354500Y-98551999D01*
X143515122Y-98551999D01*
X143515122Y-98552000D01*
X143534162Y-98708818D01*
X143590180Y-98856523D01*
X143590181Y-98856524D01*
X143679918Y-98986532D01*
X143684891Y-98992145D01*
X143683444Y-98993426D01*
X143715250Y-99044120D01*
X143719900Y-99077759D01*
X143719900Y-100795709D01*
X143738624Y-100865587D01*
X143750601Y-100910287D01*
X143809911Y-101013014D01*
X146970386Y-104173489D01*
X146970387Y-104173490D01*
X146970389Y-104173491D01*
X147029693Y-104207729D01*
X147029696Y-104207732D01*
X147063937Y-104227500D01*
X147073114Y-104232799D01*
X147187691Y-104263500D01*
X148489500Y-104263500D01*
X148556539Y-104283185D01*
X148602294Y-104335989D01*
X148613500Y-104387500D01*
X148613500Y-105114604D01*
X148628699Y-105268932D01*
X148628700Y-105268934D01*
X148688768Y-105466954D01*
X148786315Y-105649450D01*
X148815853Y-105685442D01*
X148843166Y-105749751D01*
X148844000Y-105764107D01*
X148844000Y-105918000D01*
X149005984Y-105918000D01*
X149073023Y-105937685D01*
X149074877Y-105938900D01*
X149077548Y-105940685D01*
X149260041Y-106038230D01*
X149260043Y-106038230D01*
X149260046Y-106038232D01*
X149458066Y-106098300D01*
X149458065Y-106098300D01*
X149496647Y-106102100D01*
X149612392Y-106113500D01*
X149612395Y-106113500D01*
X149715605Y-106113500D01*
X149715608Y-106113500D01*
X149869934Y-106098300D01*
X150067954Y-106038232D01*
X150067958Y-106038230D01*
X150250451Y-105940685D01*
X150253123Y-105938900D01*
X150254736Y-105938394D01*
X150255823Y-105937814D01*
X150255933Y-105938019D01*
X150319799Y-105918020D01*
X150322016Y-105918000D01*
X151545984Y-105918000D01*
X151613023Y-105937685D01*
X151614877Y-105938900D01*
X151617548Y-105940685D01*
X151800041Y-106038230D01*
X151800043Y-106038230D01*
X151800046Y-106038232D01*
X151998066Y-106098300D01*
X151998065Y-106098300D01*
X152036647Y-106102100D01*
X152152392Y-106113500D01*
X152152395Y-106113500D01*
X152255605Y-106113500D01*
X152255608Y-106113500D01*
X152409934Y-106098300D01*
X152607954Y-106038232D01*
X152607958Y-106038230D01*
X152790451Y-105940685D01*
X152793123Y-105938900D01*
X152794736Y-105938394D01*
X152795823Y-105937814D01*
X152795933Y-105938019D01*
X152859799Y-105918020D01*
X152862016Y-105918000D01*
X152908000Y-105918000D01*
X152908000Y-105902863D01*
X152927685Y-105835824D01*
X152946770Y-105814387D01*
X152946102Y-105813719D01*
X152950407Y-105809413D01*
X152950408Y-105809411D01*
X152950410Y-105809410D01*
X153081685Y-105649450D01*
X153179232Y-105466954D01*
X153239300Y-105268934D01*
X153254500Y-105114608D01*
X153254500Y-102511392D01*
X153239300Y-102357066D01*
X153179232Y-102159046D01*
X153081685Y-101976550D01*
X153059211Y-101949165D01*
X153031898Y-101884855D01*
X153043689Y-101815988D01*
X153090841Y-101764427D01*
X153155064Y-101746500D01*
X155627725Y-101746500D01*
X155627727Y-101746500D01*
X155729588Y-101719207D01*
X155820913Y-101666480D01*
X156089574Y-101397817D01*
X156150895Y-101364334D01*
X156177254Y-101361500D01*
X156288985Y-101361500D01*
X156442365Y-101323696D01*
X156582240Y-101250283D01*
X156700483Y-101145530D01*
X156790220Y-101015523D01*
X156846237Y-100867818D01*
X156865278Y-100711000D01*
X156851734Y-100599450D01*
X156846237Y-100554181D01*
X156794193Y-100416954D01*
X156790220Y-100406477D01*
X156700483Y-100276470D01*
X156582240Y-100171717D01*
X156582238Y-100171716D01*
X156582237Y-100171715D01*
X156442365Y-100098303D01*
X156288986Y-100060500D01*
X156288985Y-100060500D01*
X156131015Y-100060500D01*
X156131014Y-100060500D01*
X155977634Y-100098303D01*
X155837762Y-100171715D01*
X155719516Y-100276471D01*
X155629781Y-100406475D01*
X155629780Y-100406476D01*
X155573763Y-100554181D01*
X155554722Y-100711000D01*
X155554722Y-100711003D01*
X155557068Y-100730328D01*
X155545606Y-100799251D01*
X155521654Y-100832953D01*
X155445424Y-100909182D01*
X155384104Y-100942666D01*
X155357745Y-100945500D01*
X153059866Y-100945500D01*
X152992827Y-100925815D01*
X152947072Y-100873011D01*
X152937128Y-100803853D01*
X152964013Y-100742835D01*
X153008733Y-100688342D01*
X153081685Y-100599450D01*
X153179232Y-100416954D01*
X153239300Y-100218934D01*
X153254500Y-100064608D01*
X153254500Y-97461392D01*
X153239300Y-97307066D01*
X153179232Y-97109046D01*
X153081685Y-96926550D01*
X153024000Y-96856260D01*
X152950410Y-96766589D01*
X152790452Y-96635317D01*
X152790453Y-96635317D01*
X152790450Y-96635315D01*
X152607954Y-96537768D01*
X152409934Y-96477700D01*
X152409932Y-96477699D01*
X152409934Y-96477699D01*
X152290805Y-96465966D01*
X152255608Y-96462500D01*
X152152392Y-96462500D01*
X152114298Y-96466251D01*
X151998067Y-96477699D01*
X151800043Y-96537769D01*
X151617546Y-96635317D01*
X151482858Y-96745853D01*
X151418548Y-96773166D01*
X151404193Y-96774000D01*
X151400500Y-96774000D01*
X151333461Y-96754315D01*
X151287706Y-96701511D01*
X151276500Y-96650000D01*
X151276500Y-96467275D01*
X151276500Y-96467273D01*
X151249207Y-96365413D01*
X151249207Y-96365412D01*
X151196480Y-96274087D01*
X150105913Y-95183520D01*
X150060250Y-95157156D01*
X150014589Y-95130793D01*
X149963657Y-95117146D01*
X149912727Y-95103500D01*
X148134727Y-95103500D01*
X148029273Y-95103500D01*
X147927410Y-95130793D01*
X147836087Y-95183520D01*
X147836084Y-95183522D01*
X146557657Y-96461950D01*
X146496334Y-96495435D01*
X146469976Y-96498269D01*
X146013189Y-96498269D01*
X145946150Y-96478584D01*
X145930962Y-96467085D01*
X145927750Y-96464240D01*
X145927750Y-96464239D01*
X145809507Y-96359486D01*
X145809505Y-96359485D01*
X145809504Y-96359484D01*
X145669632Y-96286072D01*
X145516253Y-96248269D01*
X145516252Y-96248269D01*
X145358282Y-96248269D01*
X145358281Y-96248269D01*
X145204901Y-96286072D01*
X145065029Y-96359484D01*
X144946783Y-96464240D01*
X144857048Y-96594244D01*
X144857047Y-96594245D01*
X144801029Y-96741950D01*
X144781989Y-96898768D01*
X144781989Y-96898769D01*
X144801029Y-97055587D01*
X144821303Y-97109043D01*
X144857047Y-97203292D01*
X144946784Y-97333299D01*
X145065027Y-97438052D01*
X145065029Y-97438053D01*
X145204901Y-97511465D01*
X145358281Y-97549269D01*
X145358282Y-97549269D01*
X145516252Y-97549269D01*
X145669632Y-97511465D01*
X145809507Y-97438052D01*
X145927750Y-97333299D01*
X145927750Y-97333297D01*
X145930962Y-97330453D01*
X145994196Y-97300732D01*
X146013189Y-97299269D01*
X146739956Y-97299269D01*
X146739958Y-97299269D01*
X146841819Y-97271976D01*
X146933144Y-97219249D01*
X148211574Y-95940819D01*
X148272897Y-95907334D01*
X148299255Y-95904500D01*
X149642745Y-95904500D01*
X149709784Y-95924185D01*
X149730426Y-95940819D01*
X150090293Y-96300686D01*
X150123778Y-96362009D01*
X150118794Y-96431701D01*
X150076922Y-96487634D01*
X150011458Y-96512051D01*
X149966617Y-96507028D01*
X149872848Y-96478584D01*
X149869934Y-96477700D01*
X149869932Y-96477699D01*
X149869934Y-96477699D01*
X149750805Y-96465966D01*
X149715608Y-96462500D01*
X149612392Y-96462500D01*
X149574298Y-96466251D01*
X149458067Y-96477699D01*
X149260043Y-96537769D01*
X149077546Y-96635317D01*
X148942858Y-96745853D01*
X148878548Y-96773166D01*
X148864193Y-96774000D01*
X148844000Y-96774000D01*
X148844000Y-96811892D01*
X148824315Y-96878931D01*
X148815854Y-96890556D01*
X148786317Y-96926547D01*
X148688769Y-97109043D01*
X148628699Y-97307067D01*
X148613500Y-97461395D01*
X148613500Y-103238500D01*
X148593815Y-103305539D01*
X148541011Y-103351294D01*
X148489500Y-103362500D01*
X147484965Y-103362500D01*
X147417926Y-103342815D01*
X147397284Y-103326181D01*
X144657219Y-100586116D01*
X144623734Y-100524793D01*
X144620900Y-100498435D01*
X144620900Y-99077759D01*
X144640585Y-99010720D01*
X144656246Y-98992444D01*
X144655909Y-98992145D01*
X144660881Y-98986532D01*
X144660881Y-98986531D01*
X144660883Y-98986530D01*
X144750620Y-98856523D01*
X144806637Y-98708818D01*
X144825678Y-98552000D01*
X144806637Y-98395182D01*
X144750620Y-98247477D01*
X144660883Y-98117470D01*
X144542640Y-98012717D01*
X144542638Y-98012716D01*
X144542637Y-98012715D01*
X144402765Y-97939303D01*
X144249386Y-97901500D01*
X144249385Y-97901500D01*
X144091415Y-97901500D01*
X144091414Y-97901500D01*
X143938034Y-97939303D01*
X143798162Y-98012715D01*
X143679916Y-98117471D01*
X143590181Y-98247475D01*
X143590180Y-98247476D01*
X143534162Y-98395181D01*
X143515122Y-98551999D01*
X142354500Y-98551999D01*
X142354500Y-95672980D01*
X142374185Y-95605941D01*
X142416500Y-95565593D01*
X143022753Y-95215573D01*
X148670034Y-91955112D01*
X148732034Y-91938500D01*
X155675966Y-91938500D01*
X155737965Y-91955112D01*
G37*
%TD.AperFunction*%
%TD*%
M02*
