%TF.GenerationSoftware,KiCad,Pcbnew,8.0.4*%
%TF.CreationDate,2024-10-23T12:54:15+11:00*%
%TF.ProjectId,SC_Logo_LED,53435f4c-6f67-46f5-9f4c-45442e6b6963,rev?*%
%TF.SameCoordinates,Original*%
%TF.FileFunction,Copper,L1,Top*%
%TF.FilePolarity,Positive*%
%FSLAX46Y46*%
G04 Gerber Fmt 4.6, Leading zero omitted, Abs format (unit mm)*
G04 Created by KiCad (PCBNEW 8.0.4) date 2024-10-23 12:54:15*
%MOMM*%
%LPD*%
G01*
G04 APERTURE LIST*
G04 Aperture macros list*
%AMRoundRect*
0 Rectangle with rounded corners*
0 $1 Rounding radius*
0 $2 $3 $4 $5 $6 $7 $8 $9 X,Y pos of 4 corners*
0 Add a 4 corners polygon primitive as box body*
4,1,4,$2,$3,$4,$5,$6,$7,$8,$9,$2,$3,0*
0 Add four circle primitives for the rounded corners*
1,1,$1+$1,$2,$3*
1,1,$1+$1,$4,$5*
1,1,$1+$1,$6,$7*
1,1,$1+$1,$8,$9*
0 Add four rect primitives between the rounded corners*
20,1,$1+$1,$2,$3,$4,$5,0*
20,1,$1+$1,$4,$5,$6,$7,0*
20,1,$1+$1,$6,$7,$8,$9,0*
20,1,$1+$1,$8,$9,$2,$3,0*%
G04 Aperture macros list end*
%TA.AperFunction,SMDPad,CuDef*%
%ADD10R,0.500000X0.500000*%
%TD*%
%TA.AperFunction,SMDPad,CuDef*%
%ADD11RoundRect,0.135000X0.135000X0.185000X-0.135000X0.185000X-0.135000X-0.185000X0.135000X-0.185000X0*%
%TD*%
%TA.AperFunction,SMDPad,CuDef*%
%ADD12RoundRect,0.140000X-0.140000X-0.170000X0.140000X-0.170000X0.140000X0.170000X-0.140000X0.170000X0*%
%TD*%
%TA.AperFunction,SMDPad,CuDef*%
%ADD13RoundRect,0.140000X0.170000X-0.140000X0.170000X0.140000X-0.170000X0.140000X-0.170000X-0.140000X0*%
%TD*%
%TA.AperFunction,ViaPad*%
%ADD14C,0.700000*%
%TD*%
%TA.AperFunction,Conductor*%
%ADD15C,0.300000*%
%TD*%
%TA.AperFunction,Conductor*%
%ADD16C,0.200000*%
%TD*%
G04 APERTURE END LIST*
D10*
%TO.P,D3,1,DIN*%
%TO.N,Net-(D2-DOUT)*%
X151754000Y-92899434D03*
%TO.P,D3,2,VDD*%
%TO.N,+5V*%
X151754000Y-93799434D03*
%TO.P,D3,3,DOUT*%
%TO.N,Net-(D3-DOUT)*%
X152654000Y-93799434D03*
%TO.P,D3,4,GND*%
%TO.N,GND*%
X152654000Y-92899434D03*
%TD*%
%TO.P,D2,1,DIN*%
%TO.N,Net-(D1-DOUT)*%
X149035250Y-94469105D03*
%TO.P,D2,2,VDD*%
%TO.N,+5V*%
X149035250Y-95369105D03*
%TO.P,D2,3,DOUT*%
%TO.N,Net-(D2-DOUT)*%
X149935250Y-95369105D03*
%TO.P,D2,4,GND*%
%TO.N,GND*%
X149935250Y-94469105D03*
%TD*%
%TO.P,D5,1,DIN*%
%TO.N,Net-(D4-DOUT)*%
X157722750Y-96345493D03*
%TO.P,D5,2,VDD*%
%TO.N,+5V*%
X157722750Y-97245493D03*
%TO.P,D5,3,DOUT*%
%TO.N,Net-(D5-DOUT)*%
X158622750Y-97245493D03*
%TO.P,D5,4,GND*%
%TO.N,GND*%
X158622750Y-96345493D03*
%TD*%
%TO.P,D15,1,DIN*%
%TO.N,Net-(D14-DOUT)*%
X148747473Y-100738000D03*
%TO.P,D15,2,VDD*%
%TO.N,+5V*%
X149647473Y-100738000D03*
%TO.P,D15,3,DOUT*%
%TO.N,Net-(D15-DOUT)*%
X149647473Y-99838000D03*
%TO.P,D15,4,GND*%
%TO.N,GND*%
X148747473Y-99838000D03*
%TD*%
%TO.P,D1,1,DIN*%
%TO.N,Net-(D1-DIN)*%
X146316500Y-96038776D03*
%TO.P,D1,2,VDD*%
%TO.N,+5V*%
X146316500Y-96938776D03*
%TO.P,D1,3,DOUT*%
%TO.N,Net-(D1-DOUT)*%
X147216500Y-96938776D03*
%TO.P,D1,4,GND*%
%TO.N,GND*%
X147216500Y-96038776D03*
%TD*%
%TO.P,D10,1,DIN*%
%TO.N,Net-(D10-DIN)*%
X152654000Y-109676566D03*
%TO.P,D10,2,VDD*%
%TO.N,+5V*%
X152654000Y-108776566D03*
%TO.P,D10,3,DOUT*%
%TO.N,Net-(D10-DOUT)*%
X151754000Y-108776566D03*
%TO.P,D10,4,GND*%
%TO.N,GND*%
X151754000Y-109676566D03*
%TD*%
%TO.P,D13,1,DIN*%
%TO.N,Net-(D12-DOUT)*%
X145779000Y-103368274D03*
%TO.P,D13,2,VDD*%
%TO.N,+5V*%
X145779000Y-102468274D03*
%TO.P,D13,3,DOUT*%
%TO.N,Net-(D13-DOUT)*%
X144879000Y-102468274D03*
%TO.P,D13,4,GND*%
%TO.N,GND*%
X144879000Y-103368274D03*
%TD*%
%TO.P,D21,1,DIN*%
%TO.N,Net-(D20-DOUT)*%
X154760527Y-102738000D03*
%TO.P,D21,2,VDD*%
%TO.N,+5V*%
X155660527Y-102738000D03*
%TO.P,D21,3,DOUT*%
%TO.N,DOUT*%
X155660527Y-101838000D03*
%TO.P,D21,4,GND*%
%TO.N,GND*%
X154760527Y-101838000D03*
%TD*%
%TO.P,D14,1,DIN*%
%TO.N,Net-(D13-DOUT)*%
X145247750Y-100668422D03*
%TO.P,D14,2,VDD*%
%TO.N,+5V*%
X145247750Y-99768422D03*
%TO.P,D14,3,DOUT*%
%TO.N,Net-(D14-DOUT)*%
X144347750Y-99768422D03*
%TO.P,D14,4,GND*%
%TO.N,GND*%
X144347750Y-100668422D03*
%TD*%
%TO.P,D12,1,DIN*%
%TO.N,Net-(D11-DOUT)*%
X146685250Y-106230507D03*
%TO.P,D12,2,VDD*%
%TO.N,+5V*%
X146685250Y-105330507D03*
%TO.P,D12,3,DOUT*%
%TO.N,Net-(D12-DOUT)*%
X145785250Y-105330507D03*
%TO.P,D12,4,GND*%
%TO.N,GND*%
X145785250Y-106230507D03*
%TD*%
%TO.P,D7,1,DIN*%
%TO.N,Net-(D6-DOUT)*%
X159160250Y-101907578D03*
%TO.P,D7,2,VDD*%
%TO.N,+5V*%
X159160250Y-102807578D03*
%TO.P,D7,3,DOUT*%
%TO.N,Net-(D7-DOUT)*%
X160060250Y-102807578D03*
%TO.P,D7,4,GND*%
%TO.N,GND*%
X160060250Y-101907578D03*
%TD*%
%TO.P,D20,1,DIN*%
%TO.N,Net-(D19-DOUT)*%
X153292928Y-105068127D03*
%TO.P,D20,2,VDD*%
%TO.N,+5V*%
X154192928Y-105068127D03*
%TO.P,D20,3,DOUT*%
%TO.N,Net-(D20-DOUT)*%
X154192928Y-104168127D03*
%TO.P,D20,4,GND*%
%TO.N,GND*%
X153292928Y-104168127D03*
%TD*%
D11*
%TO.P,R1,1*%
%TO.N,DIN*%
X144274000Y-96716000D03*
%TO.P,R1,2*%
%TO.N,Net-(D1-DIN)*%
X143254000Y-96716000D03*
%TD*%
D10*
%TO.P,D9,1,DIN*%
%TO.N,Net-(D8-DOUT)*%
X155372750Y-108106895D03*
%TO.P,D9,2,VDD*%
%TO.N,+5V*%
X155372750Y-107206895D03*
%TO.P,D9,3,DOUT*%
%TO.N,Net-(D10-DIN)*%
X154472750Y-107206895D03*
%TO.P,D9,4,GND*%
%TO.N,GND*%
X154472750Y-108106895D03*
%TD*%
%TO.P,D17,1,DIN*%
%TO.N,Net-(D16-DOUT)*%
X153484536Y-98090405D03*
%TO.P,D17,2,VDD*%
%TO.N,+5V*%
X153484536Y-98990405D03*
%TO.P,D17,3,DOUT*%
%TO.N,Net-(D17-DOUT)*%
X154384536Y-98990405D03*
%TO.P,D17,4,GND*%
%TO.N,GND*%
X154384536Y-98090405D03*
%TD*%
D12*
%TO.P,C1,1*%
%TO.N,GND*%
X143284000Y-97732000D03*
%TO.P,C1,2*%
%TO.N,+5V*%
X144244000Y-97732000D03*
%TD*%
%TO.P,C2,1*%
%TO.N,GND*%
X157000000Y-104140000D03*
%TO.P,C2,2*%
%TO.N,+5V*%
X157960000Y-104140000D03*
%TD*%
D10*
%TO.P,D16,1,DIN*%
%TO.N,Net-(D15-DOUT)*%
X150215072Y-98407873D03*
%TO.P,D16,2,VDD*%
%TO.N,+5V*%
X151115072Y-98407873D03*
%TO.P,D16,3,DOUT*%
%TO.N,Net-(D16-DOUT)*%
X151115072Y-97507873D03*
%TO.P,D16,4,GND*%
%TO.N,GND*%
X150215072Y-97507873D03*
%TD*%
%TO.P,D4,1,DIN*%
%TO.N,Net-(D3-DOUT)*%
X154879000Y-94703653D03*
%TO.P,D4,2,VDD*%
%TO.N,+5V*%
X154879000Y-95603653D03*
%TO.P,D4,3,DOUT*%
%TO.N,Net-(D4-DOUT)*%
X155779000Y-95603653D03*
%TO.P,D4,4,GND*%
%TO.N,GND*%
X155779000Y-94703653D03*
%TD*%
D13*
%TO.P,C3,1*%
%TO.N,GND*%
X148082000Y-103604000D03*
%TO.P,C3,2*%
%TO.N,+5V*%
X148082000Y-102644000D03*
%TD*%
D10*
%TO.P,D19,1,DIN*%
%TO.N,Net-(D18-DOUT)*%
X150023464Y-103585595D03*
%TO.P,D19,2,VDD*%
%TO.N,+5V*%
X150023464Y-104485595D03*
%TO.P,D19,3,DOUT*%
%TO.N,Net-(D19-DOUT)*%
X150923464Y-104485595D03*
%TO.P,D19,4,GND*%
%TO.N,GND*%
X150923464Y-103585595D03*
%TD*%
%TO.P,D6,1,DIN*%
%TO.N,Net-(D5-DOUT)*%
X158629000Y-99207726D03*
%TO.P,D6,2,VDD*%
%TO.N,+5V*%
X158629000Y-100107726D03*
%TO.P,D6,3,DOUT*%
%TO.N,Net-(D6-DOUT)*%
X159529000Y-100107726D03*
%TO.P,D6,4,GND*%
%TO.N,GND*%
X159529000Y-99207726D03*
%TD*%
%TO.P,D11,1,DIN*%
%TO.N,Net-(D10-DOUT)*%
X149529000Y-107872347D03*
%TO.P,D11,2,VDD*%
%TO.N,+5V*%
X149529000Y-106972347D03*
%TO.P,D11,3,DOUT*%
%TO.N,Net-(D11-DOUT)*%
X148629000Y-106972347D03*
%TO.P,D11,4,GND*%
%TO.N,GND*%
X148629000Y-107872347D03*
%TD*%
%TO.P,D18,1,DIN*%
%TO.N,Net-(D17-DOUT)*%
X151754000Y-100838000D03*
%TO.P,D18,2,VDD*%
%TO.N,+5V*%
X151754000Y-101738000D03*
%TO.P,D18,3,DOUT*%
%TO.N,Net-(D18-DOUT)*%
X152654000Y-101738000D03*
%TO.P,D18,4,GND*%
%TO.N,GND*%
X152654000Y-100838000D03*
%TD*%
%TO.P,D8,1,DIN*%
%TO.N,Net-(D7-DOUT)*%
X158091500Y-106537224D03*
%TO.P,D8,2,VDD*%
%TO.N,+5V*%
X158091500Y-105637224D03*
%TO.P,D8,3,DOUT*%
%TO.N,Net-(D8-DOUT)*%
X157191500Y-105637224D03*
%TO.P,D8,4,GND*%
%TO.N,GND*%
X157191500Y-106537224D03*
%TD*%
D14*
%TO.N,+5V*%
X144170400Y-98552000D03*
%TO.N,GND*%
X147320000Y-94488000D03*
X151130000Y-106426000D03*
X154432000Y-92964000D03*
X144272000Y-104902000D03*
X159258000Y-104394000D03*
X146812000Y-107696000D03*
X160782000Y-100584000D03*
X147574000Y-99441000D03*
X156464000Y-98806000D03*
X147853400Y-104622600D03*
X143764000Y-102108000D03*
X149860000Y-109220000D03*
X153670000Y-102108000D03*
X156108400Y-104114600D03*
X157226000Y-107950000D03*
X143002000Y-99060000D03*
X154432000Y-109474000D03*
X157480000Y-94742000D03*
X149860000Y-92964000D03*
%TO.N,DOUT*%
X156210000Y-100711000D03*
%TO.N,DIN*%
X145437267Y-96898769D03*
%TD*%
D15*
%TO.N,+5V*%
X154081653Y-95153653D02*
X154531653Y-95603653D01*
X149902895Y-95969105D02*
X150410895Y-95969105D01*
X154531653Y-95603653D02*
X154879000Y-95603653D01*
X144244000Y-97732000D02*
X145523276Y-97732000D01*
X149289250Y-96582750D02*
X149902895Y-95969105D01*
X150368000Y-100330000D02*
X150368000Y-100584000D01*
X154879000Y-95603653D02*
X154879000Y-96053653D01*
X158179000Y-100533326D02*
X158191200Y-100545526D01*
X144170400Y-98552000D02*
X144170400Y-97805600D01*
X159160250Y-102807578D02*
X159160250Y-103221750D01*
X146316500Y-97300138D02*
X146316500Y-96938776D01*
X150368000Y-100330000D02*
X150368000Y-99314000D01*
X149529000Y-106672347D02*
X149229000Y-106372347D01*
X158091500Y-105084300D02*
X158091500Y-105637224D01*
X145523276Y-97732000D02*
X145884638Y-97732000D01*
X158179000Y-100107726D02*
X158179000Y-100533326D01*
X149229000Y-106372347D02*
X148665396Y-106372347D01*
X146685250Y-102489250D02*
X146664274Y-102468274D01*
X146175604Y-100020672D02*
X146050000Y-100020672D01*
X158710250Y-102807578D02*
X159160250Y-102807578D01*
X149647473Y-100738000D02*
X150214000Y-100738000D01*
X150368000Y-100584000D02*
X150522000Y-100738000D01*
X158179000Y-100107726D02*
X158629000Y-100107726D01*
X149473464Y-104485595D02*
X148844000Y-103856131D01*
X151754000Y-93799434D02*
X151754000Y-94099434D01*
X156826724Y-104902000D02*
X155372750Y-106355974D01*
X152654000Y-107925645D02*
X151539475Y-107925645D01*
X146664274Y-102468274D02*
X146229000Y-102468274D01*
X157909200Y-104902000D02*
X157960000Y-104952800D01*
X146050000Y-100020672D02*
X145923000Y-100147672D01*
X157722750Y-99651476D02*
X158179000Y-100107726D01*
X158242000Y-104140000D02*
X157960000Y-104140000D01*
X147886000Y-97732000D02*
X149035250Y-96582750D01*
X151980566Y-94399434D02*
X151754000Y-94626000D01*
X157960000Y-104140000D02*
X157960000Y-104648000D01*
X155660527Y-103336924D02*
X155660527Y-102738000D01*
X154879000Y-96053653D02*
X155091347Y-96266000D01*
X146229000Y-102468274D02*
X145779000Y-102468274D01*
X149035250Y-96582750D02*
X149289250Y-96582750D01*
X157189493Y-97245493D02*
X157722750Y-97245493D01*
X147623556Y-105330507D02*
X146685250Y-105330507D01*
X155091347Y-96266000D02*
X156210000Y-96266000D01*
X149035250Y-96582750D02*
X149035250Y-95369105D01*
X152054000Y-94399434D02*
X151980566Y-94399434D01*
X145923000Y-101727000D02*
X146664274Y-102468274D01*
X157706000Y-104902000D02*
X157909200Y-104902000D01*
X152678355Y-107925645D02*
X152654000Y-107925645D01*
X158179000Y-100557726D02*
X158179000Y-102276328D01*
X146274940Y-99921336D02*
X146122026Y-99768422D01*
X146274940Y-99921336D02*
X146175604Y-100020672D01*
X150023464Y-104485595D02*
X149473464Y-104485595D01*
X149647473Y-101078527D02*
X149647473Y-100738000D01*
X155121829Y-106606895D02*
X153997105Y-106606895D01*
X146050000Y-100020672D02*
X146501276Y-100020672D01*
X148665396Y-106372347D02*
X147623556Y-105330507D01*
X148844000Y-103124000D02*
X148364000Y-102644000D01*
X150586177Y-106972347D02*
X149529000Y-106972347D01*
X146249724Y-99768422D02*
X148082000Y-101600698D01*
X151115072Y-98407873D02*
X152509873Y-98407873D01*
X152654000Y-107925645D02*
X152654000Y-108776566D01*
X156210000Y-96266000D02*
X157189493Y-97245493D01*
X145950664Y-99921336D02*
X146274940Y-99921336D01*
X158179000Y-102276328D02*
X158710250Y-102807578D01*
X151754000Y-94626000D02*
X151754000Y-93799434D01*
X155372750Y-106857816D02*
X155372750Y-107206895D01*
X145797750Y-99768422D02*
X145950664Y-99921336D01*
X146122026Y-99768422D02*
X146249724Y-99768422D01*
X152553038Y-94399434D02*
X153307257Y-95153653D01*
X154192928Y-105068127D02*
X154492928Y-105068127D01*
X145542000Y-99768422D02*
X145797750Y-99768422D01*
X145797750Y-99768422D02*
X146050000Y-100020672D01*
X155372750Y-106355974D02*
X155372750Y-107206895D01*
X151115072Y-98566928D02*
X151115072Y-98407873D01*
X154492928Y-105068127D02*
X154792928Y-104768127D01*
X157722750Y-97245493D02*
X157722750Y-99651476D01*
X150023464Y-105035595D02*
X150655996Y-105668127D01*
X153924000Y-105668127D02*
X154192928Y-105399199D01*
X158629000Y-100107726D02*
X158191200Y-100545526D01*
X155121829Y-106606895D02*
X155372750Y-106857816D01*
X144170400Y-97805600D02*
X144244000Y-97732000D01*
X148082000Y-102644000D02*
X149647473Y-101078527D01*
X154792928Y-104204523D02*
X155660527Y-103336924D01*
X145523276Y-97732000D02*
X147886000Y-97732000D01*
X152509873Y-98407873D02*
X153092405Y-98990405D01*
X151754000Y-94099434D02*
X152054000Y-94399434D01*
X157960000Y-104648000D02*
X157706000Y-104902000D01*
X157706000Y-104902000D02*
X156826724Y-104902000D01*
X145247750Y-99768422D02*
X145542000Y-99768422D01*
X150214000Y-100738000D02*
X150368000Y-100584000D01*
X149529000Y-106972347D02*
X149529000Y-106672347D01*
X145884638Y-97732000D02*
X146316500Y-97300138D01*
X150410895Y-95969105D02*
X151754000Y-94626000D01*
X150655996Y-105668127D02*
X153924000Y-105668127D01*
X157960000Y-104952800D02*
X158091500Y-105084300D01*
X155372750Y-106355974D02*
X155121829Y-106606895D01*
X146122026Y-99768422D02*
X145542000Y-99768422D01*
X158191200Y-100545526D02*
X158179000Y-100557726D01*
X148364000Y-102644000D02*
X148082000Y-102644000D01*
X154792928Y-104768127D02*
X154792928Y-104204523D01*
X148844000Y-103856131D02*
X148844000Y-103124000D01*
X145923000Y-100147672D02*
X145923000Y-101727000D01*
X157960000Y-104140000D02*
X157960000Y-104952800D01*
X153307257Y-95153653D02*
X154081653Y-95153653D01*
X153092405Y-98990405D02*
X153484536Y-98990405D01*
X154192928Y-105399199D02*
X154192928Y-105068127D01*
X152054000Y-94399434D02*
X152553038Y-94399434D01*
X150023464Y-104485595D02*
X150023464Y-105035595D01*
X153997105Y-106606895D02*
X152678355Y-107925645D01*
X159160250Y-103221750D02*
X158242000Y-104140000D01*
X151522000Y-101738000D02*
X151754000Y-101738000D01*
X150368000Y-99314000D02*
X151115072Y-98566928D01*
X146685250Y-105330507D02*
X146685250Y-102489250D01*
X148082000Y-101600698D02*
X148082000Y-102644000D01*
X149647473Y-100738000D02*
X150522000Y-100738000D01*
X150522000Y-100738000D02*
X151522000Y-101738000D01*
X151539475Y-107925645D02*
X150586177Y-106972347D01*
D16*
%TO.N,Net-(D1-DIN)*%
X146316500Y-96038776D02*
X143610224Y-96038776D01*
X143254000Y-96395000D02*
X143254000Y-96716000D01*
X143610224Y-96038776D02*
X143254000Y-96395000D01*
%TO.N,Net-(D1-DOUT)*%
X148558095Y-94469105D02*
X149035250Y-94469105D01*
X147866424Y-96938776D02*
X148386800Y-96418400D01*
X148386800Y-94640400D02*
X148558095Y-94469105D01*
X148386800Y-96418400D02*
X148386800Y-94640400D01*
X147216500Y-96938776D02*
X147866424Y-96938776D01*
%TO.N,Net-(D2-DOUT)*%
X151104600Y-93040200D02*
X151245366Y-92899434D01*
X151104600Y-94639004D02*
X151104600Y-93040200D01*
X151245366Y-92899434D02*
X151754000Y-92899434D01*
X150374499Y-95369105D02*
X151104600Y-94639004D01*
X149935250Y-95369105D02*
X150374499Y-95369105D01*
%TO.N,Net-(D3-DOUT)*%
X152654000Y-93799434D02*
X152654000Y-93864000D01*
X153493653Y-94703653D02*
X154879000Y-94703653D01*
X152654000Y-93864000D02*
X153493653Y-94703653D01*
%TO.N,Net-(D4-DOUT)*%
X156980910Y-95603653D02*
X157722750Y-96345493D01*
X155779000Y-95603653D02*
X156980910Y-95603653D01*
%TO.N,Net-(D5-DOUT)*%
X158622750Y-97245493D02*
X158622750Y-99201476D01*
X158622750Y-99201476D02*
X158629000Y-99207726D01*
%TO.N,DOUT*%
X156210000Y-101288527D02*
X155660527Y-101838000D01*
X156210000Y-100711000D02*
X156210000Y-101288527D01*
%TO.N,Net-(D6-DOUT)*%
X159529000Y-100107726D02*
X159529000Y-101538828D01*
X159529000Y-101538828D02*
X159160250Y-101907578D01*
%TO.N,Net-(D7-DOUT)*%
X160060250Y-104768474D02*
X158291500Y-106537224D01*
X160060250Y-102807578D02*
X160060250Y-104768474D01*
X158291500Y-106537224D02*
X158091500Y-106537224D01*
%TO.N,Net-(D8-DOUT)*%
X156744776Y-105637224D02*
X155956000Y-106426000D01*
X155572750Y-108106895D02*
X155372750Y-108106895D01*
X155956000Y-107723645D02*
X155572750Y-108106895D01*
X155956000Y-106426000D02*
X155956000Y-107723645D01*
X157191500Y-105637224D02*
X156744776Y-105637224D01*
%TO.N,Net-(D10-DIN)*%
X152854000Y-109676566D02*
X152654000Y-109676566D01*
X153204000Y-108036396D02*
X153204000Y-109326566D01*
X154472750Y-107206895D02*
X154033501Y-107206895D01*
X153204000Y-109326566D02*
X152854000Y-109676566D01*
X154033501Y-107206895D02*
X153204000Y-108036396D01*
%TO.N,Net-(D10-DOUT)*%
X150849781Y-107872347D02*
X149529000Y-107872347D01*
X151754000Y-108776566D02*
X150849781Y-107872347D01*
%TO.N,Net-(D11-DOUT)*%
X147887160Y-106230507D02*
X146685250Y-106230507D01*
X148629000Y-106972347D02*
X147887160Y-106230507D01*
%TO.N,Net-(D12-DOUT)*%
X145785250Y-105330507D02*
X145785250Y-103374524D01*
X145785250Y-103374524D02*
X145779000Y-103368274D01*
%TO.N,Net-(D13-DOUT)*%
X144879000Y-102468274D02*
X144879000Y-101037172D01*
X144879000Y-101037172D02*
X145247750Y-100668422D01*
%TO.N,Net-(D14-DOUT)*%
X144606172Y-99060000D02*
X146177000Y-99060000D01*
X146177000Y-99060000D02*
X147855000Y-100738000D01*
X147855000Y-100738000D02*
X148747473Y-100738000D01*
X144347750Y-99318422D02*
X144606172Y-99060000D01*
X144347750Y-99768422D02*
X144347750Y-99318422D01*
%TO.N,Net-(D15-DOUT)*%
X149647473Y-98975472D02*
X150215072Y-98407873D01*
X149647473Y-99838000D02*
X149647473Y-98975472D01*
%TO.N,Net-(D16-DOUT)*%
X152840396Y-97848000D02*
X153082801Y-98090405D01*
X153082801Y-98090405D02*
X153484536Y-98090405D01*
X151455199Y-97848000D02*
X152840396Y-97848000D01*
X151115072Y-97507873D02*
X151455199Y-97848000D01*
%TO.N,Net-(D17-DOUT)*%
X153938071Y-99593400D02*
X152679400Y-99593400D01*
X154384536Y-98990405D02*
X154384536Y-99146935D01*
X151754000Y-100518800D02*
X151754000Y-100838000D01*
X154384536Y-99146935D02*
X153938071Y-99593400D01*
X152679400Y-99593400D02*
X151754000Y-100518800D01*
%TO.N,Net-(D18-DOUT)*%
X152654000Y-101738000D02*
X152654000Y-101854000D01*
X152654000Y-101854000D02*
X152095200Y-102412800D01*
X150023464Y-103087536D02*
X150023464Y-103585595D01*
X150698200Y-102412800D02*
X150023464Y-103087536D01*
X152095200Y-102412800D02*
X150698200Y-102412800D01*
%TO.N,Net-(D19-DOUT)*%
X150923464Y-104485595D02*
X151505996Y-105068127D01*
X151505996Y-105068127D02*
X153292928Y-105068127D01*
%TO.N,Net-(D20-DOUT)*%
X154760527Y-103600528D02*
X154192928Y-104168127D01*
X154760527Y-102738000D02*
X154760527Y-103600528D01*
%TO.N,DIN*%
X144274000Y-96716000D02*
X145254498Y-96716000D01*
X145254498Y-96716000D02*
X145437267Y-96898769D01*
%TD*%
%TA.AperFunction,Conductor*%
%TO.N,GND*%
G36*
X152423533Y-94769619D02*
G01*
X152444175Y-94786253D01*
X153092045Y-95434123D01*
X153171969Y-95480267D01*
X153261113Y-95504153D01*
X153261114Y-95504153D01*
X153353401Y-95504153D01*
X153885109Y-95504153D01*
X153952148Y-95523838D01*
X153972790Y-95540472D01*
X154316441Y-95884123D01*
X154316443Y-95884124D01*
X154316447Y-95884127D01*
X154383410Y-95922788D01*
X154383411Y-95922788D01*
X154396365Y-95930267D01*
X154396366Y-95930267D01*
X154396367Y-95930268D01*
X154403276Y-95932119D01*
X154462939Y-95968480D01*
X154474292Y-95983005D01*
X154484450Y-95998208D01*
X154492181Y-96005939D01*
X154525666Y-96067262D01*
X154528500Y-96093620D01*
X154528500Y-96099797D01*
X154543168Y-96154540D01*
X154549439Y-96177942D01*
X154549439Y-96177944D01*
X154552384Y-96188937D01*
X154552387Y-96188944D01*
X154598527Y-96268861D01*
X154598529Y-96268864D01*
X154598530Y-96268865D01*
X154876135Y-96546470D01*
X154956059Y-96592614D01*
X155045203Y-96616500D01*
X156013456Y-96616500D01*
X156080495Y-96636185D01*
X156101137Y-96652819D01*
X156505692Y-97057373D01*
X156909024Y-97460705D01*
X156974281Y-97525962D01*
X156974284Y-97525963D01*
X156974287Y-97525966D01*
X157054199Y-97572104D01*
X157054200Y-97572104D01*
X157054205Y-97572107D01*
X157143349Y-97595993D01*
X157232783Y-97595993D01*
X157299822Y-97615678D01*
X157320464Y-97632312D01*
X157335931Y-97647779D01*
X157369416Y-97709102D01*
X157372250Y-97735460D01*
X157372250Y-99697619D01*
X157393754Y-99777878D01*
X157393763Y-99777908D01*
X157393764Y-99777911D01*
X157396136Y-99786764D01*
X157442277Y-99866684D01*
X157442281Y-99866689D01*
X157792181Y-100216589D01*
X157825666Y-100277912D01*
X157828500Y-100304270D01*
X157828500Y-102322472D01*
X157839501Y-102363530D01*
X157839502Y-102363530D01*
X157839502Y-102363531D01*
X157852386Y-102411616D01*
X157852388Y-102411619D01*
X157898527Y-102491536D01*
X157898529Y-102491539D01*
X157898530Y-102491540D01*
X158495038Y-103088048D01*
X158547329Y-103118238D01*
X158595544Y-103168804D01*
X158608768Y-103237411D01*
X158582800Y-103302276D01*
X158573010Y-103313306D01*
X158286455Y-103599861D01*
X158225132Y-103633346D01*
X158182591Y-103635119D01*
X158139904Y-103629500D01*
X157780105Y-103629500D01*
X157764386Y-103631569D01*
X157730513Y-103636028D01*
X157730511Y-103636029D01*
X157730509Y-103636029D01*
X157611852Y-103691361D01*
X157610722Y-103688939D01*
X157559692Y-103706142D01*
X157491927Y-103689123D01*
X157461463Y-103661677D01*
X157461212Y-103661929D01*
X157456378Y-103657095D01*
X157455016Y-103655868D01*
X157454639Y-103655357D01*
X157347919Y-103576594D01*
X157222732Y-103532788D01*
X157222720Y-103532786D01*
X157193007Y-103530000D01*
X157150000Y-103530000D01*
X157150000Y-104166000D01*
X157130315Y-104233039D01*
X157077511Y-104278794D01*
X157026000Y-104290000D01*
X156420001Y-104290000D01*
X156420001Y-104363000D01*
X156422786Y-104392720D01*
X156466596Y-104517922D01*
X156508761Y-104575053D01*
X156532732Y-104640682D01*
X156517417Y-104708852D01*
X156496672Y-104736368D01*
X155157538Y-106075504D01*
X155012966Y-106220076D01*
X154951643Y-106253561D01*
X154925285Y-106256395D01*
X154024654Y-106256395D01*
X153966199Y-106239230D01*
X153931386Y-106261604D01*
X153928575Y-106262393D01*
X153861817Y-106280281D01*
X153861814Y-106280282D01*
X153781896Y-106326422D01*
X153781891Y-106326426D01*
X152569492Y-107538826D01*
X152508169Y-107572311D01*
X152481811Y-107575145D01*
X151736019Y-107575145D01*
X151668980Y-107555460D01*
X151648338Y-107538826D01*
X150801390Y-106691878D01*
X150801385Y-106691874D01*
X150721466Y-106645733D01*
X150717192Y-106644588D01*
X150709787Y-106642604D01*
X150709786Y-106642603D01*
X150644308Y-106625059D01*
X150632321Y-106621847D01*
X150632320Y-106621847D01*
X150018967Y-106621847D01*
X149951928Y-106602162D01*
X149931286Y-106585528D01*
X149923555Y-106577797D01*
X149907884Y-106567326D01*
X149875271Y-106545534D01*
X149836777Y-106504433D01*
X149817825Y-106471607D01*
X149817822Y-106471602D01*
X149809470Y-106457134D01*
X149809468Y-106457132D01*
X149444213Y-106091878D01*
X149444208Y-106091874D01*
X149364290Y-106045734D01*
X149364289Y-106045733D01*
X149364288Y-106045733D01*
X149275144Y-106021847D01*
X149275143Y-106021847D01*
X148861939Y-106021847D01*
X148794900Y-106002162D01*
X148774258Y-105985528D01*
X148323217Y-105534487D01*
X147838768Y-105050037D01*
X147838767Y-105050036D01*
X147838764Y-105050034D01*
X147758844Y-105003893D01*
X147752811Y-105002276D01*
X147752810Y-105002276D01*
X147711254Y-104991141D01*
X147669700Y-104980007D01*
X147669699Y-104980007D01*
X147175216Y-104980007D01*
X147108177Y-104960322D01*
X147087532Y-104943685D01*
X147072066Y-104928218D01*
X147038583Y-104866894D01*
X147035750Y-104840540D01*
X147035750Y-103797000D01*
X147472001Y-103797000D01*
X147474786Y-103826720D01*
X147518596Y-103951922D01*
X147597358Y-104058641D01*
X147704080Y-104137405D01*
X147829267Y-104181211D01*
X147829279Y-104181213D01*
X147858992Y-104183999D01*
X147931999Y-104183998D01*
X147932000Y-104183998D01*
X147932000Y-103754000D01*
X147472001Y-103754000D01*
X147472001Y-103797000D01*
X147035750Y-103797000D01*
X147035750Y-102443108D01*
X147035750Y-102443106D01*
X147011864Y-102353962D01*
X147005794Y-102343448D01*
X146965720Y-102274038D01*
X146879486Y-102187804D01*
X146309819Y-101618137D01*
X146276334Y-101556814D01*
X146273500Y-101530456D01*
X146273500Y-100587242D01*
X146293185Y-100520203D01*
X146345989Y-100474448D01*
X146415147Y-100464504D01*
X146478703Y-100493529D01*
X146485181Y-100499561D01*
X147695181Y-101709561D01*
X147728666Y-101770884D01*
X147731500Y-101797242D01*
X147731500Y-102151598D01*
X147711815Y-102218637D01*
X147695181Y-102239279D01*
X147628776Y-102305683D01*
X147578027Y-102414514D01*
X147571500Y-102464097D01*
X147571500Y-102823894D01*
X147572772Y-102833560D01*
X147578028Y-102873487D01*
X147578029Y-102873489D01*
X147578029Y-102873490D01*
X147599146Y-102918774D01*
X147623753Y-102971545D01*
X147633361Y-102992148D01*
X147630938Y-102993277D01*
X147648142Y-103044295D01*
X147631129Y-103112062D01*
X147603677Y-103142536D01*
X147603929Y-103142788D01*
X147599110Y-103147606D01*
X147597876Y-103148977D01*
X147597358Y-103149358D01*
X147518594Y-103256080D01*
X147474788Y-103381267D01*
X147474786Y-103381279D01*
X147472000Y-103410992D01*
X147472000Y-103454000D01*
X148108000Y-103454000D01*
X148175039Y-103473685D01*
X148220794Y-103526489D01*
X148232000Y-103578000D01*
X148232000Y-104183999D01*
X148305000Y-104183999D01*
X148334720Y-104181213D01*
X148459922Y-104137403D01*
X148471681Y-104128725D01*
X148537309Y-104104752D01*
X148605480Y-104120065D01*
X148632999Y-104140812D01*
X149258252Y-104766065D01*
X149314222Y-104798379D01*
X149314223Y-104798380D01*
X149328861Y-104806831D01*
X149338176Y-104812209D01*
X149427320Y-104836095D01*
X149427321Y-104836095D01*
X149519608Y-104836095D01*
X149533497Y-104836095D01*
X149600536Y-104855780D01*
X149621178Y-104872414D01*
X149636645Y-104887881D01*
X149670130Y-104949204D01*
X149672964Y-104975562D01*
X149672964Y-105081738D01*
X149696078Y-105168001D01*
X149696079Y-105168007D01*
X149696848Y-105170878D01*
X149696852Y-105170887D01*
X149742989Y-105250800D01*
X149742993Y-105250805D01*
X149742994Y-105250807D01*
X150375527Y-105883339D01*
X150440784Y-105948596D01*
X150440787Y-105948597D01*
X150440790Y-105948600D01*
X150520702Y-105994738D01*
X150520703Y-105994738D01*
X150520708Y-105994741D01*
X150609852Y-106018627D01*
X150609854Y-106018627D01*
X153896451Y-106018627D01*
X153954905Y-106035791D01*
X153989719Y-106013418D01*
X153992529Y-106012628D01*
X154059288Y-105994741D01*
X154071442Y-105987724D01*
X154139212Y-105948597D01*
X154473398Y-105614411D01*
X154519542Y-105534487D01*
X154519543Y-105534481D01*
X154520275Y-105532718D01*
X154521292Y-105531455D01*
X154523606Y-105527448D01*
X154524230Y-105527808D01*
X154564115Y-105478314D01*
X154565945Y-105477068D01*
X154587480Y-105462679D01*
X154619740Y-105414398D01*
X154660841Y-105375904D01*
X154708140Y-105348597D01*
X155073398Y-104983339D01*
X155119542Y-104903415D01*
X155124847Y-104883616D01*
X155143428Y-104814271D01*
X155143428Y-104401066D01*
X155163113Y-104334027D01*
X155179747Y-104313385D01*
X155547123Y-103946009D01*
X155576140Y-103916992D01*
X156420000Y-103916992D01*
X156420000Y-103990000D01*
X156850000Y-103990000D01*
X156850000Y-103530000D01*
X156806999Y-103530000D01*
X156777279Y-103532786D01*
X156652077Y-103576596D01*
X156545358Y-103655358D01*
X156466594Y-103762080D01*
X156422788Y-103887267D01*
X156422786Y-103887279D01*
X156420000Y-103916992D01*
X155576140Y-103916992D01*
X155940996Y-103552136D01*
X155987141Y-103472212D01*
X156002198Y-103416017D01*
X156011027Y-103383068D01*
X156011027Y-103227967D01*
X156030712Y-103160928D01*
X156047346Y-103140286D01*
X156055078Y-103132553D01*
X156068770Y-103112062D01*
X156099394Y-103066231D01*
X156099394Y-103066229D01*
X156099395Y-103066229D01*
X156111026Y-103007752D01*
X156111027Y-103007750D01*
X156111027Y-102468249D01*
X156111026Y-102468247D01*
X156099395Y-102409770D01*
X156099394Y-102409768D01*
X156066432Y-102360439D01*
X156064061Y-102356891D01*
X156043183Y-102290215D01*
X156061667Y-102222835D01*
X156064062Y-102219108D01*
X156099394Y-102166231D01*
X156099395Y-102166229D01*
X156108079Y-102122568D01*
X156111027Y-102107748D01*
X156111027Y-101863833D01*
X156130712Y-101796794D01*
X156147346Y-101776152D01*
X156295471Y-101628027D01*
X156450460Y-101473038D01*
X156465764Y-101446530D01*
X156490021Y-101404516D01*
X156510500Y-101328089D01*
X156510500Y-101235457D01*
X156530185Y-101168418D01*
X156559011Y-101137083D01*
X156602621Y-101103621D01*
X156690861Y-100988625D01*
X156746330Y-100854709D01*
X156765250Y-100711000D01*
X156746330Y-100567291D01*
X156692570Y-100437500D01*
X156690862Y-100433377D01*
X156690861Y-100433376D01*
X156690861Y-100433375D01*
X156602621Y-100318379D01*
X156487625Y-100230139D01*
X156487624Y-100230138D01*
X156487622Y-100230137D01*
X156353712Y-100174671D01*
X156353710Y-100174670D01*
X156353709Y-100174670D01*
X156226141Y-100157875D01*
X156210001Y-100155750D01*
X156209999Y-100155750D01*
X156066291Y-100174670D01*
X156066287Y-100174671D01*
X155932377Y-100230137D01*
X155817379Y-100318379D01*
X155729137Y-100433377D01*
X155673671Y-100567287D01*
X155673670Y-100567291D01*
X155656995Y-100693951D01*
X155654750Y-100711000D01*
X155673400Y-100852661D01*
X155673670Y-100854708D01*
X155673671Y-100854712D01*
X155729137Y-100988622D01*
X155729138Y-100988624D01*
X155729139Y-100988625D01*
X155817379Y-101103621D01*
X155817380Y-101103622D01*
X155817415Y-101103667D01*
X155842609Y-101168836D01*
X155828571Y-101237281D01*
X155806722Y-101266832D01*
X155722373Y-101351182D01*
X155661053Y-101384666D01*
X155634694Y-101387500D01*
X155390778Y-101387500D01*
X155325257Y-101400532D01*
X155255666Y-101394303D01*
X155213387Y-101366595D01*
X155183006Y-101336214D01*
X155183001Y-101336211D01*
X155080403Y-101290910D01*
X155055321Y-101288000D01*
X154910527Y-101288000D01*
X154910527Y-101864000D01*
X154890842Y-101931039D01*
X154838038Y-101976794D01*
X154786527Y-101988000D01*
X154210528Y-101988000D01*
X154210528Y-102132785D01*
X154210529Y-102132808D01*
X154213435Y-102157869D01*
X154213436Y-102157873D01*
X154258738Y-102260474D01*
X154258741Y-102260479D01*
X154289122Y-102290860D01*
X154322607Y-102352183D01*
X154323059Y-102402730D01*
X154310027Y-102468251D01*
X154310027Y-103007752D01*
X154321658Y-103066229D01*
X154321659Y-103066230D01*
X154365975Y-103132553D01*
X154404917Y-103158573D01*
X154449723Y-103212185D01*
X154460027Y-103261675D01*
X154460027Y-103424695D01*
X154440342Y-103491734D01*
X154423708Y-103512376D01*
X154254776Y-103681308D01*
X154193453Y-103714793D01*
X154167095Y-103717627D01*
X153923179Y-103717627D01*
X153857658Y-103730659D01*
X153788067Y-103724430D01*
X153745788Y-103696722D01*
X153715407Y-103666341D01*
X153715402Y-103666338D01*
X153612804Y-103621037D01*
X153587722Y-103618127D01*
X153442928Y-103618127D01*
X153442928Y-104194127D01*
X153423243Y-104261166D01*
X153370439Y-104306921D01*
X153318928Y-104318127D01*
X152742929Y-104318127D01*
X152742929Y-104462912D01*
X152742930Y-104462935D01*
X152745836Y-104487996D01*
X152745838Y-104488002D01*
X152792437Y-104593543D01*
X152801507Y-104662821D01*
X152771683Y-104726006D01*
X152712433Y-104763035D01*
X152679002Y-104767627D01*
X151681829Y-104767627D01*
X151614790Y-104747942D01*
X151594148Y-104731308D01*
X151410283Y-104547443D01*
X151376798Y-104486120D01*
X151373964Y-104459762D01*
X151373964Y-104215844D01*
X151373963Y-104215842D01*
X151360932Y-104150328D01*
X151367159Y-104080737D01*
X151394868Y-104038456D01*
X151425249Y-104008074D01*
X151425252Y-104008069D01*
X151470553Y-103905472D01*
X151470553Y-103905470D01*
X151473463Y-103880389D01*
X151473464Y-103880386D01*
X151473464Y-103873332D01*
X152742928Y-103873332D01*
X152742928Y-104018127D01*
X153142928Y-104018127D01*
X153142928Y-103618127D01*
X152998142Y-103618127D01*
X152998119Y-103618129D01*
X152973058Y-103621035D01*
X152973054Y-103621036D01*
X152870453Y-103666338D01*
X152870448Y-103666341D01*
X152791142Y-103745647D01*
X152791139Y-103745652D01*
X152745838Y-103848249D01*
X152745838Y-103848251D01*
X152742928Y-103873332D01*
X151473464Y-103873332D01*
X151473464Y-103735595D01*
X150897464Y-103735595D01*
X150830425Y-103715910D01*
X150784670Y-103663106D01*
X150773464Y-103611595D01*
X150773464Y-103435595D01*
X151073464Y-103435595D01*
X151473463Y-103435595D01*
X151473463Y-103290809D01*
X151473461Y-103290786D01*
X151470555Y-103265725D01*
X151470554Y-103265721D01*
X151425252Y-103163120D01*
X151425249Y-103163115D01*
X151345943Y-103083809D01*
X151345938Y-103083806D01*
X151243340Y-103038505D01*
X151218258Y-103035595D01*
X151073464Y-103035595D01*
X151073464Y-103435595D01*
X150773464Y-103435595D01*
X150773464Y-103035595D01*
X150762541Y-103024673D01*
X150732698Y-103015910D01*
X150686943Y-102963106D01*
X150676999Y-102893948D01*
X150706024Y-102830392D01*
X150712032Y-102823938D01*
X150786354Y-102749616D01*
X150847676Y-102716134D01*
X150874033Y-102713300D01*
X152134760Y-102713300D01*
X152134762Y-102713300D01*
X152211189Y-102692821D01*
X152279711Y-102653260D01*
X152335660Y-102597311D01*
X152708152Y-102224819D01*
X152769475Y-102191334D01*
X152795833Y-102188500D01*
X152923750Y-102188500D01*
X152923751Y-102188499D01*
X152938568Y-102185552D01*
X152982229Y-102176868D01*
X152982229Y-102176867D01*
X152982231Y-102176867D01*
X153048552Y-102132552D01*
X153092867Y-102066231D01*
X153092867Y-102066229D01*
X153092868Y-102066229D01*
X153104499Y-102007752D01*
X153104500Y-102007750D01*
X153104500Y-101543205D01*
X154210527Y-101543205D01*
X154210527Y-101688000D01*
X154610527Y-101688000D01*
X154610527Y-101288000D01*
X154465741Y-101288000D01*
X154465718Y-101288002D01*
X154440657Y-101290908D01*
X154440653Y-101290909D01*
X154338052Y-101336211D01*
X154338047Y-101336214D01*
X154258741Y-101415520D01*
X154258738Y-101415525D01*
X154213437Y-101518122D01*
X154213437Y-101518124D01*
X154210527Y-101543205D01*
X153104500Y-101543205D01*
X153104500Y-101468249D01*
X153104499Y-101468247D01*
X153091468Y-101402733D01*
X153097695Y-101333142D01*
X153125404Y-101290861D01*
X153155785Y-101260479D01*
X153155788Y-101260474D01*
X153201089Y-101157877D01*
X153201089Y-101157875D01*
X153203999Y-101132794D01*
X153204000Y-101132791D01*
X153204000Y-100988000D01*
X152628000Y-100988000D01*
X152560961Y-100968315D01*
X152515206Y-100915511D01*
X152504000Y-100864000D01*
X152504000Y-100688000D01*
X152804000Y-100688000D01*
X153203999Y-100688000D01*
X153203999Y-100543214D01*
X153203997Y-100543191D01*
X153201091Y-100518130D01*
X153201090Y-100518126D01*
X153155788Y-100415525D01*
X153155785Y-100415520D01*
X153076479Y-100336214D01*
X153076474Y-100336211D01*
X152973876Y-100290910D01*
X152948794Y-100288000D01*
X152804000Y-100288000D01*
X152804000Y-100688000D01*
X152504000Y-100688000D01*
X152504000Y-100245131D01*
X152523685Y-100178092D01*
X152540308Y-100157462D01*
X152767554Y-99930216D01*
X152828875Y-99896734D01*
X152855233Y-99893900D01*
X153977631Y-99893900D01*
X153977633Y-99893900D01*
X154054060Y-99873421D01*
X154122582Y-99833860D01*
X154178531Y-99777911D01*
X154479218Y-99477224D01*
X154540541Y-99443739D01*
X154566899Y-99440905D01*
X154654286Y-99440905D01*
X154654287Y-99440904D01*
X154669104Y-99437957D01*
X154712765Y-99429273D01*
X154712765Y-99429272D01*
X154712767Y-99429272D01*
X154779088Y-99384957D01*
X154823403Y-99318636D01*
X154823403Y-99318634D01*
X154823404Y-99318634D01*
X154832448Y-99273166D01*
X154835036Y-99260153D01*
X154835036Y-98720657D01*
X154835036Y-98720654D01*
X154835035Y-98720652D01*
X154822004Y-98655138D01*
X154828231Y-98585547D01*
X154855940Y-98543266D01*
X154886321Y-98512884D01*
X154886324Y-98512879D01*
X154931625Y-98410282D01*
X154931625Y-98410280D01*
X154934535Y-98385199D01*
X154934536Y-98385196D01*
X154934536Y-98240405D01*
X154358536Y-98240405D01*
X154291497Y-98220720D01*
X154245742Y-98167916D01*
X154234536Y-98116405D01*
X154234536Y-97940405D01*
X154534536Y-97940405D01*
X154934535Y-97940405D01*
X154934535Y-97795619D01*
X154934533Y-97795596D01*
X154931627Y-97770535D01*
X154931626Y-97770531D01*
X154886324Y-97667930D01*
X154886321Y-97667925D01*
X154807015Y-97588619D01*
X154807010Y-97588616D01*
X154704412Y-97543315D01*
X154679330Y-97540405D01*
X154534536Y-97540405D01*
X154534536Y-97940405D01*
X154234536Y-97940405D01*
X154234536Y-97540405D01*
X154089750Y-97540405D01*
X154089727Y-97540407D01*
X154064666Y-97543313D01*
X154064662Y-97543314D01*
X153962061Y-97588616D01*
X153962056Y-97588619D01*
X153931674Y-97619001D01*
X153870351Y-97652486D01*
X153819804Y-97652937D01*
X153754284Y-97639905D01*
X153214788Y-97639905D01*
X153148409Y-97653108D01*
X153078818Y-97646879D01*
X153036538Y-97619171D01*
X153024908Y-97607541D01*
X153024903Y-97607537D01*
X153004905Y-97595991D01*
X153004903Y-97595991D01*
X152966334Y-97573723D01*
X152956386Y-97567979D01*
X152930909Y-97561152D01*
X152879958Y-97547500D01*
X152879956Y-97547500D01*
X151689572Y-97547500D01*
X151622533Y-97527815D01*
X151576778Y-97475011D01*
X151565572Y-97423500D01*
X151565572Y-97238122D01*
X151565571Y-97238120D01*
X151553940Y-97179643D01*
X151553939Y-97179642D01*
X151509624Y-97113320D01*
X151443302Y-97069005D01*
X151443301Y-97069004D01*
X151384824Y-97057373D01*
X151384820Y-97057373D01*
X150845324Y-97057373D01*
X150845323Y-97057373D01*
X150779802Y-97070405D01*
X150710211Y-97064176D01*
X150667932Y-97036468D01*
X150637551Y-97006087D01*
X150637546Y-97006084D01*
X150534948Y-96960783D01*
X150509866Y-96957873D01*
X150365072Y-96957873D01*
X150365072Y-97533873D01*
X150345387Y-97600912D01*
X150292583Y-97646667D01*
X150241072Y-97657873D01*
X149665073Y-97657873D01*
X149665073Y-97802658D01*
X149665074Y-97802681D01*
X149667980Y-97827742D01*
X149667981Y-97827746D01*
X149713283Y-97930347D01*
X149713286Y-97930352D01*
X149743667Y-97960733D01*
X149777152Y-98022056D01*
X149777604Y-98072603D01*
X149764572Y-98138124D01*
X149764572Y-98382040D01*
X149744887Y-98449079D01*
X149728253Y-98469721D01*
X149407014Y-98790959D01*
X149407008Y-98790967D01*
X149367455Y-98859476D01*
X149367452Y-98859481D01*
X149346973Y-98935911D01*
X149346973Y-99224074D01*
X149327288Y-99291113D01*
X149274484Y-99336868D01*
X149205326Y-99346812D01*
X149172888Y-99337509D01*
X149067349Y-99290910D01*
X149042267Y-99288000D01*
X148897473Y-99288000D01*
X148897473Y-99864000D01*
X148877788Y-99931039D01*
X148824984Y-99976794D01*
X148773473Y-99988000D01*
X148197474Y-99988000D01*
X148197474Y-100132785D01*
X148197475Y-100132808D01*
X148200381Y-100157869D01*
X148200383Y-100157875D01*
X148246982Y-100263416D01*
X148256052Y-100332694D01*
X148226228Y-100395879D01*
X148166978Y-100432908D01*
X148133547Y-100437500D01*
X148030833Y-100437500D01*
X147963794Y-100417815D01*
X147943152Y-100401181D01*
X147085176Y-99543205D01*
X148197473Y-99543205D01*
X148197473Y-99688000D01*
X148597473Y-99688000D01*
X148597473Y-99288000D01*
X148452687Y-99288000D01*
X148452664Y-99288002D01*
X148427603Y-99290908D01*
X148427599Y-99290909D01*
X148324998Y-99336211D01*
X148324993Y-99336214D01*
X148245687Y-99415520D01*
X148245684Y-99415525D01*
X148200383Y-99518122D01*
X148200383Y-99518124D01*
X148197473Y-99543205D01*
X147085176Y-99543205D01*
X146361512Y-98819541D01*
X146361504Y-98819535D01*
X146337875Y-98805893D01*
X146337875Y-98805892D01*
X146337872Y-98805892D01*
X146292994Y-98779981D01*
X146292991Y-98779979D01*
X146254775Y-98769739D01*
X146216562Y-98759500D01*
X146216560Y-98759500D01*
X144839727Y-98759500D01*
X144772688Y-98739815D01*
X144726933Y-98687011D01*
X144716788Y-98619315D01*
X144725650Y-98552002D01*
X144725650Y-98551999D01*
X144720500Y-98512884D01*
X144706730Y-98408291D01*
X144651261Y-98274375D01*
X144651257Y-98274370D01*
X144647869Y-98268501D01*
X144631396Y-98200601D01*
X144654248Y-98134574D01*
X144709169Y-98091383D01*
X144755256Y-98082500D01*
X147932142Y-98082500D01*
X147932144Y-98082500D01*
X148021288Y-98058614D01*
X148034748Y-98050843D01*
X148101212Y-98012470D01*
X148900604Y-97213078D01*
X149665072Y-97213078D01*
X149665072Y-97357873D01*
X150065072Y-97357873D01*
X150065072Y-96957873D01*
X149920286Y-96957873D01*
X149920263Y-96957875D01*
X149895202Y-96960781D01*
X149895198Y-96960782D01*
X149792597Y-97006084D01*
X149792592Y-97006087D01*
X149713286Y-97085393D01*
X149713283Y-97085398D01*
X149667982Y-97187995D01*
X149667982Y-97187997D01*
X149665072Y-97213078D01*
X148900604Y-97213078D01*
X149144113Y-96969569D01*
X149205436Y-96936084D01*
X149231794Y-96933250D01*
X149335392Y-96933250D01*
X149335394Y-96933250D01*
X149424538Y-96909364D01*
X149449429Y-96894993D01*
X149504462Y-96863220D01*
X150011758Y-96355924D01*
X150073081Y-96322439D01*
X150099439Y-96319605D01*
X150457037Y-96319605D01*
X150457039Y-96319605D01*
X150546183Y-96295719D01*
X150567096Y-96283645D01*
X150575121Y-96279012D01*
X150575122Y-96279011D01*
X150626107Y-96249575D01*
X151959002Y-94916677D01*
X151959007Y-94916674D01*
X151969210Y-94906470D01*
X151969212Y-94906470D01*
X152089429Y-94786253D01*
X152150752Y-94752768D01*
X152177110Y-94749934D01*
X152356494Y-94749934D01*
X152423533Y-94769619D01*
G37*
%TD.AperFunction*%
%TA.AperFunction,Conductor*%
G36*
X159673024Y-103209555D02*
G01*
X159693100Y-103220440D01*
X159704365Y-103227967D01*
X159704638Y-103228149D01*
X159749445Y-103281760D01*
X159759750Y-103331253D01*
X159759750Y-104592641D01*
X159740065Y-104659680D01*
X159723431Y-104680322D01*
X158753681Y-105650072D01*
X158692358Y-105683557D01*
X158622666Y-105678573D01*
X158566733Y-105636701D01*
X158542316Y-105571237D01*
X158542000Y-105562391D01*
X158542000Y-105367473D01*
X158541999Y-105367471D01*
X158530368Y-105308994D01*
X158530367Y-105308992D01*
X158486053Y-105242673D01*
X158478316Y-105234936D01*
X158444833Y-105173611D01*
X158442000Y-105147257D01*
X158442000Y-105038158D01*
X158442000Y-105038156D01*
X158418114Y-104949012D01*
X158410656Y-104936095D01*
X158371970Y-104869088D01*
X158346819Y-104843937D01*
X158313334Y-104782614D01*
X158310500Y-104756256D01*
X158310500Y-104632402D01*
X158330185Y-104565363D01*
X158346820Y-104544720D01*
X158349611Y-104541929D01*
X158383224Y-104508316D01*
X158395496Y-104481996D01*
X158441667Y-104429556D01*
X158445838Y-104427036D01*
X158457212Y-104420470D01*
X159440720Y-103436962D01*
X159486864Y-103357038D01*
X159504438Y-103291448D01*
X159540801Y-103231791D01*
X159603648Y-103201261D01*
X159673024Y-103209555D01*
G37*
%TD.AperFunction*%
%TA.AperFunction,Conductor*%
G36*
X155737965Y-91955112D02*
G01*
X161941952Y-95536987D01*
X161991500Y-95565593D01*
X162039716Y-95616160D01*
X162053500Y-95672980D01*
X162053500Y-98954739D01*
X162053500Y-99060193D01*
X162080793Y-99162053D01*
X162133520Y-99253379D01*
X162208087Y-99327946D01*
X162208088Y-99327947D01*
X162208090Y-99327948D01*
X162264472Y-99360500D01*
X162541500Y-99520441D01*
X162589715Y-99571008D01*
X162603500Y-99627828D01*
X162603500Y-102948170D01*
X162583815Y-103015209D01*
X162541500Y-103055557D01*
X162299413Y-103195327D01*
X162208085Y-103248055D01*
X162133521Y-103322619D01*
X162080794Y-103413944D01*
X162080793Y-103413947D01*
X162053500Y-103515807D01*
X162053500Y-106903018D01*
X162033815Y-106970057D01*
X161991500Y-107010405D01*
X157840794Y-109406818D01*
X156420955Y-110226563D01*
X155737966Y-110620887D01*
X155675966Y-110637500D01*
X148732034Y-110637500D01*
X148670034Y-110620887D01*
X147987045Y-110226563D01*
X147545005Y-109971351D01*
X151204001Y-109971351D01*
X151204002Y-109971374D01*
X151206908Y-109996435D01*
X151206909Y-109996439D01*
X151252211Y-110099040D01*
X151252214Y-110099045D01*
X151331520Y-110178351D01*
X151331525Y-110178354D01*
X151434123Y-110223655D01*
X151459206Y-110226565D01*
X151603999Y-110226565D01*
X151604000Y-110226564D01*
X151604000Y-109826566D01*
X151204001Y-109826566D01*
X151204001Y-109971351D01*
X147545005Y-109971351D01*
X146567206Y-109406818D01*
X144420008Y-108167132D01*
X148079001Y-108167132D01*
X148079002Y-108167155D01*
X148081908Y-108192216D01*
X148081909Y-108192220D01*
X148127211Y-108294821D01*
X148127214Y-108294826D01*
X148206520Y-108374132D01*
X148206525Y-108374135D01*
X148309123Y-108419436D01*
X148334206Y-108422346D01*
X148478999Y-108422346D01*
X148479000Y-108422345D01*
X148479000Y-108022347D01*
X148079001Y-108022347D01*
X148079001Y-108167132D01*
X144420008Y-108167132D01*
X142416500Y-107010405D01*
X142368284Y-106959838D01*
X142354500Y-106903018D01*
X142354500Y-106525292D01*
X145235251Y-106525292D01*
X145235252Y-106525315D01*
X145238158Y-106550376D01*
X145238159Y-106550380D01*
X145283461Y-106652981D01*
X145283464Y-106652986D01*
X145362770Y-106732292D01*
X145362775Y-106732295D01*
X145465373Y-106777596D01*
X145490456Y-106780506D01*
X145635249Y-106780506D01*
X145635250Y-106780505D01*
X145635250Y-106380507D01*
X145235251Y-106380507D01*
X145235251Y-106525292D01*
X142354500Y-106525292D01*
X142354500Y-103663059D01*
X144329001Y-103663059D01*
X144329002Y-103663082D01*
X144331908Y-103688143D01*
X144331909Y-103688147D01*
X144377211Y-103790748D01*
X144377214Y-103790753D01*
X144456520Y-103870059D01*
X144456525Y-103870062D01*
X144559123Y-103915363D01*
X144584206Y-103918273D01*
X144728999Y-103918273D01*
X144729000Y-103918272D01*
X144729000Y-103518274D01*
X144329001Y-103518274D01*
X144329001Y-103663059D01*
X142354500Y-103663059D01*
X142354500Y-103515809D01*
X142354500Y-103515807D01*
X142327207Y-103413947D01*
X142274480Y-103322621D01*
X142199913Y-103248054D01*
X142108587Y-103195327D01*
X142086167Y-103182383D01*
X141866500Y-103055557D01*
X141818284Y-103004990D01*
X141804500Y-102948170D01*
X141804500Y-100963207D01*
X143797751Y-100963207D01*
X143797752Y-100963230D01*
X143800658Y-100988291D01*
X143800659Y-100988295D01*
X143845961Y-101090896D01*
X143845964Y-101090901D01*
X143925270Y-101170207D01*
X143925275Y-101170210D01*
X144027873Y-101215511D01*
X144052956Y-101218421D01*
X144197749Y-101218421D01*
X144197750Y-101218420D01*
X144197750Y-100818422D01*
X143797751Y-100818422D01*
X143797751Y-100963207D01*
X141804500Y-100963207D01*
X141804500Y-99627828D01*
X141824185Y-99560789D01*
X141866498Y-99520442D01*
X142199913Y-99327946D01*
X142234959Y-99292900D01*
X142274480Y-99253379D01*
X142327207Y-99162053D01*
X142354500Y-99060193D01*
X142354500Y-97955000D01*
X142704001Y-97955000D01*
X142706786Y-97984720D01*
X142750596Y-98109922D01*
X142829358Y-98216641D01*
X142936080Y-98295405D01*
X143061267Y-98339211D01*
X143061279Y-98339213D01*
X143090977Y-98341998D01*
X143091006Y-98341999D01*
X143134000Y-98341999D01*
X143134000Y-97882000D01*
X142704001Y-97882000D01*
X142704001Y-97955000D01*
X142354500Y-97955000D01*
X142354500Y-97508992D01*
X142704000Y-97508992D01*
X142704000Y-97582000D01*
X143310000Y-97582000D01*
X143377039Y-97601685D01*
X143422794Y-97654489D01*
X143434000Y-97706000D01*
X143434000Y-98341999D01*
X143476994Y-98341999D01*
X143490059Y-98340774D01*
X143558643Y-98354115D01*
X143609127Y-98402417D01*
X143625483Y-98470345D01*
X143624573Y-98480417D01*
X143615150Y-98551996D01*
X143615150Y-98551999D01*
X143615150Y-98552000D01*
X143629452Y-98660636D01*
X143634070Y-98695708D01*
X143634071Y-98695712D01*
X143689537Y-98829622D01*
X143689538Y-98829624D01*
X143689539Y-98829625D01*
X143777779Y-98944621D01*
X143892775Y-99032861D01*
X143892776Y-99032861D01*
X143892777Y-99032862D01*
X143990680Y-99073414D01*
X144045084Y-99117254D01*
X144067149Y-99183548D01*
X144063003Y-99220068D01*
X144048831Y-99272960D01*
X144012466Y-99332620D01*
X143997947Y-99343969D01*
X143953197Y-99373869D01*
X143908882Y-99440191D01*
X143908881Y-99440192D01*
X143897250Y-99498669D01*
X143897250Y-100038169D01*
X143910282Y-100103690D01*
X143904053Y-100173282D01*
X143876346Y-100215560D01*
X143845964Y-100245942D01*
X143845961Y-100245947D01*
X143800660Y-100348544D01*
X143800660Y-100348546D01*
X143797750Y-100373627D01*
X143797750Y-100518422D01*
X144373750Y-100518422D01*
X144440789Y-100538107D01*
X144486544Y-100590911D01*
X144497750Y-100642422D01*
X144497750Y-101218421D01*
X144515728Y-101236399D01*
X144521539Y-101238106D01*
X144567294Y-101290910D01*
X144578500Y-101342421D01*
X144578500Y-101944598D01*
X144558815Y-102011637D01*
X144523392Y-102047699D01*
X144484448Y-102073720D01*
X144440132Y-102140043D01*
X144440131Y-102140044D01*
X144428500Y-102198521D01*
X144428500Y-102738021D01*
X144441532Y-102803542D01*
X144435303Y-102873134D01*
X144407596Y-102915412D01*
X144377214Y-102945794D01*
X144377211Y-102945799D01*
X144331910Y-103048396D01*
X144331910Y-103048398D01*
X144329000Y-103073479D01*
X144329000Y-103218274D01*
X144905000Y-103218274D01*
X144972039Y-103237959D01*
X145017794Y-103290763D01*
X145029000Y-103342274D01*
X145029000Y-103918273D01*
X145173786Y-103918273D01*
X145173808Y-103918271D01*
X145198869Y-103915365D01*
X145198873Y-103915364D01*
X145310665Y-103866005D01*
X145379944Y-103856934D01*
X145443128Y-103886759D01*
X145480158Y-103946009D01*
X145484750Y-103979440D01*
X145484750Y-104806831D01*
X145465065Y-104873870D01*
X145429642Y-104909932D01*
X145390698Y-104935953D01*
X145346382Y-105002276D01*
X145346381Y-105002277D01*
X145334750Y-105060754D01*
X145334750Y-105600254D01*
X145347782Y-105665775D01*
X145341553Y-105735367D01*
X145313846Y-105777645D01*
X145283464Y-105808027D01*
X145283461Y-105808032D01*
X145238160Y-105910629D01*
X145238160Y-105910631D01*
X145235250Y-105935712D01*
X145235250Y-106080507D01*
X145811250Y-106080507D01*
X145878289Y-106100192D01*
X145924044Y-106152996D01*
X145935250Y-106204507D01*
X145935250Y-106780506D01*
X146080036Y-106780506D01*
X146080058Y-106780504D01*
X146105119Y-106777598D01*
X146105123Y-106777597D01*
X146207724Y-106732295D01*
X146207729Y-106732292D01*
X146238111Y-106701911D01*
X146299434Y-106668426D01*
X146349983Y-106667975D01*
X146415497Y-106681006D01*
X146415500Y-106681007D01*
X146415502Y-106681007D01*
X146955000Y-106681007D01*
X146955001Y-106681006D01*
X146969818Y-106678059D01*
X147013479Y-106669375D01*
X147013479Y-106669374D01*
X147013481Y-106669374D01*
X147079802Y-106625059D01*
X147079803Y-106625058D01*
X147105825Y-106586115D01*
X147159437Y-106541311D01*
X147208926Y-106531007D01*
X147711327Y-106531007D01*
X147778366Y-106550692D01*
X147799008Y-106567326D01*
X148142181Y-106910499D01*
X148175666Y-106971822D01*
X148178500Y-106998180D01*
X148178500Y-107242094D01*
X148191532Y-107307615D01*
X148185303Y-107377207D01*
X148157596Y-107419485D01*
X148127214Y-107449867D01*
X148127211Y-107449872D01*
X148081910Y-107552469D01*
X148081910Y-107552471D01*
X148079000Y-107577552D01*
X148079000Y-107722347D01*
X148655000Y-107722347D01*
X148722039Y-107742032D01*
X148767794Y-107794836D01*
X148779000Y-107846347D01*
X148779000Y-108422346D01*
X148923786Y-108422346D01*
X148923808Y-108422344D01*
X148948869Y-108419438D01*
X148948873Y-108419437D01*
X149051474Y-108374135D01*
X149051479Y-108374132D01*
X149081861Y-108343751D01*
X149143184Y-108310266D01*
X149193733Y-108309815D01*
X149259247Y-108322846D01*
X149259250Y-108322847D01*
X149259252Y-108322847D01*
X149798750Y-108322847D01*
X149798751Y-108322846D01*
X149813568Y-108319899D01*
X149857229Y-108311215D01*
X149857229Y-108311214D01*
X149857231Y-108311214D01*
X149923552Y-108266899D01*
X149930237Y-108256895D01*
X149949575Y-108227955D01*
X150003187Y-108183151D01*
X150052676Y-108172847D01*
X150673948Y-108172847D01*
X150740987Y-108192532D01*
X150761629Y-108209166D01*
X151267181Y-108714718D01*
X151300666Y-108776041D01*
X151303500Y-108802399D01*
X151303500Y-109046313D01*
X151316532Y-109111834D01*
X151310303Y-109181426D01*
X151282596Y-109223704D01*
X151252214Y-109254086D01*
X151252211Y-109254091D01*
X151206910Y-109356688D01*
X151206910Y-109356690D01*
X151204000Y-109381771D01*
X151204000Y-109526566D01*
X151780000Y-109526566D01*
X151847039Y-109546251D01*
X151892794Y-109599055D01*
X151904000Y-109650566D01*
X151904000Y-110226565D01*
X152048786Y-110226565D01*
X152048808Y-110226563D01*
X152073869Y-110223657D01*
X152073873Y-110223656D01*
X152176474Y-110178354D01*
X152176479Y-110178351D01*
X152206861Y-110147970D01*
X152268184Y-110114485D01*
X152318733Y-110114034D01*
X152384247Y-110127065D01*
X152384250Y-110127066D01*
X152384252Y-110127066D01*
X152923750Y-110127066D01*
X152923751Y-110127065D01*
X152938568Y-110124118D01*
X152982229Y-110115434D01*
X152982229Y-110115433D01*
X152982231Y-110115433D01*
X153048552Y-110071118D01*
X153092867Y-110004797D01*
X153092867Y-110004795D01*
X153092868Y-110004795D01*
X153104499Y-109946318D01*
X153104500Y-109946316D01*
X153104500Y-109902399D01*
X153124185Y-109835360D01*
X153140819Y-109814718D01*
X153444460Y-109511077D01*
X153484022Y-109442554D01*
X153504500Y-109366128D01*
X153504500Y-109287004D01*
X153504500Y-108401680D01*
X153922751Y-108401680D01*
X153922752Y-108401703D01*
X153925658Y-108426764D01*
X153925659Y-108426768D01*
X153970961Y-108529369D01*
X153970964Y-108529374D01*
X154050270Y-108608680D01*
X154050275Y-108608683D01*
X154152873Y-108653984D01*
X154177956Y-108656894D01*
X154322749Y-108656894D01*
X154322750Y-108656893D01*
X154322750Y-108256895D01*
X153922751Y-108256895D01*
X153922751Y-108401680D01*
X153504500Y-108401680D01*
X153504500Y-108212228D01*
X153524185Y-108145189D01*
X153540815Y-108124551D01*
X153727932Y-107937434D01*
X153789252Y-107903951D01*
X153858943Y-107908935D01*
X153903291Y-107937436D01*
X153922750Y-107956895D01*
X154498750Y-107956895D01*
X154565789Y-107976580D01*
X154611544Y-108029384D01*
X154622750Y-108080895D01*
X154622750Y-108656894D01*
X154767536Y-108656894D01*
X154767558Y-108656892D01*
X154792619Y-108653986D01*
X154792623Y-108653985D01*
X154895224Y-108608683D01*
X154895229Y-108608680D01*
X154925611Y-108578299D01*
X154986934Y-108544814D01*
X155037483Y-108544363D01*
X155102997Y-108557394D01*
X155103000Y-108557395D01*
X155103002Y-108557395D01*
X155642500Y-108557395D01*
X155642501Y-108557394D01*
X155657318Y-108554447D01*
X155700979Y-108545763D01*
X155700979Y-108545762D01*
X155700981Y-108545762D01*
X155767302Y-108501447D01*
X155811617Y-108435126D01*
X155811617Y-108435124D01*
X155811618Y-108435124D01*
X155823249Y-108376647D01*
X155823250Y-108376645D01*
X155823250Y-108332728D01*
X155842935Y-108265689D01*
X155859569Y-108245047D01*
X156023721Y-108080895D01*
X156196460Y-107908156D01*
X156213004Y-107879501D01*
X156236021Y-107839634D01*
X156256500Y-107763207D01*
X156256500Y-106832009D01*
X156641501Y-106832009D01*
X156641502Y-106832032D01*
X156644408Y-106857093D01*
X156644409Y-106857097D01*
X156689711Y-106959698D01*
X156689714Y-106959703D01*
X156769020Y-107039009D01*
X156769025Y-107039012D01*
X156871623Y-107084313D01*
X156896706Y-107087223D01*
X157041499Y-107087223D01*
X157041500Y-107087222D01*
X157041500Y-106687224D01*
X156641501Y-106687224D01*
X156641501Y-106832009D01*
X156256500Y-106832009D01*
X156256500Y-106601832D01*
X156276185Y-106534793D01*
X156292815Y-106514155D01*
X156442943Y-106364027D01*
X156504265Y-106330543D01*
X156573957Y-106335527D01*
X156618304Y-106364028D01*
X156641500Y-106387224D01*
X157217500Y-106387224D01*
X157284539Y-106406909D01*
X157330294Y-106459713D01*
X157341500Y-106511224D01*
X157341500Y-107087223D01*
X157486286Y-107087223D01*
X157486308Y-107087221D01*
X157511369Y-107084315D01*
X157511373Y-107084314D01*
X157613974Y-107039012D01*
X157613979Y-107039009D01*
X157644361Y-107008628D01*
X157705684Y-106975143D01*
X157756233Y-106974692D01*
X157821747Y-106987723D01*
X157821750Y-106987724D01*
X157821752Y-106987724D01*
X158361250Y-106987724D01*
X158361251Y-106987723D01*
X158376068Y-106984776D01*
X158419729Y-106976092D01*
X158419729Y-106976091D01*
X158419731Y-106976091D01*
X158486052Y-106931776D01*
X158530367Y-106865455D01*
X158530367Y-106865453D01*
X158530368Y-106865453D01*
X158541999Y-106806976D01*
X158542000Y-106806974D01*
X158542000Y-106763057D01*
X158561685Y-106696018D01*
X158578319Y-106675376D01*
X159417740Y-105835955D01*
X160300710Y-104952985D01*
X160303505Y-104948144D01*
X160340271Y-104884463D01*
X160360750Y-104808036D01*
X160360750Y-103331253D01*
X160380435Y-103264214D01*
X160415860Y-103228151D01*
X160454801Y-103202131D01*
X160454802Y-103202130D01*
X160499117Y-103135809D01*
X160499117Y-103135807D01*
X160499118Y-103135807D01*
X160510644Y-103077858D01*
X160510750Y-103077326D01*
X160510750Y-102537830D01*
X160510750Y-102537827D01*
X160510749Y-102537825D01*
X160497718Y-102472311D01*
X160503945Y-102402720D01*
X160531654Y-102360439D01*
X160562035Y-102330057D01*
X160562038Y-102330052D01*
X160607339Y-102227455D01*
X160607339Y-102227453D01*
X160610249Y-102202372D01*
X160610250Y-102202369D01*
X160610250Y-102057578D01*
X160034250Y-102057578D01*
X159967211Y-102037893D01*
X159921456Y-101985089D01*
X159910250Y-101933578D01*
X159910250Y-101757578D01*
X160210250Y-101757578D01*
X160610249Y-101757578D01*
X160610249Y-101612792D01*
X160610247Y-101612769D01*
X160607341Y-101587708D01*
X160607340Y-101587704D01*
X160562038Y-101485103D01*
X160562035Y-101485098D01*
X160482729Y-101405792D01*
X160482724Y-101405789D01*
X160380126Y-101360488D01*
X160355044Y-101357578D01*
X160210250Y-101357578D01*
X160210250Y-101757578D01*
X159910250Y-101757578D01*
X159910250Y-101357578D01*
X159892271Y-101339599D01*
X159886461Y-101337893D01*
X159840706Y-101285089D01*
X159829500Y-101233578D01*
X159829500Y-100631401D01*
X159849185Y-100564362D01*
X159884610Y-100528299D01*
X159923551Y-100502279D01*
X159929398Y-100493529D01*
X159967867Y-100435957D01*
X159967867Y-100435955D01*
X159967868Y-100435955D01*
X159979499Y-100377478D01*
X159979500Y-100377476D01*
X159979500Y-99837975D01*
X159979499Y-99837973D01*
X159966468Y-99772459D01*
X159972695Y-99702868D01*
X160000404Y-99660587D01*
X160030785Y-99630205D01*
X160030788Y-99630200D01*
X160076089Y-99527603D01*
X160076089Y-99527601D01*
X160078999Y-99502520D01*
X160079000Y-99502517D01*
X160079000Y-99357726D01*
X159503000Y-99357726D01*
X159435961Y-99338041D01*
X159390206Y-99285237D01*
X159379000Y-99233726D01*
X159379000Y-99057726D01*
X159679000Y-99057726D01*
X160078999Y-99057726D01*
X160078999Y-98912940D01*
X160078997Y-98912917D01*
X160076091Y-98887856D01*
X160076090Y-98887852D01*
X160030788Y-98785251D01*
X160030785Y-98785246D01*
X159951479Y-98705940D01*
X159951474Y-98705937D01*
X159848876Y-98660636D01*
X159823794Y-98657726D01*
X159679000Y-98657726D01*
X159679000Y-99057726D01*
X159379000Y-99057726D01*
X159379000Y-98657726D01*
X159234214Y-98657726D01*
X159234191Y-98657728D01*
X159209130Y-98660634D01*
X159209123Y-98660636D01*
X159097334Y-98709994D01*
X159028056Y-98719064D01*
X158964871Y-98689240D01*
X158927841Y-98629990D01*
X158923250Y-98596559D01*
X158923250Y-97769168D01*
X158942935Y-97702129D01*
X158978360Y-97666066D01*
X159017301Y-97640046D01*
X159017302Y-97640045D01*
X159061617Y-97573724D01*
X159061617Y-97573722D01*
X159061618Y-97573722D01*
X159073249Y-97515245D01*
X159073250Y-97515243D01*
X159073250Y-96975742D01*
X159073249Y-96975740D01*
X159060218Y-96910226D01*
X159066445Y-96840635D01*
X159094154Y-96798354D01*
X159124535Y-96767972D01*
X159124538Y-96767967D01*
X159169839Y-96665370D01*
X159169839Y-96665368D01*
X159172749Y-96640287D01*
X159172750Y-96640284D01*
X159172750Y-96495493D01*
X158596750Y-96495493D01*
X158529711Y-96475808D01*
X158483956Y-96423004D01*
X158472750Y-96371493D01*
X158472750Y-96195493D01*
X158772750Y-96195493D01*
X159172749Y-96195493D01*
X159172749Y-96050707D01*
X159172747Y-96050684D01*
X159169841Y-96025623D01*
X159169840Y-96025619D01*
X159124538Y-95923018D01*
X159124535Y-95923013D01*
X159045229Y-95843707D01*
X159045224Y-95843704D01*
X158942626Y-95798403D01*
X158917544Y-95795493D01*
X158772750Y-95795493D01*
X158772750Y-96195493D01*
X158472750Y-96195493D01*
X158472750Y-95795493D01*
X158327964Y-95795493D01*
X158327941Y-95795495D01*
X158302880Y-95798401D01*
X158302876Y-95798402D01*
X158200275Y-95843704D01*
X158200270Y-95843707D01*
X158169888Y-95874089D01*
X158108565Y-95907574D01*
X158058018Y-95908025D01*
X157992498Y-95894993D01*
X157748583Y-95894993D01*
X157681544Y-95875308D01*
X157660902Y-95858674D01*
X157165422Y-95363194D01*
X157165414Y-95363188D01*
X157114693Y-95333904D01*
X157114693Y-95333905D01*
X157104420Y-95327974D01*
X157096899Y-95323632D01*
X157020472Y-95303153D01*
X157020470Y-95303153D01*
X156392926Y-95303153D01*
X156325887Y-95283468D01*
X156280132Y-95230664D01*
X156270188Y-95161506D01*
X156279491Y-95129068D01*
X156326089Y-95023530D01*
X156326089Y-95023528D01*
X156328999Y-94998447D01*
X156329000Y-94998444D01*
X156329000Y-94853653D01*
X155753000Y-94853653D01*
X155685961Y-94833968D01*
X155640206Y-94781164D01*
X155629000Y-94729653D01*
X155629000Y-94553653D01*
X155929000Y-94553653D01*
X156328999Y-94553653D01*
X156328999Y-94408867D01*
X156328997Y-94408844D01*
X156326091Y-94383783D01*
X156326090Y-94383779D01*
X156280788Y-94281178D01*
X156280785Y-94281173D01*
X156201479Y-94201867D01*
X156201474Y-94201864D01*
X156098876Y-94156563D01*
X156073794Y-94153653D01*
X155929000Y-94153653D01*
X155929000Y-94553653D01*
X155629000Y-94553653D01*
X155629000Y-94153653D01*
X155484214Y-94153653D01*
X155484191Y-94153655D01*
X155459130Y-94156561D01*
X155459126Y-94156562D01*
X155356525Y-94201864D01*
X155356520Y-94201867D01*
X155326138Y-94232249D01*
X155264815Y-94265734D01*
X155214268Y-94266185D01*
X155148748Y-94253153D01*
X154609252Y-94253153D01*
X154609247Y-94253153D01*
X154550770Y-94264784D01*
X154550769Y-94264785D01*
X154484446Y-94309101D01*
X154458425Y-94348045D01*
X154404813Y-94392849D01*
X154355324Y-94403153D01*
X153669486Y-94403153D01*
X153602447Y-94383468D01*
X153581805Y-94366834D01*
X153140819Y-93925848D01*
X153107334Y-93864525D01*
X153104500Y-93838167D01*
X153104500Y-93529683D01*
X153104499Y-93529681D01*
X153091468Y-93464167D01*
X153097695Y-93394576D01*
X153125404Y-93352295D01*
X153155785Y-93321913D01*
X153155788Y-93321908D01*
X153201089Y-93219311D01*
X153201089Y-93219309D01*
X153203999Y-93194228D01*
X153204000Y-93194225D01*
X153204000Y-93049434D01*
X152628000Y-93049434D01*
X152560961Y-93029749D01*
X152515206Y-92976945D01*
X152504000Y-92925434D01*
X152504000Y-92749434D01*
X152804000Y-92749434D01*
X153203999Y-92749434D01*
X153203999Y-92604648D01*
X153203997Y-92604625D01*
X153201091Y-92579564D01*
X153201090Y-92579560D01*
X153155788Y-92476959D01*
X153155785Y-92476954D01*
X153076479Y-92397648D01*
X153076474Y-92397645D01*
X152973876Y-92352344D01*
X152948794Y-92349434D01*
X152804000Y-92349434D01*
X152804000Y-92749434D01*
X152504000Y-92749434D01*
X152504000Y-92349434D01*
X152359214Y-92349434D01*
X152359191Y-92349436D01*
X152334130Y-92352342D01*
X152334126Y-92352343D01*
X152231525Y-92397645D01*
X152231520Y-92397648D01*
X152201138Y-92428030D01*
X152139815Y-92461515D01*
X152089268Y-92461966D01*
X152023748Y-92448934D01*
X151484252Y-92448934D01*
X151484247Y-92448934D01*
X151425770Y-92460565D01*
X151425769Y-92460566D01*
X151359446Y-92504882D01*
X151333425Y-92543826D01*
X151279813Y-92588630D01*
X151230324Y-92598934D01*
X151205804Y-92598934D01*
X151129377Y-92619413D01*
X151129375Y-92619414D01*
X151111583Y-92629686D01*
X151111582Y-92629685D01*
X151060861Y-92658969D01*
X151060853Y-92658975D01*
X150864141Y-92855687D01*
X150864135Y-92855695D01*
X150824582Y-92924204D01*
X150824579Y-92924209D01*
X150804100Y-93000639D01*
X150804100Y-94463170D01*
X150784415Y-94530209D01*
X150767781Y-94550852D01*
X150680069Y-94638563D01*
X150618745Y-94672047D01*
X150549054Y-94667063D01*
X150504707Y-94638562D01*
X150485250Y-94619105D01*
X149909250Y-94619105D01*
X149842211Y-94599420D01*
X149796456Y-94546616D01*
X149785250Y-94495105D01*
X149785250Y-94319105D01*
X150085250Y-94319105D01*
X150485249Y-94319105D01*
X150485249Y-94174319D01*
X150485247Y-94174296D01*
X150482341Y-94149235D01*
X150482340Y-94149231D01*
X150437038Y-94046630D01*
X150437035Y-94046625D01*
X150357729Y-93967319D01*
X150357724Y-93967316D01*
X150255126Y-93922015D01*
X150230044Y-93919105D01*
X150085250Y-93919105D01*
X150085250Y-94319105D01*
X149785250Y-94319105D01*
X149785250Y-93919105D01*
X149640464Y-93919105D01*
X149640441Y-93919107D01*
X149615380Y-93922013D01*
X149615376Y-93922014D01*
X149512775Y-93967316D01*
X149512770Y-93967319D01*
X149482388Y-93997701D01*
X149421065Y-94031186D01*
X149370518Y-94031637D01*
X149304998Y-94018605D01*
X148765502Y-94018605D01*
X148765497Y-94018605D01*
X148707020Y-94030236D01*
X148707019Y-94030237D01*
X148640696Y-94074553D01*
X148614675Y-94113497D01*
X148561063Y-94158301D01*
X148526328Y-94165533D01*
X148526593Y-94167544D01*
X148518533Y-94168605D01*
X148442105Y-94189083D01*
X148373584Y-94228645D01*
X148373581Y-94228647D01*
X148146341Y-94455887D01*
X148146335Y-94455895D01*
X148106782Y-94524404D01*
X148106779Y-94524409D01*
X148086300Y-94600839D01*
X148086300Y-96242567D01*
X148066615Y-96309606D01*
X148049981Y-96330248D01*
X147978181Y-96402048D01*
X147916858Y-96435533D01*
X147847166Y-96430549D01*
X147791233Y-96388677D01*
X147766816Y-96323213D01*
X147766500Y-96314367D01*
X147766500Y-96188776D01*
X147190500Y-96188776D01*
X147123461Y-96169091D01*
X147077706Y-96116287D01*
X147066500Y-96064776D01*
X147066500Y-95888776D01*
X147366500Y-95888776D01*
X147766499Y-95888776D01*
X147766499Y-95743990D01*
X147766497Y-95743967D01*
X147763591Y-95718906D01*
X147763590Y-95718902D01*
X147718288Y-95616301D01*
X147718285Y-95616296D01*
X147638979Y-95536990D01*
X147638974Y-95536987D01*
X147536376Y-95491686D01*
X147511294Y-95488776D01*
X147366500Y-95488776D01*
X147366500Y-95888776D01*
X147066500Y-95888776D01*
X147066500Y-95488776D01*
X146921714Y-95488776D01*
X146921691Y-95488778D01*
X146896630Y-95491684D01*
X146896626Y-95491685D01*
X146794025Y-95536987D01*
X146794020Y-95536990D01*
X146763638Y-95567372D01*
X146702315Y-95600857D01*
X146651768Y-95601308D01*
X146586248Y-95588276D01*
X146046752Y-95588276D01*
X146046747Y-95588276D01*
X145988270Y-95599907D01*
X145988269Y-95599908D01*
X145921946Y-95644224D01*
X145895925Y-95683168D01*
X145842313Y-95727972D01*
X145792824Y-95738276D01*
X143570662Y-95738276D01*
X143549338Y-95743990D01*
X143494233Y-95758755D01*
X143472199Y-95771477D01*
X143469245Y-95773183D01*
X143456311Y-95780650D01*
X143425713Y-95798315D01*
X143425711Y-95798317D01*
X143069490Y-96154539D01*
X143069489Y-96154540D01*
X143029930Y-96194098D01*
X142994656Y-96218797D01*
X142923598Y-96251933D01*
X142923597Y-96251933D01*
X142839935Y-96335595D01*
X142789931Y-96442828D01*
X142783500Y-96491683D01*
X142783500Y-96940316D01*
X142789931Y-96989171D01*
X142789932Y-96989173D01*
X142834800Y-97085393D01*
X142844520Y-97106236D01*
X142842587Y-97107137D01*
X142860396Y-97159948D01*
X142843383Y-97227714D01*
X142834301Y-97239457D01*
X142834877Y-97239882D01*
X142750594Y-97354080D01*
X142706788Y-97479267D01*
X142706786Y-97479279D01*
X142704000Y-97508992D01*
X142354500Y-97508992D01*
X142354500Y-95672980D01*
X142374185Y-95605941D01*
X142416500Y-95565593D01*
X142466048Y-95536987D01*
X148670034Y-91955112D01*
X148732034Y-91938500D01*
X155675966Y-91938500D01*
X155737965Y-91955112D01*
G37*
%TD.AperFunction*%
%TD*%
M02*
