0
SECTION
2
HEADER
9
$INSUNITS
70
4
9
$ACADVER
1
AC1014
9
$HANDSEED
5
FFFF
0
ENDSEC
0
SECTION
2
TABLES
0
TABLE
2
VPORT
5
8
100
AcDbSymbolTable
0
ENDTAB
0
TABLE
2
LTYPE
5
5
100
AcDbSymbolTable
0
LTYPE
5
14
100
AcDbSymbolTableRecord
100
AcDbLinetypeTableRecord
2
BYBLOCK
70
0
0
LTYPE
5
15
100
AcDbSymbolTableRecord
100
AcDbLinetypeTableRecord
2
BYLAYER
70
0
0
LTYPE
5
16
100
AcDbSymbolTableRecord
100
AcDbLinetypeTableRecord
2
DASHED
70
0
3
Dashed __ __ __ __ __ __ __ __ __ __ __ __ __ _
72
65
73
2
40
0.75
49
0.5
74
0
49
-0.25
74
0
0
ENDTAB
0
TABLE
2
LAYER
5
2
100
AcDbSymbolTable
70
3
0
LAYER
5
50
100
AcDbSymbolTableRecord
100
AcDbLayerTableRecord
2
1
70
0
62
7
6
DASHED
0
LAYER
5
51
100
AcDbSymbolTableRecord
100
AcDbLayerTableRecord
2
0
70
0
62
7
6
CONTINUOUS
0
ENDTAB
0
TABLE
2
STYLE
5
3
100
AcDbSymbolTable
70
1
0
STYLE
5
11
100
AcDbSymbolTableRecord
100
AcDbTextStyleTableRecord
2
STANDARD
70
0
0
ENDTAB
0
TABLE
2
VIEW
5
6
100
AcDbSymbolTable
70
0
0
ENDTAB
0
TABLE
2
UCS
5
7
100
AcDbSymbolTable
70
0
0
ENDTAB
0
TABLE
2
APPID
5
9
100
AcDbSymbolTable
70
2
0
APPID
5
12
100
AcDbSymbolTableRecord
100
AcDbRegAppTableRecord
2
ACAD
70
0
0
ENDTAB
0
TABLE
2
DIMSTYLE
5
A
100
AcDbSymbolTable
70
1
0
ENDTAB
0
TABLE
2
BLOCK_RECORD
5
1
100
AcDbSymbolTable
70
1
0
BLOCK_RECORD
5
1F
100
AcDbSymbolTableRecord
100
AcDbBlockTableRecord
2
*MODEL_SPACE
0
BLOCK_RECORD
5
1B
100
AcDbSymbolTableRecord
100
AcDbBlockTableRecord
2
*PAPER_SPACE
0
ENDTAB
0
ENDSEC
0
SECTION
2
BLOCKS
0
BLOCK
5
20
100
AcDbEntity
100
AcDbBlockBegin
2
*MODEL_SPACE
0
ENDBLK
5
21
100
AcDbEntity
100
AcDbBlockEnd
0
BLOCK
5
1C
100
AcDbEntity
100
AcDbBlockBegin
2
*PAPER_SPACE
0
ENDBLK
5
1D
100
AcDbEntity
100
AcDbBlockEnd
0
ENDSEC
0
SECTION
2
ENTITIES
0
POINT
5
100
100
AcDbEntity
8
0
100
AcDbPoint
10
0
20
0
30
0
0
POINT
5
101
100
AcDbEntity
8
0
100
AcDbPoint
10
159.50000000000003
20
164.50000000000003
30
0
0
POINT
5
102
100
AcDbEntity
8
0
100
AcDbPoint
10
159.50000000000003
20
284.5
30
0
0
POINT
5
103
100
AcDbEntity
8
0
100
AcDbPoint
10
159.50000000000003
20
284.5
30
0
0
POINT
5
104
100
AcDbEntity
8
0
100
AcDbPoint
10
159.50000000000003
20
404.5
30
0
0
POINT
5
105
100
AcDbEntity
8
0
100
AcDbPoint
10
159.50000000000003
20
404.5
30
0
0
POINT
5
106
100
AcDbEntity
8
0
100
AcDbPoint
10
309.5
20
404.5
30
0
0
POINT
5
107
100
AcDbEntity
8
0
100
AcDbPoint
10
469.00000000000006
20
0
30
0
0
POINT
5
108
100
AcDbEntity
8
0
100
AcDbPoint
10
309.5
20
404.5
30
0
0
POINT
5
109
100
AcDbEntity
8
0
100
AcDbPoint
10
309.5
20
284.5
30
0
0
POINT
5
110
100
AcDbEntity
8
0
100
AcDbPoint
10
309.5
20
164.50000000000003
30
0
0
POINT
5
111
100
AcDbEntity
8
0
100
AcDbPoint
10
309.5
20
284.5
30
0
0
LWPOLYLINE
5
112
100
AcDbEntity
8
0
100
AcDbPolyline
90
34
70
1
43
0.0
10
0
20
37.5
10
2.886579864025407e-14
20
531.5
42
-0.41421356237309498
10
2.9999999999999991
20
534.5
10
16.5
20
534.5
42
0.41421356237309531
10
19.499999999999968
20
537.5
10
19.500000000000099
20
566.00000000000011
42
-0.41421356237309503
10
22.5
20
569
10
234.50000000000003
20
569
10
446.50000000000006
20
569.00000000000011
42
-0.41421356237309503
10
449.5
20
566.00000000000011
10
449.50000000000011
20
537.5
42
0.41421356237309503
10
452.50000000000006
20
534.5
10
466.00000000000011
20
534.5
42
-0.41421356237309503
10
469.00000000000006
20
531.5
10
469.00000000000006
20
37.5
42
-0.41421356237309503
10
466.00000000000011
20
34.5
10
452.5
20
34.5
42
0.41421356237309503
10
449.5
20
31.500000000000004
10
449.5
20
3.0000000000000009
42
-0.41421356237309548
10
446.50000000000006
20
0
10
247.50000000000011
20
1.609823385706477e-14
42
-0.41421356237309964
10
244.50000000000003
20
2.9999999999999991
10
244.50000000000006
20
16.499999999999989
42
0.41421356237309503
10
241.50000000000006
20
19.499999999999996
10
234.50000000000003
20
19.5
10
227.50000000000003
20
19.5
42
0.4142135623730942
10
224.50000000000003
20
16.5
10
224.50000000000006
20
3
42
-0.4142135623730962
10
221.50000000000003
20
0
10
22.5
20
0
42
-0.41421356237309548
10
19.500000000000004
20
3.0000000000000004
10
19.500000000000007
20
31.500000000000004
42
0.41421356237309503
10
16.500000000000007
20
34.5
10
2.9999999999999991
20
34.5
42
-0.41421356237309537
0
CIRCLE
5
113
100
AcDbEntity
8
0
100
AcDbCircle
10
234.50000000000003
20
89.500000000000014
30
0
40
7.4999999999999991
210
0
220
0
230
1
0
LWPOLYLINE
5
114
100
AcDbEntity
8
0
100
AcDbPolyline
90
8
70
1
43
0.0
10
162.50000000000006
20
172.50000000000011
42
-0.41421356237310025
10
164.50000000000006
20
170.50000000000009
10
164.50000000000006
20
158.50000000000006
42
-0.41421356237309503
10
162.50000000000006
20
156.50000000000006
10
156.50000000000003
20
156.50000000000009
42
-0.41421356237308982
10
154.50000000000006
20
158.50000000000006
10
154.50000000000003
20
170.50000000000009
42
-0.41421356237309243
10
156.50000000000003
20
172.50000000000011
0
LWPOLYLINE
5
115
100
AcDbEntity
8
0
100
AcDbPolyline
90
8
70
1
43
0.0
10
156.5
20
292.50000000000006
10
162.50000000000006
20
292.50000000000006
42
-0.41421356237309503
10
164.50000000000006
20
290.50000000000006
10
164.50000000000006
20
278.50000000000011
42
-0.41421356237308982
10
162.50000000000006
20
276.50000000000006
10
156.5
20
276.50000000000006
42
-0.41421356237308982
10
154.5
20
278.50000000000011
10
154.5
20
290.50000000000006
42
-0.41421356237307161
0
LWPOLYLINE
5
116
100
AcDbEntity
8
0
100
AcDbPolyline
90
8
70
1
43
0.0
10
154.5
20
398.49999999999994
10
154.5
20
410.5
42
-0.41421356237309503
10
156.50000000000003
20
412.5
10
162.50000000000003
20
412.5
42
-0.41421356237308982
10
164.50000000000003
20
410.5
10
164.50000000000003
20
398.49999999999994
42
-0.41421356237311063
10
162.50000000000006
20
396.49999999999989
10
156.5
20
396.5
42
-0.41421356237313145
0
LWPOLYLINE
5
117
100
AcDbEntity
8
0
100
AcDbPolyline
90
8
70
1
43
0.0
10
314.5
20
290.50000000000006
42
0.41421356237307422
10
312.50000000000006
20
292.50000000000011
10
306.5
20
292.50000000000006
42
0.41421356237309503
10
304.5
20
290.50000000000006
10
304.5
20
278.50000000000011
42
0.41421356237307944
10
306.5
20
276.50000000000006
10
312.50000000000006
20
276.50000000000006
42
0.41421356237309503
10
314.5
20
278.50000000000011
0
LWPOLYLINE
5
118
100
AcDbEntity
8
0
100
AcDbPolyline
90
8
70
1
43
0.0
10
314.5
20
410.5
42
0.4142135623730846
10
312.50000000000006
20
412.5
10
306.5
20
412.5
42
0.41421356237308982
10
304.5
20
410.5
10
304.5
20
398.49999999999994
42
0.41421356237305862
10
306.5
20
396.5
10
312.50000000000006
20
396.5
42
0.41421356237314189
10
314.50000000000006
20
398.49999999999994
0
CIRCLE
5
119
100
AcDbEntity
8
0
100
AcDbCircle
10
234.50000000000003
20
89.500000000000014
30
0
40
7.4999999999999991
210
0
220
0
230
1
0
LWPOLYLINE
5
120
100
AcDbEntity
8
0
100
AcDbPolyline
90
8
70
1
43
0.0
10
304.5
20
158.50000000000006
42
0.41421356237310025
10
306.5
20
156.50000000000003
10
312.50000000000006
20
156.50000000000006
42
0.41421356237308204
10
314.5
20
158.50000000000006
10
314.5
20
170.50000000000009
42
0.41421356237309503
10
312.50000000000006
20
172.50000000000011
10
306.5
20
172.50000000000011
42
0.41421356237307944
10
304.5
20
170.50000000000009
0
ENDSEC
0
SECTION
2
OBJECTS
0
DICTIONARY
5
C
100
AcDbDictionary
3
ACAD_GROUP
350
D
3
ACAD_MLINESTYLE
350
17
0
DICTIONARY
5
D
100
AcDbDictionary
0
DICTIONARY
5
1A
330
C
100
AcDbDictionary
0
DICTIONARY
5
17
100
AcDbDictionary
0
ENDSEC
0
EOF
