0
SECTION
2
HEADER
9
$INSUNITS
70
4
9
$ACADVER
1
AC1014
9
$HANDSEED
5
FFFF
0
ENDSEC
0
SECTION
2
TABLES
0
TABLE
2
VPORT
5
8
100
AcDbSymbolTable
0
ENDTAB
0
TABLE
2
LTYPE
5
5
100
AcDbSymbolTable
0
LTYPE
5
14
100
AcDbSymbolTableRecord
100
AcDbLinetypeTableRecord
2
BYBLOCK
70
0
0
LTYPE
5
15
100
AcDbSymbolTableRecord
100
AcDbLinetypeTableRecord
2
BYLAYER
70
0
0
LTYPE
5
16
100
AcDbSymbolTableRecord
100
AcDbLinetypeTableRecord
2
DASHED
70
0
3
Dashed __ __ __ __ __ __ __ __ __ __ __ __ __ _
72
65
73
2
40
0.75
49
0.5
74
0
49
-0.25
74
0
0
ENDTAB
0
TABLE
2
LAYER
5
2
100
AcDbSymbolTable
70
3
0
LAYER
5
50
100
AcDbSymbolTableRecord
100
AcDbLayerTableRecord
2
1
70
0
62
7
6
DASHED
0
LAYER
5
51
100
AcDbSymbolTableRecord
100
AcDbLayerTableRecord
2
0
70
0
62
7
6
CONTINUOUS
0
ENDTAB
0
TABLE
2
STYLE
5
3
100
AcDbSymbolTable
70
1
0
STYLE
5
11
100
AcDbSymbolTableRecord
100
AcDbTextStyleTableRecord
2
STANDARD
70
0
0
ENDTAB
0
TABLE
2
VIEW
5
6
100
AcDbSymbolTable
70
0
0
ENDTAB
0
TABLE
2
UCS
5
7
100
AcDbSymbolTable
70
0
0
ENDTAB
0
TABLE
2
APPID
5
9
100
AcDbSymbolTable
70
2
0
APPID
5
12
100
AcDbSymbolTableRecord
100
AcDbRegAppTableRecord
2
ACAD
70
0
0
ENDTAB
0
TABLE
2
DIMSTYLE
5
A
100
AcDbSymbolTable
70
1
0
ENDTAB
0
TABLE
2
BLOCK_RECORD
5
1
100
AcDbSymbolTable
70
1
0
BLOCK_RECORD
5
1F
100
AcDbSymbolTableRecord
100
AcDbBlockTableRecord
2
*MODEL_SPACE
0
BLOCK_RECORD
5
1B
100
AcDbSymbolTableRecord
100
AcDbBlockTableRecord
2
*PAPER_SPACE
0
ENDTAB
0
ENDSEC
0
SECTION
2
BLOCKS
0
BLOCK
5
20
100
AcDbEntity
100
AcDbBlockBegin
2
*MODEL_SPACE
0
ENDBLK
5
21
100
AcDbEntity
100
AcDbBlockEnd
0
BLOCK
5
1C
100
AcDbEntity
100
AcDbBlockBegin
2
*PAPER_SPACE
0
ENDBLK
5
1D
100
AcDbEntity
100
AcDbBlockEnd
0
ENDSEC
0
SECTION
2
ENTITIES
0
LWPOLYLINE
5
100
100
AcDbEntity
8
0
100
AcDbPolyline
90
32
70
1
43
0.0
10
309.59988680409822
20
-325.00093429779076
42
0.41421436801327266
10
311.59989230535194
20
-323.00093429779844
10
311.59989230537269
20
89.000933344101881
42
0.41421436801327788
10
309.59988680411908
20
91.000933344094435
10
308.49921532301772
20
91.00093031655814
42
-0.41421356237309337
10
286.99915618462336
20
112.50087117800079
10
286.9991476600631
20
115.60000502441352
42
0.41421275673339975
10
284.99914766007072
20
117.59999952316009
10
188.9994655819799
20
117.59999952316356
42
0.41421356237307944
10
186.99946558197993
20
115.59999952316366
10
186.99946558197888
20
102.59999952315916
42
-0.41421356237307944
10
184.99946558197888
20
100.59999952315927
10
68.999465581978853
20
100.59999952316784
42
-0.41421356237309509
10
66.999465581978868
20
102.59999952316782
10
66.999465581979905
20
115.59999952316802
42
0.41421356237311063
10
64.999465581979877
20
117.59999952316812
10
-31.000257754916092
20
117.59999952317159
42
0.41421356237312362
10
-33.00025775491612
20
115.59999952317139
10
-33.000257754916106
20
112.5004310785219
42
-0.41421356237309714
10
-54.500257754916177
20
91.0004310785218
10
-55.599992370616178
20
91.0004310785218
42
0.41421356237306645
10
-57.599992370616206
20
89.000431078521999
10
-57.599992370651165
20
-323.00043203218598
42
0.41421356237308465
10
-55.599992370651421
20
-325.00043203218615
10
-54.500257754936712
20
-325.00043203218604
42
-0.41421356237309509
10
-33.000257754938715
20
-346.50043203218797
10
-33.00025775493971
20
-349.60000047683798
42
0.41421356237309509
10
-31.000257754939682
20
-351.60000047683803
10
284.99914766004724
20
-351.60000047685429
42
0.41421275673349078
10
286.99914766003974
20
-349.60000597810728
10
286.99915618460022
20
-346.50087213169519
42
-0.41421356237310331
10
308.49921532299652
20
-325.00093127025355
0
ENDSEC
0
SECTION
2
OBJECTS
0
DICTIONARY
5
C
100
AcDbDictionary
3
ACAD_GROUP
350
D
3
ACAD_MLINESTYLE
350
17
0
DICTIONARY
5
D
100
AcDbDictionary
0
DICTIONARY
5
1A
330
C
100
AcDbDictionary
0
DICTIONARY
5
17
100
AcDbDictionary
0
ENDSEC
0
EOF
