0
SECTION
2
HEADER
9
$INSUNITS
70
4
9
$ACADVER
1
AC1014
9
$HANDSEED
5
FFFF
0
ENDSEC
0
SECTION
2
TABLES
0
TABLE
2
VPORT
5
8
100
AcDbSymbolTable
0
ENDTAB
0
TABLE
2
LTYPE
5
5
100
AcDbSymbolTable
0
LTYPE
5
14
100
AcDbSymbolTableRecord
100
AcDbLinetypeTableRecord
2
BYBLOCK
70
0
0
LTYPE
5
15
100
AcDbSymbolTableRecord
100
AcDbLinetypeTableRecord
2
BYLAYER
70
0
0
LTYPE
5
16
100
AcDbSymbolTableRecord
100
AcDbLinetypeTableRecord
2
DASHED
70
0
3
Dashed __ __ __ __ __ __ __ __ __ __ __ __ __ _
72
65
73
2
40
0.75
49
0.5
74
0
49
-0.25
74
0
0
ENDTAB
0
TABLE
2
LAYER
5
2
100
AcDbSymbolTable
70
3
0
LAYER
5
50
100
AcDbSymbolTableRecord
100
AcDbLayerTableRecord
2
1
70
0
62
7
6
DASHED
0
LAYER
5
51
100
AcDbSymbolTableRecord
100
AcDbLayerTableRecord
2
0
70
0
62
7
6
CONTINUOUS
0
ENDTAB
0
TABLE
2
STYLE
5
3
100
AcDbSymbolTable
70
1
0
STYLE
5
11
100
AcDbSymbolTableRecord
100
AcDbTextStyleTableRecord
2
STANDARD
70
0
0
ENDTAB
0
TABLE
2
VIEW
5
6
100
AcDbSymbolTable
70
0
0
ENDTAB
0
TABLE
2
UCS
5
7
100
AcDbSymbolTable
70
0
0
ENDTAB
0
TABLE
2
APPID
5
9
100
AcDbSymbolTable
70
2
0
APPID
5
12
100
AcDbSymbolTableRecord
100
AcDbRegAppTableRecord
2
ACAD
70
0
0
ENDTAB
0
TABLE
2
DIMSTYLE
5
A
100
AcDbSymbolTable
70
1
0
ENDTAB
0
TABLE
2
BLOCK_RECORD
5
1
100
AcDbSymbolTable
70
1
0
BLOCK_RECORD
5
1F
100
AcDbSymbolTableRecord
100
AcDbBlockTableRecord
2
*MODEL_SPACE
0
BLOCK_RECORD
5
1B
100
AcDbSymbolTableRecord
100
AcDbBlockTableRecord
2
*PAPER_SPACE
0
ENDTAB
0
ENDSEC
0
SECTION
2
BLOCKS
0
BLOCK
5
20
100
AcDbEntity
100
AcDbBlockBegin
2
*MODEL_SPACE
0
ENDBLK
5
21
100
AcDbEntity
100
AcDbBlockEnd
0
BLOCK
5
1C
100
AcDbEntity
100
AcDbBlockBegin
2
*PAPER_SPACE
0
ENDBLK
5
1D
100
AcDbEntity
100
AcDbBlockEnd
0
ENDSEC
0
SECTION
2
ENTITIES
0
LWPOLYLINE
5
100
100
AcDbEntity
8
0
100
AcDbPolyline
90
32
70
1
43
0.0
10
54.499992377043121
20
-316.99972728322479
42
0.4142135623730942
10
57.499992377043149
20
-313.99972728322484
10
57.499992377043043
20
79.999559461958469
42
0.41421356237309331
10
54.499992377043043
20
82.999559461958455
10
41.00000493873074
20
82.999559461958441
42
-0.41421356237310458
10
38.00000493873064
20
85.999559461958455
10
38.00000493873064
20
114.49991608936826
42
0.41421356237309509
10
35.00000493873064
20
117.49991608936826
10
-289.00002018463351
20
117.49991608936816
42
0.41421356237309165
10
-292.00002018463346
20
114.49991608936816
10
-292.00002018463346
20
85.999561009549552
42
-0.41421356237309509
10
-295.00002018463351
20
82.999561009549552
10
-308.50000762294849
20
82.999561009549552
42
0.41421356237309509
10
-311.50000762294849
20
79.999561009549552
10
-311.50000762294837
20
-313.9997272832212
42
0.41421356237309509
10
-308.50000762294911
20
-316.9997272832212
10
-295.00002018463545
20
-316.99972728322115
42
-0.41421356237309509
10
-292.00002018463545
20
-319.99972728322115
10
-292.00002018463647
20
-348.50008391063221
42
0.41421356237309509
10
-289.00002018463647
20
-351.50008391063216
10
-140.00000762295244
20
-351.50008391063216
42
0.41421356237309509
10
-137.00000762295244
20
-348.50008391063221
10
-137.00000762295241
20
-335.00008391063216
42
-0.41421356237309509
10
-134.00000762295244
20
-332.00008391063221
10
-120.00000762295244
20
-332.00008391063221
42
-0.41421356237309509
10
-117.00000762295244
20
-335.00008391063216
10
-117.00000762295245
20
-348.50008391063221
42
0.41421356237309509
10
-114.00000762295244
20
-351.50008391063216
10
35.000004938730868
20
-351.50008391063216
42
0.4142135623730942
10
38.000004938730854
20
-348.50008391063221
10
38.000004938730847
20
-319.99973041864712
42
-0.41421356237309509
10
41.000004938730854
20
-316.99973041864712
0
LWPOLYLINE
5
101
100
AcDbEntity
8
0
100
AcDbPolyline
90
8
70
1
43
0.0
10
-197.00000762295147
20
-101.00008391063214
10
-197.00000762295147
20
-113.00008391063216
42
-0.41421356237309509
10
-199.00000762295147
20
-115.00008391063216
10
-205.00000762295144
20
-115.00008391063216
42
-0.41421356237309509
10
-207.00000762295144
20
-113.00008391063216
10
-207.00000762295144
20
-101.00008391063214
42
-0.41421356237309509
10
-205.00000762295144
20
-99.000083910632156
10
-199.00000762295147
20
-99.000083910632156
42
-0.41421356237309509
0
LWPOLYLINE
5
102
100
AcDbEntity
8
0
100
AcDbPolyline
90
8
70
1
43
0.0
10
-47.000007622951252
20
-101.00008391063214
10
-47.000007622951259
20
-113.00008391063216
42
-0.41421356237309509
10
-49.000007622951252
20
-115.00008391063216
10
-55.000007622951244
20
-115.00008391063216
42
-0.41421356237309509
10
-57.000007622951252
20
-113.00008391063216
10
-57.000007622951244
20
-101.00008391063214
42
-0.41421356237309509
10
-55.000007622951244
20
-99.000083910632156
10
-49.000007622951252
20
-99.000083910632128
42
-0.41421356237309509
0
LWPOLYLINE
5
103
100
AcDbEntity
8
0
100
AcDbPolyline
90
8
70
1
43
0.0
10
-199.00000762295147
20
-235.00008391063218
10
-205.00000762295144
20
-235.00008391063216
42
-0.41421356237309509
10
-207.00000762295144
20
-233.00008391063216
10
-207.00000762295144
20
-221.00008391063216
42
-0.41421356237309509
10
-205.00000762295144
20
-219.00008391063216
10
-199.00000762295147
20
-219.00008391063216
42
-0.41421356237309509
10
-197.00000762295147
20
-221.00008391063216
10
-197.00000762295144
20
-233.00008391063216
42
-0.41421356237309509
0
LWPOLYLINE
5
104
100
AcDbEntity
8
0
100
AcDbPolyline
90
8
70
1
43
0.0
10
-47.000007622951252
20
-221.00008391063216
10
-47.000007622951259
20
-233.00008391063216
42
-0.41421356237309509
10
-49.000007622951252
20
-235.00008391063216
10
-55.000007622951244
20
-235.00008391063216
42
-0.41421356237309509
10
-57.000007622951252
20
-233.00008391063216
10
-57.000007622951244
20
-221.00008391063216
42
-0.41421356237309509
10
-55.000007622951244
20
-219.00008391063216
10
-49.000007622951252
20
-219.00008391063216
42
-0.41421356237309509
0
CIRCLE
5
105
100
AcDbEntity
8
0
100
AcDbCircle
10
-127.00000762295146
20
-262.00008391063113
30
-3.7085889914578729e-11
40
7.5
210
7.8053186409175361e-14
220
-2.5568887034919993e-13
230
1
0
ENDSEC
0
SECTION
2
OBJECTS
0
DICTIONARY
5
C
100
AcDbDictionary
3
ACAD_GROUP
350
D
3
ACAD_MLINESTYLE
350
17
0
DICTIONARY
5
D
100
AcDbDictionary
0
DICTIONARY
5
1A
330
C
100
AcDbDictionary
0
DICTIONARY
5
17
100
AcDbDictionary
0
ENDSEC
0
EOF
