0
SECTION
2
HEADER
9
$INSUNITS
70
4
9
$ACADVER
1
AC1014
9
$HANDSEED
5
FFFF
0
ENDSEC
0
SECTION
2
TABLES
0
TABLE
2
VPORT
5
8
100
AcDbSymbolTable
0
ENDTAB
0
TABLE
2
LTYPE
5
5
100
AcDbSymbolTable
0
LTYPE
5
14
100
AcDbSymbolTableRecord
100
AcDbLinetypeTableRecord
2
BYBLOCK
70
0
0
LTYPE
5
15
100
AcDbSymbolTableRecord
100
AcDbLinetypeTableRecord
2
BYLAYER
70
0
0
LTYPE
5
16
100
AcDbSymbolTableRecord
100
AcDbLinetypeTableRecord
2
DASHED
70
0
3
Dashed __ __ __ __ __ __ __ __ __ __ __ __ __ _
72
65
73
2
40
0.75
49
0.5
74
0
49
-0.25
74
0
0
ENDTAB
0
TABLE
2
LAYER
5
2
100
AcDbSymbolTable
70
3
0
LAYER
5
50
100
AcDbSymbolTableRecord
100
AcDbLayerTableRecord
2
1
70
0
62
7
6
DASHED
0
LAYER
5
51
100
AcDbSymbolTableRecord
100
AcDbLayerTableRecord
2
0
70
0
62
7
6
CONTINUOUS
0
ENDTAB
0
TABLE
2
STYLE
5
3
100
AcDbSymbolTable
70
1
0
STYLE
5
11
100
AcDbSymbolTableRecord
100
AcDbTextStyleTableRecord
2
STANDARD
70
0
0
ENDTAB
0
TABLE
2
VIEW
5
6
100
AcDbSymbolTable
70
0
0
ENDTAB
0
TABLE
2
UCS
5
7
100
AcDbSymbolTable
70
0
0
ENDTAB
0
TABLE
2
APPID
5
9
100
AcDbSymbolTable
70
2
0
APPID
5
12
100
AcDbSymbolTableRecord
100
AcDbRegAppTableRecord
2
ACAD
70
0
0
ENDTAB
0
TABLE
2
DIMSTYLE
5
A
100
AcDbSymbolTable
70
1
0
ENDTAB
0
TABLE
2
BLOCK_RECORD
5
1
100
AcDbSymbolTable
70
1
0
BLOCK_RECORD
5
1F
100
AcDbSymbolTableRecord
100
AcDbBlockTableRecord
2
*MODEL_SPACE
0
BLOCK_RECORD
5
1B
100
AcDbSymbolTableRecord
100
AcDbBlockTableRecord
2
*PAPER_SPACE
0
ENDTAB
0
ENDSEC
0
SECTION
2
BLOCKS
0
BLOCK
5
20
100
AcDbEntity
100
AcDbBlockBegin
2
*MODEL_SPACE
0
ENDBLK
5
21
100
AcDbEntity
100
AcDbBlockEnd
0
BLOCK
5
1C
100
AcDbEntity
100
AcDbBlockBegin
2
*PAPER_SPACE
0
ENDBLK
5
1D
100
AcDbEntity
100
AcDbBlockEnd
0
ENDSEC
0
SECTION
2
ENTITIES
0
LWPOLYLINE
5
100
100
AcDbEntity
8
0
100
AcDbPolyline
90
32
70
1
43
0.0
10
568.99970409819593
20
167.59999952317077
42
0.41421356237304818
10
566.99970409819582
20
165.59999952317116
10
566.99970409811306
20
162.50043107852184
42
-0.41421356237309598
10
545.49970409811306
20
141.00043107852179
10
544.3999694824131
20
141.00043107852179
42
0.41421356237306645
10
542.3999694824131
20
139.00043107852198
10
542.39996948237388
20
-323.00043203218598
42
0.41421356237308465
10
544.39996948237365
20
-325.00043203218615
10
545.49970409809066
20
-325.00043203218604
42
-0.41421356237309509
10
566.99970409808861
20
-346.50043203218797
10
566.99970409808725
20
-349.60000047683764
42
0.4142135623731471
10
568.99970409808805
20
-351.60000047683809
10
934.99910951307459
20
-351.60000047685679
42
0.41421275673349595
10
936.99910951306708
20
-349.60000597810972
10
936.99911803762745
20
-346.50087213169769
42
-0.41421356237310275
10
958.49917717602375
20
-325.00093127025599
10
959.59984865712499
20
-325.00093429779304
42
0.41421436801325701
10
961.59985415837866
20
-323.00093429780088
10
961.59985415840197
20
139.00093334409931
42
0.41421436801328831
10
959.5998486571483
20
141.00093334409189
10
958.49917717604683
20
141.0009303165557
42
-0.41421356237309259
10
936.99911803765258
20
162.50087117799825
10
936.99910951309221
20
165.60000502441082
42
0.41421275673339714
10
934.99910951309994
20
167.59999952315741
10
813.99942743500912
20
167.59999952316181
42
0.41421356237307944
10
811.99942743500912
20
165.5999995231619
10
811.9994274350081
20
152.59999952315744
42
-0.41421356237307683
10
809.9994274350081
20
150.59999952315758
10
693.9994274350081
20
150.59999952316608
42
-0.41421356237309509
10
691.9994274350081
20
152.5999995231661
10
691.99942743500912
20
165.59999952316628
42
0.41421356237311063
10
689.99942743500912
20
167.59999952316636
0
ENDSEC
0
SECTION
2
OBJECTS
0
DICTIONARY
5
C
100
AcDbDictionary
3
ACAD_GROUP
350
D
3
ACAD_MLINESTYLE
350
17
0
DICTIONARY
5
D
100
AcDbDictionary
0
DICTIONARY
5
1A
330
C
100
AcDbDictionary
0
DICTIONARY
5
17
100
AcDbDictionary
0
ENDSEC
0
EOF
