0
SECTION
2
HEADER
9
$INSUNITS
70
4
9
$ACADVER
1
AC1014
9
$HANDSEED
5
FFFF
0
ENDSEC
0
SECTION
2
TABLES
0
TABLE
2
VPORT
5
8
100
AcDbSymbolTable
0
ENDTAB
0
TABLE
2
LTYPE
5
5
100
AcDbSymbolTable
0
LTYPE
5
14
100
AcDbSymbolTableRecord
100
AcDbLinetypeTableRecord
2
BYBLOCK
70
0
0
LTYPE
5
15
100
AcDbSymbolTableRecord
100
AcDbLinetypeTableRecord
2
BYLAYER
70
0
0
LTYPE
5
16
100
AcDbSymbolTableRecord
100
AcDbLinetypeTableRecord
2
DASHED
70
0
3
Dashed __ __ __ __ __ __ __ __ __ __ __ __ __ _
72
65
73
2
40
0.75
49
0.5
74
0
49
-0.25
74
0
0
ENDTAB
0
TABLE
2
LAYER
5
2
100
AcDbSymbolTable
70
3
0
LAYER
5
50
100
AcDbSymbolTableRecord
100
AcDbLayerTableRecord
2
1
70
0
62
7
6
DASHED
0
LAYER
5
51
100
AcDbSymbolTableRecord
100
AcDbLayerTableRecord
2
0
70
0
62
7
6
CONTINUOUS
0
ENDTAB
0
TABLE
2
STYLE
5
3
100
AcDbSymbolTable
70
1
0
STYLE
5
11
100
AcDbSymbolTableRecord
100
AcDbTextStyleTableRecord
2
STANDARD
70
0
0
ENDTAB
0
TABLE
2
VIEW
5
6
100
AcDbSymbolTable
70
0
0
ENDTAB
0
TABLE
2
UCS
5
7
100
AcDbSymbolTable
70
0
0
ENDTAB
0
TABLE
2
APPID
5
9
100
AcDbSymbolTable
70
2
0
APPID
5
12
100
AcDbSymbolTableRecord
100
AcDbRegAppTableRecord
2
ACAD
70
0
0
ENDTAB
0
TABLE
2
DIMSTYLE
5
A
100
AcDbSymbolTable
70
1
0
ENDTAB
0
TABLE
2
BLOCK_RECORD
5
1
100
AcDbSymbolTable
70
1
0
BLOCK_RECORD
5
1F
100
AcDbSymbolTableRecord
100
AcDbBlockTableRecord
2
*MODEL_SPACE
0
BLOCK_RECORD
5
1B
100
AcDbSymbolTableRecord
100
AcDbBlockTableRecord
2
*PAPER_SPACE
0
ENDTAB
0
ENDSEC
0
SECTION
2
BLOCKS
0
BLOCK
5
20
100
AcDbEntity
100
AcDbBlockBegin
2
*MODEL_SPACE
0
ENDBLK
5
21
100
AcDbEntity
100
AcDbBlockEnd
0
BLOCK
5
1C
100
AcDbEntity
100
AcDbBlockBegin
2
*PAPER_SPACE
0
ENDBLK
5
1D
100
AcDbEntity
100
AcDbBlockEnd
0
ENDSEC
0
SECTION
2
ENTITIES
0
LWPOLYLINE
5
100
100
AcDbEntity
8
0
100
AcDbPolyline
90
32
70
1
43
0.0
10
-545.49999912929491
20
-316.99972728322541
42
0.41421356237309509
10
-542.49999912929491
20
-313.99972728322541
10
-542.49999912929502
20
129.99955946195826
42
0.41421356237309853
10
-545.49999912929502
20
132.99955946195831
10
-558.99998656760727
20
132.99955946195831
42
-0.41421356237310891
10
-561.99998656760738
20
135.99955946195828
10
-561.99998656760738
20
164.49991608936807
42
0.41421356237309509
10
-564.99998656760738
20
167.49991608936807
10
-939.00001169097163
20
167.49991608936801
42
0.41421356237309509
10
-942.00001169097163
20
164.49991608936799
10
-942.00001169097163
20
135.99956100954938
42
-0.41421356237309509
10
-945.00001169097163
20
132.99956100954938
10
-958.49999912928661
20
132.99956100954938
42
0.41421356237309509
10
-961.49999912928649
20
129.99956100954938
10
-961.49999912928649
20
-313.99972728322132
42
0.41421356237309509
10
-958.49999912928729
20
-316.99972728322132
10
-945.00001169097357
20
-316.99972728322132
42
-0.41421356237309509
10
-942.00001169097368
20
-319.99972728322126
10
-942.00001169097459
20
-348.50008391063233
42
0.41421356237309509
10
-939.00001169097459
20
-351.50008391063233
10
-764.99999912929059
20
-351.50008391063233
42
0.41421356237309509
10
-761.99999912929059
20
-348.50008391063233
10
-761.99999912929059
20
-335.00008391063233
42
-0.41421356237309509
10
-758.99999912929059
20
-332.00008391063238
10
-744.99999912929059
20
-332.00008391063238
42
-0.41421356237309509
10
-741.99999912929059
20
-335.00008391063233
10
-741.99999912929002
20
-348.50008391063233
42
0.41421356237309509
10
-738.99999912929059
20
-351.50008391063233
10
-564.99998656760715
20
-351.50008391063233
42
0.41421356237309509
10
-561.99998656760715
20
-348.50008391063233
10
-561.99998656760727
20
-319.99973041864729
42
-0.41421356237309509
10
-558.99998656760727
20
-316.99973041864729
0
LWPOLYLINE
5
101
100
AcDbEntity
8
0
100
AcDbPolyline
90
8
70
1
43
0.0
10
-821.99999912928956
20
-101.00008391063228
10
-821.99999912928956
20
-113.0000839106323
42
-0.41421356237309509
10
-823.99999912928956
20
-115.0000839106323
10
-829.99999912928956
20
-115.00008391063233
42
-0.41421356237309509
10
-831.99999912928956
20
-113.0000839106323
10
-831.99999912928956
20
-101.00008391063228
42
-0.41421356237309509
10
-829.99999912928956
20
-99.000083910632299
10
-823.99999912928956
20
-99.000083910632256
42
-0.41421356237309509
0
LWPOLYLINE
5
102
100
AcDbEntity
8
0
100
AcDbPolyline
90
8
70
1
43
0.0
10
-671.99999912928934
20
-101.00008391063228
10
-671.99999912928934
20
-113.0000839106323
42
-0.41421356237309509
10
-673.99999912928934
20
-115.0000839106323
10
-679.99999912928945
20
-115.00008391063218
42
-0.41421356237309509
10
-681.99999912928934
20
-113.0000839106323
10
-681.99999912928945
20
-101.00008391063228
42
-0.41421356237309509
10
-679.99999912928945
20
-99.000083910632299
10
-673.99999912928934
20
-99.000083910632256
42
-0.41421356237309509
0
LWPOLYLINE
5
103
100
AcDbEntity
8
0
100
AcDbPolyline
90
8
70
1
43
0.0
10
-823.99999912928956
20
-235.00008391063233
10
-829.99999912928956
20
-235.00008391063233
42
-0.41421356237309509
10
-831.99999912928956
20
-233.0000839106323
10
-831.99999912928956
20
-221.0000839106323
42
-0.41421356237309509
10
-829.99999912928956
20
-219.00008391063233
10
-823.99999912928956
20
-219.00008391063227
42
-0.41421356237309509
10
-821.99999912928956
20
-221.0000839106323
10
-821.99999912928956
20
-233.0000839106323
42
-0.41421356237309509
0
LWPOLYLINE
5
104
100
AcDbEntity
8
0
100
AcDbPolyline
90
8
70
1
43
0.0
10
-671.99999912928934
20
-221.0000839106323
10
-671.99999912928934
20
-233.0000839106323
42
-0.41421356237309509
10
-673.99999912928934
20
-235.0000839106323
10
-679.99999912928945
20
-235.00008391063218
42
-0.41421356237309509
10
-681.99999912928934
20
-233.0000839106323
10
-681.99999912928945
20
-221.0000839106323
42
-0.41421356237309509
10
-679.99999912928945
20
-219.00008391063233
10
-673.99999912928934
20
-219.00008391063227
42
-0.41421356237309509
0
CIRCLE
5
105
100
AcDbEntity
8
0
100
AcDbCircle
10
-751.99999912928956
20
-262.0000839106313
30
-4.3480774536419631e-11
40
7.5
210
7.8053186409175361e-14
220
-2.5568887034919993e-13
230
1
0
ENDSEC
0
SECTION
2
OBJECTS
0
DICTIONARY
5
C
100
AcDbDictionary
3
ACAD_GROUP
350
D
3
ACAD_MLINESTYLE
350
17
0
DICTIONARY
5
D
100
AcDbDictionary
0
DICTIONARY
5
1A
330
C
100
AcDbDictionary
0
DICTIONARY
5
17
100
AcDbDictionary
0
ENDSEC
0
EOF
