0
SECTION
2
HEADER
9
$INSUNITS
70
4
9
$ACADVER
1
AC1014
9
$HANDSEED
5
FFFF
0
ENDSEC
0
SECTION
2
TABLES
0
TABLE
2
VPORT
5
8
100
AcDbSymbolTable
0
ENDTAB
0
TABLE
2
LTYPE
5
5
100
AcDbSymbolTable
0
LTYPE
5
14
100
AcDbSymbolTableRecord
100
AcDbLinetypeTableRecord
2
BYBLOCK
70
0
0
LTYPE
5
15
100
AcDbSymbolTableRecord
100
AcDbLinetypeTableRecord
2
BYLAYER
70
0
0
LTYPE
5
16
100
AcDbSymbolTableRecord
100
AcDbLinetypeTableRecord
2
DASHED
70
0
3
Dashed __ __ __ __ __ __ __ __ __ __ __ __ __ _
72
65
73
2
40
0.75
49
0.5
74
0
49
-0.25
74
0
0
ENDTAB
0
TABLE
2
LAYER
5
2
100
AcDbSymbolTable
70
3
0
LAYER
5
50
100
AcDbSymbolTableRecord
100
AcDbLayerTableRecord
2
1
70
0
62
7
6
DASHED
0
LAYER
5
51
100
AcDbSymbolTableRecord
100
AcDbLayerTableRecord
2
0
70
0
62
7
6
CONTINUOUS
0
ENDTAB
0
TABLE
2
STYLE
5
3
100
AcDbSymbolTable
70
1
0
STYLE
5
11
100
AcDbSymbolTableRecord
100
AcDbTextStyleTableRecord
2
STANDARD
70
0
0
ENDTAB
0
TABLE
2
VIEW
5
6
100
AcDbSymbolTable
70
0
0
ENDTAB
0
TABLE
2
UCS
5
7
100
AcDbSymbolTable
70
0
0
ENDTAB
0
TABLE
2
APPID
5
9
100
AcDbSymbolTable
70
2
0
APPID
5
12
100
AcDbSymbolTableRecord
100
AcDbRegAppTableRecord
2
ACAD
70
0
0
ENDTAB
0
TABLE
2
DIMSTYLE
5
A
100
AcDbSymbolTable
70
1
0
ENDTAB
0
TABLE
2
BLOCK_RECORD
5
1
100
AcDbSymbolTable
70
1
0
BLOCK_RECORD
5
1F
100
AcDbSymbolTableRecord
100
AcDbBlockTableRecord
2
*MODEL_SPACE
0
BLOCK_RECORD
5
1B
100
AcDbSymbolTableRecord
100
AcDbBlockTableRecord
2
*PAPER_SPACE
0
ENDTAB
0
ENDSEC
0
SECTION
2
BLOCKS
0
BLOCK
5
20
100
AcDbEntity
100
AcDbBlockBegin
2
*MODEL_SPACE
0
ENDBLK
5
21
100
AcDbEntity
100
AcDbBlockEnd
0
BLOCK
5
1C
100
AcDbEntity
100
AcDbBlockBegin
2
*PAPER_SPACE
0
ENDBLK
5
1D
100
AcDbEntity
100
AcDbBlockEnd
0
ENDSEC
0
SECTION
2
ENTITIES
0
LWPOLYLINE
5
100
100
AcDbEntity
8
0
100
AcDbPolyline
90
32
70
1
43
0.0
10
-1639.0000879849167
20
217.49991608936818
42
0.41421356237309853
10
-1642.0000879849169
20
214.49991608936813
10
-1642.0000879849169
20
185.9995610095495
42
-0.41421356237309509
10
-1645.0000879849172
20
182.99956100954947
10
-1658.5000754232319
20
182.9995610095495
42
0.41421356237309509
10
-1661.5000754232319
20
179.99956100954955
10
-1661.5000754232319
20
-313.9997272832212
42
0.41421356237309509
10
-1658.5000754232326
20
-316.9997272832212
10
-1645.0000879849188
20
-316.99972728322132
42
-0.41421356237309509
10
-1642.000087984919
20
-319.99972728322115
10
-1642.0000879849199
20
-348.50008391063221
42
0.41421356237309509
10
-1639.0000879849199
20
-351.50008391063216
10
-1440.000075423236
20
-351.50008391063216
42
0.41421356237309509
10
-1437.000075423236
20
-348.50008391063221
10
-1437.000075423236
20
-335.00008391063216
42
-0.41421356237309509
10
-1434.0000754232358
20
-332.00008391063221
10
-1420.000075423236
20
-332.00008391063204
42
-0.41421356237309509
10
-1417.000075423236
20
-335.00008391063216
10
-1417.0000754232353
20
-348.50008391063221
42
0.41421356237309509
10
-1414.000075423236
20
-351.50008391063216
10
-1215.0000628615526
20
-351.50008391063216
42
0.41421356237309509
10
-1212.0000628615526
20
-348.50008391063221
10
-1212.0000628615526
20
-319.99973041864712
42
-0.41421356237309509
10
-1209.0000628615526
20
-316.99973041864712
10
-1195.5000754232403
20
-316.99973041864712
42
0.41421356237309509
10
-1192.5000754232403
20
-313.99972728322473
10
-1192.5000754232403
20
179.9995594619584
42
0.41421356237309509
10
-1195.5000754232403
20
182.9995594619584
10
-1209.0000628615528
20
182.99955946195831
42
-0.41421356237309509
10
-1212.0000628615528
20
185.99955946195843
10
-1212.0000628615528
20
214.49991608936818
42
0.41421356237309853
10
-1215.0000628615528
20
217.49991608936824
0
LWPOLYLINE
5
101
100
AcDbEntity
8
0
100
AcDbPolyline
90
8
70
1
43
0.0
10
-1497.0000754232346
20
-101.00008391063214
10
-1497.0000754232351
20
-113.00008391063216
42
-0.41421356237309509
10
-1499.0000754232349
20
-115.00008391063216
10
-1505.0000754232349
20
-115.00008391063204
42
-0.41421356237309509
10
-1507.0000754232346
20
-113.00008391063216
10
-1507.0000754232346
20
-101.00008391063214
42
-0.41421356237309509
10
-1505.0000754232349
20
-99.000083910632156
10
-1499.0000754232349
20
-99.000083910631972
42
-0.41421356237309509
0
LWPOLYLINE
5
102
100
AcDbEntity
8
0
100
AcDbPolyline
90
8
70
1
43
0.0
10
-1347.0000754232346
20
-101.00008391063214
10
-1347.0000754232346
20
-113.00008391063216
42
-0.41421356237309509
10
-1349.0000754232346
20
-115.00008391063216
10
-1355.0000754232346
20
-115.00008391063233
42
-0.41421356237309509
10
-1357.0000754232346
20
-113.00008391063216
10
-1357.0000754232344
20
-101.00008391063214
42
-0.41421356237309509
10
-1355.0000754232346
20
-99.000083910632156
10
-1349.0000754232346
20
-99.000083910632256
42
-0.41421356237309509
0
LWPOLYLINE
5
103
100
AcDbEntity
8
0
100
AcDbPolyline
90
8
70
1
43
0.0
10
-1499.0000754232349
20
-235.00008391063218
10
-1505.0000754232349
20
-235.00008391063204
42
-0.41421356237309509
10
-1507.0000754232346
20
-233.00008391063216
10
-1507.0000754232346
20
-221.00008391063216
42
-0.41421356237309509
10
-1505.0000754232349
20
-219.00008391063216
10
-1499.0000754232349
20
-219.00008391063199
42
-0.41421356237309509
10
-1497.0000754232346
20
-221.00008391063216
10
-1497.0000754232346
20
-233.00008391063216
42
-0.41421356237309509
0
LWPOLYLINE
5
104
100
AcDbEntity
8
0
100
AcDbPolyline
90
8
70
1
43
0.0
10
-1347.0000754232346
20
-221.00008391063216
10
-1347.0000754232346
20
-233.00008391063216
42
-0.41421356237309509
10
-1349.0000754232346
20
-235.00008391063216
10
-1355.0000754232346
20
-235.00008391063233
42
-0.41421356237309509
10
-1357.0000754232346
20
-233.00008391063216
10
-1357.0000754232344
20
-221.00008391063216
42
-0.41421356237309509
10
-1355.0000754232346
20
-219.00008391063216
10
-1349.0000754232346
20
-219.00008391063227
42
-0.41421356237309509
0
CIRCLE
5
105
100
AcDbEntity
8
0
100
AcDbCircle
10
-1427.0000754232346
20
-262.00008391063113
30
-4.9880100050359033e-11
40
7.5
210
7.8053186409175361e-14
220
-2.5568887034919998e-13
230
1
0
ENDSEC
0
SECTION
2
OBJECTS
0
DICTIONARY
5
C
100
AcDbDictionary
3
ACAD_GROUP
350
D
3
ACAD_MLINESTYLE
350
17
0
DICTIONARY
5
D
100
AcDbDictionary
0
DICTIONARY
5
1A
330
C
100
AcDbDictionary
0
DICTIONARY
5
17
100
AcDbDictionary
0
ENDSEC
0
EOF
