0
SECTION
2
HEADER
9
$INSUNITS
70
4
9
$ACADVER
1
AC1014
9
$HANDSEED
5
FFFF
0
ENDSEC
0
SECTION
2
TABLES
0
TABLE
2
VPORT
5
8
100
AcDbSymbolTable
0
ENDTAB
0
TABLE
2
LTYPE
5
5
100
AcDbSymbolTable
0
LTYPE
5
14
100
AcDbSymbolTableRecord
100
AcDbLinetypeTableRecord
2
BYBLOCK
70
0
0
LTYPE
5
15
100
AcDbSymbolTableRecord
100
AcDbLinetypeTableRecord
2
BYLAYER
70
0
0
LTYPE
5
16
100
AcDbSymbolTableRecord
100
AcDbLinetypeTableRecord
2
DASHED
70
0
3
Dashed __ __ __ __ __ __ __ __ __ __ __ __ __ _
72
65
73
2
40
0.75
49
0.5
74
0
49
-0.25
74
0
0
ENDTAB
0
TABLE
2
LAYER
5
2
100
AcDbSymbolTable
70
3
0
LAYER
5
50
100
AcDbSymbolTableRecord
100
AcDbLayerTableRecord
2
1
70
0
62
7
6
DASHED
0
LAYER
5
51
100
AcDbSymbolTableRecord
100
AcDbLayerTableRecord
2
0
70
0
62
7
6
CONTINUOUS
0
ENDTAB
0
TABLE
2
STYLE
5
3
100
AcDbSymbolTable
70
1
0
STYLE
5
11
100
AcDbSymbolTableRecord
100
AcDbTextStyleTableRecord
2
STANDARD
70
0
0
ENDTAB
0
TABLE
2
VIEW
5
6
100
AcDbSymbolTable
70
0
0
ENDTAB
0
TABLE
2
UCS
5
7
100
AcDbSymbolTable
70
0
0
ENDTAB
0
TABLE
2
APPID
5
9
100
AcDbSymbolTable
70
2
0
APPID
5
12
100
AcDbSymbolTableRecord
100
AcDbRegAppTableRecord
2
ACAD
70
0
0
ENDTAB
0
TABLE
2
DIMSTYLE
5
A
100
AcDbSymbolTable
70
1
0
ENDTAB
0
TABLE
2
BLOCK_RECORD
5
1
100
AcDbSymbolTable
70
1
0
BLOCK_RECORD
5
1F
100
AcDbSymbolTableRecord
100
AcDbBlockTableRecord
2
*MODEL_SPACE
0
BLOCK_RECORD
5
1B
100
AcDbSymbolTableRecord
100
AcDbBlockTableRecord
2
*PAPER_SPACE
0
ENDTAB
0
ENDSEC
0
SECTION
2
BLOCKS
0
BLOCK
5
20
100
AcDbEntity
100
AcDbBlockBegin
2
*MODEL_SPACE
0
ENDBLK
5
21
100
AcDbEntity
100
AcDbBlockEnd
0
BLOCK
5
1C
100
AcDbEntity
100
AcDbBlockBegin
2
*PAPER_SPACE
0
ENDBLK
5
1D
100
AcDbEntity
100
AcDbBlockEnd
0
ENDSEC
0
SECTION
2
ENTITIES
0
LWPOLYLINE
5
100
100
AcDbEntity
8
0
100
AcDbPolyline
90
32
70
1
43
0.0
10
1488.9994274350147
20
217.59999952316292
42
0.41421356237308465
10
1486.9994274350145
20
215.59999952316301
10
1486.9994274350138
20
202.59999952315917
42
-0.41421356237307427
10
1484.9994274350138
20
200.59999952315931
10
1368.9994274350136
20
200.59999952316792
42
-0.41421356237309509
10
1366.9994274350138
20
202.59999952316781
10
1366.9994274350145
20
215.59999952317045
42
0.41421356237306384
10
1364.9994274350142
20
217.59999952317054
10
1218.9997040981186
20
217.59999952317582
42
0.41421356237312629
10
1216.9997040981186
20
215.5999995231756
10
1216.9997040981186
20
212.50043107852611
42
-0.41421356237309598
10
1195.4997040981186
20
191.00043107852605
10
1194.3999694824186
20
191.00043107852602
42
0.41421356237306384
10
1192.3999694824188
20
189.00043107852628
10
1192.3999694823751
20
-323.00043203218189
42
0.41421356237308465
10
1194.3999694823749
20
-325.00043203218195
10
1195.4997040980907
20
-325.00043203218183
42
-0.41421356237309509
10
1216.9997040980886
20
-346.50043203218377
10
1216.9997040980872
20
-349.60000047683337
42
0.41421356237313667
10
1218.9997040980879
20
-351.60000047683383
10
1634.9991095130745
20
-351.60000047685486
42
0.41421275673344393
10
1636.999109513067
20
-349.60000597810836
10
1636.9991180376273
20
-346.50087213169763
42
-0.41421356237310275
10
1658.4991771760237
20
-325.00093127025593
10
1659.5998486571279
20
-325.00093429779298
42
0.41421436801327788
10
1661.5998541583817
20
-323.00093429780082
10
1661.5998541584074
20
189.00093334409934
42
0.41421436801326744
10
1659.5998486571539
20
191.00093334409192
10
1658.4991771760524
20
191.00093031655572
42
-0.41421356237309509
10
1636.9991180376583
20
212.50087117799833
10
1636.9991095130979
20
215.60000502441102
42
0.41421275673341801
10
1634.9991095131054
20
217.59999952315763
0
ENDSEC
0
SECTION
2
OBJECTS
0
DICTIONARY
5
C
100
AcDbDictionary
3
ACAD_GROUP
350
D
3
ACAD_MLINESTYLE
350
17
0
DICTIONARY
5
D
100
AcDbDictionary
0
DICTIONARY
5
1A
330
C
100
AcDbDictionary
0
DICTIONARY
5
17
100
AcDbDictionary
0
ENDSEC
0
EOF
