<?xml version="1.0" encoding="UTF-8" standalone="no"?>
<svg
   viewBox="0 0 919.99998 420.00003"
   width="920"
   height="420"
   version="1.1"
   id="svg37"
   sodipodi:docname="Stealthchanger toolchanger logo.svg"
   xml:space="preserve"
   inkscape:export-filename="Stealthchanger toolchanger logo.dxf.png"
   inkscape:export-xdpi="96"
   inkscape:export-ydpi="96"
   inkscape:version="1.3.2 (091e20e, 2023-11-25, custom)"
   xmlns:inkscape="http://www.inkscape.org/namespaces/inkscape"
   xmlns:sodipodi="http://sodipodi.sourceforge.net/DTD/sodipodi-0.dtd"
   xmlns="http://www.w3.org/2000/svg"
   xmlns:svg="http://www.w3.org/2000/svg"><sodipodi:namedview
     id="namedview37"
     pagecolor="#ffffff"
     bordercolor="#000000"
     borderopacity="0.25"
     inkscape:showpageshadow="2"
     inkscape:pageopacity="0.0"
     inkscape:pagecheckerboard="0"
     inkscape:deskcolor="#d1d1d1"
     inkscape:zoom="1.4142136"
     inkscape:cx="351.43207"
     inkscape:cy="226.27417"
     inkscape:window-width="2558"
     inkscape:window-height="1360"
     inkscape:window-x="1273"
     inkscape:window-y="0"
     inkscape:window-maximized="0"
     inkscape:current-layer="svg37" /><desc
     id="desc1">Stealthchanger toolchanger logo.dxf - scale = 1.000000, origin = (0.000000, 0.000000), method = manual</desc><defs
     id="defs4"><marker
       id="DistanceX"
       orient="auto"
       refX="0"
       refY="0"
       style="overflow:visible"><path
         d="M 3,-3 -3,3 M 0,-5 V 5"
         style="stroke:#000000;stroke-width:0.5"
         id="path1" /></marker><pattern
       id="Hatch"
       patternUnits="userSpaceOnUse"
       width="8"
       height="8"
       x="0"
       y="0"><path
         d="M8 4 l-4,4"
         stroke="#000000"
         stroke-width="0.25"
         linecap="square"
         id="path2" /><path
         d="M6 2 l-4,4"
         stroke="#000000"
         stroke-width="0.25"
         linecap="square"
         id="path3" /><path
         d="M4 0 l-4,4"
         stroke="#000000"
         stroke-width="0.25"
         linecap="square"
         id="path4" /></pattern><symbol
       id="*MODEL_SPACE" /><symbol
       id="*PAPER_SPACE" /><marker
       id="DistanceX-3"
       orient="auto"
       refX="0.0"
       refY="0.0"
       style="overflow:visible"><path
         d="M 3,-3 L -3,3 M 0,-5 L  0,5"
         style="stroke:#000000; stroke-width:0.5"
         id="path1-7" /></marker><pattern
       id="Hatch-7"
       patternUnits="userSpaceOnUse"
       width="8"
       height="8"
       x="0"
       y="0"><path
         d="M8 4 l-4,4"
         stroke="#000000"
         stroke-width="0.25"
         linecap="square"
         id="path2-5" /><path
         d="M6 2 l-4,4"
         stroke="#000000"
         stroke-width="0.25"
         linecap="square"
         id="path3-6" /><path
         d="M4 0 l-4,4"
         stroke="#000000"
         stroke-width="0.25"
         linecap="square"
         id="path4-5" /></pattern><symbol
       id="*MODEL_SPACE-3" /><symbol
       id="*PAPER_SPACE-3" /></defs><g
     inkscape:label="0"
     id="g37"
     transform="matrix(1,0,0,-1,221.78496,1503.331)"
     style="stroke:#db3f38;stroke-opacity:1;fill:#db3f38;fill-opacity:1"><path
       d="m 556.62133,1292.5984 h -41.23121 l -61.84681,-98.195 h 41.23121 z"
       style="fill:#db3f38;stroke:#db3f38;stroke-opacity:1;fill-opacity:1"
       id="path5" /><path
       d="m 311.81102,1374.4276 -28.34645,16.3658 170.07874,98.195 170.07874,-98.195 v -98.195 h 56.69291 l -56.69291,-56.6929 -28.34646,16.3658 v 122.1563 l -141.73228,81.8292 z"
       style="fill:#db3f38;stroke:#db3f38;stroke-opacity:1;fill-opacity:1"
       id="path6" /><path
       d="m 412.3121,1194.4034 h -41.23121 l 123.69363,196.39 h 41.23121 z"
       style="fill:#db3f38;stroke:#db3f38;stroke-opacity:1;fill-opacity:1"
       id="path7" /><path
       d="m 595.27559,1210.7693 28.34646,-16.3659 -170.07874,-98.195 -170.07874,98.195 v 98.195 h -56.69292 l 56.69292,56.6929 28.34645,-16.3658 v -122.1562 l 141.73229,-81.8292 z"
       style="fill:#db3f38;stroke:#db3f38;stroke-opacity:1;fill-opacity:1"
       id="path8" /><path
       d="m 412.3121,1390.7934 -61.84682,-98.195 h 41.23121 l 61.84682,98.195 z"
       style="fill:#db3f38;stroke:#db3f38;stroke-opacity:1;fill-opacity:1"
       id="path9" /><path
       d="m -134.30158,1490.531 v -93.0996 l 39.709555,-82.7946 h 17.88563 l 13.347493,27.8296 -6.682479,13.933 v 107.6747 h 34.966883 l 0.04912,26.4569 z"
       style="fill:#db3f38;stroke:#db3f38;stroke-opacity:1;fill-opacity:1"
       id="path10" /><path
       d="m 40.573404,1426.2789 v 26.4566 h -99.276203 v -93.7576 l 39.449969,-82.2534 H -1.3672 l 13.420741,27.9823 -6.660663,13.8875 v 107.6846 z"
       style="fill:#db3f38;stroke:#db3f38;stroke-opacity:1;fill-opacity:1"
       id="path11" /><path
       d="m 56.166463,1238.9506 h 17.88563 l 12.24591,25.5328 -5.604128,11.6846 v 111.7861 h 35.313785 v 26.9862 H 16.731461 v -93.7675 z"
       style="fill:#db3f38;stroke:#db3f38;stroke-opacity:1;fill-opacity:1"
       id="path13" /><path
       style="fill:#db3f38;fill-opacity:1;stroke:#db3f38;stroke-opacity:1"
       d="m 92.0325,1278.75 40.6955,-84.85 h 2.88 V 1175 l -283.29201,-5e-4 c -6.69619,-5e-4 -12.12453,-5.4288 -12.12477,-12.1273 v -18.8944 c 2.4e-4,-6.6984 5.42858,-12.1278 12.12477,-12.1278 H 135.608 v -18.9 h -343.2 v -12.12 l 343.20083,10e-5 c 6.69591,2e-4 12.12404,5.4285 12.12409,12.1223 v 18.8988 c -1.1e-4,6.6973 -5.42845,12.1272 -12.12478,12.1272 H -147.684 v 18.89 h 283.29214 c 6.69632,0 12.12466,5.4306 12.12477,12.1273 l 9e-5,18.9005 h 2.88 l 40.696,84.85 v 97.87 H 92.0325 v -97.87"
       id="path29"
       sodipodi:nodetypes="cccccccccccccccccccccccccc" /></g></svg>
