0
SECTION
2
HEADER
9
$INSUNITS
70
4
9
$ACADVER
1
AC1014
9
$HANDSEED
5
FFFF
0
ENDSEC
0
SECTION
2
TABLES
0
TABLE
2
VPORT
5
8
100
AcDbSymbolTable
0
ENDTAB
0
TABLE
2
LTYPE
5
5
100
AcDbSymbolTable
0
LTYPE
5
14
100
AcDbSymbolTableRecord
100
AcDbLinetypeTableRecord
2
BYBLOCK
70
0
0
LTYPE
5
15
100
AcDbSymbolTableRecord
100
AcDbLinetypeTableRecord
2
BYLAYER
70
0
0
ENDTAB
0
TABLE
2
LAYER
5
2
100
AcDbSymbolTable
70
2
0
LAYER
5
50
100
AcDbSymbolTableRecord
100
AcDbLayerTableRecord
2
0
70
0
6
CONTINUOUS
0
ENDTAB
0
TABLE
2
STYLE
5
3
100
AcDbSymbolTable
70
1
0
STYLE
5
11
100
AcDbSymbolTableRecord
100
AcDbTextStyleTableRecord
2
STANDARD
70
0
0
ENDTAB
0
TABLE
2
VIEW
5
6
100
AcDbSymbolTable
70
0
0
ENDTAB
0
TABLE
2
UCS
5
7
100
AcDbSymbolTable
70
0
0
ENDTAB
0
TABLE
2
APPID
5
9
100
AcDbSymbolTable
70
2
0
APPID
5
12
100
AcDbSymbolTableRecord
100
AcDbRegAppTableRecord
2
ACAD
70
0
0
ENDTAB
0
TABLE
2
DIMSTYLE
5
A
100
AcDbSymbolTable
70
1
0
ENDTAB
0
TABLE
2
BLOCK_RECORD
5
1
100
AcDbSymbolTable
70
1
0
BLOCK_RECORD
5
1F
100
AcDbSymbolTableRecord
100
AcDbBlockTableRecord
2
*MODEL_SPACE
0
BLOCK_RECORD
5
1B
100
AcDbSymbolTableRecord
100
AcDbBlockTableRecord
2
*PAPER_SPACE
0
ENDTAB
0
ENDSEC
0
SECTION
2
BLOCKS
0
BLOCK
5
20
100
AcDbEntity
100
AcDbBlockBegin
2
*MODEL_SPACE
0
ENDBLK
5
21
100
AcDbEntity
100
AcDbBlockEnd
0
BLOCK
5
1C
100
AcDbEntity
100
AcDbBlockBegin
2
*PAPER_SPACE
0
ENDBLK
5
1D
100
AcDbEntity
100
AcDbBlockEnd
0
ENDSEC
0
SECTION
2
ENTITIES
0
LWPOLYLINE
5
100
100
AcDbEntity
8
0
100
AcDbPolyline
90
10
70
1
43
0.0
10
149.99999999999986
20
86.602540378444047
10
-1.9229626863835648e-13
20
173.20508075688778
10
-150.00000000000006
20
86.602540378443763
10
-150.00000000000011
20
0
10
-200.00000000000006
20
1.0932156643267329e-15
10
-150.00000000000014
20
-50.000000000000085
10
-125.00000000029604
20
-35.566243270430242
10
-125.00000000029628
20
72.168783648874182
10
-5.3290705182007514e-14
20
144.33756729774848
10
125.00000000029613
20
72.168783648874296
0
LWPOLYLINE
5
101
100
AcDbEntity
8
0
100
AcDbPolyline
90
10
70
1
43
0.0
10
-149.99999999999994
20
-86.602540378443976
10
6.4351299626531833e-14
20
-173.2050807568877
10
150
20
-86.602540378443834
10
150
20
0
10
200
20
-1.7050165063879343e-12
10
150
20
50.000000000001393
10
125
20
35.566243270260721
10
125
20
-72.168783648874268
10
0
20
-144.33756729757749
10
-125.00000000029615
20
-72.168783648703382
0
LWPOLYLINE
5
102
100
AcDbEntity
8
0
100
AcDbPolyline
90
4
70
1
43
0.0
10
-5.3028761936245332e-15
20
-86.602540378443834
10
-36.363636363636367
20
-86.602540378443834
10
-90.90909090909129
20
-3.6520902865484544e-13
10
-54.545454545454916
20
-2.6645352591003757e-13
0
LWPOLYLINE
5
103
100
AcDbEntity
8
0
100
AcDbPolyline
90
4
70
1
43
0.0
10
36.363636363636353
20
-86.602540378443834
10
72.72727272727272
20
-86.602540378443834
10
-36.363636363636367
20
86.602540378443805
10
-72.727272727272734
20
86.602540378443805
0
LWPOLYLINE
5
104
100
AcDbEntity
8
0
100
AcDbPolyline
90
4
70
1
43
0.0
10
5.3028761936245332e-15
20
86.602540378443834
10
36.36363636363636
20
86.602540378443834
10
90.909090909091475
20
0
10
54.545454545455115
20
0
0
ENDSEC
0
SECTION
2
OBJECTS
0
DICTIONARY
5
C
100
AcDbDictionary
3
ACAD_GROUP
350
D
3
ACAD_MLINESTYLE
350
17
0
DICTIONARY
5
D
100
AcDbDictionary
0
DICTIONARY
5
1A
330
C
100
AcDbDictionary
0
DICTIONARY
5
17
100
AcDbDictionary
0
ENDSEC
0
EOF
