<?xml version="1.0" encoding="UTF-8" standalone="no"?>
<svg
   viewBox="0 0 799.99998 700.00006"
   width="800"
   height="700"
   version="1.1"
   id="svg9"
   sodipodi:docname="Stealthchanger_logo_Micron.svg"
   inkscape:version="1.3.2 (091e20e, 2023-11-25)"
   xmlns:inkscape="http://www.inkscape.org/namespaces/inkscape"
   xmlns:sodipodi="http://sodipodi.sourceforge.net/DTD/sodipodi-0.dtd"
   xmlns="http://www.w3.org/2000/svg"
   xmlns:svg="http://www.w3.org/2000/svg">
  <sodipodi:namedview
     id="namedview9"
     pagecolor="#ffffff"
     bordercolor="#000000"
     borderopacity="0.25"
     inkscape:showpageshadow="2"
     inkscape:pageopacity="0.0"
     inkscape:pagecheckerboard="0"
     inkscape:deskcolor="#d1d1d1"
     inkscape:zoom="0.84096524"
     inkscape:cx="397.75722"
     inkscape:cy="349.59828"
     inkscape:window-width="1552"
     inkscape:window-height="849"
     inkscape:window-x="2222"
     inkscape:window-y="155"
     inkscape:window-maximized="0"
     inkscape:current-layer="g9" />
  <desc
     id="desc1">Stealthchanger_logo.dxf - scale = 1.000000, origin = (0.000000, 0.000000), method = manual</desc>
  <defs
     id="defs4">
    <marker
       id="DistanceX"
       orient="auto"
       refX="0"
       refY="0"
       style="overflow:visible">
      <path
         d="M 3,-3 -3,3 M 0,-5 V 5"
         style="stroke:#000000;stroke-width:0.5"
         id="path1" />
    </marker>
    <pattern
       id="Hatch"
       patternUnits="userSpaceOnUse"
       width="8"
       height="8"
       x="0"
       y="0">
      <path
         d="M8 4 l-4,4"
         stroke="#000000"
         stroke-width="0.25"
         linecap="square"
         id="path2" />
      <path
         d="M6 2 l-4,4"
         stroke="#000000"
         stroke-width="0.25"
         linecap="square"
         id="path3" />
      <path
         d="M4 0 l-4,4"
         stroke="#000000"
         stroke-width="0.25"
         linecap="square"
         id="path4" />
    </pattern>
    <symbol
       id="*MODEL_SPACE" />
    <symbol
       id="*PAPER_SPACE" />
  </defs>
  <g
     inkscape:groupmode="layer"
     inkscape:label="0"
     id="g9">
    <path
       d="M 111.85887,184.19953 399.51978,18.118413 687.18072,184.19953 v 166.08111 h 95.88697 l -95.88697,95.88698 -47.94349,-27.68019 V 211.8797 L 399.51978,73.478782 159.80235,211.8797 Z"
       style="fill:#db3f38;fill-opacity:1;stroke:none;stroke-width:0.507403"
       id="path5" />
    <path
       d="M 687.18072,516.36177 399.51978,682.44284 111.85887,516.36177 V 350.28064 H 15.971884 l 95.886986,-95.88696 47.94348,27.68018 V 488.68154 L 399.51978,627.0825 639.23723,488.68154 Z"
       style="fill:#db3f38;fill-opacity:1;stroke:none;stroke-width:0.507403"
       id="path6" />
    <path
       d="m 394.93998,209.0574 -162.9033,247.45347 -18.89615,28.70361 h 62.49755 l 58.81428,-89.34012 H 458.0735 521.26971 L 490.15894,347.13593 581.05866,209.0574 H 516.88781 L 425.98808,347.13593 H 366.53781 L 457.43753,209.0574 Z"
       style="display:inline;fill:#db3f38;fill-opacity:1;stroke:none;stroke-width:0.558091"
       id="path150-4" />
  </g>
</svg>
