999
"DXF R12 Output" (www.mydxf.blogspot.com)
 0 
SECTION
 2 
HEADER
 9 
$ACADVER
 1 
AC1009
 9 
$EXTMIN
 10 
 0 
 20 
 0 
 9 
$EXTMAX
 10 
 8.5 
 20 
 11 
 0 
ENDSEC
 0 
SECTION
 2 
ENTITIES
0
LINE
8
Layer 1
10
0.793749
20
186.002000
11
-0.793749
21
184.414000
0
LINE
8
Layer 1
10
0.000000
20
186.531000
11
0.000000
21
183.885000
0
LINE
8
Layer 1
10
2.116660
20
184.150000
11
1.058330
21
183.091670
0
LINE
8
Layer 1
10
1.587500
20
184.679000
11
0.529170
21
183.620670
0
LINE
8
Layer 1
10
1.058330
20
185.208000
11
0.000000
21
184.149670
0
LINE
8
0
10
29.596000
20
136.472000
11
105.706000
21
180.414000
0
LINE
8
0
10
105.706000
20
180.414000
11
181.816000
21
136.472000
0
LINE
8
0
10
181.816000
20
136.472000
11
181.816000
21
92.529700
0
LINE
8
0
10
181.816000
20
92.529700
11
207.186000
21
92.529700
0
LINE
8
0
10
207.186000
20
92.529700
11
181.815900
21
67.159600
0
LINE
8
0
10
181.815900
20
67.159600
11
169.130900
21
74.483310
0
LINE
8
0
10
169.130900
20
74.483310
11
169.131000
21
129.148000
0
LINE
8
0
10
169.131000
20
129.148000
11
105.706000
21
165.767000
0
LINE
8
0
10
105.706000
20
165.767000
11
42.281000
21
129.148000
0
LINE
8
0
10
42.281000
20
129.148000
11
29.596000
21
136.472000
0
LINE
8
0
10
181.816000
20
48.587500
11
105.706000
21
4.645230
0
LINE
8
0
10
105.706000
20
4.645230
11
29.596000
21
48.587500
0
LINE
8
0
10
29.596000
20
48.587500
11
29.596000
21
92.529700
0
LINE
8
0
10
29.596000
20
92.529700
11
4.225890
21
92.529700
0
LINE
8
0
10
4.225890
20
92.529700
11
29.595990
21
117.899800
0
LINE
8
0
10
29.595990
20
117.899800
11
42.280990
21
110.576090
0
LINE
8
0
10
42.280990
20
110.576090
11
42.281000
21
55.911200
0
LINE
8
0
10
42.281000
20
55.911200
11
105.706000
21
19.292600
0
LINE
8
0
10
105.706000
20
19.292600
11
169.131000
21
55.911200
0
LINE
8
0
10
169.131000
20
55.911200
11
181.816000
21
48.587500
0
LINE
8
0
10
104.494000
20
129.895000
11
61.392600
21
64.423000
0
LINE
8
0
10
61.392600
20
64.423000
11
56.393000
21
56.828510
0
LINE
8
0
10
56.393000
20
56.828510
11
72.929200
21
56.828500
0
LINE
8
0
10
72.929200
20
56.828500
11
88.490500
21
80.466400
0
LINE
8
0
10
88.490500
20
80.466400
11
121.198000
21
80.466400
0
LINE
8
0
10
121.198000
20
80.466400
11
137.919000
21
80.466400
0
LINE
8
0
10
137.919000
20
80.466400
11
129.688000
21
93.361700
0
LINE
8
0
10
129.688000
20
93.361700
11
153.738000
21
129.895000
0
LINE
8
0
10
153.738000
20
129.895000
11
136.760000
21
129.895000
0
LINE
8
0
10
136.760000
20
129.895000
11
112.709000
21
93.361700
0
LINE
8
0
10
112.709000
20
93.361700
11
96.979700
21
93.361700
0
LINE
8
0
10
96.979700
20
93.361700
11
121.030000
21
129.895000
0
LINE
8
0
10
121.030000
20
129.895000
11
104.494000
21
129.895000
 0 
ENDSEC
 0 
EOF