%TF.GenerationSoftware,KiCad,Pcbnew,8.0.4*%
%TF.CreationDate,2024-10-17T13:25:31+11:00*%
%TF.ProjectId,panel,70616e65-6c2e-46b6-9963-61645f706362,rev?*%
%TF.SameCoordinates,Original*%
%TF.FileFunction,Legend,Bot*%
%TF.FilePolarity,Positive*%
%FSLAX46Y46*%
G04 Gerber Fmt 4.6, Leading zero omitted, Abs format (unit mm)*
G04 Created by KiCad (PCBNEW 8.0.4) date 2024-10-17 13:25:31*
%MOMM*%
%LPD*%
G01*
G04 APERTURE LIST*
G04 Aperture macros list*
%AMRoundRect*
0 Rectangle with rounded corners*
0 $1 Rounding radius*
0 $2 $3 $4 $5 $6 $7 $8 $9 X,Y pos of 4 corners*
0 Add a 4 corners polygon primitive as box body*
4,1,4,$2,$3,$4,$5,$6,$7,$8,$9,$2,$3,0*
0 Add four circle primitives for the rounded corners*
1,1,$1+$1,$2,$3*
1,1,$1+$1,$4,$5*
1,1,$1+$1,$6,$7*
1,1,$1+$1,$8,$9*
0 Add four rect primitives between the rounded corners*
20,1,$1+$1,$2,$3,$4,$5,0*
20,1,$1+$1,$4,$5,$6,$7,0*
20,1,$1+$1,$6,$7,$8,$9,0*
20,1,$1+$1,$8,$9,$2,$3,0*%
G04 Aperture macros list end*
%ADD10C,0.200000*%
%ADD11C,1.152000*%
%ADD12RoundRect,0.750000X-0.000010X1.250000X-0.000010X-1.250000X0.000010X-1.250000X0.000010X1.250000X0*%
%ADD13C,2.000000*%
G04 APERTURE END LIST*
D10*
X104771219Y-60876673D02*
X103771219Y-60876673D01*
X103771219Y-60876673D02*
X103771219Y-61114768D01*
X103771219Y-61114768D02*
X103818838Y-61257625D01*
X103818838Y-61257625D02*
X103914076Y-61352863D01*
X103914076Y-61352863D02*
X104009314Y-61400482D01*
X104009314Y-61400482D02*
X104199790Y-61448101D01*
X104199790Y-61448101D02*
X104342647Y-61448101D01*
X104342647Y-61448101D02*
X104533123Y-61400482D01*
X104533123Y-61400482D02*
X104628361Y-61352863D01*
X104628361Y-61352863D02*
X104723600Y-61257625D01*
X104723600Y-61257625D02*
X104771219Y-61114768D01*
X104771219Y-61114768D02*
X104771219Y-60876673D01*
X104771219Y-61876673D02*
X103771219Y-61876673D01*
X104771219Y-62352863D02*
X103771219Y-62352863D01*
X103771219Y-62352863D02*
X104771219Y-62924291D01*
X104771219Y-62924291D02*
X103771219Y-62924291D01*
X19958838Y-41900482D02*
X19911219Y-41805244D01*
X19911219Y-41805244D02*
X19911219Y-41662387D01*
X19911219Y-41662387D02*
X19958838Y-41519530D01*
X19958838Y-41519530D02*
X20054076Y-41424292D01*
X20054076Y-41424292D02*
X20149314Y-41376673D01*
X20149314Y-41376673D02*
X20339790Y-41329054D01*
X20339790Y-41329054D02*
X20482647Y-41329054D01*
X20482647Y-41329054D02*
X20673123Y-41376673D01*
X20673123Y-41376673D02*
X20768361Y-41424292D01*
X20768361Y-41424292D02*
X20863600Y-41519530D01*
X20863600Y-41519530D02*
X20911219Y-41662387D01*
X20911219Y-41662387D02*
X20911219Y-41757625D01*
X20911219Y-41757625D02*
X20863600Y-41900482D01*
X20863600Y-41900482D02*
X20815980Y-41948101D01*
X20815980Y-41948101D02*
X20482647Y-41948101D01*
X20482647Y-41948101D02*
X20482647Y-41757625D01*
X20911219Y-42376673D02*
X19911219Y-42376673D01*
X19911219Y-42376673D02*
X20911219Y-42948101D01*
X20911219Y-42948101D02*
X19911219Y-42948101D01*
X20911219Y-43424292D02*
X19911219Y-43424292D01*
X19911219Y-43424292D02*
X19911219Y-43662387D01*
X19911219Y-43662387D02*
X19958838Y-43805244D01*
X19958838Y-43805244D02*
X20054076Y-43900482D01*
X20054076Y-43900482D02*
X20149314Y-43948101D01*
X20149314Y-43948101D02*
X20339790Y-43995720D01*
X20339790Y-43995720D02*
X20482647Y-43995720D01*
X20482647Y-43995720D02*
X20673123Y-43948101D01*
X20673123Y-43948101D02*
X20768361Y-43900482D01*
X20768361Y-43900482D02*
X20863600Y-43805244D01*
X20863600Y-43805244D02*
X20911219Y-43662387D01*
X20911219Y-43662387D02*
X20911219Y-43424292D01*
X61444219Y-47287673D02*
X60444219Y-47287673D01*
X60444219Y-47287673D02*
X60444219Y-47525768D01*
X60444219Y-47525768D02*
X60491838Y-47668625D01*
X60491838Y-47668625D02*
X60587076Y-47763863D01*
X60587076Y-47763863D02*
X60682314Y-47811482D01*
X60682314Y-47811482D02*
X60872790Y-47859101D01*
X60872790Y-47859101D02*
X61015647Y-47859101D01*
X61015647Y-47859101D02*
X61206123Y-47811482D01*
X61206123Y-47811482D02*
X61301361Y-47763863D01*
X61301361Y-47763863D02*
X61396600Y-47668625D01*
X61396600Y-47668625D02*
X61444219Y-47525768D01*
X61444219Y-47525768D02*
X61444219Y-47287673D01*
X60444219Y-48478149D02*
X60444219Y-48668625D01*
X60444219Y-48668625D02*
X60491838Y-48763863D01*
X60491838Y-48763863D02*
X60587076Y-48859101D01*
X60587076Y-48859101D02*
X60777552Y-48906720D01*
X60777552Y-48906720D02*
X61110885Y-48906720D01*
X61110885Y-48906720D02*
X61301361Y-48859101D01*
X61301361Y-48859101D02*
X61396600Y-48763863D01*
X61396600Y-48763863D02*
X61444219Y-48668625D01*
X61444219Y-48668625D02*
X61444219Y-48478149D01*
X61444219Y-48478149D02*
X61396600Y-48382911D01*
X61396600Y-48382911D02*
X61301361Y-48287673D01*
X61301361Y-48287673D02*
X61110885Y-48240054D01*
X61110885Y-48240054D02*
X60777552Y-48240054D01*
X60777552Y-48240054D02*
X60587076Y-48287673D01*
X60587076Y-48287673D02*
X60491838Y-48382911D01*
X60491838Y-48382911D02*
X60444219Y-48478149D01*
X60444219Y-49335292D02*
X61253742Y-49335292D01*
X61253742Y-49335292D02*
X61348980Y-49382911D01*
X61348980Y-49382911D02*
X61396600Y-49430530D01*
X61396600Y-49430530D02*
X61444219Y-49525768D01*
X61444219Y-49525768D02*
X61444219Y-49716244D01*
X61444219Y-49716244D02*
X61396600Y-49811482D01*
X61396600Y-49811482D02*
X61348980Y-49859101D01*
X61348980Y-49859101D02*
X61253742Y-49906720D01*
X61253742Y-49906720D02*
X60444219Y-49906720D01*
X60444219Y-50240054D02*
X60444219Y-50811482D01*
X61444219Y-50525768D02*
X60444219Y-50525768D01*
X41431838Y-29200482D02*
X41384219Y-29105244D01*
X41384219Y-29105244D02*
X41384219Y-28962387D01*
X41384219Y-28962387D02*
X41431838Y-28819530D01*
X41431838Y-28819530D02*
X41527076Y-28724292D01*
X41527076Y-28724292D02*
X41622314Y-28676673D01*
X41622314Y-28676673D02*
X41812790Y-28629054D01*
X41812790Y-28629054D02*
X41955647Y-28629054D01*
X41955647Y-28629054D02*
X42146123Y-28676673D01*
X42146123Y-28676673D02*
X42241361Y-28724292D01*
X42241361Y-28724292D02*
X42336600Y-28819530D01*
X42336600Y-28819530D02*
X42384219Y-28962387D01*
X42384219Y-28962387D02*
X42384219Y-29057625D01*
X42384219Y-29057625D02*
X42336600Y-29200482D01*
X42336600Y-29200482D02*
X42288980Y-29248101D01*
X42288980Y-29248101D02*
X41955647Y-29248101D01*
X41955647Y-29248101D02*
X41955647Y-29057625D01*
X42384219Y-29676673D02*
X41384219Y-29676673D01*
X41384219Y-29676673D02*
X42384219Y-30248101D01*
X42384219Y-30248101D02*
X41384219Y-30248101D01*
X42384219Y-30724292D02*
X41384219Y-30724292D01*
X41384219Y-30724292D02*
X41384219Y-30962387D01*
X41384219Y-30962387D02*
X41431838Y-31105244D01*
X41431838Y-31105244D02*
X41527076Y-31200482D01*
X41527076Y-31200482D02*
X41622314Y-31248101D01*
X41622314Y-31248101D02*
X41812790Y-31295720D01*
X41812790Y-31295720D02*
X41955647Y-31295720D01*
X41955647Y-31295720D02*
X42146123Y-31248101D01*
X42146123Y-31248101D02*
X42241361Y-31200482D01*
X42241361Y-31200482D02*
X42336600Y-31105244D01*
X42336600Y-31105244D02*
X42384219Y-30962387D01*
X42384219Y-30962387D02*
X42384219Y-30724292D01*
X63158838Y-80900482D02*
X63111219Y-80805244D01*
X63111219Y-80805244D02*
X63111219Y-80662387D01*
X63111219Y-80662387D02*
X63158838Y-80519530D01*
X63158838Y-80519530D02*
X63254076Y-80424292D01*
X63254076Y-80424292D02*
X63349314Y-80376673D01*
X63349314Y-80376673D02*
X63539790Y-80329054D01*
X63539790Y-80329054D02*
X63682647Y-80329054D01*
X63682647Y-80329054D02*
X63873123Y-80376673D01*
X63873123Y-80376673D02*
X63968361Y-80424292D01*
X63968361Y-80424292D02*
X64063600Y-80519530D01*
X64063600Y-80519530D02*
X64111219Y-80662387D01*
X64111219Y-80662387D02*
X64111219Y-80757625D01*
X64111219Y-80757625D02*
X64063600Y-80900482D01*
X64063600Y-80900482D02*
X64015980Y-80948101D01*
X64015980Y-80948101D02*
X63682647Y-80948101D01*
X63682647Y-80948101D02*
X63682647Y-80757625D01*
X64111219Y-81376673D02*
X63111219Y-81376673D01*
X63111219Y-81376673D02*
X64111219Y-81948101D01*
X64111219Y-81948101D02*
X63111219Y-81948101D01*
X64111219Y-82424292D02*
X63111219Y-82424292D01*
X63111219Y-82424292D02*
X63111219Y-82662387D01*
X63111219Y-82662387D02*
X63158838Y-82805244D01*
X63158838Y-82805244D02*
X63254076Y-82900482D01*
X63254076Y-82900482D02*
X63349314Y-82948101D01*
X63349314Y-82948101D02*
X63539790Y-82995720D01*
X63539790Y-82995720D02*
X63682647Y-82995720D01*
X63682647Y-82995720D02*
X63873123Y-82948101D01*
X63873123Y-82948101D02*
X63968361Y-82900482D01*
X63968361Y-82900482D02*
X64063600Y-82805244D01*
X64063600Y-82805244D02*
X64111219Y-82662387D01*
X64111219Y-82662387D02*
X64111219Y-82424292D01*
X106358838Y-80900482D02*
X106311219Y-80805244D01*
X106311219Y-80805244D02*
X106311219Y-80662387D01*
X106311219Y-80662387D02*
X106358838Y-80519530D01*
X106358838Y-80519530D02*
X106454076Y-80424292D01*
X106454076Y-80424292D02*
X106549314Y-80376673D01*
X106549314Y-80376673D02*
X106739790Y-80329054D01*
X106739790Y-80329054D02*
X106882647Y-80329054D01*
X106882647Y-80329054D02*
X107073123Y-80376673D01*
X107073123Y-80376673D02*
X107168361Y-80424292D01*
X107168361Y-80424292D02*
X107263600Y-80519530D01*
X107263600Y-80519530D02*
X107311219Y-80662387D01*
X107311219Y-80662387D02*
X107311219Y-80757625D01*
X107311219Y-80757625D02*
X107263600Y-80900482D01*
X107263600Y-80900482D02*
X107215980Y-80948101D01*
X107215980Y-80948101D02*
X106882647Y-80948101D01*
X106882647Y-80948101D02*
X106882647Y-80757625D01*
X107311219Y-81376673D02*
X106311219Y-81376673D01*
X106311219Y-81376673D02*
X107311219Y-81948101D01*
X107311219Y-81948101D02*
X106311219Y-81948101D01*
X107311219Y-82424292D02*
X106311219Y-82424292D01*
X106311219Y-82424292D02*
X106311219Y-82662387D01*
X106311219Y-82662387D02*
X106358838Y-82805244D01*
X106358838Y-82805244D02*
X106454076Y-82900482D01*
X106454076Y-82900482D02*
X106549314Y-82948101D01*
X106549314Y-82948101D02*
X106739790Y-82995720D01*
X106739790Y-82995720D02*
X106882647Y-82995720D01*
X106882647Y-82995720D02*
X107073123Y-82948101D01*
X107073123Y-82948101D02*
X107168361Y-82900482D01*
X107168361Y-82900482D02*
X107263600Y-82805244D01*
X107263600Y-82805244D02*
X107311219Y-82662387D01*
X107311219Y-82662387D02*
X107311219Y-82424292D01*
X79631219Y-41979863D02*
X79631219Y-41503673D01*
X79631219Y-41503673D02*
X80107409Y-41456054D01*
X80107409Y-41456054D02*
X80059790Y-41503673D01*
X80059790Y-41503673D02*
X80012171Y-41598911D01*
X80012171Y-41598911D02*
X80012171Y-41837006D01*
X80012171Y-41837006D02*
X80059790Y-41932244D01*
X80059790Y-41932244D02*
X80107409Y-41979863D01*
X80107409Y-41979863D02*
X80202647Y-42027482D01*
X80202647Y-42027482D02*
X80440742Y-42027482D01*
X80440742Y-42027482D02*
X80535980Y-41979863D01*
X80535980Y-41979863D02*
X80583600Y-41932244D01*
X80583600Y-41932244D02*
X80631219Y-41837006D01*
X80631219Y-41837006D02*
X80631219Y-41598911D01*
X80631219Y-41598911D02*
X80583600Y-41503673D01*
X80583600Y-41503673D02*
X80535980Y-41456054D01*
X79631219Y-42313197D02*
X80631219Y-42646530D01*
X80631219Y-42646530D02*
X79631219Y-42979863D01*
X58031219Y-41979863D02*
X58031219Y-41503673D01*
X58031219Y-41503673D02*
X58507409Y-41456054D01*
X58507409Y-41456054D02*
X58459790Y-41503673D01*
X58459790Y-41503673D02*
X58412171Y-41598911D01*
X58412171Y-41598911D02*
X58412171Y-41837006D01*
X58412171Y-41837006D02*
X58459790Y-41932244D01*
X58459790Y-41932244D02*
X58507409Y-41979863D01*
X58507409Y-41979863D02*
X58602647Y-42027482D01*
X58602647Y-42027482D02*
X58840742Y-42027482D01*
X58840742Y-42027482D02*
X58935980Y-41979863D01*
X58935980Y-41979863D02*
X58983600Y-41932244D01*
X58983600Y-41932244D02*
X59031219Y-41837006D01*
X59031219Y-41837006D02*
X59031219Y-41598911D01*
X59031219Y-41598911D02*
X58983600Y-41503673D01*
X58983600Y-41503673D02*
X58935980Y-41456054D01*
X58031219Y-42313197D02*
X59031219Y-42646530D01*
X59031219Y-42646530D02*
X58031219Y-42979863D01*
X84758838Y-80900482D02*
X84711219Y-80805244D01*
X84711219Y-80805244D02*
X84711219Y-80662387D01*
X84711219Y-80662387D02*
X84758838Y-80519530D01*
X84758838Y-80519530D02*
X84854076Y-80424292D01*
X84854076Y-80424292D02*
X84949314Y-80376673D01*
X84949314Y-80376673D02*
X85139790Y-80329054D01*
X85139790Y-80329054D02*
X85282647Y-80329054D01*
X85282647Y-80329054D02*
X85473123Y-80376673D01*
X85473123Y-80376673D02*
X85568361Y-80424292D01*
X85568361Y-80424292D02*
X85663600Y-80519530D01*
X85663600Y-80519530D02*
X85711219Y-80662387D01*
X85711219Y-80662387D02*
X85711219Y-80757625D01*
X85711219Y-80757625D02*
X85663600Y-80900482D01*
X85663600Y-80900482D02*
X85615980Y-80948101D01*
X85615980Y-80948101D02*
X85282647Y-80948101D01*
X85282647Y-80948101D02*
X85282647Y-80757625D01*
X85711219Y-81376673D02*
X84711219Y-81376673D01*
X84711219Y-81376673D02*
X85711219Y-81948101D01*
X85711219Y-81948101D02*
X84711219Y-81948101D01*
X85711219Y-82424292D02*
X84711219Y-82424292D01*
X84711219Y-82424292D02*
X84711219Y-82662387D01*
X84711219Y-82662387D02*
X84758838Y-82805244D01*
X84758838Y-82805244D02*
X84854076Y-82900482D01*
X84854076Y-82900482D02*
X84949314Y-82948101D01*
X84949314Y-82948101D02*
X85139790Y-82995720D01*
X85139790Y-82995720D02*
X85282647Y-82995720D01*
X85282647Y-82995720D02*
X85473123Y-82948101D01*
X85473123Y-82948101D02*
X85568361Y-82900482D01*
X85568361Y-82900482D02*
X85663600Y-82805244D01*
X85663600Y-82805244D02*
X85711219Y-82662387D01*
X85711219Y-82662387D02*
X85711219Y-82424292D01*
X14831219Y-80979863D02*
X14831219Y-80503673D01*
X14831219Y-80503673D02*
X15307409Y-80456054D01*
X15307409Y-80456054D02*
X15259790Y-80503673D01*
X15259790Y-80503673D02*
X15212171Y-80598911D01*
X15212171Y-80598911D02*
X15212171Y-80837006D01*
X15212171Y-80837006D02*
X15259790Y-80932244D01*
X15259790Y-80932244D02*
X15307409Y-80979863D01*
X15307409Y-80979863D02*
X15402647Y-81027482D01*
X15402647Y-81027482D02*
X15640742Y-81027482D01*
X15640742Y-81027482D02*
X15735980Y-80979863D01*
X15735980Y-80979863D02*
X15783600Y-80932244D01*
X15783600Y-80932244D02*
X15831219Y-80837006D01*
X15831219Y-80837006D02*
X15831219Y-80598911D01*
X15831219Y-80598911D02*
X15783600Y-80503673D01*
X15783600Y-80503673D02*
X15735980Y-80456054D01*
X14831219Y-81313197D02*
X15831219Y-81646530D01*
X15831219Y-81646530D02*
X14831219Y-81979863D01*
X84631838Y-29200482D02*
X84584219Y-29105244D01*
X84584219Y-29105244D02*
X84584219Y-28962387D01*
X84584219Y-28962387D02*
X84631838Y-28819530D01*
X84631838Y-28819530D02*
X84727076Y-28724292D01*
X84727076Y-28724292D02*
X84822314Y-28676673D01*
X84822314Y-28676673D02*
X85012790Y-28629054D01*
X85012790Y-28629054D02*
X85155647Y-28629054D01*
X85155647Y-28629054D02*
X85346123Y-28676673D01*
X85346123Y-28676673D02*
X85441361Y-28724292D01*
X85441361Y-28724292D02*
X85536600Y-28819530D01*
X85536600Y-28819530D02*
X85584219Y-28962387D01*
X85584219Y-28962387D02*
X85584219Y-29057625D01*
X85584219Y-29057625D02*
X85536600Y-29200482D01*
X85536600Y-29200482D02*
X85488980Y-29248101D01*
X85488980Y-29248101D02*
X85155647Y-29248101D01*
X85155647Y-29248101D02*
X85155647Y-29057625D01*
X85584219Y-29676673D02*
X84584219Y-29676673D01*
X84584219Y-29676673D02*
X85584219Y-30248101D01*
X85584219Y-30248101D02*
X84584219Y-30248101D01*
X85584219Y-30724292D02*
X84584219Y-30724292D01*
X84584219Y-30724292D02*
X84584219Y-30962387D01*
X84584219Y-30962387D02*
X84631838Y-31105244D01*
X84631838Y-31105244D02*
X84727076Y-31200482D01*
X84727076Y-31200482D02*
X84822314Y-31248101D01*
X84822314Y-31248101D02*
X85012790Y-31295720D01*
X85012790Y-31295720D02*
X85155647Y-31295720D01*
X85155647Y-31295720D02*
X85346123Y-31248101D01*
X85346123Y-31248101D02*
X85441361Y-31200482D01*
X85441361Y-31200482D02*
X85536600Y-31105244D01*
X85536600Y-31105244D02*
X85584219Y-30962387D01*
X85584219Y-30962387D02*
X85584219Y-30724292D01*
X83044219Y-66787673D02*
X82044219Y-66787673D01*
X82044219Y-66787673D02*
X82044219Y-67025768D01*
X82044219Y-67025768D02*
X82091838Y-67168625D01*
X82091838Y-67168625D02*
X82187076Y-67263863D01*
X82187076Y-67263863D02*
X82282314Y-67311482D01*
X82282314Y-67311482D02*
X82472790Y-67359101D01*
X82472790Y-67359101D02*
X82615647Y-67359101D01*
X82615647Y-67359101D02*
X82806123Y-67311482D01*
X82806123Y-67311482D02*
X82901361Y-67263863D01*
X82901361Y-67263863D02*
X82996600Y-67168625D01*
X82996600Y-67168625D02*
X83044219Y-67025768D01*
X83044219Y-67025768D02*
X83044219Y-66787673D01*
X82044219Y-67978149D02*
X82044219Y-68168625D01*
X82044219Y-68168625D02*
X82091838Y-68263863D01*
X82091838Y-68263863D02*
X82187076Y-68359101D01*
X82187076Y-68359101D02*
X82377552Y-68406720D01*
X82377552Y-68406720D02*
X82710885Y-68406720D01*
X82710885Y-68406720D02*
X82901361Y-68359101D01*
X82901361Y-68359101D02*
X82996600Y-68263863D01*
X82996600Y-68263863D02*
X83044219Y-68168625D01*
X83044219Y-68168625D02*
X83044219Y-67978149D01*
X83044219Y-67978149D02*
X82996600Y-67882911D01*
X82996600Y-67882911D02*
X82901361Y-67787673D01*
X82901361Y-67787673D02*
X82710885Y-67740054D01*
X82710885Y-67740054D02*
X82377552Y-67740054D01*
X82377552Y-67740054D02*
X82187076Y-67787673D01*
X82187076Y-67787673D02*
X82091838Y-67882911D01*
X82091838Y-67882911D02*
X82044219Y-67978149D01*
X82044219Y-68835292D02*
X82853742Y-68835292D01*
X82853742Y-68835292D02*
X82948980Y-68882911D01*
X82948980Y-68882911D02*
X82996600Y-68930530D01*
X82996600Y-68930530D02*
X83044219Y-69025768D01*
X83044219Y-69025768D02*
X83044219Y-69216244D01*
X83044219Y-69216244D02*
X82996600Y-69311482D01*
X82996600Y-69311482D02*
X82948980Y-69359101D01*
X82948980Y-69359101D02*
X82853742Y-69406720D01*
X82853742Y-69406720D02*
X82044219Y-69406720D01*
X82044219Y-69740054D02*
X82044219Y-70311482D01*
X83044219Y-70025768D02*
X82044219Y-70025768D01*
X39844219Y-27787673D02*
X38844219Y-27787673D01*
X38844219Y-27787673D02*
X38844219Y-28025768D01*
X38844219Y-28025768D02*
X38891838Y-28168625D01*
X38891838Y-28168625D02*
X38987076Y-28263863D01*
X38987076Y-28263863D02*
X39082314Y-28311482D01*
X39082314Y-28311482D02*
X39272790Y-28359101D01*
X39272790Y-28359101D02*
X39415647Y-28359101D01*
X39415647Y-28359101D02*
X39606123Y-28311482D01*
X39606123Y-28311482D02*
X39701361Y-28263863D01*
X39701361Y-28263863D02*
X39796600Y-28168625D01*
X39796600Y-28168625D02*
X39844219Y-28025768D01*
X39844219Y-28025768D02*
X39844219Y-27787673D01*
X38844219Y-28978149D02*
X38844219Y-29168625D01*
X38844219Y-29168625D02*
X38891838Y-29263863D01*
X38891838Y-29263863D02*
X38987076Y-29359101D01*
X38987076Y-29359101D02*
X39177552Y-29406720D01*
X39177552Y-29406720D02*
X39510885Y-29406720D01*
X39510885Y-29406720D02*
X39701361Y-29359101D01*
X39701361Y-29359101D02*
X39796600Y-29263863D01*
X39796600Y-29263863D02*
X39844219Y-29168625D01*
X39844219Y-29168625D02*
X39844219Y-28978149D01*
X39844219Y-28978149D02*
X39796600Y-28882911D01*
X39796600Y-28882911D02*
X39701361Y-28787673D01*
X39701361Y-28787673D02*
X39510885Y-28740054D01*
X39510885Y-28740054D02*
X39177552Y-28740054D01*
X39177552Y-28740054D02*
X38987076Y-28787673D01*
X38987076Y-28787673D02*
X38891838Y-28882911D01*
X38891838Y-28882911D02*
X38844219Y-28978149D01*
X38844219Y-29835292D02*
X39653742Y-29835292D01*
X39653742Y-29835292D02*
X39748980Y-29882911D01*
X39748980Y-29882911D02*
X39796600Y-29930530D01*
X39796600Y-29930530D02*
X39844219Y-30025768D01*
X39844219Y-30025768D02*
X39844219Y-30216244D01*
X39844219Y-30216244D02*
X39796600Y-30311482D01*
X39796600Y-30311482D02*
X39748980Y-30359101D01*
X39748980Y-30359101D02*
X39653742Y-30406720D01*
X39653742Y-30406720D02*
X38844219Y-30406720D01*
X38844219Y-30740054D02*
X38844219Y-31311482D01*
X39844219Y-31025768D02*
X38844219Y-31025768D01*
X14831219Y-30295863D02*
X14831219Y-29819673D01*
X14831219Y-29819673D02*
X15307409Y-29772054D01*
X15307409Y-29772054D02*
X15259790Y-29819673D01*
X15259790Y-29819673D02*
X15212171Y-29914911D01*
X15212171Y-29914911D02*
X15212171Y-30153006D01*
X15212171Y-30153006D02*
X15259790Y-30248244D01*
X15259790Y-30248244D02*
X15307409Y-30295863D01*
X15307409Y-30295863D02*
X15402647Y-30343482D01*
X15402647Y-30343482D02*
X15640742Y-30343482D01*
X15640742Y-30343482D02*
X15735980Y-30295863D01*
X15735980Y-30295863D02*
X15783600Y-30248244D01*
X15783600Y-30248244D02*
X15831219Y-30153006D01*
X15831219Y-30153006D02*
X15831219Y-29914911D01*
X15831219Y-29914911D02*
X15783600Y-29819673D01*
X15783600Y-29819673D02*
X15735980Y-29772054D01*
X14831219Y-30629197D02*
X15831219Y-30962530D01*
X15831219Y-30962530D02*
X14831219Y-31295863D01*
X61571219Y-21876673D02*
X60571219Y-21876673D01*
X60571219Y-21876673D02*
X60571219Y-22114768D01*
X60571219Y-22114768D02*
X60618838Y-22257625D01*
X60618838Y-22257625D02*
X60714076Y-22352863D01*
X60714076Y-22352863D02*
X60809314Y-22400482D01*
X60809314Y-22400482D02*
X60999790Y-22448101D01*
X60999790Y-22448101D02*
X61142647Y-22448101D01*
X61142647Y-22448101D02*
X61333123Y-22400482D01*
X61333123Y-22400482D02*
X61428361Y-22352863D01*
X61428361Y-22352863D02*
X61523600Y-22257625D01*
X61523600Y-22257625D02*
X61571219Y-22114768D01*
X61571219Y-22114768D02*
X61571219Y-21876673D01*
X61571219Y-22876673D02*
X60571219Y-22876673D01*
X61571219Y-23352863D02*
X60571219Y-23352863D01*
X60571219Y-23352863D02*
X61571219Y-23924291D01*
X61571219Y-23924291D02*
X60571219Y-23924291D01*
X19958838Y-80900482D02*
X19911219Y-80805244D01*
X19911219Y-80805244D02*
X19911219Y-80662387D01*
X19911219Y-80662387D02*
X19958838Y-80519530D01*
X19958838Y-80519530D02*
X20054076Y-80424292D01*
X20054076Y-80424292D02*
X20149314Y-80376673D01*
X20149314Y-80376673D02*
X20339790Y-80329054D01*
X20339790Y-80329054D02*
X20482647Y-80329054D01*
X20482647Y-80329054D02*
X20673123Y-80376673D01*
X20673123Y-80376673D02*
X20768361Y-80424292D01*
X20768361Y-80424292D02*
X20863600Y-80519530D01*
X20863600Y-80519530D02*
X20911219Y-80662387D01*
X20911219Y-80662387D02*
X20911219Y-80757625D01*
X20911219Y-80757625D02*
X20863600Y-80900482D01*
X20863600Y-80900482D02*
X20815980Y-80948101D01*
X20815980Y-80948101D02*
X20482647Y-80948101D01*
X20482647Y-80948101D02*
X20482647Y-80757625D01*
X20911219Y-81376673D02*
X19911219Y-81376673D01*
X19911219Y-81376673D02*
X20911219Y-81948101D01*
X20911219Y-81948101D02*
X19911219Y-81948101D01*
X20911219Y-82424292D02*
X19911219Y-82424292D01*
X19911219Y-82424292D02*
X19911219Y-82662387D01*
X19911219Y-82662387D02*
X19958838Y-82805244D01*
X19958838Y-82805244D02*
X20054076Y-82900482D01*
X20054076Y-82900482D02*
X20149314Y-82948101D01*
X20149314Y-82948101D02*
X20339790Y-82995720D01*
X20339790Y-82995720D02*
X20482647Y-82995720D01*
X20482647Y-82995720D02*
X20673123Y-82948101D01*
X20673123Y-82948101D02*
X20768361Y-82900482D01*
X20768361Y-82900482D02*
X20863600Y-82805244D01*
X20863600Y-82805244D02*
X20911219Y-82662387D01*
X20911219Y-82662387D02*
X20911219Y-82424292D01*
X106231838Y-68200482D02*
X106184219Y-68105244D01*
X106184219Y-68105244D02*
X106184219Y-67962387D01*
X106184219Y-67962387D02*
X106231838Y-67819530D01*
X106231838Y-67819530D02*
X106327076Y-67724292D01*
X106327076Y-67724292D02*
X106422314Y-67676673D01*
X106422314Y-67676673D02*
X106612790Y-67629054D01*
X106612790Y-67629054D02*
X106755647Y-67629054D01*
X106755647Y-67629054D02*
X106946123Y-67676673D01*
X106946123Y-67676673D02*
X107041361Y-67724292D01*
X107041361Y-67724292D02*
X107136600Y-67819530D01*
X107136600Y-67819530D02*
X107184219Y-67962387D01*
X107184219Y-67962387D02*
X107184219Y-68057625D01*
X107184219Y-68057625D02*
X107136600Y-68200482D01*
X107136600Y-68200482D02*
X107088980Y-68248101D01*
X107088980Y-68248101D02*
X106755647Y-68248101D01*
X106755647Y-68248101D02*
X106755647Y-68057625D01*
X107184219Y-68676673D02*
X106184219Y-68676673D01*
X106184219Y-68676673D02*
X107184219Y-69248101D01*
X107184219Y-69248101D02*
X106184219Y-69248101D01*
X107184219Y-69724292D02*
X106184219Y-69724292D01*
X106184219Y-69724292D02*
X106184219Y-69962387D01*
X106184219Y-69962387D02*
X106231838Y-70105244D01*
X106231838Y-70105244D02*
X106327076Y-70200482D01*
X106327076Y-70200482D02*
X106422314Y-70248101D01*
X106422314Y-70248101D02*
X106612790Y-70295720D01*
X106612790Y-70295720D02*
X106755647Y-70295720D01*
X106755647Y-70295720D02*
X106946123Y-70248101D01*
X106946123Y-70248101D02*
X107041361Y-70200482D01*
X107041361Y-70200482D02*
X107136600Y-70105244D01*
X107136600Y-70105244D02*
X107184219Y-69962387D01*
X107184219Y-69962387D02*
X107184219Y-69724292D01*
X36431219Y-41979863D02*
X36431219Y-41503673D01*
X36431219Y-41503673D02*
X36907409Y-41456054D01*
X36907409Y-41456054D02*
X36859790Y-41503673D01*
X36859790Y-41503673D02*
X36812171Y-41598911D01*
X36812171Y-41598911D02*
X36812171Y-41837006D01*
X36812171Y-41837006D02*
X36859790Y-41932244D01*
X36859790Y-41932244D02*
X36907409Y-41979863D01*
X36907409Y-41979863D02*
X37002647Y-42027482D01*
X37002647Y-42027482D02*
X37240742Y-42027482D01*
X37240742Y-42027482D02*
X37335980Y-41979863D01*
X37335980Y-41979863D02*
X37383600Y-41932244D01*
X37383600Y-41932244D02*
X37431219Y-41837006D01*
X37431219Y-41837006D02*
X37431219Y-41598911D01*
X37431219Y-41598911D02*
X37383600Y-41503673D01*
X37383600Y-41503673D02*
X37335980Y-41456054D01*
X36431219Y-42313197D02*
X37431219Y-42646530D01*
X37431219Y-42646530D02*
X36431219Y-42979863D01*
X83171219Y-41376673D02*
X82171219Y-41376673D01*
X82171219Y-41376673D02*
X82171219Y-41614768D01*
X82171219Y-41614768D02*
X82218838Y-41757625D01*
X82218838Y-41757625D02*
X82314076Y-41852863D01*
X82314076Y-41852863D02*
X82409314Y-41900482D01*
X82409314Y-41900482D02*
X82599790Y-41948101D01*
X82599790Y-41948101D02*
X82742647Y-41948101D01*
X82742647Y-41948101D02*
X82933123Y-41900482D01*
X82933123Y-41900482D02*
X83028361Y-41852863D01*
X83028361Y-41852863D02*
X83123600Y-41757625D01*
X83123600Y-41757625D02*
X83171219Y-41614768D01*
X83171219Y-41614768D02*
X83171219Y-41376673D01*
X83171219Y-42376673D02*
X82171219Y-42376673D01*
X83171219Y-42852863D02*
X82171219Y-42852863D01*
X82171219Y-42852863D02*
X83171219Y-43424291D01*
X83171219Y-43424291D02*
X82171219Y-43424291D01*
X101231219Y-80979863D02*
X101231219Y-80503673D01*
X101231219Y-80503673D02*
X101707409Y-80456054D01*
X101707409Y-80456054D02*
X101659790Y-80503673D01*
X101659790Y-80503673D02*
X101612171Y-80598911D01*
X101612171Y-80598911D02*
X101612171Y-80837006D01*
X101612171Y-80837006D02*
X101659790Y-80932244D01*
X101659790Y-80932244D02*
X101707409Y-80979863D01*
X101707409Y-80979863D02*
X101802647Y-81027482D01*
X101802647Y-81027482D02*
X102040742Y-81027482D01*
X102040742Y-81027482D02*
X102135980Y-80979863D01*
X102135980Y-80979863D02*
X102183600Y-80932244D01*
X102183600Y-80932244D02*
X102231219Y-80837006D01*
X102231219Y-80837006D02*
X102231219Y-80598911D01*
X102231219Y-80598911D02*
X102183600Y-80503673D01*
X102183600Y-80503673D02*
X102135980Y-80456054D01*
X101231219Y-81313197D02*
X102231219Y-81646530D01*
X102231219Y-81646530D02*
X101231219Y-81979863D01*
X14831219Y-61479863D02*
X14831219Y-61003673D01*
X14831219Y-61003673D02*
X15307409Y-60956054D01*
X15307409Y-60956054D02*
X15259790Y-61003673D01*
X15259790Y-61003673D02*
X15212171Y-61098911D01*
X15212171Y-61098911D02*
X15212171Y-61337006D01*
X15212171Y-61337006D02*
X15259790Y-61432244D01*
X15259790Y-61432244D02*
X15307409Y-61479863D01*
X15307409Y-61479863D02*
X15402647Y-61527482D01*
X15402647Y-61527482D02*
X15640742Y-61527482D01*
X15640742Y-61527482D02*
X15735980Y-61479863D01*
X15735980Y-61479863D02*
X15783600Y-61432244D01*
X15783600Y-61432244D02*
X15831219Y-61337006D01*
X15831219Y-61337006D02*
X15831219Y-61098911D01*
X15831219Y-61098911D02*
X15783600Y-61003673D01*
X15783600Y-61003673D02*
X15735980Y-60956054D01*
X14831219Y-61813197D02*
X15831219Y-62146530D01*
X15831219Y-62146530D02*
X14831219Y-62479863D01*
X39971219Y-80376673D02*
X38971219Y-80376673D01*
X38971219Y-80376673D02*
X38971219Y-80614768D01*
X38971219Y-80614768D02*
X39018838Y-80757625D01*
X39018838Y-80757625D02*
X39114076Y-80852863D01*
X39114076Y-80852863D02*
X39209314Y-80900482D01*
X39209314Y-80900482D02*
X39399790Y-80948101D01*
X39399790Y-80948101D02*
X39542647Y-80948101D01*
X39542647Y-80948101D02*
X39733123Y-80900482D01*
X39733123Y-80900482D02*
X39828361Y-80852863D01*
X39828361Y-80852863D02*
X39923600Y-80757625D01*
X39923600Y-80757625D02*
X39971219Y-80614768D01*
X39971219Y-80614768D02*
X39971219Y-80376673D01*
X39971219Y-81376673D02*
X38971219Y-81376673D01*
X39971219Y-81852863D02*
X38971219Y-81852863D01*
X38971219Y-81852863D02*
X39971219Y-82424291D01*
X39971219Y-82424291D02*
X38971219Y-82424291D01*
X19831838Y-48700482D02*
X19784219Y-48605244D01*
X19784219Y-48605244D02*
X19784219Y-48462387D01*
X19784219Y-48462387D02*
X19831838Y-48319530D01*
X19831838Y-48319530D02*
X19927076Y-48224292D01*
X19927076Y-48224292D02*
X20022314Y-48176673D01*
X20022314Y-48176673D02*
X20212790Y-48129054D01*
X20212790Y-48129054D02*
X20355647Y-48129054D01*
X20355647Y-48129054D02*
X20546123Y-48176673D01*
X20546123Y-48176673D02*
X20641361Y-48224292D01*
X20641361Y-48224292D02*
X20736600Y-48319530D01*
X20736600Y-48319530D02*
X20784219Y-48462387D01*
X20784219Y-48462387D02*
X20784219Y-48557625D01*
X20784219Y-48557625D02*
X20736600Y-48700482D01*
X20736600Y-48700482D02*
X20688980Y-48748101D01*
X20688980Y-48748101D02*
X20355647Y-48748101D01*
X20355647Y-48748101D02*
X20355647Y-48557625D01*
X20784219Y-49176673D02*
X19784219Y-49176673D01*
X19784219Y-49176673D02*
X20784219Y-49748101D01*
X20784219Y-49748101D02*
X19784219Y-49748101D01*
X20784219Y-50224292D02*
X19784219Y-50224292D01*
X19784219Y-50224292D02*
X19784219Y-50462387D01*
X19784219Y-50462387D02*
X19831838Y-50605244D01*
X19831838Y-50605244D02*
X19927076Y-50700482D01*
X19927076Y-50700482D02*
X20022314Y-50748101D01*
X20022314Y-50748101D02*
X20212790Y-50795720D01*
X20212790Y-50795720D02*
X20355647Y-50795720D01*
X20355647Y-50795720D02*
X20546123Y-50748101D01*
X20546123Y-50748101D02*
X20641361Y-50700482D01*
X20641361Y-50700482D02*
X20736600Y-50605244D01*
X20736600Y-50605244D02*
X20784219Y-50462387D01*
X20784219Y-50462387D02*
X20784219Y-50224292D01*
X106358838Y-41900482D02*
X106311219Y-41805244D01*
X106311219Y-41805244D02*
X106311219Y-41662387D01*
X106311219Y-41662387D02*
X106358838Y-41519530D01*
X106358838Y-41519530D02*
X106454076Y-41424292D01*
X106454076Y-41424292D02*
X106549314Y-41376673D01*
X106549314Y-41376673D02*
X106739790Y-41329054D01*
X106739790Y-41329054D02*
X106882647Y-41329054D01*
X106882647Y-41329054D02*
X107073123Y-41376673D01*
X107073123Y-41376673D02*
X107168361Y-41424292D01*
X107168361Y-41424292D02*
X107263600Y-41519530D01*
X107263600Y-41519530D02*
X107311219Y-41662387D01*
X107311219Y-41662387D02*
X107311219Y-41757625D01*
X107311219Y-41757625D02*
X107263600Y-41900482D01*
X107263600Y-41900482D02*
X107215980Y-41948101D01*
X107215980Y-41948101D02*
X106882647Y-41948101D01*
X106882647Y-41948101D02*
X106882647Y-41757625D01*
X107311219Y-42376673D02*
X106311219Y-42376673D01*
X106311219Y-42376673D02*
X107311219Y-42948101D01*
X107311219Y-42948101D02*
X106311219Y-42948101D01*
X107311219Y-43424292D02*
X106311219Y-43424292D01*
X106311219Y-43424292D02*
X106311219Y-43662387D01*
X106311219Y-43662387D02*
X106358838Y-43805244D01*
X106358838Y-43805244D02*
X106454076Y-43900482D01*
X106454076Y-43900482D02*
X106549314Y-43948101D01*
X106549314Y-43948101D02*
X106739790Y-43995720D01*
X106739790Y-43995720D02*
X106882647Y-43995720D01*
X106882647Y-43995720D02*
X107073123Y-43948101D01*
X107073123Y-43948101D02*
X107168361Y-43900482D01*
X107168361Y-43900482D02*
X107263600Y-43805244D01*
X107263600Y-43805244D02*
X107311219Y-43662387D01*
X107311219Y-43662387D02*
X107311219Y-43424292D01*
X104644219Y-66787673D02*
X103644219Y-66787673D01*
X103644219Y-66787673D02*
X103644219Y-67025768D01*
X103644219Y-67025768D02*
X103691838Y-67168625D01*
X103691838Y-67168625D02*
X103787076Y-67263863D01*
X103787076Y-67263863D02*
X103882314Y-67311482D01*
X103882314Y-67311482D02*
X104072790Y-67359101D01*
X104072790Y-67359101D02*
X104215647Y-67359101D01*
X104215647Y-67359101D02*
X104406123Y-67311482D01*
X104406123Y-67311482D02*
X104501361Y-67263863D01*
X104501361Y-67263863D02*
X104596600Y-67168625D01*
X104596600Y-67168625D02*
X104644219Y-67025768D01*
X104644219Y-67025768D02*
X104644219Y-66787673D01*
X103644219Y-67978149D02*
X103644219Y-68168625D01*
X103644219Y-68168625D02*
X103691838Y-68263863D01*
X103691838Y-68263863D02*
X103787076Y-68359101D01*
X103787076Y-68359101D02*
X103977552Y-68406720D01*
X103977552Y-68406720D02*
X104310885Y-68406720D01*
X104310885Y-68406720D02*
X104501361Y-68359101D01*
X104501361Y-68359101D02*
X104596600Y-68263863D01*
X104596600Y-68263863D02*
X104644219Y-68168625D01*
X104644219Y-68168625D02*
X104644219Y-67978149D01*
X104644219Y-67978149D02*
X104596600Y-67882911D01*
X104596600Y-67882911D02*
X104501361Y-67787673D01*
X104501361Y-67787673D02*
X104310885Y-67740054D01*
X104310885Y-67740054D02*
X103977552Y-67740054D01*
X103977552Y-67740054D02*
X103787076Y-67787673D01*
X103787076Y-67787673D02*
X103691838Y-67882911D01*
X103691838Y-67882911D02*
X103644219Y-67978149D01*
X103644219Y-68835292D02*
X104453742Y-68835292D01*
X104453742Y-68835292D02*
X104548980Y-68882911D01*
X104548980Y-68882911D02*
X104596600Y-68930530D01*
X104596600Y-68930530D02*
X104644219Y-69025768D01*
X104644219Y-69025768D02*
X104644219Y-69216244D01*
X104644219Y-69216244D02*
X104596600Y-69311482D01*
X104596600Y-69311482D02*
X104548980Y-69359101D01*
X104548980Y-69359101D02*
X104453742Y-69406720D01*
X104453742Y-69406720D02*
X103644219Y-69406720D01*
X103644219Y-69740054D02*
X103644219Y-70311482D01*
X104644219Y-70025768D02*
X103644219Y-70025768D01*
X19831838Y-9700482D02*
X19784219Y-9605244D01*
X19784219Y-9605244D02*
X19784219Y-9462387D01*
X19784219Y-9462387D02*
X19831838Y-9319530D01*
X19831838Y-9319530D02*
X19927076Y-9224292D01*
X19927076Y-9224292D02*
X20022314Y-9176673D01*
X20022314Y-9176673D02*
X20212790Y-9129054D01*
X20212790Y-9129054D02*
X20355647Y-9129054D01*
X20355647Y-9129054D02*
X20546123Y-9176673D01*
X20546123Y-9176673D02*
X20641361Y-9224292D01*
X20641361Y-9224292D02*
X20736600Y-9319530D01*
X20736600Y-9319530D02*
X20784219Y-9462387D01*
X20784219Y-9462387D02*
X20784219Y-9557625D01*
X20784219Y-9557625D02*
X20736600Y-9700482D01*
X20736600Y-9700482D02*
X20688980Y-9748101D01*
X20688980Y-9748101D02*
X20355647Y-9748101D01*
X20355647Y-9748101D02*
X20355647Y-9557625D01*
X20784219Y-10176673D02*
X19784219Y-10176673D01*
X19784219Y-10176673D02*
X20784219Y-10748101D01*
X20784219Y-10748101D02*
X19784219Y-10748101D01*
X20784219Y-11224292D02*
X19784219Y-11224292D01*
X19784219Y-11224292D02*
X19784219Y-11462387D01*
X19784219Y-11462387D02*
X19831838Y-11605244D01*
X19831838Y-11605244D02*
X19927076Y-11700482D01*
X19927076Y-11700482D02*
X20022314Y-11748101D01*
X20022314Y-11748101D02*
X20212790Y-11795720D01*
X20212790Y-11795720D02*
X20355647Y-11795720D01*
X20355647Y-11795720D02*
X20546123Y-11748101D01*
X20546123Y-11748101D02*
X20641361Y-11700482D01*
X20641361Y-11700482D02*
X20736600Y-11605244D01*
X20736600Y-11605244D02*
X20784219Y-11462387D01*
X20784219Y-11462387D02*
X20784219Y-11224292D01*
X84631838Y-48700482D02*
X84584219Y-48605244D01*
X84584219Y-48605244D02*
X84584219Y-48462387D01*
X84584219Y-48462387D02*
X84631838Y-48319530D01*
X84631838Y-48319530D02*
X84727076Y-48224292D01*
X84727076Y-48224292D02*
X84822314Y-48176673D01*
X84822314Y-48176673D02*
X85012790Y-48129054D01*
X85012790Y-48129054D02*
X85155647Y-48129054D01*
X85155647Y-48129054D02*
X85346123Y-48176673D01*
X85346123Y-48176673D02*
X85441361Y-48224292D01*
X85441361Y-48224292D02*
X85536600Y-48319530D01*
X85536600Y-48319530D02*
X85584219Y-48462387D01*
X85584219Y-48462387D02*
X85584219Y-48557625D01*
X85584219Y-48557625D02*
X85536600Y-48700482D01*
X85536600Y-48700482D02*
X85488980Y-48748101D01*
X85488980Y-48748101D02*
X85155647Y-48748101D01*
X85155647Y-48748101D02*
X85155647Y-48557625D01*
X85584219Y-49176673D02*
X84584219Y-49176673D01*
X84584219Y-49176673D02*
X85584219Y-49748101D01*
X85584219Y-49748101D02*
X84584219Y-49748101D01*
X85584219Y-50224292D02*
X84584219Y-50224292D01*
X84584219Y-50224292D02*
X84584219Y-50462387D01*
X84584219Y-50462387D02*
X84631838Y-50605244D01*
X84631838Y-50605244D02*
X84727076Y-50700482D01*
X84727076Y-50700482D02*
X84822314Y-50748101D01*
X84822314Y-50748101D02*
X85012790Y-50795720D01*
X85012790Y-50795720D02*
X85155647Y-50795720D01*
X85155647Y-50795720D02*
X85346123Y-50748101D01*
X85346123Y-50748101D02*
X85441361Y-50700482D01*
X85441361Y-50700482D02*
X85536600Y-50605244D01*
X85536600Y-50605244D02*
X85584219Y-50462387D01*
X85584219Y-50462387D02*
X85584219Y-50224292D01*
X84631838Y-9700482D02*
X84584219Y-9605244D01*
X84584219Y-9605244D02*
X84584219Y-9462387D01*
X84584219Y-9462387D02*
X84631838Y-9319530D01*
X84631838Y-9319530D02*
X84727076Y-9224292D01*
X84727076Y-9224292D02*
X84822314Y-9176673D01*
X84822314Y-9176673D02*
X85012790Y-9129054D01*
X85012790Y-9129054D02*
X85155647Y-9129054D01*
X85155647Y-9129054D02*
X85346123Y-9176673D01*
X85346123Y-9176673D02*
X85441361Y-9224292D01*
X85441361Y-9224292D02*
X85536600Y-9319530D01*
X85536600Y-9319530D02*
X85584219Y-9462387D01*
X85584219Y-9462387D02*
X85584219Y-9557625D01*
X85584219Y-9557625D02*
X85536600Y-9700482D01*
X85536600Y-9700482D02*
X85488980Y-9748101D01*
X85488980Y-9748101D02*
X85155647Y-9748101D01*
X85155647Y-9748101D02*
X85155647Y-9557625D01*
X85584219Y-10176673D02*
X84584219Y-10176673D01*
X84584219Y-10176673D02*
X85584219Y-10748101D01*
X85584219Y-10748101D02*
X84584219Y-10748101D01*
X85584219Y-11224292D02*
X84584219Y-11224292D01*
X84584219Y-11224292D02*
X84584219Y-11462387D01*
X84584219Y-11462387D02*
X84631838Y-11605244D01*
X84631838Y-11605244D02*
X84727076Y-11700482D01*
X84727076Y-11700482D02*
X84822314Y-11748101D01*
X84822314Y-11748101D02*
X85012790Y-11795720D01*
X85012790Y-11795720D02*
X85155647Y-11795720D01*
X85155647Y-11795720D02*
X85346123Y-11748101D01*
X85346123Y-11748101D02*
X85441361Y-11700482D01*
X85441361Y-11700482D02*
X85536600Y-11605244D01*
X85536600Y-11605244D02*
X85584219Y-11462387D01*
X85584219Y-11462387D02*
X85584219Y-11224292D01*
X19958838Y-61400482D02*
X19911219Y-61305244D01*
X19911219Y-61305244D02*
X19911219Y-61162387D01*
X19911219Y-61162387D02*
X19958838Y-61019530D01*
X19958838Y-61019530D02*
X20054076Y-60924292D01*
X20054076Y-60924292D02*
X20149314Y-60876673D01*
X20149314Y-60876673D02*
X20339790Y-60829054D01*
X20339790Y-60829054D02*
X20482647Y-60829054D01*
X20482647Y-60829054D02*
X20673123Y-60876673D01*
X20673123Y-60876673D02*
X20768361Y-60924292D01*
X20768361Y-60924292D02*
X20863600Y-61019530D01*
X20863600Y-61019530D02*
X20911219Y-61162387D01*
X20911219Y-61162387D02*
X20911219Y-61257625D01*
X20911219Y-61257625D02*
X20863600Y-61400482D01*
X20863600Y-61400482D02*
X20815980Y-61448101D01*
X20815980Y-61448101D02*
X20482647Y-61448101D01*
X20482647Y-61448101D02*
X20482647Y-61257625D01*
X20911219Y-61876673D02*
X19911219Y-61876673D01*
X19911219Y-61876673D02*
X20911219Y-62448101D01*
X20911219Y-62448101D02*
X19911219Y-62448101D01*
X20911219Y-62924292D02*
X19911219Y-62924292D01*
X19911219Y-62924292D02*
X19911219Y-63162387D01*
X19911219Y-63162387D02*
X19958838Y-63305244D01*
X19958838Y-63305244D02*
X20054076Y-63400482D01*
X20054076Y-63400482D02*
X20149314Y-63448101D01*
X20149314Y-63448101D02*
X20339790Y-63495720D01*
X20339790Y-63495720D02*
X20482647Y-63495720D01*
X20482647Y-63495720D02*
X20673123Y-63448101D01*
X20673123Y-63448101D02*
X20768361Y-63400482D01*
X20768361Y-63400482D02*
X20863600Y-63305244D01*
X20863600Y-63305244D02*
X20911219Y-63162387D01*
X20911219Y-63162387D02*
X20911219Y-62924292D01*
X18371219Y-21876673D02*
X17371219Y-21876673D01*
X17371219Y-21876673D02*
X17371219Y-22114768D01*
X17371219Y-22114768D02*
X17418838Y-22257625D01*
X17418838Y-22257625D02*
X17514076Y-22352863D01*
X17514076Y-22352863D02*
X17609314Y-22400482D01*
X17609314Y-22400482D02*
X17799790Y-22448101D01*
X17799790Y-22448101D02*
X17942647Y-22448101D01*
X17942647Y-22448101D02*
X18133123Y-22400482D01*
X18133123Y-22400482D02*
X18228361Y-22352863D01*
X18228361Y-22352863D02*
X18323600Y-22257625D01*
X18323600Y-22257625D02*
X18371219Y-22114768D01*
X18371219Y-22114768D02*
X18371219Y-21876673D01*
X18371219Y-22876673D02*
X17371219Y-22876673D01*
X18371219Y-23352863D02*
X17371219Y-23352863D01*
X17371219Y-23352863D02*
X18371219Y-23924291D01*
X18371219Y-23924291D02*
X17371219Y-23924291D01*
X61571219Y-41376673D02*
X60571219Y-41376673D01*
X60571219Y-41376673D02*
X60571219Y-41614768D01*
X60571219Y-41614768D02*
X60618838Y-41757625D01*
X60618838Y-41757625D02*
X60714076Y-41852863D01*
X60714076Y-41852863D02*
X60809314Y-41900482D01*
X60809314Y-41900482D02*
X60999790Y-41948101D01*
X60999790Y-41948101D02*
X61142647Y-41948101D01*
X61142647Y-41948101D02*
X61333123Y-41900482D01*
X61333123Y-41900482D02*
X61428361Y-41852863D01*
X61428361Y-41852863D02*
X61523600Y-41757625D01*
X61523600Y-41757625D02*
X61571219Y-41614768D01*
X61571219Y-41614768D02*
X61571219Y-41376673D01*
X61571219Y-42376673D02*
X60571219Y-42376673D01*
X61571219Y-42852863D02*
X60571219Y-42852863D01*
X60571219Y-42852863D02*
X61571219Y-43424291D01*
X61571219Y-43424291D02*
X60571219Y-43424291D01*
X63158838Y-41900482D02*
X63111219Y-41805244D01*
X63111219Y-41805244D02*
X63111219Y-41662387D01*
X63111219Y-41662387D02*
X63158838Y-41519530D01*
X63158838Y-41519530D02*
X63254076Y-41424292D01*
X63254076Y-41424292D02*
X63349314Y-41376673D01*
X63349314Y-41376673D02*
X63539790Y-41329054D01*
X63539790Y-41329054D02*
X63682647Y-41329054D01*
X63682647Y-41329054D02*
X63873123Y-41376673D01*
X63873123Y-41376673D02*
X63968361Y-41424292D01*
X63968361Y-41424292D02*
X64063600Y-41519530D01*
X64063600Y-41519530D02*
X64111219Y-41662387D01*
X64111219Y-41662387D02*
X64111219Y-41757625D01*
X64111219Y-41757625D02*
X64063600Y-41900482D01*
X64063600Y-41900482D02*
X64015980Y-41948101D01*
X64015980Y-41948101D02*
X63682647Y-41948101D01*
X63682647Y-41948101D02*
X63682647Y-41757625D01*
X64111219Y-42376673D02*
X63111219Y-42376673D01*
X63111219Y-42376673D02*
X64111219Y-42948101D01*
X64111219Y-42948101D02*
X63111219Y-42948101D01*
X64111219Y-43424292D02*
X63111219Y-43424292D01*
X63111219Y-43424292D02*
X63111219Y-43662387D01*
X63111219Y-43662387D02*
X63158838Y-43805244D01*
X63158838Y-43805244D02*
X63254076Y-43900482D01*
X63254076Y-43900482D02*
X63349314Y-43948101D01*
X63349314Y-43948101D02*
X63539790Y-43995720D01*
X63539790Y-43995720D02*
X63682647Y-43995720D01*
X63682647Y-43995720D02*
X63873123Y-43948101D01*
X63873123Y-43948101D02*
X63968361Y-43900482D01*
X63968361Y-43900482D02*
X64063600Y-43805244D01*
X64063600Y-43805244D02*
X64111219Y-43662387D01*
X64111219Y-43662387D02*
X64111219Y-43424292D01*
X101231219Y-49795863D02*
X101231219Y-49319673D01*
X101231219Y-49319673D02*
X101707409Y-49272054D01*
X101707409Y-49272054D02*
X101659790Y-49319673D01*
X101659790Y-49319673D02*
X101612171Y-49414911D01*
X101612171Y-49414911D02*
X101612171Y-49653006D01*
X101612171Y-49653006D02*
X101659790Y-49748244D01*
X101659790Y-49748244D02*
X101707409Y-49795863D01*
X101707409Y-49795863D02*
X101802647Y-49843482D01*
X101802647Y-49843482D02*
X102040742Y-49843482D01*
X102040742Y-49843482D02*
X102135980Y-49795863D01*
X102135980Y-49795863D02*
X102183600Y-49748244D01*
X102183600Y-49748244D02*
X102231219Y-49653006D01*
X102231219Y-49653006D02*
X102231219Y-49414911D01*
X102231219Y-49414911D02*
X102183600Y-49319673D01*
X102183600Y-49319673D02*
X102135980Y-49272054D01*
X101231219Y-50129197D02*
X102231219Y-50462530D01*
X102231219Y-50462530D02*
X101231219Y-50795863D01*
X106231838Y-9700482D02*
X106184219Y-9605244D01*
X106184219Y-9605244D02*
X106184219Y-9462387D01*
X106184219Y-9462387D02*
X106231838Y-9319530D01*
X106231838Y-9319530D02*
X106327076Y-9224292D01*
X106327076Y-9224292D02*
X106422314Y-9176673D01*
X106422314Y-9176673D02*
X106612790Y-9129054D01*
X106612790Y-9129054D02*
X106755647Y-9129054D01*
X106755647Y-9129054D02*
X106946123Y-9176673D01*
X106946123Y-9176673D02*
X107041361Y-9224292D01*
X107041361Y-9224292D02*
X107136600Y-9319530D01*
X107136600Y-9319530D02*
X107184219Y-9462387D01*
X107184219Y-9462387D02*
X107184219Y-9557625D01*
X107184219Y-9557625D02*
X107136600Y-9700482D01*
X107136600Y-9700482D02*
X107088980Y-9748101D01*
X107088980Y-9748101D02*
X106755647Y-9748101D01*
X106755647Y-9748101D02*
X106755647Y-9557625D01*
X107184219Y-10176673D02*
X106184219Y-10176673D01*
X106184219Y-10176673D02*
X107184219Y-10748101D01*
X107184219Y-10748101D02*
X106184219Y-10748101D01*
X107184219Y-11224292D02*
X106184219Y-11224292D01*
X106184219Y-11224292D02*
X106184219Y-11462387D01*
X106184219Y-11462387D02*
X106231838Y-11605244D01*
X106231838Y-11605244D02*
X106327076Y-11700482D01*
X106327076Y-11700482D02*
X106422314Y-11748101D01*
X106422314Y-11748101D02*
X106612790Y-11795720D01*
X106612790Y-11795720D02*
X106755647Y-11795720D01*
X106755647Y-11795720D02*
X106946123Y-11748101D01*
X106946123Y-11748101D02*
X107041361Y-11700482D01*
X107041361Y-11700482D02*
X107136600Y-11605244D01*
X107136600Y-11605244D02*
X107184219Y-11462387D01*
X107184219Y-11462387D02*
X107184219Y-11224292D01*
X14831219Y-41979863D02*
X14831219Y-41503673D01*
X14831219Y-41503673D02*
X15307409Y-41456054D01*
X15307409Y-41456054D02*
X15259790Y-41503673D01*
X15259790Y-41503673D02*
X15212171Y-41598911D01*
X15212171Y-41598911D02*
X15212171Y-41837006D01*
X15212171Y-41837006D02*
X15259790Y-41932244D01*
X15259790Y-41932244D02*
X15307409Y-41979863D01*
X15307409Y-41979863D02*
X15402647Y-42027482D01*
X15402647Y-42027482D02*
X15640742Y-42027482D01*
X15640742Y-42027482D02*
X15735980Y-41979863D01*
X15735980Y-41979863D02*
X15783600Y-41932244D01*
X15783600Y-41932244D02*
X15831219Y-41837006D01*
X15831219Y-41837006D02*
X15831219Y-41598911D01*
X15831219Y-41598911D02*
X15783600Y-41503673D01*
X15783600Y-41503673D02*
X15735980Y-41456054D01*
X14831219Y-42313197D02*
X15831219Y-42646530D01*
X15831219Y-42646530D02*
X14831219Y-42979863D01*
X106358838Y-61400482D02*
X106311219Y-61305244D01*
X106311219Y-61305244D02*
X106311219Y-61162387D01*
X106311219Y-61162387D02*
X106358838Y-61019530D01*
X106358838Y-61019530D02*
X106454076Y-60924292D01*
X106454076Y-60924292D02*
X106549314Y-60876673D01*
X106549314Y-60876673D02*
X106739790Y-60829054D01*
X106739790Y-60829054D02*
X106882647Y-60829054D01*
X106882647Y-60829054D02*
X107073123Y-60876673D01*
X107073123Y-60876673D02*
X107168361Y-60924292D01*
X107168361Y-60924292D02*
X107263600Y-61019530D01*
X107263600Y-61019530D02*
X107311219Y-61162387D01*
X107311219Y-61162387D02*
X107311219Y-61257625D01*
X107311219Y-61257625D02*
X107263600Y-61400482D01*
X107263600Y-61400482D02*
X107215980Y-61448101D01*
X107215980Y-61448101D02*
X106882647Y-61448101D01*
X106882647Y-61448101D02*
X106882647Y-61257625D01*
X107311219Y-61876673D02*
X106311219Y-61876673D01*
X106311219Y-61876673D02*
X107311219Y-62448101D01*
X107311219Y-62448101D02*
X106311219Y-62448101D01*
X107311219Y-62924292D02*
X106311219Y-62924292D01*
X106311219Y-62924292D02*
X106311219Y-63162387D01*
X106311219Y-63162387D02*
X106358838Y-63305244D01*
X106358838Y-63305244D02*
X106454076Y-63400482D01*
X106454076Y-63400482D02*
X106549314Y-63448101D01*
X106549314Y-63448101D02*
X106739790Y-63495720D01*
X106739790Y-63495720D02*
X106882647Y-63495720D01*
X106882647Y-63495720D02*
X107073123Y-63448101D01*
X107073123Y-63448101D02*
X107168361Y-63400482D01*
X107168361Y-63400482D02*
X107263600Y-63305244D01*
X107263600Y-63305244D02*
X107311219Y-63162387D01*
X107311219Y-63162387D02*
X107311219Y-62924292D01*
X58031219Y-69295863D02*
X58031219Y-68819673D01*
X58031219Y-68819673D02*
X58507409Y-68772054D01*
X58507409Y-68772054D02*
X58459790Y-68819673D01*
X58459790Y-68819673D02*
X58412171Y-68914911D01*
X58412171Y-68914911D02*
X58412171Y-69153006D01*
X58412171Y-69153006D02*
X58459790Y-69248244D01*
X58459790Y-69248244D02*
X58507409Y-69295863D01*
X58507409Y-69295863D02*
X58602647Y-69343482D01*
X58602647Y-69343482D02*
X58840742Y-69343482D01*
X58840742Y-69343482D02*
X58935980Y-69295863D01*
X58935980Y-69295863D02*
X58983600Y-69248244D01*
X58983600Y-69248244D02*
X59031219Y-69153006D01*
X59031219Y-69153006D02*
X59031219Y-68914911D01*
X59031219Y-68914911D02*
X58983600Y-68819673D01*
X58983600Y-68819673D02*
X58935980Y-68772054D01*
X58031219Y-69629197D02*
X59031219Y-69962530D01*
X59031219Y-69962530D02*
X58031219Y-70295863D01*
X101231219Y-41979863D02*
X101231219Y-41503673D01*
X101231219Y-41503673D02*
X101707409Y-41456054D01*
X101707409Y-41456054D02*
X101659790Y-41503673D01*
X101659790Y-41503673D02*
X101612171Y-41598911D01*
X101612171Y-41598911D02*
X101612171Y-41837006D01*
X101612171Y-41837006D02*
X101659790Y-41932244D01*
X101659790Y-41932244D02*
X101707409Y-41979863D01*
X101707409Y-41979863D02*
X101802647Y-42027482D01*
X101802647Y-42027482D02*
X102040742Y-42027482D01*
X102040742Y-42027482D02*
X102135980Y-41979863D01*
X102135980Y-41979863D02*
X102183600Y-41932244D01*
X102183600Y-41932244D02*
X102231219Y-41837006D01*
X102231219Y-41837006D02*
X102231219Y-41598911D01*
X102231219Y-41598911D02*
X102183600Y-41503673D01*
X102183600Y-41503673D02*
X102135980Y-41456054D01*
X101231219Y-42313197D02*
X102231219Y-42646530D01*
X102231219Y-42646530D02*
X101231219Y-42979863D01*
X83171219Y-80376673D02*
X82171219Y-80376673D01*
X82171219Y-80376673D02*
X82171219Y-80614768D01*
X82171219Y-80614768D02*
X82218838Y-80757625D01*
X82218838Y-80757625D02*
X82314076Y-80852863D01*
X82314076Y-80852863D02*
X82409314Y-80900482D01*
X82409314Y-80900482D02*
X82599790Y-80948101D01*
X82599790Y-80948101D02*
X82742647Y-80948101D01*
X82742647Y-80948101D02*
X82933123Y-80900482D01*
X82933123Y-80900482D02*
X83028361Y-80852863D01*
X83028361Y-80852863D02*
X83123600Y-80757625D01*
X83123600Y-80757625D02*
X83171219Y-80614768D01*
X83171219Y-80614768D02*
X83171219Y-80376673D01*
X83171219Y-81376673D02*
X82171219Y-81376673D01*
X83171219Y-81852863D02*
X82171219Y-81852863D01*
X82171219Y-81852863D02*
X83171219Y-82424291D01*
X83171219Y-82424291D02*
X82171219Y-82424291D01*
X84758838Y-61400482D02*
X84711219Y-61305244D01*
X84711219Y-61305244D02*
X84711219Y-61162387D01*
X84711219Y-61162387D02*
X84758838Y-61019530D01*
X84758838Y-61019530D02*
X84854076Y-60924292D01*
X84854076Y-60924292D02*
X84949314Y-60876673D01*
X84949314Y-60876673D02*
X85139790Y-60829054D01*
X85139790Y-60829054D02*
X85282647Y-60829054D01*
X85282647Y-60829054D02*
X85473123Y-60876673D01*
X85473123Y-60876673D02*
X85568361Y-60924292D01*
X85568361Y-60924292D02*
X85663600Y-61019530D01*
X85663600Y-61019530D02*
X85711219Y-61162387D01*
X85711219Y-61162387D02*
X85711219Y-61257625D01*
X85711219Y-61257625D02*
X85663600Y-61400482D01*
X85663600Y-61400482D02*
X85615980Y-61448101D01*
X85615980Y-61448101D02*
X85282647Y-61448101D01*
X85282647Y-61448101D02*
X85282647Y-61257625D01*
X85711219Y-61876673D02*
X84711219Y-61876673D01*
X84711219Y-61876673D02*
X85711219Y-62448101D01*
X85711219Y-62448101D02*
X84711219Y-62448101D01*
X85711219Y-62924292D02*
X84711219Y-62924292D01*
X84711219Y-62924292D02*
X84711219Y-63162387D01*
X84711219Y-63162387D02*
X84758838Y-63305244D01*
X84758838Y-63305244D02*
X84854076Y-63400482D01*
X84854076Y-63400482D02*
X84949314Y-63448101D01*
X84949314Y-63448101D02*
X85139790Y-63495720D01*
X85139790Y-63495720D02*
X85282647Y-63495720D01*
X85282647Y-63495720D02*
X85473123Y-63448101D01*
X85473123Y-63448101D02*
X85568361Y-63400482D01*
X85568361Y-63400482D02*
X85663600Y-63305244D01*
X85663600Y-63305244D02*
X85711219Y-63162387D01*
X85711219Y-63162387D02*
X85711219Y-62924292D01*
X101231219Y-30295863D02*
X101231219Y-29819673D01*
X101231219Y-29819673D02*
X101707409Y-29772054D01*
X101707409Y-29772054D02*
X101659790Y-29819673D01*
X101659790Y-29819673D02*
X101612171Y-29914911D01*
X101612171Y-29914911D02*
X101612171Y-30153006D01*
X101612171Y-30153006D02*
X101659790Y-30248244D01*
X101659790Y-30248244D02*
X101707409Y-30295863D01*
X101707409Y-30295863D02*
X101802647Y-30343482D01*
X101802647Y-30343482D02*
X102040742Y-30343482D01*
X102040742Y-30343482D02*
X102135980Y-30295863D01*
X102135980Y-30295863D02*
X102183600Y-30248244D01*
X102183600Y-30248244D02*
X102231219Y-30153006D01*
X102231219Y-30153006D02*
X102231219Y-29914911D01*
X102231219Y-29914911D02*
X102183600Y-29819673D01*
X102183600Y-29819673D02*
X102135980Y-29772054D01*
X101231219Y-30629197D02*
X102231219Y-30962530D01*
X102231219Y-30962530D02*
X101231219Y-31295863D01*
X14831219Y-69295863D02*
X14831219Y-68819673D01*
X14831219Y-68819673D02*
X15307409Y-68772054D01*
X15307409Y-68772054D02*
X15259790Y-68819673D01*
X15259790Y-68819673D02*
X15212171Y-68914911D01*
X15212171Y-68914911D02*
X15212171Y-69153006D01*
X15212171Y-69153006D02*
X15259790Y-69248244D01*
X15259790Y-69248244D02*
X15307409Y-69295863D01*
X15307409Y-69295863D02*
X15402647Y-69343482D01*
X15402647Y-69343482D02*
X15640742Y-69343482D01*
X15640742Y-69343482D02*
X15735980Y-69295863D01*
X15735980Y-69295863D02*
X15783600Y-69248244D01*
X15783600Y-69248244D02*
X15831219Y-69153006D01*
X15831219Y-69153006D02*
X15831219Y-68914911D01*
X15831219Y-68914911D02*
X15783600Y-68819673D01*
X15783600Y-68819673D02*
X15735980Y-68772054D01*
X14831219Y-69629197D02*
X15831219Y-69962530D01*
X15831219Y-69962530D02*
X14831219Y-70295863D01*
X41431838Y-68200482D02*
X41384219Y-68105244D01*
X41384219Y-68105244D02*
X41384219Y-67962387D01*
X41384219Y-67962387D02*
X41431838Y-67819530D01*
X41431838Y-67819530D02*
X41527076Y-67724292D01*
X41527076Y-67724292D02*
X41622314Y-67676673D01*
X41622314Y-67676673D02*
X41812790Y-67629054D01*
X41812790Y-67629054D02*
X41955647Y-67629054D01*
X41955647Y-67629054D02*
X42146123Y-67676673D01*
X42146123Y-67676673D02*
X42241361Y-67724292D01*
X42241361Y-67724292D02*
X42336600Y-67819530D01*
X42336600Y-67819530D02*
X42384219Y-67962387D01*
X42384219Y-67962387D02*
X42384219Y-68057625D01*
X42384219Y-68057625D02*
X42336600Y-68200482D01*
X42336600Y-68200482D02*
X42288980Y-68248101D01*
X42288980Y-68248101D02*
X41955647Y-68248101D01*
X41955647Y-68248101D02*
X41955647Y-68057625D01*
X42384219Y-68676673D02*
X41384219Y-68676673D01*
X41384219Y-68676673D02*
X42384219Y-69248101D01*
X42384219Y-69248101D02*
X41384219Y-69248101D01*
X42384219Y-69724292D02*
X41384219Y-69724292D01*
X41384219Y-69724292D02*
X41384219Y-69962387D01*
X41384219Y-69962387D02*
X41431838Y-70105244D01*
X41431838Y-70105244D02*
X41527076Y-70200482D01*
X41527076Y-70200482D02*
X41622314Y-70248101D01*
X41622314Y-70248101D02*
X41812790Y-70295720D01*
X41812790Y-70295720D02*
X41955647Y-70295720D01*
X41955647Y-70295720D02*
X42146123Y-70248101D01*
X42146123Y-70248101D02*
X42241361Y-70200482D01*
X42241361Y-70200482D02*
X42336600Y-70105244D01*
X42336600Y-70105244D02*
X42384219Y-69962387D01*
X42384219Y-69962387D02*
X42384219Y-69724292D01*
X36431219Y-69295863D02*
X36431219Y-68819673D01*
X36431219Y-68819673D02*
X36907409Y-68772054D01*
X36907409Y-68772054D02*
X36859790Y-68819673D01*
X36859790Y-68819673D02*
X36812171Y-68914911D01*
X36812171Y-68914911D02*
X36812171Y-69153006D01*
X36812171Y-69153006D02*
X36859790Y-69248244D01*
X36859790Y-69248244D02*
X36907409Y-69295863D01*
X36907409Y-69295863D02*
X37002647Y-69343482D01*
X37002647Y-69343482D02*
X37240742Y-69343482D01*
X37240742Y-69343482D02*
X37335980Y-69295863D01*
X37335980Y-69295863D02*
X37383600Y-69248244D01*
X37383600Y-69248244D02*
X37431219Y-69153006D01*
X37431219Y-69153006D02*
X37431219Y-68914911D01*
X37431219Y-68914911D02*
X37383600Y-68819673D01*
X37383600Y-68819673D02*
X37335980Y-68772054D01*
X36431219Y-69629197D02*
X37431219Y-69962530D01*
X37431219Y-69962530D02*
X36431219Y-70295863D01*
X39844219Y-47287673D02*
X38844219Y-47287673D01*
X38844219Y-47287673D02*
X38844219Y-47525768D01*
X38844219Y-47525768D02*
X38891838Y-47668625D01*
X38891838Y-47668625D02*
X38987076Y-47763863D01*
X38987076Y-47763863D02*
X39082314Y-47811482D01*
X39082314Y-47811482D02*
X39272790Y-47859101D01*
X39272790Y-47859101D02*
X39415647Y-47859101D01*
X39415647Y-47859101D02*
X39606123Y-47811482D01*
X39606123Y-47811482D02*
X39701361Y-47763863D01*
X39701361Y-47763863D02*
X39796600Y-47668625D01*
X39796600Y-47668625D02*
X39844219Y-47525768D01*
X39844219Y-47525768D02*
X39844219Y-47287673D01*
X38844219Y-48478149D02*
X38844219Y-48668625D01*
X38844219Y-48668625D02*
X38891838Y-48763863D01*
X38891838Y-48763863D02*
X38987076Y-48859101D01*
X38987076Y-48859101D02*
X39177552Y-48906720D01*
X39177552Y-48906720D02*
X39510885Y-48906720D01*
X39510885Y-48906720D02*
X39701361Y-48859101D01*
X39701361Y-48859101D02*
X39796600Y-48763863D01*
X39796600Y-48763863D02*
X39844219Y-48668625D01*
X39844219Y-48668625D02*
X39844219Y-48478149D01*
X39844219Y-48478149D02*
X39796600Y-48382911D01*
X39796600Y-48382911D02*
X39701361Y-48287673D01*
X39701361Y-48287673D02*
X39510885Y-48240054D01*
X39510885Y-48240054D02*
X39177552Y-48240054D01*
X39177552Y-48240054D02*
X38987076Y-48287673D01*
X38987076Y-48287673D02*
X38891838Y-48382911D01*
X38891838Y-48382911D02*
X38844219Y-48478149D01*
X38844219Y-49335292D02*
X39653742Y-49335292D01*
X39653742Y-49335292D02*
X39748980Y-49382911D01*
X39748980Y-49382911D02*
X39796600Y-49430530D01*
X39796600Y-49430530D02*
X39844219Y-49525768D01*
X39844219Y-49525768D02*
X39844219Y-49716244D01*
X39844219Y-49716244D02*
X39796600Y-49811482D01*
X39796600Y-49811482D02*
X39748980Y-49859101D01*
X39748980Y-49859101D02*
X39653742Y-49906720D01*
X39653742Y-49906720D02*
X38844219Y-49906720D01*
X38844219Y-50240054D02*
X38844219Y-50811482D01*
X39844219Y-50525768D02*
X38844219Y-50525768D01*
X104644219Y-47287673D02*
X103644219Y-47287673D01*
X103644219Y-47287673D02*
X103644219Y-47525768D01*
X103644219Y-47525768D02*
X103691838Y-47668625D01*
X103691838Y-47668625D02*
X103787076Y-47763863D01*
X103787076Y-47763863D02*
X103882314Y-47811482D01*
X103882314Y-47811482D02*
X104072790Y-47859101D01*
X104072790Y-47859101D02*
X104215647Y-47859101D01*
X104215647Y-47859101D02*
X104406123Y-47811482D01*
X104406123Y-47811482D02*
X104501361Y-47763863D01*
X104501361Y-47763863D02*
X104596600Y-47668625D01*
X104596600Y-47668625D02*
X104644219Y-47525768D01*
X104644219Y-47525768D02*
X104644219Y-47287673D01*
X103644219Y-48478149D02*
X103644219Y-48668625D01*
X103644219Y-48668625D02*
X103691838Y-48763863D01*
X103691838Y-48763863D02*
X103787076Y-48859101D01*
X103787076Y-48859101D02*
X103977552Y-48906720D01*
X103977552Y-48906720D02*
X104310885Y-48906720D01*
X104310885Y-48906720D02*
X104501361Y-48859101D01*
X104501361Y-48859101D02*
X104596600Y-48763863D01*
X104596600Y-48763863D02*
X104644219Y-48668625D01*
X104644219Y-48668625D02*
X104644219Y-48478149D01*
X104644219Y-48478149D02*
X104596600Y-48382911D01*
X104596600Y-48382911D02*
X104501361Y-48287673D01*
X104501361Y-48287673D02*
X104310885Y-48240054D01*
X104310885Y-48240054D02*
X103977552Y-48240054D01*
X103977552Y-48240054D02*
X103787076Y-48287673D01*
X103787076Y-48287673D02*
X103691838Y-48382911D01*
X103691838Y-48382911D02*
X103644219Y-48478149D01*
X103644219Y-49335292D02*
X104453742Y-49335292D01*
X104453742Y-49335292D02*
X104548980Y-49382911D01*
X104548980Y-49382911D02*
X104596600Y-49430530D01*
X104596600Y-49430530D02*
X104644219Y-49525768D01*
X104644219Y-49525768D02*
X104644219Y-49716244D01*
X104644219Y-49716244D02*
X104596600Y-49811482D01*
X104596600Y-49811482D02*
X104548980Y-49859101D01*
X104548980Y-49859101D02*
X104453742Y-49906720D01*
X104453742Y-49906720D02*
X103644219Y-49906720D01*
X103644219Y-50240054D02*
X103644219Y-50811482D01*
X104644219Y-50525768D02*
X103644219Y-50525768D01*
X39971219Y-60876673D02*
X38971219Y-60876673D01*
X38971219Y-60876673D02*
X38971219Y-61114768D01*
X38971219Y-61114768D02*
X39018838Y-61257625D01*
X39018838Y-61257625D02*
X39114076Y-61352863D01*
X39114076Y-61352863D02*
X39209314Y-61400482D01*
X39209314Y-61400482D02*
X39399790Y-61448101D01*
X39399790Y-61448101D02*
X39542647Y-61448101D01*
X39542647Y-61448101D02*
X39733123Y-61400482D01*
X39733123Y-61400482D02*
X39828361Y-61352863D01*
X39828361Y-61352863D02*
X39923600Y-61257625D01*
X39923600Y-61257625D02*
X39971219Y-61114768D01*
X39971219Y-61114768D02*
X39971219Y-60876673D01*
X39971219Y-61876673D02*
X38971219Y-61876673D01*
X39971219Y-62352863D02*
X38971219Y-62352863D01*
X38971219Y-62352863D02*
X39971219Y-62924291D01*
X39971219Y-62924291D02*
X38971219Y-62924291D01*
X61444219Y-66787673D02*
X60444219Y-66787673D01*
X60444219Y-66787673D02*
X60444219Y-67025768D01*
X60444219Y-67025768D02*
X60491838Y-67168625D01*
X60491838Y-67168625D02*
X60587076Y-67263863D01*
X60587076Y-67263863D02*
X60682314Y-67311482D01*
X60682314Y-67311482D02*
X60872790Y-67359101D01*
X60872790Y-67359101D02*
X61015647Y-67359101D01*
X61015647Y-67359101D02*
X61206123Y-67311482D01*
X61206123Y-67311482D02*
X61301361Y-67263863D01*
X61301361Y-67263863D02*
X61396600Y-67168625D01*
X61396600Y-67168625D02*
X61444219Y-67025768D01*
X61444219Y-67025768D02*
X61444219Y-66787673D01*
X60444219Y-67978149D02*
X60444219Y-68168625D01*
X60444219Y-68168625D02*
X60491838Y-68263863D01*
X60491838Y-68263863D02*
X60587076Y-68359101D01*
X60587076Y-68359101D02*
X60777552Y-68406720D01*
X60777552Y-68406720D02*
X61110885Y-68406720D01*
X61110885Y-68406720D02*
X61301361Y-68359101D01*
X61301361Y-68359101D02*
X61396600Y-68263863D01*
X61396600Y-68263863D02*
X61444219Y-68168625D01*
X61444219Y-68168625D02*
X61444219Y-67978149D01*
X61444219Y-67978149D02*
X61396600Y-67882911D01*
X61396600Y-67882911D02*
X61301361Y-67787673D01*
X61301361Y-67787673D02*
X61110885Y-67740054D01*
X61110885Y-67740054D02*
X60777552Y-67740054D01*
X60777552Y-67740054D02*
X60587076Y-67787673D01*
X60587076Y-67787673D02*
X60491838Y-67882911D01*
X60491838Y-67882911D02*
X60444219Y-67978149D01*
X60444219Y-68835292D02*
X61253742Y-68835292D01*
X61253742Y-68835292D02*
X61348980Y-68882911D01*
X61348980Y-68882911D02*
X61396600Y-68930530D01*
X61396600Y-68930530D02*
X61444219Y-69025768D01*
X61444219Y-69025768D02*
X61444219Y-69216244D01*
X61444219Y-69216244D02*
X61396600Y-69311482D01*
X61396600Y-69311482D02*
X61348980Y-69359101D01*
X61348980Y-69359101D02*
X61253742Y-69406720D01*
X61253742Y-69406720D02*
X60444219Y-69406720D01*
X60444219Y-69740054D02*
X60444219Y-70311482D01*
X61444219Y-70025768D02*
X60444219Y-70025768D01*
X101231219Y-69295863D02*
X101231219Y-68819673D01*
X101231219Y-68819673D02*
X101707409Y-68772054D01*
X101707409Y-68772054D02*
X101659790Y-68819673D01*
X101659790Y-68819673D02*
X101612171Y-68914911D01*
X101612171Y-68914911D02*
X101612171Y-69153006D01*
X101612171Y-69153006D02*
X101659790Y-69248244D01*
X101659790Y-69248244D02*
X101707409Y-69295863D01*
X101707409Y-69295863D02*
X101802647Y-69343482D01*
X101802647Y-69343482D02*
X102040742Y-69343482D01*
X102040742Y-69343482D02*
X102135980Y-69295863D01*
X102135980Y-69295863D02*
X102183600Y-69248244D01*
X102183600Y-69248244D02*
X102231219Y-69153006D01*
X102231219Y-69153006D02*
X102231219Y-68914911D01*
X102231219Y-68914911D02*
X102183600Y-68819673D01*
X102183600Y-68819673D02*
X102135980Y-68772054D01*
X101231219Y-69629197D02*
X102231219Y-69962530D01*
X102231219Y-69962530D02*
X101231219Y-70295863D01*
X19831838Y-68200482D02*
X19784219Y-68105244D01*
X19784219Y-68105244D02*
X19784219Y-67962387D01*
X19784219Y-67962387D02*
X19831838Y-67819530D01*
X19831838Y-67819530D02*
X19927076Y-67724292D01*
X19927076Y-67724292D02*
X20022314Y-67676673D01*
X20022314Y-67676673D02*
X20212790Y-67629054D01*
X20212790Y-67629054D02*
X20355647Y-67629054D01*
X20355647Y-67629054D02*
X20546123Y-67676673D01*
X20546123Y-67676673D02*
X20641361Y-67724292D01*
X20641361Y-67724292D02*
X20736600Y-67819530D01*
X20736600Y-67819530D02*
X20784219Y-67962387D01*
X20784219Y-67962387D02*
X20784219Y-68057625D01*
X20784219Y-68057625D02*
X20736600Y-68200482D01*
X20736600Y-68200482D02*
X20688980Y-68248101D01*
X20688980Y-68248101D02*
X20355647Y-68248101D01*
X20355647Y-68248101D02*
X20355647Y-68057625D01*
X20784219Y-68676673D02*
X19784219Y-68676673D01*
X19784219Y-68676673D02*
X20784219Y-69248101D01*
X20784219Y-69248101D02*
X19784219Y-69248101D01*
X20784219Y-69724292D02*
X19784219Y-69724292D01*
X19784219Y-69724292D02*
X19784219Y-69962387D01*
X19784219Y-69962387D02*
X19831838Y-70105244D01*
X19831838Y-70105244D02*
X19927076Y-70200482D01*
X19927076Y-70200482D02*
X20022314Y-70248101D01*
X20022314Y-70248101D02*
X20212790Y-70295720D01*
X20212790Y-70295720D02*
X20355647Y-70295720D01*
X20355647Y-70295720D02*
X20546123Y-70248101D01*
X20546123Y-70248101D02*
X20641361Y-70200482D01*
X20641361Y-70200482D02*
X20736600Y-70105244D01*
X20736600Y-70105244D02*
X20784219Y-69962387D01*
X20784219Y-69962387D02*
X20784219Y-69724292D01*
X83044219Y-47287673D02*
X82044219Y-47287673D01*
X82044219Y-47287673D02*
X82044219Y-47525768D01*
X82044219Y-47525768D02*
X82091838Y-47668625D01*
X82091838Y-47668625D02*
X82187076Y-47763863D01*
X82187076Y-47763863D02*
X82282314Y-47811482D01*
X82282314Y-47811482D02*
X82472790Y-47859101D01*
X82472790Y-47859101D02*
X82615647Y-47859101D01*
X82615647Y-47859101D02*
X82806123Y-47811482D01*
X82806123Y-47811482D02*
X82901361Y-47763863D01*
X82901361Y-47763863D02*
X82996600Y-47668625D01*
X82996600Y-47668625D02*
X83044219Y-47525768D01*
X83044219Y-47525768D02*
X83044219Y-47287673D01*
X82044219Y-48478149D02*
X82044219Y-48668625D01*
X82044219Y-48668625D02*
X82091838Y-48763863D01*
X82091838Y-48763863D02*
X82187076Y-48859101D01*
X82187076Y-48859101D02*
X82377552Y-48906720D01*
X82377552Y-48906720D02*
X82710885Y-48906720D01*
X82710885Y-48906720D02*
X82901361Y-48859101D01*
X82901361Y-48859101D02*
X82996600Y-48763863D01*
X82996600Y-48763863D02*
X83044219Y-48668625D01*
X83044219Y-48668625D02*
X83044219Y-48478149D01*
X83044219Y-48478149D02*
X82996600Y-48382911D01*
X82996600Y-48382911D02*
X82901361Y-48287673D01*
X82901361Y-48287673D02*
X82710885Y-48240054D01*
X82710885Y-48240054D02*
X82377552Y-48240054D01*
X82377552Y-48240054D02*
X82187076Y-48287673D01*
X82187076Y-48287673D02*
X82091838Y-48382911D01*
X82091838Y-48382911D02*
X82044219Y-48478149D01*
X82044219Y-49335292D02*
X82853742Y-49335292D01*
X82853742Y-49335292D02*
X82948980Y-49382911D01*
X82948980Y-49382911D02*
X82996600Y-49430530D01*
X82996600Y-49430530D02*
X83044219Y-49525768D01*
X83044219Y-49525768D02*
X83044219Y-49716244D01*
X83044219Y-49716244D02*
X82996600Y-49811482D01*
X82996600Y-49811482D02*
X82948980Y-49859101D01*
X82948980Y-49859101D02*
X82853742Y-49906720D01*
X82853742Y-49906720D02*
X82044219Y-49906720D01*
X82044219Y-50240054D02*
X82044219Y-50811482D01*
X83044219Y-50525768D02*
X82044219Y-50525768D01*
X79631219Y-69295863D02*
X79631219Y-68819673D01*
X79631219Y-68819673D02*
X80107409Y-68772054D01*
X80107409Y-68772054D02*
X80059790Y-68819673D01*
X80059790Y-68819673D02*
X80012171Y-68914911D01*
X80012171Y-68914911D02*
X80012171Y-69153006D01*
X80012171Y-69153006D02*
X80059790Y-69248244D01*
X80059790Y-69248244D02*
X80107409Y-69295863D01*
X80107409Y-69295863D02*
X80202647Y-69343482D01*
X80202647Y-69343482D02*
X80440742Y-69343482D01*
X80440742Y-69343482D02*
X80535980Y-69295863D01*
X80535980Y-69295863D02*
X80583600Y-69248244D01*
X80583600Y-69248244D02*
X80631219Y-69153006D01*
X80631219Y-69153006D02*
X80631219Y-68914911D01*
X80631219Y-68914911D02*
X80583600Y-68819673D01*
X80583600Y-68819673D02*
X80535980Y-68772054D01*
X79631219Y-69629197D02*
X80631219Y-69962530D01*
X80631219Y-69962530D02*
X79631219Y-70295863D01*
X19831838Y-29200482D02*
X19784219Y-29105244D01*
X19784219Y-29105244D02*
X19784219Y-28962387D01*
X19784219Y-28962387D02*
X19831838Y-28819530D01*
X19831838Y-28819530D02*
X19927076Y-28724292D01*
X19927076Y-28724292D02*
X20022314Y-28676673D01*
X20022314Y-28676673D02*
X20212790Y-28629054D01*
X20212790Y-28629054D02*
X20355647Y-28629054D01*
X20355647Y-28629054D02*
X20546123Y-28676673D01*
X20546123Y-28676673D02*
X20641361Y-28724292D01*
X20641361Y-28724292D02*
X20736600Y-28819530D01*
X20736600Y-28819530D02*
X20784219Y-28962387D01*
X20784219Y-28962387D02*
X20784219Y-29057625D01*
X20784219Y-29057625D02*
X20736600Y-29200482D01*
X20736600Y-29200482D02*
X20688980Y-29248101D01*
X20688980Y-29248101D02*
X20355647Y-29248101D01*
X20355647Y-29248101D02*
X20355647Y-29057625D01*
X20784219Y-29676673D02*
X19784219Y-29676673D01*
X19784219Y-29676673D02*
X20784219Y-30248101D01*
X20784219Y-30248101D02*
X19784219Y-30248101D01*
X20784219Y-30724292D02*
X19784219Y-30724292D01*
X19784219Y-30724292D02*
X19784219Y-30962387D01*
X19784219Y-30962387D02*
X19831838Y-31105244D01*
X19831838Y-31105244D02*
X19927076Y-31200482D01*
X19927076Y-31200482D02*
X20022314Y-31248101D01*
X20022314Y-31248101D02*
X20212790Y-31295720D01*
X20212790Y-31295720D02*
X20355647Y-31295720D01*
X20355647Y-31295720D02*
X20546123Y-31248101D01*
X20546123Y-31248101D02*
X20641361Y-31200482D01*
X20641361Y-31200482D02*
X20736600Y-31105244D01*
X20736600Y-31105244D02*
X20784219Y-30962387D01*
X20784219Y-30962387D02*
X20784219Y-30724292D01*
X101231219Y-61479863D02*
X101231219Y-61003673D01*
X101231219Y-61003673D02*
X101707409Y-60956054D01*
X101707409Y-60956054D02*
X101659790Y-61003673D01*
X101659790Y-61003673D02*
X101612171Y-61098911D01*
X101612171Y-61098911D02*
X101612171Y-61337006D01*
X101612171Y-61337006D02*
X101659790Y-61432244D01*
X101659790Y-61432244D02*
X101707409Y-61479863D01*
X101707409Y-61479863D02*
X101802647Y-61527482D01*
X101802647Y-61527482D02*
X102040742Y-61527482D01*
X102040742Y-61527482D02*
X102135980Y-61479863D01*
X102135980Y-61479863D02*
X102183600Y-61432244D01*
X102183600Y-61432244D02*
X102231219Y-61337006D01*
X102231219Y-61337006D02*
X102231219Y-61098911D01*
X102231219Y-61098911D02*
X102183600Y-61003673D01*
X102183600Y-61003673D02*
X102135980Y-60956054D01*
X101231219Y-61813197D02*
X102231219Y-62146530D01*
X102231219Y-62146530D02*
X101231219Y-62479863D01*
X58031219Y-22479863D02*
X58031219Y-22003673D01*
X58031219Y-22003673D02*
X58507409Y-21956054D01*
X58507409Y-21956054D02*
X58459790Y-22003673D01*
X58459790Y-22003673D02*
X58412171Y-22098911D01*
X58412171Y-22098911D02*
X58412171Y-22337006D01*
X58412171Y-22337006D02*
X58459790Y-22432244D01*
X58459790Y-22432244D02*
X58507409Y-22479863D01*
X58507409Y-22479863D02*
X58602647Y-22527482D01*
X58602647Y-22527482D02*
X58840742Y-22527482D01*
X58840742Y-22527482D02*
X58935980Y-22479863D01*
X58935980Y-22479863D02*
X58983600Y-22432244D01*
X58983600Y-22432244D02*
X59031219Y-22337006D01*
X59031219Y-22337006D02*
X59031219Y-22098911D01*
X59031219Y-22098911D02*
X58983600Y-22003673D01*
X58983600Y-22003673D02*
X58935980Y-21956054D01*
X58031219Y-22813197D02*
X59031219Y-23146530D01*
X59031219Y-23146530D02*
X58031219Y-23479863D01*
X39971219Y-21876673D02*
X38971219Y-21876673D01*
X38971219Y-21876673D02*
X38971219Y-22114768D01*
X38971219Y-22114768D02*
X39018838Y-22257625D01*
X39018838Y-22257625D02*
X39114076Y-22352863D01*
X39114076Y-22352863D02*
X39209314Y-22400482D01*
X39209314Y-22400482D02*
X39399790Y-22448101D01*
X39399790Y-22448101D02*
X39542647Y-22448101D01*
X39542647Y-22448101D02*
X39733123Y-22400482D01*
X39733123Y-22400482D02*
X39828361Y-22352863D01*
X39828361Y-22352863D02*
X39923600Y-22257625D01*
X39923600Y-22257625D02*
X39971219Y-22114768D01*
X39971219Y-22114768D02*
X39971219Y-21876673D01*
X39971219Y-22876673D02*
X38971219Y-22876673D01*
X39971219Y-23352863D02*
X38971219Y-23352863D01*
X38971219Y-23352863D02*
X39971219Y-23924291D01*
X39971219Y-23924291D02*
X38971219Y-23924291D01*
X84631838Y-68200482D02*
X84584219Y-68105244D01*
X84584219Y-68105244D02*
X84584219Y-67962387D01*
X84584219Y-67962387D02*
X84631838Y-67819530D01*
X84631838Y-67819530D02*
X84727076Y-67724292D01*
X84727076Y-67724292D02*
X84822314Y-67676673D01*
X84822314Y-67676673D02*
X85012790Y-67629054D01*
X85012790Y-67629054D02*
X85155647Y-67629054D01*
X85155647Y-67629054D02*
X85346123Y-67676673D01*
X85346123Y-67676673D02*
X85441361Y-67724292D01*
X85441361Y-67724292D02*
X85536600Y-67819530D01*
X85536600Y-67819530D02*
X85584219Y-67962387D01*
X85584219Y-67962387D02*
X85584219Y-68057625D01*
X85584219Y-68057625D02*
X85536600Y-68200482D01*
X85536600Y-68200482D02*
X85488980Y-68248101D01*
X85488980Y-68248101D02*
X85155647Y-68248101D01*
X85155647Y-68248101D02*
X85155647Y-68057625D01*
X85584219Y-68676673D02*
X84584219Y-68676673D01*
X84584219Y-68676673D02*
X85584219Y-69248101D01*
X85584219Y-69248101D02*
X84584219Y-69248101D01*
X85584219Y-69724292D02*
X84584219Y-69724292D01*
X84584219Y-69724292D02*
X84584219Y-69962387D01*
X84584219Y-69962387D02*
X84631838Y-70105244D01*
X84631838Y-70105244D02*
X84727076Y-70200482D01*
X84727076Y-70200482D02*
X84822314Y-70248101D01*
X84822314Y-70248101D02*
X85012790Y-70295720D01*
X85012790Y-70295720D02*
X85155647Y-70295720D01*
X85155647Y-70295720D02*
X85346123Y-70248101D01*
X85346123Y-70248101D02*
X85441361Y-70200482D01*
X85441361Y-70200482D02*
X85536600Y-70105244D01*
X85536600Y-70105244D02*
X85584219Y-69962387D01*
X85584219Y-69962387D02*
X85584219Y-69724292D01*
X83171219Y-21876673D02*
X82171219Y-21876673D01*
X82171219Y-21876673D02*
X82171219Y-22114768D01*
X82171219Y-22114768D02*
X82218838Y-22257625D01*
X82218838Y-22257625D02*
X82314076Y-22352863D01*
X82314076Y-22352863D02*
X82409314Y-22400482D01*
X82409314Y-22400482D02*
X82599790Y-22448101D01*
X82599790Y-22448101D02*
X82742647Y-22448101D01*
X82742647Y-22448101D02*
X82933123Y-22400482D01*
X82933123Y-22400482D02*
X83028361Y-22352863D01*
X83028361Y-22352863D02*
X83123600Y-22257625D01*
X83123600Y-22257625D02*
X83171219Y-22114768D01*
X83171219Y-22114768D02*
X83171219Y-21876673D01*
X83171219Y-22876673D02*
X82171219Y-22876673D01*
X83171219Y-23352863D02*
X82171219Y-23352863D01*
X82171219Y-23352863D02*
X83171219Y-23924291D01*
X83171219Y-23924291D02*
X82171219Y-23924291D01*
X14831219Y-22479863D02*
X14831219Y-22003673D01*
X14831219Y-22003673D02*
X15307409Y-21956054D01*
X15307409Y-21956054D02*
X15259790Y-22003673D01*
X15259790Y-22003673D02*
X15212171Y-22098911D01*
X15212171Y-22098911D02*
X15212171Y-22337006D01*
X15212171Y-22337006D02*
X15259790Y-22432244D01*
X15259790Y-22432244D02*
X15307409Y-22479863D01*
X15307409Y-22479863D02*
X15402647Y-22527482D01*
X15402647Y-22527482D02*
X15640742Y-22527482D01*
X15640742Y-22527482D02*
X15735980Y-22479863D01*
X15735980Y-22479863D02*
X15783600Y-22432244D01*
X15783600Y-22432244D02*
X15831219Y-22337006D01*
X15831219Y-22337006D02*
X15831219Y-22098911D01*
X15831219Y-22098911D02*
X15783600Y-22003673D01*
X15783600Y-22003673D02*
X15735980Y-21956054D01*
X14831219Y-22813197D02*
X15831219Y-23146530D01*
X15831219Y-23146530D02*
X14831219Y-23479863D01*
X84758838Y-22400482D02*
X84711219Y-22305244D01*
X84711219Y-22305244D02*
X84711219Y-22162387D01*
X84711219Y-22162387D02*
X84758838Y-22019530D01*
X84758838Y-22019530D02*
X84854076Y-21924292D01*
X84854076Y-21924292D02*
X84949314Y-21876673D01*
X84949314Y-21876673D02*
X85139790Y-21829054D01*
X85139790Y-21829054D02*
X85282647Y-21829054D01*
X85282647Y-21829054D02*
X85473123Y-21876673D01*
X85473123Y-21876673D02*
X85568361Y-21924292D01*
X85568361Y-21924292D02*
X85663600Y-22019530D01*
X85663600Y-22019530D02*
X85711219Y-22162387D01*
X85711219Y-22162387D02*
X85711219Y-22257625D01*
X85711219Y-22257625D02*
X85663600Y-22400482D01*
X85663600Y-22400482D02*
X85615980Y-22448101D01*
X85615980Y-22448101D02*
X85282647Y-22448101D01*
X85282647Y-22448101D02*
X85282647Y-22257625D01*
X85711219Y-22876673D02*
X84711219Y-22876673D01*
X84711219Y-22876673D02*
X85711219Y-23448101D01*
X85711219Y-23448101D02*
X84711219Y-23448101D01*
X85711219Y-23924292D02*
X84711219Y-23924292D01*
X84711219Y-23924292D02*
X84711219Y-24162387D01*
X84711219Y-24162387D02*
X84758838Y-24305244D01*
X84758838Y-24305244D02*
X84854076Y-24400482D01*
X84854076Y-24400482D02*
X84949314Y-24448101D01*
X84949314Y-24448101D02*
X85139790Y-24495720D01*
X85139790Y-24495720D02*
X85282647Y-24495720D01*
X85282647Y-24495720D02*
X85473123Y-24448101D01*
X85473123Y-24448101D02*
X85568361Y-24400482D01*
X85568361Y-24400482D02*
X85663600Y-24305244D01*
X85663600Y-24305244D02*
X85711219Y-24162387D01*
X85711219Y-24162387D02*
X85711219Y-23924292D01*
X63158838Y-61400482D02*
X63111219Y-61305244D01*
X63111219Y-61305244D02*
X63111219Y-61162387D01*
X63111219Y-61162387D02*
X63158838Y-61019530D01*
X63158838Y-61019530D02*
X63254076Y-60924292D01*
X63254076Y-60924292D02*
X63349314Y-60876673D01*
X63349314Y-60876673D02*
X63539790Y-60829054D01*
X63539790Y-60829054D02*
X63682647Y-60829054D01*
X63682647Y-60829054D02*
X63873123Y-60876673D01*
X63873123Y-60876673D02*
X63968361Y-60924292D01*
X63968361Y-60924292D02*
X64063600Y-61019530D01*
X64063600Y-61019530D02*
X64111219Y-61162387D01*
X64111219Y-61162387D02*
X64111219Y-61257625D01*
X64111219Y-61257625D02*
X64063600Y-61400482D01*
X64063600Y-61400482D02*
X64015980Y-61448101D01*
X64015980Y-61448101D02*
X63682647Y-61448101D01*
X63682647Y-61448101D02*
X63682647Y-61257625D01*
X64111219Y-61876673D02*
X63111219Y-61876673D01*
X63111219Y-61876673D02*
X64111219Y-62448101D01*
X64111219Y-62448101D02*
X63111219Y-62448101D01*
X64111219Y-62924292D02*
X63111219Y-62924292D01*
X63111219Y-62924292D02*
X63111219Y-63162387D01*
X63111219Y-63162387D02*
X63158838Y-63305244D01*
X63158838Y-63305244D02*
X63254076Y-63400482D01*
X63254076Y-63400482D02*
X63349314Y-63448101D01*
X63349314Y-63448101D02*
X63539790Y-63495720D01*
X63539790Y-63495720D02*
X63682647Y-63495720D01*
X63682647Y-63495720D02*
X63873123Y-63448101D01*
X63873123Y-63448101D02*
X63968361Y-63400482D01*
X63968361Y-63400482D02*
X64063600Y-63305244D01*
X64063600Y-63305244D02*
X64111219Y-63162387D01*
X64111219Y-63162387D02*
X64111219Y-62924292D01*
X58031219Y-10795863D02*
X58031219Y-10319673D01*
X58031219Y-10319673D02*
X58507409Y-10272054D01*
X58507409Y-10272054D02*
X58459790Y-10319673D01*
X58459790Y-10319673D02*
X58412171Y-10414911D01*
X58412171Y-10414911D02*
X58412171Y-10653006D01*
X58412171Y-10653006D02*
X58459790Y-10748244D01*
X58459790Y-10748244D02*
X58507409Y-10795863D01*
X58507409Y-10795863D02*
X58602647Y-10843482D01*
X58602647Y-10843482D02*
X58840742Y-10843482D01*
X58840742Y-10843482D02*
X58935980Y-10795863D01*
X58935980Y-10795863D02*
X58983600Y-10748244D01*
X58983600Y-10748244D02*
X59031219Y-10653006D01*
X59031219Y-10653006D02*
X59031219Y-10414911D01*
X59031219Y-10414911D02*
X58983600Y-10319673D01*
X58983600Y-10319673D02*
X58935980Y-10272054D01*
X58031219Y-11129197D02*
X59031219Y-11462530D01*
X59031219Y-11462530D02*
X58031219Y-11795863D01*
X63031838Y-68200482D02*
X62984219Y-68105244D01*
X62984219Y-68105244D02*
X62984219Y-67962387D01*
X62984219Y-67962387D02*
X63031838Y-67819530D01*
X63031838Y-67819530D02*
X63127076Y-67724292D01*
X63127076Y-67724292D02*
X63222314Y-67676673D01*
X63222314Y-67676673D02*
X63412790Y-67629054D01*
X63412790Y-67629054D02*
X63555647Y-67629054D01*
X63555647Y-67629054D02*
X63746123Y-67676673D01*
X63746123Y-67676673D02*
X63841361Y-67724292D01*
X63841361Y-67724292D02*
X63936600Y-67819530D01*
X63936600Y-67819530D02*
X63984219Y-67962387D01*
X63984219Y-67962387D02*
X63984219Y-68057625D01*
X63984219Y-68057625D02*
X63936600Y-68200482D01*
X63936600Y-68200482D02*
X63888980Y-68248101D01*
X63888980Y-68248101D02*
X63555647Y-68248101D01*
X63555647Y-68248101D02*
X63555647Y-68057625D01*
X63984219Y-68676673D02*
X62984219Y-68676673D01*
X62984219Y-68676673D02*
X63984219Y-69248101D01*
X63984219Y-69248101D02*
X62984219Y-69248101D01*
X63984219Y-69724292D02*
X62984219Y-69724292D01*
X62984219Y-69724292D02*
X62984219Y-69962387D01*
X62984219Y-69962387D02*
X63031838Y-70105244D01*
X63031838Y-70105244D02*
X63127076Y-70200482D01*
X63127076Y-70200482D02*
X63222314Y-70248101D01*
X63222314Y-70248101D02*
X63412790Y-70295720D01*
X63412790Y-70295720D02*
X63555647Y-70295720D01*
X63555647Y-70295720D02*
X63746123Y-70248101D01*
X63746123Y-70248101D02*
X63841361Y-70200482D01*
X63841361Y-70200482D02*
X63936600Y-70105244D01*
X63936600Y-70105244D02*
X63984219Y-69962387D01*
X63984219Y-69962387D02*
X63984219Y-69724292D01*
X106231838Y-48700482D02*
X106184219Y-48605244D01*
X106184219Y-48605244D02*
X106184219Y-48462387D01*
X106184219Y-48462387D02*
X106231838Y-48319530D01*
X106231838Y-48319530D02*
X106327076Y-48224292D01*
X106327076Y-48224292D02*
X106422314Y-48176673D01*
X106422314Y-48176673D02*
X106612790Y-48129054D01*
X106612790Y-48129054D02*
X106755647Y-48129054D01*
X106755647Y-48129054D02*
X106946123Y-48176673D01*
X106946123Y-48176673D02*
X107041361Y-48224292D01*
X107041361Y-48224292D02*
X107136600Y-48319530D01*
X107136600Y-48319530D02*
X107184219Y-48462387D01*
X107184219Y-48462387D02*
X107184219Y-48557625D01*
X107184219Y-48557625D02*
X107136600Y-48700482D01*
X107136600Y-48700482D02*
X107088980Y-48748101D01*
X107088980Y-48748101D02*
X106755647Y-48748101D01*
X106755647Y-48748101D02*
X106755647Y-48557625D01*
X107184219Y-49176673D02*
X106184219Y-49176673D01*
X106184219Y-49176673D02*
X107184219Y-49748101D01*
X107184219Y-49748101D02*
X106184219Y-49748101D01*
X107184219Y-50224292D02*
X106184219Y-50224292D01*
X106184219Y-50224292D02*
X106184219Y-50462387D01*
X106184219Y-50462387D02*
X106231838Y-50605244D01*
X106231838Y-50605244D02*
X106327076Y-50700482D01*
X106327076Y-50700482D02*
X106422314Y-50748101D01*
X106422314Y-50748101D02*
X106612790Y-50795720D01*
X106612790Y-50795720D02*
X106755647Y-50795720D01*
X106755647Y-50795720D02*
X106946123Y-50748101D01*
X106946123Y-50748101D02*
X107041361Y-50700482D01*
X107041361Y-50700482D02*
X107136600Y-50605244D01*
X107136600Y-50605244D02*
X107184219Y-50462387D01*
X107184219Y-50462387D02*
X107184219Y-50224292D01*
X36431219Y-10795863D02*
X36431219Y-10319673D01*
X36431219Y-10319673D02*
X36907409Y-10272054D01*
X36907409Y-10272054D02*
X36859790Y-10319673D01*
X36859790Y-10319673D02*
X36812171Y-10414911D01*
X36812171Y-10414911D02*
X36812171Y-10653006D01*
X36812171Y-10653006D02*
X36859790Y-10748244D01*
X36859790Y-10748244D02*
X36907409Y-10795863D01*
X36907409Y-10795863D02*
X37002647Y-10843482D01*
X37002647Y-10843482D02*
X37240742Y-10843482D01*
X37240742Y-10843482D02*
X37335980Y-10795863D01*
X37335980Y-10795863D02*
X37383600Y-10748244D01*
X37383600Y-10748244D02*
X37431219Y-10653006D01*
X37431219Y-10653006D02*
X37431219Y-10414911D01*
X37431219Y-10414911D02*
X37383600Y-10319673D01*
X37383600Y-10319673D02*
X37335980Y-10272054D01*
X36431219Y-11129197D02*
X37431219Y-11462530D01*
X37431219Y-11462530D02*
X36431219Y-11795863D01*
X104771219Y-21876673D02*
X103771219Y-21876673D01*
X103771219Y-21876673D02*
X103771219Y-22114768D01*
X103771219Y-22114768D02*
X103818838Y-22257625D01*
X103818838Y-22257625D02*
X103914076Y-22352863D01*
X103914076Y-22352863D02*
X104009314Y-22400482D01*
X104009314Y-22400482D02*
X104199790Y-22448101D01*
X104199790Y-22448101D02*
X104342647Y-22448101D01*
X104342647Y-22448101D02*
X104533123Y-22400482D01*
X104533123Y-22400482D02*
X104628361Y-22352863D01*
X104628361Y-22352863D02*
X104723600Y-22257625D01*
X104723600Y-22257625D02*
X104771219Y-22114768D01*
X104771219Y-22114768D02*
X104771219Y-21876673D01*
X104771219Y-22876673D02*
X103771219Y-22876673D01*
X104771219Y-23352863D02*
X103771219Y-23352863D01*
X103771219Y-23352863D02*
X104771219Y-23924291D01*
X104771219Y-23924291D02*
X103771219Y-23924291D01*
X41558838Y-41900482D02*
X41511219Y-41805244D01*
X41511219Y-41805244D02*
X41511219Y-41662387D01*
X41511219Y-41662387D02*
X41558838Y-41519530D01*
X41558838Y-41519530D02*
X41654076Y-41424292D01*
X41654076Y-41424292D02*
X41749314Y-41376673D01*
X41749314Y-41376673D02*
X41939790Y-41329054D01*
X41939790Y-41329054D02*
X42082647Y-41329054D01*
X42082647Y-41329054D02*
X42273123Y-41376673D01*
X42273123Y-41376673D02*
X42368361Y-41424292D01*
X42368361Y-41424292D02*
X42463600Y-41519530D01*
X42463600Y-41519530D02*
X42511219Y-41662387D01*
X42511219Y-41662387D02*
X42511219Y-41757625D01*
X42511219Y-41757625D02*
X42463600Y-41900482D01*
X42463600Y-41900482D02*
X42415980Y-41948101D01*
X42415980Y-41948101D02*
X42082647Y-41948101D01*
X42082647Y-41948101D02*
X42082647Y-41757625D01*
X42511219Y-42376673D02*
X41511219Y-42376673D01*
X41511219Y-42376673D02*
X42511219Y-42948101D01*
X42511219Y-42948101D02*
X41511219Y-42948101D01*
X42511219Y-43424292D02*
X41511219Y-43424292D01*
X41511219Y-43424292D02*
X41511219Y-43662387D01*
X41511219Y-43662387D02*
X41558838Y-43805244D01*
X41558838Y-43805244D02*
X41654076Y-43900482D01*
X41654076Y-43900482D02*
X41749314Y-43948101D01*
X41749314Y-43948101D02*
X41939790Y-43995720D01*
X41939790Y-43995720D02*
X42082647Y-43995720D01*
X42082647Y-43995720D02*
X42273123Y-43948101D01*
X42273123Y-43948101D02*
X42368361Y-43900482D01*
X42368361Y-43900482D02*
X42463600Y-43805244D01*
X42463600Y-43805244D02*
X42511219Y-43662387D01*
X42511219Y-43662387D02*
X42511219Y-43424292D01*
X58031219Y-49795863D02*
X58031219Y-49319673D01*
X58031219Y-49319673D02*
X58507409Y-49272054D01*
X58507409Y-49272054D02*
X58459790Y-49319673D01*
X58459790Y-49319673D02*
X58412171Y-49414911D01*
X58412171Y-49414911D02*
X58412171Y-49653006D01*
X58412171Y-49653006D02*
X58459790Y-49748244D01*
X58459790Y-49748244D02*
X58507409Y-49795863D01*
X58507409Y-49795863D02*
X58602647Y-49843482D01*
X58602647Y-49843482D02*
X58840742Y-49843482D01*
X58840742Y-49843482D02*
X58935980Y-49795863D01*
X58935980Y-49795863D02*
X58983600Y-49748244D01*
X58983600Y-49748244D02*
X59031219Y-49653006D01*
X59031219Y-49653006D02*
X59031219Y-49414911D01*
X59031219Y-49414911D02*
X58983600Y-49319673D01*
X58983600Y-49319673D02*
X58935980Y-49272054D01*
X58031219Y-50129197D02*
X59031219Y-50462530D01*
X59031219Y-50462530D02*
X58031219Y-50795863D01*
X63031838Y-29200482D02*
X62984219Y-29105244D01*
X62984219Y-29105244D02*
X62984219Y-28962387D01*
X62984219Y-28962387D02*
X63031838Y-28819530D01*
X63031838Y-28819530D02*
X63127076Y-28724292D01*
X63127076Y-28724292D02*
X63222314Y-28676673D01*
X63222314Y-28676673D02*
X63412790Y-28629054D01*
X63412790Y-28629054D02*
X63555647Y-28629054D01*
X63555647Y-28629054D02*
X63746123Y-28676673D01*
X63746123Y-28676673D02*
X63841361Y-28724292D01*
X63841361Y-28724292D02*
X63936600Y-28819530D01*
X63936600Y-28819530D02*
X63984219Y-28962387D01*
X63984219Y-28962387D02*
X63984219Y-29057625D01*
X63984219Y-29057625D02*
X63936600Y-29200482D01*
X63936600Y-29200482D02*
X63888980Y-29248101D01*
X63888980Y-29248101D02*
X63555647Y-29248101D01*
X63555647Y-29248101D02*
X63555647Y-29057625D01*
X63984219Y-29676673D02*
X62984219Y-29676673D01*
X62984219Y-29676673D02*
X63984219Y-30248101D01*
X63984219Y-30248101D02*
X62984219Y-30248101D01*
X63984219Y-30724292D02*
X62984219Y-30724292D01*
X62984219Y-30724292D02*
X62984219Y-30962387D01*
X62984219Y-30962387D02*
X63031838Y-31105244D01*
X63031838Y-31105244D02*
X63127076Y-31200482D01*
X63127076Y-31200482D02*
X63222314Y-31248101D01*
X63222314Y-31248101D02*
X63412790Y-31295720D01*
X63412790Y-31295720D02*
X63555647Y-31295720D01*
X63555647Y-31295720D02*
X63746123Y-31248101D01*
X63746123Y-31248101D02*
X63841361Y-31200482D01*
X63841361Y-31200482D02*
X63936600Y-31105244D01*
X63936600Y-31105244D02*
X63984219Y-30962387D01*
X63984219Y-30962387D02*
X63984219Y-30724292D01*
X63031838Y-9700482D02*
X62984219Y-9605244D01*
X62984219Y-9605244D02*
X62984219Y-9462387D01*
X62984219Y-9462387D02*
X63031838Y-9319530D01*
X63031838Y-9319530D02*
X63127076Y-9224292D01*
X63127076Y-9224292D02*
X63222314Y-9176673D01*
X63222314Y-9176673D02*
X63412790Y-9129054D01*
X63412790Y-9129054D02*
X63555647Y-9129054D01*
X63555647Y-9129054D02*
X63746123Y-9176673D01*
X63746123Y-9176673D02*
X63841361Y-9224292D01*
X63841361Y-9224292D02*
X63936600Y-9319530D01*
X63936600Y-9319530D02*
X63984219Y-9462387D01*
X63984219Y-9462387D02*
X63984219Y-9557625D01*
X63984219Y-9557625D02*
X63936600Y-9700482D01*
X63936600Y-9700482D02*
X63888980Y-9748101D01*
X63888980Y-9748101D02*
X63555647Y-9748101D01*
X63555647Y-9748101D02*
X63555647Y-9557625D01*
X63984219Y-10176673D02*
X62984219Y-10176673D01*
X62984219Y-10176673D02*
X63984219Y-10748101D01*
X63984219Y-10748101D02*
X62984219Y-10748101D01*
X63984219Y-11224292D02*
X62984219Y-11224292D01*
X62984219Y-11224292D02*
X62984219Y-11462387D01*
X62984219Y-11462387D02*
X63031838Y-11605244D01*
X63031838Y-11605244D02*
X63127076Y-11700482D01*
X63127076Y-11700482D02*
X63222314Y-11748101D01*
X63222314Y-11748101D02*
X63412790Y-11795720D01*
X63412790Y-11795720D02*
X63555647Y-11795720D01*
X63555647Y-11795720D02*
X63746123Y-11748101D01*
X63746123Y-11748101D02*
X63841361Y-11700482D01*
X63841361Y-11700482D02*
X63936600Y-11605244D01*
X63936600Y-11605244D02*
X63984219Y-11462387D01*
X63984219Y-11462387D02*
X63984219Y-11224292D01*
X36431219Y-49795863D02*
X36431219Y-49319673D01*
X36431219Y-49319673D02*
X36907409Y-49272054D01*
X36907409Y-49272054D02*
X36859790Y-49319673D01*
X36859790Y-49319673D02*
X36812171Y-49414911D01*
X36812171Y-49414911D02*
X36812171Y-49653006D01*
X36812171Y-49653006D02*
X36859790Y-49748244D01*
X36859790Y-49748244D02*
X36907409Y-49795863D01*
X36907409Y-49795863D02*
X37002647Y-49843482D01*
X37002647Y-49843482D02*
X37240742Y-49843482D01*
X37240742Y-49843482D02*
X37335980Y-49795863D01*
X37335980Y-49795863D02*
X37383600Y-49748244D01*
X37383600Y-49748244D02*
X37431219Y-49653006D01*
X37431219Y-49653006D02*
X37431219Y-49414911D01*
X37431219Y-49414911D02*
X37383600Y-49319673D01*
X37383600Y-49319673D02*
X37335980Y-49272054D01*
X36431219Y-50129197D02*
X37431219Y-50462530D01*
X37431219Y-50462530D02*
X36431219Y-50795863D01*
X18244219Y-8287673D02*
X17244219Y-8287673D01*
X17244219Y-8287673D02*
X17244219Y-8525768D01*
X17244219Y-8525768D02*
X17291838Y-8668625D01*
X17291838Y-8668625D02*
X17387076Y-8763863D01*
X17387076Y-8763863D02*
X17482314Y-8811482D01*
X17482314Y-8811482D02*
X17672790Y-8859101D01*
X17672790Y-8859101D02*
X17815647Y-8859101D01*
X17815647Y-8859101D02*
X18006123Y-8811482D01*
X18006123Y-8811482D02*
X18101361Y-8763863D01*
X18101361Y-8763863D02*
X18196600Y-8668625D01*
X18196600Y-8668625D02*
X18244219Y-8525768D01*
X18244219Y-8525768D02*
X18244219Y-8287673D01*
X17244219Y-9478149D02*
X17244219Y-9668625D01*
X17244219Y-9668625D02*
X17291838Y-9763863D01*
X17291838Y-9763863D02*
X17387076Y-9859101D01*
X17387076Y-9859101D02*
X17577552Y-9906720D01*
X17577552Y-9906720D02*
X17910885Y-9906720D01*
X17910885Y-9906720D02*
X18101361Y-9859101D01*
X18101361Y-9859101D02*
X18196600Y-9763863D01*
X18196600Y-9763863D02*
X18244219Y-9668625D01*
X18244219Y-9668625D02*
X18244219Y-9478149D01*
X18244219Y-9478149D02*
X18196600Y-9382911D01*
X18196600Y-9382911D02*
X18101361Y-9287673D01*
X18101361Y-9287673D02*
X17910885Y-9240054D01*
X17910885Y-9240054D02*
X17577552Y-9240054D01*
X17577552Y-9240054D02*
X17387076Y-9287673D01*
X17387076Y-9287673D02*
X17291838Y-9382911D01*
X17291838Y-9382911D02*
X17244219Y-9478149D01*
X17244219Y-10335292D02*
X18053742Y-10335292D01*
X18053742Y-10335292D02*
X18148980Y-10382911D01*
X18148980Y-10382911D02*
X18196600Y-10430530D01*
X18196600Y-10430530D02*
X18244219Y-10525768D01*
X18244219Y-10525768D02*
X18244219Y-10716244D01*
X18244219Y-10716244D02*
X18196600Y-10811482D01*
X18196600Y-10811482D02*
X18148980Y-10859101D01*
X18148980Y-10859101D02*
X18053742Y-10906720D01*
X18053742Y-10906720D02*
X17244219Y-10906720D01*
X17244219Y-11240054D02*
X17244219Y-11811482D01*
X18244219Y-11525768D02*
X17244219Y-11525768D01*
X61571219Y-60876673D02*
X60571219Y-60876673D01*
X60571219Y-60876673D02*
X60571219Y-61114768D01*
X60571219Y-61114768D02*
X60618838Y-61257625D01*
X60618838Y-61257625D02*
X60714076Y-61352863D01*
X60714076Y-61352863D02*
X60809314Y-61400482D01*
X60809314Y-61400482D02*
X60999790Y-61448101D01*
X60999790Y-61448101D02*
X61142647Y-61448101D01*
X61142647Y-61448101D02*
X61333123Y-61400482D01*
X61333123Y-61400482D02*
X61428361Y-61352863D01*
X61428361Y-61352863D02*
X61523600Y-61257625D01*
X61523600Y-61257625D02*
X61571219Y-61114768D01*
X61571219Y-61114768D02*
X61571219Y-60876673D01*
X61571219Y-61876673D02*
X60571219Y-61876673D01*
X61571219Y-62352863D02*
X60571219Y-62352863D01*
X60571219Y-62352863D02*
X61571219Y-62924291D01*
X61571219Y-62924291D02*
X60571219Y-62924291D01*
X83171219Y-60876673D02*
X82171219Y-60876673D01*
X82171219Y-60876673D02*
X82171219Y-61114768D01*
X82171219Y-61114768D02*
X82218838Y-61257625D01*
X82218838Y-61257625D02*
X82314076Y-61352863D01*
X82314076Y-61352863D02*
X82409314Y-61400482D01*
X82409314Y-61400482D02*
X82599790Y-61448101D01*
X82599790Y-61448101D02*
X82742647Y-61448101D01*
X82742647Y-61448101D02*
X82933123Y-61400482D01*
X82933123Y-61400482D02*
X83028361Y-61352863D01*
X83028361Y-61352863D02*
X83123600Y-61257625D01*
X83123600Y-61257625D02*
X83171219Y-61114768D01*
X83171219Y-61114768D02*
X83171219Y-60876673D01*
X83171219Y-61876673D02*
X82171219Y-61876673D01*
X83171219Y-62352863D02*
X82171219Y-62352863D01*
X82171219Y-62352863D02*
X83171219Y-62924291D01*
X83171219Y-62924291D02*
X82171219Y-62924291D01*
X19958838Y-22400482D02*
X19911219Y-22305244D01*
X19911219Y-22305244D02*
X19911219Y-22162387D01*
X19911219Y-22162387D02*
X19958838Y-22019530D01*
X19958838Y-22019530D02*
X20054076Y-21924292D01*
X20054076Y-21924292D02*
X20149314Y-21876673D01*
X20149314Y-21876673D02*
X20339790Y-21829054D01*
X20339790Y-21829054D02*
X20482647Y-21829054D01*
X20482647Y-21829054D02*
X20673123Y-21876673D01*
X20673123Y-21876673D02*
X20768361Y-21924292D01*
X20768361Y-21924292D02*
X20863600Y-22019530D01*
X20863600Y-22019530D02*
X20911219Y-22162387D01*
X20911219Y-22162387D02*
X20911219Y-22257625D01*
X20911219Y-22257625D02*
X20863600Y-22400482D01*
X20863600Y-22400482D02*
X20815980Y-22448101D01*
X20815980Y-22448101D02*
X20482647Y-22448101D01*
X20482647Y-22448101D02*
X20482647Y-22257625D01*
X20911219Y-22876673D02*
X19911219Y-22876673D01*
X19911219Y-22876673D02*
X20911219Y-23448101D01*
X20911219Y-23448101D02*
X19911219Y-23448101D01*
X20911219Y-23924292D02*
X19911219Y-23924292D01*
X19911219Y-23924292D02*
X19911219Y-24162387D01*
X19911219Y-24162387D02*
X19958838Y-24305244D01*
X19958838Y-24305244D02*
X20054076Y-24400482D01*
X20054076Y-24400482D02*
X20149314Y-24448101D01*
X20149314Y-24448101D02*
X20339790Y-24495720D01*
X20339790Y-24495720D02*
X20482647Y-24495720D01*
X20482647Y-24495720D02*
X20673123Y-24448101D01*
X20673123Y-24448101D02*
X20768361Y-24400482D01*
X20768361Y-24400482D02*
X20863600Y-24305244D01*
X20863600Y-24305244D02*
X20911219Y-24162387D01*
X20911219Y-24162387D02*
X20911219Y-23924292D01*
X79631219Y-80979863D02*
X79631219Y-80503673D01*
X79631219Y-80503673D02*
X80107409Y-80456054D01*
X80107409Y-80456054D02*
X80059790Y-80503673D01*
X80059790Y-80503673D02*
X80012171Y-80598911D01*
X80012171Y-80598911D02*
X80012171Y-80837006D01*
X80012171Y-80837006D02*
X80059790Y-80932244D01*
X80059790Y-80932244D02*
X80107409Y-80979863D01*
X80107409Y-80979863D02*
X80202647Y-81027482D01*
X80202647Y-81027482D02*
X80440742Y-81027482D01*
X80440742Y-81027482D02*
X80535980Y-80979863D01*
X80535980Y-80979863D02*
X80583600Y-80932244D01*
X80583600Y-80932244D02*
X80631219Y-80837006D01*
X80631219Y-80837006D02*
X80631219Y-80598911D01*
X80631219Y-80598911D02*
X80583600Y-80503673D01*
X80583600Y-80503673D02*
X80535980Y-80456054D01*
X79631219Y-81313197D02*
X80631219Y-81646530D01*
X80631219Y-81646530D02*
X79631219Y-81979863D01*
X18244219Y-66787673D02*
X17244219Y-66787673D01*
X17244219Y-66787673D02*
X17244219Y-67025768D01*
X17244219Y-67025768D02*
X17291838Y-67168625D01*
X17291838Y-67168625D02*
X17387076Y-67263863D01*
X17387076Y-67263863D02*
X17482314Y-67311482D01*
X17482314Y-67311482D02*
X17672790Y-67359101D01*
X17672790Y-67359101D02*
X17815647Y-67359101D01*
X17815647Y-67359101D02*
X18006123Y-67311482D01*
X18006123Y-67311482D02*
X18101361Y-67263863D01*
X18101361Y-67263863D02*
X18196600Y-67168625D01*
X18196600Y-67168625D02*
X18244219Y-67025768D01*
X18244219Y-67025768D02*
X18244219Y-66787673D01*
X17244219Y-67978149D02*
X17244219Y-68168625D01*
X17244219Y-68168625D02*
X17291838Y-68263863D01*
X17291838Y-68263863D02*
X17387076Y-68359101D01*
X17387076Y-68359101D02*
X17577552Y-68406720D01*
X17577552Y-68406720D02*
X17910885Y-68406720D01*
X17910885Y-68406720D02*
X18101361Y-68359101D01*
X18101361Y-68359101D02*
X18196600Y-68263863D01*
X18196600Y-68263863D02*
X18244219Y-68168625D01*
X18244219Y-68168625D02*
X18244219Y-67978149D01*
X18244219Y-67978149D02*
X18196600Y-67882911D01*
X18196600Y-67882911D02*
X18101361Y-67787673D01*
X18101361Y-67787673D02*
X17910885Y-67740054D01*
X17910885Y-67740054D02*
X17577552Y-67740054D01*
X17577552Y-67740054D02*
X17387076Y-67787673D01*
X17387076Y-67787673D02*
X17291838Y-67882911D01*
X17291838Y-67882911D02*
X17244219Y-67978149D01*
X17244219Y-68835292D02*
X18053742Y-68835292D01*
X18053742Y-68835292D02*
X18148980Y-68882911D01*
X18148980Y-68882911D02*
X18196600Y-68930530D01*
X18196600Y-68930530D02*
X18244219Y-69025768D01*
X18244219Y-69025768D02*
X18244219Y-69216244D01*
X18244219Y-69216244D02*
X18196600Y-69311482D01*
X18196600Y-69311482D02*
X18148980Y-69359101D01*
X18148980Y-69359101D02*
X18053742Y-69406720D01*
X18053742Y-69406720D02*
X17244219Y-69406720D01*
X17244219Y-69740054D02*
X17244219Y-70311482D01*
X18244219Y-70025768D02*
X17244219Y-70025768D01*
X41558838Y-61400482D02*
X41511219Y-61305244D01*
X41511219Y-61305244D02*
X41511219Y-61162387D01*
X41511219Y-61162387D02*
X41558838Y-61019530D01*
X41558838Y-61019530D02*
X41654076Y-60924292D01*
X41654076Y-60924292D02*
X41749314Y-60876673D01*
X41749314Y-60876673D02*
X41939790Y-60829054D01*
X41939790Y-60829054D02*
X42082647Y-60829054D01*
X42082647Y-60829054D02*
X42273123Y-60876673D01*
X42273123Y-60876673D02*
X42368361Y-60924292D01*
X42368361Y-60924292D02*
X42463600Y-61019530D01*
X42463600Y-61019530D02*
X42511219Y-61162387D01*
X42511219Y-61162387D02*
X42511219Y-61257625D01*
X42511219Y-61257625D02*
X42463600Y-61400482D01*
X42463600Y-61400482D02*
X42415980Y-61448101D01*
X42415980Y-61448101D02*
X42082647Y-61448101D01*
X42082647Y-61448101D02*
X42082647Y-61257625D01*
X42511219Y-61876673D02*
X41511219Y-61876673D01*
X41511219Y-61876673D02*
X42511219Y-62448101D01*
X42511219Y-62448101D02*
X41511219Y-62448101D01*
X42511219Y-62924292D02*
X41511219Y-62924292D01*
X41511219Y-62924292D02*
X41511219Y-63162387D01*
X41511219Y-63162387D02*
X41558838Y-63305244D01*
X41558838Y-63305244D02*
X41654076Y-63400482D01*
X41654076Y-63400482D02*
X41749314Y-63448101D01*
X41749314Y-63448101D02*
X41939790Y-63495720D01*
X41939790Y-63495720D02*
X42082647Y-63495720D01*
X42082647Y-63495720D02*
X42273123Y-63448101D01*
X42273123Y-63448101D02*
X42368361Y-63400482D01*
X42368361Y-63400482D02*
X42463600Y-63305244D01*
X42463600Y-63305244D02*
X42511219Y-63162387D01*
X42511219Y-63162387D02*
X42511219Y-62924292D01*
X18371219Y-60876673D02*
X17371219Y-60876673D01*
X17371219Y-60876673D02*
X17371219Y-61114768D01*
X17371219Y-61114768D02*
X17418838Y-61257625D01*
X17418838Y-61257625D02*
X17514076Y-61352863D01*
X17514076Y-61352863D02*
X17609314Y-61400482D01*
X17609314Y-61400482D02*
X17799790Y-61448101D01*
X17799790Y-61448101D02*
X17942647Y-61448101D01*
X17942647Y-61448101D02*
X18133123Y-61400482D01*
X18133123Y-61400482D02*
X18228361Y-61352863D01*
X18228361Y-61352863D02*
X18323600Y-61257625D01*
X18323600Y-61257625D02*
X18371219Y-61114768D01*
X18371219Y-61114768D02*
X18371219Y-60876673D01*
X18371219Y-61876673D02*
X17371219Y-61876673D01*
X18371219Y-62352863D02*
X17371219Y-62352863D01*
X17371219Y-62352863D02*
X18371219Y-62924291D01*
X18371219Y-62924291D02*
X17371219Y-62924291D01*
X58031219Y-61479863D02*
X58031219Y-61003673D01*
X58031219Y-61003673D02*
X58507409Y-60956054D01*
X58507409Y-60956054D02*
X58459790Y-61003673D01*
X58459790Y-61003673D02*
X58412171Y-61098911D01*
X58412171Y-61098911D02*
X58412171Y-61337006D01*
X58412171Y-61337006D02*
X58459790Y-61432244D01*
X58459790Y-61432244D02*
X58507409Y-61479863D01*
X58507409Y-61479863D02*
X58602647Y-61527482D01*
X58602647Y-61527482D02*
X58840742Y-61527482D01*
X58840742Y-61527482D02*
X58935980Y-61479863D01*
X58935980Y-61479863D02*
X58983600Y-61432244D01*
X58983600Y-61432244D02*
X59031219Y-61337006D01*
X59031219Y-61337006D02*
X59031219Y-61098911D01*
X59031219Y-61098911D02*
X58983600Y-61003673D01*
X58983600Y-61003673D02*
X58935980Y-60956054D01*
X58031219Y-61813197D02*
X59031219Y-62146530D01*
X59031219Y-62146530D02*
X58031219Y-62479863D01*
X41558838Y-22400482D02*
X41511219Y-22305244D01*
X41511219Y-22305244D02*
X41511219Y-22162387D01*
X41511219Y-22162387D02*
X41558838Y-22019530D01*
X41558838Y-22019530D02*
X41654076Y-21924292D01*
X41654076Y-21924292D02*
X41749314Y-21876673D01*
X41749314Y-21876673D02*
X41939790Y-21829054D01*
X41939790Y-21829054D02*
X42082647Y-21829054D01*
X42082647Y-21829054D02*
X42273123Y-21876673D01*
X42273123Y-21876673D02*
X42368361Y-21924292D01*
X42368361Y-21924292D02*
X42463600Y-22019530D01*
X42463600Y-22019530D02*
X42511219Y-22162387D01*
X42511219Y-22162387D02*
X42511219Y-22257625D01*
X42511219Y-22257625D02*
X42463600Y-22400482D01*
X42463600Y-22400482D02*
X42415980Y-22448101D01*
X42415980Y-22448101D02*
X42082647Y-22448101D01*
X42082647Y-22448101D02*
X42082647Y-22257625D01*
X42511219Y-22876673D02*
X41511219Y-22876673D01*
X41511219Y-22876673D02*
X42511219Y-23448101D01*
X42511219Y-23448101D02*
X41511219Y-23448101D01*
X42511219Y-23924292D02*
X41511219Y-23924292D01*
X41511219Y-23924292D02*
X41511219Y-24162387D01*
X41511219Y-24162387D02*
X41558838Y-24305244D01*
X41558838Y-24305244D02*
X41654076Y-24400482D01*
X41654076Y-24400482D02*
X41749314Y-24448101D01*
X41749314Y-24448101D02*
X41939790Y-24495720D01*
X41939790Y-24495720D02*
X42082647Y-24495720D01*
X42082647Y-24495720D02*
X42273123Y-24448101D01*
X42273123Y-24448101D02*
X42368361Y-24400482D01*
X42368361Y-24400482D02*
X42463600Y-24305244D01*
X42463600Y-24305244D02*
X42511219Y-24162387D01*
X42511219Y-24162387D02*
X42511219Y-23924292D01*
X58031219Y-80979863D02*
X58031219Y-80503673D01*
X58031219Y-80503673D02*
X58507409Y-80456054D01*
X58507409Y-80456054D02*
X58459790Y-80503673D01*
X58459790Y-80503673D02*
X58412171Y-80598911D01*
X58412171Y-80598911D02*
X58412171Y-80837006D01*
X58412171Y-80837006D02*
X58459790Y-80932244D01*
X58459790Y-80932244D02*
X58507409Y-80979863D01*
X58507409Y-80979863D02*
X58602647Y-81027482D01*
X58602647Y-81027482D02*
X58840742Y-81027482D01*
X58840742Y-81027482D02*
X58935980Y-80979863D01*
X58935980Y-80979863D02*
X58983600Y-80932244D01*
X58983600Y-80932244D02*
X59031219Y-80837006D01*
X59031219Y-80837006D02*
X59031219Y-80598911D01*
X59031219Y-80598911D02*
X58983600Y-80503673D01*
X58983600Y-80503673D02*
X58935980Y-80456054D01*
X58031219Y-81313197D02*
X59031219Y-81646530D01*
X59031219Y-81646530D02*
X58031219Y-81979863D01*
X18371219Y-80376673D02*
X17371219Y-80376673D01*
X17371219Y-80376673D02*
X17371219Y-80614768D01*
X17371219Y-80614768D02*
X17418838Y-80757625D01*
X17418838Y-80757625D02*
X17514076Y-80852863D01*
X17514076Y-80852863D02*
X17609314Y-80900482D01*
X17609314Y-80900482D02*
X17799790Y-80948101D01*
X17799790Y-80948101D02*
X17942647Y-80948101D01*
X17942647Y-80948101D02*
X18133123Y-80900482D01*
X18133123Y-80900482D02*
X18228361Y-80852863D01*
X18228361Y-80852863D02*
X18323600Y-80757625D01*
X18323600Y-80757625D02*
X18371219Y-80614768D01*
X18371219Y-80614768D02*
X18371219Y-80376673D01*
X18371219Y-81376673D02*
X17371219Y-81376673D01*
X18371219Y-81852863D02*
X17371219Y-81852863D01*
X17371219Y-81852863D02*
X18371219Y-82424291D01*
X18371219Y-82424291D02*
X17371219Y-82424291D01*
X14831219Y-49795863D02*
X14831219Y-49319673D01*
X14831219Y-49319673D02*
X15307409Y-49272054D01*
X15307409Y-49272054D02*
X15259790Y-49319673D01*
X15259790Y-49319673D02*
X15212171Y-49414911D01*
X15212171Y-49414911D02*
X15212171Y-49653006D01*
X15212171Y-49653006D02*
X15259790Y-49748244D01*
X15259790Y-49748244D02*
X15307409Y-49795863D01*
X15307409Y-49795863D02*
X15402647Y-49843482D01*
X15402647Y-49843482D02*
X15640742Y-49843482D01*
X15640742Y-49843482D02*
X15735980Y-49795863D01*
X15735980Y-49795863D02*
X15783600Y-49748244D01*
X15783600Y-49748244D02*
X15831219Y-49653006D01*
X15831219Y-49653006D02*
X15831219Y-49414911D01*
X15831219Y-49414911D02*
X15783600Y-49319673D01*
X15783600Y-49319673D02*
X15735980Y-49272054D01*
X14831219Y-50129197D02*
X15831219Y-50462530D01*
X15831219Y-50462530D02*
X14831219Y-50795863D01*
X106358838Y-22400482D02*
X106311219Y-22305244D01*
X106311219Y-22305244D02*
X106311219Y-22162387D01*
X106311219Y-22162387D02*
X106358838Y-22019530D01*
X106358838Y-22019530D02*
X106454076Y-21924292D01*
X106454076Y-21924292D02*
X106549314Y-21876673D01*
X106549314Y-21876673D02*
X106739790Y-21829054D01*
X106739790Y-21829054D02*
X106882647Y-21829054D01*
X106882647Y-21829054D02*
X107073123Y-21876673D01*
X107073123Y-21876673D02*
X107168361Y-21924292D01*
X107168361Y-21924292D02*
X107263600Y-22019530D01*
X107263600Y-22019530D02*
X107311219Y-22162387D01*
X107311219Y-22162387D02*
X107311219Y-22257625D01*
X107311219Y-22257625D02*
X107263600Y-22400482D01*
X107263600Y-22400482D02*
X107215980Y-22448101D01*
X107215980Y-22448101D02*
X106882647Y-22448101D01*
X106882647Y-22448101D02*
X106882647Y-22257625D01*
X107311219Y-22876673D02*
X106311219Y-22876673D01*
X106311219Y-22876673D02*
X107311219Y-23448101D01*
X107311219Y-23448101D02*
X106311219Y-23448101D01*
X107311219Y-23924292D02*
X106311219Y-23924292D01*
X106311219Y-23924292D02*
X106311219Y-24162387D01*
X106311219Y-24162387D02*
X106358838Y-24305244D01*
X106358838Y-24305244D02*
X106454076Y-24400482D01*
X106454076Y-24400482D02*
X106549314Y-24448101D01*
X106549314Y-24448101D02*
X106739790Y-24495720D01*
X106739790Y-24495720D02*
X106882647Y-24495720D01*
X106882647Y-24495720D02*
X107073123Y-24448101D01*
X107073123Y-24448101D02*
X107168361Y-24400482D01*
X107168361Y-24400482D02*
X107263600Y-24305244D01*
X107263600Y-24305244D02*
X107311219Y-24162387D01*
X107311219Y-24162387D02*
X107311219Y-23924292D01*
X61571219Y-80376673D02*
X60571219Y-80376673D01*
X60571219Y-80376673D02*
X60571219Y-80614768D01*
X60571219Y-80614768D02*
X60618838Y-80757625D01*
X60618838Y-80757625D02*
X60714076Y-80852863D01*
X60714076Y-80852863D02*
X60809314Y-80900482D01*
X60809314Y-80900482D02*
X60999790Y-80948101D01*
X60999790Y-80948101D02*
X61142647Y-80948101D01*
X61142647Y-80948101D02*
X61333123Y-80900482D01*
X61333123Y-80900482D02*
X61428361Y-80852863D01*
X61428361Y-80852863D02*
X61523600Y-80757625D01*
X61523600Y-80757625D02*
X61571219Y-80614768D01*
X61571219Y-80614768D02*
X61571219Y-80376673D01*
X61571219Y-81376673D02*
X60571219Y-81376673D01*
X61571219Y-81852863D02*
X60571219Y-81852863D01*
X60571219Y-81852863D02*
X61571219Y-82424291D01*
X61571219Y-82424291D02*
X60571219Y-82424291D01*
X104644219Y-27787673D02*
X103644219Y-27787673D01*
X103644219Y-27787673D02*
X103644219Y-28025768D01*
X103644219Y-28025768D02*
X103691838Y-28168625D01*
X103691838Y-28168625D02*
X103787076Y-28263863D01*
X103787076Y-28263863D02*
X103882314Y-28311482D01*
X103882314Y-28311482D02*
X104072790Y-28359101D01*
X104072790Y-28359101D02*
X104215647Y-28359101D01*
X104215647Y-28359101D02*
X104406123Y-28311482D01*
X104406123Y-28311482D02*
X104501361Y-28263863D01*
X104501361Y-28263863D02*
X104596600Y-28168625D01*
X104596600Y-28168625D02*
X104644219Y-28025768D01*
X104644219Y-28025768D02*
X104644219Y-27787673D01*
X103644219Y-28978149D02*
X103644219Y-29168625D01*
X103644219Y-29168625D02*
X103691838Y-29263863D01*
X103691838Y-29263863D02*
X103787076Y-29359101D01*
X103787076Y-29359101D02*
X103977552Y-29406720D01*
X103977552Y-29406720D02*
X104310885Y-29406720D01*
X104310885Y-29406720D02*
X104501361Y-29359101D01*
X104501361Y-29359101D02*
X104596600Y-29263863D01*
X104596600Y-29263863D02*
X104644219Y-29168625D01*
X104644219Y-29168625D02*
X104644219Y-28978149D01*
X104644219Y-28978149D02*
X104596600Y-28882911D01*
X104596600Y-28882911D02*
X104501361Y-28787673D01*
X104501361Y-28787673D02*
X104310885Y-28740054D01*
X104310885Y-28740054D02*
X103977552Y-28740054D01*
X103977552Y-28740054D02*
X103787076Y-28787673D01*
X103787076Y-28787673D02*
X103691838Y-28882911D01*
X103691838Y-28882911D02*
X103644219Y-28978149D01*
X103644219Y-29835292D02*
X104453742Y-29835292D01*
X104453742Y-29835292D02*
X104548980Y-29882911D01*
X104548980Y-29882911D02*
X104596600Y-29930530D01*
X104596600Y-29930530D02*
X104644219Y-30025768D01*
X104644219Y-30025768D02*
X104644219Y-30216244D01*
X104644219Y-30216244D02*
X104596600Y-30311482D01*
X104596600Y-30311482D02*
X104548980Y-30359101D01*
X104548980Y-30359101D02*
X104453742Y-30406720D01*
X104453742Y-30406720D02*
X103644219Y-30406720D01*
X103644219Y-30740054D02*
X103644219Y-31311482D01*
X104644219Y-31025768D02*
X103644219Y-31025768D01*
X39971219Y-41376673D02*
X38971219Y-41376673D01*
X38971219Y-41376673D02*
X38971219Y-41614768D01*
X38971219Y-41614768D02*
X39018838Y-41757625D01*
X39018838Y-41757625D02*
X39114076Y-41852863D01*
X39114076Y-41852863D02*
X39209314Y-41900482D01*
X39209314Y-41900482D02*
X39399790Y-41948101D01*
X39399790Y-41948101D02*
X39542647Y-41948101D01*
X39542647Y-41948101D02*
X39733123Y-41900482D01*
X39733123Y-41900482D02*
X39828361Y-41852863D01*
X39828361Y-41852863D02*
X39923600Y-41757625D01*
X39923600Y-41757625D02*
X39971219Y-41614768D01*
X39971219Y-41614768D02*
X39971219Y-41376673D01*
X39971219Y-42376673D02*
X38971219Y-42376673D01*
X39971219Y-42852863D02*
X38971219Y-42852863D01*
X38971219Y-42852863D02*
X39971219Y-43424291D01*
X39971219Y-43424291D02*
X38971219Y-43424291D01*
X79631219Y-10795863D02*
X79631219Y-10319673D01*
X79631219Y-10319673D02*
X80107409Y-10272054D01*
X80107409Y-10272054D02*
X80059790Y-10319673D01*
X80059790Y-10319673D02*
X80012171Y-10414911D01*
X80012171Y-10414911D02*
X80012171Y-10653006D01*
X80012171Y-10653006D02*
X80059790Y-10748244D01*
X80059790Y-10748244D02*
X80107409Y-10795863D01*
X80107409Y-10795863D02*
X80202647Y-10843482D01*
X80202647Y-10843482D02*
X80440742Y-10843482D01*
X80440742Y-10843482D02*
X80535980Y-10795863D01*
X80535980Y-10795863D02*
X80583600Y-10748244D01*
X80583600Y-10748244D02*
X80631219Y-10653006D01*
X80631219Y-10653006D02*
X80631219Y-10414911D01*
X80631219Y-10414911D02*
X80583600Y-10319673D01*
X80583600Y-10319673D02*
X80535980Y-10272054D01*
X79631219Y-11129197D02*
X80631219Y-11462530D01*
X80631219Y-11462530D02*
X79631219Y-11795863D01*
X36431219Y-22479863D02*
X36431219Y-22003673D01*
X36431219Y-22003673D02*
X36907409Y-21956054D01*
X36907409Y-21956054D02*
X36859790Y-22003673D01*
X36859790Y-22003673D02*
X36812171Y-22098911D01*
X36812171Y-22098911D02*
X36812171Y-22337006D01*
X36812171Y-22337006D02*
X36859790Y-22432244D01*
X36859790Y-22432244D02*
X36907409Y-22479863D01*
X36907409Y-22479863D02*
X37002647Y-22527482D01*
X37002647Y-22527482D02*
X37240742Y-22527482D01*
X37240742Y-22527482D02*
X37335980Y-22479863D01*
X37335980Y-22479863D02*
X37383600Y-22432244D01*
X37383600Y-22432244D02*
X37431219Y-22337006D01*
X37431219Y-22337006D02*
X37431219Y-22098911D01*
X37431219Y-22098911D02*
X37383600Y-22003673D01*
X37383600Y-22003673D02*
X37335980Y-21956054D01*
X36431219Y-22813197D02*
X37431219Y-23146530D01*
X37431219Y-23146530D02*
X36431219Y-23479863D01*
X106231838Y-29200482D02*
X106184219Y-29105244D01*
X106184219Y-29105244D02*
X106184219Y-28962387D01*
X106184219Y-28962387D02*
X106231838Y-28819530D01*
X106231838Y-28819530D02*
X106327076Y-28724292D01*
X106327076Y-28724292D02*
X106422314Y-28676673D01*
X106422314Y-28676673D02*
X106612790Y-28629054D01*
X106612790Y-28629054D02*
X106755647Y-28629054D01*
X106755647Y-28629054D02*
X106946123Y-28676673D01*
X106946123Y-28676673D02*
X107041361Y-28724292D01*
X107041361Y-28724292D02*
X107136600Y-28819530D01*
X107136600Y-28819530D02*
X107184219Y-28962387D01*
X107184219Y-28962387D02*
X107184219Y-29057625D01*
X107184219Y-29057625D02*
X107136600Y-29200482D01*
X107136600Y-29200482D02*
X107088980Y-29248101D01*
X107088980Y-29248101D02*
X106755647Y-29248101D01*
X106755647Y-29248101D02*
X106755647Y-29057625D01*
X107184219Y-29676673D02*
X106184219Y-29676673D01*
X106184219Y-29676673D02*
X107184219Y-30248101D01*
X107184219Y-30248101D02*
X106184219Y-30248101D01*
X107184219Y-30724292D02*
X106184219Y-30724292D01*
X106184219Y-30724292D02*
X106184219Y-30962387D01*
X106184219Y-30962387D02*
X106231838Y-31105244D01*
X106231838Y-31105244D02*
X106327076Y-31200482D01*
X106327076Y-31200482D02*
X106422314Y-31248101D01*
X106422314Y-31248101D02*
X106612790Y-31295720D01*
X106612790Y-31295720D02*
X106755647Y-31295720D01*
X106755647Y-31295720D02*
X106946123Y-31248101D01*
X106946123Y-31248101D02*
X107041361Y-31200482D01*
X107041361Y-31200482D02*
X107136600Y-31105244D01*
X107136600Y-31105244D02*
X107184219Y-30962387D01*
X107184219Y-30962387D02*
X107184219Y-30724292D01*
X104644219Y-8287673D02*
X103644219Y-8287673D01*
X103644219Y-8287673D02*
X103644219Y-8525768D01*
X103644219Y-8525768D02*
X103691838Y-8668625D01*
X103691838Y-8668625D02*
X103787076Y-8763863D01*
X103787076Y-8763863D02*
X103882314Y-8811482D01*
X103882314Y-8811482D02*
X104072790Y-8859101D01*
X104072790Y-8859101D02*
X104215647Y-8859101D01*
X104215647Y-8859101D02*
X104406123Y-8811482D01*
X104406123Y-8811482D02*
X104501361Y-8763863D01*
X104501361Y-8763863D02*
X104596600Y-8668625D01*
X104596600Y-8668625D02*
X104644219Y-8525768D01*
X104644219Y-8525768D02*
X104644219Y-8287673D01*
X103644219Y-9478149D02*
X103644219Y-9668625D01*
X103644219Y-9668625D02*
X103691838Y-9763863D01*
X103691838Y-9763863D02*
X103787076Y-9859101D01*
X103787076Y-9859101D02*
X103977552Y-9906720D01*
X103977552Y-9906720D02*
X104310885Y-9906720D01*
X104310885Y-9906720D02*
X104501361Y-9859101D01*
X104501361Y-9859101D02*
X104596600Y-9763863D01*
X104596600Y-9763863D02*
X104644219Y-9668625D01*
X104644219Y-9668625D02*
X104644219Y-9478149D01*
X104644219Y-9478149D02*
X104596600Y-9382911D01*
X104596600Y-9382911D02*
X104501361Y-9287673D01*
X104501361Y-9287673D02*
X104310885Y-9240054D01*
X104310885Y-9240054D02*
X103977552Y-9240054D01*
X103977552Y-9240054D02*
X103787076Y-9287673D01*
X103787076Y-9287673D02*
X103691838Y-9382911D01*
X103691838Y-9382911D02*
X103644219Y-9478149D01*
X103644219Y-10335292D02*
X104453742Y-10335292D01*
X104453742Y-10335292D02*
X104548980Y-10382911D01*
X104548980Y-10382911D02*
X104596600Y-10430530D01*
X104596600Y-10430530D02*
X104644219Y-10525768D01*
X104644219Y-10525768D02*
X104644219Y-10716244D01*
X104644219Y-10716244D02*
X104596600Y-10811482D01*
X104596600Y-10811482D02*
X104548980Y-10859101D01*
X104548980Y-10859101D02*
X104453742Y-10906720D01*
X104453742Y-10906720D02*
X103644219Y-10906720D01*
X103644219Y-11240054D02*
X103644219Y-11811482D01*
X104644219Y-11525768D02*
X103644219Y-11525768D01*
X79631219Y-22479863D02*
X79631219Y-22003673D01*
X79631219Y-22003673D02*
X80107409Y-21956054D01*
X80107409Y-21956054D02*
X80059790Y-22003673D01*
X80059790Y-22003673D02*
X80012171Y-22098911D01*
X80012171Y-22098911D02*
X80012171Y-22337006D01*
X80012171Y-22337006D02*
X80059790Y-22432244D01*
X80059790Y-22432244D02*
X80107409Y-22479863D01*
X80107409Y-22479863D02*
X80202647Y-22527482D01*
X80202647Y-22527482D02*
X80440742Y-22527482D01*
X80440742Y-22527482D02*
X80535980Y-22479863D01*
X80535980Y-22479863D02*
X80583600Y-22432244D01*
X80583600Y-22432244D02*
X80631219Y-22337006D01*
X80631219Y-22337006D02*
X80631219Y-22098911D01*
X80631219Y-22098911D02*
X80583600Y-22003673D01*
X80583600Y-22003673D02*
X80535980Y-21956054D01*
X79631219Y-22813197D02*
X80631219Y-23146530D01*
X80631219Y-23146530D02*
X79631219Y-23479863D01*
X79631219Y-49795863D02*
X79631219Y-49319673D01*
X79631219Y-49319673D02*
X80107409Y-49272054D01*
X80107409Y-49272054D02*
X80059790Y-49319673D01*
X80059790Y-49319673D02*
X80012171Y-49414911D01*
X80012171Y-49414911D02*
X80012171Y-49653006D01*
X80012171Y-49653006D02*
X80059790Y-49748244D01*
X80059790Y-49748244D02*
X80107409Y-49795863D01*
X80107409Y-49795863D02*
X80202647Y-49843482D01*
X80202647Y-49843482D02*
X80440742Y-49843482D01*
X80440742Y-49843482D02*
X80535980Y-49795863D01*
X80535980Y-49795863D02*
X80583600Y-49748244D01*
X80583600Y-49748244D02*
X80631219Y-49653006D01*
X80631219Y-49653006D02*
X80631219Y-49414911D01*
X80631219Y-49414911D02*
X80583600Y-49319673D01*
X80583600Y-49319673D02*
X80535980Y-49272054D01*
X79631219Y-50129197D02*
X80631219Y-50462530D01*
X80631219Y-50462530D02*
X79631219Y-50795863D01*
X79631219Y-61479863D02*
X79631219Y-61003673D01*
X79631219Y-61003673D02*
X80107409Y-60956054D01*
X80107409Y-60956054D02*
X80059790Y-61003673D01*
X80059790Y-61003673D02*
X80012171Y-61098911D01*
X80012171Y-61098911D02*
X80012171Y-61337006D01*
X80012171Y-61337006D02*
X80059790Y-61432244D01*
X80059790Y-61432244D02*
X80107409Y-61479863D01*
X80107409Y-61479863D02*
X80202647Y-61527482D01*
X80202647Y-61527482D02*
X80440742Y-61527482D01*
X80440742Y-61527482D02*
X80535980Y-61479863D01*
X80535980Y-61479863D02*
X80583600Y-61432244D01*
X80583600Y-61432244D02*
X80631219Y-61337006D01*
X80631219Y-61337006D02*
X80631219Y-61098911D01*
X80631219Y-61098911D02*
X80583600Y-61003673D01*
X80583600Y-61003673D02*
X80535980Y-60956054D01*
X79631219Y-61813197D02*
X80631219Y-62146530D01*
X80631219Y-62146530D02*
X79631219Y-62479863D01*
X36431219Y-80979863D02*
X36431219Y-80503673D01*
X36431219Y-80503673D02*
X36907409Y-80456054D01*
X36907409Y-80456054D02*
X36859790Y-80503673D01*
X36859790Y-80503673D02*
X36812171Y-80598911D01*
X36812171Y-80598911D02*
X36812171Y-80837006D01*
X36812171Y-80837006D02*
X36859790Y-80932244D01*
X36859790Y-80932244D02*
X36907409Y-80979863D01*
X36907409Y-80979863D02*
X37002647Y-81027482D01*
X37002647Y-81027482D02*
X37240742Y-81027482D01*
X37240742Y-81027482D02*
X37335980Y-80979863D01*
X37335980Y-80979863D02*
X37383600Y-80932244D01*
X37383600Y-80932244D02*
X37431219Y-80837006D01*
X37431219Y-80837006D02*
X37431219Y-80598911D01*
X37431219Y-80598911D02*
X37383600Y-80503673D01*
X37383600Y-80503673D02*
X37335980Y-80456054D01*
X36431219Y-81313197D02*
X37431219Y-81646530D01*
X37431219Y-81646530D02*
X36431219Y-81979863D01*
X18371219Y-41376673D02*
X17371219Y-41376673D01*
X17371219Y-41376673D02*
X17371219Y-41614768D01*
X17371219Y-41614768D02*
X17418838Y-41757625D01*
X17418838Y-41757625D02*
X17514076Y-41852863D01*
X17514076Y-41852863D02*
X17609314Y-41900482D01*
X17609314Y-41900482D02*
X17799790Y-41948101D01*
X17799790Y-41948101D02*
X17942647Y-41948101D01*
X17942647Y-41948101D02*
X18133123Y-41900482D01*
X18133123Y-41900482D02*
X18228361Y-41852863D01*
X18228361Y-41852863D02*
X18323600Y-41757625D01*
X18323600Y-41757625D02*
X18371219Y-41614768D01*
X18371219Y-41614768D02*
X18371219Y-41376673D01*
X18371219Y-42376673D02*
X17371219Y-42376673D01*
X18371219Y-42852863D02*
X17371219Y-42852863D01*
X17371219Y-42852863D02*
X18371219Y-43424291D01*
X18371219Y-43424291D02*
X17371219Y-43424291D01*
X61444219Y-27787673D02*
X60444219Y-27787673D01*
X60444219Y-27787673D02*
X60444219Y-28025768D01*
X60444219Y-28025768D02*
X60491838Y-28168625D01*
X60491838Y-28168625D02*
X60587076Y-28263863D01*
X60587076Y-28263863D02*
X60682314Y-28311482D01*
X60682314Y-28311482D02*
X60872790Y-28359101D01*
X60872790Y-28359101D02*
X61015647Y-28359101D01*
X61015647Y-28359101D02*
X61206123Y-28311482D01*
X61206123Y-28311482D02*
X61301361Y-28263863D01*
X61301361Y-28263863D02*
X61396600Y-28168625D01*
X61396600Y-28168625D02*
X61444219Y-28025768D01*
X61444219Y-28025768D02*
X61444219Y-27787673D01*
X60444219Y-28978149D02*
X60444219Y-29168625D01*
X60444219Y-29168625D02*
X60491838Y-29263863D01*
X60491838Y-29263863D02*
X60587076Y-29359101D01*
X60587076Y-29359101D02*
X60777552Y-29406720D01*
X60777552Y-29406720D02*
X61110885Y-29406720D01*
X61110885Y-29406720D02*
X61301361Y-29359101D01*
X61301361Y-29359101D02*
X61396600Y-29263863D01*
X61396600Y-29263863D02*
X61444219Y-29168625D01*
X61444219Y-29168625D02*
X61444219Y-28978149D01*
X61444219Y-28978149D02*
X61396600Y-28882911D01*
X61396600Y-28882911D02*
X61301361Y-28787673D01*
X61301361Y-28787673D02*
X61110885Y-28740054D01*
X61110885Y-28740054D02*
X60777552Y-28740054D01*
X60777552Y-28740054D02*
X60587076Y-28787673D01*
X60587076Y-28787673D02*
X60491838Y-28882911D01*
X60491838Y-28882911D02*
X60444219Y-28978149D01*
X60444219Y-29835292D02*
X61253742Y-29835292D01*
X61253742Y-29835292D02*
X61348980Y-29882911D01*
X61348980Y-29882911D02*
X61396600Y-29930530D01*
X61396600Y-29930530D02*
X61444219Y-30025768D01*
X61444219Y-30025768D02*
X61444219Y-30216244D01*
X61444219Y-30216244D02*
X61396600Y-30311482D01*
X61396600Y-30311482D02*
X61348980Y-30359101D01*
X61348980Y-30359101D02*
X61253742Y-30406720D01*
X61253742Y-30406720D02*
X60444219Y-30406720D01*
X60444219Y-30740054D02*
X60444219Y-31311482D01*
X61444219Y-31025768D02*
X60444219Y-31025768D01*
X61444219Y-8287673D02*
X60444219Y-8287673D01*
X60444219Y-8287673D02*
X60444219Y-8525768D01*
X60444219Y-8525768D02*
X60491838Y-8668625D01*
X60491838Y-8668625D02*
X60587076Y-8763863D01*
X60587076Y-8763863D02*
X60682314Y-8811482D01*
X60682314Y-8811482D02*
X60872790Y-8859101D01*
X60872790Y-8859101D02*
X61015647Y-8859101D01*
X61015647Y-8859101D02*
X61206123Y-8811482D01*
X61206123Y-8811482D02*
X61301361Y-8763863D01*
X61301361Y-8763863D02*
X61396600Y-8668625D01*
X61396600Y-8668625D02*
X61444219Y-8525768D01*
X61444219Y-8525768D02*
X61444219Y-8287673D01*
X60444219Y-9478149D02*
X60444219Y-9668625D01*
X60444219Y-9668625D02*
X60491838Y-9763863D01*
X60491838Y-9763863D02*
X60587076Y-9859101D01*
X60587076Y-9859101D02*
X60777552Y-9906720D01*
X60777552Y-9906720D02*
X61110885Y-9906720D01*
X61110885Y-9906720D02*
X61301361Y-9859101D01*
X61301361Y-9859101D02*
X61396600Y-9763863D01*
X61396600Y-9763863D02*
X61444219Y-9668625D01*
X61444219Y-9668625D02*
X61444219Y-9478149D01*
X61444219Y-9478149D02*
X61396600Y-9382911D01*
X61396600Y-9382911D02*
X61301361Y-9287673D01*
X61301361Y-9287673D02*
X61110885Y-9240054D01*
X61110885Y-9240054D02*
X60777552Y-9240054D01*
X60777552Y-9240054D02*
X60587076Y-9287673D01*
X60587076Y-9287673D02*
X60491838Y-9382911D01*
X60491838Y-9382911D02*
X60444219Y-9478149D01*
X60444219Y-10335292D02*
X61253742Y-10335292D01*
X61253742Y-10335292D02*
X61348980Y-10382911D01*
X61348980Y-10382911D02*
X61396600Y-10430530D01*
X61396600Y-10430530D02*
X61444219Y-10525768D01*
X61444219Y-10525768D02*
X61444219Y-10716244D01*
X61444219Y-10716244D02*
X61396600Y-10811482D01*
X61396600Y-10811482D02*
X61348980Y-10859101D01*
X61348980Y-10859101D02*
X61253742Y-10906720D01*
X61253742Y-10906720D02*
X60444219Y-10906720D01*
X60444219Y-11240054D02*
X60444219Y-11811482D01*
X61444219Y-11525768D02*
X60444219Y-11525768D01*
X18244219Y-47287673D02*
X17244219Y-47287673D01*
X17244219Y-47287673D02*
X17244219Y-47525768D01*
X17244219Y-47525768D02*
X17291838Y-47668625D01*
X17291838Y-47668625D02*
X17387076Y-47763863D01*
X17387076Y-47763863D02*
X17482314Y-47811482D01*
X17482314Y-47811482D02*
X17672790Y-47859101D01*
X17672790Y-47859101D02*
X17815647Y-47859101D01*
X17815647Y-47859101D02*
X18006123Y-47811482D01*
X18006123Y-47811482D02*
X18101361Y-47763863D01*
X18101361Y-47763863D02*
X18196600Y-47668625D01*
X18196600Y-47668625D02*
X18244219Y-47525768D01*
X18244219Y-47525768D02*
X18244219Y-47287673D01*
X17244219Y-48478149D02*
X17244219Y-48668625D01*
X17244219Y-48668625D02*
X17291838Y-48763863D01*
X17291838Y-48763863D02*
X17387076Y-48859101D01*
X17387076Y-48859101D02*
X17577552Y-48906720D01*
X17577552Y-48906720D02*
X17910885Y-48906720D01*
X17910885Y-48906720D02*
X18101361Y-48859101D01*
X18101361Y-48859101D02*
X18196600Y-48763863D01*
X18196600Y-48763863D02*
X18244219Y-48668625D01*
X18244219Y-48668625D02*
X18244219Y-48478149D01*
X18244219Y-48478149D02*
X18196600Y-48382911D01*
X18196600Y-48382911D02*
X18101361Y-48287673D01*
X18101361Y-48287673D02*
X17910885Y-48240054D01*
X17910885Y-48240054D02*
X17577552Y-48240054D01*
X17577552Y-48240054D02*
X17387076Y-48287673D01*
X17387076Y-48287673D02*
X17291838Y-48382911D01*
X17291838Y-48382911D02*
X17244219Y-48478149D01*
X17244219Y-49335292D02*
X18053742Y-49335292D01*
X18053742Y-49335292D02*
X18148980Y-49382911D01*
X18148980Y-49382911D02*
X18196600Y-49430530D01*
X18196600Y-49430530D02*
X18244219Y-49525768D01*
X18244219Y-49525768D02*
X18244219Y-49716244D01*
X18244219Y-49716244D02*
X18196600Y-49811482D01*
X18196600Y-49811482D02*
X18148980Y-49859101D01*
X18148980Y-49859101D02*
X18053742Y-49906720D01*
X18053742Y-49906720D02*
X17244219Y-49906720D01*
X17244219Y-50240054D02*
X17244219Y-50811482D01*
X18244219Y-50525768D02*
X17244219Y-50525768D01*
X63031838Y-48700482D02*
X62984219Y-48605244D01*
X62984219Y-48605244D02*
X62984219Y-48462387D01*
X62984219Y-48462387D02*
X63031838Y-48319530D01*
X63031838Y-48319530D02*
X63127076Y-48224292D01*
X63127076Y-48224292D02*
X63222314Y-48176673D01*
X63222314Y-48176673D02*
X63412790Y-48129054D01*
X63412790Y-48129054D02*
X63555647Y-48129054D01*
X63555647Y-48129054D02*
X63746123Y-48176673D01*
X63746123Y-48176673D02*
X63841361Y-48224292D01*
X63841361Y-48224292D02*
X63936600Y-48319530D01*
X63936600Y-48319530D02*
X63984219Y-48462387D01*
X63984219Y-48462387D02*
X63984219Y-48557625D01*
X63984219Y-48557625D02*
X63936600Y-48700482D01*
X63936600Y-48700482D02*
X63888980Y-48748101D01*
X63888980Y-48748101D02*
X63555647Y-48748101D01*
X63555647Y-48748101D02*
X63555647Y-48557625D01*
X63984219Y-49176673D02*
X62984219Y-49176673D01*
X62984219Y-49176673D02*
X63984219Y-49748101D01*
X63984219Y-49748101D02*
X62984219Y-49748101D01*
X63984219Y-50224292D02*
X62984219Y-50224292D01*
X62984219Y-50224292D02*
X62984219Y-50462387D01*
X62984219Y-50462387D02*
X63031838Y-50605244D01*
X63031838Y-50605244D02*
X63127076Y-50700482D01*
X63127076Y-50700482D02*
X63222314Y-50748101D01*
X63222314Y-50748101D02*
X63412790Y-50795720D01*
X63412790Y-50795720D02*
X63555647Y-50795720D01*
X63555647Y-50795720D02*
X63746123Y-50748101D01*
X63746123Y-50748101D02*
X63841361Y-50700482D01*
X63841361Y-50700482D02*
X63936600Y-50605244D01*
X63936600Y-50605244D02*
X63984219Y-50462387D01*
X63984219Y-50462387D02*
X63984219Y-50224292D01*
X41431838Y-48700482D02*
X41384219Y-48605244D01*
X41384219Y-48605244D02*
X41384219Y-48462387D01*
X41384219Y-48462387D02*
X41431838Y-48319530D01*
X41431838Y-48319530D02*
X41527076Y-48224292D01*
X41527076Y-48224292D02*
X41622314Y-48176673D01*
X41622314Y-48176673D02*
X41812790Y-48129054D01*
X41812790Y-48129054D02*
X41955647Y-48129054D01*
X41955647Y-48129054D02*
X42146123Y-48176673D01*
X42146123Y-48176673D02*
X42241361Y-48224292D01*
X42241361Y-48224292D02*
X42336600Y-48319530D01*
X42336600Y-48319530D02*
X42384219Y-48462387D01*
X42384219Y-48462387D02*
X42384219Y-48557625D01*
X42384219Y-48557625D02*
X42336600Y-48700482D01*
X42336600Y-48700482D02*
X42288980Y-48748101D01*
X42288980Y-48748101D02*
X41955647Y-48748101D01*
X41955647Y-48748101D02*
X41955647Y-48557625D01*
X42384219Y-49176673D02*
X41384219Y-49176673D01*
X41384219Y-49176673D02*
X42384219Y-49748101D01*
X42384219Y-49748101D02*
X41384219Y-49748101D01*
X42384219Y-50224292D02*
X41384219Y-50224292D01*
X41384219Y-50224292D02*
X41384219Y-50462387D01*
X41384219Y-50462387D02*
X41431838Y-50605244D01*
X41431838Y-50605244D02*
X41527076Y-50700482D01*
X41527076Y-50700482D02*
X41622314Y-50748101D01*
X41622314Y-50748101D02*
X41812790Y-50795720D01*
X41812790Y-50795720D02*
X41955647Y-50795720D01*
X41955647Y-50795720D02*
X42146123Y-50748101D01*
X42146123Y-50748101D02*
X42241361Y-50700482D01*
X42241361Y-50700482D02*
X42336600Y-50605244D01*
X42336600Y-50605244D02*
X42384219Y-50462387D01*
X42384219Y-50462387D02*
X42384219Y-50224292D01*
X101231219Y-22479863D02*
X101231219Y-22003673D01*
X101231219Y-22003673D02*
X101707409Y-21956054D01*
X101707409Y-21956054D02*
X101659790Y-22003673D01*
X101659790Y-22003673D02*
X101612171Y-22098911D01*
X101612171Y-22098911D02*
X101612171Y-22337006D01*
X101612171Y-22337006D02*
X101659790Y-22432244D01*
X101659790Y-22432244D02*
X101707409Y-22479863D01*
X101707409Y-22479863D02*
X101802647Y-22527482D01*
X101802647Y-22527482D02*
X102040742Y-22527482D01*
X102040742Y-22527482D02*
X102135980Y-22479863D01*
X102135980Y-22479863D02*
X102183600Y-22432244D01*
X102183600Y-22432244D02*
X102231219Y-22337006D01*
X102231219Y-22337006D02*
X102231219Y-22098911D01*
X102231219Y-22098911D02*
X102183600Y-22003673D01*
X102183600Y-22003673D02*
X102135980Y-21956054D01*
X101231219Y-22813197D02*
X102231219Y-23146530D01*
X102231219Y-23146530D02*
X101231219Y-23479863D01*
X39844219Y-66787673D02*
X38844219Y-66787673D01*
X38844219Y-66787673D02*
X38844219Y-67025768D01*
X38844219Y-67025768D02*
X38891838Y-67168625D01*
X38891838Y-67168625D02*
X38987076Y-67263863D01*
X38987076Y-67263863D02*
X39082314Y-67311482D01*
X39082314Y-67311482D02*
X39272790Y-67359101D01*
X39272790Y-67359101D02*
X39415647Y-67359101D01*
X39415647Y-67359101D02*
X39606123Y-67311482D01*
X39606123Y-67311482D02*
X39701361Y-67263863D01*
X39701361Y-67263863D02*
X39796600Y-67168625D01*
X39796600Y-67168625D02*
X39844219Y-67025768D01*
X39844219Y-67025768D02*
X39844219Y-66787673D01*
X38844219Y-67978149D02*
X38844219Y-68168625D01*
X38844219Y-68168625D02*
X38891838Y-68263863D01*
X38891838Y-68263863D02*
X38987076Y-68359101D01*
X38987076Y-68359101D02*
X39177552Y-68406720D01*
X39177552Y-68406720D02*
X39510885Y-68406720D01*
X39510885Y-68406720D02*
X39701361Y-68359101D01*
X39701361Y-68359101D02*
X39796600Y-68263863D01*
X39796600Y-68263863D02*
X39844219Y-68168625D01*
X39844219Y-68168625D02*
X39844219Y-67978149D01*
X39844219Y-67978149D02*
X39796600Y-67882911D01*
X39796600Y-67882911D02*
X39701361Y-67787673D01*
X39701361Y-67787673D02*
X39510885Y-67740054D01*
X39510885Y-67740054D02*
X39177552Y-67740054D01*
X39177552Y-67740054D02*
X38987076Y-67787673D01*
X38987076Y-67787673D02*
X38891838Y-67882911D01*
X38891838Y-67882911D02*
X38844219Y-67978149D01*
X38844219Y-68835292D02*
X39653742Y-68835292D01*
X39653742Y-68835292D02*
X39748980Y-68882911D01*
X39748980Y-68882911D02*
X39796600Y-68930530D01*
X39796600Y-68930530D02*
X39844219Y-69025768D01*
X39844219Y-69025768D02*
X39844219Y-69216244D01*
X39844219Y-69216244D02*
X39796600Y-69311482D01*
X39796600Y-69311482D02*
X39748980Y-69359101D01*
X39748980Y-69359101D02*
X39653742Y-69406720D01*
X39653742Y-69406720D02*
X38844219Y-69406720D01*
X38844219Y-69740054D02*
X38844219Y-70311482D01*
X39844219Y-70025768D02*
X38844219Y-70025768D01*
X104771219Y-41376673D02*
X103771219Y-41376673D01*
X103771219Y-41376673D02*
X103771219Y-41614768D01*
X103771219Y-41614768D02*
X103818838Y-41757625D01*
X103818838Y-41757625D02*
X103914076Y-41852863D01*
X103914076Y-41852863D02*
X104009314Y-41900482D01*
X104009314Y-41900482D02*
X104199790Y-41948101D01*
X104199790Y-41948101D02*
X104342647Y-41948101D01*
X104342647Y-41948101D02*
X104533123Y-41900482D01*
X104533123Y-41900482D02*
X104628361Y-41852863D01*
X104628361Y-41852863D02*
X104723600Y-41757625D01*
X104723600Y-41757625D02*
X104771219Y-41614768D01*
X104771219Y-41614768D02*
X104771219Y-41376673D01*
X104771219Y-42376673D02*
X103771219Y-42376673D01*
X104771219Y-42852863D02*
X103771219Y-42852863D01*
X103771219Y-42852863D02*
X104771219Y-43424291D01*
X104771219Y-43424291D02*
X103771219Y-43424291D01*
X58031219Y-30295863D02*
X58031219Y-29819673D01*
X58031219Y-29819673D02*
X58507409Y-29772054D01*
X58507409Y-29772054D02*
X58459790Y-29819673D01*
X58459790Y-29819673D02*
X58412171Y-29914911D01*
X58412171Y-29914911D02*
X58412171Y-30153006D01*
X58412171Y-30153006D02*
X58459790Y-30248244D01*
X58459790Y-30248244D02*
X58507409Y-30295863D01*
X58507409Y-30295863D02*
X58602647Y-30343482D01*
X58602647Y-30343482D02*
X58840742Y-30343482D01*
X58840742Y-30343482D02*
X58935980Y-30295863D01*
X58935980Y-30295863D02*
X58983600Y-30248244D01*
X58983600Y-30248244D02*
X59031219Y-30153006D01*
X59031219Y-30153006D02*
X59031219Y-29914911D01*
X59031219Y-29914911D02*
X58983600Y-29819673D01*
X58983600Y-29819673D02*
X58935980Y-29772054D01*
X58031219Y-30629197D02*
X59031219Y-30962530D01*
X59031219Y-30962530D02*
X58031219Y-31295863D01*
X79631219Y-30295863D02*
X79631219Y-29819673D01*
X79631219Y-29819673D02*
X80107409Y-29772054D01*
X80107409Y-29772054D02*
X80059790Y-29819673D01*
X80059790Y-29819673D02*
X80012171Y-29914911D01*
X80012171Y-29914911D02*
X80012171Y-30153006D01*
X80012171Y-30153006D02*
X80059790Y-30248244D01*
X80059790Y-30248244D02*
X80107409Y-30295863D01*
X80107409Y-30295863D02*
X80202647Y-30343482D01*
X80202647Y-30343482D02*
X80440742Y-30343482D01*
X80440742Y-30343482D02*
X80535980Y-30295863D01*
X80535980Y-30295863D02*
X80583600Y-30248244D01*
X80583600Y-30248244D02*
X80631219Y-30153006D01*
X80631219Y-30153006D02*
X80631219Y-29914911D01*
X80631219Y-29914911D02*
X80583600Y-29819673D01*
X80583600Y-29819673D02*
X80535980Y-29772054D01*
X79631219Y-30629197D02*
X80631219Y-30962530D01*
X80631219Y-30962530D02*
X79631219Y-31295863D01*
X101231219Y-10795863D02*
X101231219Y-10319673D01*
X101231219Y-10319673D02*
X101707409Y-10272054D01*
X101707409Y-10272054D02*
X101659790Y-10319673D01*
X101659790Y-10319673D02*
X101612171Y-10414911D01*
X101612171Y-10414911D02*
X101612171Y-10653006D01*
X101612171Y-10653006D02*
X101659790Y-10748244D01*
X101659790Y-10748244D02*
X101707409Y-10795863D01*
X101707409Y-10795863D02*
X101802647Y-10843482D01*
X101802647Y-10843482D02*
X102040742Y-10843482D01*
X102040742Y-10843482D02*
X102135980Y-10795863D01*
X102135980Y-10795863D02*
X102183600Y-10748244D01*
X102183600Y-10748244D02*
X102231219Y-10653006D01*
X102231219Y-10653006D02*
X102231219Y-10414911D01*
X102231219Y-10414911D02*
X102183600Y-10319673D01*
X102183600Y-10319673D02*
X102135980Y-10272054D01*
X101231219Y-11129197D02*
X102231219Y-11462530D01*
X102231219Y-11462530D02*
X101231219Y-11795863D01*
X14831219Y-10795863D02*
X14831219Y-10319673D01*
X14831219Y-10319673D02*
X15307409Y-10272054D01*
X15307409Y-10272054D02*
X15259790Y-10319673D01*
X15259790Y-10319673D02*
X15212171Y-10414911D01*
X15212171Y-10414911D02*
X15212171Y-10653006D01*
X15212171Y-10653006D02*
X15259790Y-10748244D01*
X15259790Y-10748244D02*
X15307409Y-10795863D01*
X15307409Y-10795863D02*
X15402647Y-10843482D01*
X15402647Y-10843482D02*
X15640742Y-10843482D01*
X15640742Y-10843482D02*
X15735980Y-10795863D01*
X15735980Y-10795863D02*
X15783600Y-10748244D01*
X15783600Y-10748244D02*
X15831219Y-10653006D01*
X15831219Y-10653006D02*
X15831219Y-10414911D01*
X15831219Y-10414911D02*
X15783600Y-10319673D01*
X15783600Y-10319673D02*
X15735980Y-10272054D01*
X14831219Y-11129197D02*
X15831219Y-11462530D01*
X15831219Y-11462530D02*
X14831219Y-11795863D01*
X41558838Y-80900482D02*
X41511219Y-80805244D01*
X41511219Y-80805244D02*
X41511219Y-80662387D01*
X41511219Y-80662387D02*
X41558838Y-80519530D01*
X41558838Y-80519530D02*
X41654076Y-80424292D01*
X41654076Y-80424292D02*
X41749314Y-80376673D01*
X41749314Y-80376673D02*
X41939790Y-80329054D01*
X41939790Y-80329054D02*
X42082647Y-80329054D01*
X42082647Y-80329054D02*
X42273123Y-80376673D01*
X42273123Y-80376673D02*
X42368361Y-80424292D01*
X42368361Y-80424292D02*
X42463600Y-80519530D01*
X42463600Y-80519530D02*
X42511219Y-80662387D01*
X42511219Y-80662387D02*
X42511219Y-80757625D01*
X42511219Y-80757625D02*
X42463600Y-80900482D01*
X42463600Y-80900482D02*
X42415980Y-80948101D01*
X42415980Y-80948101D02*
X42082647Y-80948101D01*
X42082647Y-80948101D02*
X42082647Y-80757625D01*
X42511219Y-81376673D02*
X41511219Y-81376673D01*
X41511219Y-81376673D02*
X42511219Y-81948101D01*
X42511219Y-81948101D02*
X41511219Y-81948101D01*
X42511219Y-82424292D02*
X41511219Y-82424292D01*
X41511219Y-82424292D02*
X41511219Y-82662387D01*
X41511219Y-82662387D02*
X41558838Y-82805244D01*
X41558838Y-82805244D02*
X41654076Y-82900482D01*
X41654076Y-82900482D02*
X41749314Y-82948101D01*
X41749314Y-82948101D02*
X41939790Y-82995720D01*
X41939790Y-82995720D02*
X42082647Y-82995720D01*
X42082647Y-82995720D02*
X42273123Y-82948101D01*
X42273123Y-82948101D02*
X42368361Y-82900482D01*
X42368361Y-82900482D02*
X42463600Y-82805244D01*
X42463600Y-82805244D02*
X42511219Y-82662387D01*
X42511219Y-82662387D02*
X42511219Y-82424292D01*
X36431219Y-30295863D02*
X36431219Y-29819673D01*
X36431219Y-29819673D02*
X36907409Y-29772054D01*
X36907409Y-29772054D02*
X36859790Y-29819673D01*
X36859790Y-29819673D02*
X36812171Y-29914911D01*
X36812171Y-29914911D02*
X36812171Y-30153006D01*
X36812171Y-30153006D02*
X36859790Y-30248244D01*
X36859790Y-30248244D02*
X36907409Y-30295863D01*
X36907409Y-30295863D02*
X37002647Y-30343482D01*
X37002647Y-30343482D02*
X37240742Y-30343482D01*
X37240742Y-30343482D02*
X37335980Y-30295863D01*
X37335980Y-30295863D02*
X37383600Y-30248244D01*
X37383600Y-30248244D02*
X37431219Y-30153006D01*
X37431219Y-30153006D02*
X37431219Y-29914911D01*
X37431219Y-29914911D02*
X37383600Y-29819673D01*
X37383600Y-29819673D02*
X37335980Y-29772054D01*
X36431219Y-30629197D02*
X37431219Y-30962530D01*
X37431219Y-30962530D02*
X36431219Y-31295863D01*
X39844219Y-8287673D02*
X38844219Y-8287673D01*
X38844219Y-8287673D02*
X38844219Y-8525768D01*
X38844219Y-8525768D02*
X38891838Y-8668625D01*
X38891838Y-8668625D02*
X38987076Y-8763863D01*
X38987076Y-8763863D02*
X39082314Y-8811482D01*
X39082314Y-8811482D02*
X39272790Y-8859101D01*
X39272790Y-8859101D02*
X39415647Y-8859101D01*
X39415647Y-8859101D02*
X39606123Y-8811482D01*
X39606123Y-8811482D02*
X39701361Y-8763863D01*
X39701361Y-8763863D02*
X39796600Y-8668625D01*
X39796600Y-8668625D02*
X39844219Y-8525768D01*
X39844219Y-8525768D02*
X39844219Y-8287673D01*
X38844219Y-9478149D02*
X38844219Y-9668625D01*
X38844219Y-9668625D02*
X38891838Y-9763863D01*
X38891838Y-9763863D02*
X38987076Y-9859101D01*
X38987076Y-9859101D02*
X39177552Y-9906720D01*
X39177552Y-9906720D02*
X39510885Y-9906720D01*
X39510885Y-9906720D02*
X39701361Y-9859101D01*
X39701361Y-9859101D02*
X39796600Y-9763863D01*
X39796600Y-9763863D02*
X39844219Y-9668625D01*
X39844219Y-9668625D02*
X39844219Y-9478149D01*
X39844219Y-9478149D02*
X39796600Y-9382911D01*
X39796600Y-9382911D02*
X39701361Y-9287673D01*
X39701361Y-9287673D02*
X39510885Y-9240054D01*
X39510885Y-9240054D02*
X39177552Y-9240054D01*
X39177552Y-9240054D02*
X38987076Y-9287673D01*
X38987076Y-9287673D02*
X38891838Y-9382911D01*
X38891838Y-9382911D02*
X38844219Y-9478149D01*
X38844219Y-10335292D02*
X39653742Y-10335292D01*
X39653742Y-10335292D02*
X39748980Y-10382911D01*
X39748980Y-10382911D02*
X39796600Y-10430530D01*
X39796600Y-10430530D02*
X39844219Y-10525768D01*
X39844219Y-10525768D02*
X39844219Y-10716244D01*
X39844219Y-10716244D02*
X39796600Y-10811482D01*
X39796600Y-10811482D02*
X39748980Y-10859101D01*
X39748980Y-10859101D02*
X39653742Y-10906720D01*
X39653742Y-10906720D02*
X38844219Y-10906720D01*
X38844219Y-11240054D02*
X38844219Y-11811482D01*
X39844219Y-11525768D02*
X38844219Y-11525768D01*
X83044219Y-8287673D02*
X82044219Y-8287673D01*
X82044219Y-8287673D02*
X82044219Y-8525768D01*
X82044219Y-8525768D02*
X82091838Y-8668625D01*
X82091838Y-8668625D02*
X82187076Y-8763863D01*
X82187076Y-8763863D02*
X82282314Y-8811482D01*
X82282314Y-8811482D02*
X82472790Y-8859101D01*
X82472790Y-8859101D02*
X82615647Y-8859101D01*
X82615647Y-8859101D02*
X82806123Y-8811482D01*
X82806123Y-8811482D02*
X82901361Y-8763863D01*
X82901361Y-8763863D02*
X82996600Y-8668625D01*
X82996600Y-8668625D02*
X83044219Y-8525768D01*
X83044219Y-8525768D02*
X83044219Y-8287673D01*
X82044219Y-9478149D02*
X82044219Y-9668625D01*
X82044219Y-9668625D02*
X82091838Y-9763863D01*
X82091838Y-9763863D02*
X82187076Y-9859101D01*
X82187076Y-9859101D02*
X82377552Y-9906720D01*
X82377552Y-9906720D02*
X82710885Y-9906720D01*
X82710885Y-9906720D02*
X82901361Y-9859101D01*
X82901361Y-9859101D02*
X82996600Y-9763863D01*
X82996600Y-9763863D02*
X83044219Y-9668625D01*
X83044219Y-9668625D02*
X83044219Y-9478149D01*
X83044219Y-9478149D02*
X82996600Y-9382911D01*
X82996600Y-9382911D02*
X82901361Y-9287673D01*
X82901361Y-9287673D02*
X82710885Y-9240054D01*
X82710885Y-9240054D02*
X82377552Y-9240054D01*
X82377552Y-9240054D02*
X82187076Y-9287673D01*
X82187076Y-9287673D02*
X82091838Y-9382911D01*
X82091838Y-9382911D02*
X82044219Y-9478149D01*
X82044219Y-10335292D02*
X82853742Y-10335292D01*
X82853742Y-10335292D02*
X82948980Y-10382911D01*
X82948980Y-10382911D02*
X82996600Y-10430530D01*
X82996600Y-10430530D02*
X83044219Y-10525768D01*
X83044219Y-10525768D02*
X83044219Y-10716244D01*
X83044219Y-10716244D02*
X82996600Y-10811482D01*
X82996600Y-10811482D02*
X82948980Y-10859101D01*
X82948980Y-10859101D02*
X82853742Y-10906720D01*
X82853742Y-10906720D02*
X82044219Y-10906720D01*
X82044219Y-11240054D02*
X82044219Y-11811482D01*
X83044219Y-11525768D02*
X82044219Y-11525768D01*
X104771219Y-80376673D02*
X103771219Y-80376673D01*
X103771219Y-80376673D02*
X103771219Y-80614768D01*
X103771219Y-80614768D02*
X103818838Y-80757625D01*
X103818838Y-80757625D02*
X103914076Y-80852863D01*
X103914076Y-80852863D02*
X104009314Y-80900482D01*
X104009314Y-80900482D02*
X104199790Y-80948101D01*
X104199790Y-80948101D02*
X104342647Y-80948101D01*
X104342647Y-80948101D02*
X104533123Y-80900482D01*
X104533123Y-80900482D02*
X104628361Y-80852863D01*
X104628361Y-80852863D02*
X104723600Y-80757625D01*
X104723600Y-80757625D02*
X104771219Y-80614768D01*
X104771219Y-80614768D02*
X104771219Y-80376673D01*
X104771219Y-81376673D02*
X103771219Y-81376673D01*
X104771219Y-81852863D02*
X103771219Y-81852863D01*
X103771219Y-81852863D02*
X104771219Y-82424291D01*
X104771219Y-82424291D02*
X103771219Y-82424291D01*
X83044219Y-27787673D02*
X82044219Y-27787673D01*
X82044219Y-27787673D02*
X82044219Y-28025768D01*
X82044219Y-28025768D02*
X82091838Y-28168625D01*
X82091838Y-28168625D02*
X82187076Y-28263863D01*
X82187076Y-28263863D02*
X82282314Y-28311482D01*
X82282314Y-28311482D02*
X82472790Y-28359101D01*
X82472790Y-28359101D02*
X82615647Y-28359101D01*
X82615647Y-28359101D02*
X82806123Y-28311482D01*
X82806123Y-28311482D02*
X82901361Y-28263863D01*
X82901361Y-28263863D02*
X82996600Y-28168625D01*
X82996600Y-28168625D02*
X83044219Y-28025768D01*
X83044219Y-28025768D02*
X83044219Y-27787673D01*
X82044219Y-28978149D02*
X82044219Y-29168625D01*
X82044219Y-29168625D02*
X82091838Y-29263863D01*
X82091838Y-29263863D02*
X82187076Y-29359101D01*
X82187076Y-29359101D02*
X82377552Y-29406720D01*
X82377552Y-29406720D02*
X82710885Y-29406720D01*
X82710885Y-29406720D02*
X82901361Y-29359101D01*
X82901361Y-29359101D02*
X82996600Y-29263863D01*
X82996600Y-29263863D02*
X83044219Y-29168625D01*
X83044219Y-29168625D02*
X83044219Y-28978149D01*
X83044219Y-28978149D02*
X82996600Y-28882911D01*
X82996600Y-28882911D02*
X82901361Y-28787673D01*
X82901361Y-28787673D02*
X82710885Y-28740054D01*
X82710885Y-28740054D02*
X82377552Y-28740054D01*
X82377552Y-28740054D02*
X82187076Y-28787673D01*
X82187076Y-28787673D02*
X82091838Y-28882911D01*
X82091838Y-28882911D02*
X82044219Y-28978149D01*
X82044219Y-29835292D02*
X82853742Y-29835292D01*
X82853742Y-29835292D02*
X82948980Y-29882911D01*
X82948980Y-29882911D02*
X82996600Y-29930530D01*
X82996600Y-29930530D02*
X83044219Y-30025768D01*
X83044219Y-30025768D02*
X83044219Y-30216244D01*
X83044219Y-30216244D02*
X82996600Y-30311482D01*
X82996600Y-30311482D02*
X82948980Y-30359101D01*
X82948980Y-30359101D02*
X82853742Y-30406720D01*
X82853742Y-30406720D02*
X82044219Y-30406720D01*
X82044219Y-30740054D02*
X82044219Y-31311482D01*
X83044219Y-31025768D02*
X82044219Y-31025768D01*
X18244219Y-27787673D02*
X17244219Y-27787673D01*
X17244219Y-27787673D02*
X17244219Y-28025768D01*
X17244219Y-28025768D02*
X17291838Y-28168625D01*
X17291838Y-28168625D02*
X17387076Y-28263863D01*
X17387076Y-28263863D02*
X17482314Y-28311482D01*
X17482314Y-28311482D02*
X17672790Y-28359101D01*
X17672790Y-28359101D02*
X17815647Y-28359101D01*
X17815647Y-28359101D02*
X18006123Y-28311482D01*
X18006123Y-28311482D02*
X18101361Y-28263863D01*
X18101361Y-28263863D02*
X18196600Y-28168625D01*
X18196600Y-28168625D02*
X18244219Y-28025768D01*
X18244219Y-28025768D02*
X18244219Y-27787673D01*
X17244219Y-28978149D02*
X17244219Y-29168625D01*
X17244219Y-29168625D02*
X17291838Y-29263863D01*
X17291838Y-29263863D02*
X17387076Y-29359101D01*
X17387076Y-29359101D02*
X17577552Y-29406720D01*
X17577552Y-29406720D02*
X17910885Y-29406720D01*
X17910885Y-29406720D02*
X18101361Y-29359101D01*
X18101361Y-29359101D02*
X18196600Y-29263863D01*
X18196600Y-29263863D02*
X18244219Y-29168625D01*
X18244219Y-29168625D02*
X18244219Y-28978149D01*
X18244219Y-28978149D02*
X18196600Y-28882911D01*
X18196600Y-28882911D02*
X18101361Y-28787673D01*
X18101361Y-28787673D02*
X17910885Y-28740054D01*
X17910885Y-28740054D02*
X17577552Y-28740054D01*
X17577552Y-28740054D02*
X17387076Y-28787673D01*
X17387076Y-28787673D02*
X17291838Y-28882911D01*
X17291838Y-28882911D02*
X17244219Y-28978149D01*
X17244219Y-29835292D02*
X18053742Y-29835292D01*
X18053742Y-29835292D02*
X18148980Y-29882911D01*
X18148980Y-29882911D02*
X18196600Y-29930530D01*
X18196600Y-29930530D02*
X18244219Y-30025768D01*
X18244219Y-30025768D02*
X18244219Y-30216244D01*
X18244219Y-30216244D02*
X18196600Y-30311482D01*
X18196600Y-30311482D02*
X18148980Y-30359101D01*
X18148980Y-30359101D02*
X18053742Y-30406720D01*
X18053742Y-30406720D02*
X17244219Y-30406720D01*
X17244219Y-30740054D02*
X17244219Y-31311482D01*
X18244219Y-31025768D02*
X17244219Y-31025768D01*
X36431219Y-61479863D02*
X36431219Y-61003673D01*
X36431219Y-61003673D02*
X36907409Y-60956054D01*
X36907409Y-60956054D02*
X36859790Y-61003673D01*
X36859790Y-61003673D02*
X36812171Y-61098911D01*
X36812171Y-61098911D02*
X36812171Y-61337006D01*
X36812171Y-61337006D02*
X36859790Y-61432244D01*
X36859790Y-61432244D02*
X36907409Y-61479863D01*
X36907409Y-61479863D02*
X37002647Y-61527482D01*
X37002647Y-61527482D02*
X37240742Y-61527482D01*
X37240742Y-61527482D02*
X37335980Y-61479863D01*
X37335980Y-61479863D02*
X37383600Y-61432244D01*
X37383600Y-61432244D02*
X37431219Y-61337006D01*
X37431219Y-61337006D02*
X37431219Y-61098911D01*
X37431219Y-61098911D02*
X37383600Y-61003673D01*
X37383600Y-61003673D02*
X37335980Y-60956054D01*
X36431219Y-61813197D02*
X37431219Y-62146530D01*
X37431219Y-62146530D02*
X36431219Y-62479863D01*
X84758838Y-41900482D02*
X84711219Y-41805244D01*
X84711219Y-41805244D02*
X84711219Y-41662387D01*
X84711219Y-41662387D02*
X84758838Y-41519530D01*
X84758838Y-41519530D02*
X84854076Y-41424292D01*
X84854076Y-41424292D02*
X84949314Y-41376673D01*
X84949314Y-41376673D02*
X85139790Y-41329054D01*
X85139790Y-41329054D02*
X85282647Y-41329054D01*
X85282647Y-41329054D02*
X85473123Y-41376673D01*
X85473123Y-41376673D02*
X85568361Y-41424292D01*
X85568361Y-41424292D02*
X85663600Y-41519530D01*
X85663600Y-41519530D02*
X85711219Y-41662387D01*
X85711219Y-41662387D02*
X85711219Y-41757625D01*
X85711219Y-41757625D02*
X85663600Y-41900482D01*
X85663600Y-41900482D02*
X85615980Y-41948101D01*
X85615980Y-41948101D02*
X85282647Y-41948101D01*
X85282647Y-41948101D02*
X85282647Y-41757625D01*
X85711219Y-42376673D02*
X84711219Y-42376673D01*
X84711219Y-42376673D02*
X85711219Y-42948101D01*
X85711219Y-42948101D02*
X84711219Y-42948101D01*
X85711219Y-43424292D02*
X84711219Y-43424292D01*
X84711219Y-43424292D02*
X84711219Y-43662387D01*
X84711219Y-43662387D02*
X84758838Y-43805244D01*
X84758838Y-43805244D02*
X84854076Y-43900482D01*
X84854076Y-43900482D02*
X84949314Y-43948101D01*
X84949314Y-43948101D02*
X85139790Y-43995720D01*
X85139790Y-43995720D02*
X85282647Y-43995720D01*
X85282647Y-43995720D02*
X85473123Y-43948101D01*
X85473123Y-43948101D02*
X85568361Y-43900482D01*
X85568361Y-43900482D02*
X85663600Y-43805244D01*
X85663600Y-43805244D02*
X85711219Y-43662387D01*
X85711219Y-43662387D02*
X85711219Y-43424292D01*
X41431838Y-9700482D02*
X41384219Y-9605244D01*
X41384219Y-9605244D02*
X41384219Y-9462387D01*
X41384219Y-9462387D02*
X41431838Y-9319530D01*
X41431838Y-9319530D02*
X41527076Y-9224292D01*
X41527076Y-9224292D02*
X41622314Y-9176673D01*
X41622314Y-9176673D02*
X41812790Y-9129054D01*
X41812790Y-9129054D02*
X41955647Y-9129054D01*
X41955647Y-9129054D02*
X42146123Y-9176673D01*
X42146123Y-9176673D02*
X42241361Y-9224292D01*
X42241361Y-9224292D02*
X42336600Y-9319530D01*
X42336600Y-9319530D02*
X42384219Y-9462387D01*
X42384219Y-9462387D02*
X42384219Y-9557625D01*
X42384219Y-9557625D02*
X42336600Y-9700482D01*
X42336600Y-9700482D02*
X42288980Y-9748101D01*
X42288980Y-9748101D02*
X41955647Y-9748101D01*
X41955647Y-9748101D02*
X41955647Y-9557625D01*
X42384219Y-10176673D02*
X41384219Y-10176673D01*
X41384219Y-10176673D02*
X42384219Y-10748101D01*
X42384219Y-10748101D02*
X41384219Y-10748101D01*
X42384219Y-11224292D02*
X41384219Y-11224292D01*
X41384219Y-11224292D02*
X41384219Y-11462387D01*
X41384219Y-11462387D02*
X41431838Y-11605244D01*
X41431838Y-11605244D02*
X41527076Y-11700482D01*
X41527076Y-11700482D02*
X41622314Y-11748101D01*
X41622314Y-11748101D02*
X41812790Y-11795720D01*
X41812790Y-11795720D02*
X41955647Y-11795720D01*
X41955647Y-11795720D02*
X42146123Y-11748101D01*
X42146123Y-11748101D02*
X42241361Y-11700482D01*
X42241361Y-11700482D02*
X42336600Y-11605244D01*
X42336600Y-11605244D02*
X42384219Y-11462387D01*
X42384219Y-11462387D02*
X42384219Y-11224292D01*
X63158838Y-22400482D02*
X63111219Y-22305244D01*
X63111219Y-22305244D02*
X63111219Y-22162387D01*
X63111219Y-22162387D02*
X63158838Y-22019530D01*
X63158838Y-22019530D02*
X63254076Y-21924292D01*
X63254076Y-21924292D02*
X63349314Y-21876673D01*
X63349314Y-21876673D02*
X63539790Y-21829054D01*
X63539790Y-21829054D02*
X63682647Y-21829054D01*
X63682647Y-21829054D02*
X63873123Y-21876673D01*
X63873123Y-21876673D02*
X63968361Y-21924292D01*
X63968361Y-21924292D02*
X64063600Y-22019530D01*
X64063600Y-22019530D02*
X64111219Y-22162387D01*
X64111219Y-22162387D02*
X64111219Y-22257625D01*
X64111219Y-22257625D02*
X64063600Y-22400482D01*
X64063600Y-22400482D02*
X64015980Y-22448101D01*
X64015980Y-22448101D02*
X63682647Y-22448101D01*
X63682647Y-22448101D02*
X63682647Y-22257625D01*
X64111219Y-22876673D02*
X63111219Y-22876673D01*
X63111219Y-22876673D02*
X64111219Y-23448101D01*
X64111219Y-23448101D02*
X63111219Y-23448101D01*
X64111219Y-23924292D02*
X63111219Y-23924292D01*
X63111219Y-23924292D02*
X63111219Y-24162387D01*
X63111219Y-24162387D02*
X63158838Y-24305244D01*
X63158838Y-24305244D02*
X63254076Y-24400482D01*
X63254076Y-24400482D02*
X63349314Y-24448101D01*
X63349314Y-24448101D02*
X63539790Y-24495720D01*
X63539790Y-24495720D02*
X63682647Y-24495720D01*
X63682647Y-24495720D02*
X63873123Y-24448101D01*
X63873123Y-24448101D02*
X63968361Y-24400482D01*
X63968361Y-24400482D02*
X64063600Y-24305244D01*
X64063600Y-24305244D02*
X64111219Y-24162387D01*
X64111219Y-24162387D02*
X64111219Y-23924292D01*
%LPC*%
D11*
%TO.C,KiKit_TO_4*%
X119500000Y-89500000D03*
%TD*%
%TO.C,KiKit_TO_1*%
X2500000Y-2500000D03*
%TD*%
%TO.C,KiKit_TO_3*%
X2500000Y-89500000D03*
%TD*%
%TO.C,KiKit_TO_2*%
X119500000Y-2500000D03*
%TD*%
D12*
%TO.C,J1*%
X36860000Y-14225000D03*
X39400000Y-14225000D03*
X41940000Y-14225000D03*
X41940000Y-19275000D03*
X39400000Y-19275000D03*
X36860000Y-19275000D03*
%TD*%
%TO.C,J1*%
X80060000Y-72725000D03*
X82600000Y-72725000D03*
X85140000Y-72725000D03*
X85140000Y-77775000D03*
X82600000Y-77775000D03*
X80060000Y-77775000D03*
%TD*%
%TO.C,J1*%
X80060000Y-33725000D03*
X82600000Y-33725000D03*
X85140000Y-33725000D03*
X85140000Y-38775000D03*
X82600000Y-38775000D03*
X80060000Y-38775000D03*
%TD*%
%TO.C,J1*%
X58460000Y-72725000D03*
X61000000Y-72725000D03*
X63540000Y-72725000D03*
X63540000Y-77775000D03*
X61000000Y-77775000D03*
X58460000Y-77775000D03*
%TD*%
D13*
%TO.C,KiKit_FID_B_2*%
X112500000Y-2500000D03*
%TD*%
D12*
%TO.C,J1*%
X36860000Y-72725000D03*
X39400000Y-72725000D03*
X41940000Y-72725000D03*
X41940000Y-77775000D03*
X39400000Y-77775000D03*
X36860000Y-77775000D03*
%TD*%
%TO.C,J1*%
X101660000Y-14225000D03*
X104200000Y-14225000D03*
X106740000Y-14225000D03*
X106740000Y-19275000D03*
X104200000Y-19275000D03*
X101660000Y-19275000D03*
%TD*%
%TO.C,J1*%
X101660000Y-72725000D03*
X104200000Y-72725000D03*
X106740000Y-72725000D03*
X106740000Y-77775000D03*
X104200000Y-77775000D03*
X101660000Y-77775000D03*
%TD*%
%TO.C,J1*%
X101660000Y-53225000D03*
X104200000Y-53225000D03*
X106740000Y-53225000D03*
X106740000Y-58275000D03*
X104200000Y-58275000D03*
X101660000Y-58275000D03*
%TD*%
%TO.C,J1*%
X15260000Y-72725000D03*
X17800000Y-72725000D03*
X20340000Y-72725000D03*
X20340000Y-77775000D03*
X17800000Y-77775000D03*
X15260000Y-77775000D03*
%TD*%
%TO.C,J1*%
X101660000Y-33725000D03*
X104200000Y-33725000D03*
X106740000Y-33725000D03*
X106740000Y-38775000D03*
X104200000Y-38775000D03*
X101660000Y-38775000D03*
%TD*%
D13*
%TO.C,KiKit_FID_B_1*%
X9500000Y-2500000D03*
%TD*%
D12*
%TO.C,J1*%
X58460000Y-53225000D03*
X61000000Y-53225000D03*
X63540000Y-53225000D03*
X63540000Y-58275000D03*
X61000000Y-58275000D03*
X58460000Y-58275000D03*
%TD*%
D13*
%TO.C,KiKit_FID_B_4*%
X112500000Y-89500000D03*
%TD*%
D12*
%TO.C,J1*%
X15260000Y-33725000D03*
X17800000Y-33725000D03*
X20340000Y-33725000D03*
X20340000Y-38775000D03*
X17800000Y-38775000D03*
X15260000Y-38775000D03*
%TD*%
%TO.C,J1*%
X36860000Y-53225000D03*
X39400000Y-53225000D03*
X41940000Y-53225000D03*
X41940000Y-58275000D03*
X39400000Y-58275000D03*
X36860000Y-58275000D03*
%TD*%
%TO.C,J1*%
X36860000Y-33725000D03*
X39400000Y-33725000D03*
X41940000Y-33725000D03*
X41940000Y-38775000D03*
X39400000Y-38775000D03*
X36860000Y-38775000D03*
%TD*%
%TO.C,J1*%
X58460000Y-33725000D03*
X61000000Y-33725000D03*
X63540000Y-33725000D03*
X63540000Y-38775000D03*
X61000000Y-38775000D03*
X58460000Y-38775000D03*
%TD*%
%TO.C,J1*%
X15260000Y-14225000D03*
X17800000Y-14225000D03*
X20340000Y-14225000D03*
X20340000Y-19275000D03*
X17800000Y-19275000D03*
X15260000Y-19275000D03*
%TD*%
%TO.C,J1*%
X80060000Y-53225000D03*
X82600000Y-53225000D03*
X85140000Y-53225000D03*
X85140000Y-58275000D03*
X82600000Y-58275000D03*
X80060000Y-58275000D03*
%TD*%
%TO.C,J1*%
X15260000Y-53225000D03*
X17800000Y-53225000D03*
X20340000Y-53225000D03*
X20340000Y-58275000D03*
X17800000Y-58275000D03*
X15260000Y-58275000D03*
%TD*%
%TO.C,J1*%
X80060000Y-14225000D03*
X82600000Y-14225000D03*
X85140000Y-14225000D03*
X85140000Y-19275000D03*
X82600000Y-19275000D03*
X80060000Y-19275000D03*
%TD*%
D13*
%TO.C,KiKit_FID_B_3*%
X9500000Y-89500000D03*
%TD*%
D12*
%TO.C,J1*%
X58460000Y-14225000D03*
X61000000Y-14225000D03*
X63540000Y-14225000D03*
X63540000Y-19275000D03*
X61000000Y-19275000D03*
X58460000Y-19275000D03*
%TD*%
%LPD*%
M02*
