%TF.GenerationSoftware,KiCad,Pcbnew,8.0.4*%
%TF.CreationDate,2024-10-17T13:25:31+11:00*%
%TF.ProjectId,panel,70616e65-6c2e-46b6-9963-61645f706362,rev?*%
%TF.SameCoordinates,Original*%
%TF.FileFunction,Soldermask,Bot*%
%TF.FilePolarity,Negative*%
%FSLAX46Y46*%
G04 Gerber Fmt 4.6, Leading zero omitted, Abs format (unit mm)*
G04 Created by KiCad (PCBNEW 8.0.4) date 2024-10-17 13:25:31*
%MOMM*%
%LPD*%
G01*
G04 APERTURE LIST*
G04 Aperture macros list*
%AMRoundRect*
0 Rectangle with rounded corners*
0 $1 Rounding radius*
0 $2 $3 $4 $5 $6 $7 $8 $9 X,Y pos of 4 corners*
0 Add a 4 corners polygon primitive as box body*
4,1,4,$2,$3,$4,$5,$6,$7,$8,$9,$2,$3,0*
0 Add four circle primitives for the rounded corners*
1,1,$1+$1,$2,$3*
1,1,$1+$1,$4,$5*
1,1,$1+$1,$6,$7*
1,1,$1+$1,$8,$9*
0 Add four rect primitives between the rounded corners*
20,1,$1+$1,$2,$3,$4,$5,0*
20,1,$1+$1,$4,$5,$6,$7,0*
20,1,$1+$1,$6,$7,$8,$9,0*
20,1,$1+$1,$8,$9,$2,$3,0*%
G04 Aperture macros list end*
%ADD10C,1.152000*%
%ADD11RoundRect,0.750000X-0.000010X1.250000X-0.000010X-1.250000X0.000010X-1.250000X0.000010X1.250000X0*%
%ADD12C,2.000000*%
G04 APERTURE END LIST*
D10*
%TO.C,KiKit_TO_4*%
X119500000Y-89500000D03*
%TD*%
%TO.C,KiKit_TO_1*%
X2500000Y-2500000D03*
%TD*%
%TO.C,KiKit_TO_3*%
X2500000Y-89500000D03*
%TD*%
%TO.C,KiKit_TO_2*%
X119500000Y-2500000D03*
%TD*%
D11*
%TO.C,J1*%
X36860000Y-14225000D03*
X39400000Y-14225000D03*
X41940000Y-14225000D03*
X41940000Y-19275000D03*
X39400000Y-19275000D03*
X36860000Y-19275000D03*
%TD*%
%TO.C,J1*%
X80060000Y-72725000D03*
X82600000Y-72725000D03*
X85140000Y-72725000D03*
X85140000Y-77775000D03*
X82600000Y-77775000D03*
X80060000Y-77775000D03*
%TD*%
%TO.C,J1*%
X80060000Y-33725000D03*
X82600000Y-33725000D03*
X85140000Y-33725000D03*
X85140000Y-38775000D03*
X82600000Y-38775000D03*
X80060000Y-38775000D03*
%TD*%
%TO.C,J1*%
X58460000Y-72725000D03*
X61000000Y-72725000D03*
X63540000Y-72725000D03*
X63540000Y-77775000D03*
X61000000Y-77775000D03*
X58460000Y-77775000D03*
%TD*%
D12*
%TO.C,KiKit_FID_B_2*%
X112500000Y-2500000D03*
%TD*%
D11*
%TO.C,J1*%
X36860000Y-72725000D03*
X39400000Y-72725000D03*
X41940000Y-72725000D03*
X41940000Y-77775000D03*
X39400000Y-77775000D03*
X36860000Y-77775000D03*
%TD*%
%TO.C,J1*%
X101660000Y-14225000D03*
X104200000Y-14225000D03*
X106740000Y-14225000D03*
X106740000Y-19275000D03*
X104200000Y-19275000D03*
X101660000Y-19275000D03*
%TD*%
%TO.C,J1*%
X101660000Y-72725000D03*
X104200000Y-72725000D03*
X106740000Y-72725000D03*
X106740000Y-77775000D03*
X104200000Y-77775000D03*
X101660000Y-77775000D03*
%TD*%
%TO.C,J1*%
X101660000Y-53225000D03*
X104200000Y-53225000D03*
X106740000Y-53225000D03*
X106740000Y-58275000D03*
X104200000Y-58275000D03*
X101660000Y-58275000D03*
%TD*%
%TO.C,J1*%
X15260000Y-72725000D03*
X17800000Y-72725000D03*
X20340000Y-72725000D03*
X20340000Y-77775000D03*
X17800000Y-77775000D03*
X15260000Y-77775000D03*
%TD*%
%TO.C,J1*%
X101660000Y-33725000D03*
X104200000Y-33725000D03*
X106740000Y-33725000D03*
X106740000Y-38775000D03*
X104200000Y-38775000D03*
X101660000Y-38775000D03*
%TD*%
D12*
%TO.C,KiKit_FID_B_1*%
X9500000Y-2500000D03*
%TD*%
D11*
%TO.C,J1*%
X58460000Y-53225000D03*
X61000000Y-53225000D03*
X63540000Y-53225000D03*
X63540000Y-58275000D03*
X61000000Y-58275000D03*
X58460000Y-58275000D03*
%TD*%
D12*
%TO.C,KiKit_FID_B_4*%
X112500000Y-89500000D03*
%TD*%
D11*
%TO.C,J1*%
X15260000Y-33725000D03*
X17800000Y-33725000D03*
X20340000Y-33725000D03*
X20340000Y-38775000D03*
X17800000Y-38775000D03*
X15260000Y-38775000D03*
%TD*%
%TO.C,J1*%
X36860000Y-53225000D03*
X39400000Y-53225000D03*
X41940000Y-53225000D03*
X41940000Y-58275000D03*
X39400000Y-58275000D03*
X36860000Y-58275000D03*
%TD*%
%TO.C,J1*%
X36860000Y-33725000D03*
X39400000Y-33725000D03*
X41940000Y-33725000D03*
X41940000Y-38775000D03*
X39400000Y-38775000D03*
X36860000Y-38775000D03*
%TD*%
%TO.C,J1*%
X58460000Y-33725000D03*
X61000000Y-33725000D03*
X63540000Y-33725000D03*
X63540000Y-38775000D03*
X61000000Y-38775000D03*
X58460000Y-38775000D03*
%TD*%
%TO.C,J1*%
X15260000Y-14225000D03*
X17800000Y-14225000D03*
X20340000Y-14225000D03*
X20340000Y-19275000D03*
X17800000Y-19275000D03*
X15260000Y-19275000D03*
%TD*%
%TO.C,J1*%
X80060000Y-53225000D03*
X82600000Y-53225000D03*
X85140000Y-53225000D03*
X85140000Y-58275000D03*
X82600000Y-58275000D03*
X80060000Y-58275000D03*
%TD*%
%TO.C,J1*%
X15260000Y-53225000D03*
X17800000Y-53225000D03*
X20340000Y-53225000D03*
X20340000Y-58275000D03*
X17800000Y-58275000D03*
X15260000Y-58275000D03*
%TD*%
%TO.C,J1*%
X80060000Y-14225000D03*
X82600000Y-14225000D03*
X85140000Y-14225000D03*
X85140000Y-19275000D03*
X82600000Y-19275000D03*
X80060000Y-19275000D03*
%TD*%
D12*
%TO.C,KiKit_FID_B_3*%
X9500000Y-89500000D03*
%TD*%
D11*
%TO.C,J1*%
X58460000Y-14225000D03*
X61000000Y-14225000D03*
X63540000Y-14225000D03*
X63540000Y-19275000D03*
X61000000Y-19275000D03*
X58460000Y-19275000D03*
%TD*%
M02*
