M48
; DRILL file {KiCad 8.0.4} date 2024-10-17T13:25:31+1100
; FORMAT={-:-/ absolute / inch / decimal}
; #@! TF.CreationDate,2024-10-17T13:25:31+11:00
; #@! TF.GenerationSoftware,Kicad,Pcbnew,8.0.4
; #@! TF.FileFunction,Plated,1,2,PTH
FMAT,2
INCH
; #@! TA.AperFunction,Plated,PTH,ViaDrill
T1C0.0118
%
G90
G05
T1
X0.3385Y-0.5717
X0.3385Y-1.3394
X0.3385Y-2.1072
X0.3385Y-2.8749
X0.3685Y-0.6917
X0.3685Y-1.4594
X0.3685Y-2.2272
X0.3685Y-2.9949
X0.3845Y-0.5517
X0.3845Y-1.3194
X0.3845Y-2.0872
X0.3845Y-2.8549
X0.3885Y-0.8017
X0.3885Y-1.5694
X0.3885Y-2.3372
X0.3885Y-3.1049
X0.4344Y-0.4866
X0.4344Y-1.2544
X0.4344Y-2.0221
X0.4344Y-2.7898
X0.4885Y-0.9117
X0.4885Y-1.6794
X0.4885Y-2.4472
X0.4885Y-3.2149
X0.5085Y-0.3917
X0.5085Y-1.1594
X0.5085Y-1.9272
X0.5085Y-2.6949
X0.5185Y-0.5867
X0.5185Y-1.3544
X0.5185Y-2.1222
X0.5185Y-2.8899
X0.5295Y-0.7907
X0.5295Y-1.5584
X0.5295Y-2.3262
X0.5295Y-3.0939
X0.6085Y-0.3317
X0.6085Y-0.9717
X0.6085Y-1.0994
X0.6085Y-1.7394
X0.6085Y-1.8672
X0.6085Y-2.5072
X0.6085Y-2.6349
X0.6085Y-3.2749
X0.6585Y-0.8617
X0.6585Y-1.6294
X0.6585Y-2.3972
X0.6585Y-3.1649
X0.7585Y-0.6917
X0.7585Y-1.4594
X0.7585Y-2.2272
X0.7585Y-2.9949
X0.7885Y-0.3317
X0.7885Y-0.9817
X0.7885Y-1.0994
X0.7885Y-1.7494
X0.7885Y-1.8672
X0.7885Y-2.5172
X0.7885Y-2.6349
X0.7885Y-3.2849
X0.8545Y-0.7707
X0.8545Y-1.5384
X0.8545Y-2.3062
X0.8545Y-3.0739
X0.8585Y-0.6367
X0.8585Y-1.4044
X0.8585Y-2.1722
X0.8585Y-2.9399
X0.8685Y-0.5617
X0.8685Y-1.3294
X0.8685Y-2.0972
X0.8685Y-2.8649
X0.8985Y-0.9217
X0.8985Y-1.6894
X0.8985Y-2.4572
X0.8985Y-3.2249
X0.9085Y-0.4017
X0.9085Y-1.1694
X0.9085Y-1.9372
X0.9085Y-2.7049
X0.9785Y-0.7817
X0.9785Y-1.5494
X0.9785Y-2.3172
X0.9785Y-3.0849
X1.0385Y-0.6317
X1.0385Y-1.3994
X1.0385Y-2.1672
X1.0385Y-2.9349
X1.1889Y-0.5717
X1.1889Y-1.3394
X1.1889Y-2.1072
X1.1889Y-2.8749
X1.2189Y-0.6917
X1.2189Y-1.4594
X1.2189Y-2.2272
X1.2189Y-2.9949
X1.2349Y-0.5517
X1.2349Y-1.3194
X1.2349Y-2.0872
X1.2349Y-2.8549
X1.2389Y-0.8017
X1.2389Y-1.5694
X1.2389Y-2.3372
X1.2389Y-3.1049
X1.2848Y-0.4866
X1.2848Y-1.2544
X1.2848Y-2.0221
X1.2848Y-2.7898
X1.3389Y-0.9117
X1.3389Y-1.6794
X1.3389Y-2.4472
X1.3389Y-3.2149
X1.3589Y-0.3917
X1.3589Y-1.1594
X1.3589Y-1.9272
X1.3589Y-2.6949
X1.3689Y-0.5867
X1.3689Y-1.3544
X1.3689Y-2.1222
X1.3689Y-2.8899
X1.3799Y-0.7907
X1.3799Y-1.5584
X1.3799Y-2.3262
X1.3799Y-3.0939
X1.4589Y-0.3317
X1.4589Y-0.9717
X1.4589Y-1.0994
X1.4589Y-1.7394
X1.4589Y-1.8672
X1.4589Y-2.5072
X1.4589Y-2.6349
X1.4589Y-3.2749
X1.5089Y-0.8617
X1.5089Y-1.6294
X1.5089Y-2.3972
X1.5089Y-3.1649
X1.6089Y-0.6917
X1.6089Y-1.4594
X1.6089Y-2.2272
X1.6089Y-2.9949
X1.6389Y-0.3317
X1.6389Y-0.9817
X1.6389Y-1.0994
X1.6389Y-1.7494
X1.6389Y-1.8672
X1.6389Y-2.5172
X1.6389Y-2.6349
X1.6389Y-3.2849
X1.7049Y-0.7707
X1.7049Y-1.5384
X1.7049Y-2.3062
X1.7049Y-3.0739
X1.7089Y-0.6367
X1.7089Y-1.4044
X1.7089Y-2.1722
X1.7089Y-2.9399
X1.7189Y-0.5617
X1.7189Y-1.3294
X1.7189Y-2.0972
X1.7189Y-2.8649
X1.7489Y-0.9217
X1.7489Y-1.6894
X1.7489Y-2.4572
X1.7489Y-3.2249
X1.7589Y-0.4017
X1.7589Y-1.1694
X1.7589Y-1.9372
X1.7589Y-2.7049
X1.8289Y-0.7817
X1.8289Y-1.5494
X1.8289Y-2.3172
X1.8289Y-3.0849
X1.8889Y-0.6317
X1.8889Y-1.3994
X1.8889Y-2.1672
X1.8889Y-2.9349
X2.0393Y-0.5717
X2.0393Y-1.3394
X2.0393Y-2.1072
X2.0393Y-2.8749
X2.0693Y-0.6917
X2.0693Y-1.4594
X2.0693Y-2.2272
X2.0693Y-2.9949
X2.0853Y-0.5517
X2.0853Y-1.3194
X2.0853Y-2.0872
X2.0853Y-2.8549
X2.0893Y-0.8017
X2.0893Y-1.5694
X2.0893Y-2.3372
X2.0893Y-3.1049
X2.1352Y-0.4866
X2.1352Y-1.2544
X2.1352Y-2.0221
X2.1352Y-2.7898
X2.1893Y-0.9117
X2.1893Y-1.6794
X2.1893Y-2.4472
X2.1893Y-3.2149
X2.2093Y-0.3917
X2.2093Y-1.1594
X2.2093Y-1.9272
X2.2093Y-2.6949
X2.2193Y-0.5867
X2.2193Y-1.3544
X2.2193Y-2.1222
X2.2193Y-2.8899
X2.2303Y-0.7907
X2.2303Y-1.5584
X2.2303Y-2.3262
X2.2303Y-3.0939
X2.3093Y-0.3317
X2.3093Y-0.9717
X2.3093Y-1.0994
X2.3093Y-1.7394
X2.3093Y-1.8672
X2.3093Y-2.5072
X2.3093Y-2.6349
X2.3093Y-3.2749
X2.3593Y-0.8617
X2.3593Y-1.6294
X2.3593Y-2.3972
X2.3593Y-3.1649
X2.4593Y-0.6917
X2.4593Y-1.4594
X2.4593Y-2.2272
X2.4593Y-2.9949
X2.4893Y-0.3317
X2.4893Y-0.9817
X2.4893Y-1.0994
X2.4893Y-1.7494
X2.4893Y-1.8672
X2.4893Y-2.5172
X2.4893Y-2.6349
X2.4893Y-3.2849
X2.5553Y-0.7707
X2.5553Y-1.5384
X2.5553Y-2.3062
X2.5553Y-3.0739
X2.5593Y-0.6367
X2.5593Y-1.4044
X2.5593Y-2.1722
X2.5593Y-2.9399
X2.5693Y-0.5617
X2.5693Y-1.3294
X2.5693Y-2.0972
X2.5693Y-2.8649
X2.5993Y-0.9217
X2.5993Y-1.6894
X2.5993Y-2.4572
X2.5993Y-3.2249
X2.6093Y-0.4017
X2.6093Y-1.1694
X2.6093Y-1.9372
X2.6093Y-2.7049
X2.6793Y-0.7817
X2.6793Y-1.5494
X2.6793Y-2.3172
X2.6793Y-3.0849
X2.7393Y-0.6317
X2.7393Y-1.3994
X2.7393Y-2.1672
X2.7393Y-2.9349
X2.8897Y-0.5717
X2.8897Y-1.3394
X2.8897Y-2.1072
X2.8897Y-2.8749
X2.9197Y-0.6917
X2.9197Y-1.4594
X2.9197Y-2.2272
X2.9197Y-2.9949
X2.9357Y-0.5517
X2.9357Y-1.3194
X2.9357Y-2.0872
X2.9357Y-2.8549
X2.9397Y-0.8017
X2.9397Y-1.5694
X2.9397Y-2.3372
X2.9397Y-3.1049
X2.9856Y-0.4866
X2.9856Y-1.2544
X2.9856Y-2.0221
X2.9856Y-2.7898
X3.0397Y-0.9117
X3.0397Y-1.6794
X3.0397Y-2.4472
X3.0397Y-3.2149
X3.0597Y-0.3917
X3.0597Y-1.1594
X3.0597Y-1.9272
X3.0597Y-2.6949
X3.0697Y-0.5867
X3.0697Y-1.3544
X3.0697Y-2.1222
X3.0697Y-2.8899
X3.0807Y-0.7907
X3.0807Y-1.5584
X3.0807Y-2.3262
X3.0807Y-3.0939
X3.1597Y-0.3317
X3.1597Y-0.9717
X3.1597Y-1.0994
X3.1597Y-1.7394
X3.1597Y-1.8672
X3.1597Y-2.5072
X3.1597Y-2.6349
X3.1597Y-3.2749
X3.2097Y-0.8617
X3.2097Y-1.6294
X3.2097Y-2.3972
X3.2097Y-3.1649
X3.3097Y-0.6917
X3.3097Y-1.4594
X3.3097Y-2.2272
X3.3097Y-2.9949
X3.3397Y-0.3317
X3.3397Y-0.9817
X3.3397Y-1.0994
X3.3397Y-1.7494
X3.3397Y-1.8672
X3.3397Y-2.5172
X3.3397Y-2.6349
X3.3397Y-3.2849
X3.4057Y-0.7707
X3.4057Y-1.5384
X3.4057Y-2.3062
X3.4057Y-3.0739
X3.4097Y-0.6367
X3.4097Y-1.4044
X3.4097Y-2.1722
X3.4097Y-2.9399
X3.4197Y-0.5617
X3.4197Y-1.3294
X3.4197Y-2.0972
X3.4197Y-2.8649
X3.4497Y-0.9217
X3.4497Y-1.6894
X3.4497Y-2.4572
X3.4497Y-3.2249
X3.4597Y-0.4017
X3.4597Y-1.1694
X3.4597Y-1.9372
X3.4597Y-2.7049
X3.5297Y-0.7817
X3.5297Y-1.5494
X3.5297Y-2.3172
X3.5297Y-3.0849
X3.5897Y-0.6317
X3.5897Y-1.3994
X3.5897Y-2.1672
X3.5897Y-2.9349
X3.7401Y-0.5717
X3.7401Y-1.3394
X3.7401Y-2.1072
X3.7401Y-2.8749
X3.7701Y-0.6917
X3.7701Y-1.4594
X3.7701Y-2.2272
X3.7701Y-2.9949
X3.7861Y-0.5517
X3.7861Y-1.3194
X3.7861Y-2.0872
X3.7861Y-2.8549
X3.7901Y-0.8017
X3.7901Y-1.5694
X3.7901Y-2.3372
X3.7901Y-3.1049
X3.836Y-0.4866
X3.836Y-1.2544
X3.836Y-2.0221
X3.836Y-2.7898
X3.8901Y-0.9117
X3.8901Y-1.6794
X3.8901Y-2.4472
X3.8901Y-3.2149
X3.9101Y-0.3917
X3.9101Y-1.1594
X3.9101Y-1.9272
X3.9101Y-2.6949
X3.9201Y-0.5867
X3.9201Y-1.3544
X3.9201Y-2.1222
X3.9201Y-2.8899
X3.9311Y-0.7907
X3.9311Y-1.5584
X3.9311Y-2.3262
X3.9311Y-3.0939
X4.0101Y-0.3317
X4.0101Y-0.9717
X4.0101Y-1.0994
X4.0101Y-1.7394
X4.0101Y-1.8672
X4.0101Y-2.5072
X4.0101Y-2.6349
X4.0101Y-3.2749
X4.0601Y-0.8617
X4.0601Y-1.6294
X4.0601Y-2.3972
X4.0601Y-3.1649
X4.1601Y-0.6917
X4.1601Y-1.4594
X4.1601Y-2.2272
X4.1601Y-2.9949
X4.1901Y-0.3317
X4.1901Y-0.9817
X4.1901Y-1.0994
X4.1901Y-1.7494
X4.1901Y-1.8672
X4.1901Y-2.5172
X4.1901Y-2.6349
X4.1901Y-3.2849
X4.2561Y-0.7707
X4.2561Y-1.5384
X4.2561Y-2.3062
X4.2561Y-3.0739
X4.2601Y-0.6367
X4.2601Y-1.4044
X4.2601Y-2.1722
X4.2601Y-2.9399
X4.2701Y-0.5617
X4.2701Y-1.3294
X4.2701Y-2.0972
X4.2701Y-2.8649
X4.3001Y-0.9217
X4.3001Y-1.6894
X4.3001Y-2.4572
X4.3001Y-3.2249
X4.3101Y-0.4017
X4.3101Y-1.1694
X4.3101Y-1.9372
X4.3101Y-2.7049
X4.3801Y-0.7817
X4.3801Y-1.5494
X4.3801Y-2.3172
X4.3801Y-3.0849
X4.4401Y-0.6317
X4.4401Y-1.3994
X4.4401Y-2.1672
X4.4401Y-2.9349
M30
