%TF.GenerationSoftware,KiCad,Pcbnew,8.0.4*%
%TF.CreationDate,2024-10-17T13:25:31+11:00*%
%TF.ProjectId,panel,70616e65-6c2e-46b6-9963-61645f706362,rev?*%
%TF.SameCoordinates,Original*%
%TF.FileFunction,Soldermask,Top*%
%TF.FilePolarity,Negative*%
%FSLAX46Y46*%
G04 Gerber Fmt 4.6, Leading zero omitted, Abs format (unit mm)*
G04 Created by KiCad (PCBNEW 8.0.4) date 2024-10-17 13:25:31*
%MOMM*%
%LPD*%
G01*
G04 APERTURE LIST*
G04 Aperture macros list*
%AMRoundRect*
0 Rectangle with rounded corners*
0 $1 Rounding radius*
0 $2 $3 $4 $5 $6 $7 $8 $9 X,Y pos of 4 corners*
0 Add a 4 corners polygon primitive as box body*
4,1,4,$2,$3,$4,$5,$6,$7,$8,$9,$2,$3,0*
0 Add four circle primitives for the rounded corners*
1,1,$1+$1,$2,$3*
1,1,$1+$1,$4,$5*
1,1,$1+$1,$6,$7*
1,1,$1+$1,$8,$9*
0 Add four rect primitives between the rounded corners*
20,1,$1+$1,$2,$3,$4,$5,0*
20,1,$1+$1,$4,$5,$6,$7,0*
20,1,$1+$1,$6,$7,$8,$9,0*
20,1,$1+$1,$8,$9,$2,$3,0*%
G04 Aperture macros list end*
%ADD10RoundRect,0.140000X-0.140000X-0.170000X0.140000X-0.170000X0.140000X0.170000X-0.140000X0.170000X0*%
%ADD11R,0.500000X0.500000*%
%ADD12RoundRect,0.140000X0.170000X-0.140000X0.170000X0.140000X-0.170000X0.140000X-0.170000X-0.140000X0*%
%ADD13RoundRect,0.135000X0.135000X0.185000X-0.135000X0.185000X-0.135000X-0.185000X0.135000X-0.185000X0*%
%ADD14C,2.000000*%
%ADD15C,1.152000*%
G04 APERTURE END LIST*
D10*
%TO.C,C1*%
X95280000Y-52194000D03*
X96240000Y-52194000D03*
%TD*%
%TO.C,C2*%
X87396000Y-39102000D03*
X88356000Y-39102000D03*
%TD*%
D11*
%TO.C,D20*%
X18888928Y-40030127D03*
X19788928Y-40030127D03*
X19788928Y-39130127D03*
X18888928Y-39130127D03*
%TD*%
%TO.C,D4*%
X106875000Y-29665653D03*
X106875000Y-30565653D03*
X107775000Y-30565653D03*
X107775000Y-29665653D03*
%TD*%
%TO.C,D4*%
X85275000Y-68665653D03*
X85275000Y-69565653D03*
X86175000Y-69565653D03*
X86175000Y-68665653D03*
%TD*%
%TO.C,D21*%
X20356527Y-57200000D03*
X21256527Y-57200000D03*
X21256527Y-56300000D03*
X20356527Y-56300000D03*
%TD*%
%TO.C,D16*%
X102211072Y-33369873D03*
X103111072Y-33369873D03*
X103111072Y-32469873D03*
X102211072Y-32469873D03*
%TD*%
%TO.C,D16*%
X59011072Y-72369873D03*
X59911072Y-72369873D03*
X59911072Y-71469873D03*
X59011072Y-71469873D03*
%TD*%
%TO.C,D18*%
X103750000Y-55300000D03*
X103750000Y-56200000D03*
X104650000Y-56200000D03*
X104650000Y-55300000D03*
%TD*%
%TO.C,D5*%
X44918750Y-70307493D03*
X44918750Y-71207493D03*
X45818750Y-71207493D03*
X45818750Y-70307493D03*
%TD*%
%TO.C,D12*%
X77081250Y-41192507D03*
X77081250Y-40292507D03*
X76181250Y-40292507D03*
X76181250Y-41192507D03*
%TD*%
%TO.C,D17*%
X83880536Y-13552405D03*
X83880536Y-14452405D03*
X84780536Y-14452405D03*
X84780536Y-13552405D03*
%TD*%
%TO.C,D2*%
X101031250Y-29431105D03*
X101031250Y-30331105D03*
X101931250Y-30331105D03*
X101931250Y-29431105D03*
%TD*%
%TO.C,D19*%
X102019464Y-58047595D03*
X102019464Y-58947595D03*
X102919464Y-58947595D03*
X102919464Y-58047595D03*
%TD*%
%TO.C,D8*%
X45287500Y-21999224D03*
X45287500Y-21099224D03*
X44387500Y-21099224D03*
X44387500Y-21999224D03*
%TD*%
%TO.C,D6*%
X24225000Y-53669726D03*
X24225000Y-54569726D03*
X25125000Y-54569726D03*
X25125000Y-53669726D03*
%TD*%
D10*
%TO.C,C2*%
X22596000Y-58602000D03*
X23556000Y-58602000D03*
%TD*%
%TO.C,C2*%
X65796000Y-78102000D03*
X66756000Y-78102000D03*
%TD*%
D11*
%TO.C,D10*%
X18250000Y-83638566D03*
X18250000Y-82738566D03*
X17350000Y-82738566D03*
X17350000Y-83638566D03*
%TD*%
%TO.C,D8*%
X110087500Y-60999224D03*
X110087500Y-60099224D03*
X109187500Y-60099224D03*
X109187500Y-60999224D03*
%TD*%
D12*
%TO.C,C3*%
X13678000Y-77566000D03*
X13678000Y-76606000D03*
%TD*%
D11*
%TO.C,D6*%
X67425000Y-73169726D03*
X67425000Y-74069726D03*
X68325000Y-74069726D03*
X68325000Y-73169726D03*
%TD*%
%TO.C,D3*%
X82150000Y-66861434D03*
X82150000Y-67761434D03*
X83050000Y-67761434D03*
X83050000Y-66861434D03*
%TD*%
%TO.C,D3*%
X103750000Y-8361434D03*
X103750000Y-9261434D03*
X104650000Y-9261434D03*
X104650000Y-8361434D03*
%TD*%
%TO.C,D17*%
X19080536Y-52552405D03*
X19080536Y-53452405D03*
X19980536Y-53452405D03*
X19980536Y-52552405D03*
%TD*%
%TO.C,D5*%
X88118750Y-31307493D03*
X88118750Y-32207493D03*
X89018750Y-32207493D03*
X89018750Y-31307493D03*
%TD*%
%TO.C,D3*%
X17350000Y-8361434D03*
X17350000Y-9261434D03*
X18250000Y-9261434D03*
X18250000Y-8361434D03*
%TD*%
%TO.C,D7*%
X24756250Y-75869578D03*
X24756250Y-76769578D03*
X25656250Y-76769578D03*
X25656250Y-75869578D03*
%TD*%
%TO.C,D19*%
X80419464Y-38547595D03*
X80419464Y-39447595D03*
X81319464Y-39447595D03*
X81319464Y-38547595D03*
%TD*%
%TO.C,D18*%
X82150000Y-35800000D03*
X82150000Y-36700000D03*
X83050000Y-36700000D03*
X83050000Y-35800000D03*
%TD*%
%TO.C,D7*%
X24756250Y-56369578D03*
X24756250Y-57269578D03*
X25656250Y-57269578D03*
X25656250Y-56369578D03*
%TD*%
%TO.C,D19*%
X37219464Y-38547595D03*
X37219464Y-39447595D03*
X38119464Y-39447595D03*
X38119464Y-38547595D03*
%TD*%
%TO.C,D8*%
X66887500Y-80499224D03*
X66887500Y-79599224D03*
X65987500Y-79599224D03*
X65987500Y-80499224D03*
%TD*%
D13*
%TO.C,R1*%
X9870000Y-70678000D03*
X8850000Y-70678000D03*
%TD*%
D11*
%TO.C,D10*%
X83050000Y-25138566D03*
X83050000Y-24238566D03*
X82150000Y-24238566D03*
X82150000Y-25138566D03*
%TD*%
%TO.C,D17*%
X19080536Y-13552405D03*
X19080536Y-14452405D03*
X19980536Y-14452405D03*
X19980536Y-13552405D03*
%TD*%
%TO.C,D9*%
X107368750Y-82068895D03*
X107368750Y-81168895D03*
X106468750Y-81168895D03*
X106468750Y-82068895D03*
%TD*%
%TO.C,D17*%
X105480536Y-13552405D03*
X105480536Y-14452405D03*
X106380536Y-14452405D03*
X106380536Y-13552405D03*
%TD*%
%TO.C,D10*%
X83050000Y-64138566D03*
X83050000Y-63238566D03*
X82150000Y-63238566D03*
X82150000Y-64138566D03*
%TD*%
%TO.C,D21*%
X106756527Y-57200000D03*
X107656527Y-57200000D03*
X107656527Y-56300000D03*
X106756527Y-56300000D03*
%TD*%
D13*
%TO.C,R1*%
X31470000Y-70678000D03*
X30450000Y-70678000D03*
%TD*%
D11*
%TO.C,D14*%
X10843750Y-55130422D03*
X10843750Y-54230422D03*
X9943750Y-54230422D03*
X9943750Y-55130422D03*
%TD*%
D10*
%TO.C,C1*%
X30480000Y-32694000D03*
X31440000Y-32694000D03*
%TD*%
D11*
%TO.C,D5*%
X88118750Y-50807493D03*
X88118750Y-51707493D03*
X89018750Y-51707493D03*
X89018750Y-50807493D03*
%TD*%
%TO.C,D4*%
X63675000Y-29665653D03*
X63675000Y-30565653D03*
X64575000Y-30565653D03*
X64575000Y-29665653D03*
%TD*%
%TO.C,D1*%
X33512500Y-31000776D03*
X33512500Y-31900776D03*
X34412500Y-31900776D03*
X34412500Y-31000776D03*
%TD*%
%TO.C,D12*%
X33881250Y-41192507D03*
X33881250Y-40292507D03*
X32981250Y-40292507D03*
X32981250Y-41192507D03*
%TD*%
%TO.C,D8*%
X66887500Y-21999224D03*
X66887500Y-21099224D03*
X65987500Y-21099224D03*
X65987500Y-21999224D03*
%TD*%
%TO.C,D16*%
X15811072Y-33369873D03*
X16711072Y-33369873D03*
X16711072Y-32469873D03*
X15811072Y-32469873D03*
%TD*%
D10*
%TO.C,C2*%
X108996000Y-78102000D03*
X109956000Y-78102000D03*
%TD*%
D11*
%TO.C,D11*%
X79925000Y-81834347D03*
X79925000Y-80934347D03*
X79025000Y-80934347D03*
X79025000Y-81834347D03*
%TD*%
%TO.C,D11*%
X101525000Y-81834347D03*
X101525000Y-80934347D03*
X100625000Y-80934347D03*
X100625000Y-81834347D03*
%TD*%
D10*
%TO.C,C2*%
X44196000Y-58602000D03*
X45156000Y-58602000D03*
%TD*%
D11*
%TO.C,D20*%
X105288928Y-40030127D03*
X106188928Y-40030127D03*
X106188928Y-39130127D03*
X105288928Y-39130127D03*
%TD*%
%TO.C,D5*%
X109718750Y-70307493D03*
X109718750Y-71207493D03*
X110618750Y-71207493D03*
X110618750Y-70307493D03*
%TD*%
D13*
%TO.C,R1*%
X31470000Y-31678000D03*
X30450000Y-31678000D03*
%TD*%
D11*
%TO.C,D9*%
X20968750Y-43068895D03*
X20968750Y-42168895D03*
X20068750Y-42168895D03*
X20068750Y-43068895D03*
%TD*%
%TO.C,D14*%
X32443750Y-16130422D03*
X32443750Y-15230422D03*
X31543750Y-15230422D03*
X31543750Y-16130422D03*
%TD*%
%TO.C,D15*%
X14343473Y-35700000D03*
X15243473Y-35700000D03*
X15243473Y-34800000D03*
X14343473Y-34800000D03*
%TD*%
%TO.C,D20*%
X62088928Y-20530127D03*
X62988928Y-20530127D03*
X62988928Y-19630127D03*
X62088928Y-19630127D03*
%TD*%
%TO.C,D2*%
X14631250Y-9931105D03*
X14631250Y-10831105D03*
X15531250Y-10831105D03*
X15531250Y-9931105D03*
%TD*%
%TO.C,D13*%
X11375000Y-77330274D03*
X11375000Y-76430274D03*
X10475000Y-76430274D03*
X10475000Y-77330274D03*
%TD*%
%TO.C,D2*%
X79431250Y-29431105D03*
X79431250Y-30331105D03*
X80331250Y-30331105D03*
X80331250Y-29431105D03*
%TD*%
%TO.C,D3*%
X82150000Y-47361434D03*
X82150000Y-48261434D03*
X83050000Y-48261434D03*
X83050000Y-47361434D03*
%TD*%
%TO.C,D12*%
X98681250Y-21692507D03*
X98681250Y-20792507D03*
X97781250Y-20792507D03*
X97781250Y-21692507D03*
%TD*%
%TO.C,D6*%
X24225000Y-34169726D03*
X24225000Y-35069726D03*
X25125000Y-35069726D03*
X25125000Y-34169726D03*
%TD*%
%TO.C,D16*%
X102211072Y-13869873D03*
X103111072Y-13869873D03*
X103111072Y-12969873D03*
X102211072Y-12969873D03*
%TD*%
%TO.C,D15*%
X35943473Y-16200000D03*
X36843473Y-16200000D03*
X36843473Y-15300000D03*
X35943473Y-15300000D03*
%TD*%
%TO.C,D5*%
X23318750Y-31307493D03*
X23318750Y-32207493D03*
X24218750Y-32207493D03*
X24218750Y-31307493D03*
%TD*%
%TO.C,D7*%
X111156250Y-56369578D03*
X111156250Y-57269578D03*
X112056250Y-57269578D03*
X112056250Y-56369578D03*
%TD*%
%TO.C,D13*%
X11375000Y-57830274D03*
X11375000Y-56930274D03*
X10475000Y-56930274D03*
X10475000Y-57830274D03*
%TD*%
%TO.C,D11*%
X101525000Y-62334347D03*
X101525000Y-61434347D03*
X100625000Y-61434347D03*
X100625000Y-62334347D03*
%TD*%
%TO.C,D13*%
X11375000Y-38330274D03*
X11375000Y-37430274D03*
X10475000Y-37430274D03*
X10475000Y-38330274D03*
%TD*%
%TO.C,D7*%
X46356250Y-56369578D03*
X46356250Y-57269578D03*
X47256250Y-57269578D03*
X47256250Y-56369578D03*
%TD*%
%TO.C,D4*%
X106875000Y-68665653D03*
X106875000Y-69565653D03*
X107775000Y-69565653D03*
X107775000Y-68665653D03*
%TD*%
%TO.C,D8*%
X88487500Y-41499224D03*
X88487500Y-40599224D03*
X87587500Y-40599224D03*
X87587500Y-41499224D03*
%TD*%
%TO.C,D21*%
X106756527Y-18200000D03*
X107656527Y-18200000D03*
X107656527Y-17300000D03*
X106756527Y-17300000D03*
%TD*%
%TO.C,D18*%
X103750000Y-35800000D03*
X103750000Y-36700000D03*
X104650000Y-36700000D03*
X104650000Y-35800000D03*
%TD*%
%TO.C,D15*%
X57543473Y-74700000D03*
X58443473Y-74700000D03*
X58443473Y-73800000D03*
X57543473Y-73800000D03*
%TD*%
%TO.C,D9*%
X20968750Y-62568895D03*
X20968750Y-61668895D03*
X20068750Y-61668895D03*
X20068750Y-62568895D03*
%TD*%
%TO.C,D7*%
X67956250Y-17369578D03*
X67956250Y-18269578D03*
X68856250Y-18269578D03*
X68856250Y-17369578D03*
%TD*%
D14*
%TO.C,KiKit_FID_T_1*%
X9500000Y-2500000D03*
%TD*%
D11*
%TO.C,D21*%
X63556527Y-57200000D03*
X64456527Y-57200000D03*
X64456527Y-56300000D03*
X63556527Y-56300000D03*
%TD*%
%TO.C,D18*%
X38950000Y-16300000D03*
X38950000Y-17200000D03*
X39850000Y-17200000D03*
X39850000Y-16300000D03*
%TD*%
%TO.C,D21*%
X20356527Y-18200000D03*
X21256527Y-18200000D03*
X21256527Y-17300000D03*
X20356527Y-17300000D03*
%TD*%
%TO.C,D6*%
X67425000Y-34169726D03*
X67425000Y-35069726D03*
X68325000Y-35069726D03*
X68325000Y-34169726D03*
%TD*%
%TO.C,D19*%
X58819464Y-19047595D03*
X58819464Y-19947595D03*
X59719464Y-19947595D03*
X59719464Y-19047595D03*
%TD*%
%TO.C,D3*%
X60550000Y-27861434D03*
X60550000Y-28761434D03*
X61450000Y-28761434D03*
X61450000Y-27861434D03*
%TD*%
%TO.C,D14*%
X97243750Y-55130422D03*
X97243750Y-54230422D03*
X96343750Y-54230422D03*
X96343750Y-55130422D03*
%TD*%
%TO.C,D2*%
X79431250Y-9931105D03*
X79431250Y-10831105D03*
X80331250Y-10831105D03*
X80331250Y-9931105D03*
%TD*%
%TO.C,D1*%
X98312500Y-31000776D03*
X98312500Y-31900776D03*
X99212500Y-31900776D03*
X99212500Y-31000776D03*
%TD*%
%TO.C,D16*%
X15811072Y-52869873D03*
X16711072Y-52869873D03*
X16711072Y-51969873D03*
X15811072Y-51969873D03*
%TD*%
%TO.C,D5*%
X109718750Y-31307493D03*
X109718750Y-32207493D03*
X110618750Y-32207493D03*
X110618750Y-31307493D03*
%TD*%
%TO.C,D16*%
X37411072Y-52869873D03*
X38311072Y-52869873D03*
X38311072Y-51969873D03*
X37411072Y-51969873D03*
%TD*%
%TO.C,D8*%
X110087500Y-41499224D03*
X110087500Y-40599224D03*
X109187500Y-40599224D03*
X109187500Y-41499224D03*
%TD*%
%TO.C,D17*%
X19080536Y-33052405D03*
X19080536Y-33952405D03*
X19980536Y-33952405D03*
X19980536Y-33052405D03*
%TD*%
%TO.C,D1*%
X55112500Y-70000776D03*
X55112500Y-70900776D03*
X56012500Y-70900776D03*
X56012500Y-70000776D03*
%TD*%
%TO.C,D19*%
X102019464Y-19047595D03*
X102019464Y-19947595D03*
X102919464Y-19947595D03*
X102919464Y-19047595D03*
%TD*%
D12*
%TO.C,C3*%
X100078000Y-58066000D03*
X100078000Y-57106000D03*
%TD*%
D11*
%TO.C,D1*%
X76712500Y-50500776D03*
X76712500Y-51400776D03*
X77612500Y-51400776D03*
X77612500Y-50500776D03*
%TD*%
%TO.C,D16*%
X15811072Y-13869873D03*
X16711072Y-13869873D03*
X16711072Y-12969873D03*
X15811072Y-12969873D03*
%TD*%
D10*
%TO.C,C2*%
X108996000Y-19602000D03*
X109956000Y-19602000D03*
%TD*%
D11*
%TO.C,D9*%
X20968750Y-23568895D03*
X20968750Y-22668895D03*
X20068750Y-22668895D03*
X20068750Y-23568895D03*
%TD*%
D10*
%TO.C,C1*%
X95280000Y-13194000D03*
X96240000Y-13194000D03*
%TD*%
D11*
%TO.C,D11*%
X58325000Y-42834347D03*
X58325000Y-41934347D03*
X57425000Y-41934347D03*
X57425000Y-42834347D03*
%TD*%
%TO.C,D21*%
X20356527Y-37700000D03*
X21256527Y-37700000D03*
X21256527Y-36800000D03*
X20356527Y-36800000D03*
%TD*%
%TO.C,D11*%
X36725000Y-23334347D03*
X36725000Y-22434347D03*
X35825000Y-22434347D03*
X35825000Y-23334347D03*
%TD*%
%TO.C,D6*%
X110625000Y-34169726D03*
X110625000Y-35069726D03*
X111525000Y-35069726D03*
X111525000Y-34169726D03*
%TD*%
%TO.C,D6*%
X67425000Y-53669726D03*
X67425000Y-54569726D03*
X68325000Y-54569726D03*
X68325000Y-53669726D03*
%TD*%
%TO.C,D3*%
X103750000Y-27861434D03*
X103750000Y-28761434D03*
X104650000Y-28761434D03*
X104650000Y-27861434D03*
%TD*%
D12*
%TO.C,C3*%
X78478000Y-38566000D03*
X78478000Y-37606000D03*
%TD*%
D11*
%TO.C,D20*%
X62088928Y-79030127D03*
X62988928Y-79030127D03*
X62988928Y-78130127D03*
X62088928Y-78130127D03*
%TD*%
%TO.C,D17*%
X62280536Y-72052405D03*
X62280536Y-72952405D03*
X63180536Y-72952405D03*
X63180536Y-72052405D03*
%TD*%
%TO.C,D17*%
X62280536Y-33052405D03*
X62280536Y-33952405D03*
X63180536Y-33952405D03*
X63180536Y-33052405D03*
%TD*%
%TO.C,D12*%
X12281250Y-41192507D03*
X12281250Y-40292507D03*
X11381250Y-40292507D03*
X11381250Y-41192507D03*
%TD*%
D10*
%TO.C,C2*%
X44196000Y-39102000D03*
X45156000Y-39102000D03*
%TD*%
D11*
%TO.C,D19*%
X37219464Y-58047595D03*
X37219464Y-58947595D03*
X38119464Y-58947595D03*
X38119464Y-58047595D03*
%TD*%
D10*
%TO.C,C2*%
X108996000Y-58602000D03*
X109956000Y-58602000D03*
%TD*%
D11*
%TO.C,D21*%
X85156527Y-18200000D03*
X86056527Y-18200000D03*
X86056527Y-17300000D03*
X85156527Y-17300000D03*
%TD*%
%TO.C,D5*%
X88118750Y-70307493D03*
X88118750Y-71207493D03*
X89018750Y-71207493D03*
X89018750Y-70307493D03*
%TD*%
%TO.C,D20*%
X62088928Y-59530127D03*
X62988928Y-59530127D03*
X62988928Y-58630127D03*
X62088928Y-58630127D03*
%TD*%
%TO.C,D4*%
X85275000Y-10165653D03*
X85275000Y-11065653D03*
X86175000Y-11065653D03*
X86175000Y-10165653D03*
%TD*%
D13*
%TO.C,R1*%
X96270000Y-51178000D03*
X95250000Y-51178000D03*
%TD*%
D11*
%TO.C,D16*%
X80611072Y-13869873D03*
X81511072Y-13869873D03*
X81511072Y-12969873D03*
X80611072Y-12969873D03*
%TD*%
%TO.C,D3*%
X60550000Y-8361434D03*
X60550000Y-9261434D03*
X61450000Y-9261434D03*
X61450000Y-8361434D03*
%TD*%
%TO.C,D5*%
X66518750Y-11807493D03*
X66518750Y-12707493D03*
X67418750Y-12707493D03*
X67418750Y-11807493D03*
%TD*%
%TO.C,D17*%
X83880536Y-52552405D03*
X83880536Y-53452405D03*
X84780536Y-53452405D03*
X84780536Y-52552405D03*
%TD*%
%TO.C,D8*%
X88487500Y-60999224D03*
X88487500Y-60099224D03*
X87587500Y-60099224D03*
X87587500Y-60999224D03*
%TD*%
%TO.C,D15*%
X79143473Y-55200000D03*
X80043473Y-55200000D03*
X80043473Y-54300000D03*
X79143473Y-54300000D03*
%TD*%
%TO.C,D10*%
X39850000Y-25138566D03*
X39850000Y-24238566D03*
X38950000Y-24238566D03*
X38950000Y-25138566D03*
%TD*%
%TO.C,D5*%
X23318750Y-50807493D03*
X23318750Y-51707493D03*
X24218750Y-51707493D03*
X24218750Y-50807493D03*
%TD*%
D12*
%TO.C,C3*%
X100078000Y-38566000D03*
X100078000Y-37606000D03*
%TD*%
D11*
%TO.C,D8*%
X88487500Y-21999224D03*
X88487500Y-21099224D03*
X87587500Y-21099224D03*
X87587500Y-21999224D03*
%TD*%
%TO.C,D8*%
X88487500Y-80499224D03*
X88487500Y-79599224D03*
X87587500Y-79599224D03*
X87587500Y-80499224D03*
%TD*%
%TO.C,D15*%
X14343473Y-16200000D03*
X15243473Y-16200000D03*
X15243473Y-15300000D03*
X14343473Y-15300000D03*
%TD*%
D10*
%TO.C,C1*%
X52080000Y-71694000D03*
X53040000Y-71694000D03*
%TD*%
D11*
%TO.C,D20*%
X83688928Y-20530127D03*
X84588928Y-20530127D03*
X84588928Y-19630127D03*
X83688928Y-19630127D03*
%TD*%
D12*
%TO.C,C3*%
X35278000Y-19066000D03*
X35278000Y-18106000D03*
%TD*%
D11*
%TO.C,D21*%
X63556527Y-37700000D03*
X64456527Y-37700000D03*
X64456527Y-36800000D03*
X63556527Y-36800000D03*
%TD*%
D10*
%TO.C,C2*%
X87396000Y-58602000D03*
X88356000Y-58602000D03*
%TD*%
D11*
%TO.C,D15*%
X100743473Y-16200000D03*
X101643473Y-16200000D03*
X101643473Y-15300000D03*
X100743473Y-15300000D03*
%TD*%
D15*
%TO.C,KiKit_TO_4*%
X119500000Y-89500000D03*
%TD*%
D11*
%TO.C,D7*%
X111156250Y-36869578D03*
X111156250Y-37769578D03*
X112056250Y-37769578D03*
X112056250Y-36869578D03*
%TD*%
%TO.C,D1*%
X33512500Y-70000776D03*
X33512500Y-70900776D03*
X34412500Y-70900776D03*
X34412500Y-70000776D03*
%TD*%
%TO.C,D18*%
X17350000Y-74800000D03*
X17350000Y-75700000D03*
X18250000Y-75700000D03*
X18250000Y-74800000D03*
%TD*%
%TO.C,D9*%
X64168750Y-62568895D03*
X64168750Y-61668895D03*
X63268750Y-61668895D03*
X63268750Y-62568895D03*
%TD*%
%TO.C,D9*%
X107368750Y-23568895D03*
X107368750Y-22668895D03*
X106468750Y-22668895D03*
X106468750Y-23568895D03*
%TD*%
%TO.C,D6*%
X45825000Y-34169726D03*
X45825000Y-35069726D03*
X46725000Y-35069726D03*
X46725000Y-34169726D03*
%TD*%
%TO.C,D9*%
X85768750Y-23568895D03*
X85768750Y-22668895D03*
X84868750Y-22668895D03*
X84868750Y-23568895D03*
%TD*%
%TO.C,D12*%
X77081250Y-60692507D03*
X77081250Y-59792507D03*
X76181250Y-59792507D03*
X76181250Y-60692507D03*
%TD*%
%TO.C,D19*%
X37219464Y-19047595D03*
X37219464Y-19947595D03*
X38119464Y-19947595D03*
X38119464Y-19047595D03*
%TD*%
%TO.C,D20*%
X40488928Y-20530127D03*
X41388928Y-20530127D03*
X41388928Y-19630127D03*
X40488928Y-19630127D03*
%TD*%
D13*
%TO.C,R1*%
X53070000Y-31678000D03*
X52050000Y-31678000D03*
%TD*%
D11*
%TO.C,D15*%
X35943473Y-55200000D03*
X36843473Y-55200000D03*
X36843473Y-54300000D03*
X35943473Y-54300000D03*
%TD*%
%TO.C,D1*%
X98312500Y-11500776D03*
X98312500Y-12400776D03*
X99212500Y-12400776D03*
X99212500Y-11500776D03*
%TD*%
%TO.C,D6*%
X89025000Y-53669726D03*
X89025000Y-54569726D03*
X89925000Y-54569726D03*
X89925000Y-53669726D03*
%TD*%
%TO.C,D14*%
X54043750Y-16130422D03*
X54043750Y-15230422D03*
X53143750Y-15230422D03*
X53143750Y-16130422D03*
%TD*%
%TO.C,D9*%
X107368750Y-43068895D03*
X107368750Y-42168895D03*
X106468750Y-42168895D03*
X106468750Y-43068895D03*
%TD*%
%TO.C,D10*%
X83050000Y-44638566D03*
X83050000Y-43738566D03*
X82150000Y-43738566D03*
X82150000Y-44638566D03*
%TD*%
%TO.C,D21*%
X63556527Y-76700000D03*
X64456527Y-76700000D03*
X64456527Y-75800000D03*
X63556527Y-75800000D03*
%TD*%
%TO.C,D1*%
X76712500Y-31000776D03*
X76712500Y-31900776D03*
X77612500Y-31900776D03*
X77612500Y-31000776D03*
%TD*%
%TO.C,D5*%
X66518750Y-50807493D03*
X66518750Y-51707493D03*
X67418750Y-51707493D03*
X67418750Y-50807493D03*
%TD*%
%TO.C,D5*%
X66518750Y-31307493D03*
X66518750Y-32207493D03*
X67418750Y-32207493D03*
X67418750Y-31307493D03*
%TD*%
%TO.C,D8*%
X23687500Y-80499224D03*
X23687500Y-79599224D03*
X22787500Y-79599224D03*
X22787500Y-80499224D03*
%TD*%
%TO.C,D1*%
X11912500Y-50500776D03*
X11912500Y-51400776D03*
X12812500Y-51400776D03*
X12812500Y-50500776D03*
%TD*%
D10*
%TO.C,C1*%
X8880000Y-32694000D03*
X9840000Y-32694000D03*
%TD*%
D11*
%TO.C,D18*%
X38950000Y-35800000D03*
X38950000Y-36700000D03*
X39850000Y-36700000D03*
X39850000Y-35800000D03*
%TD*%
%TO.C,D17*%
X105480536Y-52552405D03*
X105480536Y-53452405D03*
X106380536Y-53452405D03*
X106380536Y-52552405D03*
%TD*%
%TO.C,D14*%
X97243750Y-35630422D03*
X97243750Y-34730422D03*
X96343750Y-34730422D03*
X96343750Y-35630422D03*
%TD*%
%TO.C,D10*%
X39850000Y-44638566D03*
X39850000Y-43738566D03*
X38950000Y-43738566D03*
X38950000Y-44638566D03*
%TD*%
%TO.C,D6*%
X67425000Y-14669726D03*
X67425000Y-15569726D03*
X68325000Y-15569726D03*
X68325000Y-14669726D03*
%TD*%
%TO.C,D10*%
X104650000Y-64138566D03*
X104650000Y-63238566D03*
X103750000Y-63238566D03*
X103750000Y-64138566D03*
%TD*%
D10*
%TO.C,C1*%
X73680000Y-52194000D03*
X74640000Y-52194000D03*
%TD*%
D11*
%TO.C,D14*%
X32443750Y-74630422D03*
X32443750Y-73730422D03*
X31543750Y-73730422D03*
X31543750Y-74630422D03*
%TD*%
%TO.C,D16*%
X80611072Y-52869873D03*
X81511072Y-52869873D03*
X81511072Y-51969873D03*
X80611072Y-51969873D03*
%TD*%
%TO.C,D21*%
X41956527Y-76700000D03*
X42856527Y-76700000D03*
X42856527Y-75800000D03*
X41956527Y-75800000D03*
%TD*%
%TO.C,D19*%
X80419464Y-58047595D03*
X80419464Y-58947595D03*
X81319464Y-58947595D03*
X81319464Y-58047595D03*
%TD*%
%TO.C,D18*%
X82150000Y-55300000D03*
X82150000Y-56200000D03*
X83050000Y-56200000D03*
X83050000Y-55300000D03*
%TD*%
D14*
%TO.C,KiKit_FID_T_4*%
X112500000Y-89500000D03*
%TD*%
D11*
%TO.C,D17*%
X83880536Y-72052405D03*
X83880536Y-72952405D03*
X84780536Y-72952405D03*
X84780536Y-72052405D03*
%TD*%
D13*
%TO.C,R1*%
X96270000Y-31678000D03*
X95250000Y-31678000D03*
%TD*%
D11*
%TO.C,D19*%
X15619464Y-38547595D03*
X15619464Y-39447595D03*
X16519464Y-39447595D03*
X16519464Y-38547595D03*
%TD*%
%TO.C,D14*%
X32443750Y-55130422D03*
X32443750Y-54230422D03*
X31543750Y-54230422D03*
X31543750Y-55130422D03*
%TD*%
%TO.C,D8*%
X23687500Y-60999224D03*
X23687500Y-60099224D03*
X22787500Y-60099224D03*
X22787500Y-60999224D03*
%TD*%
%TO.C,D3*%
X38950000Y-27861434D03*
X38950000Y-28761434D03*
X39850000Y-28761434D03*
X39850000Y-27861434D03*
%TD*%
D10*
%TO.C,C1*%
X52080000Y-13194000D03*
X53040000Y-13194000D03*
%TD*%
D11*
%TO.C,D9*%
X85768750Y-43068895D03*
X85768750Y-42168895D03*
X84868750Y-42168895D03*
X84868750Y-43068895D03*
%TD*%
%TO.C,D13*%
X32975000Y-57830274D03*
X32975000Y-56930274D03*
X32075000Y-56930274D03*
X32075000Y-57830274D03*
%TD*%
D10*
%TO.C,C1*%
X8880000Y-52194000D03*
X9840000Y-52194000D03*
%TD*%
D11*
%TO.C,D17*%
X83880536Y-33052405D03*
X83880536Y-33952405D03*
X84780536Y-33952405D03*
X84780536Y-33052405D03*
%TD*%
%TO.C,D2*%
X14631250Y-48931105D03*
X14631250Y-49831105D03*
X15531250Y-49831105D03*
X15531250Y-48931105D03*
%TD*%
%TO.C,D18*%
X38950000Y-55300000D03*
X38950000Y-56200000D03*
X39850000Y-56200000D03*
X39850000Y-55300000D03*
%TD*%
%TO.C,D12*%
X33881250Y-21692507D03*
X33881250Y-20792507D03*
X32981250Y-20792507D03*
X32981250Y-21692507D03*
%TD*%
D12*
%TO.C,C3*%
X56878000Y-19066000D03*
X56878000Y-18106000D03*
%TD*%
D11*
%TO.C,D19*%
X80419464Y-19047595D03*
X80419464Y-19947595D03*
X81319464Y-19947595D03*
X81319464Y-19047595D03*
%TD*%
%TO.C,D13*%
X11375000Y-18830274D03*
X11375000Y-17930274D03*
X10475000Y-17930274D03*
X10475000Y-18830274D03*
%TD*%
%TO.C,D12*%
X98681250Y-80192507D03*
X98681250Y-79292507D03*
X97781250Y-79292507D03*
X97781250Y-80192507D03*
%TD*%
%TO.C,D14*%
X97243750Y-16130422D03*
X97243750Y-15230422D03*
X96343750Y-15230422D03*
X96343750Y-16130422D03*
%TD*%
%TO.C,D17*%
X62280536Y-52552405D03*
X62280536Y-53452405D03*
X63180536Y-53452405D03*
X63180536Y-52552405D03*
%TD*%
D10*
%TO.C,C2*%
X108996000Y-39102000D03*
X109956000Y-39102000D03*
%TD*%
D11*
%TO.C,D7*%
X46356250Y-36869578D03*
X46356250Y-37769578D03*
X47256250Y-37769578D03*
X47256250Y-36869578D03*
%TD*%
%TO.C,D12*%
X33881250Y-60692507D03*
X33881250Y-59792507D03*
X32981250Y-59792507D03*
X32981250Y-60692507D03*
%TD*%
%TO.C,D3*%
X60550000Y-66861434D03*
X60550000Y-67761434D03*
X61450000Y-67761434D03*
X61450000Y-66861434D03*
%TD*%
%TO.C,D10*%
X39850000Y-64138566D03*
X39850000Y-63238566D03*
X38950000Y-63238566D03*
X38950000Y-64138566D03*
%TD*%
%TO.C,D21*%
X85156527Y-37700000D03*
X86056527Y-37700000D03*
X86056527Y-36800000D03*
X85156527Y-36800000D03*
%TD*%
%TO.C,D13*%
X97775000Y-57830274D03*
X97775000Y-56930274D03*
X96875000Y-56930274D03*
X96875000Y-57830274D03*
%TD*%
%TO.C,D4*%
X106875000Y-49165653D03*
X106875000Y-50065653D03*
X107775000Y-50065653D03*
X107775000Y-49165653D03*
%TD*%
D15*
%TO.C,KiKit_TO_1*%
X2500000Y-2500000D03*
%TD*%
D11*
%TO.C,D18*%
X17350000Y-35800000D03*
X17350000Y-36700000D03*
X18250000Y-36700000D03*
X18250000Y-35800000D03*
%TD*%
%TO.C,D20*%
X40488928Y-79030127D03*
X41388928Y-79030127D03*
X41388928Y-78130127D03*
X40488928Y-78130127D03*
%TD*%
D12*
%TO.C,C3*%
X13678000Y-38566000D03*
X13678000Y-37606000D03*
%TD*%
D11*
%TO.C,D2*%
X79431250Y-68431105D03*
X79431250Y-69331105D03*
X80331250Y-69331105D03*
X80331250Y-68431105D03*
%TD*%
%TO.C,D4*%
X20475000Y-68665653D03*
X20475000Y-69565653D03*
X21375000Y-69565653D03*
X21375000Y-68665653D03*
%TD*%
D14*
%TO.C,KiKit_FID_T_2*%
X112500000Y-2500000D03*
%TD*%
D11*
%TO.C,D19*%
X58819464Y-38547595D03*
X58819464Y-39447595D03*
X59719464Y-39447595D03*
X59719464Y-38547595D03*
%TD*%
D13*
%TO.C,R1*%
X9870000Y-12178000D03*
X8850000Y-12178000D03*
%TD*%
D11*
%TO.C,D8*%
X66887500Y-41499224D03*
X66887500Y-40599224D03*
X65987500Y-40599224D03*
X65987500Y-41499224D03*
%TD*%
%TO.C,D1*%
X98312500Y-70000776D03*
X98312500Y-70900776D03*
X99212500Y-70900776D03*
X99212500Y-70000776D03*
%TD*%
D10*
%TO.C,C1*%
X8880000Y-71694000D03*
X9840000Y-71694000D03*
%TD*%
D12*
%TO.C,C3*%
X78478000Y-19066000D03*
X78478000Y-18106000D03*
%TD*%
D11*
%TO.C,D7*%
X89556250Y-75869578D03*
X89556250Y-76769578D03*
X90456250Y-76769578D03*
X90456250Y-75869578D03*
%TD*%
%TO.C,D14*%
X54043750Y-35630422D03*
X54043750Y-34730422D03*
X53143750Y-34730422D03*
X53143750Y-35630422D03*
%TD*%
%TO.C,D1*%
X11912500Y-31000776D03*
X11912500Y-31900776D03*
X12812500Y-31900776D03*
X12812500Y-31000776D03*
%TD*%
%TO.C,D8*%
X45287500Y-80499224D03*
X45287500Y-79599224D03*
X44387500Y-79599224D03*
X44387500Y-80499224D03*
%TD*%
%TO.C,D15*%
X57543473Y-55200000D03*
X58443473Y-55200000D03*
X58443473Y-54300000D03*
X57543473Y-54300000D03*
%TD*%
%TO.C,D10*%
X61450000Y-25138566D03*
X61450000Y-24238566D03*
X60550000Y-24238566D03*
X60550000Y-25138566D03*
%TD*%
%TO.C,D6*%
X110625000Y-53669726D03*
X110625000Y-54569726D03*
X111525000Y-54569726D03*
X111525000Y-53669726D03*
%TD*%
%TO.C,D13*%
X54575000Y-77330274D03*
X54575000Y-76430274D03*
X53675000Y-76430274D03*
X53675000Y-77330274D03*
%TD*%
%TO.C,D4*%
X85275000Y-49165653D03*
X85275000Y-50065653D03*
X86175000Y-50065653D03*
X86175000Y-49165653D03*
%TD*%
D10*
%TO.C,C1*%
X73680000Y-71694000D03*
X74640000Y-71694000D03*
%TD*%
D11*
%TO.C,D11*%
X15125000Y-81834347D03*
X15125000Y-80934347D03*
X14225000Y-80934347D03*
X14225000Y-81834347D03*
%TD*%
%TO.C,D18*%
X60550000Y-16300000D03*
X60550000Y-17200000D03*
X61450000Y-17200000D03*
X61450000Y-16300000D03*
%TD*%
%TO.C,D18*%
X38950000Y-74800000D03*
X38950000Y-75700000D03*
X39850000Y-75700000D03*
X39850000Y-74800000D03*
%TD*%
%TO.C,D21*%
X41956527Y-57200000D03*
X42856527Y-57200000D03*
X42856527Y-56300000D03*
X41956527Y-56300000D03*
%TD*%
%TO.C,D16*%
X80611072Y-33369873D03*
X81511072Y-33369873D03*
X81511072Y-32469873D03*
X80611072Y-32469873D03*
%TD*%
%TO.C,D11*%
X36725000Y-62334347D03*
X36725000Y-61434347D03*
X35825000Y-61434347D03*
X35825000Y-62334347D03*
%TD*%
%TO.C,D10*%
X104650000Y-25138566D03*
X104650000Y-24238566D03*
X103750000Y-24238566D03*
X103750000Y-25138566D03*
%TD*%
%TO.C,D1*%
X33512500Y-11500776D03*
X33512500Y-12400776D03*
X34412500Y-12400776D03*
X34412500Y-11500776D03*
%TD*%
D13*
%TO.C,R1*%
X74670000Y-31678000D03*
X73650000Y-31678000D03*
%TD*%
D12*
%TO.C,C3*%
X13678000Y-19066000D03*
X13678000Y-18106000D03*
%TD*%
D11*
%TO.C,D18*%
X17350000Y-16300000D03*
X17350000Y-17200000D03*
X18250000Y-17200000D03*
X18250000Y-16300000D03*
%TD*%
%TO.C,D9*%
X64168750Y-43068895D03*
X64168750Y-42168895D03*
X63268750Y-42168895D03*
X63268750Y-43068895D03*
%TD*%
%TO.C,D13*%
X54575000Y-57830274D03*
X54575000Y-56930274D03*
X53675000Y-56930274D03*
X53675000Y-57830274D03*
%TD*%
%TO.C,D17*%
X40680536Y-13552405D03*
X40680536Y-14452405D03*
X41580536Y-14452405D03*
X41580536Y-13552405D03*
%TD*%
%TO.C,D13*%
X97775000Y-77330274D03*
X97775000Y-76430274D03*
X96875000Y-76430274D03*
X96875000Y-77330274D03*
%TD*%
%TO.C,D2*%
X57831250Y-48931105D03*
X57831250Y-49831105D03*
X58731250Y-49831105D03*
X58731250Y-48931105D03*
%TD*%
%TO.C,D11*%
X58325000Y-23334347D03*
X58325000Y-22434347D03*
X57425000Y-22434347D03*
X57425000Y-23334347D03*
%TD*%
%TO.C,D11*%
X15125000Y-42834347D03*
X15125000Y-41934347D03*
X14225000Y-41934347D03*
X14225000Y-42834347D03*
%TD*%
%TO.C,D11*%
X79925000Y-23334347D03*
X79925000Y-22434347D03*
X79025000Y-22434347D03*
X79025000Y-23334347D03*
%TD*%
%TO.C,D13*%
X32975000Y-38330274D03*
X32975000Y-37430274D03*
X32075000Y-37430274D03*
X32075000Y-38330274D03*
%TD*%
%TO.C,D10*%
X61450000Y-64138566D03*
X61450000Y-63238566D03*
X60550000Y-63238566D03*
X60550000Y-64138566D03*
%TD*%
%TO.C,D10*%
X18250000Y-44638566D03*
X18250000Y-43738566D03*
X17350000Y-43738566D03*
X17350000Y-44638566D03*
%TD*%
%TO.C,D20*%
X18888928Y-20530127D03*
X19788928Y-20530127D03*
X19788928Y-19630127D03*
X18888928Y-19630127D03*
%TD*%
%TO.C,D7*%
X24756250Y-36869578D03*
X24756250Y-37769578D03*
X25656250Y-37769578D03*
X25656250Y-36869578D03*
%TD*%
%TO.C,D16*%
X80611072Y-72369873D03*
X81511072Y-72369873D03*
X81511072Y-71469873D03*
X80611072Y-71469873D03*
%TD*%
%TO.C,D14*%
X54043750Y-74630422D03*
X54043750Y-73730422D03*
X53143750Y-73730422D03*
X53143750Y-74630422D03*
%TD*%
%TO.C,D12*%
X12281250Y-60692507D03*
X12281250Y-59792507D03*
X11381250Y-59792507D03*
X11381250Y-60692507D03*
%TD*%
%TO.C,D5*%
X44918750Y-11807493D03*
X44918750Y-12707493D03*
X45818750Y-12707493D03*
X45818750Y-11807493D03*
%TD*%
%TO.C,D10*%
X61450000Y-44638566D03*
X61450000Y-43738566D03*
X60550000Y-43738566D03*
X60550000Y-44638566D03*
%TD*%
D15*
%TO.C,KiKit_TO_3*%
X2500000Y-89500000D03*
%TD*%
D11*
%TO.C,D7*%
X67956250Y-75869578D03*
X67956250Y-76769578D03*
X68856250Y-76769578D03*
X68856250Y-75869578D03*
%TD*%
%TO.C,D8*%
X23687500Y-41499224D03*
X23687500Y-40599224D03*
X22787500Y-40599224D03*
X22787500Y-41499224D03*
%TD*%
D10*
%TO.C,C1*%
X95280000Y-32694000D03*
X96240000Y-32694000D03*
%TD*%
D11*
%TO.C,D2*%
X101031250Y-48931105D03*
X101031250Y-49831105D03*
X101931250Y-49831105D03*
X101931250Y-48931105D03*
%TD*%
%TO.C,D19*%
X58819464Y-58047595D03*
X58819464Y-58947595D03*
X59719464Y-58947595D03*
X59719464Y-58047595D03*
%TD*%
%TO.C,D20*%
X105288928Y-59530127D03*
X106188928Y-59530127D03*
X106188928Y-58630127D03*
X105288928Y-58630127D03*
%TD*%
D10*
%TO.C,C2*%
X87396000Y-78102000D03*
X88356000Y-78102000D03*
%TD*%
D13*
%TO.C,R1*%
X53070000Y-12178000D03*
X52050000Y-12178000D03*
%TD*%
D11*
%TO.C,D19*%
X58819464Y-77547595D03*
X58819464Y-78447595D03*
X59719464Y-78447595D03*
X59719464Y-77547595D03*
%TD*%
%TO.C,D3*%
X103750000Y-47361434D03*
X103750000Y-48261434D03*
X104650000Y-48261434D03*
X104650000Y-47361434D03*
%TD*%
%TO.C,D19*%
X15619464Y-77547595D03*
X15619464Y-78447595D03*
X16519464Y-78447595D03*
X16519464Y-77547595D03*
%TD*%
D12*
%TO.C,C3*%
X13678000Y-58066000D03*
X13678000Y-57106000D03*
%TD*%
D11*
%TO.C,D12*%
X33881250Y-80192507D03*
X33881250Y-79292507D03*
X32981250Y-79292507D03*
X32981250Y-80192507D03*
%TD*%
%TO.C,D2*%
X14631250Y-29431105D03*
X14631250Y-30331105D03*
X15531250Y-30331105D03*
X15531250Y-29431105D03*
%TD*%
D10*
%TO.C,C2*%
X87396000Y-19602000D03*
X88356000Y-19602000D03*
%TD*%
D11*
%TO.C,D18*%
X17350000Y-55300000D03*
X17350000Y-56200000D03*
X18250000Y-56200000D03*
X18250000Y-55300000D03*
%TD*%
%TO.C,D19*%
X102019464Y-38547595D03*
X102019464Y-39447595D03*
X102919464Y-39447595D03*
X102919464Y-38547595D03*
%TD*%
%TO.C,D15*%
X100743473Y-55200000D03*
X101643473Y-55200000D03*
X101643473Y-54300000D03*
X100743473Y-54300000D03*
%TD*%
%TO.C,D9*%
X85768750Y-62568895D03*
X85768750Y-61668895D03*
X84868750Y-61668895D03*
X84868750Y-62568895D03*
%TD*%
%TO.C,D9*%
X42568750Y-82068895D03*
X42568750Y-81168895D03*
X41668750Y-81168895D03*
X41668750Y-82068895D03*
%TD*%
%TO.C,D8*%
X66887500Y-60999224D03*
X66887500Y-60099224D03*
X65987500Y-60099224D03*
X65987500Y-60999224D03*
%TD*%
%TO.C,D16*%
X15811072Y-72369873D03*
X16711072Y-72369873D03*
X16711072Y-71469873D03*
X15811072Y-71469873D03*
%TD*%
D12*
%TO.C,C3*%
X35278000Y-58066000D03*
X35278000Y-57106000D03*
%TD*%
D11*
%TO.C,D18*%
X60550000Y-74800000D03*
X60550000Y-75700000D03*
X61450000Y-75700000D03*
X61450000Y-74800000D03*
%TD*%
%TO.C,D11*%
X58325000Y-62334347D03*
X58325000Y-61434347D03*
X57425000Y-61434347D03*
X57425000Y-62334347D03*
%TD*%
%TO.C,D12*%
X12281250Y-21692507D03*
X12281250Y-20792507D03*
X11381250Y-20792507D03*
X11381250Y-21692507D03*
%TD*%
%TO.C,D3*%
X82150000Y-27861434D03*
X82150000Y-28761434D03*
X83050000Y-28761434D03*
X83050000Y-27861434D03*
%TD*%
D10*
%TO.C,C1*%
X52080000Y-32694000D03*
X53040000Y-32694000D03*
%TD*%
D12*
%TO.C,C3*%
X56878000Y-58066000D03*
X56878000Y-57106000D03*
%TD*%
D11*
%TO.C,D11*%
X79925000Y-62334347D03*
X79925000Y-61434347D03*
X79025000Y-61434347D03*
X79025000Y-62334347D03*
%TD*%
D13*
%TO.C,R1*%
X53070000Y-51178000D03*
X52050000Y-51178000D03*
%TD*%
D11*
%TO.C,D4*%
X20475000Y-10165653D03*
X20475000Y-11065653D03*
X21375000Y-11065653D03*
X21375000Y-10165653D03*
%TD*%
D13*
%TO.C,R1*%
X31470000Y-51178000D03*
X30450000Y-51178000D03*
%TD*%
D11*
%TO.C,D14*%
X10843750Y-35630422D03*
X10843750Y-34730422D03*
X9943750Y-34730422D03*
X9943750Y-35630422D03*
%TD*%
D12*
%TO.C,C3*%
X100078000Y-19066000D03*
X100078000Y-18106000D03*
%TD*%
D11*
%TO.C,D20*%
X83688928Y-79030127D03*
X84588928Y-79030127D03*
X84588928Y-78130127D03*
X83688928Y-78130127D03*
%TD*%
D13*
%TO.C,R1*%
X96270000Y-70678000D03*
X95250000Y-70678000D03*
%TD*%
D11*
%TO.C,D17*%
X62280536Y-13552405D03*
X62280536Y-14452405D03*
X63180536Y-14452405D03*
X63180536Y-13552405D03*
%TD*%
%TO.C,D14*%
X32443750Y-35630422D03*
X32443750Y-34730422D03*
X31543750Y-34730422D03*
X31543750Y-35630422D03*
%TD*%
%TO.C,D20*%
X18888928Y-59530127D03*
X19788928Y-59530127D03*
X19788928Y-58630127D03*
X18888928Y-58630127D03*
%TD*%
%TO.C,D10*%
X18250000Y-64138566D03*
X18250000Y-63238566D03*
X17350000Y-63238566D03*
X17350000Y-64138566D03*
%TD*%
%TO.C,D6*%
X89025000Y-34169726D03*
X89025000Y-35069726D03*
X89925000Y-35069726D03*
X89925000Y-34169726D03*
%TD*%
%TO.C,D4*%
X20475000Y-49165653D03*
X20475000Y-50065653D03*
X21375000Y-50065653D03*
X21375000Y-49165653D03*
%TD*%
D10*
%TO.C,C1*%
X30480000Y-13194000D03*
X31440000Y-13194000D03*
%TD*%
D13*
%TO.C,R1*%
X31470000Y-12178000D03*
X30450000Y-12178000D03*
%TD*%
%TO.C,R1*%
X74670000Y-12178000D03*
X73650000Y-12178000D03*
%TD*%
D11*
%TO.C,D7*%
X111156250Y-17369578D03*
X111156250Y-18269578D03*
X112056250Y-18269578D03*
X112056250Y-17369578D03*
%TD*%
%TO.C,D17*%
X40680536Y-52552405D03*
X40680536Y-53452405D03*
X41580536Y-53452405D03*
X41580536Y-52552405D03*
%TD*%
%TO.C,D12*%
X12281250Y-80192507D03*
X12281250Y-79292507D03*
X11381250Y-79292507D03*
X11381250Y-80192507D03*
%TD*%
%TO.C,D7*%
X89556250Y-56369578D03*
X89556250Y-57269578D03*
X90456250Y-57269578D03*
X90456250Y-56369578D03*
%TD*%
%TO.C,D13*%
X54575000Y-18830274D03*
X54575000Y-17930274D03*
X53675000Y-17930274D03*
X53675000Y-18830274D03*
%TD*%
%TO.C,D16*%
X37411072Y-13869873D03*
X38311072Y-13869873D03*
X38311072Y-12969873D03*
X37411072Y-12969873D03*
%TD*%
%TO.C,D6*%
X89025000Y-73169726D03*
X89025000Y-74069726D03*
X89925000Y-74069726D03*
X89925000Y-73169726D03*
%TD*%
%TO.C,D15*%
X79143473Y-74700000D03*
X80043473Y-74700000D03*
X80043473Y-73800000D03*
X79143473Y-73800000D03*
%TD*%
%TO.C,D13*%
X32975000Y-18830274D03*
X32975000Y-17930274D03*
X32075000Y-17930274D03*
X32075000Y-18830274D03*
%TD*%
%TO.C,D2*%
X101031250Y-9931105D03*
X101031250Y-10831105D03*
X101931250Y-10831105D03*
X101931250Y-9931105D03*
%TD*%
%TO.C,D2*%
X36231250Y-9931105D03*
X36231250Y-10831105D03*
X37131250Y-10831105D03*
X37131250Y-9931105D03*
%TD*%
D10*
%TO.C,C2*%
X65796000Y-39102000D03*
X66756000Y-39102000D03*
%TD*%
D11*
%TO.C,D13*%
X76175000Y-57830274D03*
X76175000Y-56930274D03*
X75275000Y-56930274D03*
X75275000Y-57830274D03*
%TD*%
%TO.C,D7*%
X67956250Y-36869578D03*
X67956250Y-37769578D03*
X68856250Y-37769578D03*
X68856250Y-36869578D03*
%TD*%
%TO.C,D9*%
X64168750Y-82068895D03*
X64168750Y-81168895D03*
X63268750Y-81168895D03*
X63268750Y-82068895D03*
%TD*%
D12*
%TO.C,C3*%
X56878000Y-77566000D03*
X56878000Y-76606000D03*
%TD*%
D11*
%TO.C,D11*%
X36725000Y-81834347D03*
X36725000Y-80934347D03*
X35825000Y-80934347D03*
X35825000Y-81834347D03*
%TD*%
%TO.C,D4*%
X63675000Y-68665653D03*
X63675000Y-69565653D03*
X64575000Y-69565653D03*
X64575000Y-68665653D03*
%TD*%
%TO.C,D5*%
X88118750Y-11807493D03*
X88118750Y-12707493D03*
X89018750Y-12707493D03*
X89018750Y-11807493D03*
%TD*%
%TO.C,D15*%
X35943473Y-74700000D03*
X36843473Y-74700000D03*
X36843473Y-73800000D03*
X35943473Y-73800000D03*
%TD*%
%TO.C,D18*%
X60550000Y-55300000D03*
X60550000Y-56200000D03*
X61450000Y-56200000D03*
X61450000Y-55300000D03*
%TD*%
D13*
%TO.C,R1*%
X96270000Y-12178000D03*
X95250000Y-12178000D03*
%TD*%
D11*
%TO.C,D11*%
X15125000Y-62334347D03*
X15125000Y-61434347D03*
X14225000Y-61434347D03*
X14225000Y-62334347D03*
%TD*%
%TO.C,D9*%
X42568750Y-23568895D03*
X42568750Y-22668895D03*
X41668750Y-22668895D03*
X41668750Y-23568895D03*
%TD*%
%TO.C,D12*%
X77081250Y-80192507D03*
X77081250Y-79292507D03*
X76181250Y-79292507D03*
X76181250Y-80192507D03*
%TD*%
%TO.C,D12*%
X55481250Y-80192507D03*
X55481250Y-79292507D03*
X54581250Y-79292507D03*
X54581250Y-80192507D03*
%TD*%
%TO.C,D16*%
X102211072Y-52869873D03*
X103111072Y-52869873D03*
X103111072Y-51969873D03*
X102211072Y-51969873D03*
%TD*%
%TO.C,D21*%
X85156527Y-57200000D03*
X86056527Y-57200000D03*
X86056527Y-56300000D03*
X85156527Y-56300000D03*
%TD*%
%TO.C,D16*%
X37411072Y-33369873D03*
X38311072Y-33369873D03*
X38311072Y-32469873D03*
X37411072Y-32469873D03*
%TD*%
%TO.C,D1*%
X55112500Y-11500776D03*
X55112500Y-12400776D03*
X56012500Y-12400776D03*
X56012500Y-11500776D03*
%TD*%
%TO.C,D4*%
X42075000Y-49165653D03*
X42075000Y-50065653D03*
X42975000Y-50065653D03*
X42975000Y-49165653D03*
%TD*%
D14*
%TO.C,KiKit_FID_T_3*%
X9500000Y-89500000D03*
%TD*%
D11*
%TO.C,D2*%
X57831250Y-68431105D03*
X57831250Y-69331105D03*
X58731250Y-69331105D03*
X58731250Y-68431105D03*
%TD*%
D10*
%TO.C,C2*%
X22596000Y-39102000D03*
X23556000Y-39102000D03*
%TD*%
D11*
%TO.C,D16*%
X59011072Y-33369873D03*
X59911072Y-33369873D03*
X59911072Y-32469873D03*
X59011072Y-32469873D03*
%TD*%
%TO.C,D18*%
X60550000Y-35800000D03*
X60550000Y-36700000D03*
X61450000Y-36700000D03*
X61450000Y-35800000D03*
%TD*%
D12*
%TO.C,C3*%
X78478000Y-58066000D03*
X78478000Y-57106000D03*
%TD*%
D11*
%TO.C,D20*%
X40488928Y-40030127D03*
X41388928Y-40030127D03*
X41388928Y-39130127D03*
X40488928Y-39130127D03*
%TD*%
D12*
%TO.C,C3*%
X56878000Y-38566000D03*
X56878000Y-37606000D03*
%TD*%
D11*
%TO.C,D4*%
X85275000Y-29665653D03*
X85275000Y-30565653D03*
X86175000Y-30565653D03*
X86175000Y-29665653D03*
%TD*%
%TO.C,D16*%
X59011072Y-52869873D03*
X59911072Y-52869873D03*
X59911072Y-51969873D03*
X59011072Y-51969873D03*
%TD*%
%TO.C,D21*%
X63556527Y-18200000D03*
X64456527Y-18200000D03*
X64456527Y-17300000D03*
X63556527Y-17300000D03*
%TD*%
%TO.C,D11*%
X101525000Y-42834347D03*
X101525000Y-41934347D03*
X100625000Y-41934347D03*
X100625000Y-42834347D03*
%TD*%
D13*
%TO.C,R1*%
X9870000Y-31678000D03*
X8850000Y-31678000D03*
%TD*%
D10*
%TO.C,C1*%
X52080000Y-52194000D03*
X53040000Y-52194000D03*
%TD*%
D11*
%TO.C,D1*%
X33512500Y-50500776D03*
X33512500Y-51400776D03*
X34412500Y-51400776D03*
X34412500Y-50500776D03*
%TD*%
D10*
%TO.C,C1*%
X73680000Y-32694000D03*
X74640000Y-32694000D03*
%TD*%
D11*
%TO.C,D13*%
X32975000Y-77330274D03*
X32975000Y-76430274D03*
X32075000Y-76430274D03*
X32075000Y-77330274D03*
%TD*%
%TO.C,D2*%
X36231250Y-29431105D03*
X36231250Y-30331105D03*
X37131250Y-30331105D03*
X37131250Y-29431105D03*
%TD*%
%TO.C,D20*%
X83688928Y-59530127D03*
X84588928Y-59530127D03*
X84588928Y-58630127D03*
X83688928Y-58630127D03*
%TD*%
%TO.C,D3*%
X17350000Y-27861434D03*
X17350000Y-28761434D03*
X18250000Y-28761434D03*
X18250000Y-27861434D03*
%TD*%
D15*
%TO.C,KiKit_TO_2*%
X119500000Y-2500000D03*
%TD*%
D11*
%TO.C,D15*%
X14343473Y-74700000D03*
X15243473Y-74700000D03*
X15243473Y-73800000D03*
X14343473Y-73800000D03*
%TD*%
%TO.C,D8*%
X110087500Y-80499224D03*
X110087500Y-79599224D03*
X109187500Y-79599224D03*
X109187500Y-80499224D03*
%TD*%
%TO.C,D14*%
X97243750Y-74630422D03*
X97243750Y-73730422D03*
X96343750Y-73730422D03*
X96343750Y-74630422D03*
%TD*%
%TO.C,D1*%
X76712500Y-11500776D03*
X76712500Y-12400776D03*
X77612500Y-12400776D03*
X77612500Y-11500776D03*
%TD*%
D13*
%TO.C,R1*%
X53070000Y-70678000D03*
X52050000Y-70678000D03*
%TD*%
D11*
%TO.C,D18*%
X103750000Y-16300000D03*
X103750000Y-17200000D03*
X104650000Y-17200000D03*
X104650000Y-16300000D03*
%TD*%
%TO.C,D15*%
X100743473Y-35700000D03*
X101643473Y-35700000D03*
X101643473Y-34800000D03*
X100743473Y-34800000D03*
%TD*%
%TO.C,D12*%
X77081250Y-21692507D03*
X77081250Y-20792507D03*
X76181250Y-20792507D03*
X76181250Y-21692507D03*
%TD*%
%TO.C,D14*%
X54043750Y-55130422D03*
X54043750Y-54230422D03*
X53143750Y-54230422D03*
X53143750Y-55130422D03*
%TD*%
%TO.C,D8*%
X110087500Y-21999224D03*
X110087500Y-21099224D03*
X109187500Y-21099224D03*
X109187500Y-21999224D03*
%TD*%
%TO.C,D12*%
X55481250Y-21692507D03*
X55481250Y-20792507D03*
X54581250Y-20792507D03*
X54581250Y-21692507D03*
%TD*%
D10*
%TO.C,C1*%
X30480000Y-71694000D03*
X31440000Y-71694000D03*
%TD*%
D11*
%TO.C,D19*%
X15619464Y-58047595D03*
X15619464Y-58947595D03*
X16519464Y-58947595D03*
X16519464Y-58047595D03*
%TD*%
%TO.C,D4*%
X63675000Y-49165653D03*
X63675000Y-50065653D03*
X64575000Y-50065653D03*
X64575000Y-49165653D03*
%TD*%
%TO.C,D7*%
X67956250Y-56369578D03*
X67956250Y-57269578D03*
X68856250Y-57269578D03*
X68856250Y-56369578D03*
%TD*%
%TO.C,D20*%
X105288928Y-79030127D03*
X106188928Y-79030127D03*
X106188928Y-78130127D03*
X105288928Y-78130127D03*
%TD*%
D13*
%TO.C,R1*%
X74670000Y-70678000D03*
X73650000Y-70678000D03*
%TD*%
D11*
%TO.C,D18*%
X103750000Y-74800000D03*
X103750000Y-75700000D03*
X104650000Y-75700000D03*
X104650000Y-74800000D03*
%TD*%
%TO.C,D17*%
X105480536Y-72052405D03*
X105480536Y-72952405D03*
X106380536Y-72952405D03*
X106380536Y-72052405D03*
%TD*%
%TO.C,D20*%
X62088928Y-40030127D03*
X62988928Y-40030127D03*
X62988928Y-39130127D03*
X62088928Y-39130127D03*
%TD*%
%TO.C,D5*%
X44918750Y-31307493D03*
X44918750Y-32207493D03*
X45818750Y-32207493D03*
X45818750Y-31307493D03*
%TD*%
%TO.C,D13*%
X54575000Y-38330274D03*
X54575000Y-37430274D03*
X53675000Y-37430274D03*
X53675000Y-38330274D03*
%TD*%
%TO.C,D14*%
X10843750Y-16130422D03*
X10843750Y-15230422D03*
X9943750Y-15230422D03*
X9943750Y-16130422D03*
%TD*%
%TO.C,D8*%
X45287500Y-41499224D03*
X45287500Y-40599224D03*
X44387500Y-40599224D03*
X44387500Y-41499224D03*
%TD*%
%TO.C,D21*%
X85156527Y-76700000D03*
X86056527Y-76700000D03*
X86056527Y-75800000D03*
X85156527Y-75800000D03*
%TD*%
%TO.C,D3*%
X103750000Y-66861434D03*
X103750000Y-67761434D03*
X104650000Y-67761434D03*
X104650000Y-66861434D03*
%TD*%
%TO.C,D21*%
X41956527Y-37700000D03*
X42856527Y-37700000D03*
X42856527Y-36800000D03*
X41956527Y-36800000D03*
%TD*%
%TO.C,D7*%
X46356250Y-75869578D03*
X46356250Y-76769578D03*
X47256250Y-76769578D03*
X47256250Y-75869578D03*
%TD*%
%TO.C,D1*%
X11912500Y-70000776D03*
X11912500Y-70900776D03*
X12812500Y-70900776D03*
X12812500Y-70000776D03*
%TD*%
%TO.C,D9*%
X20968750Y-82068895D03*
X20968750Y-81168895D03*
X20068750Y-81168895D03*
X20068750Y-82068895D03*
%TD*%
%TO.C,D8*%
X23687500Y-21999224D03*
X23687500Y-21099224D03*
X22787500Y-21099224D03*
X22787500Y-21999224D03*
%TD*%
%TO.C,D16*%
X102211072Y-72369873D03*
X103111072Y-72369873D03*
X103111072Y-71469873D03*
X102211072Y-71469873D03*
%TD*%
%TO.C,D12*%
X98681250Y-60692507D03*
X98681250Y-59792507D03*
X97781250Y-59792507D03*
X97781250Y-60692507D03*
%TD*%
%TO.C,D10*%
X61450000Y-83638566D03*
X61450000Y-82738566D03*
X60550000Y-82738566D03*
X60550000Y-83638566D03*
%TD*%
%TO.C,D10*%
X104650000Y-83638566D03*
X104650000Y-82738566D03*
X103750000Y-82738566D03*
X103750000Y-83638566D03*
%TD*%
%TO.C,D13*%
X97775000Y-18830274D03*
X97775000Y-17930274D03*
X96875000Y-17930274D03*
X96875000Y-18830274D03*
%TD*%
%TO.C,D1*%
X98312500Y-50500776D03*
X98312500Y-51400776D03*
X99212500Y-51400776D03*
X99212500Y-50500776D03*
%TD*%
%TO.C,D19*%
X102019464Y-77547595D03*
X102019464Y-78447595D03*
X102919464Y-78447595D03*
X102919464Y-77547595D03*
%TD*%
%TO.C,D9*%
X42568750Y-43068895D03*
X42568750Y-42168895D03*
X41668750Y-42168895D03*
X41668750Y-43068895D03*
%TD*%
%TO.C,D16*%
X37411072Y-72369873D03*
X38311072Y-72369873D03*
X38311072Y-71469873D03*
X37411072Y-71469873D03*
%TD*%
%TO.C,D15*%
X79143473Y-16200000D03*
X80043473Y-16200000D03*
X80043473Y-15300000D03*
X79143473Y-15300000D03*
%TD*%
%TO.C,D4*%
X106875000Y-10165653D03*
X106875000Y-11065653D03*
X107775000Y-11065653D03*
X107775000Y-10165653D03*
%TD*%
%TO.C,D14*%
X75643750Y-74630422D03*
X75643750Y-73730422D03*
X74743750Y-73730422D03*
X74743750Y-74630422D03*
%TD*%
D10*
%TO.C,C2*%
X22596000Y-19602000D03*
X23556000Y-19602000D03*
%TD*%
D11*
%TO.C,D20*%
X83688928Y-40030127D03*
X84588928Y-40030127D03*
X84588928Y-39130127D03*
X83688928Y-39130127D03*
%TD*%
%TO.C,D20*%
X40488928Y-59530127D03*
X41388928Y-59530127D03*
X41388928Y-58630127D03*
X40488928Y-58630127D03*
%TD*%
%TO.C,D7*%
X89556250Y-36869578D03*
X89556250Y-37769578D03*
X90456250Y-37769578D03*
X90456250Y-36869578D03*
%TD*%
%TO.C,D9*%
X42568750Y-62568895D03*
X42568750Y-61668895D03*
X41668750Y-61668895D03*
X41668750Y-62568895D03*
%TD*%
%TO.C,D4*%
X42075000Y-10165653D03*
X42075000Y-11065653D03*
X42975000Y-11065653D03*
X42975000Y-10165653D03*
%TD*%
%TO.C,D16*%
X59011072Y-13869873D03*
X59911072Y-13869873D03*
X59911072Y-12969873D03*
X59011072Y-12969873D03*
%TD*%
%TO.C,D14*%
X75643750Y-55130422D03*
X75643750Y-54230422D03*
X74743750Y-54230422D03*
X74743750Y-55130422D03*
%TD*%
%TO.C,D12*%
X55481250Y-60692507D03*
X55481250Y-59792507D03*
X54581250Y-59792507D03*
X54581250Y-60692507D03*
%TD*%
%TO.C,D15*%
X79143473Y-35700000D03*
X80043473Y-35700000D03*
X80043473Y-34800000D03*
X79143473Y-34800000D03*
%TD*%
%TO.C,D21*%
X106756527Y-37700000D03*
X107656527Y-37700000D03*
X107656527Y-36800000D03*
X106756527Y-36800000D03*
%TD*%
%TO.C,D12*%
X98681250Y-41192507D03*
X98681250Y-40292507D03*
X97781250Y-40292507D03*
X97781250Y-41192507D03*
%TD*%
%TO.C,D14*%
X75643750Y-35630422D03*
X75643750Y-34730422D03*
X74743750Y-34730422D03*
X74743750Y-35630422D03*
%TD*%
%TO.C,D10*%
X104650000Y-44638566D03*
X104650000Y-43738566D03*
X103750000Y-43738566D03*
X103750000Y-44638566D03*
%TD*%
%TO.C,D1*%
X55112500Y-31000776D03*
X55112500Y-31900776D03*
X56012500Y-31900776D03*
X56012500Y-31000776D03*
%TD*%
%TO.C,D15*%
X100743473Y-74700000D03*
X101643473Y-74700000D03*
X101643473Y-73800000D03*
X100743473Y-73800000D03*
%TD*%
%TO.C,D6*%
X110625000Y-73169726D03*
X110625000Y-74069726D03*
X111525000Y-74069726D03*
X111525000Y-73169726D03*
%TD*%
%TO.C,D17*%
X40680536Y-33052405D03*
X40680536Y-33952405D03*
X41580536Y-33952405D03*
X41580536Y-33052405D03*
%TD*%
%TO.C,D2*%
X36231250Y-68431105D03*
X36231250Y-69331105D03*
X37131250Y-69331105D03*
X37131250Y-68431105D03*
%TD*%
%TO.C,D6*%
X110625000Y-14669726D03*
X110625000Y-15569726D03*
X111525000Y-15569726D03*
X111525000Y-14669726D03*
%TD*%
%TO.C,D4*%
X42075000Y-68665653D03*
X42075000Y-69565653D03*
X42975000Y-69565653D03*
X42975000Y-68665653D03*
%TD*%
D13*
%TO.C,R1*%
X9870000Y-51178000D03*
X8850000Y-51178000D03*
%TD*%
D11*
%TO.C,D3*%
X17350000Y-47361434D03*
X17350000Y-48261434D03*
X18250000Y-48261434D03*
X18250000Y-47361434D03*
%TD*%
%TO.C,D2*%
X14631250Y-68431105D03*
X14631250Y-69331105D03*
X15531250Y-69331105D03*
X15531250Y-68431105D03*
%TD*%
D10*
%TO.C,C1*%
X8880000Y-13194000D03*
X9840000Y-13194000D03*
%TD*%
D11*
%TO.C,D17*%
X105480536Y-33052405D03*
X105480536Y-33952405D03*
X106380536Y-33952405D03*
X106380536Y-33052405D03*
%TD*%
%TO.C,D21*%
X20356527Y-76700000D03*
X21256527Y-76700000D03*
X21256527Y-75800000D03*
X20356527Y-75800000D03*
%TD*%
%TO.C,D15*%
X35943473Y-35700000D03*
X36843473Y-35700000D03*
X36843473Y-34800000D03*
X35943473Y-34800000D03*
%TD*%
%TO.C,D14*%
X10843750Y-74630422D03*
X10843750Y-73730422D03*
X9943750Y-73730422D03*
X9943750Y-74630422D03*
%TD*%
%TO.C,D2*%
X57831250Y-29431105D03*
X57831250Y-30331105D03*
X58731250Y-30331105D03*
X58731250Y-29431105D03*
%TD*%
%TO.C,D3*%
X17350000Y-66861434D03*
X17350000Y-67761434D03*
X18250000Y-67761434D03*
X18250000Y-66861434D03*
%TD*%
D10*
%TO.C,C2*%
X22596000Y-78102000D03*
X23556000Y-78102000D03*
%TD*%
D11*
%TO.C,D9*%
X107368750Y-62568895D03*
X107368750Y-61668895D03*
X106468750Y-61668895D03*
X106468750Y-62568895D03*
%TD*%
%TO.C,D5*%
X23318750Y-11807493D03*
X23318750Y-12707493D03*
X24218750Y-12707493D03*
X24218750Y-11807493D03*
%TD*%
D12*
%TO.C,C3*%
X78478000Y-77566000D03*
X78478000Y-76606000D03*
%TD*%
D11*
%TO.C,D13*%
X76175000Y-38330274D03*
X76175000Y-37430274D03*
X75275000Y-37430274D03*
X75275000Y-38330274D03*
%TD*%
%TO.C,D7*%
X46356250Y-17369578D03*
X46356250Y-18269578D03*
X47256250Y-18269578D03*
X47256250Y-17369578D03*
%TD*%
D12*
%TO.C,C3*%
X100078000Y-77566000D03*
X100078000Y-76606000D03*
%TD*%
D11*
%TO.C,D7*%
X24756250Y-17369578D03*
X24756250Y-18269578D03*
X25656250Y-18269578D03*
X25656250Y-17369578D03*
%TD*%
%TO.C,D8*%
X45287500Y-60999224D03*
X45287500Y-60099224D03*
X44387500Y-60099224D03*
X44387500Y-60999224D03*
%TD*%
%TO.C,D18*%
X82150000Y-74800000D03*
X82150000Y-75700000D03*
X83050000Y-75700000D03*
X83050000Y-74800000D03*
%TD*%
%TO.C,D1*%
X76712500Y-70000776D03*
X76712500Y-70900776D03*
X77612500Y-70900776D03*
X77612500Y-70000776D03*
%TD*%
%TO.C,D20*%
X18888928Y-79030127D03*
X19788928Y-79030127D03*
X19788928Y-78130127D03*
X18888928Y-78130127D03*
%TD*%
%TO.C,D4*%
X42075000Y-29665653D03*
X42075000Y-30565653D03*
X42975000Y-30565653D03*
X42975000Y-29665653D03*
%TD*%
%TO.C,D21*%
X41956527Y-18200000D03*
X42856527Y-18200000D03*
X42856527Y-17300000D03*
X41956527Y-17300000D03*
%TD*%
%TO.C,D10*%
X18250000Y-25138566D03*
X18250000Y-24238566D03*
X17350000Y-24238566D03*
X17350000Y-25138566D03*
%TD*%
%TO.C,D13*%
X76175000Y-77330274D03*
X76175000Y-76430274D03*
X75275000Y-76430274D03*
X75275000Y-77330274D03*
%TD*%
%TO.C,D20*%
X105288928Y-20530127D03*
X106188928Y-20530127D03*
X106188928Y-19630127D03*
X105288928Y-19630127D03*
%TD*%
%TO.C,D6*%
X45825000Y-73169726D03*
X45825000Y-74069726D03*
X46725000Y-74069726D03*
X46725000Y-73169726D03*
%TD*%
%TO.C,D11*%
X15125000Y-23334347D03*
X15125000Y-22434347D03*
X14225000Y-22434347D03*
X14225000Y-23334347D03*
%TD*%
%TO.C,D11*%
X101525000Y-23334347D03*
X101525000Y-22434347D03*
X100625000Y-22434347D03*
X100625000Y-23334347D03*
%TD*%
%TO.C,D5*%
X66518750Y-70307493D03*
X66518750Y-71207493D03*
X67418750Y-71207493D03*
X67418750Y-70307493D03*
%TD*%
D10*
%TO.C,C2*%
X65796000Y-58602000D03*
X66756000Y-58602000D03*
%TD*%
D11*
%TO.C,D5*%
X23318750Y-70307493D03*
X23318750Y-71207493D03*
X24218750Y-71207493D03*
X24218750Y-70307493D03*
%TD*%
%TO.C,D3*%
X38950000Y-8361434D03*
X38950000Y-9261434D03*
X39850000Y-9261434D03*
X39850000Y-8361434D03*
%TD*%
D13*
%TO.C,R1*%
X74670000Y-51178000D03*
X73650000Y-51178000D03*
%TD*%
D11*
%TO.C,D15*%
X14343473Y-55200000D03*
X15243473Y-55200000D03*
X15243473Y-54300000D03*
X14343473Y-54300000D03*
%TD*%
%TO.C,D13*%
X76175000Y-18830274D03*
X76175000Y-17930274D03*
X75275000Y-17930274D03*
X75275000Y-18830274D03*
%TD*%
D10*
%TO.C,C2*%
X65796000Y-19602000D03*
X66756000Y-19602000D03*
%TD*%
D11*
%TO.C,D5*%
X109718750Y-11807493D03*
X109718750Y-12707493D03*
X110618750Y-12707493D03*
X110618750Y-11807493D03*
%TD*%
D12*
%TO.C,C3*%
X35278000Y-77566000D03*
X35278000Y-76606000D03*
%TD*%
D11*
%TO.C,D11*%
X58325000Y-81834347D03*
X58325000Y-80934347D03*
X57425000Y-80934347D03*
X57425000Y-81834347D03*
%TD*%
%TO.C,D11*%
X36725000Y-42834347D03*
X36725000Y-41934347D03*
X35825000Y-41934347D03*
X35825000Y-42834347D03*
%TD*%
%TO.C,D4*%
X63675000Y-10165653D03*
X63675000Y-11065653D03*
X64575000Y-11065653D03*
X64575000Y-10165653D03*
%TD*%
%TO.C,D9*%
X85768750Y-82068895D03*
X85768750Y-81168895D03*
X84868750Y-81168895D03*
X84868750Y-82068895D03*
%TD*%
D12*
%TO.C,C3*%
X35278000Y-38566000D03*
X35278000Y-37606000D03*
%TD*%
D11*
%TO.C,D2*%
X36231250Y-48931105D03*
X36231250Y-49831105D03*
X37131250Y-49831105D03*
X37131250Y-48931105D03*
%TD*%
%TO.C,D5*%
X44918750Y-50807493D03*
X44918750Y-51707493D03*
X45818750Y-51707493D03*
X45818750Y-50807493D03*
%TD*%
%TO.C,D9*%
X64168750Y-23568895D03*
X64168750Y-22668895D03*
X63268750Y-22668895D03*
X63268750Y-23568895D03*
%TD*%
D10*
%TO.C,C2*%
X44196000Y-19602000D03*
X45156000Y-19602000D03*
%TD*%
D11*
%TO.C,D3*%
X38950000Y-66861434D03*
X38950000Y-67761434D03*
X39850000Y-67761434D03*
X39850000Y-66861434D03*
%TD*%
%TO.C,D19*%
X80419464Y-77547595D03*
X80419464Y-78447595D03*
X81319464Y-78447595D03*
X81319464Y-77547595D03*
%TD*%
D10*
%TO.C,C1*%
X30480000Y-52194000D03*
X31440000Y-52194000D03*
%TD*%
D11*
%TO.C,D6*%
X24225000Y-14669726D03*
X24225000Y-15569726D03*
X25125000Y-15569726D03*
X25125000Y-14669726D03*
%TD*%
%TO.C,D13*%
X97775000Y-38330274D03*
X97775000Y-37430274D03*
X96875000Y-37430274D03*
X96875000Y-38330274D03*
%TD*%
D10*
%TO.C,C1*%
X95280000Y-71694000D03*
X96240000Y-71694000D03*
%TD*%
D11*
%TO.C,D18*%
X82150000Y-16300000D03*
X82150000Y-17200000D03*
X83050000Y-17200000D03*
X83050000Y-16300000D03*
%TD*%
%TO.C,D1*%
X11912500Y-11500776D03*
X11912500Y-12400776D03*
X12812500Y-12400776D03*
X12812500Y-11500776D03*
%TD*%
%TO.C,D3*%
X60550000Y-47361434D03*
X60550000Y-48261434D03*
X61450000Y-48261434D03*
X61450000Y-47361434D03*
%TD*%
%TO.C,D6*%
X24225000Y-73169726D03*
X24225000Y-74069726D03*
X25125000Y-74069726D03*
X25125000Y-73169726D03*
%TD*%
%TO.C,D19*%
X15619464Y-19047595D03*
X15619464Y-19947595D03*
X16519464Y-19947595D03*
X16519464Y-19047595D03*
%TD*%
%TO.C,D10*%
X39850000Y-83638566D03*
X39850000Y-82738566D03*
X38950000Y-82738566D03*
X38950000Y-83638566D03*
%TD*%
%TO.C,D2*%
X57831250Y-9931105D03*
X57831250Y-10831105D03*
X58731250Y-10831105D03*
X58731250Y-9931105D03*
%TD*%
%TO.C,D17*%
X19080536Y-72052405D03*
X19080536Y-72952405D03*
X19980536Y-72952405D03*
X19980536Y-72052405D03*
%TD*%
%TO.C,D11*%
X79925000Y-42834347D03*
X79925000Y-41934347D03*
X79025000Y-41934347D03*
X79025000Y-42834347D03*
%TD*%
%TO.C,D15*%
X57543473Y-16200000D03*
X58443473Y-16200000D03*
X58443473Y-15300000D03*
X57543473Y-15300000D03*
%TD*%
%TO.C,D4*%
X20475000Y-29665653D03*
X20475000Y-30565653D03*
X21375000Y-30565653D03*
X21375000Y-29665653D03*
%TD*%
%TO.C,D5*%
X109718750Y-50807493D03*
X109718750Y-51707493D03*
X110618750Y-51707493D03*
X110618750Y-50807493D03*
%TD*%
%TO.C,D2*%
X101031250Y-68431105D03*
X101031250Y-69331105D03*
X101931250Y-69331105D03*
X101931250Y-68431105D03*
%TD*%
%TO.C,D17*%
X40680536Y-72052405D03*
X40680536Y-72952405D03*
X41580536Y-72952405D03*
X41580536Y-72052405D03*
%TD*%
D10*
%TO.C,C1*%
X73680000Y-13194000D03*
X74640000Y-13194000D03*
%TD*%
D11*
%TO.C,D6*%
X45825000Y-53669726D03*
X45825000Y-54569726D03*
X46725000Y-54569726D03*
X46725000Y-53669726D03*
%TD*%
%TO.C,D12*%
X55481250Y-41192507D03*
X55481250Y-40292507D03*
X54581250Y-40292507D03*
X54581250Y-41192507D03*
%TD*%
%TO.C,D6*%
X45825000Y-14669726D03*
X45825000Y-15569726D03*
X46725000Y-15569726D03*
X46725000Y-14669726D03*
%TD*%
%TO.C,D2*%
X79431250Y-48931105D03*
X79431250Y-49831105D03*
X80331250Y-49831105D03*
X80331250Y-48931105D03*
%TD*%
%TO.C,D19*%
X37219464Y-77547595D03*
X37219464Y-78447595D03*
X38119464Y-78447595D03*
X38119464Y-77547595D03*
%TD*%
%TO.C,D14*%
X75643750Y-16130422D03*
X75643750Y-15230422D03*
X74743750Y-15230422D03*
X74743750Y-16130422D03*
%TD*%
%TO.C,D3*%
X38950000Y-47361434D03*
X38950000Y-48261434D03*
X39850000Y-48261434D03*
X39850000Y-47361434D03*
%TD*%
%TO.C,D6*%
X89025000Y-14669726D03*
X89025000Y-15569726D03*
X89925000Y-15569726D03*
X89925000Y-14669726D03*
%TD*%
%TO.C,D7*%
X111156250Y-75869578D03*
X111156250Y-76769578D03*
X112056250Y-76769578D03*
X112056250Y-75869578D03*
%TD*%
%TO.C,D1*%
X55112500Y-50500776D03*
X55112500Y-51400776D03*
X56012500Y-51400776D03*
X56012500Y-50500776D03*
%TD*%
%TO.C,D7*%
X89556250Y-17369578D03*
X89556250Y-18269578D03*
X90456250Y-18269578D03*
X90456250Y-17369578D03*
%TD*%
%TO.C,D3*%
X82150000Y-8361434D03*
X82150000Y-9261434D03*
X83050000Y-9261434D03*
X83050000Y-8361434D03*
%TD*%
%TO.C,D10*%
X83050000Y-83638566D03*
X83050000Y-82738566D03*
X82150000Y-82738566D03*
X82150000Y-83638566D03*
%TD*%
%TO.C,D15*%
X57543473Y-35700000D03*
X58443473Y-35700000D03*
X58443473Y-34800000D03*
X57543473Y-34800000D03*
%TD*%
%TO.C,D21*%
X106756527Y-76700000D03*
X107656527Y-76700000D03*
X107656527Y-75800000D03*
X106756527Y-75800000D03*
%TD*%
D10*
%TO.C,C2*%
X44196000Y-78102000D03*
X45156000Y-78102000D03*
%TD*%
M02*
