%TF.GenerationSoftware,KiCad,Pcbnew,8.0.4*%
%TF.CreationDate,2024-10-23T12:58:23+11:00*%
%TF.ProjectId,Micron_Logo_LED,4d696372-6f6e-45f4-9c6f-676f5f4c4544,rev?*%
%TF.SameCoordinates,Original*%
%TF.FileFunction,Copper,L1,Top*%
%TF.FilePolarity,Positive*%
%FSLAX46Y46*%
G04 Gerber Fmt 4.6, Leading zero omitted, Abs format (unit mm)*
G04 Created by KiCad (PCBNEW 8.0.4) date 2024-10-23 12:58:23*
%MOMM*%
%LPD*%
G01*
G04 APERTURE LIST*
G04 Aperture macros list*
%AMRoundRect*
0 Rectangle with rounded corners*
0 $1 Rounding radius*
0 $2 $3 $4 $5 $6 $7 $8 $9 X,Y pos of 4 corners*
0 Add a 4 corners polygon primitive as box body*
4,1,4,$2,$3,$4,$5,$6,$7,$8,$9,$2,$3,0*
0 Add four circle primitives for the rounded corners*
1,1,$1+$1,$2,$3*
1,1,$1+$1,$4,$5*
1,1,$1+$1,$6,$7*
1,1,$1+$1,$8,$9*
0 Add four rect primitives between the rounded corners*
20,1,$1+$1,$2,$3,$4,$5,0*
20,1,$1+$1,$4,$5,$6,$7,0*
20,1,$1+$1,$6,$7,$8,$9,0*
20,1,$1+$1,$8,$9,$2,$3,0*%
G04 Aperture macros list end*
%TA.AperFunction,SMDPad,CuDef*%
%ADD10R,0.500000X0.500000*%
%TD*%
%TA.AperFunction,SMDPad,CuDef*%
%ADD11RoundRect,0.135000X0.135000X0.185000X-0.135000X0.185000X-0.135000X-0.185000X0.135000X-0.185000X0*%
%TD*%
%TA.AperFunction,SMDPad,CuDef*%
%ADD12RoundRect,0.140000X-0.140000X-0.170000X0.140000X-0.170000X0.140000X0.170000X-0.140000X0.170000X0*%
%TD*%
%TA.AperFunction,SMDPad,CuDef*%
%ADD13RoundRect,0.140000X0.170000X-0.140000X0.170000X0.140000X-0.170000X0.140000X-0.170000X-0.140000X0*%
%TD*%
%TA.AperFunction,ViaPad*%
%ADD14C,0.600000*%
%TD*%
%TA.AperFunction,ViaPad*%
%ADD15C,0.700000*%
%TD*%
%TA.AperFunction,Conductor*%
%ADD16C,0.300000*%
%TD*%
%TA.AperFunction,Conductor*%
%ADD17C,0.200000*%
%TD*%
G04 APERTURE END LIST*
D10*
%TO.P,D3,1,DIN*%
%TO.N,Net-(D2-DOUT)*%
X151754000Y-92899434D03*
%TO.P,D3,2,VDD*%
%TO.N,+5V*%
X151754000Y-93799434D03*
%TO.P,D3,3,DOUT*%
%TO.N,Net-(D3-DOUT)*%
X152654000Y-93799434D03*
%TO.P,D3,4,GND*%
%TO.N,GND*%
X152654000Y-92899434D03*
%TD*%
%TO.P,D2,1,DIN*%
%TO.N,Net-(D1-DOUT)*%
X149035250Y-94469105D03*
%TO.P,D2,2,VDD*%
%TO.N,+5V*%
X149035250Y-95369105D03*
%TO.P,D2,3,DOUT*%
%TO.N,Net-(D2-DOUT)*%
X149935250Y-95369105D03*
%TO.P,D2,4,GND*%
%TO.N,GND*%
X149935250Y-94469105D03*
%TD*%
%TO.P,D5,1,DIN*%
%TO.N,Net-(D4-DOUT)*%
X157722750Y-96345493D03*
%TO.P,D5,2,VDD*%
%TO.N,+5V*%
X157722750Y-97245493D03*
%TO.P,D5,3,DOUT*%
%TO.N,Net-(D5-DOUT)*%
X158622750Y-97245493D03*
%TO.P,D5,4,GND*%
%TO.N,GND*%
X158622750Y-96345493D03*
%TD*%
%TO.P,D15,1,DIN*%
%TO.N,Net-(D14-DOUT)*%
X148331837Y-103410522D03*
%TO.P,D15,2,VDD*%
%TO.N,+5V*%
X148331837Y-104310522D03*
%TO.P,D15,3,DOUT*%
%TO.N,Net-(D15-DOUT)*%
X149231837Y-104310522D03*
%TO.P,D15,4,GND*%
%TO.N,GND*%
X149231837Y-103410522D03*
%TD*%
%TO.P,D1,1,DIN*%
%TO.N,Net-(D1-DIN)*%
X146316500Y-96038776D03*
%TO.P,D1,2,VDD*%
%TO.N,+5V*%
X146316500Y-96938776D03*
%TO.P,D1,3,DOUT*%
%TO.N,Net-(D1-DOUT)*%
X147216500Y-96938776D03*
%TO.P,D1,4,GND*%
%TO.N,GND*%
X147216500Y-96038776D03*
%TD*%
%TO.P,D10,1,DIN*%
%TO.N,Net-(D10-DIN)*%
X152654000Y-109676566D03*
%TO.P,D10,2,VDD*%
%TO.N,+5V*%
X152654000Y-108776566D03*
%TO.P,D10,3,DOUT*%
%TO.N,Net-(D10-DOUT)*%
X151754000Y-108776566D03*
%TO.P,D10,4,GND*%
%TO.N,GND*%
X151754000Y-109676566D03*
%TD*%
%TO.P,D13,1,DIN*%
%TO.N,Net-(D12-DOUT)*%
X145779000Y-103368274D03*
%TO.P,D13,2,VDD*%
%TO.N,+5V*%
X145779000Y-102468274D03*
%TO.P,D13,3,DOUT*%
%TO.N,Net-(D13-DOUT)*%
X144879000Y-102468274D03*
%TO.P,D13,4,GND*%
%TO.N,GND*%
X144879000Y-103368274D03*
%TD*%
%TO.P,D14,1,DIN*%
%TO.N,Net-(D13-DOUT)*%
X145247750Y-100668422D03*
%TO.P,D14,2,VDD*%
%TO.N,+5V*%
X145247750Y-99768422D03*
%TO.P,D14,3,DOUT*%
%TO.N,Net-(D14-DOUT)*%
X144347750Y-99768422D03*
%TO.P,D14,4,GND*%
%TO.N,GND*%
X144347750Y-100668422D03*
%TD*%
%TO.P,D12,1,DIN*%
%TO.N,Net-(D11-DOUT)*%
X146685250Y-106230507D03*
%TO.P,D12,2,VDD*%
%TO.N,+5V*%
X146685250Y-105330507D03*
%TO.P,D12,3,DOUT*%
%TO.N,Net-(D12-DOUT)*%
X145785250Y-105330507D03*
%TO.P,D12,4,GND*%
%TO.N,GND*%
X145785250Y-106230507D03*
%TD*%
%TO.P,D7,1,DIN*%
%TO.N,Net-(D6-DOUT)*%
X159160250Y-101907578D03*
%TO.P,D7,2,VDD*%
%TO.N,+5V*%
X159160250Y-102807578D03*
%TO.P,D7,3,DOUT*%
%TO.N,Net-(D7-DOUT)*%
X160060250Y-102807578D03*
%TO.P,D7,4,GND*%
%TO.N,GND*%
X160060250Y-101907578D03*
%TD*%
D11*
%TO.P,R1,1*%
%TO.N,Net-(D1-DIN)*%
X144274000Y-96716000D03*
%TO.P,R1,2*%
%TO.N,DIN*%
X143254000Y-96716000D03*
%TD*%
D10*
%TO.P,D9,1,DIN*%
%TO.N,Net-(D8-DOUT)*%
X155372750Y-108106895D03*
%TO.P,D9,2,VDD*%
%TO.N,+5V*%
X155372750Y-107206895D03*
%TO.P,D9,3,DOUT*%
%TO.N,Net-(D10-DIN)*%
X154472750Y-107206895D03*
%TO.P,D9,4,GND*%
%TO.N,GND*%
X154472750Y-108106895D03*
%TD*%
%TO.P,D17,1,DIN*%
%TO.N,Net-(D16-DOUT)*%
X153280664Y-101656005D03*
%TO.P,D17,2,VDD*%
%TO.N,+5V*%
X154180664Y-101656005D03*
%TO.P,D17,3,DOUT*%
%TO.N,Net-(D17-DOUT)*%
X154180664Y-100756005D03*
%TO.P,D17,4,GND*%
%TO.N,GND*%
X153280664Y-100756005D03*
%TD*%
D12*
%TO.P,C1,1*%
%TO.N,GND*%
X143284000Y-97732000D03*
%TO.P,C1,2*%
%TO.N,+5V*%
X144244000Y-97732000D03*
%TD*%
%TO.P,C2,1*%
%TO.N,GND*%
X157000000Y-104140000D03*
%TO.P,C2,2*%
%TO.N,+5V*%
X157960000Y-104140000D03*
%TD*%
D10*
%TO.P,D16,1,DIN*%
%TO.N,Net-(D15-DOUT)*%
X150079357Y-101656005D03*
%TO.P,D16,2,VDD*%
%TO.N,+5V*%
X150979357Y-101656005D03*
%TO.P,D16,3,DOUT*%
%TO.N,Net-(D16-DOUT)*%
X150979357Y-100756005D03*
%TO.P,D16,4,GND*%
%TO.N,GND*%
X150079357Y-100756005D03*
%TD*%
%TO.P,D4,1,DIN*%
%TO.N,Net-(D3-DOUT)*%
X154879000Y-94703653D03*
%TO.P,D4,2,VDD*%
%TO.N,+5V*%
X154879000Y-95603653D03*
%TO.P,D4,3,DOUT*%
%TO.N,Net-(D4-DOUT)*%
X155779000Y-95603653D03*
%TO.P,D4,4,GND*%
%TO.N,GND*%
X155779000Y-94703653D03*
%TD*%
D13*
%TO.P,C3,1*%
%TO.N,GND*%
X150876000Y-105636000D03*
%TO.P,C3,2*%
%TO.N,+5V*%
X150876000Y-104676000D03*
%TD*%
D10*
%TO.P,D19,1,DIN*%
%TO.N,Net-(D18-DOUT)*%
X154915190Y-98189132D03*
%TO.P,D19,2,VDD*%
%TO.N,+5V*%
X154915190Y-99089132D03*
%TO.P,D19,3,DOUT*%
%TO.N,DOUT*%
X155815190Y-99089132D03*
%TO.P,D19,4,GND*%
%TO.N,GND*%
X155815190Y-98189132D03*
%TD*%
%TO.P,D6,1,DIN*%
%TO.N,Net-(D5-DOUT)*%
X158629000Y-99207726D03*
%TO.P,D6,2,VDD*%
%TO.N,+5V*%
X158629000Y-100107726D03*
%TO.P,D6,3,DOUT*%
%TO.N,Net-(D6-DOUT)*%
X159529000Y-100107726D03*
%TO.P,D6,4,GND*%
%TO.N,GND*%
X159529000Y-99207726D03*
%TD*%
%TO.P,D11,1,DIN*%
%TO.N,Net-(D10-DOUT)*%
X149529000Y-107872347D03*
%TO.P,D11,2,VDD*%
%TO.N,+5V*%
X149529000Y-106972347D03*
%TO.P,D11,3,DOUT*%
%TO.N,Net-(D11-DOUT)*%
X148629000Y-106972347D03*
%TO.P,D11,4,GND*%
%TO.N,GND*%
X148629000Y-107872347D03*
%TD*%
%TO.P,D18,1,DIN*%
%TO.N,Net-(D17-DOUT)*%
X151769165Y-99089132D03*
%TO.P,D18,2,VDD*%
%TO.N,+5V*%
X152669165Y-99089132D03*
%TO.P,D18,3,DOUT*%
%TO.N,Net-(D18-DOUT)*%
X152669165Y-98189132D03*
%TO.P,D18,4,GND*%
%TO.N,GND*%
X151769165Y-98189132D03*
%TD*%
%TO.P,D8,1,DIN*%
%TO.N,Net-(D7-DOUT)*%
X158091500Y-106537224D03*
%TO.P,D8,2,VDD*%
%TO.N,+5V*%
X158091500Y-105637224D03*
%TO.P,D8,3,DOUT*%
%TO.N,Net-(D8-DOUT)*%
X157191500Y-105637224D03*
%TO.P,D8,4,GND*%
%TO.N,GND*%
X157191500Y-106537224D03*
%TD*%
D14*
%TO.N,+5V*%
X150954001Y-103831435D03*
D15*
X144170400Y-98552000D03*
%TO.N,GND*%
X147320000Y-94488000D03*
X151223707Y-106619927D03*
X154432000Y-92964000D03*
X144272000Y-104902000D03*
X159258000Y-104394000D03*
X146812000Y-107696000D03*
X160782000Y-100584000D03*
X147574000Y-99441000D03*
X156718000Y-99568000D03*
X143764000Y-102108000D03*
X149860000Y-109220000D03*
X156108400Y-104114600D03*
X157226000Y-107950000D03*
X143002000Y-99060000D03*
D14*
X147574000Y-102108000D03*
D15*
X154432000Y-109474000D03*
X157480000Y-94742000D03*
X149860000Y-92964000D03*
D14*
%TO.N,DOUT*%
X155702000Y-101346000D03*
D15*
%TO.N,DIN*%
X145437267Y-96898769D03*
%TD*%
D16*
%TO.N,+5V*%
X154081653Y-95153653D02*
X154531653Y-95603653D01*
X150954001Y-103831435D02*
X150954001Y-104569999D01*
X149902895Y-95969105D02*
X150410895Y-95969105D01*
X154531653Y-95603653D02*
X154879000Y-95603653D01*
X144244000Y-97732000D02*
X145523276Y-97732000D01*
X149289250Y-96582750D02*
X149902895Y-95969105D01*
X154879000Y-95603653D02*
X154879000Y-96053653D01*
X158179000Y-100533326D02*
X158191200Y-100545526D01*
X144170400Y-98552000D02*
X144170400Y-97805600D01*
X159160250Y-102807578D02*
X159160250Y-103221750D01*
X150954001Y-103831435D02*
X150979357Y-103806079D01*
X146316500Y-97300138D02*
X146316500Y-96938776D01*
X149529000Y-106672347D02*
X149229000Y-106372347D01*
X158091500Y-105084300D02*
X158091500Y-105637224D01*
X145523276Y-97732000D02*
X145884638Y-97732000D01*
X158179000Y-100107726D02*
X158179000Y-100533326D01*
X154940000Y-100330000D02*
X154940000Y-101346000D01*
X149229000Y-106372347D02*
X148665396Y-106372347D01*
X146685250Y-102489250D02*
X146664274Y-102468274D01*
X158710250Y-102807578D02*
X159160250Y-102807578D01*
X158179000Y-100107726D02*
X158629000Y-100107726D01*
X148598522Y-104910522D02*
X148331837Y-104643837D01*
X151754000Y-93799434D02*
X151754000Y-94099434D01*
X156826724Y-104902000D02*
X155372750Y-106355974D01*
X152654000Y-107925645D02*
X151539475Y-107925645D01*
X146664274Y-102468274D02*
X146229000Y-102468274D01*
X145797750Y-99768422D02*
X145950664Y-99921336D01*
X157909200Y-104902000D02*
X157960000Y-104952800D01*
X157722750Y-99651476D02*
X158179000Y-100107726D01*
X150954001Y-104569999D02*
X150848000Y-104676000D01*
X158242000Y-104140000D02*
X157960000Y-104140000D01*
X147886000Y-97732000D02*
X149035250Y-96582750D01*
X151980566Y-94399434D02*
X151754000Y-94626000D01*
X150979357Y-103806079D02*
X150979357Y-101656005D01*
X157960000Y-104140000D02*
X157960000Y-104648000D01*
X150848000Y-104676000D02*
X149952755Y-104676000D01*
X154915190Y-99089132D02*
X154915190Y-100354810D01*
X154879000Y-96053653D02*
X155091347Y-96266000D01*
X146229000Y-102468274D02*
X145779000Y-102468274D01*
X149035250Y-96582750D02*
X149289250Y-96582750D01*
X157189493Y-97245493D02*
X157722750Y-97245493D01*
X147623556Y-105330507D02*
X146685250Y-105330507D01*
X155091347Y-96266000D02*
X156210000Y-96266000D01*
X152669165Y-99089132D02*
X153699132Y-99089132D01*
X149035250Y-96582750D02*
X149035250Y-95369105D01*
X152054000Y-94399434D02*
X151980566Y-94399434D01*
X157706000Y-104902000D02*
X157909200Y-104902000D01*
X152678355Y-107925645D02*
X152654000Y-107925645D01*
X158179000Y-100557726D02*
X158179000Y-102276328D01*
X145247750Y-99768422D02*
X145797750Y-99768422D01*
X155121829Y-106606895D02*
X153997105Y-106606895D01*
X149718233Y-104910522D02*
X148598522Y-104910522D01*
X148665396Y-106372347D02*
X147623556Y-105330507D01*
X150586177Y-106972347D02*
X149529000Y-106972347D01*
X152654000Y-107925645D02*
X152654000Y-108776566D01*
X156210000Y-96266000D02*
X157189493Y-97245493D01*
X158179000Y-102276328D02*
X158710250Y-102807578D01*
X151754000Y-94626000D02*
X151754000Y-93799434D01*
X155372750Y-106857816D02*
X155372750Y-107206895D01*
X152553038Y-94399434D02*
X153307257Y-95153653D01*
X151440005Y-101656005D02*
X152146000Y-102362000D01*
X148331837Y-104643837D02*
X148331837Y-104310522D01*
X155372750Y-106355974D02*
X155372750Y-107206895D01*
X153774669Y-102362000D02*
X154180664Y-101956005D01*
X157722750Y-97245493D02*
X157722750Y-99651476D01*
X145950664Y-101232164D02*
X146685250Y-101966750D01*
X145950664Y-99921336D02*
X145950664Y-101232164D01*
X158629000Y-100107726D02*
X158191200Y-100545526D01*
X155121829Y-106606895D02*
X155372750Y-106857816D01*
X144170400Y-97805600D02*
X144244000Y-97732000D01*
X145523276Y-97732000D02*
X147886000Y-97732000D01*
X154940000Y-101346000D02*
X154629995Y-101656005D01*
X151754000Y-94099434D02*
X152054000Y-94399434D01*
X157960000Y-104648000D02*
X157706000Y-104902000D01*
X157706000Y-104902000D02*
X156826724Y-104902000D01*
X149529000Y-106972347D02*
X149529000Y-106672347D01*
X145884638Y-97732000D02*
X146316500Y-97300138D01*
X150410895Y-95969105D02*
X151754000Y-94626000D01*
X149952755Y-104676000D02*
X149718233Y-104910522D01*
X157960000Y-104952800D02*
X158091500Y-105084300D01*
X155372750Y-106355974D02*
X155121829Y-106606895D01*
X158191200Y-100545526D02*
X158179000Y-100557726D01*
X153699132Y-99089132D02*
X154940000Y-100330000D01*
X150979357Y-101656005D02*
X151440005Y-101656005D01*
X146229000Y-102423000D02*
X146229000Y-102468274D01*
X146685250Y-102489250D02*
X146685250Y-101966750D01*
X157960000Y-104140000D02*
X157960000Y-104952800D01*
X153307257Y-95153653D02*
X154081653Y-95153653D01*
X152054000Y-94399434D02*
X152553038Y-94399434D01*
X154180664Y-101956005D02*
X154180664Y-101656005D01*
X153997105Y-106606895D02*
X152678355Y-107925645D01*
X159160250Y-103221750D02*
X158242000Y-104140000D01*
X152146000Y-102362000D02*
X153774669Y-102362000D01*
X146685250Y-105330507D02*
X146685250Y-102489250D01*
X154629995Y-101656005D02*
X154180664Y-101656005D01*
X154915190Y-100354810D02*
X154940000Y-100330000D01*
X151539475Y-107925645D02*
X150586177Y-106972347D01*
D17*
%TO.N,Net-(D1-DIN)*%
X146316500Y-96038776D02*
X143610224Y-96038776D01*
X143254000Y-96395000D02*
X143254000Y-96716000D01*
X143610224Y-96038776D02*
X143254000Y-96395000D01*
%TO.N,Net-(D1-DOUT)*%
X148558095Y-94469105D02*
X149035250Y-94469105D01*
X147866424Y-96938776D02*
X148386800Y-96418400D01*
X148386800Y-94640400D02*
X148558095Y-94469105D01*
X148386800Y-96418400D02*
X148386800Y-94640400D01*
X147216500Y-96938776D02*
X147866424Y-96938776D01*
%TO.N,Net-(D2-DOUT)*%
X151104600Y-93040200D02*
X151245366Y-92899434D01*
X151104600Y-94639004D02*
X151104600Y-93040200D01*
X151245366Y-92899434D02*
X151754000Y-92899434D01*
X150374499Y-95369105D02*
X151104600Y-94639004D01*
X149935250Y-95369105D02*
X150374499Y-95369105D01*
%TO.N,Net-(D3-DOUT)*%
X152654000Y-93799434D02*
X152654000Y-93864000D01*
X153493653Y-94703653D02*
X154879000Y-94703653D01*
X152654000Y-93864000D02*
X153493653Y-94703653D01*
%TO.N,Net-(D4-DOUT)*%
X156980910Y-95603653D02*
X157722750Y-96345493D01*
X155779000Y-95603653D02*
X156980910Y-95603653D01*
%TO.N,Net-(D5-DOUT)*%
X158622750Y-97245493D02*
X158622750Y-99201476D01*
X158622750Y-99201476D02*
X158629000Y-99207726D01*
%TO.N,DOUT*%
X155702000Y-101346000D02*
X155448000Y-101092000D01*
X155448000Y-101092000D02*
X155448000Y-99456322D01*
X155448000Y-99456322D02*
X155815190Y-99089132D01*
%TO.N,Net-(D6-DOUT)*%
X159529000Y-100107726D02*
X159529000Y-101538828D01*
X159529000Y-101538828D02*
X159160250Y-101907578D01*
%TO.N,Net-(D7-DOUT)*%
X160060250Y-104768474D02*
X158291500Y-106537224D01*
X160060250Y-102807578D02*
X160060250Y-104768474D01*
X158291500Y-106537224D02*
X158091500Y-106537224D01*
%TO.N,Net-(D8-DOUT)*%
X156744776Y-105637224D02*
X155956000Y-106426000D01*
X155572750Y-108106895D02*
X155372750Y-108106895D01*
X155956000Y-107723645D02*
X155572750Y-108106895D01*
X155956000Y-106426000D02*
X155956000Y-107723645D01*
X157191500Y-105637224D02*
X156744776Y-105637224D01*
%TO.N,Net-(D10-DIN)*%
X152854000Y-109676566D02*
X152654000Y-109676566D01*
X153204000Y-108036396D02*
X153204000Y-109326566D01*
X154472750Y-107206895D02*
X154033501Y-107206895D01*
X153204000Y-109326566D02*
X152854000Y-109676566D01*
X154033501Y-107206895D02*
X153204000Y-108036396D01*
%TO.N,Net-(D10-DOUT)*%
X150849781Y-107872347D02*
X149529000Y-107872347D01*
X151754000Y-108776566D02*
X150849781Y-107872347D01*
%TO.N,Net-(D11-DOUT)*%
X147887160Y-106230507D02*
X146685250Y-106230507D01*
X148629000Y-106972347D02*
X147887160Y-106230507D01*
%TO.N,Net-(D12-DOUT)*%
X145785250Y-105330507D02*
X145785250Y-103374524D01*
X145785250Y-103374524D02*
X145779000Y-103368274D01*
%TO.N,Net-(D13-DOUT)*%
X144879000Y-102468274D02*
X144879000Y-101037172D01*
X144879000Y-101037172D02*
X145247750Y-100668422D01*
%TO.N,Net-(D14-DOUT)*%
X144606172Y-99060000D02*
X145725724Y-99060000D01*
X148331837Y-101666113D02*
X148331837Y-103410522D01*
X145725724Y-99060000D02*
X148331837Y-101666113D01*
X144347750Y-99318422D02*
X144606172Y-99060000D01*
X144347750Y-99768422D02*
X144347750Y-99318422D01*
%TO.N,Net-(D15-DOUT)*%
X149231837Y-104310522D02*
X149681837Y-104310522D01*
X150368000Y-103624359D02*
X150368000Y-101944648D01*
X149681837Y-104310522D02*
X150368000Y-103624359D01*
X150368000Y-101944648D02*
X150079357Y-101656005D01*
%TO.N,Net-(D16-DOUT)*%
X152202005Y-101656005D02*
X153280664Y-101656005D01*
X151302005Y-100756005D02*
X152202005Y-101656005D01*
X150979357Y-100756005D02*
X151302005Y-100756005D01*
%TO.N,Net-(D17-DOUT)*%
X151769165Y-99539132D02*
X151769165Y-99089132D01*
X153487132Y-99639132D02*
X151869165Y-99639132D01*
X154180664Y-100332664D02*
X153487132Y-99639132D01*
X151869165Y-99639132D02*
X151769165Y-99539132D01*
X154180664Y-100756005D02*
X154180664Y-100332664D01*
%TO.N,Net-(D18-DOUT)*%
X152669165Y-98189132D02*
X154915190Y-98189132D01*
%TO.N,DIN*%
X144274000Y-96716000D02*
X145254498Y-96716000D01*
X145254498Y-96716000D02*
X145437267Y-96898769D01*
%TD*%
%TA.AperFunction,Conductor*%
%TO.N,GND*%
G36*
X152423533Y-94769619D02*
G01*
X152444175Y-94786253D01*
X153092045Y-95434123D01*
X153171969Y-95480267D01*
X153261113Y-95504153D01*
X153261114Y-95504153D01*
X153353401Y-95504153D01*
X153885109Y-95504153D01*
X153952148Y-95523838D01*
X153972790Y-95540472D01*
X154316441Y-95884123D01*
X154316443Y-95884124D01*
X154316447Y-95884127D01*
X154383410Y-95922788D01*
X154383411Y-95922788D01*
X154396365Y-95930267D01*
X154396366Y-95930267D01*
X154396367Y-95930268D01*
X154403276Y-95932119D01*
X154462939Y-95968480D01*
X154474292Y-95983005D01*
X154484450Y-95998208D01*
X154492181Y-96005939D01*
X154525666Y-96067262D01*
X154528500Y-96093620D01*
X154528500Y-96099797D01*
X154543168Y-96154540D01*
X154549439Y-96177942D01*
X154549439Y-96177944D01*
X154552384Y-96188937D01*
X154552387Y-96188944D01*
X154598527Y-96268861D01*
X154598529Y-96268864D01*
X154598530Y-96268865D01*
X154876135Y-96546470D01*
X154956059Y-96592614D01*
X155045203Y-96616500D01*
X156013456Y-96616500D01*
X156080495Y-96636185D01*
X156101137Y-96652819D01*
X156544723Y-97096404D01*
X156909024Y-97460705D01*
X156974281Y-97525962D01*
X156974284Y-97525963D01*
X156974287Y-97525966D01*
X157054199Y-97572104D01*
X157054200Y-97572104D01*
X157054205Y-97572107D01*
X157143349Y-97595993D01*
X157232783Y-97595993D01*
X157299822Y-97615678D01*
X157320464Y-97632312D01*
X157335931Y-97647779D01*
X157369416Y-97709102D01*
X157372250Y-97735460D01*
X157372250Y-99697620D01*
X157394188Y-99779495D01*
X157396136Y-99786764D01*
X157425702Y-99837973D01*
X157442279Y-99866686D01*
X157442281Y-99866689D01*
X157792181Y-100216589D01*
X157825666Y-100277912D01*
X157828500Y-100304270D01*
X157828500Y-100511582D01*
X157828500Y-102322472D01*
X157833438Y-102340901D01*
X157851453Y-102408133D01*
X157851454Y-102408139D01*
X157852384Y-102411611D01*
X157852388Y-102411620D01*
X157898525Y-102491533D01*
X157898529Y-102491538D01*
X157898530Y-102491540D01*
X158495038Y-103088048D01*
X158547329Y-103118238D01*
X158595544Y-103168804D01*
X158608768Y-103237411D01*
X158582800Y-103302276D01*
X158573010Y-103313306D01*
X158286455Y-103599861D01*
X158225132Y-103633346D01*
X158182591Y-103635119D01*
X158139904Y-103629500D01*
X157780105Y-103629500D01*
X157764386Y-103631569D01*
X157730513Y-103636028D01*
X157730511Y-103636029D01*
X157730509Y-103636029D01*
X157611852Y-103691361D01*
X157610722Y-103688939D01*
X157559692Y-103706142D01*
X157491927Y-103689123D01*
X157461463Y-103661677D01*
X157461212Y-103661929D01*
X157456378Y-103657095D01*
X157455016Y-103655868D01*
X157454639Y-103655357D01*
X157347919Y-103576594D01*
X157222732Y-103532788D01*
X157222720Y-103532786D01*
X157193007Y-103530000D01*
X157150000Y-103530000D01*
X157150000Y-104166000D01*
X157130315Y-104233039D01*
X157077511Y-104278794D01*
X157026000Y-104290000D01*
X156420001Y-104290000D01*
X156420001Y-104363000D01*
X156422786Y-104392720D01*
X156466596Y-104517922D01*
X156508761Y-104575053D01*
X156532732Y-104640682D01*
X156517417Y-104708852D01*
X156496672Y-104736368D01*
X155157538Y-106075504D01*
X155012966Y-106220076D01*
X154951643Y-106253561D01*
X154925285Y-106256395D01*
X153950961Y-106256395D01*
X153861817Y-106280281D01*
X153861814Y-106280282D01*
X153781896Y-106326422D01*
X153781891Y-106326426D01*
X152569492Y-107538826D01*
X152508169Y-107572311D01*
X152481811Y-107575145D01*
X151736019Y-107575145D01*
X151668980Y-107555460D01*
X151648338Y-107538826D01*
X150801390Y-106691878D01*
X150801385Y-106691874D01*
X150721466Y-106645733D01*
X150717192Y-106644588D01*
X150709787Y-106642604D01*
X150709786Y-106642603D01*
X150644308Y-106625059D01*
X150632321Y-106621847D01*
X150632320Y-106621847D01*
X150018967Y-106621847D01*
X149951928Y-106602162D01*
X149931286Y-106585528D01*
X149923555Y-106577797D01*
X149907884Y-106567326D01*
X149875271Y-106545534D01*
X149836777Y-106504433D01*
X149817825Y-106471607D01*
X149817822Y-106471602D01*
X149809470Y-106457134D01*
X149809468Y-106457132D01*
X149444213Y-106091878D01*
X149444208Y-106091874D01*
X149364290Y-106045734D01*
X149364289Y-106045733D01*
X149364288Y-106045733D01*
X149275144Y-106021847D01*
X149275143Y-106021847D01*
X148861939Y-106021847D01*
X148794900Y-106002162D01*
X148774258Y-105985528D01*
X148617730Y-105829000D01*
X150266001Y-105829000D01*
X150268786Y-105858720D01*
X150312596Y-105983922D01*
X150391358Y-106090641D01*
X150498080Y-106169405D01*
X150623267Y-106213211D01*
X150623279Y-106213213D01*
X150652992Y-106215999D01*
X151026000Y-106215999D01*
X151099000Y-106215999D01*
X151128720Y-106213213D01*
X151253922Y-106169403D01*
X151360641Y-106090641D01*
X151439405Y-105983919D01*
X151483211Y-105858732D01*
X151483213Y-105858720D01*
X151486000Y-105829007D01*
X151486000Y-105786000D01*
X151026000Y-105786000D01*
X151026000Y-106215999D01*
X150652992Y-106215999D01*
X150725999Y-106215998D01*
X150726000Y-106215998D01*
X150726000Y-105786000D01*
X150266001Y-105786000D01*
X150266001Y-105829000D01*
X148617730Y-105829000D01*
X147838769Y-105050038D01*
X147838764Y-105050034D01*
X147758846Y-105003894D01*
X147758845Y-105003893D01*
X147758844Y-105003893D01*
X147669700Y-104980007D01*
X147669699Y-104980007D01*
X147175216Y-104980007D01*
X147108177Y-104960322D01*
X147087532Y-104943685D01*
X147072066Y-104928218D01*
X147038583Y-104866894D01*
X147035750Y-104840540D01*
X147035750Y-101920608D01*
X147035750Y-101920606D01*
X147011864Y-101831462D01*
X146997136Y-101805953D01*
X146965719Y-101751537D01*
X146337483Y-101123301D01*
X146303998Y-101061978D01*
X146301164Y-101035620D01*
X146301164Y-100359773D01*
X146320849Y-100292734D01*
X146373653Y-100246979D01*
X146442811Y-100237035D01*
X146506367Y-100266060D01*
X146512845Y-100272092D01*
X147995018Y-101754265D01*
X148028503Y-101815588D01*
X148031337Y-101841946D01*
X148031337Y-102886846D01*
X148011652Y-102953885D01*
X147976229Y-102989947D01*
X147937285Y-103015968D01*
X147892969Y-103082291D01*
X147892968Y-103082292D01*
X147881337Y-103140769D01*
X147881337Y-103680274D01*
X147892968Y-103738751D01*
X147892969Y-103738752D01*
X147928302Y-103791631D01*
X147949180Y-103858308D01*
X147930696Y-103925688D01*
X147928302Y-103929413D01*
X147892969Y-103982291D01*
X147892968Y-103982292D01*
X147881337Y-104040769D01*
X147881337Y-104580274D01*
X147892968Y-104638751D01*
X147892969Y-104638752D01*
X147937283Y-104705073D01*
X147957537Y-104718606D01*
X148002341Y-104772219D01*
X148003207Y-104774256D01*
X148005225Y-104779130D01*
X148051364Y-104859045D01*
X148051366Y-104859048D01*
X148051367Y-104859049D01*
X148383310Y-105190992D01*
X148456536Y-105233269D01*
X148463234Y-105237136D01*
X148552378Y-105261022D01*
X148552379Y-105261022D01*
X148552380Y-105261022D01*
X149764375Y-105261022D01*
X149764377Y-105261022D01*
X149853521Y-105237136D01*
X149860219Y-105233269D01*
X149933445Y-105190992D01*
X150061618Y-105062819D01*
X150122941Y-105029334D01*
X150149299Y-105026500D01*
X150260019Y-105026500D01*
X150327058Y-105046185D01*
X150372813Y-105098989D01*
X150382757Y-105168147D01*
X150359789Y-105224134D01*
X150312594Y-105288080D01*
X150268788Y-105413267D01*
X150268786Y-105413279D01*
X150266000Y-105442992D01*
X150266000Y-105486000D01*
X151485999Y-105486000D01*
X151485999Y-105442999D01*
X151483213Y-105413279D01*
X151439403Y-105288077D01*
X151360641Y-105181359D01*
X151360129Y-105180981D01*
X151359703Y-105180420D01*
X151354071Y-105174788D01*
X151354841Y-105174017D01*
X151317877Y-105125335D01*
X151312417Y-105055679D01*
X151325846Y-105024710D01*
X151324639Y-105024148D01*
X151334838Y-105002276D01*
X151379972Y-104905487D01*
X151386500Y-104855901D01*
X151386499Y-104496100D01*
X151379972Y-104446513D01*
X151329224Y-104337684D01*
X151329223Y-104337683D01*
X151329223Y-104337682D01*
X151326926Y-104334402D01*
X151324921Y-104328457D01*
X151324639Y-104327852D01*
X151324706Y-104327820D01*
X151304599Y-104268196D01*
X151304501Y-104263279D01*
X151304501Y-104237470D01*
X151324186Y-104170431D01*
X151334783Y-104156272D01*
X151379378Y-104104808D01*
X151439166Y-103973892D01*
X151447347Y-103916992D01*
X156420000Y-103916992D01*
X156420000Y-103990000D01*
X156850000Y-103990000D01*
X156850000Y-103530000D01*
X156806999Y-103530000D01*
X156777279Y-103532786D01*
X156652077Y-103576596D01*
X156545358Y-103655358D01*
X156466594Y-103762080D01*
X156422788Y-103887267D01*
X156422786Y-103887279D01*
X156420000Y-103916992D01*
X151447347Y-103916992D01*
X151459648Y-103831435D01*
X151439166Y-103688978D01*
X151379378Y-103558062D01*
X151360143Y-103535863D01*
X151331119Y-103472309D01*
X151329857Y-103454662D01*
X151329857Y-102340901D01*
X151349542Y-102273862D01*
X151402346Y-102228107D01*
X151471504Y-102218163D01*
X151535060Y-102247188D01*
X151541538Y-102253220D01*
X151930788Y-102642470D01*
X151930790Y-102642471D01*
X151930794Y-102642474D01*
X152001829Y-102683486D01*
X152001830Y-102683486D01*
X152010712Y-102688614D01*
X152099856Y-102712500D01*
X152099857Y-102712500D01*
X152099858Y-102712500D01*
X153820811Y-102712500D01*
X153820813Y-102712500D01*
X153909957Y-102688614D01*
X153918839Y-102683486D01*
X153918840Y-102683486D01*
X153989874Y-102642474D01*
X153989873Y-102642474D01*
X153989881Y-102642470D01*
X154461134Y-102171217D01*
X154488440Y-102123919D01*
X154526935Y-102082817D01*
X154575216Y-102050557D01*
X154575217Y-102050555D01*
X154575219Y-102050554D01*
X154582950Y-102042824D01*
X154644273Y-102009339D01*
X154670631Y-102006505D01*
X154676137Y-102006505D01*
X154676139Y-102006505D01*
X154765283Y-101982619D01*
X154793006Y-101966613D01*
X154845207Y-101936475D01*
X155129377Y-101652303D01*
X155190700Y-101618819D01*
X155260391Y-101623803D01*
X155310770Y-101658781D01*
X155370872Y-101728143D01*
X155491947Y-101805953D01*
X155491950Y-101805954D01*
X155491949Y-101805954D01*
X155578830Y-101831464D01*
X155614529Y-101841946D01*
X155630036Y-101846499D01*
X155630038Y-101846500D01*
X155630039Y-101846500D01*
X155773962Y-101846500D01*
X155773962Y-101846499D01*
X155881121Y-101815035D01*
X155912050Y-101805954D01*
X155912050Y-101805953D01*
X155912053Y-101805953D01*
X156033128Y-101728143D01*
X156127377Y-101619373D01*
X156187165Y-101488457D01*
X156207647Y-101346000D01*
X156187165Y-101203543D01*
X156127377Y-101072627D01*
X156033128Y-100963857D01*
X155966726Y-100921183D01*
X155912051Y-100886045D01*
X155837565Y-100864175D01*
X155778787Y-100826401D01*
X155749762Y-100762845D01*
X155748500Y-100745198D01*
X155748500Y-99663632D01*
X155768185Y-99596593D01*
X155820989Y-99550838D01*
X155872500Y-99539632D01*
X156084940Y-99539632D01*
X156084941Y-99539631D01*
X156099758Y-99536684D01*
X156143419Y-99528000D01*
X156143419Y-99527999D01*
X156143421Y-99527999D01*
X156209742Y-99483684D01*
X156254057Y-99417363D01*
X156254057Y-99417361D01*
X156254058Y-99417361D01*
X156262742Y-99373700D01*
X156265690Y-99358880D01*
X156265690Y-98819384D01*
X156265690Y-98819383D01*
X156265690Y-98819381D01*
X156265689Y-98819379D01*
X156252658Y-98753865D01*
X156258885Y-98684274D01*
X156286594Y-98641993D01*
X156316975Y-98611611D01*
X156316978Y-98611606D01*
X156362279Y-98509009D01*
X156362279Y-98509007D01*
X156365189Y-98483926D01*
X156365190Y-98483923D01*
X156365190Y-98339132D01*
X155789190Y-98339132D01*
X155722151Y-98319447D01*
X155676396Y-98266643D01*
X155665190Y-98215132D01*
X155665190Y-98039132D01*
X155965190Y-98039132D01*
X156365189Y-98039132D01*
X156365189Y-97894346D01*
X156365187Y-97894323D01*
X156362281Y-97869262D01*
X156362280Y-97869258D01*
X156316978Y-97766657D01*
X156316975Y-97766652D01*
X156237669Y-97687346D01*
X156237664Y-97687343D01*
X156135066Y-97642042D01*
X156109984Y-97639132D01*
X155965190Y-97639132D01*
X155965190Y-98039132D01*
X155665190Y-98039132D01*
X155665190Y-97639132D01*
X155520404Y-97639132D01*
X155520381Y-97639134D01*
X155495320Y-97642040D01*
X155495316Y-97642041D01*
X155392715Y-97687343D01*
X155392710Y-97687346D01*
X155362328Y-97717728D01*
X155301005Y-97751213D01*
X155250458Y-97751664D01*
X155184938Y-97738632D01*
X154645442Y-97738632D01*
X154645437Y-97738632D01*
X154586960Y-97750263D01*
X154586959Y-97750264D01*
X154520636Y-97794580D01*
X154494615Y-97833524D01*
X154441003Y-97878328D01*
X154391514Y-97888632D01*
X153192841Y-97888632D01*
X153125802Y-97868947D01*
X153089740Y-97833524D01*
X153063718Y-97794580D01*
X152997395Y-97750264D01*
X152997394Y-97750263D01*
X152938917Y-97738632D01*
X152938913Y-97738632D01*
X152399417Y-97738632D01*
X152399416Y-97738632D01*
X152333895Y-97751664D01*
X152264304Y-97745435D01*
X152222025Y-97717727D01*
X152191644Y-97687346D01*
X152191639Y-97687343D01*
X152089041Y-97642042D01*
X152063959Y-97639132D01*
X151919165Y-97639132D01*
X151919165Y-98215132D01*
X151899480Y-98282171D01*
X151846676Y-98327926D01*
X151795165Y-98339132D01*
X151219166Y-98339132D01*
X151219166Y-98483917D01*
X151219167Y-98483940D01*
X151222073Y-98509001D01*
X151222074Y-98509005D01*
X151267376Y-98611606D01*
X151267379Y-98611611D01*
X151297760Y-98641992D01*
X151331245Y-98703315D01*
X151331697Y-98753862D01*
X151318665Y-98819383D01*
X151318665Y-99358884D01*
X151330296Y-99417361D01*
X151330297Y-99417362D01*
X151374612Y-99483684D01*
X151419362Y-99513585D01*
X151464167Y-99567197D01*
X151470244Y-99584588D01*
X151489144Y-99655121D01*
X151522661Y-99713174D01*
X151528705Y-99723643D01*
X151628705Y-99823643D01*
X151684654Y-99879592D01*
X151684656Y-99879593D01*
X151684660Y-99879596D01*
X151753169Y-99919149D01*
X151753176Y-99919153D01*
X151829603Y-99939632D01*
X153311299Y-99939632D01*
X153378338Y-99959317D01*
X153398980Y-99975951D01*
X153442168Y-100019139D01*
X153475653Y-100080462D01*
X153470669Y-100150154D01*
X153442168Y-100194501D01*
X153430664Y-100206005D01*
X153430664Y-100782005D01*
X153410979Y-100849044D01*
X153358175Y-100894799D01*
X153306664Y-100906005D01*
X152730665Y-100906005D01*
X152730665Y-101050790D01*
X152730666Y-101050813D01*
X152733572Y-101075874D01*
X152733574Y-101075880D01*
X152780173Y-101181421D01*
X152789243Y-101250699D01*
X152759419Y-101313884D01*
X152700169Y-101350913D01*
X152666738Y-101355505D01*
X152377838Y-101355505D01*
X152310799Y-101335820D01*
X152290157Y-101319186D01*
X151486518Y-100515547D01*
X151486516Y-100515545D01*
X151479652Y-100511582D01*
X151479649Y-100511580D01*
X151479618Y-100511562D01*
X151477709Y-100510459D01*
X151430781Y-100461210D01*
X152730664Y-100461210D01*
X152730664Y-100606005D01*
X153130664Y-100606005D01*
X153130664Y-100206005D01*
X152985878Y-100206005D01*
X152985855Y-100206007D01*
X152960794Y-100208913D01*
X152960790Y-100208914D01*
X152858189Y-100254216D01*
X152858184Y-100254219D01*
X152778878Y-100333525D01*
X152778875Y-100333530D01*
X152733574Y-100436127D01*
X152733574Y-100436129D01*
X152730664Y-100461210D01*
X151430781Y-100461210D01*
X151429510Y-100459876D01*
X151418696Y-100428915D01*
X151418224Y-100427775D01*
X151418224Y-100427774D01*
X151396066Y-100394613D01*
X151373909Y-100361452D01*
X151307587Y-100317137D01*
X151307586Y-100317136D01*
X151249109Y-100305505D01*
X151249105Y-100305505D01*
X150709609Y-100305505D01*
X150709608Y-100305505D01*
X150644087Y-100318537D01*
X150574496Y-100312308D01*
X150532217Y-100284600D01*
X150501836Y-100254219D01*
X150501831Y-100254216D01*
X150399233Y-100208915D01*
X150374151Y-100206005D01*
X150229357Y-100206005D01*
X150229357Y-100782005D01*
X150209672Y-100849044D01*
X150156868Y-100894799D01*
X150105357Y-100906005D01*
X149529358Y-100906005D01*
X149529358Y-101050790D01*
X149529359Y-101050813D01*
X149532265Y-101075874D01*
X149532266Y-101075878D01*
X149577568Y-101178479D01*
X149577571Y-101178484D01*
X149607952Y-101208865D01*
X149641437Y-101270188D01*
X149641889Y-101320735D01*
X149628857Y-101386256D01*
X149628857Y-101925757D01*
X149640488Y-101984234D01*
X149640489Y-101984235D01*
X149684804Y-102050557D01*
X149751126Y-102094872D01*
X149751127Y-102094873D01*
X149809604Y-102106504D01*
X149809607Y-102106505D01*
X149809609Y-102106505D01*
X149943500Y-102106505D01*
X150010539Y-102126190D01*
X150056294Y-102178994D01*
X150067500Y-102230505D01*
X150067500Y-103448525D01*
X150047815Y-103515564D01*
X150031181Y-103536206D01*
X149982032Y-103585355D01*
X149920709Y-103618840D01*
X149851017Y-103613856D01*
X149806670Y-103585355D01*
X149781837Y-103560522D01*
X149205837Y-103560522D01*
X149138798Y-103540837D01*
X149093043Y-103488033D01*
X149081837Y-103436522D01*
X149081837Y-103260522D01*
X149381837Y-103260522D01*
X149781836Y-103260522D01*
X149781836Y-103115736D01*
X149781834Y-103115713D01*
X149778928Y-103090652D01*
X149778927Y-103090648D01*
X149733625Y-102988047D01*
X149733622Y-102988042D01*
X149654316Y-102908736D01*
X149654311Y-102908733D01*
X149551713Y-102863432D01*
X149526631Y-102860522D01*
X149381837Y-102860522D01*
X149381837Y-103260522D01*
X149081837Y-103260522D01*
X149081837Y-102860522D01*
X148937051Y-102860522D01*
X148937028Y-102860524D01*
X148911967Y-102863430D01*
X148911961Y-102863432D01*
X148806421Y-102910031D01*
X148737143Y-102919101D01*
X148673958Y-102889277D01*
X148636929Y-102830027D01*
X148632337Y-102796596D01*
X148632337Y-101626552D01*
X148632337Y-101626551D01*
X148611858Y-101550124D01*
X148576255Y-101488457D01*
X148572301Y-101481608D01*
X148572295Y-101481600D01*
X147551905Y-100461210D01*
X149529357Y-100461210D01*
X149529357Y-100606005D01*
X149929357Y-100606005D01*
X149929357Y-100206005D01*
X149784571Y-100206005D01*
X149784548Y-100206007D01*
X149759487Y-100208913D01*
X149759483Y-100208914D01*
X149656882Y-100254216D01*
X149656877Y-100254219D01*
X149577571Y-100333525D01*
X149577568Y-100333530D01*
X149532267Y-100436127D01*
X149532267Y-100436129D01*
X149529357Y-100461210D01*
X147551905Y-100461210D01*
X145910236Y-98819541D01*
X145910235Y-98819540D01*
X145891395Y-98808663D01*
X145891395Y-98808661D01*
X145891392Y-98808661D01*
X145841718Y-98779981D01*
X145841715Y-98779979D01*
X145803499Y-98769739D01*
X145765286Y-98759500D01*
X145765284Y-98759500D01*
X144839727Y-98759500D01*
X144772688Y-98739815D01*
X144726933Y-98687011D01*
X144716788Y-98619315D01*
X144725650Y-98552002D01*
X144725650Y-98551999D01*
X144721090Y-98517363D01*
X144706730Y-98408291D01*
X144651261Y-98274375D01*
X144651257Y-98274370D01*
X144647869Y-98268501D01*
X144631396Y-98200601D01*
X144654248Y-98134574D01*
X144709169Y-98091383D01*
X144755256Y-98082500D01*
X147932142Y-98082500D01*
X147932144Y-98082500D01*
X148021288Y-98058614D01*
X148101212Y-98012470D01*
X148219345Y-97894337D01*
X151219165Y-97894337D01*
X151219165Y-98039132D01*
X151619165Y-98039132D01*
X151619165Y-97639132D01*
X151474379Y-97639132D01*
X151474356Y-97639134D01*
X151449295Y-97642040D01*
X151449291Y-97642041D01*
X151346690Y-97687343D01*
X151346685Y-97687346D01*
X151267379Y-97766652D01*
X151267376Y-97766657D01*
X151222075Y-97869254D01*
X151222075Y-97869256D01*
X151219165Y-97894337D01*
X148219345Y-97894337D01*
X149144113Y-96969569D01*
X149205436Y-96936084D01*
X149231794Y-96933250D01*
X149335392Y-96933250D01*
X149335394Y-96933250D01*
X149424538Y-96909364D01*
X149449429Y-96894993D01*
X149504462Y-96863220D01*
X150011758Y-96355924D01*
X150073081Y-96322439D01*
X150099439Y-96319605D01*
X150457037Y-96319605D01*
X150457039Y-96319605D01*
X150546183Y-96295719D01*
X150567096Y-96283645D01*
X150575121Y-96279012D01*
X150575122Y-96279011D01*
X150626107Y-96249575D01*
X151959002Y-94916677D01*
X151959007Y-94916674D01*
X151969210Y-94906470D01*
X151969212Y-94906470D01*
X152089429Y-94786253D01*
X152150752Y-94752768D01*
X152177110Y-94749934D01*
X152356494Y-94749934D01*
X152423533Y-94769619D01*
G37*
%TD.AperFunction*%
%TA.AperFunction,Conductor*%
G36*
X159673024Y-103209555D02*
G01*
X159693100Y-103220440D01*
X159704638Y-103228149D01*
X159749445Y-103281760D01*
X159759750Y-103331253D01*
X159759750Y-104592641D01*
X159740065Y-104659680D01*
X159723431Y-104680322D01*
X158753681Y-105650072D01*
X158692358Y-105683557D01*
X158622666Y-105678573D01*
X158566733Y-105636701D01*
X158542316Y-105571237D01*
X158542000Y-105562391D01*
X158542000Y-105367473D01*
X158541999Y-105367471D01*
X158530368Y-105308994D01*
X158530367Y-105308992D01*
X158486053Y-105242673D01*
X158478316Y-105234936D01*
X158444833Y-105173611D01*
X158442000Y-105147257D01*
X158442000Y-105038158D01*
X158442000Y-105038156D01*
X158418114Y-104949012D01*
X158417612Y-104948143D01*
X158371970Y-104869088D01*
X158346819Y-104843937D01*
X158313334Y-104782614D01*
X158310500Y-104756256D01*
X158310500Y-104632402D01*
X158330185Y-104565363D01*
X158346820Y-104544720D01*
X158349611Y-104541929D01*
X158383224Y-104508316D01*
X158395496Y-104481996D01*
X158441667Y-104429556D01*
X158445838Y-104427036D01*
X158457212Y-104420470D01*
X159440720Y-103436962D01*
X159486864Y-103357038D01*
X159504438Y-103291448D01*
X159540801Y-103231791D01*
X159603648Y-103201261D01*
X159673024Y-103209555D01*
G37*
%TD.AperFunction*%
%TA.AperFunction,Conductor*%
G36*
X155737965Y-91955112D02*
G01*
X161941952Y-95536987D01*
X161991500Y-95565593D01*
X162039716Y-95616160D01*
X162053500Y-95672980D01*
X162053500Y-98954739D01*
X162053500Y-99060193D01*
X162080793Y-99162053D01*
X162133520Y-99253379D01*
X162208087Y-99327946D01*
X162208088Y-99327947D01*
X162208090Y-99327948D01*
X162264472Y-99360500D01*
X162541500Y-99520441D01*
X162589715Y-99571008D01*
X162603500Y-99627828D01*
X162603500Y-102948170D01*
X162583815Y-103015209D01*
X162541500Y-103055557D01*
X162299413Y-103195327D01*
X162208085Y-103248055D01*
X162133521Y-103322619D01*
X162080794Y-103413944D01*
X162080793Y-103413947D01*
X162053500Y-103515807D01*
X162053500Y-106903018D01*
X162033815Y-106970057D01*
X161991500Y-107010405D01*
X157840794Y-109406818D01*
X156420955Y-110226563D01*
X155737966Y-110620887D01*
X155675966Y-110637500D01*
X148732034Y-110637500D01*
X148670034Y-110620887D01*
X147987045Y-110226563D01*
X147545005Y-109971351D01*
X151204001Y-109971351D01*
X151204002Y-109971374D01*
X151206908Y-109996435D01*
X151206909Y-109996439D01*
X151252211Y-110099040D01*
X151252214Y-110099045D01*
X151331520Y-110178351D01*
X151331525Y-110178354D01*
X151434123Y-110223655D01*
X151459206Y-110226565D01*
X151603999Y-110226565D01*
X151604000Y-110226564D01*
X151604000Y-109826566D01*
X151204001Y-109826566D01*
X151204001Y-109971351D01*
X147545005Y-109971351D01*
X146567206Y-109406818D01*
X144420008Y-108167132D01*
X148079001Y-108167132D01*
X148079002Y-108167155D01*
X148081908Y-108192216D01*
X148081909Y-108192220D01*
X148127211Y-108294821D01*
X148127214Y-108294826D01*
X148206520Y-108374132D01*
X148206525Y-108374135D01*
X148309123Y-108419436D01*
X148334206Y-108422346D01*
X148478999Y-108422346D01*
X148479000Y-108422345D01*
X148479000Y-108022347D01*
X148079001Y-108022347D01*
X148079001Y-108167132D01*
X144420008Y-108167132D01*
X142416500Y-107010405D01*
X142368284Y-106959838D01*
X142354500Y-106903018D01*
X142354500Y-106525292D01*
X145235251Y-106525292D01*
X145235252Y-106525315D01*
X145238158Y-106550376D01*
X145238159Y-106550380D01*
X145283461Y-106652981D01*
X145283464Y-106652986D01*
X145362770Y-106732292D01*
X145362775Y-106732295D01*
X145465373Y-106777596D01*
X145490456Y-106780506D01*
X145635249Y-106780506D01*
X145635250Y-106780505D01*
X145635250Y-106380507D01*
X145235251Y-106380507D01*
X145235251Y-106525292D01*
X142354500Y-106525292D01*
X142354500Y-103663059D01*
X144329001Y-103663059D01*
X144329002Y-103663082D01*
X144331908Y-103688143D01*
X144331909Y-103688147D01*
X144377211Y-103790748D01*
X144377214Y-103790753D01*
X144456520Y-103870059D01*
X144456525Y-103870062D01*
X144559123Y-103915363D01*
X144584206Y-103918273D01*
X144728999Y-103918273D01*
X144729000Y-103918272D01*
X144729000Y-103518274D01*
X144329001Y-103518274D01*
X144329001Y-103663059D01*
X142354500Y-103663059D01*
X142354500Y-103515809D01*
X142354500Y-103515807D01*
X142327207Y-103413947D01*
X142274480Y-103322621D01*
X142199913Y-103248054D01*
X142108587Y-103195327D01*
X142014090Y-103140769D01*
X141866500Y-103055557D01*
X141818284Y-103004990D01*
X141804500Y-102948170D01*
X141804500Y-100963207D01*
X143797751Y-100963207D01*
X143797752Y-100963230D01*
X143800658Y-100988291D01*
X143800659Y-100988295D01*
X143845961Y-101090896D01*
X143845964Y-101090901D01*
X143925270Y-101170207D01*
X143925275Y-101170210D01*
X144027873Y-101215511D01*
X144052956Y-101218421D01*
X144197749Y-101218421D01*
X144197750Y-101218420D01*
X144197750Y-100818422D01*
X143797751Y-100818422D01*
X143797751Y-100963207D01*
X141804500Y-100963207D01*
X141804500Y-99627828D01*
X141824185Y-99560789D01*
X141866498Y-99520442D01*
X142199913Y-99327946D01*
X142229187Y-99298672D01*
X142274480Y-99253379D01*
X142327207Y-99162053D01*
X142354500Y-99060193D01*
X142354500Y-97955000D01*
X142704001Y-97955000D01*
X142706786Y-97984720D01*
X142750596Y-98109922D01*
X142829358Y-98216641D01*
X142936080Y-98295405D01*
X143061267Y-98339211D01*
X143061279Y-98339213D01*
X143090977Y-98341998D01*
X143091006Y-98341999D01*
X143134000Y-98341999D01*
X143134000Y-97882000D01*
X142704001Y-97882000D01*
X142704001Y-97955000D01*
X142354500Y-97955000D01*
X142354500Y-97508992D01*
X142704000Y-97508992D01*
X142704000Y-97582000D01*
X143310000Y-97582000D01*
X143377039Y-97601685D01*
X143422794Y-97654489D01*
X143434000Y-97706000D01*
X143434000Y-98341999D01*
X143476994Y-98341999D01*
X143490059Y-98340774D01*
X143558643Y-98354115D01*
X143609127Y-98402417D01*
X143625483Y-98470345D01*
X143624573Y-98480417D01*
X143615150Y-98551996D01*
X143615150Y-98551999D01*
X143615150Y-98552000D01*
X143630177Y-98666143D01*
X143634070Y-98695708D01*
X143634071Y-98695712D01*
X143689537Y-98829622D01*
X143689538Y-98829624D01*
X143689539Y-98829625D01*
X143777779Y-98944621D01*
X143892775Y-99032861D01*
X143892776Y-99032861D01*
X143892777Y-99032862D01*
X143990680Y-99073414D01*
X144045084Y-99117254D01*
X144067149Y-99183548D01*
X144063003Y-99220068D01*
X144048831Y-99272960D01*
X144012466Y-99332620D01*
X143997947Y-99343969D01*
X143953197Y-99373869D01*
X143908882Y-99440191D01*
X143908881Y-99440192D01*
X143897250Y-99498669D01*
X143897250Y-100038169D01*
X143910282Y-100103690D01*
X143904053Y-100173282D01*
X143876346Y-100215560D01*
X143845964Y-100245942D01*
X143845961Y-100245947D01*
X143800660Y-100348544D01*
X143800660Y-100348546D01*
X143797750Y-100373627D01*
X143797750Y-100518422D01*
X144373750Y-100518422D01*
X144440789Y-100538107D01*
X144486544Y-100590911D01*
X144497750Y-100642422D01*
X144497750Y-101218421D01*
X144515728Y-101236399D01*
X144521539Y-101238106D01*
X144567294Y-101290910D01*
X144578500Y-101342421D01*
X144578500Y-101944598D01*
X144558815Y-102011637D01*
X144523392Y-102047699D01*
X144484448Y-102073720D01*
X144440132Y-102140043D01*
X144440131Y-102140044D01*
X144428500Y-102198521D01*
X144428500Y-102738021D01*
X144441532Y-102803542D01*
X144435303Y-102873134D01*
X144407596Y-102915412D01*
X144377214Y-102945794D01*
X144377211Y-102945799D01*
X144331910Y-103048396D01*
X144331910Y-103048398D01*
X144329000Y-103073479D01*
X144329000Y-103218274D01*
X144905000Y-103218274D01*
X144972039Y-103237959D01*
X145017794Y-103290763D01*
X145029000Y-103342274D01*
X145029000Y-103918273D01*
X145173786Y-103918273D01*
X145173808Y-103918271D01*
X145198869Y-103915365D01*
X145198873Y-103915364D01*
X145310665Y-103866005D01*
X145379944Y-103856934D01*
X145443128Y-103886759D01*
X145480158Y-103946009D01*
X145484750Y-103979440D01*
X145484750Y-104806831D01*
X145465065Y-104873870D01*
X145429642Y-104909932D01*
X145390698Y-104935953D01*
X145346382Y-105002276D01*
X145346381Y-105002277D01*
X145334750Y-105060754D01*
X145334750Y-105600254D01*
X145347782Y-105665775D01*
X145341553Y-105735367D01*
X145313846Y-105777645D01*
X145283464Y-105808027D01*
X145283461Y-105808032D01*
X145238160Y-105910629D01*
X145238160Y-105910631D01*
X145235250Y-105935712D01*
X145235250Y-106080507D01*
X145811250Y-106080507D01*
X145878289Y-106100192D01*
X145924044Y-106152996D01*
X145935250Y-106204507D01*
X145935250Y-106780506D01*
X146080036Y-106780506D01*
X146080058Y-106780504D01*
X146105119Y-106777598D01*
X146105123Y-106777597D01*
X146207724Y-106732295D01*
X146207729Y-106732292D01*
X146238111Y-106701911D01*
X146299434Y-106668426D01*
X146349983Y-106667975D01*
X146415497Y-106681006D01*
X146415500Y-106681007D01*
X146415502Y-106681007D01*
X146955000Y-106681007D01*
X146955001Y-106681006D01*
X146969818Y-106678059D01*
X147013479Y-106669375D01*
X147013479Y-106669374D01*
X147013481Y-106669374D01*
X147079802Y-106625059D01*
X147079803Y-106625058D01*
X147105825Y-106586115D01*
X147159437Y-106541311D01*
X147208926Y-106531007D01*
X147711327Y-106531007D01*
X147778366Y-106550692D01*
X147799008Y-106567326D01*
X148142181Y-106910499D01*
X148175666Y-106971822D01*
X148178500Y-106998180D01*
X148178500Y-107242094D01*
X148191532Y-107307615D01*
X148185303Y-107377207D01*
X148157596Y-107419485D01*
X148127214Y-107449867D01*
X148127211Y-107449872D01*
X148081910Y-107552469D01*
X148081910Y-107552471D01*
X148079000Y-107577552D01*
X148079000Y-107722347D01*
X148655000Y-107722347D01*
X148722039Y-107742032D01*
X148767794Y-107794836D01*
X148779000Y-107846347D01*
X148779000Y-108422346D01*
X148923786Y-108422346D01*
X148923808Y-108422344D01*
X148948869Y-108419438D01*
X148948873Y-108419437D01*
X149051474Y-108374135D01*
X149051479Y-108374132D01*
X149081861Y-108343751D01*
X149143184Y-108310266D01*
X149193733Y-108309815D01*
X149259247Y-108322846D01*
X149259250Y-108322847D01*
X149259252Y-108322847D01*
X149798750Y-108322847D01*
X149798751Y-108322846D01*
X149813568Y-108319899D01*
X149857229Y-108311215D01*
X149857229Y-108311214D01*
X149857231Y-108311214D01*
X149923552Y-108266899D01*
X149930237Y-108256895D01*
X149949575Y-108227955D01*
X150003187Y-108183151D01*
X150052676Y-108172847D01*
X150673948Y-108172847D01*
X150740987Y-108192532D01*
X150761629Y-108209166D01*
X151267181Y-108714718D01*
X151300666Y-108776041D01*
X151303500Y-108802399D01*
X151303500Y-109046313D01*
X151316532Y-109111834D01*
X151310303Y-109181426D01*
X151282596Y-109223704D01*
X151252214Y-109254086D01*
X151252211Y-109254091D01*
X151206910Y-109356688D01*
X151206910Y-109356690D01*
X151204000Y-109381771D01*
X151204000Y-109526566D01*
X151780000Y-109526566D01*
X151847039Y-109546251D01*
X151892794Y-109599055D01*
X151904000Y-109650566D01*
X151904000Y-110226565D01*
X152048786Y-110226565D01*
X152048808Y-110226563D01*
X152073869Y-110223657D01*
X152073873Y-110223656D01*
X152176474Y-110178354D01*
X152176479Y-110178351D01*
X152206861Y-110147970D01*
X152268184Y-110114485D01*
X152318733Y-110114034D01*
X152384247Y-110127065D01*
X152384250Y-110127066D01*
X152384252Y-110127066D01*
X152923750Y-110127066D01*
X152923751Y-110127065D01*
X152938568Y-110124118D01*
X152982229Y-110115434D01*
X152982229Y-110115433D01*
X152982231Y-110115433D01*
X153048552Y-110071118D01*
X153092867Y-110004797D01*
X153092867Y-110004795D01*
X153092868Y-110004795D01*
X153104499Y-109946318D01*
X153104500Y-109946316D01*
X153104500Y-109902399D01*
X153124185Y-109835360D01*
X153140819Y-109814718D01*
X153444460Y-109511077D01*
X153484022Y-109442554D01*
X153504500Y-109366128D01*
X153504500Y-109287004D01*
X153504500Y-108401680D01*
X153922751Y-108401680D01*
X153922752Y-108401703D01*
X153925658Y-108426764D01*
X153925659Y-108426768D01*
X153970961Y-108529369D01*
X153970964Y-108529374D01*
X154050270Y-108608680D01*
X154050275Y-108608683D01*
X154152873Y-108653984D01*
X154177956Y-108656894D01*
X154322749Y-108656894D01*
X154322750Y-108656893D01*
X154322750Y-108256895D01*
X153922751Y-108256895D01*
X153922751Y-108401680D01*
X153504500Y-108401680D01*
X153504500Y-108212228D01*
X153524185Y-108145189D01*
X153540815Y-108124551D01*
X153727932Y-107937434D01*
X153789252Y-107903951D01*
X153858943Y-107908935D01*
X153903291Y-107937436D01*
X153922750Y-107956895D01*
X154498750Y-107956895D01*
X154565789Y-107976580D01*
X154611544Y-108029384D01*
X154622750Y-108080895D01*
X154622750Y-108656894D01*
X154767536Y-108656894D01*
X154767558Y-108656892D01*
X154792619Y-108653986D01*
X154792623Y-108653985D01*
X154895224Y-108608683D01*
X154895229Y-108608680D01*
X154925611Y-108578299D01*
X154986934Y-108544814D01*
X155037483Y-108544363D01*
X155102997Y-108557394D01*
X155103000Y-108557395D01*
X155103002Y-108557395D01*
X155642500Y-108557395D01*
X155642501Y-108557394D01*
X155657318Y-108554447D01*
X155700979Y-108545763D01*
X155700979Y-108545762D01*
X155700981Y-108545762D01*
X155767302Y-108501447D01*
X155811617Y-108435126D01*
X155811617Y-108435124D01*
X155811618Y-108435124D01*
X155823249Y-108376647D01*
X155823250Y-108376645D01*
X155823250Y-108332728D01*
X155842935Y-108265689D01*
X155859569Y-108245047D01*
X156023721Y-108080895D01*
X156196460Y-107908156D01*
X156213004Y-107879501D01*
X156236021Y-107839634D01*
X156256500Y-107763207D01*
X156256500Y-106832009D01*
X156641501Y-106832009D01*
X156641502Y-106832032D01*
X156644408Y-106857093D01*
X156644409Y-106857097D01*
X156689711Y-106959698D01*
X156689714Y-106959703D01*
X156769020Y-107039009D01*
X156769025Y-107039012D01*
X156871623Y-107084313D01*
X156896706Y-107087223D01*
X157041499Y-107087223D01*
X157041500Y-107087222D01*
X157041500Y-106687224D01*
X156641501Y-106687224D01*
X156641501Y-106832009D01*
X156256500Y-106832009D01*
X156256500Y-106601832D01*
X156276185Y-106534793D01*
X156292815Y-106514155D01*
X156442943Y-106364027D01*
X156504265Y-106330543D01*
X156573957Y-106335527D01*
X156618304Y-106364028D01*
X156641500Y-106387224D01*
X157217500Y-106387224D01*
X157284539Y-106406909D01*
X157330294Y-106459713D01*
X157341500Y-106511224D01*
X157341500Y-107087223D01*
X157486286Y-107087223D01*
X157486308Y-107087221D01*
X157511369Y-107084315D01*
X157511373Y-107084314D01*
X157613974Y-107039012D01*
X157613979Y-107039009D01*
X157644361Y-107008628D01*
X157705684Y-106975143D01*
X157756233Y-106974692D01*
X157821747Y-106987723D01*
X157821750Y-106987724D01*
X157821752Y-106987724D01*
X158361250Y-106987724D01*
X158361251Y-106987723D01*
X158376068Y-106984776D01*
X158419729Y-106976092D01*
X158419729Y-106976091D01*
X158419731Y-106976091D01*
X158486052Y-106931776D01*
X158530367Y-106865455D01*
X158530367Y-106865453D01*
X158530368Y-106865453D01*
X158541999Y-106806976D01*
X158542000Y-106806974D01*
X158542000Y-106763057D01*
X158561685Y-106696018D01*
X158578319Y-106675376D01*
X159424695Y-105829000D01*
X160300710Y-104952985D01*
X160303505Y-104948144D01*
X160340271Y-104884463D01*
X160360750Y-104808036D01*
X160360750Y-103331253D01*
X160380435Y-103264214D01*
X160415860Y-103228151D01*
X160454801Y-103202131D01*
X160454802Y-103202130D01*
X160499117Y-103135809D01*
X160499117Y-103135807D01*
X160499118Y-103135807D01*
X160510749Y-103077330D01*
X160510750Y-103077328D01*
X160510750Y-102537827D01*
X160510749Y-102537825D01*
X160497718Y-102472311D01*
X160503945Y-102402720D01*
X160531654Y-102360439D01*
X160562035Y-102330057D01*
X160562038Y-102330052D01*
X160607339Y-102227455D01*
X160607339Y-102227453D01*
X160610249Y-102202372D01*
X160610250Y-102202369D01*
X160610250Y-102057578D01*
X160034250Y-102057578D01*
X159967211Y-102037893D01*
X159921456Y-101985089D01*
X159910250Y-101933578D01*
X159910250Y-101757578D01*
X160210250Y-101757578D01*
X160610249Y-101757578D01*
X160610249Y-101612792D01*
X160610247Y-101612769D01*
X160607341Y-101587708D01*
X160607340Y-101587704D01*
X160562038Y-101485103D01*
X160562035Y-101485098D01*
X160482729Y-101405792D01*
X160482724Y-101405789D01*
X160380126Y-101360488D01*
X160355044Y-101357578D01*
X160210250Y-101357578D01*
X160210250Y-101757578D01*
X159910250Y-101757578D01*
X159910250Y-101357578D01*
X159892271Y-101339599D01*
X159886461Y-101337893D01*
X159840706Y-101285089D01*
X159829500Y-101233578D01*
X159829500Y-100631401D01*
X159849185Y-100564362D01*
X159884610Y-100528299D01*
X159923551Y-100502279D01*
X159923552Y-100502278D01*
X159967867Y-100435957D01*
X159967867Y-100435955D01*
X159967868Y-100435955D01*
X159979499Y-100377478D01*
X159979500Y-100377476D01*
X159979500Y-99837975D01*
X159979499Y-99837973D01*
X159966468Y-99772459D01*
X159972695Y-99702868D01*
X160000404Y-99660587D01*
X160030785Y-99630205D01*
X160030788Y-99630200D01*
X160076089Y-99527603D01*
X160076089Y-99527601D01*
X160078999Y-99502520D01*
X160079000Y-99502517D01*
X160079000Y-99357726D01*
X159503000Y-99357726D01*
X159435961Y-99338041D01*
X159390206Y-99285237D01*
X159379000Y-99233726D01*
X159379000Y-99057726D01*
X159679000Y-99057726D01*
X160078999Y-99057726D01*
X160078999Y-98912940D01*
X160078997Y-98912917D01*
X160076091Y-98887856D01*
X160076090Y-98887852D01*
X160030788Y-98785251D01*
X160030785Y-98785246D01*
X159951479Y-98705940D01*
X159951474Y-98705937D01*
X159848876Y-98660636D01*
X159823794Y-98657726D01*
X159679000Y-98657726D01*
X159679000Y-99057726D01*
X159379000Y-99057726D01*
X159379000Y-98657726D01*
X159234214Y-98657726D01*
X159234191Y-98657728D01*
X159209130Y-98660634D01*
X159209123Y-98660636D01*
X159097334Y-98709994D01*
X159028056Y-98719064D01*
X158964871Y-98689240D01*
X158927841Y-98629990D01*
X158923250Y-98596559D01*
X158923250Y-97769168D01*
X158942935Y-97702129D01*
X158978360Y-97666066D01*
X159017301Y-97640046D01*
X159017302Y-97640045D01*
X159061617Y-97573724D01*
X159061617Y-97573722D01*
X159061618Y-97573722D01*
X159073249Y-97515245D01*
X159073250Y-97515243D01*
X159073250Y-96975742D01*
X159073249Y-96975740D01*
X159060218Y-96910226D01*
X159066445Y-96840635D01*
X159094154Y-96798354D01*
X159124535Y-96767972D01*
X159124538Y-96767967D01*
X159169839Y-96665370D01*
X159169839Y-96665368D01*
X159172749Y-96640287D01*
X159172750Y-96640284D01*
X159172750Y-96495493D01*
X158596750Y-96495493D01*
X158529711Y-96475808D01*
X158483956Y-96423004D01*
X158472750Y-96371493D01*
X158472750Y-96195493D01*
X158772750Y-96195493D01*
X159172749Y-96195493D01*
X159172749Y-96050707D01*
X159172747Y-96050684D01*
X159169841Y-96025623D01*
X159169840Y-96025619D01*
X159124538Y-95923018D01*
X159124535Y-95923013D01*
X159045229Y-95843707D01*
X159045224Y-95843704D01*
X158942626Y-95798403D01*
X158917544Y-95795493D01*
X158772750Y-95795493D01*
X158772750Y-96195493D01*
X158472750Y-96195493D01*
X158472750Y-95795493D01*
X158327964Y-95795493D01*
X158327941Y-95795495D01*
X158302880Y-95798401D01*
X158302876Y-95798402D01*
X158200275Y-95843704D01*
X158200270Y-95843707D01*
X158169888Y-95874089D01*
X158108565Y-95907574D01*
X158058018Y-95908025D01*
X157992498Y-95894993D01*
X157748583Y-95894993D01*
X157681544Y-95875308D01*
X157660902Y-95858674D01*
X157165422Y-95363194D01*
X157165414Y-95363188D01*
X157114693Y-95333904D01*
X157114693Y-95333905D01*
X157104420Y-95327974D01*
X157096899Y-95323632D01*
X157020472Y-95303153D01*
X157020470Y-95303153D01*
X156392926Y-95303153D01*
X156325887Y-95283468D01*
X156280132Y-95230664D01*
X156270188Y-95161506D01*
X156279491Y-95129068D01*
X156326089Y-95023530D01*
X156326089Y-95023528D01*
X156328999Y-94998447D01*
X156329000Y-94998444D01*
X156329000Y-94853653D01*
X155753000Y-94853653D01*
X155685961Y-94833968D01*
X155640206Y-94781164D01*
X155629000Y-94729653D01*
X155629000Y-94553653D01*
X155929000Y-94553653D01*
X156328999Y-94553653D01*
X156328999Y-94408867D01*
X156328997Y-94408844D01*
X156326091Y-94383783D01*
X156326090Y-94383779D01*
X156280788Y-94281178D01*
X156280785Y-94281173D01*
X156201479Y-94201867D01*
X156201474Y-94201864D01*
X156098876Y-94156563D01*
X156073794Y-94153653D01*
X155929000Y-94153653D01*
X155929000Y-94553653D01*
X155629000Y-94553653D01*
X155629000Y-94153653D01*
X155484214Y-94153653D01*
X155484191Y-94153655D01*
X155459130Y-94156561D01*
X155459126Y-94156562D01*
X155356525Y-94201864D01*
X155356520Y-94201867D01*
X155326138Y-94232249D01*
X155264815Y-94265734D01*
X155214268Y-94266185D01*
X155148748Y-94253153D01*
X154609252Y-94253153D01*
X154609247Y-94253153D01*
X154550770Y-94264784D01*
X154550769Y-94264785D01*
X154484446Y-94309101D01*
X154458425Y-94348045D01*
X154404813Y-94392849D01*
X154355324Y-94403153D01*
X153669486Y-94403153D01*
X153602447Y-94383468D01*
X153581805Y-94366834D01*
X153140819Y-93925848D01*
X153107334Y-93864525D01*
X153104500Y-93838167D01*
X153104500Y-93529683D01*
X153104499Y-93529681D01*
X153091468Y-93464167D01*
X153097695Y-93394576D01*
X153125404Y-93352295D01*
X153155785Y-93321913D01*
X153155788Y-93321908D01*
X153201089Y-93219311D01*
X153201089Y-93219309D01*
X153203999Y-93194228D01*
X153204000Y-93194225D01*
X153204000Y-93049434D01*
X152628000Y-93049434D01*
X152560961Y-93029749D01*
X152515206Y-92976945D01*
X152504000Y-92925434D01*
X152504000Y-92749434D01*
X152804000Y-92749434D01*
X153203999Y-92749434D01*
X153203999Y-92604648D01*
X153203997Y-92604625D01*
X153201091Y-92579564D01*
X153201090Y-92579560D01*
X153155788Y-92476959D01*
X153155785Y-92476954D01*
X153076479Y-92397648D01*
X153076474Y-92397645D01*
X152973876Y-92352344D01*
X152948794Y-92349434D01*
X152804000Y-92349434D01*
X152804000Y-92749434D01*
X152504000Y-92749434D01*
X152504000Y-92349434D01*
X152359214Y-92349434D01*
X152359191Y-92349436D01*
X152334130Y-92352342D01*
X152334126Y-92352343D01*
X152231525Y-92397645D01*
X152231520Y-92397648D01*
X152201138Y-92428030D01*
X152139815Y-92461515D01*
X152089268Y-92461966D01*
X152023748Y-92448934D01*
X151484252Y-92448934D01*
X151484247Y-92448934D01*
X151425770Y-92460565D01*
X151425769Y-92460566D01*
X151359446Y-92504882D01*
X151333425Y-92543826D01*
X151279813Y-92588630D01*
X151230324Y-92598934D01*
X151205804Y-92598934D01*
X151129377Y-92619413D01*
X151129375Y-92619414D01*
X151111583Y-92629686D01*
X151111582Y-92629685D01*
X151060861Y-92658969D01*
X151060853Y-92658975D01*
X150864141Y-92855687D01*
X150864135Y-92855695D01*
X150824582Y-92924204D01*
X150824579Y-92924209D01*
X150804100Y-93000639D01*
X150804100Y-94463170D01*
X150784415Y-94530209D01*
X150767781Y-94550852D01*
X150680069Y-94638563D01*
X150618745Y-94672047D01*
X150549054Y-94667063D01*
X150504707Y-94638562D01*
X150485250Y-94619105D01*
X149909250Y-94619105D01*
X149842211Y-94599420D01*
X149796456Y-94546616D01*
X149785250Y-94495105D01*
X149785250Y-94319105D01*
X150085250Y-94319105D01*
X150485249Y-94319105D01*
X150485249Y-94174319D01*
X150485247Y-94174296D01*
X150482341Y-94149235D01*
X150482340Y-94149231D01*
X150437038Y-94046630D01*
X150437035Y-94046625D01*
X150357729Y-93967319D01*
X150357724Y-93967316D01*
X150255126Y-93922015D01*
X150230044Y-93919105D01*
X150085250Y-93919105D01*
X150085250Y-94319105D01*
X149785250Y-94319105D01*
X149785250Y-93919105D01*
X149640464Y-93919105D01*
X149640441Y-93919107D01*
X149615380Y-93922013D01*
X149615376Y-93922014D01*
X149512775Y-93967316D01*
X149512770Y-93967319D01*
X149482388Y-93997701D01*
X149421065Y-94031186D01*
X149370518Y-94031637D01*
X149304998Y-94018605D01*
X148765502Y-94018605D01*
X148765497Y-94018605D01*
X148707020Y-94030236D01*
X148707019Y-94030237D01*
X148640696Y-94074553D01*
X148614675Y-94113497D01*
X148561063Y-94158301D01*
X148526328Y-94165533D01*
X148526593Y-94167544D01*
X148518533Y-94168605D01*
X148442105Y-94189083D01*
X148373584Y-94228645D01*
X148373581Y-94228647D01*
X148146341Y-94455887D01*
X148146335Y-94455895D01*
X148106782Y-94524404D01*
X148106779Y-94524409D01*
X148086300Y-94600839D01*
X148086300Y-96242567D01*
X148066615Y-96309606D01*
X148049981Y-96330248D01*
X147978181Y-96402048D01*
X147916858Y-96435533D01*
X147847166Y-96430549D01*
X147791233Y-96388677D01*
X147766816Y-96323213D01*
X147766500Y-96314367D01*
X147766500Y-96188776D01*
X147190500Y-96188776D01*
X147123461Y-96169091D01*
X147077706Y-96116287D01*
X147066500Y-96064776D01*
X147066500Y-95888776D01*
X147366500Y-95888776D01*
X147766499Y-95888776D01*
X147766499Y-95743990D01*
X147766497Y-95743967D01*
X147763591Y-95718906D01*
X147763590Y-95718902D01*
X147718288Y-95616301D01*
X147718285Y-95616296D01*
X147638979Y-95536990D01*
X147638974Y-95536987D01*
X147536376Y-95491686D01*
X147511294Y-95488776D01*
X147366500Y-95488776D01*
X147366500Y-95888776D01*
X147066500Y-95888776D01*
X147066500Y-95488776D01*
X146921714Y-95488776D01*
X146921691Y-95488778D01*
X146896630Y-95491684D01*
X146896626Y-95491685D01*
X146794025Y-95536987D01*
X146794020Y-95536990D01*
X146763638Y-95567372D01*
X146702315Y-95600857D01*
X146651768Y-95601308D01*
X146586248Y-95588276D01*
X146046752Y-95588276D01*
X146046747Y-95588276D01*
X145988270Y-95599907D01*
X145988269Y-95599908D01*
X145921946Y-95644224D01*
X145895925Y-95683168D01*
X145842313Y-95727972D01*
X145792824Y-95738276D01*
X143570662Y-95738276D01*
X143549338Y-95743990D01*
X143494233Y-95758755D01*
X143472199Y-95771477D01*
X143469245Y-95773183D01*
X143456311Y-95780650D01*
X143425713Y-95798315D01*
X143425711Y-95798317D01*
X143069490Y-96154539D01*
X143069489Y-96154540D01*
X143029930Y-96194098D01*
X142994656Y-96218797D01*
X142923598Y-96251933D01*
X142923597Y-96251933D01*
X142839935Y-96335595D01*
X142789931Y-96442828D01*
X142783500Y-96491683D01*
X142783500Y-96940316D01*
X142789931Y-96989171D01*
X142844520Y-97106236D01*
X142842587Y-97107137D01*
X142860396Y-97159948D01*
X142843383Y-97227714D01*
X142834301Y-97239457D01*
X142834877Y-97239882D01*
X142750594Y-97354080D01*
X142706788Y-97479267D01*
X142706786Y-97479279D01*
X142704000Y-97508992D01*
X142354500Y-97508992D01*
X142354500Y-95672980D01*
X142374185Y-95605941D01*
X142416500Y-95565593D01*
X142466048Y-95536987D01*
X148670034Y-91955112D01*
X148732034Y-91938500D01*
X155675966Y-91938500D01*
X155737965Y-91955112D01*
G37*
%TD.AperFunction*%
%TD*%
M02*
