%TF.GenerationSoftware,KiCad,Pcbnew,8.0.4*%
%TF.CreationDate,2024-10-23T12:58:23+11:00*%
%TF.ProjectId,Micron_Logo_LED,4d696372-6f6e-45f4-9c6f-676f5f4c4544,rev?*%
%TF.SameCoordinates,Original*%
%TF.FileFunction,Legend,Top*%
%TF.FilePolarity,Positive*%
%FSLAX46Y46*%
G04 Gerber Fmt 4.6, Leading zero omitted, Abs format (unit mm)*
G04 Created by KiCad (PCBNEW 8.0.4) date 2024-10-23 12:58:23*
%MOMM*%
%LPD*%
G01*
G04 APERTURE LIST*
G04 Aperture macros list*
%AMRoundRect*
0 Rectangle with rounded corners*
0 $1 Rounding radius*
0 $2 $3 $4 $5 $6 $7 $8 $9 X,Y pos of 4 corners*
0 Add a 4 corners polygon primitive as box body*
4,1,4,$2,$3,$4,$5,$6,$7,$8,$9,$2,$3,0*
0 Add four circle primitives for the rounded corners*
1,1,$1+$1,$2,$3*
1,1,$1+$1,$4,$5*
1,1,$1+$1,$6,$7*
1,1,$1+$1,$8,$9*
0 Add four rect primitives between the rounded corners*
20,1,$1+$1,$2,$3,$4,$5,0*
20,1,$1+$1,$4,$5,$6,$7,0*
20,1,$1+$1,$6,$7,$8,$9,0*
20,1,$1+$1,$8,$9,$2,$3,0*%
G04 Aperture macros list end*
%ADD10C,0.250000*%
%ADD11C,0.120000*%
%ADD12R,0.500000X0.500000*%
%ADD13RoundRect,0.135000X0.135000X0.185000X-0.135000X0.185000X-0.135000X-0.185000X0.135000X-0.185000X0*%
%ADD14RoundRect,0.140000X-0.140000X-0.170000X0.140000X-0.170000X0.140000X0.170000X-0.140000X0.170000X0*%
%ADD15RoundRect,0.140000X0.170000X-0.140000X0.170000X0.140000X-0.170000X0.140000X-0.170000X-0.140000X0*%
G04 APERTURE END LIST*
D10*
X144704000Y-96957873D02*
X152204000Y-92627746D01*
X152894086Y-101370005D02*
X151344098Y-101370005D01*
X159704000Y-96957873D02*
X159704000Y-101288000D01*
X153714049Y-97769961D02*
X152084568Y-97769961D01*
X152084568Y-97769961D02*
X147344626Y-104970038D01*
X162204000Y-101288000D02*
X159704000Y-103788000D01*
X144704000Y-98788000D02*
X145954000Y-99509688D01*
X147344626Y-104970038D02*
X148974127Y-104970039D01*
X156937143Y-97769961D02*
X155264106Y-97769961D01*
X159704000Y-101288000D02*
X162204000Y-101288000D01*
X144704000Y-105618127D02*
X144704000Y-101288000D01*
X158454000Y-97679561D02*
X152204000Y-94071122D01*
X158454000Y-103066312D02*
X158454000Y-97679561D01*
X148974127Y-104970039D02*
X150507560Y-102640726D01*
X159704000Y-105618127D02*
X152204000Y-109948254D01*
X145954000Y-99509688D02*
X145954000Y-104896439D01*
X154567221Y-101370005D02*
X156937143Y-97769961D01*
X159704000Y-103788000D02*
X158454000Y-103066312D01*
X142204000Y-101288000D02*
X144704000Y-98788000D01*
X145954000Y-104896439D02*
X152204000Y-108504878D01*
X152204000Y-109948254D02*
X144704000Y-105618127D01*
X152204000Y-94071122D02*
X145954000Y-97679561D01*
X152204000Y-108504878D02*
X158454000Y-104896439D01*
X152204000Y-92627746D02*
X159704000Y-96957873D01*
X155264106Y-97769961D02*
X152894086Y-101370005D01*
X144704000Y-101288000D02*
X142204000Y-101288000D01*
X145954000Y-97679561D02*
X144704000Y-96957873D01*
X155378315Y-102640726D02*
X154567221Y-101370005D01*
X151344098Y-101370005D02*
X153714049Y-97769961D01*
X158454000Y-104896439D02*
X159704000Y-105618127D01*
X150507560Y-102640726D02*
X155378315Y-102640726D01*
D11*
%TO.C,R1*%
X143917641Y-96336000D02*
X143610359Y-96336000D01*
X143917641Y-97096000D02*
X143610359Y-97096000D01*
%TO.C,C1*%
X143656164Y-97372000D02*
X143871836Y-97372000D01*
X143656164Y-98092000D02*
X143871836Y-98092000D01*
%TO.C,C2*%
X157372164Y-103780000D02*
X157587836Y-103780000D01*
X157372164Y-104500000D02*
X157587836Y-104500000D01*
%TO.C,C3*%
X150516000Y-105263836D02*
X150516000Y-105048164D01*
X151236000Y-105263836D02*
X151236000Y-105048164D01*
%TD*%
%LPC*%
D12*
%TO.C,D3*%
X151754000Y-92899434D03*
X151754000Y-93799434D03*
X152654000Y-93799434D03*
X152654000Y-92899434D03*
%TD*%
%TO.C,D2*%
X149035250Y-94469105D03*
X149035250Y-95369105D03*
X149935250Y-95369105D03*
X149935250Y-94469105D03*
%TD*%
%TO.C,D5*%
X157722750Y-96345493D03*
X157722750Y-97245493D03*
X158622750Y-97245493D03*
X158622750Y-96345493D03*
%TD*%
%TO.C,D15*%
X148331837Y-103410522D03*
X148331837Y-104310522D03*
X149231837Y-104310522D03*
X149231837Y-103410522D03*
%TD*%
%TO.C,D1*%
X146316500Y-96038776D03*
X146316500Y-96938776D03*
X147216500Y-96938776D03*
X147216500Y-96038776D03*
%TD*%
%TO.C,D10*%
X152654000Y-109676566D03*
X152654000Y-108776566D03*
X151754000Y-108776566D03*
X151754000Y-109676566D03*
%TD*%
%TO.C,D13*%
X145779000Y-103368274D03*
X145779000Y-102468274D03*
X144879000Y-102468274D03*
X144879000Y-103368274D03*
%TD*%
%TO.C,D14*%
X145247750Y-100668422D03*
X145247750Y-99768422D03*
X144347750Y-99768422D03*
X144347750Y-100668422D03*
%TD*%
%TO.C,D12*%
X146685250Y-106230507D03*
X146685250Y-105330507D03*
X145785250Y-105330507D03*
X145785250Y-106230507D03*
%TD*%
%TO.C,D7*%
X159160250Y-101907578D03*
X159160250Y-102807578D03*
X160060250Y-102807578D03*
X160060250Y-101907578D03*
%TD*%
D13*
%TO.C,R1*%
X144274000Y-96716000D03*
X143254000Y-96716000D03*
%TD*%
D12*
%TO.C,D9*%
X155372750Y-108106895D03*
X155372750Y-107206895D03*
X154472750Y-107206895D03*
X154472750Y-108106895D03*
%TD*%
%TO.C,D17*%
X153280664Y-101656005D03*
X154180664Y-101656005D03*
X154180664Y-100756005D03*
X153280664Y-100756005D03*
%TD*%
D14*
%TO.C,C1*%
X143284000Y-97732000D03*
X144244000Y-97732000D03*
%TD*%
%TO.C,C2*%
X157000000Y-104140000D03*
X157960000Y-104140000D03*
%TD*%
D12*
%TO.C,D16*%
X150079357Y-101656005D03*
X150979357Y-101656005D03*
X150979357Y-100756005D03*
X150079357Y-100756005D03*
%TD*%
%TO.C,D4*%
X154879000Y-94703653D03*
X154879000Y-95603653D03*
X155779000Y-95603653D03*
X155779000Y-94703653D03*
%TD*%
D15*
%TO.C,C3*%
X150876000Y-105636000D03*
X150876000Y-104676000D03*
%TD*%
D12*
%TO.C,D19*%
X154915190Y-98189132D03*
X154915190Y-99089132D03*
X155815190Y-99089132D03*
X155815190Y-98189132D03*
%TD*%
%TO.C,D6*%
X158629000Y-99207726D03*
X158629000Y-100107726D03*
X159529000Y-100107726D03*
X159529000Y-99207726D03*
%TD*%
%TO.C,D11*%
X149529000Y-107872347D03*
X149529000Y-106972347D03*
X148629000Y-106972347D03*
X148629000Y-107872347D03*
%TD*%
%TO.C,D18*%
X151769165Y-99089132D03*
X152669165Y-99089132D03*
X152669165Y-98189132D03*
X151769165Y-98189132D03*
%TD*%
%TO.C,D8*%
X158091500Y-106537224D03*
X158091500Y-105637224D03*
X157191500Y-105637224D03*
X157191500Y-106537224D03*
%TD*%
%LPD*%
M02*
