<?xml version="1.0" encoding="UTF-8" standalone="no"?>
<svg
   width="180.0"
   height="180.0"
   version="1.1"
   id="svg33"
   sodipodi:docname="Micron SC Plate.svg"
   inkscape:version="1.4 (86a8ad7, 2024-10-11)"
   xmlns:inkscape="http://www.inkscape.org/namespaces/inkscape"
   xmlns:sodipodi="http://sodipodi.sourceforge.net/DTD/sodipodi-0.dtd"
   xmlns="http://www.w3.org/2000/svg"
   xmlns:svg="http://www.w3.org/2000/svg">
  <defs
     id="defs33" />
  <sodipodi:namedview
     id="namedview33"
     pagecolor="#ffffff"
     bordercolor="#000000"
     borderopacity="0.25"
     inkscape:showpageshadow="2"
     inkscape:pageopacity="0.0"
     inkscape:pagecheckerboard="1"
     inkscape:deskcolor="#d1d1d1"
     inkscape:zoom="5.0479568"
     inkscape:cx="72.108383"
     inkscape:cy="102.02148"
     inkscape:window-width="2560"
     inkscape:window-height="1566"
     inkscape:window-x="-11"
     inkscape:window-y="-11"
     inkscape:window-maximized="1"
     inkscape:current-layer="svg33"
     showgrid="false"
     showborder="true">
    <inkscape:grid
       id="grid1"
       units="px"
       originx="0"
       originy="0"
       spacingx="1"
       spacingy="1"
       empcolor="#0099e5"
       empopacity="0.30196078"
       color="#0099e5"
       opacity="0.14901961"
       empspacing="5"
       enabled="true"
       visible="false" />
  </sodipodi:namedview>
  <rect
     style="fill:#35353b;stroke:#db3f38;stroke-width:0;fill-opacity:1"
     id="rect1"
     width="197.50566"
     height="196.91136"
     x="-10.499297"
     y="-5.150599" />
  <path
     style="fill:#db3f38;stroke:#db3f38;stroke-width:0"
     d="m 168.68872,161.62023 -1.15565,-0.65301 -0.003,-5.4019 -0.003,-5.4019 -6.15788,-3.54932 c -3.38683,-1.95212 -6.2695,-3.57721 -6.40592,-3.61129 -0.14935,-0.0373 -2.70024,1.3563 -6.41146,3.50276 l -6.16342,3.56474 -0.98055,-0.54102 c -0.5393,-0.29756 -0.97063,-0.59179 -0.95851,-0.65383 0.0159,-0.0812 10.77764,-6.37424 14.19817,-8.30254 0.15312,-0.0863 2.2649,1.0656 7.56421,4.12608 l 7.35177,4.24584 0.037,4.3542 0.037,4.35421 0.31318,0.0732 c 0.17225,0.0403 1.21232,0.0885 2.31126,0.10722 l 1.99809,0.034 -2.2082,2.20277 -2.2082,2.20277 z"
     id="path33" />
  <path
     style="fill:#db3f38;stroke:#db3f38;stroke-width:0"
     d="m 146.08813,163.41316 c 0.37355,-0.56902 2.46207,-3.74433 4.64117,-7.05626 l 3.962,-6.0217 1.44677,-10e-4 1.44677,-0.001 -0.60928,0.9286 c -0.3351,0.51072 -1.35143,2.05405 -2.25851,3.4296 -0.90709,1.37556 -1.65985,2.54001 -1.67282,2.58768 -0.013,0.0477 0.001,0.0867 0.0317,0.0867 0.0304,0 0.0553,0.0334 0.0553,0.0743 0,0.0645 0.20636,0.0743 1.56004,0.0743 0.97331,0 1.56004,-0.018 1.56004,-0.048 0,-0.0264 0.0279,-0.0384 0.0619,-0.0267 0.0376,0.0129 0.97592,-1.37082 2.38958,-3.52387 1.28022,-1.94982 2.35021,-3.55389 2.37777,-3.56461 0.0275,-0.0107 0.69965,-0.0136 1.49356,-0.006 l 1.44347,0.0131 -2.27287,3.4522 c -1.84779,2.80657 -2.2698,3.47808 -2.25649,3.59056 0.009,0.0761 0.33055,0.62866 0.71455,1.22791 l 0.69817,1.08955 -4.72679,0.0126 c -3.0938,0.008 -4.72678,0.0297 -4.72678,0.0619 0,0.0271 -0.0279,0.0494 -0.0619,0.0496 -0.0341,2e-4 -0.74164,1.03609 -1.57242,2.302 l -1.51051,2.30164 -1.44681,9.2e-4 -1.44681,9.1e-4 z"
     id="path34" />
  <path
     style="fill:#db3f38;stroke:#db3f38;stroke-width:0"
     d="m 147.39915,170.37605 -7.3912,-4.26924 -4.1e-4,-4.29629 c -3.5e-4,-3.78573 -0.009,-4.29629 -0.0747,-4.29629 -0.0409,0 -0.0743,-0.0332 -0.0743,-0.0738 0,-0.0641 -0.30147,-0.0755 -2.30313,-0.0867 l -2.30312,-0.0129 2.3155,-2.30952 2.31551,-2.30951 1.15146,0.66728 1.15145,0.66728 v 5.3463 c 0,5.02368 0.005,5.35184 0.0867,5.43822 0.0477,0.0506 2.87245,1.70044 6.27729,3.6664 5.12431,2.95878 6.21622,3.57128 6.3392,3.55589 0.0893,-0.0112 2.40588,-1.43614 5.80295,-3.56943 3.1099,-1.95295 5.67057,-3.55083 5.69038,-3.55083 0.0198,0 0.72345,0.28348 1.56363,0.62995 1.17904,0.48621 1.51354,0.64307 1.46597,0.68742 -0.10776,0.10049 -14.49954,8.38963 -14.56208,8.38724 -0.0329,-10e-4 -3.38594,-1.92345 -7.4511,-4.27153 z"
     id="path35" />
</svg>
