<?xml version="1.0" encoding="UTF-8" standalone="no"?>
<svg
   width="305.0"
   height="305.0"
   version="1.1"
   id="svg33"
   sodipodi:docname="SC Plate 305x305.svg"
   inkscape:version="1.4 (86a8ad7, 2024-10-11)"
   xmlns:inkscape="http://www.inkscape.org/namespaces/inkscape"
   xmlns:sodipodi="http://sodipodi.sourceforge.net/DTD/sodipodi-0.dtd"
   xmlns="http://www.w3.org/2000/svg"
   xmlns:svg="http://www.w3.org/2000/svg">
  <defs
     id="defs33" />
  <sodipodi:namedview
     id="namedview33"
     pagecolor="#ffffff"
     bordercolor="#000000"
     borderopacity="0.25"
     inkscape:showpageshadow="2"
     inkscape:pageopacity="0.0"
     inkscape:pagecheckerboard="0"
     inkscape:deskcolor="#d1d1d1"
     inkscape:zoom="4.2131148"
     inkscape:cx="152.38132"
     inkscape:cy="152.38132"
     inkscape:window-width="2560"
     inkscape:window-height="1566"
     inkscape:window-x="-11"
     inkscape:window-y="-11"
     inkscape:window-maximized="1"
     inkscape:current-layer="svg33" />
  <path
     style="fill:#db3f38;stroke:#db3f38;stroke-width:0"
     d="m 289.0444,280.95353 -1.12098,-0.63835 -0.0658,-6.27826 -0.0658,-6.27825 -7.29497,-4.22856 -7.29497,-4.22856 -7.22376,4.17336 -7.22376,4.17337 -1.18414,-0.6763 -1.18414,-0.67629 8.19851,-4.73928 c 4.50919,-2.60661 8.32801,-4.77065 8.48628,-4.80898 0.15828,-0.0383 4.06928,2.11692 8.69113,4.78943 l 8.40336,4.85912 0.11868,5.06076 0.11867,5.06077 2.59818,0.0678 2.59818,0.0678 -2.47526,2.48372 c -1.36139,1.36604 -2.58398,2.47725 -2.71685,2.46934 -0.13288,-0.008 -0.74604,-0.30163 -1.36257,-0.65272 z"
     id="path33" />
  <path
     style="fill:#db3f38;stroke:#db3f38;stroke-width:0"
     d="m 265.40143,285.90641 c 0.0435,-0.12317 2.80275,-4.55385 6.13164,-9.84597 l 6.05253,-9.62204 1.7406,-0.004 c 0.95733,-0.002 1.70499,0.0921 1.66148,0.20994 -0.0435,0.11778 -2.80276,4.54794 -6.13165,9.84478 l -6.05253,9.63063 -1.74059,0.005 c -0.99092,0.003 -1.70652,-0.091 -1.66148,-0.21853 z"
     id="path34" />
  <path
     style="fill:#db3f38;stroke:#db3f38;stroke-width:0"
     d="m 263.22568,276.0453 c 0,-0.0639 1.34496,-2.25349 2.98879,-4.86576 l 2.98879,-4.74958 h 1.77175 1.77174 l -0.5475,0.90721 c -0.30112,0.49897 -1.669,2.6881 -3.03972,4.86474 l -2.49221,3.95752 -1.72082,0.001 c -0.94645,5.6e-4 -1.72082,-0.0513 -1.72082,-0.11516 z"
     id="path35" />
  <path
     style="fill:#db3f38;stroke:#db3f38;stroke-width:0"
     d="m 274.17541,285.24027 c 0.29968,-0.48954 1.62413,-2.59902 2.94322,-4.68774 l 2.39835,-3.79767 1.82126,-0.0693 1.82126,-0.0693 -2.99189,4.75703 -2.9919,4.75703 h -1.77258 -1.77259 z"
     id="path36" />
  <path
     style="fill:#db3f38;stroke:#db3f38;stroke-width:0"
     d="m 264.53113,291.00269 -8.30739,-4.82176 -0.0641,-5.00973 -0.0641,-5.00972 h -2.78014 -2.78015 l 2.6028,-2.6109 c 1.43154,-1.43599 2.71143,-2.60886 2.8442,-2.60638 0.13277,0.002 0.74875,0.3231 1.36884,0.7125 l 1.12743,0.70799 0.0104,6.2301 0.0104,6.23011 7.34915,4.2194 7.34915,4.2194 7.22509,-4.17745 7.22508,-4.17745 1.09641,0.64254 c 0.63514,0.37221 1.00811,0.73082 0.88655,0.85238 -0.40964,0.40964 -16.23816,9.45784 -16.51295,9.43944 -0.15369,-0.0103 -4.01777,-2.1885 -8.58683,-4.84047 z"
     id="path37" />
</svg>
