<?xml version="1.0" encoding="UTF-8" standalone="no"?>
<svg
   width="305.0"
   height="235.0"
   version="1.1"
   id="svg33"
   sodipodi:docname="SC Plate 305x235.svg"
   inkscape:version="1.4 (86a8ad7, 2024-10-11)"
   xmlns:inkscape="http://www.inkscape.org/namespaces/inkscape"
   xmlns:sodipodi="http://sodipodi.sourceforge.net/DTD/sodipodi-0.dtd"
   xmlns="http://www.w3.org/2000/svg"
   xmlns:svg="http://www.w3.org/2000/svg">
  <defs
     id="defs33" />
  <sodipodi:namedview
     id="namedview33"
     pagecolor="#ffffff"
     bordercolor="#000000"
     borderopacity="0.25"
     inkscape:showpageshadow="2"
     inkscape:pageopacity="0.0"
     inkscape:pagecheckerboard="0"
     inkscape:deskcolor="#d1d1d1"
     inkscape:zoom="5.4680851"
     inkscape:cx="152.5214"
     inkscape:cy="117.59144"
     inkscape:window-width="2560"
     inkscape:window-height="1566"
     inkscape:window-x="-11"
     inkscape:window-y="-11"
     inkscape:window-maximized="1"
     inkscape:current-layer="svg33" />
  <path
     style="fill:#db3f38;stroke:#db3f38;stroke-width:0"
     d="m 289.08819,210.9918 -1.23283,-0.68052 -0.002,-6.24696 -0.002,-6.24696 -7.32472,-4.23369 -7.32471,-4.2337 -7.06825,4.07988 c -3.88754,2.24393 -7.17498,4.10647 -7.30543,4.13897 -0.21848,0.0544 -2.52468,-1.22877 -2.39715,-1.33381 0.031,-0.0256 3.79261,-2.2016 8.35904,-4.83564 5.30473,-3.0599 8.40829,-4.74877 8.59533,-4.67733 0.16101,0.0615 4.01534,2.26178 8.5652,4.88952 l 8.27246,4.7777 0.0486,5.04078 0.0485,5.04078 2.64406,0.051 2.64406,0.051 -2.55017,2.55506 c -1.40259,1.40528 -2.59242,2.55268 -2.64406,2.54977 -0.0516,-0.003 -0.64866,-0.31151 -1.32671,-0.68579 z"
     id="path33" />
  <path
     style="fill:#db3f38;stroke:#db3f38;stroke-width:0"
     d="m 267.29468,212.74078 c 1.16027,-1.83914 3.9355,-6.24428 6.16718,-9.78919 l 4.0576,-6.4453 1.78777,-0.001 1.78777,-0.001 -0.27089,0.50292 c -0.14898,0.2766 -2.89227,4.65885 -6.09618,9.73833 l -5.8253,9.2354 -1.85877,0.0521 -1.85876,0.0521 z"
     id="path34" />
  <path
     style="fill:#db3f38;stroke:#db3f38;stroke-width:0"
     d="m 263.50706,205.41926 c 0.20876,-0.3269 1.55415,-2.46536 2.98975,-4.75213 l 2.61019,-4.15778 1.78308,-0.003 c 0.98069,-0.001 1.78307,0.0331 1.78307,0.0769 0,0.0438 -1.32454,2.18345 -2.94343,4.75486 l -2.94344,4.67529 h -1.82939 -1.82938 z"
     id="path35" />
  <path
     style="fill:#db3f38;stroke:#db3f38;stroke-width:0"
     d="m 276.26659,211.82642 c 1.47189,-2.34208 2.83473,-4.48464 3.02852,-4.76124 0.34204,-0.48819 0.4029,-0.50292 2.07727,-0.50292 0.94869,0 1.72146,0.0617 1.71727,0.13716 -0.004,0.0754 -1.30758,2.19455 -2.8964,4.70914 l -2.88876,4.57198 -1.85704,0.0521 -1.85703,0.0521 z"
     id="path36" />
  <path
     style="fill:#db3f38;stroke:#db3f38;stroke-width:0"
     d="m 264.49799,221.04413 -8.44947,-4.88071 -0.009,-5.0749 -0.009,-5.0749 h -2.69502 -2.69502 l 2.55541,-2.56031 c 1.40547,-1.40817 2.63402,-2.56031 2.7301,-2.56031 0.0961,0 0.7339,0.33221 1.41737,0.73826 l 1.24268,0.73826 0.0481,6.23469 0.0481,6.23468 7.25498,4.19315 7.25498,4.19314 7.18589,-4.15459 7.18589,-4.15459 1.1496,0.61422 c 0.63228,0.33782 1.14959,0.67146 1.14959,0.74142 0,0.1582 -16.20752,9.51701 -16.61811,9.5959 -0.16402,0.0315 -4.10049,-2.13901 -8.74771,-4.82341 z"
     id="path37" />
</svg>
