<?xml version="1.0" encoding="UTF-8" standalone="no"?>
<svg
   width="355.0"
   height="285.0"
   version="1.1"
   id="svg33"
   sodipodi:docname="SC Plate 355x285.svg"
   inkscape:version="1.4 (86a8ad7, 2024-10-11)"
   xmlns:inkscape="http://www.inkscape.org/namespaces/inkscape"
   xmlns:sodipodi="http://sodipodi.sourceforge.net/DTD/sodipodi-0.dtd"
   xmlns="http://www.w3.org/2000/svg"
   xmlns:svg="http://www.w3.org/2000/svg">
  <defs
     id="defs33" />
  <sodipodi:namedview
     id="namedview33"
     pagecolor="#ffffff"
     bordercolor="#000000"
     borderopacity="0.25"
     inkscape:showpageshadow="2"
     inkscape:pageopacity="0.0"
     inkscape:pagecheckerboard="0"
     inkscape:deskcolor="#d1d1d1"
     inkscape:zoom="4.5087719"
     inkscape:cx="177.43191"
     inkscape:cy="142.38911"
     inkscape:window-width="2560"
     inkscape:window-height="1566"
     inkscape:window-x="-11"
     inkscape:window-y="-11"
     inkscape:window-maximized="1"
     inkscape:current-layer="svg33" />
  <path
     style="fill:#db3f38;stroke:#db3f38;stroke-width:0"
     d="m 337.73054,259.54341 -1.27529,-0.70982 v -6.12269 c 0,-5.55447 -0.036,-6.15408 -0.38813,-6.46083 -0.68321,-0.59521 -13.94833,-8.15863 -14.30902,-8.15863 -0.19091,0 -3.51607,1.83167 -7.38925,4.07038 l -7.04214,4.07038 -1.1766,-0.67581 c -0.64714,-0.37169 -1.15445,-0.6966 -1.12737,-0.72201 0.0271,-0.0254 3.54244,-2.06185 7.81189,-4.52541 4.26946,-2.46357 8.02364,-4.63263 8.34263,-4.82014 0.56957,-0.33481 0.73371,-0.25225 9.14883,4.60151 l 8.56885,4.94244 v 5.0612 5.0612 l 2.55491,0.0625 2.55492,0.0625 -2.49947,2.48653 -2.49946,2.48653 z"
     id="path33" />
  <path
     style="fill:#db3f38;stroke:#db3f38;stroke-width:0"
     d="m 314.21507,263.99482 c 0.98847,-1.65059 11.63867,-18.48702 11.79722,-18.64971 0.0945,-0.097 0.93477,-0.14686 1.86727,-0.1109 l 1.69547,0.0654 -6.07753,9.64786 -6.07754,9.64786 -1.8211,0.0649 -1.8211,0.0649 z"
     id="path34" />
  <path
     style="fill:#db3f38;stroke:#db3f38;stroke-width:0"
     d="m 313.98452,251.0107 c 1.29536,-2.04324 2.64803,-4.18906 3.00592,-4.76848 l 0.65072,-1.0535 h 1.76238 1.76238 l -0.28432,0.52323 c -0.15638,0.28777 -1.48199,2.43172 -2.9458,4.76432 l -2.66148,4.24108 -1.8225,0.004 -1.8225,0.004 z"
     id="path35" />
  <path
     style="fill:#db3f38;stroke:#db3f38;stroke-width:0"
     d="m 322.29767,264.52796 c 0.0407,-0.098 1.3714,-2.24247 2.95719,-4.76539 l 2.88327,-4.58712 1.71887,-0.003 c 0.94538,-0.002 1.71888,0.06 1.71888,0.13714 0,0.0771 -1.31049,2.22294 -2.9122,4.76848 l -2.91221,4.62826 h -1.76386 c -0.97013,0 -1.73061,-0.0802 -1.68994,-0.17827 z"
     id="path36" />
  <path
     style="fill:#db3f38;stroke:#db3f38;stroke-width:0"
     d=""
     id="path37" />
  <path
     style="fill:#db3f38;stroke:#db3f38;stroke-width:0"
     d="m 313.16732,269.61438 -8.31713,-4.82532 -0.0596,-5.03169 -0.0596,-5.03169 h -2.82252 -2.82253 l 2.67716,-2.67716 2.67716,-2.67716 1.36593,0.80056 1.36594,0.80055 0.0589,6.24566 0.0589,6.24566 7.23871,4.17697 7.23871,4.17698 7.11104,-4.11023 c 3.91107,-2.26063 7.20329,-4.11023 7.31604,-4.11023 0.43727,0 2.2796,1.17482 2.10693,1.34355 -0.35024,0.34226 -16.36535,9.52405 -16.59022,9.51152 -0.12466,-0.007 -3.96936,-2.18403 -8.54377,-4.83797 z"
     id="path38" />
</svg>
