<?xml version="1.0" encoding="UTF-8" standalone="no"?>
<svg
   width="305.0"
   height="235.5"
   version="1.1"
   id="svg33"
   sodipodi:docname="SC Plate Test.svg"
   inkscape:version="1.4 (86a8ad7, 2024-10-11)"
   xmlns:inkscape="http://www.inkscape.org/namespaces/inkscape"
   xmlns:sodipodi="http://sodipodi.sourceforge.net/DTD/sodipodi-0.dtd"
   xmlns="http://www.w3.org/2000/svg"
   xmlns:svg="http://www.w3.org/2000/svg">
  <defs
     id="defs33" />
  <sodipodi:namedview
     id="namedview33"
     pagecolor="#ffffff"
     bordercolor="#000000"
     borderopacity="0.25"
     inkscape:showpageshadow="2"
     inkscape:pageopacity="0.0"
     inkscape:pagecheckerboard="0"
     inkscape:deskcolor="#d1d1d1"
     inkscape:zoom="21.825902"
     inkscape:cx="267.20545"
     inkscape:cy="204.11527"
     inkscape:window-width="2560"
     inkscape:window-height="1566"
     inkscape:window-x="-11"
     inkscape:window-y="-11"
     inkscape:window-maximized="1"
     inkscape:current-layer="svg33" />
  <path
     style="fill:#db3f38;stroke:#db3f38;stroke-width:0"
     d="m 289.09458,211.57324 -1.31725,-0.75989 -0.001,-6.16679 c -9.6e-4,-5.77256 -0.006,-6.17324 -0.0802,-6.26759 -0.1282,-0.16323 -14.4482,-8.4179 -14.48891,-8.35204 -0.027,0.0437 -0.0385,0.0435 -0.0533,-6.9e-4 -0.0117,-0.035 -2.72517,1.50654 -7.14157,4.05716 -3.91751,2.2625 -7.15409,4.13286 -7.19241,4.15637 -0.0519,0.0318 -0.39831,-0.14797 -1.35966,-0.70583 -0.7095,-0.41171 -1.28637,-0.75111 -1.28194,-0.75423 0.14142,-0.0996 16.97538,-9.79185 17.00734,-9.79207 0.0258,-1.9e-4 3.89679,2.22238 8.60216,4.93904 l 8.55522,4.93937 v 4.96476 c 0,4.38258 0.008,4.96476 0.0687,4.96476 0.0378,0 0.0687,0.0309 0.0687,0.0687 0,0.0603 0.33215,0.0687 2.71451,0.0687 h 2.71452 l -2.70292,2.70321 c -1.4866,1.48676 -2.7236,2.70178 -2.74888,2.70005 -0.0253,-0.002 -0.63872,-0.34511 -1.3632,-0.76305 z"
     id="path33" />
  <path
     style="fill:#db3f38;stroke:#db3f38;stroke-width:0"
     d="m 265.85502,215.37533 c 0.4399,-0.69956 3.229,-5.12744 6.19801,-9.83973 l 5.39819,-8.5678 1.91004,-0.012 c 1.05052,-0.007 1.91004,-0.003 1.91004,0.009 0,0.0113 -2.78163,4.43917 -6.18141,9.83973 l -6.18141,9.81919 -1.92664,0.012 -1.92664,0.012 z"
     id="path34" />
  <path
     style="fill:#db3f38;stroke:#db3f38;stroke-width:0"
     d="m 263.69035,205.47795 c 0.40874,-0.64964 1.78436,-2.835 3.05693,-4.85636 l 2.31376,-3.67519 1.91287,-7.5e-4 c 1.05207,-4.2e-4 1.91286,0.006 1.91286,0.0146 0,0.008 -1.36934,2.18877 -3.04299,4.84516 l -3.04298,4.82981 -1.92681,0.012 -1.9268,0.012 z"
     id="path35" />
  <path
     style="fill:#db3f38;stroke:#db3f38;stroke-width:0"
     d="m 273.48546,216.61189 c 0.002,-0.0189 1.36891,-2.19922 3.03828,-4.84516 l 3.03521,-4.8108 1.91396,-0.012 c 1.09417,-0.007 1.90734,0.005 1.89851,0.0285 -0.008,0.0223 -1.37621,2.20689 -3.03937,4.85473 l -3.02393,4.81425 -1.91286,0.002 c -1.05208,0.001 -1.91149,-0.0131 -1.9098,-0.032 z"
     id="path36" />
  <path
     style="fill:#db3f38;stroke:#db3f38;stroke-width:0"
     d="m 264.59387,221.65033 -8.54489,-4.93555 -0.0117,-4.98251 c -0.0103,-4.38658 -0.0199,-4.98251 -0.0802,-4.98251 -0.0377,0 -0.0685,-0.0206 -0.0685,-0.0458 0,-0.03 -0.94294,-0.0458 -2.73717,-0.0458 h -2.73718 l 0.98467,-0.98813 c 0.54157,-0.54347 1.77871,-1.76792 2.7492,-2.721 l 1.76452,-1.73287 1.32813,0.76663 1.32813,0.76663 0.0116,6.19245 c 0.008,4.07509 0.0272,6.19246 0.0573,6.19246 0.0251,0 0.0457,0.0269 0.0457,0.0599 0,0.0906 14.31648,8.34583 14.49013,8.35538 0.11178,0.006 1.64816,-0.8629 7.29004,-4.12354 3.93163,-2.27223 7.15578,-4.12809 7.16479,-4.12414 0.12982,0.057 2.53141,1.46398 2.53141,1.48305 0,0.0344 -16.92186,9.80411 -16.97829,9.80234 -0.0235,-7.4e-4 -3.88798,-2.22234 -8.58767,-4.9369 z"
     id="path37" />
</svg>
