<?xml version="1.0" encoding="UTF-8" standalone="no"?>
<svg
   width="255.0"
   height="255.0"
   version="1.1"
   id="svg33"
   sodipodi:docname="SC Plate 255x255.svg"
   inkscape:version="1.4 (86a8ad7, 2024-10-11)"
   xmlns:inkscape="http://www.inkscape.org/namespaces/inkscape"
   xmlns:sodipodi="http://sodipodi.sourceforge.net/DTD/sodipodi-0.dtd"
   xmlns="http://www.w3.org/2000/svg"
   xmlns:svg="http://www.w3.org/2000/svg">
  <defs
     id="defs33" />
  <sodipodi:namedview
     id="namedview33"
     pagecolor="#ffffff"
     bordercolor="#000000"
     borderopacity="0.25"
     inkscape:showpageshadow="2"
     inkscape:pageopacity="0.0"
     inkscape:pagecheckerboard="0"
     inkscape:deskcolor="#d1d1d1"
     inkscape:zoom="5.0392157"
     inkscape:cx="127.40078"
     inkscape:cy="127.40078"
     inkscape:window-width="2560"
     inkscape:window-height="1566"
     inkscape:window-x="-11"
     inkscape:window-y="-11"
     inkscape:window-maximized="1"
     inkscape:current-layer="svg33" />
  <path
     style="fill:#db3f38;stroke:#db3f38;stroke-width:0"
     d="m 240.51362,232.4054 -1.09144,-0.65113 -0.0524,-6.15921 c -0.0473,-5.56036 -0.0859,-6.18823 -0.39689,-6.45766 -0.35705,-0.30932 -13.16052,-7.72937 -13.98698,-8.10593 -0.41679,-0.1899 -1.2206,0.2227 -7.40281,3.79993 -3.81438,2.20713 -7.07353,4.04976 -7.24256,4.09472 -0.16902,0.045 -0.81641,-0.21065 -1.43863,-0.56803 -0.96016,-0.55149 -1.07879,-0.67903 -0.78412,-0.84301 0.19095,-0.10626 3.96266,-2.28176 8.38156,-4.83443 8.01372,-4.62931 8.0359,-4.64048 8.63229,-4.35022 0.32886,0.16005 4.16992,2.35524 8.53568,4.87818 l 7.93774,4.58718 0.0992,5.00872 0.0992,5.00872 2.6701,0.0556 2.67009,0.0557 -2.56801,2.57372 c -1.4124,1.41555 -2.6586,2.57025 -2.76931,2.566 -0.11072,-0.004 -0.69246,-0.30074 -1.29275,-0.65886 z"
     id="path33" />
  <path
     style="fill:#db3f38;stroke:#db3f38;stroke-width:0"
     d="m 217.07029,236.80057 c 0.2303,-0.35899 2.98724,-4.73676 6.12655,-9.72837 l 5.70783,-9.07566 1.82427,-0.003 1.82426,-0.003 -2.46848,3.91926 c -1.35766,2.1556 -4.09904,6.50895 -6.09196,9.67413 l -3.62347,5.75486 -1.85886,0.0574 -1.85885,0.0574 z"
     id="path34" />
  <path
     style="fill:#db3f38;stroke:#db3f38;stroke-width:0"
     d="m 217.5269,222.75292 2.99481,-4.76265 h 1.77708 c 0.9774,0 1.74732,0.0763 1.71094,0.16965 -0.0364,0.0933 -1.36099,2.23491 -2.94358,4.75914 l -2.87743,4.5895 -1.82832,0.004 -1.82832,0.004 z"
     id="path35" />
  <path
     style="fill:#db3f38;stroke:#db3f38;stroke-width:0"
     d="m 225.23346,237.30822 c 0,-0.0712 1.31575,-2.21443 2.92388,-4.76265 l 2.92388,-4.63312 h 1.75608 c 0.99638,0 1.72747,0.0797 1.68994,0.18435 -0.0364,0.10139 -1.36099,2.24443 -2.94358,4.76231 l -2.87743,4.57797 -1.73639,3.3e-4 c -0.95501,1.8e-4 -1.73638,-0.058 -1.73638,-0.12919 z"
     id="path36" />
  <path
     style="fill:#db3f38;stroke:#db3f38;stroke-width:0"
     d="m 216.00584,242.49102 -8.33463,-4.8424 -0.0992,-5.01692 -0.0992,-5.01691 -2.67009,-0.0557 -2.6701,-0.0557 2.56801,-2.57373 c 1.41241,-1.41554 2.63149,-2.57372 2.70908,-2.57372 0.0776,0 0.68164,0.31683 1.34235,0.70406 l 1.2013,0.70406 v 6.21418 6.21419 l 7.26137,4.1946 c 3.99376,2.30702 7.32404,4.19459 7.40062,4.19459 0.0766,0 3.36174,-1.86088 7.30035,-4.13528 l 7.16112,-4.13529 1.1803,0.71213 1.1803,0.71214 -8.21093,4.73416 c -4.51601,2.60379 -8.36282,4.76335 -8.54845,4.79901 -0.18564,0.0357 -4.08811,-2.11424 -8.67215,-4.77756 z"
     id="path37" />
</svg>
