<?xml version="1.0" encoding="UTF-8" standalone="no"?>
<svg
   width="370.0"
   height="377.0"
   version="1.1"
   id="svg33"
   sodipodi:docname="SC Plate 370x377.svg"
   inkscape:version="1.4 (86a8ad7, 2024-10-11)"
   xmlns:inkscape="http://www.inkscape.org/namespaces/inkscape"
   xmlns:sodipodi="http://sodipodi.sourceforge.net/DTD/sodipodi-0.dtd"
   xmlns="http://www.w3.org/2000/svg"
   xmlns:svg="http://www.w3.org/2000/svg">
  <defs
     id="defs33" />
  <sodipodi:namedview
     id="namedview33"
     pagecolor="#ffffff"
     bordercolor="#000000"
     borderopacity="0.25"
     inkscape:showpageshadow="2"
     inkscape:pageopacity="0.0"
     inkscape:pagecheckerboard="0"
     inkscape:deskcolor="#d1d1d1"
     inkscape:zoom="6.8169761"
     inkscape:cx="250.25759"
     inkscape:cy="333.2856"
     inkscape:window-width="2560"
     inkscape:window-height="1566"
     inkscape:window-x="-11"
     inkscape:window-y="-11"
     inkscape:window-maximized="1"
     inkscape:current-layer="svg33" />
  <path
     style="fill:#db3f38;stroke:#db3f38;stroke-width:0"
     d="m 352.2823,351.18102 -1.32024,-0.77254 -0.0733,-6.26181 -0.0734,-6.26182 -7.23471,-4.18245 -7.23471,-4.18246 -2.96043,1.70112 c -1.62823,0.93561 -4.87476,2.81192 -7.21451,4.16958 l -4.25408,2.46846 -0.66012,-0.37159 c -1.04011,-0.58548 -1.79258,-1.06564 -1.7375,-1.10872 0.52375,-0.40969 16.76079,-9.62814 16.90012,-9.59491 0.10895,0.026 3.96937,2.22487 8.57869,4.88642 l 8.3806,4.83917 0.0386,4.98923 0.0386,4.98924 2.75235,0.0733 2.75236,0.0734 -2.67901,2.65947 -2.67901,2.65947 z"
     id="path33" />
  <path
     style="fill:#db3f38;stroke:#db3f38;stroke-width:0"
     d="m 326.32943,346.08453 c 0.0563,-0.10085 1.41967,-2.27923 3.02968,-4.84085 l 2.92728,-4.65749 h 1.8285 c 1.42132,0 1.80498,0.0408 1.7229,0.18336 -0.0581,0.10085 -1.42158,2.27924 -3.02999,4.84086 l -2.92438,4.65749 h -1.82819 c -1.41936,0 -1.80529,-0.041 -1.7258,-0.18337 z"
     id="path34" />
  <path
     style="fill:#db3f38;stroke:#db3f38;stroke-width:0"
     d="m 328.55692,355.83142 c 0.14001,-0.22637 2.92476,-4.64915 6.18834,-9.82841 l 5.93378,-9.41682 h 1.81648 c 0.99906,0 1.79447,0.0579 1.76758,0.12877 -0.0269,0.0708 -2.78838,4.49039 -6.13664,9.82127 l -6.08774,9.6925 -1.86818,0.007 -1.86817,0.007 z"
     id="path35" />
  <path
     style="fill:#db3f38;stroke:#db3f38;stroke-width:0"
     d="m 336.81224,356.13298 c 0.003,-0.0605 1.34122,-2.2224 2.97314,-4.80419 l 2.96713,-4.69416 1.87073,-0.0411 1.87072,-0.0411 -0.40642,0.64537 c -0.22352,0.35495 -1.5946,2.53532 -3.04683,4.84526 l -2.64042,4.1999 h -1.79703 c -0.98837,0 -1.79433,-0.0495 -1.79102,-0.11002 z"
     id="path36" />
  <path
     style="fill:#db3f38;stroke:#db3f38;stroke-width:0"
     d="m 327.75292,361.2489 -8.53988,-4.93256 -0.0416,-4.98755 -0.0416,-4.98754 -2.70886,-0.0401 -2.70886,-0.0401 2.63399,-2.63704 c 1.44869,-1.45037 2.68215,-2.63703 2.74102,-2.63703 0.0589,0 0.67018,0.33261 1.35844,0.73913 l 1.25139,0.73914 v 6.21179 6.21178 l 7.2869,4.20959 c 6.11052,3.53 7.33633,4.18707 7.59306,4.07009 0.16839,-0.0767 3.40206,-1.93039 7.18594,-4.11926 3.78388,-2.18888 6.93668,-3.97977 7.00623,-3.97977 0.0695,0 0.65737,0.30849 1.30629,0.68554 1.00416,0.58345 1.14018,0.70712 0.91346,0.8305 -0.14652,0.0797 -3.699,2.12324 -7.89441,4.54113 -4.19541,2.41789 -7.89206,4.54436 -8.21479,4.7255 l -0.58677,0.32933 z"
     id="path37" />
</svg>
