<?xml version="1.0" encoding="UTF-8" standalone="no"?>
<svg
   width="355.0"
   height="355.0"
   version="1.1"
   id="svg33"
   sodipodi:docname="SC Plate 355x355.svg"
   inkscape:version="1.4 (86a8ad7, 2024-10-11)"
   xmlns:inkscape="http://www.inkscape.org/namespaces/inkscape"
   xmlns:sodipodi="http://sodipodi.sourceforge.net/DTD/sodipodi-0.dtd"
   xmlns="http://www.w3.org/2000/svg"
   xmlns:svg="http://www.w3.org/2000/svg">
  <defs
     id="defs33" />
  <sodipodi:namedview
     id="namedview33"
     pagecolor="#ffffff"
     bordercolor="#000000"
     borderopacity="0.25"
     inkscape:showpageshadow="2"
     inkscape:pageopacity="0.0"
     inkscape:pagecheckerboard="0"
     inkscape:deskcolor="#d1d1d1"
     inkscape:zoom="3.6197183"
     inkscape:cx="177.36187"
     inkscape:cy="177.36187"
     inkscape:window-width="2560"
     inkscape:window-height="1566"
     inkscape:window-x="-11"
     inkscape:window-y="-11"
     inkscape:window-maximized="1"
     inkscape:current-layer="svg33" />
  <path
     style="fill:#db3f38;stroke:#db3f38;stroke-width:0"
     d="m 337.6644,329.53532 -1.17413,-0.68372 -0.005,-6.26432 -0.005,-6.26432 -7.20061,-4.14397 c -3.96033,-2.27918 -7.28433,-4.17525 -7.38666,-4.21348 -0.10233,-0.0382 -3.40718,1.78754 -7.34411,4.05726 l -7.15806,4.12678 -1.05948,-0.54051 c -0.58271,-0.29728 -1.05706,-0.63122 -1.05411,-0.74209 0.008,-0.28402 16.32489,-9.61192 16.64518,-9.51531 0.14453,0.0436 3.97674,2.21918 8.51604,4.83463 l 8.25326,4.75536 0.004,5.04183 0.004,5.04183 h 2.82625 2.82626 l -2.6136,2.62452 c -1.43748,1.44348 -2.67822,2.61207 -2.75719,2.59688 -0.079,-0.0152 -0.67194,-0.33532 -1.31771,-0.71137 z"
     id="path39" />
  <path
     style="fill:#db3f38;stroke:#db3f38;stroke-width:0"
     d="m 314.35918,333.79669 c 0.31727,-0.49382 3.09558,-4.90537 6.17402,-9.80344 l 5.59715,-8.90559 1.75843,-0.004 c 1.75623,-0.004 1.75793,-0.003 1.36515,0.61765 -0.21629,0.34188 -2.98914,4.75521 -6.16188,9.80739 l -5.76862,9.1858 h -1.77056 -1.77055 z"
     id="path40" />
  <path
     style="fill:#db3f38;stroke:#db3f38;stroke-width:0"
     d="m 312.24309,323.85117 c 0.22215,-0.34188 1.55125,-2.4553 2.95355,-4.6965 l 2.54965,-4.0749 h 1.76583 1.76583 l -2.95535,4.69649 -2.95534,4.6965 h -1.76404 -1.76404 z"
     id="path41" />
  <path
     style="fill:#db3f38;stroke:#db3f38;stroke-width:0"
     d="m 322.40078,334.54209 c 0,-0.0984 1.32766,-2.27988 2.95037,-4.84782 l 2.95037,-4.66898 h 1.74802 1.74802 l -1.42446,2.27918 c -0.78345,1.25356 -2.13461,3.39806 -3.00259,4.76557 l -1.57813,2.48638 -1.6958,0.0822 c -0.93269,0.0452 -1.6958,0.002 -1.6958,-0.0966 z"
     id="path42" />
  <path
     style="fill:#db3f38;stroke:#db3f38;stroke-width:0"
     d="m 313.14591,339.55423 -8.28793,-4.79684 -0.13814,-5.07325 -0.13813,-5.07325 -2.56312,-0.13813 -2.56313,-0.13813 2.46652,-2.45321 2.46652,-2.4532 1.20166,0.66253 1.20167,0.66253 0.13813,6.30975 0.13813,6.30975 6.21596,3.5817 c 3.41877,1.96994 6.72486,3.87733 7.34685,4.23865 l 1.1309,0.65693 7.15704,-4.12853 c 3.93637,-2.27068 7.2192,-4.12868 7.29517,-4.12886 0.076,-1.9e-4 0.6162,0.28905 1.2005,0.64275 l 1.06237,0.6431 -8.21096,4.74265 c -4.51604,2.60845 -8.35072,4.73978 -8.52152,4.73628 -0.1708,-0.004 -4.04012,-2.16495 -8.59849,-4.80322 z"
     id="path43" />
</svg>
