<?xml version="1.0" encoding="UTF-8" standalone="no"?>
<svg
   width="180.0"
   height="180.0"
   version="1.1"
   id="svg33"
   sodipodi:docname="SC Plate.svg"
   inkscape:version="1.4 (86a8ad7, 2024-10-11)"
   xmlns:inkscape="http://www.inkscape.org/namespaces/inkscape"
   xmlns:sodipodi="http://sodipodi.sourceforge.net/DTD/sodipodi-0.dtd"
   xmlns="http://www.w3.org/2000/svg"
   xmlns:svg="http://www.w3.org/2000/svg">
  <defs
     id="defs33" />
  <sodipodi:namedview
     id="namedview33"
     pagecolor="#ffffff"
     bordercolor="#000000"
     borderopacity="0.25"
     inkscape:showpageshadow="2"
     inkscape:pageopacity="0.0"
     inkscape:pagecheckerboard="0"
     inkscape:deskcolor="#d1d1d1"
     inkscape:zoom="5.0479568"
     inkscape:cx="103.80438"
     inkscape:cy="107.96447"
     inkscape:window-width="2560"
     inkscape:window-height="1566"
     inkscape:window-x="-11"
     inkscape:window-y="-11"
     inkscape:window-maximized="1"
     inkscape:current-layer="svg33" />
  <rect
     style="fill:#35353b;stroke:#db3f38;stroke-width:0"
     id="rect1"
     width="197.70375"
     height="189.97786"
     x="-6.9334984"
     y="-4.7543988" />
  <path
     style="fill:#db3f38;stroke:#db3f38;stroke-width:0"
     d="m 167.63955,159.57787 -1.22425,-0.7156 -0.0365,-6.24047 -0.0364,-6.24048 -7.07393,-4.09858 c -3.89066,-2.25422 -7.20352,-4.13328 -7.36191,-4.17568 -0.2065,-0.0553 -2.28735,1.07987 -7.35409,4.0118 -3.88635,2.24888 -7.12962,4.09117 -7.20725,4.09396 -0.16243,0.006 -2.48584,-1.31397 -2.4223,-1.37599 0.0231,-0.0226 3.82034,-2.2229 8.43826,-4.8896 l 8.3962,-4.84856 2.25455,1.29892 c 1.24001,0.7144 5.10224,2.93782 8.58274,4.94093 l 6.32818,3.64202 0.0405,4.97277 0.0405,4.97276 2.72701,0.0382 2.72701,0.0382 -2.65559,2.65835 c -1.46057,1.46209 -2.71924,2.65259 -2.79705,2.64554 -0.0778,-0.007 -0.69237,-0.33482 -1.36572,-0.72839 z"
     id="path33" />
  <path
     style="fill:#db3f38;stroke:#db3f38;stroke-width:0"
     d=""
     id="path34" />
  <path
     style="fill:#db3f38;stroke:#db3f38;stroke-width:0"
     d="m 141.79108,154.40078 c 0.11254,-0.17335 1.4835,-2.34806 3.04658,-4.83269 l 2.84197,-4.51751 h 1.80221 c 0.99121,0 1.80221,0.0394 1.80221,0.0875 0,0.0481 -1.3395,2.22043 -2.97666,4.82739 l -2.97665,4.73993 -1.87214,0.005 -1.87214,0.005 z"
     id="path35" />
  <path
     style="fill:#db3f38;stroke:#db3f38;stroke-width:0"
     d="m 145.91267,161.19455 c 1.2019,-1.90681 3.98106,-6.31926 6.17591,-9.80544 l 3.99063,-6.33853 h 1.81643 c 1.06665,0 1.79715,0.0541 1.76973,0.13097 -0.0257,0.072 -2.78705,4.48449 -6.13638,9.80545 l -6.0897,9.67448 h -1.85595 -1.85596 z"
     id="path36" />
  <path
     style="fill:#db3f38;stroke:#db3f38;stroke-width:0"
     d="m 152.50947,164.04964 c 0.21201,-0.33651 1.58314,-2.51122 3.04695,-4.83268 l 2.66148,-4.22084 h 1.84969 l 1.84969,-1e-5 -2.53483,4.02724 c -1.39415,2.21498 -2.76213,4.38969 -3.03995,4.83268 l -0.50513,0.80545 h -1.85668 -1.85669 z"
     id="path37" />
  <path
     style="fill:#db3f38;stroke:#db3f38;stroke-width:0"
     d="m 143.12812,169.65549 -8.50613,-4.92397 -0.0386,-4.97277 -0.0386,-4.97276 -2.69824,-0.07 -2.69823,-0.07 2.65015,-2.64704 2.65015,-2.64705 1.34377,0.756 1.34376,0.75599 0.002,6.23347 0.002,6.23346 7.15998,4.1323 c 3.93799,2.27276 7.2622,4.15021 7.38713,4.1721 0.12492,0.0219 3.39834,-1.79159 7.27426,-4.02997 3.87592,-2.23839 7.09619,-4.08432 7.15616,-4.10207 0.06,-0.0178 0.65881,0.27502 1.33076,0.65062 l 1.22172,0.6829 -0.39345,0.23822 c -1.44522,0.87506 -16.26341,9.38748 -16.43235,9.43969 -0.11557,0.0357 -4.03787,-2.15085 -8.71624,-4.85904 z"
     id="path38" />
</svg>
