%TF.GenerationSoftware,KiCad,Pcbnew,8.0.4*%
%TF.CreationDate,2024-10-17T13:06:50+11:00*%
%TF.ProjectId,panel,70616e65-6c2e-46b6-9963-61645f706362,rev?*%
%TF.SameCoordinates,Original*%
%TF.FileFunction,Soldermask,Top*%
%TF.FilePolarity,Negative*%
%FSLAX46Y46*%
G04 Gerber Fmt 4.6, Leading zero omitted, Abs format (unit mm)*
G04 Created by KiCad (PCBNEW 8.0.4) date 2024-10-17 13:06:50*
%MOMM*%
%LPD*%
G01*
G04 APERTURE LIST*
G04 Aperture macros list*
%AMRoundRect*
0 Rectangle with rounded corners*
0 $1 Rounding radius*
0 $2 $3 $4 $5 $6 $7 $8 $9 X,Y pos of 4 corners*
0 Add a 4 corners polygon primitive as box body*
4,1,4,$2,$3,$4,$5,$6,$7,$8,$9,$2,$3,0*
0 Add four circle primitives for the rounded corners*
1,1,$1+$1,$2,$3*
1,1,$1+$1,$4,$5*
1,1,$1+$1,$6,$7*
1,1,$1+$1,$8,$9*
0 Add four rect primitives between the rounded corners*
20,1,$1+$1,$2,$3,$4,$5,0*
20,1,$1+$1,$4,$5,$6,$7,0*
20,1,$1+$1,$6,$7,$8,$9,0*
20,1,$1+$1,$8,$9,$2,$3,0*%
G04 Aperture macros list end*
%ADD10R,0.500000X0.500000*%
%ADD11RoundRect,0.140000X-0.140000X-0.170000X0.140000X-0.170000X0.140000X0.170000X-0.140000X0.170000X0*%
%ADD12C,2.000000*%
%ADD13C,1.152000*%
%ADD14RoundRect,0.140000X0.170000X-0.140000X0.170000X0.140000X-0.170000X0.140000X-0.170000X-0.140000X0*%
%ADD15RoundRect,0.135000X0.135000X0.185000X-0.135000X0.185000X-0.135000X-0.185000X0.135000X-0.185000X0*%
G04 APERTURE END LIST*
D10*
%TO.C,D11*%
X58325000Y-42834347D03*
X58325000Y-41934347D03*
X57425000Y-41934347D03*
X57425000Y-42834347D03*
%TD*%
%TO.C,D2*%
X14631250Y-29431105D03*
X14631250Y-30331105D03*
X15531250Y-30331105D03*
X15531250Y-29431105D03*
%TD*%
%TO.C,D14*%
X32443750Y-16130422D03*
X32443750Y-15230422D03*
X31543750Y-15230422D03*
X31543750Y-16130422D03*
%TD*%
D11*
%TO.C,C2*%
X22596000Y-58602000D03*
X23556000Y-58602000D03*
%TD*%
D12*
%TO.C,KiKit_FID_T_3*%
X9500000Y-70000000D03*
%TD*%
D10*
%TO.C,D10*%
X18250000Y-25138566D03*
X18250000Y-24238566D03*
X17350000Y-24238566D03*
X17350000Y-25138566D03*
%TD*%
%TO.C,D3*%
X17350000Y-27861434D03*
X17350000Y-28761434D03*
X18250000Y-28761434D03*
X18250000Y-27861434D03*
%TD*%
%TO.C,D8*%
X23687500Y-21999224D03*
X23687500Y-21099224D03*
X22787500Y-21099224D03*
X22787500Y-21999224D03*
%TD*%
%TO.C,D17*%
X62076664Y-17118005D03*
X62976664Y-17118005D03*
X62976664Y-16218005D03*
X62076664Y-16218005D03*
%TD*%
D11*
%TO.C,C1*%
X8880000Y-13194000D03*
X9840000Y-13194000D03*
%TD*%
D10*
%TO.C,D3*%
X38950000Y-47361434D03*
X38950000Y-48261434D03*
X39850000Y-48261434D03*
X39850000Y-47361434D03*
%TD*%
%TO.C,D12*%
X55481250Y-41192507D03*
X55481250Y-40292507D03*
X54581250Y-40292507D03*
X54581250Y-41192507D03*
%TD*%
%TO.C,D13*%
X32975000Y-57830274D03*
X32975000Y-56930274D03*
X32075000Y-56930274D03*
X32075000Y-57830274D03*
%TD*%
%TO.C,D9*%
X42568750Y-62568895D03*
X42568750Y-61668895D03*
X41668750Y-61668895D03*
X41668750Y-62568895D03*
%TD*%
%TO.C,D4*%
X63675000Y-49165653D03*
X63675000Y-50065653D03*
X64575000Y-50065653D03*
X64575000Y-49165653D03*
%TD*%
%TO.C,D16*%
X37275357Y-36618005D03*
X38175357Y-36618005D03*
X38175357Y-35718005D03*
X37275357Y-35718005D03*
%TD*%
D13*
%TO.C,KiKit_TO_2*%
X76300000Y-2500000D03*
%TD*%
%TO.C,KiKit_TO_3*%
X2500000Y-70000000D03*
%TD*%
D10*
%TO.C,D2*%
X57831250Y-29431105D03*
X57831250Y-30331105D03*
X58731250Y-30331105D03*
X58731250Y-29431105D03*
%TD*%
%TO.C,D16*%
X37275357Y-56118005D03*
X38175357Y-56118005D03*
X38175357Y-55218005D03*
X37275357Y-55218005D03*
%TD*%
D11*
%TO.C,C1*%
X30480000Y-52194000D03*
X31440000Y-52194000D03*
%TD*%
D10*
%TO.C,D1*%
X11912500Y-11500776D03*
X11912500Y-12400776D03*
X12812500Y-12400776D03*
X12812500Y-11500776D03*
%TD*%
%TO.C,D6*%
X45825000Y-53669726D03*
X45825000Y-54569726D03*
X46725000Y-54569726D03*
X46725000Y-53669726D03*
%TD*%
%TO.C,D16*%
X15675357Y-36618005D03*
X16575357Y-36618005D03*
X16575357Y-35718005D03*
X15675357Y-35718005D03*
%TD*%
%TO.C,D17*%
X18876664Y-36618005D03*
X19776664Y-36618005D03*
X19776664Y-35718005D03*
X18876664Y-35718005D03*
%TD*%
%TO.C,D15*%
X35527837Y-18872522D03*
X35527837Y-19772522D03*
X36427837Y-19772522D03*
X36427837Y-18872522D03*
%TD*%
%TO.C,D10*%
X61450000Y-25138566D03*
X61450000Y-24238566D03*
X60550000Y-24238566D03*
X60550000Y-25138566D03*
%TD*%
%TO.C,D5*%
X66518750Y-50807493D03*
X66518750Y-51707493D03*
X67418750Y-51707493D03*
X67418750Y-50807493D03*
%TD*%
%TO.C,D19*%
X63711190Y-33151132D03*
X63711190Y-34051132D03*
X64611190Y-34051132D03*
X64611190Y-33151132D03*
%TD*%
%TO.C,D4*%
X42075000Y-49165653D03*
X42075000Y-50065653D03*
X42975000Y-50065653D03*
X42975000Y-49165653D03*
%TD*%
%TO.C,D19*%
X63711190Y-52651132D03*
X63711190Y-53551132D03*
X64611190Y-53551132D03*
X64611190Y-52651132D03*
%TD*%
%TO.C,D18*%
X38965165Y-34051132D03*
X39865165Y-34051132D03*
X39865165Y-33151132D03*
X38965165Y-33151132D03*
%TD*%
%TO.C,D4*%
X20475000Y-10165653D03*
X20475000Y-11065653D03*
X21375000Y-11065653D03*
X21375000Y-10165653D03*
%TD*%
%TO.C,D17*%
X18876664Y-17118005D03*
X19776664Y-17118005D03*
X19776664Y-16218005D03*
X18876664Y-16218005D03*
%TD*%
%TO.C,D17*%
X62076664Y-36618005D03*
X62976664Y-36618005D03*
X62976664Y-35718005D03*
X62076664Y-35718005D03*
%TD*%
%TO.C,D16*%
X37275357Y-17118005D03*
X38175357Y-17118005D03*
X38175357Y-16218005D03*
X37275357Y-16218005D03*
%TD*%
%TO.C,D5*%
X23318750Y-11807493D03*
X23318750Y-12707493D03*
X24218750Y-12707493D03*
X24218750Y-11807493D03*
%TD*%
%TO.C,D1*%
X33512500Y-31000776D03*
X33512500Y-31900776D03*
X34412500Y-31900776D03*
X34412500Y-31000776D03*
%TD*%
%TO.C,D5*%
X44918750Y-50807493D03*
X44918750Y-51707493D03*
X45818750Y-51707493D03*
X45818750Y-50807493D03*
%TD*%
D14*
%TO.C,C3*%
X59672000Y-60098000D03*
X59672000Y-59138000D03*
%TD*%
D10*
%TO.C,D14*%
X10843750Y-55130422D03*
X10843750Y-54230422D03*
X9943750Y-54230422D03*
X9943750Y-55130422D03*
%TD*%
%TO.C,D9*%
X20968750Y-43068895D03*
X20968750Y-42168895D03*
X20068750Y-42168895D03*
X20068750Y-43068895D03*
%TD*%
%TO.C,D14*%
X10843750Y-35630422D03*
X10843750Y-34730422D03*
X9943750Y-34730422D03*
X9943750Y-35630422D03*
%TD*%
D11*
%TO.C,C1*%
X52080000Y-13194000D03*
X53040000Y-13194000D03*
%TD*%
D10*
%TO.C,D18*%
X60565165Y-53551132D03*
X61465165Y-53551132D03*
X61465165Y-52651132D03*
X60565165Y-52651132D03*
%TD*%
%TO.C,D2*%
X36231250Y-48931105D03*
X36231250Y-49831105D03*
X37131250Y-49831105D03*
X37131250Y-48931105D03*
%TD*%
D15*
%TO.C,R1*%
X53070000Y-12178000D03*
X52050000Y-12178000D03*
%TD*%
D10*
%TO.C,D18*%
X60565165Y-14551132D03*
X61465165Y-14551132D03*
X61465165Y-13651132D03*
X60565165Y-13651132D03*
%TD*%
%TO.C,D11*%
X58325000Y-62334347D03*
X58325000Y-61434347D03*
X57425000Y-61434347D03*
X57425000Y-62334347D03*
%TD*%
%TO.C,D15*%
X13927837Y-18872522D03*
X13927837Y-19772522D03*
X14827837Y-19772522D03*
X14827837Y-18872522D03*
%TD*%
%TO.C,D16*%
X58875357Y-36618005D03*
X59775357Y-36618005D03*
X59775357Y-35718005D03*
X58875357Y-35718005D03*
%TD*%
D15*
%TO.C,R1*%
X9870000Y-51178000D03*
X8850000Y-51178000D03*
%TD*%
D10*
%TO.C,D5*%
X66518750Y-11807493D03*
X66518750Y-12707493D03*
X67418750Y-12707493D03*
X67418750Y-11807493D03*
%TD*%
%TO.C,D15*%
X35527837Y-57872522D03*
X35527837Y-58772522D03*
X36427837Y-58772522D03*
X36427837Y-57872522D03*
%TD*%
%TO.C,D13*%
X32975000Y-38330274D03*
X32975000Y-37430274D03*
X32075000Y-37430274D03*
X32075000Y-38330274D03*
%TD*%
%TO.C,D16*%
X58875357Y-17118005D03*
X59775357Y-17118005D03*
X59775357Y-16218005D03*
X58875357Y-16218005D03*
%TD*%
D15*
%TO.C,R1*%
X9870000Y-12178000D03*
X8850000Y-12178000D03*
%TD*%
D10*
%TO.C,D19*%
X63711190Y-13651132D03*
X63711190Y-14551132D03*
X64611190Y-14551132D03*
X64611190Y-13651132D03*
%TD*%
%TO.C,D8*%
X45287500Y-21999224D03*
X45287500Y-21099224D03*
X44387500Y-21099224D03*
X44387500Y-21999224D03*
%TD*%
D14*
%TO.C,C3*%
X16472000Y-21098000D03*
X16472000Y-20138000D03*
%TD*%
D15*
%TO.C,R1*%
X31470000Y-51178000D03*
X30450000Y-51178000D03*
%TD*%
D11*
%TO.C,C2*%
X44196000Y-39102000D03*
X45156000Y-39102000D03*
%TD*%
D10*
%TO.C,D17*%
X62076664Y-56118005D03*
X62976664Y-56118005D03*
X62976664Y-55218005D03*
X62076664Y-55218005D03*
%TD*%
%TO.C,D18*%
X17365165Y-34051132D03*
X18265165Y-34051132D03*
X18265165Y-33151132D03*
X17365165Y-33151132D03*
%TD*%
%TO.C,D11*%
X15125000Y-23334347D03*
X15125000Y-22434347D03*
X14225000Y-22434347D03*
X14225000Y-23334347D03*
%TD*%
%TO.C,D2*%
X36231250Y-29431105D03*
X36231250Y-30331105D03*
X37131250Y-30331105D03*
X37131250Y-29431105D03*
%TD*%
%TO.C,D12*%
X55481250Y-21692507D03*
X55481250Y-20792507D03*
X54581250Y-20792507D03*
X54581250Y-21692507D03*
%TD*%
%TO.C,D6*%
X24225000Y-34169726D03*
X24225000Y-35069726D03*
X25125000Y-35069726D03*
X25125000Y-34169726D03*
%TD*%
%TO.C,D9*%
X64168750Y-43068895D03*
X64168750Y-42168895D03*
X63268750Y-42168895D03*
X63268750Y-43068895D03*
%TD*%
%TO.C,D10*%
X18250000Y-44638566D03*
X18250000Y-43738566D03*
X17350000Y-43738566D03*
X17350000Y-44638566D03*
%TD*%
%TO.C,D13*%
X11375000Y-57830274D03*
X11375000Y-56930274D03*
X10475000Y-56930274D03*
X10475000Y-57830274D03*
%TD*%
%TO.C,D15*%
X57127837Y-38372522D03*
X57127837Y-39272522D03*
X58027837Y-39272522D03*
X58027837Y-38372522D03*
%TD*%
%TO.C,D3*%
X60550000Y-47361434D03*
X60550000Y-48261434D03*
X61450000Y-48261434D03*
X61450000Y-47361434D03*
%TD*%
%TO.C,D6*%
X45825000Y-34169726D03*
X45825000Y-35069726D03*
X46725000Y-35069726D03*
X46725000Y-34169726D03*
%TD*%
%TO.C,D10*%
X61450000Y-64138566D03*
X61450000Y-63238566D03*
X60550000Y-63238566D03*
X60550000Y-64138566D03*
%TD*%
%TO.C,D4*%
X63675000Y-10165653D03*
X63675000Y-11065653D03*
X64575000Y-11065653D03*
X64575000Y-10165653D03*
%TD*%
D15*
%TO.C,R1*%
X53070000Y-31678000D03*
X52050000Y-31678000D03*
%TD*%
D10*
%TO.C,D6*%
X67425000Y-34169726D03*
X67425000Y-35069726D03*
X68325000Y-35069726D03*
X68325000Y-34169726D03*
%TD*%
%TO.C,D13*%
X54575000Y-18830274D03*
X54575000Y-17930274D03*
X53675000Y-17930274D03*
X53675000Y-18830274D03*
%TD*%
%TO.C,D17*%
X40476664Y-36618005D03*
X41376664Y-36618005D03*
X41376664Y-35718005D03*
X40476664Y-35718005D03*
%TD*%
D11*
%TO.C,C1*%
X30480000Y-13194000D03*
X31440000Y-13194000D03*
%TD*%
D10*
%TO.C,D11*%
X36725000Y-62334347D03*
X36725000Y-61434347D03*
X35825000Y-61434347D03*
X35825000Y-62334347D03*
%TD*%
%TO.C,D4*%
X20475000Y-29665653D03*
X20475000Y-30565653D03*
X21375000Y-30565653D03*
X21375000Y-29665653D03*
%TD*%
%TO.C,D10*%
X61450000Y-44638566D03*
X61450000Y-43738566D03*
X60550000Y-43738566D03*
X60550000Y-44638566D03*
%TD*%
%TO.C,D13*%
X54575000Y-57830274D03*
X54575000Y-56930274D03*
X53675000Y-56930274D03*
X53675000Y-57830274D03*
%TD*%
%TO.C,D5*%
X23318750Y-50807493D03*
X23318750Y-51707493D03*
X24218750Y-51707493D03*
X24218750Y-50807493D03*
%TD*%
D13*
%TO.C,KiKit_TO_4*%
X76300000Y-70000000D03*
%TD*%
D10*
%TO.C,D8*%
X66887500Y-21999224D03*
X66887500Y-21099224D03*
X65987500Y-21099224D03*
X65987500Y-21999224D03*
%TD*%
D14*
%TO.C,C3*%
X38072000Y-40598000D03*
X38072000Y-39638000D03*
%TD*%
D10*
%TO.C,D15*%
X35527837Y-38372522D03*
X35527837Y-39272522D03*
X36427837Y-39272522D03*
X36427837Y-38372522D03*
%TD*%
%TO.C,D6*%
X24225000Y-53669726D03*
X24225000Y-54569726D03*
X25125000Y-54569726D03*
X25125000Y-53669726D03*
%TD*%
%TO.C,D12*%
X33881250Y-41192507D03*
X33881250Y-40292507D03*
X32981250Y-40292507D03*
X32981250Y-41192507D03*
%TD*%
%TO.C,D6*%
X45825000Y-14669726D03*
X45825000Y-15569726D03*
X46725000Y-15569726D03*
X46725000Y-14669726D03*
%TD*%
D12*
%TO.C,KiKit_FID_T_1*%
X9500000Y-2500000D03*
%TD*%
D10*
%TO.C,D7*%
X67956250Y-17369578D03*
X67956250Y-18269578D03*
X68856250Y-18269578D03*
X68856250Y-17369578D03*
%TD*%
%TO.C,D13*%
X11375000Y-18830274D03*
X11375000Y-17930274D03*
X10475000Y-17930274D03*
X10475000Y-18830274D03*
%TD*%
D14*
%TO.C,C3*%
X16472000Y-60098000D03*
X16472000Y-59138000D03*
%TD*%
D10*
%TO.C,D13*%
X54575000Y-38330274D03*
X54575000Y-37430274D03*
X53675000Y-37430274D03*
X53675000Y-38330274D03*
%TD*%
%TO.C,D11*%
X36725000Y-42834347D03*
X36725000Y-41934347D03*
X35825000Y-41934347D03*
X35825000Y-42834347D03*
%TD*%
%TO.C,D7*%
X67956250Y-36869578D03*
X67956250Y-37769578D03*
X68856250Y-37769578D03*
X68856250Y-36869578D03*
%TD*%
%TO.C,D10*%
X39850000Y-64138566D03*
X39850000Y-63238566D03*
X38950000Y-63238566D03*
X38950000Y-64138566D03*
%TD*%
%TO.C,D8*%
X45287500Y-60999224D03*
X45287500Y-60099224D03*
X44387500Y-60099224D03*
X44387500Y-60999224D03*
%TD*%
D14*
%TO.C,C3*%
X38072000Y-21098000D03*
X38072000Y-20138000D03*
%TD*%
D11*
%TO.C,C1*%
X30480000Y-32694000D03*
X31440000Y-32694000D03*
%TD*%
D10*
%TO.C,D19*%
X20511190Y-52651132D03*
X20511190Y-53551132D03*
X21411190Y-53551132D03*
X21411190Y-52651132D03*
%TD*%
%TO.C,D5*%
X44918750Y-31307493D03*
X44918750Y-32207493D03*
X45818750Y-32207493D03*
X45818750Y-31307493D03*
%TD*%
%TO.C,D14*%
X32443750Y-55130422D03*
X32443750Y-54230422D03*
X31543750Y-54230422D03*
X31543750Y-55130422D03*
%TD*%
%TO.C,D4*%
X42075000Y-29665653D03*
X42075000Y-30565653D03*
X42975000Y-30565653D03*
X42975000Y-29665653D03*
%TD*%
%TO.C,D11*%
X58325000Y-23334347D03*
X58325000Y-22434347D03*
X57425000Y-22434347D03*
X57425000Y-23334347D03*
%TD*%
D15*
%TO.C,R1*%
X53070000Y-51178000D03*
X52050000Y-51178000D03*
%TD*%
D10*
%TO.C,D3*%
X60550000Y-8361434D03*
X60550000Y-9261434D03*
X61450000Y-9261434D03*
X61450000Y-8361434D03*
%TD*%
%TO.C,D4*%
X20475000Y-49165653D03*
X20475000Y-50065653D03*
X21375000Y-50065653D03*
X21375000Y-49165653D03*
%TD*%
%TO.C,D16*%
X15675357Y-17118005D03*
X16575357Y-17118005D03*
X16575357Y-16218005D03*
X15675357Y-16218005D03*
%TD*%
%TO.C,D8*%
X66887500Y-60999224D03*
X66887500Y-60099224D03*
X65987500Y-60099224D03*
X65987500Y-60999224D03*
%TD*%
%TO.C,D5*%
X66518750Y-31307493D03*
X66518750Y-32207493D03*
X67418750Y-32207493D03*
X67418750Y-31307493D03*
%TD*%
D11*
%TO.C,C1*%
X8880000Y-32694000D03*
X9840000Y-32694000D03*
%TD*%
D10*
%TO.C,D14*%
X54043750Y-35630422D03*
X54043750Y-34730422D03*
X53143750Y-34730422D03*
X53143750Y-35630422D03*
%TD*%
D11*
%TO.C,C1*%
X52080000Y-52194000D03*
X53040000Y-52194000D03*
%TD*%
D10*
%TO.C,D3*%
X17350000Y-8361434D03*
X17350000Y-9261434D03*
X18250000Y-9261434D03*
X18250000Y-8361434D03*
%TD*%
D14*
%TO.C,C3*%
X59672000Y-40598000D03*
X59672000Y-39638000D03*
%TD*%
D10*
%TO.C,D3*%
X17350000Y-47361434D03*
X17350000Y-48261434D03*
X18250000Y-48261434D03*
X18250000Y-47361434D03*
%TD*%
D11*
%TO.C,C1*%
X52080000Y-32694000D03*
X53040000Y-32694000D03*
%TD*%
D10*
%TO.C,D1*%
X33512500Y-11500776D03*
X33512500Y-12400776D03*
X34412500Y-12400776D03*
X34412500Y-11500776D03*
%TD*%
%TO.C,D19*%
X42111190Y-13651132D03*
X42111190Y-14551132D03*
X43011190Y-14551132D03*
X43011190Y-13651132D03*
%TD*%
%TO.C,D15*%
X57127837Y-57872522D03*
X57127837Y-58772522D03*
X58027837Y-58772522D03*
X58027837Y-57872522D03*
%TD*%
%TO.C,D7*%
X24756250Y-17369578D03*
X24756250Y-18269578D03*
X25656250Y-18269578D03*
X25656250Y-17369578D03*
%TD*%
%TO.C,D18*%
X17365165Y-53551132D03*
X18265165Y-53551132D03*
X18265165Y-52651132D03*
X17365165Y-52651132D03*
%TD*%
D15*
%TO.C,R1*%
X31470000Y-12178000D03*
X30450000Y-12178000D03*
%TD*%
D10*
%TO.C,D1*%
X33512500Y-50500776D03*
X33512500Y-51400776D03*
X34412500Y-51400776D03*
X34412500Y-50500776D03*
%TD*%
%TO.C,D12*%
X55481250Y-60692507D03*
X55481250Y-59792507D03*
X54581250Y-59792507D03*
X54581250Y-60692507D03*
%TD*%
%TO.C,D9*%
X42568750Y-43068895D03*
X42568750Y-42168895D03*
X41668750Y-42168895D03*
X41668750Y-43068895D03*
%TD*%
%TO.C,D12*%
X12281250Y-41192507D03*
X12281250Y-40292507D03*
X11381250Y-40292507D03*
X11381250Y-41192507D03*
%TD*%
%TO.C,D15*%
X57127837Y-18872522D03*
X57127837Y-19772522D03*
X58027837Y-19772522D03*
X58027837Y-18872522D03*
%TD*%
%TO.C,D14*%
X54043750Y-16130422D03*
X54043750Y-15230422D03*
X53143750Y-15230422D03*
X53143750Y-16130422D03*
%TD*%
%TO.C,D12*%
X33881250Y-60692507D03*
X33881250Y-59792507D03*
X32981250Y-59792507D03*
X32981250Y-60692507D03*
%TD*%
%TO.C,D11*%
X15125000Y-42834347D03*
X15125000Y-41934347D03*
X14225000Y-41934347D03*
X14225000Y-42834347D03*
%TD*%
%TO.C,D16*%
X15675357Y-56118005D03*
X16575357Y-56118005D03*
X16575357Y-55218005D03*
X15675357Y-55218005D03*
%TD*%
%TO.C,D19*%
X20511190Y-33151132D03*
X20511190Y-34051132D03*
X21411190Y-34051132D03*
X21411190Y-33151132D03*
%TD*%
%TO.C,D9*%
X64168750Y-23568895D03*
X64168750Y-22668895D03*
X63268750Y-22668895D03*
X63268750Y-23568895D03*
%TD*%
%TO.C,D3*%
X60550000Y-27861434D03*
X60550000Y-28761434D03*
X61450000Y-28761434D03*
X61450000Y-27861434D03*
%TD*%
%TO.C,D2*%
X14631250Y-48931105D03*
X14631250Y-49831105D03*
X15531250Y-49831105D03*
X15531250Y-48931105D03*
%TD*%
D14*
%TO.C,C3*%
X16472000Y-40598000D03*
X16472000Y-39638000D03*
%TD*%
D10*
%TO.C,D18*%
X38965165Y-53551132D03*
X39865165Y-53551132D03*
X39865165Y-52651132D03*
X38965165Y-52651132D03*
%TD*%
%TO.C,D2*%
X57831250Y-48931105D03*
X57831250Y-49831105D03*
X58731250Y-49831105D03*
X58731250Y-48931105D03*
%TD*%
%TO.C,D19*%
X42111190Y-33151132D03*
X42111190Y-34051132D03*
X43011190Y-34051132D03*
X43011190Y-33151132D03*
%TD*%
%TO.C,D7*%
X24756250Y-36869578D03*
X24756250Y-37769578D03*
X25656250Y-37769578D03*
X25656250Y-36869578D03*
%TD*%
%TO.C,D17*%
X40476664Y-56118005D03*
X41376664Y-56118005D03*
X41376664Y-55218005D03*
X40476664Y-55218005D03*
%TD*%
%TO.C,D11*%
X15125000Y-62334347D03*
X15125000Y-61434347D03*
X14225000Y-61434347D03*
X14225000Y-62334347D03*
%TD*%
%TO.C,D2*%
X57831250Y-9931105D03*
X57831250Y-10831105D03*
X58731250Y-10831105D03*
X58731250Y-9931105D03*
%TD*%
D15*
%TO.C,R1*%
X31470000Y-31678000D03*
X30450000Y-31678000D03*
%TD*%
D14*
%TO.C,C3*%
X38072000Y-60098000D03*
X38072000Y-59138000D03*
%TD*%
D11*
%TO.C,C1*%
X8880000Y-52194000D03*
X9840000Y-52194000D03*
%TD*%
D10*
%TO.C,D12*%
X33881250Y-21692507D03*
X33881250Y-20792507D03*
X32981250Y-20792507D03*
X32981250Y-21692507D03*
%TD*%
%TO.C,D8*%
X66887500Y-41499224D03*
X66887500Y-40599224D03*
X65987500Y-40599224D03*
X65987500Y-41499224D03*
%TD*%
%TO.C,D2*%
X14631250Y-9931105D03*
X14631250Y-10831105D03*
X15531250Y-10831105D03*
X15531250Y-9931105D03*
%TD*%
%TO.C,D18*%
X38965165Y-14551132D03*
X39865165Y-14551132D03*
X39865165Y-13651132D03*
X38965165Y-13651132D03*
%TD*%
%TO.C,D5*%
X23318750Y-31307493D03*
X23318750Y-32207493D03*
X24218750Y-32207493D03*
X24218750Y-31307493D03*
%TD*%
%TO.C,D9*%
X20968750Y-62568895D03*
X20968750Y-61668895D03*
X20068750Y-61668895D03*
X20068750Y-62568895D03*
%TD*%
%TO.C,D14*%
X10843750Y-16130422D03*
X10843750Y-15230422D03*
X9943750Y-15230422D03*
X9943750Y-16130422D03*
%TD*%
%TO.C,D13*%
X11375000Y-38330274D03*
X11375000Y-37430274D03*
X10475000Y-37430274D03*
X10475000Y-38330274D03*
%TD*%
%TO.C,D6*%
X24225000Y-14669726D03*
X24225000Y-15569726D03*
X25125000Y-15569726D03*
X25125000Y-14669726D03*
%TD*%
%TO.C,D19*%
X20511190Y-13651132D03*
X20511190Y-14551132D03*
X21411190Y-14551132D03*
X21411190Y-13651132D03*
%TD*%
%TO.C,D17*%
X18876664Y-56118005D03*
X19776664Y-56118005D03*
X19776664Y-55218005D03*
X18876664Y-55218005D03*
%TD*%
%TO.C,D6*%
X67425000Y-53669726D03*
X67425000Y-54569726D03*
X68325000Y-54569726D03*
X68325000Y-53669726D03*
%TD*%
%TO.C,D1*%
X11912500Y-50500776D03*
X11912500Y-51400776D03*
X12812500Y-51400776D03*
X12812500Y-50500776D03*
%TD*%
%TO.C,D12*%
X12281250Y-60692507D03*
X12281250Y-59792507D03*
X11381250Y-59792507D03*
X11381250Y-60692507D03*
%TD*%
%TO.C,D1*%
X55112500Y-31000776D03*
X55112500Y-31900776D03*
X56012500Y-31900776D03*
X56012500Y-31000776D03*
%TD*%
%TO.C,D19*%
X42111190Y-52651132D03*
X42111190Y-53551132D03*
X43011190Y-53551132D03*
X43011190Y-52651132D03*
%TD*%
%TO.C,D10*%
X39850000Y-25138566D03*
X39850000Y-24238566D03*
X38950000Y-24238566D03*
X38950000Y-25138566D03*
%TD*%
%TO.C,D8*%
X23687500Y-41499224D03*
X23687500Y-40599224D03*
X22787500Y-40599224D03*
X22787500Y-41499224D03*
%TD*%
D11*
%TO.C,C2*%
X22596000Y-19602000D03*
X23556000Y-19602000D03*
%TD*%
D10*
%TO.C,D1*%
X55112500Y-50500776D03*
X55112500Y-51400776D03*
X56012500Y-51400776D03*
X56012500Y-50500776D03*
%TD*%
%TO.C,D13*%
X32975000Y-18830274D03*
X32975000Y-17930274D03*
X32075000Y-17930274D03*
X32075000Y-18830274D03*
%TD*%
%TO.C,D7*%
X46356250Y-36869578D03*
X46356250Y-37769578D03*
X47256250Y-37769578D03*
X47256250Y-36869578D03*
%TD*%
D11*
%TO.C,C2*%
X44196000Y-58602000D03*
X45156000Y-58602000D03*
%TD*%
D10*
%TO.C,D6*%
X67425000Y-14669726D03*
X67425000Y-15569726D03*
X68325000Y-15569726D03*
X68325000Y-14669726D03*
%TD*%
%TO.C,D9*%
X42568750Y-23568895D03*
X42568750Y-22668895D03*
X41668750Y-22668895D03*
X41668750Y-23568895D03*
%TD*%
D14*
%TO.C,C3*%
X59672000Y-21098000D03*
X59672000Y-20138000D03*
%TD*%
D10*
%TO.C,D3*%
X38950000Y-27861434D03*
X38950000Y-28761434D03*
X39850000Y-28761434D03*
X39850000Y-27861434D03*
%TD*%
D12*
%TO.C,KiKit_FID_T_2*%
X69300000Y-2500000D03*
%TD*%
D10*
%TO.C,D7*%
X24756250Y-56369578D03*
X24756250Y-57269578D03*
X25656250Y-57269578D03*
X25656250Y-56369578D03*
%TD*%
D13*
%TO.C,KiKit_TO_1*%
X2500000Y-2500000D03*
%TD*%
D12*
%TO.C,KiKit_FID_T_4*%
X69300000Y-70000000D03*
%TD*%
D10*
%TO.C,D4*%
X63675000Y-29665653D03*
X63675000Y-30565653D03*
X64575000Y-30565653D03*
X64575000Y-29665653D03*
%TD*%
%TO.C,D4*%
X42075000Y-10165653D03*
X42075000Y-11065653D03*
X42975000Y-11065653D03*
X42975000Y-10165653D03*
%TD*%
%TO.C,D7*%
X67956250Y-56369578D03*
X67956250Y-57269578D03*
X68856250Y-57269578D03*
X68856250Y-56369578D03*
%TD*%
D15*
%TO.C,R1*%
X9870000Y-31678000D03*
X8850000Y-31678000D03*
%TD*%
D10*
%TO.C,D9*%
X20968750Y-23568895D03*
X20968750Y-22668895D03*
X20068750Y-22668895D03*
X20068750Y-23568895D03*
%TD*%
%TO.C,D7*%
X46356250Y-56369578D03*
X46356250Y-57269578D03*
X47256250Y-57269578D03*
X47256250Y-56369578D03*
%TD*%
%TO.C,D8*%
X45287500Y-41499224D03*
X45287500Y-40599224D03*
X44387500Y-40599224D03*
X44387500Y-41499224D03*
%TD*%
%TO.C,D8*%
X23687500Y-60999224D03*
X23687500Y-60099224D03*
X22787500Y-60099224D03*
X22787500Y-60999224D03*
%TD*%
%TO.C,D11*%
X36725000Y-23334347D03*
X36725000Y-22434347D03*
X35825000Y-22434347D03*
X35825000Y-23334347D03*
%TD*%
%TO.C,D18*%
X17365165Y-14551132D03*
X18265165Y-14551132D03*
X18265165Y-13651132D03*
X17365165Y-13651132D03*
%TD*%
%TO.C,D17*%
X40476664Y-17118005D03*
X41376664Y-17118005D03*
X41376664Y-16218005D03*
X40476664Y-16218005D03*
%TD*%
D11*
%TO.C,C2*%
X22596000Y-39102000D03*
X23556000Y-39102000D03*
%TD*%
%TO.C,C2*%
X65796000Y-19602000D03*
X66756000Y-19602000D03*
%TD*%
D10*
%TO.C,D5*%
X44918750Y-11807493D03*
X44918750Y-12707493D03*
X45818750Y-12707493D03*
X45818750Y-11807493D03*
%TD*%
D11*
%TO.C,C2*%
X65796000Y-39102000D03*
X66756000Y-39102000D03*
%TD*%
D10*
%TO.C,D2*%
X36231250Y-9931105D03*
X36231250Y-10831105D03*
X37131250Y-10831105D03*
X37131250Y-9931105D03*
%TD*%
%TO.C,D18*%
X60565165Y-34051132D03*
X61465165Y-34051132D03*
X61465165Y-33151132D03*
X60565165Y-33151132D03*
%TD*%
%TO.C,D3*%
X38950000Y-8361434D03*
X38950000Y-9261434D03*
X39850000Y-9261434D03*
X39850000Y-8361434D03*
%TD*%
%TO.C,D9*%
X64168750Y-62568895D03*
X64168750Y-61668895D03*
X63268750Y-61668895D03*
X63268750Y-62568895D03*
%TD*%
D11*
%TO.C,C2*%
X44196000Y-19602000D03*
X45156000Y-19602000D03*
%TD*%
D10*
%TO.C,D12*%
X12281250Y-21692507D03*
X12281250Y-20792507D03*
X11381250Y-20792507D03*
X11381250Y-21692507D03*
%TD*%
D11*
%TO.C,C2*%
X65796000Y-58602000D03*
X66756000Y-58602000D03*
%TD*%
D10*
%TO.C,D10*%
X39850000Y-44638566D03*
X39850000Y-43738566D03*
X38950000Y-43738566D03*
X38950000Y-44638566D03*
%TD*%
%TO.C,D7*%
X46356250Y-17369578D03*
X46356250Y-18269578D03*
X47256250Y-18269578D03*
X47256250Y-17369578D03*
%TD*%
%TO.C,D1*%
X11912500Y-31000776D03*
X11912500Y-31900776D03*
X12812500Y-31900776D03*
X12812500Y-31000776D03*
%TD*%
%TO.C,D10*%
X18250000Y-64138566D03*
X18250000Y-63238566D03*
X17350000Y-63238566D03*
X17350000Y-64138566D03*
%TD*%
%TO.C,D16*%
X58875357Y-56118005D03*
X59775357Y-56118005D03*
X59775357Y-55218005D03*
X58875357Y-55218005D03*
%TD*%
%TO.C,D1*%
X55112500Y-11500776D03*
X55112500Y-12400776D03*
X56012500Y-12400776D03*
X56012500Y-11500776D03*
%TD*%
%TO.C,D15*%
X13927837Y-38372522D03*
X13927837Y-39272522D03*
X14827837Y-39272522D03*
X14827837Y-38372522D03*
%TD*%
%TO.C,D15*%
X13927837Y-57872522D03*
X13927837Y-58772522D03*
X14827837Y-58772522D03*
X14827837Y-57872522D03*
%TD*%
%TO.C,D14*%
X54043750Y-55130422D03*
X54043750Y-54230422D03*
X53143750Y-54230422D03*
X53143750Y-55130422D03*
%TD*%
%TO.C,D14*%
X32443750Y-35630422D03*
X32443750Y-34730422D03*
X31543750Y-34730422D03*
X31543750Y-35630422D03*
%TD*%
M02*
