%TF.GenerationSoftware,KiCad,Pcbnew,8.0.4*%
%TF.CreationDate,2024-10-17T13:06:50+11:00*%
%TF.ProjectId,panel,70616e65-6c2e-46b6-9963-61645f706362,rev?*%
%TF.SameCoordinates,Original*%
%TF.FileFunction,Copper,L2,Bot*%
%TF.FilePolarity,Positive*%
%FSLAX46Y46*%
G04 Gerber Fmt 4.6, Leading zero omitted, Abs format (unit mm)*
G04 Created by KiCad (PCBNEW 8.0.4) date 2024-10-17 13:06:50*
%MOMM*%
%LPD*%
G01*
G04 APERTURE LIST*
G04 Aperture macros list*
%AMRoundRect*
0 Rectangle with rounded corners*
0 $1 Rounding radius*
0 $2 $3 $4 $5 $6 $7 $8 $9 X,Y pos of 4 corners*
0 Add a 4 corners polygon primitive as box body*
4,1,4,$2,$3,$4,$5,$6,$7,$8,$9,$2,$3,0*
0 Add four circle primitives for the rounded corners*
1,1,$1+$1,$2,$3*
1,1,$1+$1,$4,$5*
1,1,$1+$1,$6,$7*
1,1,$1+$1,$8,$9*
0 Add four rect primitives between the rounded corners*
20,1,$1+$1,$2,$3,$4,$5,0*
20,1,$1+$1,$4,$5,$6,$7,0*
20,1,$1+$1,$6,$7,$8,$9,0*
20,1,$1+$1,$8,$9,$2,$3,0*%
G04 Aperture macros list end*
%TA.AperFunction,SMDPad,CuDef*%
%ADD10RoundRect,0.750000X-0.000010X1.250000X-0.000010X-1.250000X0.000010X-1.250000X0.000010X1.250000X0*%
%TD*%
%TA.AperFunction,SMDPad,CuDef*%
%ADD11C,1.000000*%
%TD*%
%TA.AperFunction,ViaPad*%
%ADD12C,0.600000*%
%TD*%
%TA.AperFunction,ViaPad*%
%ADD13C,0.700000*%
%TD*%
%TA.AperFunction,Conductor*%
%ADD14C,1.500000*%
%TD*%
%TA.AperFunction,Conductor*%
%ADD15C,0.300000*%
%TD*%
%TA.AperFunction,Conductor*%
%ADD16C,0.200000*%
%TD*%
G04 APERTURE END LIST*
D10*
%TO.P,J1,1,Pin_1*%
%TO.N,Board_7-+5V*%
X36860000Y-53225000D03*
%TO.P,J1,2,Pin_2*%
%TO.N,Board_7-DOUT*%
X39400000Y-53225000D03*
%TO.P,J1,3,Pin_3*%
%TO.N,Board_7-GND*%
X41940000Y-53225000D03*
%TO.P,J1,4,Pin_4*%
X41940000Y-58275000D03*
%TO.P,J1,5,Pin_5*%
%TO.N,Board_7-DIN*%
X39400000Y-58275000D03*
%TO.P,J1,6,Pin_6*%
%TO.N,Board_7-+5V*%
X36860000Y-58275000D03*
%TD*%
%TO.P,J1,1,Pin_1*%
%TO.N,Board_4-+5V*%
X36860000Y-33725000D03*
%TO.P,J1,2,Pin_2*%
%TO.N,Board_4-DOUT*%
X39400000Y-33725000D03*
%TO.P,J1,3,Pin_3*%
%TO.N,Board_4-GND*%
X41940000Y-33725000D03*
%TO.P,J1,4,Pin_4*%
X41940000Y-38775000D03*
%TO.P,J1,5,Pin_5*%
%TO.N,Board_4-DIN*%
X39400000Y-38775000D03*
%TO.P,J1,6,Pin_6*%
%TO.N,Board_4-+5V*%
X36860000Y-38775000D03*
%TD*%
D11*
%TO.P,KiKit_FID_B_4,*%
%TO.N,*%
X69300000Y-70000000D03*
%TD*%
%TO.P,KiKit_FID_B_3,*%
%TO.N,*%
X9500000Y-70000000D03*
%TD*%
D10*
%TO.P,J1,1,Pin_1*%
%TO.N,Board_1-+5V*%
X36860000Y-14225000D03*
%TO.P,J1,2,Pin_2*%
%TO.N,Board_1-DOUT*%
X39400000Y-14225000D03*
%TO.P,J1,3,Pin_3*%
%TO.N,Board_1-GND*%
X41940000Y-14225000D03*
%TO.P,J1,4,Pin_4*%
X41940000Y-19275000D03*
%TO.P,J1,5,Pin_5*%
%TO.N,Board_1-DIN*%
X39400000Y-19275000D03*
%TO.P,J1,6,Pin_6*%
%TO.N,Board_1-+5V*%
X36860000Y-19275000D03*
%TD*%
D11*
%TO.P,KiKit_FID_B_1,*%
%TO.N,*%
X9500000Y-2500000D03*
%TD*%
D10*
%TO.P,J1,1,Pin_1*%
%TO.N,Board_5-+5V*%
X58460000Y-33725000D03*
%TO.P,J1,2,Pin_2*%
%TO.N,Board_5-DOUT*%
X61000000Y-33725000D03*
%TO.P,J1,3,Pin_3*%
%TO.N,Board_5-GND*%
X63540000Y-33725000D03*
%TO.P,J1,4,Pin_4*%
X63540000Y-38775000D03*
%TO.P,J1,5,Pin_5*%
%TO.N,Board_5-DIN*%
X61000000Y-38775000D03*
%TO.P,J1,6,Pin_6*%
%TO.N,Board_5-+5V*%
X58460000Y-38775000D03*
%TD*%
%TO.P,J1,1,Pin_1*%
%TO.N,Board_3-+5V*%
X15260000Y-33725000D03*
%TO.P,J1,2,Pin_2*%
%TO.N,Board_3-DOUT*%
X17800000Y-33725000D03*
%TO.P,J1,3,Pin_3*%
%TO.N,Board_3-GND*%
X20340000Y-33725000D03*
%TO.P,J1,4,Pin_4*%
X20340000Y-38775000D03*
%TO.P,J1,5,Pin_5*%
%TO.N,Board_3-DIN*%
X17800000Y-38775000D03*
%TO.P,J1,6,Pin_6*%
%TO.N,Board_3-+5V*%
X15260000Y-38775000D03*
%TD*%
%TO.P,J1,1,Pin_1*%
%TO.N,Board_8-+5V*%
X58460000Y-53225000D03*
%TO.P,J1,2,Pin_2*%
%TO.N,Board_8-DOUT*%
X61000000Y-53225000D03*
%TO.P,J1,3,Pin_3*%
%TO.N,Board_8-GND*%
X63540000Y-53225000D03*
%TO.P,J1,4,Pin_4*%
X63540000Y-58275000D03*
%TO.P,J1,5,Pin_5*%
%TO.N,Board_8-DIN*%
X61000000Y-58275000D03*
%TO.P,J1,6,Pin_6*%
%TO.N,Board_8-+5V*%
X58460000Y-58275000D03*
%TD*%
%TO.P,J1,1,Pin_1*%
%TO.N,Board_0-+5V*%
X15260000Y-14225000D03*
%TO.P,J1,2,Pin_2*%
%TO.N,Board_0-DOUT*%
X17800000Y-14225000D03*
%TO.P,J1,3,Pin_3*%
%TO.N,Board_0-GND*%
X20340000Y-14225000D03*
%TO.P,J1,4,Pin_4*%
X20340000Y-19275000D03*
%TO.P,J1,5,Pin_5*%
%TO.N,Board_0-DIN*%
X17800000Y-19275000D03*
%TO.P,J1,6,Pin_6*%
%TO.N,Board_0-+5V*%
X15260000Y-19275000D03*
%TD*%
D11*
%TO.P,KiKit_FID_B_2,*%
%TO.N,*%
X69300000Y-2500000D03*
%TD*%
D10*
%TO.P,J1,1,Pin_1*%
%TO.N,Board_2-+5V*%
X58460000Y-14225000D03*
%TO.P,J1,2,Pin_2*%
%TO.N,Board_2-DOUT*%
X61000000Y-14225000D03*
%TO.P,J1,3,Pin_3*%
%TO.N,Board_2-GND*%
X63540000Y-14225000D03*
%TO.P,J1,4,Pin_4*%
X63540000Y-19275000D03*
%TO.P,J1,5,Pin_5*%
%TO.N,Board_2-DIN*%
X61000000Y-19275000D03*
%TO.P,J1,6,Pin_6*%
%TO.N,Board_2-+5V*%
X58460000Y-19275000D03*
%TD*%
%TO.P,J1,1,Pin_1*%
%TO.N,Board_6-+5V*%
X15260000Y-53225000D03*
%TO.P,J1,2,Pin_2*%
%TO.N,Board_6-DOUT*%
X17800000Y-53225000D03*
%TO.P,J1,3,Pin_3*%
%TO.N,Board_6-GND*%
X20340000Y-53225000D03*
%TO.P,J1,4,Pin_4*%
X20340000Y-58275000D03*
%TO.P,J1,5,Pin_5*%
%TO.N,Board_6-DIN*%
X17800000Y-58275000D03*
%TO.P,J1,6,Pin_6*%
%TO.N,Board_6-+5V*%
X15260000Y-58275000D03*
%TD*%
D12*
%TO.N,Board_0-+5V*%
X16550001Y-19293435D03*
D13*
X9766400Y-14014000D03*
%TO.N,Board_0-DIN*%
X11033267Y-12360769D03*
D12*
%TO.N,Board_0-DOUT*%
X21298000Y-16808000D03*
D13*
%TO.N,Board_0-GND*%
X22314000Y-15030000D03*
X16819707Y-22081927D03*
X15456000Y-8426000D03*
X12408000Y-23158000D03*
X12916000Y-9950000D03*
X21704400Y-19576600D03*
X13170000Y-14903000D03*
X15456000Y-24682000D03*
X9360000Y-17570000D03*
X9868000Y-20364000D03*
X23076000Y-10204000D03*
X20028000Y-8426000D03*
X22822000Y-23412000D03*
X24854000Y-19856000D03*
X8598000Y-14522000D03*
D12*
X13170000Y-17570000D03*
D13*
X26378000Y-16046000D03*
X20028000Y-24936000D03*
D12*
%TO.N,Board_1-+5V*%
X38150001Y-19293435D03*
D13*
X31366400Y-14014000D03*
%TO.N,Board_1-DIN*%
X32633267Y-12360769D03*
D12*
%TO.N,Board_1-DOUT*%
X42898000Y-16808000D03*
D13*
%TO.N,Board_1-GND*%
X41628000Y-8426000D03*
X38419707Y-22081927D03*
X43914000Y-15030000D03*
X30198000Y-14522000D03*
X31468000Y-20364000D03*
X46454000Y-19856000D03*
X37056000Y-24682000D03*
X34516000Y-9950000D03*
X34770000Y-14903000D03*
X41628000Y-24936000D03*
X37056000Y-8426000D03*
X44676000Y-10204000D03*
X30960000Y-17570000D03*
X43304400Y-19576600D03*
X47978000Y-16046000D03*
D12*
X34770000Y-17570000D03*
D13*
X44422000Y-23412000D03*
X34008000Y-23158000D03*
D12*
%TO.N,Board_2-+5V*%
X59750001Y-19293435D03*
D13*
X52966400Y-14014000D03*
%TO.N,Board_2-DIN*%
X54233267Y-12360769D03*
D12*
%TO.N,Board_2-DOUT*%
X64498000Y-16808000D03*
D13*
%TO.N,Board_2-GND*%
X66276000Y-10204000D03*
X68054000Y-19856000D03*
X56370000Y-14903000D03*
X55608000Y-23158000D03*
X52560000Y-17570000D03*
X56116000Y-9950000D03*
X53068000Y-20364000D03*
D12*
X56370000Y-17570000D03*
D13*
X66022000Y-23412000D03*
X69578000Y-16046000D03*
X58656000Y-8426000D03*
X60019707Y-22081927D03*
X64904400Y-19576600D03*
X63228000Y-8426000D03*
X58656000Y-24682000D03*
X51798000Y-14522000D03*
X65514000Y-15030000D03*
X63228000Y-24936000D03*
D12*
%TO.N,Board_3-+5V*%
X16550001Y-38793435D03*
D13*
X9766400Y-33514000D03*
%TO.N,Board_3-DIN*%
X11033267Y-31860769D03*
D12*
%TO.N,Board_3-DOUT*%
X21298000Y-36308000D03*
D13*
%TO.N,Board_3-GND*%
X20028000Y-44436000D03*
X15456000Y-44182000D03*
X16819707Y-41581927D03*
X23076000Y-29704000D03*
X22314000Y-34530000D03*
X12916000Y-29450000D03*
D12*
X13170000Y-37070000D03*
D13*
X13170000Y-34403000D03*
X20028000Y-27926000D03*
X9360000Y-37070000D03*
X21704400Y-39076600D03*
X22822000Y-42912000D03*
X24854000Y-39356000D03*
X26378000Y-35546000D03*
X12408000Y-42658000D03*
X15456000Y-27926000D03*
X9868000Y-39864000D03*
X8598000Y-34022000D03*
%TO.N,Board_4-+5V*%
X31366400Y-33514000D03*
D12*
X38150001Y-38793435D03*
D13*
%TO.N,Board_4-DIN*%
X32633267Y-31860769D03*
D12*
%TO.N,Board_4-DOUT*%
X42898000Y-36308000D03*
D13*
%TO.N,Board_4-GND*%
X43914000Y-34530000D03*
X43304400Y-39076600D03*
X41628000Y-27926000D03*
X37056000Y-44182000D03*
X38419707Y-41581927D03*
D12*
X34770000Y-37070000D03*
D13*
X44422000Y-42912000D03*
X34770000Y-34403000D03*
X47978000Y-35546000D03*
X34516000Y-29450000D03*
X34008000Y-42658000D03*
X46454000Y-39356000D03*
X41628000Y-44436000D03*
X30198000Y-34022000D03*
X30960000Y-37070000D03*
X37056000Y-27926000D03*
X44676000Y-29704000D03*
X31468000Y-39864000D03*
D12*
%TO.N,Board_5-+5V*%
X59750001Y-38793435D03*
D13*
X52966400Y-33514000D03*
%TO.N,Board_5-DIN*%
X54233267Y-31860769D03*
D12*
%TO.N,Board_5-DOUT*%
X64498000Y-36308000D03*
D13*
%TO.N,Board_5-GND*%
X58656000Y-44182000D03*
X60019707Y-41581927D03*
X68054000Y-39356000D03*
X52560000Y-37070000D03*
X53068000Y-39864000D03*
X64904400Y-39076600D03*
X55608000Y-42658000D03*
X56370000Y-34403000D03*
D12*
X56370000Y-37070000D03*
D13*
X63228000Y-27926000D03*
X51798000Y-34022000D03*
X66022000Y-42912000D03*
X69578000Y-35546000D03*
X56116000Y-29450000D03*
X58656000Y-27926000D03*
X66276000Y-29704000D03*
X63228000Y-44436000D03*
X65514000Y-34530000D03*
%TO.N,Board_6-+5V*%
X9766400Y-53014000D03*
D12*
X16550001Y-58293435D03*
D13*
%TO.N,Board_6-DIN*%
X11033267Y-51360769D03*
D12*
%TO.N,Board_6-DOUT*%
X21298000Y-55808000D03*
D13*
%TO.N,Board_6-GND*%
X26378000Y-55046000D03*
X22822000Y-62412000D03*
X22314000Y-54030000D03*
X21704400Y-58576600D03*
X9868000Y-59364000D03*
X24854000Y-58856000D03*
X9360000Y-56570000D03*
X15456000Y-63682000D03*
X8598000Y-53522000D03*
X20028000Y-47426000D03*
X20028000Y-63936000D03*
X23076000Y-49204000D03*
D12*
X13170000Y-56570000D03*
D13*
X15456000Y-47426000D03*
X12916000Y-48950000D03*
X12408000Y-62158000D03*
X16819707Y-61081927D03*
X13170000Y-53903000D03*
D12*
%TO.N,Board_7-+5V*%
X38150001Y-58293435D03*
D13*
X31366400Y-53014000D03*
%TO.N,Board_7-DIN*%
X32633267Y-51360769D03*
D12*
%TO.N,Board_7-DOUT*%
X42898000Y-55808000D03*
D13*
%TO.N,Board_7-GND*%
X43914000Y-54030000D03*
X34516000Y-48950000D03*
X46454000Y-58856000D03*
X34008000Y-62158000D03*
D12*
X34770000Y-56570000D03*
D13*
X30960000Y-56570000D03*
X37056000Y-63682000D03*
X38419707Y-61081927D03*
X44422000Y-62412000D03*
X47978000Y-55046000D03*
X31468000Y-59364000D03*
X30198000Y-53522000D03*
X41628000Y-63936000D03*
X41628000Y-47426000D03*
X37056000Y-47426000D03*
X34770000Y-53903000D03*
X43304400Y-58576600D03*
X44676000Y-49204000D03*
D12*
%TO.N,Board_8-+5V*%
X59750001Y-58293435D03*
D13*
X52966400Y-53014000D03*
%TO.N,Board_8-DIN*%
X54233267Y-51360769D03*
D12*
%TO.N,Board_8-DOUT*%
X64498000Y-55808000D03*
%TO.N,Board_8-GND*%
X56370000Y-56570000D03*
D13*
X66276000Y-49204000D03*
X58656000Y-63682000D03*
X55608000Y-62158000D03*
X51798000Y-53522000D03*
X63228000Y-63936000D03*
X58656000Y-47426000D03*
X68054000Y-58856000D03*
X65514000Y-54030000D03*
X56116000Y-48950000D03*
X53068000Y-59364000D03*
X66022000Y-62412000D03*
X63228000Y-47426000D03*
X60019707Y-61081927D03*
X56370000Y-53903000D03*
X69578000Y-55046000D03*
X64904400Y-58576600D03*
X52560000Y-56570000D03*
%TD*%
D14*
%TO.N,Board_0-+5V*%
X15260000Y-14225000D02*
X15260000Y-19275000D01*
D15*
X9766400Y-14014000D02*
X9766400Y-16198400D01*
X9766400Y-16198400D02*
X12843000Y-19275000D01*
X16550001Y-19293435D02*
X16531566Y-19275000D01*
X12843000Y-19275000D02*
X15260000Y-19275000D01*
X16531566Y-19275000D02*
X15260000Y-19275000D01*
D16*
%TO.N,Board_0-DIN*%
X12283231Y-12360769D02*
X13678000Y-10966000D01*
X11033267Y-12360769D02*
X12283231Y-12360769D01*
X15456000Y-10966000D02*
X16472000Y-11982000D01*
X16472000Y-11982000D02*
X16472000Y-17947000D01*
X13678000Y-10966000D02*
X15456000Y-10966000D01*
X16472000Y-17947000D02*
X17800000Y-19275000D01*
%TO.N,Board_0-DOUT*%
X17800000Y-16224999D02*
X17800000Y-14225000D01*
X18383001Y-16808000D02*
X17800000Y-16224999D01*
X21298000Y-16808000D02*
X18383001Y-16808000D01*
D15*
%TO.N,Board_1-+5V*%
X31366400Y-16198400D02*
X34443000Y-19275000D01*
X38150001Y-19293435D02*
X38131566Y-19275000D01*
D14*
X36860000Y-14225000D02*
X36860000Y-19275000D01*
D15*
X38131566Y-19275000D02*
X36860000Y-19275000D01*
X34443000Y-19275000D02*
X36860000Y-19275000D01*
X31366400Y-14014000D02*
X31366400Y-16198400D01*
D16*
%TO.N,Board_1-DIN*%
X32633267Y-12360769D02*
X33883231Y-12360769D01*
X37056000Y-10966000D02*
X38072000Y-11982000D01*
X35278000Y-10966000D02*
X37056000Y-10966000D01*
X38072000Y-11982000D02*
X38072000Y-17947000D01*
X38072000Y-17947000D02*
X39400000Y-19275000D01*
X33883231Y-12360769D02*
X35278000Y-10966000D01*
%TO.N,Board_1-DOUT*%
X39400000Y-16224999D02*
X39400000Y-14225000D01*
X42898000Y-16808000D02*
X39983001Y-16808000D01*
X39983001Y-16808000D02*
X39400000Y-16224999D01*
D15*
%TO.N,Board_2-+5V*%
X52966400Y-16198400D02*
X56043000Y-19275000D01*
X52966400Y-14014000D02*
X52966400Y-16198400D01*
D14*
X58460000Y-14225000D02*
X58460000Y-19275000D01*
D15*
X59750001Y-19293435D02*
X59731566Y-19275000D01*
X56043000Y-19275000D02*
X58460000Y-19275000D01*
X59731566Y-19275000D02*
X58460000Y-19275000D01*
D16*
%TO.N,Board_2-DIN*%
X56878000Y-10966000D02*
X58656000Y-10966000D01*
X58656000Y-10966000D02*
X59672000Y-11982000D01*
X59672000Y-17947000D02*
X61000000Y-19275000D01*
X55483231Y-12360769D02*
X56878000Y-10966000D01*
X54233267Y-12360769D02*
X55483231Y-12360769D01*
X59672000Y-11982000D02*
X59672000Y-17947000D01*
%TO.N,Board_2-DOUT*%
X61583001Y-16808000D02*
X61000000Y-16224999D01*
X64498000Y-16808000D02*
X61583001Y-16808000D01*
X61000000Y-16224999D02*
X61000000Y-14225000D01*
D15*
%TO.N,Board_3-+5V*%
X9766400Y-35698400D02*
X12843000Y-38775000D01*
X16550001Y-38793435D02*
X16531566Y-38775000D01*
D14*
X15260000Y-33725000D02*
X15260000Y-38775000D01*
D15*
X9766400Y-33514000D02*
X9766400Y-35698400D01*
X12843000Y-38775000D02*
X15260000Y-38775000D01*
X16531566Y-38775000D02*
X15260000Y-38775000D01*
D16*
%TO.N,Board_3-DIN*%
X16472000Y-31482000D02*
X16472000Y-37447000D01*
X16472000Y-37447000D02*
X17800000Y-38775000D01*
X11033267Y-31860769D02*
X12283231Y-31860769D01*
X13678000Y-30466000D02*
X15456000Y-30466000D01*
X15456000Y-30466000D02*
X16472000Y-31482000D01*
X12283231Y-31860769D02*
X13678000Y-30466000D01*
%TO.N,Board_3-DOUT*%
X21298000Y-36308000D02*
X18383001Y-36308000D01*
X18383001Y-36308000D02*
X17800000Y-35724999D01*
X17800000Y-35724999D02*
X17800000Y-33725000D01*
D15*
%TO.N,Board_4-+5V*%
X38150001Y-38793435D02*
X38131566Y-38775000D01*
X38131566Y-38775000D02*
X36860000Y-38775000D01*
X34443000Y-38775000D02*
X36860000Y-38775000D01*
X31366400Y-35698400D02*
X34443000Y-38775000D01*
D14*
X36860000Y-33725000D02*
X36860000Y-38775000D01*
D15*
X31366400Y-33514000D02*
X31366400Y-35698400D01*
D16*
%TO.N,Board_4-DIN*%
X37056000Y-30466000D02*
X38072000Y-31482000D01*
X32633267Y-31860769D02*
X33883231Y-31860769D01*
X35278000Y-30466000D02*
X37056000Y-30466000D01*
X33883231Y-31860769D02*
X35278000Y-30466000D01*
X38072000Y-37447000D02*
X39400000Y-38775000D01*
X38072000Y-31482000D02*
X38072000Y-37447000D01*
%TO.N,Board_4-DOUT*%
X42898000Y-36308000D02*
X39983001Y-36308000D01*
X39983001Y-36308000D02*
X39400000Y-35724999D01*
X39400000Y-35724999D02*
X39400000Y-33725000D01*
D14*
%TO.N,Board_5-+5V*%
X58460000Y-33725000D02*
X58460000Y-38775000D01*
D15*
X52966400Y-35698400D02*
X56043000Y-38775000D01*
X59750001Y-38793435D02*
X59731566Y-38775000D01*
X59731566Y-38775000D02*
X58460000Y-38775000D01*
X56043000Y-38775000D02*
X58460000Y-38775000D01*
X52966400Y-33514000D02*
X52966400Y-35698400D01*
D16*
%TO.N,Board_5-DIN*%
X56878000Y-30466000D02*
X58656000Y-30466000D01*
X54233267Y-31860769D02*
X55483231Y-31860769D01*
X59672000Y-31482000D02*
X59672000Y-37447000D01*
X58656000Y-30466000D02*
X59672000Y-31482000D01*
X59672000Y-37447000D02*
X61000000Y-38775000D01*
X55483231Y-31860769D02*
X56878000Y-30466000D01*
%TO.N,Board_5-DOUT*%
X61000000Y-35724999D02*
X61000000Y-33725000D01*
X64498000Y-36308000D02*
X61583001Y-36308000D01*
X61583001Y-36308000D02*
X61000000Y-35724999D01*
D15*
%TO.N,Board_6-+5V*%
X9766400Y-55198400D02*
X12843000Y-58275000D01*
X16531566Y-58275000D02*
X15260000Y-58275000D01*
D14*
X15260000Y-53225000D02*
X15260000Y-58275000D01*
D15*
X12843000Y-58275000D02*
X15260000Y-58275000D01*
X16550001Y-58293435D02*
X16531566Y-58275000D01*
X9766400Y-53014000D02*
X9766400Y-55198400D01*
D16*
%TO.N,Board_6-DIN*%
X15456000Y-49966000D02*
X16472000Y-50982000D01*
X16472000Y-56947000D02*
X17800000Y-58275000D01*
X12283231Y-51360769D02*
X13678000Y-49966000D01*
X13678000Y-49966000D02*
X15456000Y-49966000D01*
X16472000Y-50982000D02*
X16472000Y-56947000D01*
X11033267Y-51360769D02*
X12283231Y-51360769D01*
%TO.N,Board_6-DOUT*%
X17800000Y-55224999D02*
X17800000Y-53225000D01*
X21298000Y-55808000D02*
X18383001Y-55808000D01*
X18383001Y-55808000D02*
X17800000Y-55224999D01*
D15*
%TO.N,Board_7-+5V*%
X38150001Y-58293435D02*
X38131566Y-58275000D01*
X31366400Y-55198400D02*
X34443000Y-58275000D01*
X31366400Y-53014000D02*
X31366400Y-55198400D01*
X38131566Y-58275000D02*
X36860000Y-58275000D01*
D14*
X36860000Y-53225000D02*
X36860000Y-58275000D01*
D15*
X34443000Y-58275000D02*
X36860000Y-58275000D01*
D16*
%TO.N,Board_7-DIN*%
X35278000Y-49966000D02*
X37056000Y-49966000D01*
X38072000Y-50982000D02*
X38072000Y-56947000D01*
X33883231Y-51360769D02*
X35278000Y-49966000D01*
X37056000Y-49966000D02*
X38072000Y-50982000D01*
X38072000Y-56947000D02*
X39400000Y-58275000D01*
X32633267Y-51360769D02*
X33883231Y-51360769D01*
%TO.N,Board_7-DOUT*%
X42898000Y-55808000D02*
X39983001Y-55808000D01*
X39983001Y-55808000D02*
X39400000Y-55224999D01*
X39400000Y-55224999D02*
X39400000Y-53225000D01*
D15*
%TO.N,Board_8-+5V*%
X52966400Y-53014000D02*
X52966400Y-55198400D01*
D14*
X58460000Y-53225000D02*
X58460000Y-58275000D01*
D15*
X59750001Y-58293435D02*
X59731566Y-58275000D01*
X59731566Y-58275000D02*
X58460000Y-58275000D01*
X56043000Y-58275000D02*
X58460000Y-58275000D01*
X52966400Y-55198400D02*
X56043000Y-58275000D01*
D16*
%TO.N,Board_8-DIN*%
X58656000Y-49966000D02*
X59672000Y-50982000D01*
X54233267Y-51360769D02*
X55483231Y-51360769D01*
X59672000Y-56947000D02*
X61000000Y-58275000D01*
X55483231Y-51360769D02*
X56878000Y-49966000D01*
X56878000Y-49966000D02*
X58656000Y-49966000D01*
X59672000Y-50982000D02*
X59672000Y-56947000D01*
%TO.N,Board_8-DOUT*%
X64498000Y-55808000D02*
X61583001Y-55808000D01*
X61583001Y-55808000D02*
X61000000Y-55224999D01*
X61000000Y-55224999D02*
X61000000Y-53225000D01*
%TD*%
%TA.AperFunction,Conductor*%
%TO.N,Board_4-GND*%
G36*
X42933965Y-26917112D02*
G01*
X48581247Y-30177573D01*
X49187500Y-30527593D01*
X49235716Y-30578160D01*
X49249500Y-30634980D01*
X49249500Y-33916739D01*
X49249500Y-34022193D01*
X49276793Y-34124053D01*
X49329520Y-34215379D01*
X49404087Y-34289946D01*
X49737500Y-34482441D01*
X49785715Y-34533008D01*
X49799500Y-34589828D01*
X49799500Y-37910170D01*
X49779815Y-37977209D01*
X49737500Y-38017557D01*
X49406969Y-38208389D01*
X49406967Y-38208391D01*
X49404588Y-38209764D01*
X49404085Y-38210055D01*
X49329520Y-38284621D01*
X49276794Y-38375944D01*
X49276793Y-38375947D01*
X49249500Y-38477807D01*
X49249500Y-41865018D01*
X49229815Y-41932057D01*
X49187500Y-41972405D01*
X42933966Y-45582887D01*
X42871966Y-45599500D01*
X35928034Y-45599500D01*
X35866034Y-45582887D01*
X29612500Y-41972405D01*
X29564284Y-41921838D01*
X29550500Y-41865018D01*
X29550500Y-38477809D01*
X29550500Y-38477807D01*
X29523207Y-38375947D01*
X29470480Y-38284621D01*
X29395913Y-38210054D01*
X29393033Y-38208391D01*
X29393030Y-38208389D01*
X29062500Y-38017557D01*
X29014284Y-37966990D01*
X29000500Y-37910170D01*
X29000500Y-34589828D01*
X29020185Y-34522789D01*
X29062498Y-34482442D01*
X29395913Y-34289946D01*
X29470480Y-34215379D01*
X29523207Y-34124053D01*
X29550500Y-34022193D01*
X29550500Y-33513999D01*
X30711122Y-33513999D01*
X30711122Y-33514000D01*
X30730162Y-33670818D01*
X30786180Y-33818523D01*
X30786181Y-33818524D01*
X30875918Y-33948532D01*
X30880891Y-33954145D01*
X30879444Y-33955426D01*
X30911250Y-34006120D01*
X30915900Y-34039759D01*
X30915900Y-35757708D01*
X30940112Y-35848072D01*
X30946600Y-35872285D01*
X30946600Y-35872286D01*
X30946601Y-35872287D01*
X31005911Y-35975014D01*
X34166386Y-39135489D01*
X34198317Y-39153924D01*
X34269114Y-39194799D01*
X34383691Y-39225500D01*
X35685500Y-39225500D01*
X35752539Y-39245185D01*
X35798294Y-39297989D01*
X35809500Y-39349500D01*
X35809500Y-40076604D01*
X35824699Y-40230932D01*
X35824700Y-40230934D01*
X35884768Y-40428954D01*
X35982315Y-40611450D01*
X36011853Y-40647442D01*
X36039166Y-40711751D01*
X36040000Y-40726107D01*
X36040000Y-40880000D01*
X36201984Y-40880000D01*
X36269023Y-40899685D01*
X36270877Y-40900900D01*
X36273548Y-40902685D01*
X36456041Y-41000230D01*
X36456043Y-41000230D01*
X36456046Y-41000232D01*
X36654066Y-41060300D01*
X36654065Y-41060300D01*
X36692647Y-41064100D01*
X36808392Y-41075500D01*
X36808395Y-41075500D01*
X36911605Y-41075500D01*
X36911608Y-41075500D01*
X37065934Y-41060300D01*
X37263954Y-41000232D01*
X37263958Y-41000230D01*
X37446451Y-40902685D01*
X37449123Y-40900900D01*
X37450736Y-40900394D01*
X37451823Y-40899814D01*
X37451933Y-40900019D01*
X37515799Y-40880020D01*
X37518016Y-40880000D01*
X38741984Y-40880000D01*
X38809023Y-40899685D01*
X38810877Y-40900900D01*
X38813548Y-40902685D01*
X38996041Y-41000230D01*
X38996043Y-41000230D01*
X38996046Y-41000232D01*
X39194066Y-41060300D01*
X39194065Y-41060300D01*
X39232647Y-41064100D01*
X39348392Y-41075500D01*
X39348395Y-41075500D01*
X39451605Y-41075500D01*
X39451608Y-41075500D01*
X39605934Y-41060300D01*
X39803954Y-41000232D01*
X39803958Y-41000230D01*
X39986451Y-40902685D01*
X39989123Y-40900900D01*
X39990736Y-40900394D01*
X39991823Y-40899814D01*
X39991933Y-40900019D01*
X40055799Y-40880020D01*
X40058016Y-40880000D01*
X40104000Y-40880000D01*
X40104000Y-40864863D01*
X40123685Y-40797824D01*
X40142770Y-40776387D01*
X40142102Y-40775719D01*
X40146407Y-40771413D01*
X40146408Y-40771411D01*
X40146410Y-40771410D01*
X40277685Y-40611450D01*
X40375232Y-40428954D01*
X40435300Y-40230934D01*
X40450500Y-40076608D01*
X40450500Y-37473392D01*
X40435300Y-37319066D01*
X40375232Y-37121046D01*
X40277685Y-36938550D01*
X40257276Y-36913682D01*
X40255211Y-36911165D01*
X40227898Y-36846855D01*
X40239689Y-36777988D01*
X40286841Y-36726427D01*
X40351064Y-36708500D01*
X42391420Y-36708500D01*
X42458459Y-36728185D01*
X42466907Y-36734124D01*
X42469716Y-36736279D01*
X42469718Y-36736282D01*
X42595159Y-36832536D01*
X42741238Y-36893044D01*
X42819619Y-36903363D01*
X42897999Y-36913682D01*
X42898000Y-36913682D01*
X42898001Y-36913682D01*
X42950254Y-36906802D01*
X43054762Y-36893044D01*
X43200841Y-36832536D01*
X43326282Y-36736282D01*
X43422536Y-36610841D01*
X43483044Y-36464762D01*
X43503682Y-36308000D01*
X43483044Y-36151238D01*
X43422536Y-36005159D01*
X43326282Y-35879718D01*
X43200841Y-35783464D01*
X43158324Y-35765853D01*
X43054762Y-35722956D01*
X43054760Y-35722955D01*
X42898001Y-35702318D01*
X42897999Y-35702318D01*
X42741239Y-35722955D01*
X42741237Y-35722956D01*
X42595160Y-35783463D01*
X42595159Y-35783464D01*
X42469718Y-35879718D01*
X42469716Y-35879720D01*
X42466907Y-35881876D01*
X42401737Y-35907070D01*
X42391420Y-35907500D01*
X40255866Y-35907500D01*
X40188827Y-35887815D01*
X40143072Y-35835011D01*
X40133128Y-35765853D01*
X40160013Y-35704835D01*
X40204733Y-35650342D01*
X40277685Y-35561450D01*
X40375232Y-35378954D01*
X40435300Y-35180934D01*
X40450500Y-35026608D01*
X40450500Y-32423392D01*
X40435300Y-32269066D01*
X40375232Y-32071046D01*
X40277685Y-31888550D01*
X40220000Y-31818260D01*
X40146410Y-31728589D01*
X39986452Y-31597317D01*
X39986453Y-31597317D01*
X39986450Y-31597315D01*
X39803954Y-31499768D01*
X39605934Y-31439700D01*
X39605932Y-31439699D01*
X39605934Y-31439699D01*
X39486805Y-31427966D01*
X39451608Y-31424500D01*
X39348392Y-31424500D01*
X39310298Y-31428251D01*
X39194067Y-31439699D01*
X38996043Y-31499769D01*
X38813546Y-31597317D01*
X38678858Y-31707853D01*
X38614548Y-31735166D01*
X38600193Y-31736000D01*
X38596500Y-31736000D01*
X38529461Y-31716315D01*
X38483706Y-31663511D01*
X38472500Y-31612000D01*
X38472500Y-31429275D01*
X38472500Y-31429273D01*
X38445207Y-31327413D01*
X38445207Y-31327412D01*
X38392480Y-31236087D01*
X37301913Y-30145520D01*
X37256250Y-30119156D01*
X37210589Y-30092793D01*
X37159657Y-30079146D01*
X37108727Y-30065500D01*
X35330727Y-30065500D01*
X35225273Y-30065500D01*
X35123410Y-30092793D01*
X35032087Y-30145520D01*
X35032084Y-30145522D01*
X33753657Y-31423950D01*
X33692334Y-31457435D01*
X33665976Y-31460269D01*
X33209189Y-31460269D01*
X33142150Y-31440584D01*
X33126962Y-31429085D01*
X33123750Y-31426240D01*
X33123750Y-31426239D01*
X33005507Y-31321486D01*
X33005505Y-31321485D01*
X33005504Y-31321484D01*
X32865632Y-31248072D01*
X32712253Y-31210269D01*
X32712252Y-31210269D01*
X32554282Y-31210269D01*
X32554281Y-31210269D01*
X32400901Y-31248072D01*
X32261029Y-31321484D01*
X32142783Y-31426240D01*
X32053048Y-31556244D01*
X32053047Y-31556245D01*
X31997029Y-31703950D01*
X31977989Y-31860768D01*
X31977989Y-31860769D01*
X31997029Y-32017587D01*
X32017303Y-32071043D01*
X32053047Y-32165292D01*
X32142784Y-32295299D01*
X32261027Y-32400052D01*
X32261029Y-32400053D01*
X32400901Y-32473465D01*
X32554281Y-32511269D01*
X32554282Y-32511269D01*
X32712252Y-32511269D01*
X32865632Y-32473465D01*
X33005507Y-32400052D01*
X33123750Y-32295299D01*
X33123750Y-32295297D01*
X33126962Y-32292453D01*
X33190196Y-32262732D01*
X33209189Y-32261269D01*
X33935956Y-32261269D01*
X33935958Y-32261269D01*
X34037819Y-32233976D01*
X34129144Y-32181249D01*
X35407574Y-30902819D01*
X35468897Y-30869334D01*
X35495255Y-30866500D01*
X36838745Y-30866500D01*
X36905784Y-30886185D01*
X36926426Y-30902819D01*
X37286293Y-31262686D01*
X37319778Y-31324009D01*
X37314794Y-31393701D01*
X37272922Y-31449634D01*
X37207458Y-31474051D01*
X37162617Y-31469028D01*
X37068848Y-31440584D01*
X37065934Y-31439700D01*
X37065932Y-31439699D01*
X37065934Y-31439699D01*
X36946805Y-31427966D01*
X36911608Y-31424500D01*
X36808392Y-31424500D01*
X36770298Y-31428251D01*
X36654067Y-31439699D01*
X36456043Y-31499769D01*
X36273546Y-31597317D01*
X36138858Y-31707853D01*
X36074548Y-31735166D01*
X36060193Y-31736000D01*
X36040000Y-31736000D01*
X36040000Y-31773892D01*
X36020315Y-31840931D01*
X36011854Y-31852556D01*
X35982317Y-31888547D01*
X35884769Y-32071043D01*
X35824699Y-32269067D01*
X35809500Y-32423395D01*
X35809500Y-38200500D01*
X35789815Y-38267539D01*
X35737011Y-38313294D01*
X35685500Y-38324500D01*
X34680965Y-38324500D01*
X34613926Y-38304815D01*
X34593284Y-38288181D01*
X31853219Y-35548116D01*
X31819734Y-35486793D01*
X31816900Y-35460435D01*
X31816900Y-34039759D01*
X31836585Y-33972720D01*
X31852246Y-33954444D01*
X31851909Y-33954145D01*
X31856881Y-33948532D01*
X31856881Y-33948531D01*
X31856883Y-33948530D01*
X31946620Y-33818523D01*
X32002637Y-33670818D01*
X32021678Y-33514000D01*
X32002637Y-33357182D01*
X31946620Y-33209477D01*
X31856883Y-33079470D01*
X31738640Y-32974717D01*
X31738638Y-32974716D01*
X31738637Y-32974715D01*
X31598765Y-32901303D01*
X31445386Y-32863500D01*
X31445385Y-32863500D01*
X31287415Y-32863500D01*
X31287414Y-32863500D01*
X31134034Y-32901303D01*
X30994162Y-32974715D01*
X30875916Y-33079471D01*
X30786181Y-33209475D01*
X30786180Y-33209476D01*
X30730162Y-33357181D01*
X30711122Y-33513999D01*
X29550500Y-33513999D01*
X29550500Y-30634980D01*
X29570185Y-30567941D01*
X29612500Y-30527593D01*
X30218753Y-30177573D01*
X35866034Y-26917112D01*
X35928034Y-26900500D01*
X42871966Y-26900500D01*
X42933965Y-26917112D01*
G37*
%TD.AperFunction*%
%TD*%
%TA.AperFunction,Conductor*%
%TO.N,Board_1-GND*%
G36*
X42933965Y-7417112D02*
G01*
X48581247Y-10677573D01*
X49187500Y-11027593D01*
X49235716Y-11078160D01*
X49249500Y-11134980D01*
X49249500Y-14416739D01*
X49249500Y-14522193D01*
X49276793Y-14624053D01*
X49329520Y-14715379D01*
X49404087Y-14789946D01*
X49737500Y-14982441D01*
X49785715Y-15033008D01*
X49799500Y-15089828D01*
X49799500Y-18410170D01*
X49779815Y-18477209D01*
X49737500Y-18517557D01*
X49406969Y-18708389D01*
X49406967Y-18708391D01*
X49404588Y-18709764D01*
X49404085Y-18710055D01*
X49329520Y-18784621D01*
X49276794Y-18875944D01*
X49276793Y-18875947D01*
X49249500Y-18977807D01*
X49249500Y-22365018D01*
X49229815Y-22432057D01*
X49187500Y-22472405D01*
X42933966Y-26082887D01*
X42871966Y-26099500D01*
X35928034Y-26099500D01*
X35866034Y-26082887D01*
X29612500Y-22472405D01*
X29564284Y-22421838D01*
X29550500Y-22365018D01*
X29550500Y-18977809D01*
X29550500Y-18977807D01*
X29523207Y-18875947D01*
X29470480Y-18784621D01*
X29395913Y-18710054D01*
X29393033Y-18708391D01*
X29393030Y-18708389D01*
X29062500Y-18517557D01*
X29014284Y-18466990D01*
X29000500Y-18410170D01*
X29000500Y-15089828D01*
X29020185Y-15022789D01*
X29062498Y-14982442D01*
X29395913Y-14789946D01*
X29470480Y-14715379D01*
X29523207Y-14624053D01*
X29550500Y-14522193D01*
X29550500Y-14013999D01*
X30711122Y-14013999D01*
X30711122Y-14014000D01*
X30730162Y-14170818D01*
X30786180Y-14318523D01*
X30786181Y-14318524D01*
X30875918Y-14448532D01*
X30880891Y-14454145D01*
X30879444Y-14455426D01*
X30911250Y-14506120D01*
X30915900Y-14539759D01*
X30915900Y-16257708D01*
X30940112Y-16348072D01*
X30946600Y-16372285D01*
X30946600Y-16372286D01*
X30946601Y-16372287D01*
X31005911Y-16475014D01*
X34166386Y-19635489D01*
X34198317Y-19653924D01*
X34269114Y-19694799D01*
X34383691Y-19725500D01*
X35685500Y-19725500D01*
X35752539Y-19745185D01*
X35798294Y-19797989D01*
X35809500Y-19849500D01*
X35809500Y-20576604D01*
X35824699Y-20730932D01*
X35824700Y-20730934D01*
X35884768Y-20928954D01*
X35982315Y-21111450D01*
X36011853Y-21147442D01*
X36039166Y-21211751D01*
X36040000Y-21226107D01*
X36040000Y-21380000D01*
X36201984Y-21380000D01*
X36269023Y-21399685D01*
X36270877Y-21400900D01*
X36273548Y-21402685D01*
X36456041Y-21500230D01*
X36456043Y-21500230D01*
X36456046Y-21500232D01*
X36654066Y-21560300D01*
X36654065Y-21560300D01*
X36692647Y-21564100D01*
X36808392Y-21575500D01*
X36808395Y-21575500D01*
X36911605Y-21575500D01*
X36911608Y-21575500D01*
X37065934Y-21560300D01*
X37263954Y-21500232D01*
X37263958Y-21500230D01*
X37446451Y-21402685D01*
X37449123Y-21400900D01*
X37450736Y-21400394D01*
X37451823Y-21399814D01*
X37451933Y-21400019D01*
X37515799Y-21380020D01*
X37518016Y-21380000D01*
X38741984Y-21380000D01*
X38809023Y-21399685D01*
X38810877Y-21400900D01*
X38813548Y-21402685D01*
X38996041Y-21500230D01*
X38996043Y-21500230D01*
X38996046Y-21500232D01*
X39194066Y-21560300D01*
X39194065Y-21560300D01*
X39232647Y-21564100D01*
X39348392Y-21575500D01*
X39348395Y-21575500D01*
X39451605Y-21575500D01*
X39451608Y-21575500D01*
X39605934Y-21560300D01*
X39803954Y-21500232D01*
X39803958Y-21500230D01*
X39986451Y-21402685D01*
X39989123Y-21400900D01*
X39990736Y-21400394D01*
X39991823Y-21399814D01*
X39991933Y-21400019D01*
X40055799Y-21380020D01*
X40058016Y-21380000D01*
X40104000Y-21380000D01*
X40104000Y-21364863D01*
X40123685Y-21297824D01*
X40142770Y-21276387D01*
X40142102Y-21275719D01*
X40146407Y-21271413D01*
X40146408Y-21271411D01*
X40146410Y-21271410D01*
X40277685Y-21111450D01*
X40375232Y-20928954D01*
X40435300Y-20730934D01*
X40450500Y-20576608D01*
X40450500Y-17973392D01*
X40435300Y-17819066D01*
X40375232Y-17621046D01*
X40277685Y-17438550D01*
X40257276Y-17413682D01*
X40255211Y-17411165D01*
X40227898Y-17346855D01*
X40239689Y-17277988D01*
X40286841Y-17226427D01*
X40351064Y-17208500D01*
X42391420Y-17208500D01*
X42458459Y-17228185D01*
X42466907Y-17234124D01*
X42469716Y-17236279D01*
X42469718Y-17236282D01*
X42595159Y-17332536D01*
X42741238Y-17393044D01*
X42819619Y-17403363D01*
X42897999Y-17413682D01*
X42898000Y-17413682D01*
X42898001Y-17413682D01*
X42950254Y-17406802D01*
X43054762Y-17393044D01*
X43200841Y-17332536D01*
X43326282Y-17236282D01*
X43422536Y-17110841D01*
X43483044Y-16964762D01*
X43503682Y-16808000D01*
X43483044Y-16651238D01*
X43422536Y-16505159D01*
X43326282Y-16379718D01*
X43200841Y-16283464D01*
X43158324Y-16265853D01*
X43054762Y-16222956D01*
X43054760Y-16222955D01*
X42898001Y-16202318D01*
X42897999Y-16202318D01*
X42741239Y-16222955D01*
X42741237Y-16222956D01*
X42595160Y-16283463D01*
X42595159Y-16283464D01*
X42469718Y-16379718D01*
X42469716Y-16379720D01*
X42466907Y-16381876D01*
X42401737Y-16407070D01*
X42391420Y-16407500D01*
X40255866Y-16407500D01*
X40188827Y-16387815D01*
X40143072Y-16335011D01*
X40133128Y-16265853D01*
X40160013Y-16204835D01*
X40204733Y-16150342D01*
X40277685Y-16061450D01*
X40375232Y-15878954D01*
X40435300Y-15680934D01*
X40450500Y-15526608D01*
X40450500Y-12923392D01*
X40435300Y-12769066D01*
X40375232Y-12571046D01*
X40277685Y-12388550D01*
X40220000Y-12318260D01*
X40146410Y-12228589D01*
X39986452Y-12097317D01*
X39986453Y-12097317D01*
X39986450Y-12097315D01*
X39803954Y-11999768D01*
X39605934Y-11939700D01*
X39605932Y-11939699D01*
X39605934Y-11939699D01*
X39486805Y-11927966D01*
X39451608Y-11924500D01*
X39348392Y-11924500D01*
X39310298Y-11928251D01*
X39194067Y-11939699D01*
X38996043Y-11999769D01*
X38813546Y-12097317D01*
X38678858Y-12207853D01*
X38614548Y-12235166D01*
X38600193Y-12236000D01*
X38596500Y-12236000D01*
X38529461Y-12216315D01*
X38483706Y-12163511D01*
X38472500Y-12112000D01*
X38472500Y-11929275D01*
X38472500Y-11929273D01*
X38445207Y-11827413D01*
X38445207Y-11827412D01*
X38392480Y-11736087D01*
X37301913Y-10645520D01*
X37256250Y-10619156D01*
X37210589Y-10592793D01*
X37159657Y-10579146D01*
X37108727Y-10565500D01*
X35330727Y-10565500D01*
X35225273Y-10565500D01*
X35123410Y-10592793D01*
X35032087Y-10645520D01*
X35032084Y-10645522D01*
X33753657Y-11923950D01*
X33692334Y-11957435D01*
X33665976Y-11960269D01*
X33209189Y-11960269D01*
X33142150Y-11940584D01*
X33126962Y-11929085D01*
X33123750Y-11926240D01*
X33123750Y-11926239D01*
X33005507Y-11821486D01*
X33005505Y-11821485D01*
X33005504Y-11821484D01*
X32865632Y-11748072D01*
X32712253Y-11710269D01*
X32712252Y-11710269D01*
X32554282Y-11710269D01*
X32554281Y-11710269D01*
X32400901Y-11748072D01*
X32261029Y-11821484D01*
X32142783Y-11926240D01*
X32053048Y-12056244D01*
X32053047Y-12056245D01*
X31997029Y-12203950D01*
X31977989Y-12360768D01*
X31977989Y-12360769D01*
X31997029Y-12517587D01*
X32017303Y-12571043D01*
X32053047Y-12665292D01*
X32142784Y-12795299D01*
X32261027Y-12900052D01*
X32261029Y-12900053D01*
X32400901Y-12973465D01*
X32554281Y-13011269D01*
X32554282Y-13011269D01*
X32712252Y-13011269D01*
X32865632Y-12973465D01*
X33005507Y-12900052D01*
X33123750Y-12795299D01*
X33123750Y-12795297D01*
X33126962Y-12792453D01*
X33190196Y-12762732D01*
X33209189Y-12761269D01*
X33935956Y-12761269D01*
X33935958Y-12761269D01*
X34037819Y-12733976D01*
X34129144Y-12681249D01*
X35407574Y-11402819D01*
X35468897Y-11369334D01*
X35495255Y-11366500D01*
X36838745Y-11366500D01*
X36905784Y-11386185D01*
X36926426Y-11402819D01*
X37286293Y-11762686D01*
X37319778Y-11824009D01*
X37314794Y-11893701D01*
X37272922Y-11949634D01*
X37207458Y-11974051D01*
X37162617Y-11969028D01*
X37068848Y-11940584D01*
X37065934Y-11939700D01*
X37065932Y-11939699D01*
X37065934Y-11939699D01*
X36946805Y-11927966D01*
X36911608Y-11924500D01*
X36808392Y-11924500D01*
X36770298Y-11928251D01*
X36654067Y-11939699D01*
X36456043Y-11999769D01*
X36273546Y-12097317D01*
X36138858Y-12207853D01*
X36074548Y-12235166D01*
X36060193Y-12236000D01*
X36040000Y-12236000D01*
X36040000Y-12273892D01*
X36020315Y-12340931D01*
X36011854Y-12352556D01*
X35982317Y-12388547D01*
X35884769Y-12571043D01*
X35824699Y-12769067D01*
X35809500Y-12923395D01*
X35809500Y-18700500D01*
X35789815Y-18767539D01*
X35737011Y-18813294D01*
X35685500Y-18824500D01*
X34680965Y-18824500D01*
X34613926Y-18804815D01*
X34593284Y-18788181D01*
X31853219Y-16048116D01*
X31819734Y-15986793D01*
X31816900Y-15960435D01*
X31816900Y-14539759D01*
X31836585Y-14472720D01*
X31852246Y-14454444D01*
X31851909Y-14454145D01*
X31856881Y-14448532D01*
X31856881Y-14448531D01*
X31856883Y-14448530D01*
X31946620Y-14318523D01*
X32002637Y-14170818D01*
X32021678Y-14014000D01*
X32002637Y-13857182D01*
X31946620Y-13709477D01*
X31856883Y-13579470D01*
X31738640Y-13474717D01*
X31738638Y-13474716D01*
X31738637Y-13474715D01*
X31598765Y-13401303D01*
X31445386Y-13363500D01*
X31445385Y-13363500D01*
X31287415Y-13363500D01*
X31287414Y-13363500D01*
X31134034Y-13401303D01*
X30994162Y-13474715D01*
X30875916Y-13579471D01*
X30786181Y-13709475D01*
X30786180Y-13709476D01*
X30730162Y-13857181D01*
X30711122Y-14013999D01*
X29550500Y-14013999D01*
X29550500Y-11134980D01*
X29570185Y-11067941D01*
X29612500Y-11027593D01*
X30218753Y-10677573D01*
X35866034Y-7417112D01*
X35928034Y-7400500D01*
X42871966Y-7400500D01*
X42933965Y-7417112D01*
G37*
%TD.AperFunction*%
%TD*%
%TA.AperFunction,Conductor*%
%TO.N,Board_0-GND*%
G36*
X21333965Y-7417112D02*
G01*
X26981247Y-10677573D01*
X27587500Y-11027593D01*
X27635716Y-11078160D01*
X27649500Y-11134980D01*
X27649500Y-14416739D01*
X27649500Y-14522193D01*
X27676793Y-14624053D01*
X27729520Y-14715379D01*
X27804087Y-14789946D01*
X28137500Y-14982441D01*
X28185715Y-15033008D01*
X28199500Y-15089828D01*
X28199500Y-18410170D01*
X28179815Y-18477209D01*
X28137500Y-18517557D01*
X27806969Y-18708389D01*
X27806967Y-18708391D01*
X27804588Y-18709764D01*
X27804085Y-18710055D01*
X27729520Y-18784621D01*
X27676794Y-18875944D01*
X27676793Y-18875947D01*
X27649500Y-18977807D01*
X27649500Y-22365018D01*
X27629815Y-22432057D01*
X27587500Y-22472405D01*
X21333966Y-26082887D01*
X21271966Y-26099500D01*
X14328034Y-26099500D01*
X14266034Y-26082887D01*
X8012500Y-22472405D01*
X7964284Y-22421838D01*
X7950500Y-22365018D01*
X7950500Y-18977809D01*
X7950500Y-18977807D01*
X7923207Y-18875947D01*
X7870480Y-18784621D01*
X7795913Y-18710054D01*
X7793033Y-18708391D01*
X7793030Y-18708389D01*
X7462500Y-18517557D01*
X7414284Y-18466990D01*
X7400500Y-18410170D01*
X7400500Y-15089828D01*
X7420185Y-15022789D01*
X7462498Y-14982442D01*
X7795913Y-14789946D01*
X7870480Y-14715379D01*
X7923207Y-14624053D01*
X7950500Y-14522193D01*
X7950500Y-14013999D01*
X9111122Y-14013999D01*
X9111122Y-14014000D01*
X9130162Y-14170818D01*
X9186180Y-14318523D01*
X9186181Y-14318524D01*
X9275918Y-14448532D01*
X9280891Y-14454145D01*
X9279444Y-14455426D01*
X9311250Y-14506120D01*
X9315900Y-14539759D01*
X9315900Y-16257708D01*
X9340112Y-16348072D01*
X9346600Y-16372285D01*
X9346600Y-16372286D01*
X9346601Y-16372287D01*
X9405911Y-16475014D01*
X12566386Y-19635489D01*
X12598317Y-19653924D01*
X12669114Y-19694799D01*
X12783691Y-19725500D01*
X14085500Y-19725500D01*
X14152539Y-19745185D01*
X14198294Y-19797989D01*
X14209500Y-19849500D01*
X14209500Y-20576604D01*
X14224699Y-20730932D01*
X14224700Y-20730934D01*
X14284768Y-20928954D01*
X14382315Y-21111450D01*
X14411853Y-21147442D01*
X14439166Y-21211751D01*
X14440000Y-21226107D01*
X14440000Y-21380000D01*
X14601984Y-21380000D01*
X14669023Y-21399685D01*
X14670877Y-21400900D01*
X14673548Y-21402685D01*
X14856041Y-21500230D01*
X14856043Y-21500230D01*
X14856046Y-21500232D01*
X15054066Y-21560300D01*
X15054065Y-21560300D01*
X15092647Y-21564100D01*
X15208392Y-21575500D01*
X15208395Y-21575500D01*
X15311605Y-21575500D01*
X15311608Y-21575500D01*
X15465934Y-21560300D01*
X15663954Y-21500232D01*
X15663958Y-21500230D01*
X15846451Y-21402685D01*
X15849123Y-21400900D01*
X15850736Y-21400394D01*
X15851823Y-21399814D01*
X15851933Y-21400019D01*
X15915799Y-21380020D01*
X15918016Y-21380000D01*
X17141984Y-21380000D01*
X17209023Y-21399685D01*
X17210877Y-21400900D01*
X17213548Y-21402685D01*
X17396041Y-21500230D01*
X17396043Y-21500230D01*
X17396046Y-21500232D01*
X17594066Y-21560300D01*
X17594065Y-21560300D01*
X17632647Y-21564100D01*
X17748392Y-21575500D01*
X17748395Y-21575500D01*
X17851605Y-21575500D01*
X17851608Y-21575500D01*
X18005934Y-21560300D01*
X18203954Y-21500232D01*
X18203958Y-21500230D01*
X18386451Y-21402685D01*
X18389123Y-21400900D01*
X18390736Y-21400394D01*
X18391823Y-21399814D01*
X18391933Y-21400019D01*
X18455799Y-21380020D01*
X18458016Y-21380000D01*
X18504000Y-21380000D01*
X18504000Y-21364863D01*
X18523685Y-21297824D01*
X18542770Y-21276387D01*
X18542102Y-21275719D01*
X18546407Y-21271413D01*
X18546408Y-21271411D01*
X18546410Y-21271410D01*
X18677685Y-21111450D01*
X18775232Y-20928954D01*
X18835300Y-20730934D01*
X18850500Y-20576608D01*
X18850500Y-17973392D01*
X18835300Y-17819066D01*
X18775232Y-17621046D01*
X18677685Y-17438550D01*
X18657276Y-17413682D01*
X18655211Y-17411165D01*
X18627898Y-17346855D01*
X18639689Y-17277988D01*
X18686841Y-17226427D01*
X18751064Y-17208500D01*
X20791420Y-17208500D01*
X20858459Y-17228185D01*
X20866907Y-17234124D01*
X20869716Y-17236279D01*
X20869718Y-17236282D01*
X20995159Y-17332536D01*
X21141238Y-17393044D01*
X21219619Y-17403363D01*
X21297999Y-17413682D01*
X21298000Y-17413682D01*
X21298001Y-17413682D01*
X21350254Y-17406802D01*
X21454762Y-17393044D01*
X21600841Y-17332536D01*
X21726282Y-17236282D01*
X21822536Y-17110841D01*
X21883044Y-16964762D01*
X21903682Y-16808000D01*
X21883044Y-16651238D01*
X21822536Y-16505159D01*
X21726282Y-16379718D01*
X21600841Y-16283464D01*
X21558324Y-16265853D01*
X21454762Y-16222956D01*
X21454760Y-16222955D01*
X21298001Y-16202318D01*
X21297999Y-16202318D01*
X21141239Y-16222955D01*
X21141237Y-16222956D01*
X20995160Y-16283463D01*
X20995159Y-16283464D01*
X20869718Y-16379718D01*
X20869716Y-16379720D01*
X20866907Y-16381876D01*
X20801737Y-16407070D01*
X20791420Y-16407500D01*
X18655866Y-16407500D01*
X18588827Y-16387815D01*
X18543072Y-16335011D01*
X18533128Y-16265853D01*
X18560013Y-16204835D01*
X18604733Y-16150342D01*
X18677685Y-16061450D01*
X18775232Y-15878954D01*
X18835300Y-15680934D01*
X18850500Y-15526608D01*
X18850500Y-12923392D01*
X18835300Y-12769066D01*
X18775232Y-12571046D01*
X18677685Y-12388550D01*
X18620000Y-12318260D01*
X18546410Y-12228589D01*
X18386452Y-12097317D01*
X18386453Y-12097317D01*
X18386450Y-12097315D01*
X18203954Y-11999768D01*
X18005934Y-11939700D01*
X18005932Y-11939699D01*
X18005934Y-11939699D01*
X17886805Y-11927966D01*
X17851608Y-11924500D01*
X17748392Y-11924500D01*
X17710298Y-11928251D01*
X17594067Y-11939699D01*
X17396043Y-11999769D01*
X17213546Y-12097317D01*
X17078858Y-12207853D01*
X17014548Y-12235166D01*
X17000193Y-12236000D01*
X16996500Y-12236000D01*
X16929461Y-12216315D01*
X16883706Y-12163511D01*
X16872500Y-12112000D01*
X16872500Y-11929275D01*
X16872500Y-11929273D01*
X16845207Y-11827413D01*
X16845207Y-11827412D01*
X16792480Y-11736087D01*
X15701913Y-10645520D01*
X15656250Y-10619156D01*
X15610589Y-10592793D01*
X15559657Y-10579146D01*
X15508727Y-10565500D01*
X13730727Y-10565500D01*
X13625273Y-10565500D01*
X13523410Y-10592793D01*
X13432087Y-10645520D01*
X13432084Y-10645522D01*
X12153657Y-11923950D01*
X12092334Y-11957435D01*
X12065976Y-11960269D01*
X11609189Y-11960269D01*
X11542150Y-11940584D01*
X11526962Y-11929085D01*
X11523750Y-11926240D01*
X11523750Y-11926239D01*
X11405507Y-11821486D01*
X11405505Y-11821485D01*
X11405504Y-11821484D01*
X11265632Y-11748072D01*
X11112253Y-11710269D01*
X11112252Y-11710269D01*
X10954282Y-11710269D01*
X10954281Y-11710269D01*
X10800901Y-11748072D01*
X10661029Y-11821484D01*
X10542783Y-11926240D01*
X10453048Y-12056244D01*
X10453047Y-12056245D01*
X10397029Y-12203950D01*
X10377989Y-12360768D01*
X10377989Y-12360769D01*
X10397029Y-12517587D01*
X10417303Y-12571043D01*
X10453047Y-12665292D01*
X10542784Y-12795299D01*
X10661027Y-12900052D01*
X10661029Y-12900053D01*
X10800901Y-12973465D01*
X10954281Y-13011269D01*
X10954282Y-13011269D01*
X11112252Y-13011269D01*
X11265632Y-12973465D01*
X11405507Y-12900052D01*
X11523750Y-12795299D01*
X11523750Y-12795297D01*
X11526962Y-12792453D01*
X11590196Y-12762732D01*
X11609189Y-12761269D01*
X12335956Y-12761269D01*
X12335958Y-12761269D01*
X12437819Y-12733976D01*
X12529144Y-12681249D01*
X13807574Y-11402819D01*
X13868897Y-11369334D01*
X13895255Y-11366500D01*
X15238745Y-11366500D01*
X15305784Y-11386185D01*
X15326426Y-11402819D01*
X15686293Y-11762686D01*
X15719778Y-11824009D01*
X15714794Y-11893701D01*
X15672922Y-11949634D01*
X15607458Y-11974051D01*
X15562617Y-11969028D01*
X15468848Y-11940584D01*
X15465934Y-11939700D01*
X15465932Y-11939699D01*
X15465934Y-11939699D01*
X15346805Y-11927966D01*
X15311608Y-11924500D01*
X15208392Y-11924500D01*
X15170298Y-11928251D01*
X15054067Y-11939699D01*
X14856043Y-11999769D01*
X14673546Y-12097317D01*
X14538858Y-12207853D01*
X14474548Y-12235166D01*
X14460193Y-12236000D01*
X14440000Y-12236000D01*
X14440000Y-12273892D01*
X14420315Y-12340931D01*
X14411854Y-12352556D01*
X14382317Y-12388547D01*
X14284769Y-12571043D01*
X14224699Y-12769067D01*
X14209500Y-12923395D01*
X14209500Y-18700500D01*
X14189815Y-18767539D01*
X14137011Y-18813294D01*
X14085500Y-18824500D01*
X13080965Y-18824500D01*
X13013926Y-18804815D01*
X12993284Y-18788181D01*
X10253219Y-16048116D01*
X10219734Y-15986793D01*
X10216900Y-15960435D01*
X10216900Y-14539759D01*
X10236585Y-14472720D01*
X10252246Y-14454444D01*
X10251909Y-14454145D01*
X10256881Y-14448532D01*
X10256881Y-14448531D01*
X10256883Y-14448530D01*
X10346620Y-14318523D01*
X10402637Y-14170818D01*
X10421678Y-14014000D01*
X10402637Y-13857182D01*
X10346620Y-13709477D01*
X10256883Y-13579470D01*
X10138640Y-13474717D01*
X10138638Y-13474716D01*
X10138637Y-13474715D01*
X9998765Y-13401303D01*
X9845386Y-13363500D01*
X9845385Y-13363500D01*
X9687415Y-13363500D01*
X9687414Y-13363500D01*
X9534034Y-13401303D01*
X9394162Y-13474715D01*
X9275916Y-13579471D01*
X9186181Y-13709475D01*
X9186180Y-13709476D01*
X9130162Y-13857181D01*
X9111122Y-14013999D01*
X7950500Y-14013999D01*
X7950500Y-11134980D01*
X7970185Y-11067941D01*
X8012500Y-11027593D01*
X8618753Y-10677573D01*
X14266034Y-7417112D01*
X14328034Y-7400500D01*
X21271966Y-7400500D01*
X21333965Y-7417112D01*
G37*
%TD.AperFunction*%
%TD*%
%TA.AperFunction,Conductor*%
%TO.N,Board_8-GND*%
G36*
X64533965Y-46417112D02*
G01*
X70181247Y-49677573D01*
X70787500Y-50027593D01*
X70835716Y-50078160D01*
X70849500Y-50134980D01*
X70849500Y-53416739D01*
X70849500Y-53522193D01*
X70876793Y-53624053D01*
X70929520Y-53715379D01*
X71004087Y-53789946D01*
X71337500Y-53982441D01*
X71385715Y-54033008D01*
X71399500Y-54089828D01*
X71399500Y-57410170D01*
X71379815Y-57477209D01*
X71337500Y-57517557D01*
X71006969Y-57708389D01*
X71006967Y-57708391D01*
X71004588Y-57709764D01*
X71004085Y-57710055D01*
X70929520Y-57784621D01*
X70876794Y-57875944D01*
X70876793Y-57875947D01*
X70849500Y-57977807D01*
X70849500Y-61365018D01*
X70829815Y-61432057D01*
X70787500Y-61472405D01*
X64533966Y-65082887D01*
X64471966Y-65099500D01*
X57528034Y-65099500D01*
X57466034Y-65082887D01*
X51212500Y-61472405D01*
X51164284Y-61421838D01*
X51150500Y-61365018D01*
X51150500Y-57977809D01*
X51150500Y-57977807D01*
X51123207Y-57875947D01*
X51070480Y-57784621D01*
X50995913Y-57710054D01*
X50993033Y-57708391D01*
X50993030Y-57708389D01*
X50662500Y-57517557D01*
X50614284Y-57466990D01*
X50600500Y-57410170D01*
X50600500Y-54089828D01*
X50620185Y-54022789D01*
X50662498Y-53982442D01*
X50995913Y-53789946D01*
X51070480Y-53715379D01*
X51123207Y-53624053D01*
X51150500Y-53522193D01*
X51150500Y-53013999D01*
X52311122Y-53013999D01*
X52311122Y-53014000D01*
X52330162Y-53170818D01*
X52386180Y-53318523D01*
X52386181Y-53318524D01*
X52475918Y-53448532D01*
X52480891Y-53454145D01*
X52479444Y-53455426D01*
X52511250Y-53506120D01*
X52515900Y-53539759D01*
X52515900Y-55257708D01*
X52540112Y-55348072D01*
X52546600Y-55372285D01*
X52546600Y-55372286D01*
X52546601Y-55372287D01*
X52605911Y-55475014D01*
X55766386Y-58635489D01*
X55798317Y-58653924D01*
X55869114Y-58694799D01*
X55983691Y-58725500D01*
X57285500Y-58725500D01*
X57352539Y-58745185D01*
X57398294Y-58797989D01*
X57409500Y-58849500D01*
X57409500Y-59576604D01*
X57424699Y-59730932D01*
X57424700Y-59730934D01*
X57484768Y-59928954D01*
X57582315Y-60111450D01*
X57611853Y-60147442D01*
X57639166Y-60211751D01*
X57640000Y-60226107D01*
X57640000Y-60380000D01*
X57801984Y-60380000D01*
X57869023Y-60399685D01*
X57870877Y-60400900D01*
X57873548Y-60402685D01*
X58056041Y-60500230D01*
X58056043Y-60500230D01*
X58056046Y-60500232D01*
X58254066Y-60560300D01*
X58254065Y-60560300D01*
X58292647Y-60564100D01*
X58408392Y-60575500D01*
X58408395Y-60575500D01*
X58511605Y-60575500D01*
X58511608Y-60575500D01*
X58665934Y-60560300D01*
X58863954Y-60500232D01*
X58863958Y-60500230D01*
X59046451Y-60402685D01*
X59049123Y-60400900D01*
X59050736Y-60400394D01*
X59051823Y-60399814D01*
X59051933Y-60400019D01*
X59115799Y-60380020D01*
X59118016Y-60380000D01*
X60341984Y-60380000D01*
X60409023Y-60399685D01*
X60410877Y-60400900D01*
X60413548Y-60402685D01*
X60596041Y-60500230D01*
X60596043Y-60500230D01*
X60596046Y-60500232D01*
X60794066Y-60560300D01*
X60794065Y-60560300D01*
X60832647Y-60564100D01*
X60948392Y-60575500D01*
X60948395Y-60575500D01*
X61051605Y-60575500D01*
X61051608Y-60575500D01*
X61205934Y-60560300D01*
X61403954Y-60500232D01*
X61403958Y-60500230D01*
X61586451Y-60402685D01*
X61589123Y-60400900D01*
X61590736Y-60400394D01*
X61591823Y-60399814D01*
X61591933Y-60400019D01*
X61655799Y-60380020D01*
X61658016Y-60380000D01*
X61704000Y-60380000D01*
X61704000Y-60364863D01*
X61723685Y-60297824D01*
X61742770Y-60276387D01*
X61742102Y-60275719D01*
X61746407Y-60271413D01*
X61746408Y-60271411D01*
X61746410Y-60271410D01*
X61877685Y-60111450D01*
X61975232Y-59928954D01*
X62035300Y-59730934D01*
X62050500Y-59576608D01*
X62050500Y-56973392D01*
X62035300Y-56819066D01*
X61975232Y-56621046D01*
X61877685Y-56438550D01*
X61857276Y-56413682D01*
X61855211Y-56411165D01*
X61827898Y-56346855D01*
X61839689Y-56277988D01*
X61886841Y-56226427D01*
X61951064Y-56208500D01*
X63991420Y-56208500D01*
X64058459Y-56228185D01*
X64066907Y-56234124D01*
X64069716Y-56236279D01*
X64069718Y-56236282D01*
X64195159Y-56332536D01*
X64341238Y-56393044D01*
X64419619Y-56403363D01*
X64497999Y-56413682D01*
X64498000Y-56413682D01*
X64498001Y-56413682D01*
X64550254Y-56406802D01*
X64654762Y-56393044D01*
X64800841Y-56332536D01*
X64926282Y-56236282D01*
X65022536Y-56110841D01*
X65083044Y-55964762D01*
X65103682Y-55808000D01*
X65083044Y-55651238D01*
X65022536Y-55505159D01*
X64926282Y-55379718D01*
X64800841Y-55283464D01*
X64758324Y-55265853D01*
X64654762Y-55222956D01*
X64654760Y-55222955D01*
X64498001Y-55202318D01*
X64497999Y-55202318D01*
X64341239Y-55222955D01*
X64341237Y-55222956D01*
X64195160Y-55283463D01*
X64195159Y-55283464D01*
X64069718Y-55379718D01*
X64069716Y-55379720D01*
X64066907Y-55381876D01*
X64001737Y-55407070D01*
X63991420Y-55407500D01*
X61855866Y-55407500D01*
X61788827Y-55387815D01*
X61743072Y-55335011D01*
X61733128Y-55265853D01*
X61760013Y-55204835D01*
X61804733Y-55150342D01*
X61877685Y-55061450D01*
X61975232Y-54878954D01*
X62035300Y-54680934D01*
X62050500Y-54526608D01*
X62050500Y-51923392D01*
X62035300Y-51769066D01*
X61975232Y-51571046D01*
X61877685Y-51388550D01*
X61820000Y-51318260D01*
X61746410Y-51228589D01*
X61586452Y-51097317D01*
X61586453Y-51097317D01*
X61586450Y-51097315D01*
X61403954Y-50999768D01*
X61205934Y-50939700D01*
X61205932Y-50939699D01*
X61205934Y-50939699D01*
X61086805Y-50927966D01*
X61051608Y-50924500D01*
X60948392Y-50924500D01*
X60910298Y-50928251D01*
X60794067Y-50939699D01*
X60596043Y-50999769D01*
X60413546Y-51097317D01*
X60278858Y-51207853D01*
X60214548Y-51235166D01*
X60200193Y-51236000D01*
X60196500Y-51236000D01*
X60129461Y-51216315D01*
X60083706Y-51163511D01*
X60072500Y-51112000D01*
X60072500Y-50929275D01*
X60072500Y-50929273D01*
X60045207Y-50827413D01*
X60045207Y-50827412D01*
X59992480Y-50736087D01*
X58901913Y-49645520D01*
X58856250Y-49619156D01*
X58810589Y-49592793D01*
X58759657Y-49579146D01*
X58708727Y-49565500D01*
X56930727Y-49565500D01*
X56825273Y-49565500D01*
X56723410Y-49592793D01*
X56632087Y-49645520D01*
X56632084Y-49645522D01*
X55353657Y-50923950D01*
X55292334Y-50957435D01*
X55265976Y-50960269D01*
X54809189Y-50960269D01*
X54742150Y-50940584D01*
X54726962Y-50929085D01*
X54723750Y-50926240D01*
X54723750Y-50926239D01*
X54605507Y-50821486D01*
X54605505Y-50821485D01*
X54605504Y-50821484D01*
X54465632Y-50748072D01*
X54312253Y-50710269D01*
X54312252Y-50710269D01*
X54154282Y-50710269D01*
X54154281Y-50710269D01*
X54000901Y-50748072D01*
X53861029Y-50821484D01*
X53742783Y-50926240D01*
X53653048Y-51056244D01*
X53653047Y-51056245D01*
X53597029Y-51203950D01*
X53577989Y-51360768D01*
X53577989Y-51360769D01*
X53597029Y-51517587D01*
X53617303Y-51571043D01*
X53653047Y-51665292D01*
X53742784Y-51795299D01*
X53861027Y-51900052D01*
X53861029Y-51900053D01*
X54000901Y-51973465D01*
X54154281Y-52011269D01*
X54154282Y-52011269D01*
X54312252Y-52011269D01*
X54465632Y-51973465D01*
X54605507Y-51900052D01*
X54723750Y-51795299D01*
X54723750Y-51795297D01*
X54726962Y-51792453D01*
X54790196Y-51762732D01*
X54809189Y-51761269D01*
X55535956Y-51761269D01*
X55535958Y-51761269D01*
X55637819Y-51733976D01*
X55729144Y-51681249D01*
X57007574Y-50402819D01*
X57068897Y-50369334D01*
X57095255Y-50366500D01*
X58438745Y-50366500D01*
X58505784Y-50386185D01*
X58526426Y-50402819D01*
X58886293Y-50762686D01*
X58919778Y-50824009D01*
X58914794Y-50893701D01*
X58872922Y-50949634D01*
X58807458Y-50974051D01*
X58762617Y-50969028D01*
X58668848Y-50940584D01*
X58665934Y-50939700D01*
X58665932Y-50939699D01*
X58665934Y-50939699D01*
X58546805Y-50927966D01*
X58511608Y-50924500D01*
X58408392Y-50924500D01*
X58370298Y-50928251D01*
X58254067Y-50939699D01*
X58056043Y-50999769D01*
X57873546Y-51097317D01*
X57738858Y-51207853D01*
X57674548Y-51235166D01*
X57660193Y-51236000D01*
X57640000Y-51236000D01*
X57640000Y-51273892D01*
X57620315Y-51340931D01*
X57611854Y-51352556D01*
X57582317Y-51388547D01*
X57484769Y-51571043D01*
X57424699Y-51769067D01*
X57409500Y-51923395D01*
X57409500Y-57700500D01*
X57389815Y-57767539D01*
X57337011Y-57813294D01*
X57285500Y-57824500D01*
X56280965Y-57824500D01*
X56213926Y-57804815D01*
X56193284Y-57788181D01*
X53453219Y-55048116D01*
X53419734Y-54986793D01*
X53416900Y-54960435D01*
X53416900Y-53539759D01*
X53436585Y-53472720D01*
X53452246Y-53454444D01*
X53451909Y-53454145D01*
X53456881Y-53448532D01*
X53456881Y-53448531D01*
X53456883Y-53448530D01*
X53546620Y-53318523D01*
X53602637Y-53170818D01*
X53621678Y-53014000D01*
X53602637Y-52857182D01*
X53546620Y-52709477D01*
X53456883Y-52579470D01*
X53338640Y-52474717D01*
X53338638Y-52474716D01*
X53338637Y-52474715D01*
X53198765Y-52401303D01*
X53045386Y-52363500D01*
X53045385Y-52363500D01*
X52887415Y-52363500D01*
X52887414Y-52363500D01*
X52734034Y-52401303D01*
X52594162Y-52474715D01*
X52475916Y-52579471D01*
X52386181Y-52709475D01*
X52386180Y-52709476D01*
X52330162Y-52857181D01*
X52311122Y-53013999D01*
X51150500Y-53013999D01*
X51150500Y-50134980D01*
X51170185Y-50067941D01*
X51212500Y-50027593D01*
X51818753Y-49677573D01*
X57466034Y-46417112D01*
X57528034Y-46400500D01*
X64471966Y-46400500D01*
X64533965Y-46417112D01*
G37*
%TD.AperFunction*%
%TD*%
%TA.AperFunction,Conductor*%
%TO.N,Board_2-GND*%
G36*
X64533965Y-7417112D02*
G01*
X70181247Y-10677573D01*
X70787500Y-11027593D01*
X70835716Y-11078160D01*
X70849500Y-11134980D01*
X70849500Y-14416739D01*
X70849500Y-14522193D01*
X70876793Y-14624053D01*
X70929520Y-14715379D01*
X71004087Y-14789946D01*
X71337500Y-14982441D01*
X71385715Y-15033008D01*
X71399500Y-15089828D01*
X71399500Y-18410170D01*
X71379815Y-18477209D01*
X71337500Y-18517557D01*
X71006969Y-18708389D01*
X71006967Y-18708391D01*
X71004588Y-18709764D01*
X71004085Y-18710055D01*
X70929520Y-18784621D01*
X70876794Y-18875944D01*
X70876793Y-18875947D01*
X70849500Y-18977807D01*
X70849500Y-22365018D01*
X70829815Y-22432057D01*
X70787500Y-22472405D01*
X64533966Y-26082887D01*
X64471966Y-26099500D01*
X57528034Y-26099500D01*
X57466034Y-26082887D01*
X51212500Y-22472405D01*
X51164284Y-22421838D01*
X51150500Y-22365018D01*
X51150500Y-18977809D01*
X51150500Y-18977807D01*
X51123207Y-18875947D01*
X51070480Y-18784621D01*
X50995913Y-18710054D01*
X50993033Y-18708391D01*
X50993030Y-18708389D01*
X50662500Y-18517557D01*
X50614284Y-18466990D01*
X50600500Y-18410170D01*
X50600500Y-15089828D01*
X50620185Y-15022789D01*
X50662498Y-14982442D01*
X50995913Y-14789946D01*
X51070480Y-14715379D01*
X51123207Y-14624053D01*
X51150500Y-14522193D01*
X51150500Y-14013999D01*
X52311122Y-14013999D01*
X52311122Y-14014000D01*
X52330162Y-14170818D01*
X52386180Y-14318523D01*
X52386181Y-14318524D01*
X52475918Y-14448532D01*
X52480891Y-14454145D01*
X52479444Y-14455426D01*
X52511250Y-14506120D01*
X52515900Y-14539759D01*
X52515900Y-16257708D01*
X52540112Y-16348072D01*
X52546600Y-16372285D01*
X52546600Y-16372286D01*
X52546601Y-16372287D01*
X52605911Y-16475014D01*
X55766386Y-19635489D01*
X55798317Y-19653924D01*
X55869114Y-19694799D01*
X55983691Y-19725500D01*
X57285500Y-19725500D01*
X57352539Y-19745185D01*
X57398294Y-19797989D01*
X57409500Y-19849500D01*
X57409500Y-20576604D01*
X57424699Y-20730932D01*
X57424700Y-20730934D01*
X57484768Y-20928954D01*
X57582315Y-21111450D01*
X57611853Y-21147442D01*
X57639166Y-21211751D01*
X57640000Y-21226107D01*
X57640000Y-21380000D01*
X57801984Y-21380000D01*
X57869023Y-21399685D01*
X57870877Y-21400900D01*
X57873548Y-21402685D01*
X58056041Y-21500230D01*
X58056043Y-21500230D01*
X58056046Y-21500232D01*
X58254066Y-21560300D01*
X58254065Y-21560300D01*
X58292647Y-21564100D01*
X58408392Y-21575500D01*
X58408395Y-21575500D01*
X58511605Y-21575500D01*
X58511608Y-21575500D01*
X58665934Y-21560300D01*
X58863954Y-21500232D01*
X58863958Y-21500230D01*
X59046451Y-21402685D01*
X59049123Y-21400900D01*
X59050736Y-21400394D01*
X59051823Y-21399814D01*
X59051933Y-21400019D01*
X59115799Y-21380020D01*
X59118016Y-21380000D01*
X60341984Y-21380000D01*
X60409023Y-21399685D01*
X60410877Y-21400900D01*
X60413548Y-21402685D01*
X60596041Y-21500230D01*
X60596043Y-21500230D01*
X60596046Y-21500232D01*
X60794066Y-21560300D01*
X60794065Y-21560300D01*
X60832647Y-21564100D01*
X60948392Y-21575500D01*
X60948395Y-21575500D01*
X61051605Y-21575500D01*
X61051608Y-21575500D01*
X61205934Y-21560300D01*
X61403954Y-21500232D01*
X61403958Y-21500230D01*
X61586451Y-21402685D01*
X61589123Y-21400900D01*
X61590736Y-21400394D01*
X61591823Y-21399814D01*
X61591933Y-21400019D01*
X61655799Y-21380020D01*
X61658016Y-21380000D01*
X61704000Y-21380000D01*
X61704000Y-21364863D01*
X61723685Y-21297824D01*
X61742770Y-21276387D01*
X61742102Y-21275719D01*
X61746407Y-21271413D01*
X61746408Y-21271411D01*
X61746410Y-21271410D01*
X61877685Y-21111450D01*
X61975232Y-20928954D01*
X62035300Y-20730934D01*
X62050500Y-20576608D01*
X62050500Y-17973392D01*
X62035300Y-17819066D01*
X61975232Y-17621046D01*
X61877685Y-17438550D01*
X61857276Y-17413682D01*
X61855211Y-17411165D01*
X61827898Y-17346855D01*
X61839689Y-17277988D01*
X61886841Y-17226427D01*
X61951064Y-17208500D01*
X63991420Y-17208500D01*
X64058459Y-17228185D01*
X64066907Y-17234124D01*
X64069716Y-17236279D01*
X64069718Y-17236282D01*
X64195159Y-17332536D01*
X64341238Y-17393044D01*
X64419619Y-17403363D01*
X64497999Y-17413682D01*
X64498000Y-17413682D01*
X64498001Y-17413682D01*
X64550254Y-17406802D01*
X64654762Y-17393044D01*
X64800841Y-17332536D01*
X64926282Y-17236282D01*
X65022536Y-17110841D01*
X65083044Y-16964762D01*
X65103682Y-16808000D01*
X65083044Y-16651238D01*
X65022536Y-16505159D01*
X64926282Y-16379718D01*
X64800841Y-16283464D01*
X64758324Y-16265853D01*
X64654762Y-16222956D01*
X64654760Y-16222955D01*
X64498001Y-16202318D01*
X64497999Y-16202318D01*
X64341239Y-16222955D01*
X64341237Y-16222956D01*
X64195160Y-16283463D01*
X64195159Y-16283464D01*
X64069718Y-16379718D01*
X64069716Y-16379720D01*
X64066907Y-16381876D01*
X64001737Y-16407070D01*
X63991420Y-16407500D01*
X61855866Y-16407500D01*
X61788827Y-16387815D01*
X61743072Y-16335011D01*
X61733128Y-16265853D01*
X61760013Y-16204835D01*
X61804733Y-16150342D01*
X61877685Y-16061450D01*
X61975232Y-15878954D01*
X62035300Y-15680934D01*
X62050500Y-15526608D01*
X62050500Y-12923392D01*
X62035300Y-12769066D01*
X61975232Y-12571046D01*
X61877685Y-12388550D01*
X61820000Y-12318260D01*
X61746410Y-12228589D01*
X61586452Y-12097317D01*
X61586453Y-12097317D01*
X61586450Y-12097315D01*
X61403954Y-11999768D01*
X61205934Y-11939700D01*
X61205932Y-11939699D01*
X61205934Y-11939699D01*
X61086805Y-11927966D01*
X61051608Y-11924500D01*
X60948392Y-11924500D01*
X60910298Y-11928251D01*
X60794067Y-11939699D01*
X60596043Y-11999769D01*
X60413546Y-12097317D01*
X60278858Y-12207853D01*
X60214548Y-12235166D01*
X60200193Y-12236000D01*
X60196500Y-12236000D01*
X60129461Y-12216315D01*
X60083706Y-12163511D01*
X60072500Y-12112000D01*
X60072500Y-11929275D01*
X60072500Y-11929273D01*
X60045207Y-11827413D01*
X60045207Y-11827412D01*
X59992480Y-11736087D01*
X58901913Y-10645520D01*
X58856250Y-10619156D01*
X58810589Y-10592793D01*
X58759657Y-10579146D01*
X58708727Y-10565500D01*
X56930727Y-10565500D01*
X56825273Y-10565500D01*
X56723410Y-10592793D01*
X56632087Y-10645520D01*
X56632084Y-10645522D01*
X55353657Y-11923950D01*
X55292334Y-11957435D01*
X55265976Y-11960269D01*
X54809189Y-11960269D01*
X54742150Y-11940584D01*
X54726962Y-11929085D01*
X54723750Y-11926240D01*
X54723750Y-11926239D01*
X54605507Y-11821486D01*
X54605505Y-11821485D01*
X54605504Y-11821484D01*
X54465632Y-11748072D01*
X54312253Y-11710269D01*
X54312252Y-11710269D01*
X54154282Y-11710269D01*
X54154281Y-11710269D01*
X54000901Y-11748072D01*
X53861029Y-11821484D01*
X53742783Y-11926240D01*
X53653048Y-12056244D01*
X53653047Y-12056245D01*
X53597029Y-12203950D01*
X53577989Y-12360768D01*
X53577989Y-12360769D01*
X53597029Y-12517587D01*
X53617303Y-12571043D01*
X53653047Y-12665292D01*
X53742784Y-12795299D01*
X53861027Y-12900052D01*
X53861029Y-12900053D01*
X54000901Y-12973465D01*
X54154281Y-13011269D01*
X54154282Y-13011269D01*
X54312252Y-13011269D01*
X54465632Y-12973465D01*
X54605507Y-12900052D01*
X54723750Y-12795299D01*
X54723750Y-12795297D01*
X54726962Y-12792453D01*
X54790196Y-12762732D01*
X54809189Y-12761269D01*
X55535956Y-12761269D01*
X55535958Y-12761269D01*
X55637819Y-12733976D01*
X55729144Y-12681249D01*
X57007574Y-11402819D01*
X57068897Y-11369334D01*
X57095255Y-11366500D01*
X58438745Y-11366500D01*
X58505784Y-11386185D01*
X58526426Y-11402819D01*
X58886293Y-11762686D01*
X58919778Y-11824009D01*
X58914794Y-11893701D01*
X58872922Y-11949634D01*
X58807458Y-11974051D01*
X58762617Y-11969028D01*
X58668848Y-11940584D01*
X58665934Y-11939700D01*
X58665932Y-11939699D01*
X58665934Y-11939699D01*
X58546805Y-11927966D01*
X58511608Y-11924500D01*
X58408392Y-11924500D01*
X58370298Y-11928251D01*
X58254067Y-11939699D01*
X58056043Y-11999769D01*
X57873546Y-12097317D01*
X57738858Y-12207853D01*
X57674548Y-12235166D01*
X57660193Y-12236000D01*
X57640000Y-12236000D01*
X57640000Y-12273892D01*
X57620315Y-12340931D01*
X57611854Y-12352556D01*
X57582317Y-12388547D01*
X57484769Y-12571043D01*
X57424699Y-12769067D01*
X57409500Y-12923395D01*
X57409500Y-18700500D01*
X57389815Y-18767539D01*
X57337011Y-18813294D01*
X57285500Y-18824500D01*
X56280965Y-18824500D01*
X56213926Y-18804815D01*
X56193284Y-18788181D01*
X53453219Y-16048116D01*
X53419734Y-15986793D01*
X53416900Y-15960435D01*
X53416900Y-14539759D01*
X53436585Y-14472720D01*
X53452246Y-14454444D01*
X53451909Y-14454145D01*
X53456881Y-14448532D01*
X53456881Y-14448531D01*
X53456883Y-14448530D01*
X53546620Y-14318523D01*
X53602637Y-14170818D01*
X53621678Y-14014000D01*
X53602637Y-13857182D01*
X53546620Y-13709477D01*
X53456883Y-13579470D01*
X53338640Y-13474717D01*
X53338638Y-13474716D01*
X53338637Y-13474715D01*
X53198765Y-13401303D01*
X53045386Y-13363500D01*
X53045385Y-13363500D01*
X52887415Y-13363500D01*
X52887414Y-13363500D01*
X52734034Y-13401303D01*
X52594162Y-13474715D01*
X52475916Y-13579471D01*
X52386181Y-13709475D01*
X52386180Y-13709476D01*
X52330162Y-13857181D01*
X52311122Y-14013999D01*
X51150500Y-14013999D01*
X51150500Y-11134980D01*
X51170185Y-11067941D01*
X51212500Y-11027593D01*
X51818753Y-10677573D01*
X57466034Y-7417112D01*
X57528034Y-7400500D01*
X64471966Y-7400500D01*
X64533965Y-7417112D01*
G37*
%TD.AperFunction*%
%TD*%
%TA.AperFunction,Conductor*%
%TO.N,Board_5-GND*%
G36*
X64533965Y-26917112D02*
G01*
X70181247Y-30177573D01*
X70787500Y-30527593D01*
X70835716Y-30578160D01*
X70849500Y-30634980D01*
X70849500Y-33916739D01*
X70849500Y-34022193D01*
X70876793Y-34124053D01*
X70929520Y-34215379D01*
X71004087Y-34289946D01*
X71337500Y-34482441D01*
X71385715Y-34533008D01*
X71399500Y-34589828D01*
X71399500Y-37910170D01*
X71379815Y-37977209D01*
X71337500Y-38017557D01*
X71006969Y-38208389D01*
X71006967Y-38208391D01*
X71004588Y-38209764D01*
X71004085Y-38210055D01*
X70929520Y-38284621D01*
X70876794Y-38375944D01*
X70876793Y-38375947D01*
X70849500Y-38477807D01*
X70849500Y-41865018D01*
X70829815Y-41932057D01*
X70787500Y-41972405D01*
X64533966Y-45582887D01*
X64471966Y-45599500D01*
X57528034Y-45599500D01*
X57466034Y-45582887D01*
X51212500Y-41972405D01*
X51164284Y-41921838D01*
X51150500Y-41865018D01*
X51150500Y-38477809D01*
X51150500Y-38477807D01*
X51123207Y-38375947D01*
X51070480Y-38284621D01*
X50995913Y-38210054D01*
X50993033Y-38208391D01*
X50993030Y-38208389D01*
X50662500Y-38017557D01*
X50614284Y-37966990D01*
X50600500Y-37910170D01*
X50600500Y-34589828D01*
X50620185Y-34522789D01*
X50662498Y-34482442D01*
X50995913Y-34289946D01*
X51070480Y-34215379D01*
X51123207Y-34124053D01*
X51150500Y-34022193D01*
X51150500Y-33513999D01*
X52311122Y-33513999D01*
X52311122Y-33514000D01*
X52330162Y-33670818D01*
X52386180Y-33818523D01*
X52386181Y-33818524D01*
X52475918Y-33948532D01*
X52480891Y-33954145D01*
X52479444Y-33955426D01*
X52511250Y-34006120D01*
X52515900Y-34039759D01*
X52515900Y-35757708D01*
X52540112Y-35848072D01*
X52546600Y-35872285D01*
X52546600Y-35872286D01*
X52546601Y-35872287D01*
X52605911Y-35975014D01*
X55766386Y-39135489D01*
X55798317Y-39153924D01*
X55869114Y-39194799D01*
X55983691Y-39225500D01*
X57285500Y-39225500D01*
X57352539Y-39245185D01*
X57398294Y-39297989D01*
X57409500Y-39349500D01*
X57409500Y-40076604D01*
X57424699Y-40230932D01*
X57424700Y-40230934D01*
X57484768Y-40428954D01*
X57582315Y-40611450D01*
X57611853Y-40647442D01*
X57639166Y-40711751D01*
X57640000Y-40726107D01*
X57640000Y-40880000D01*
X57801984Y-40880000D01*
X57869023Y-40899685D01*
X57870877Y-40900900D01*
X57873548Y-40902685D01*
X58056041Y-41000230D01*
X58056043Y-41000230D01*
X58056046Y-41000232D01*
X58254066Y-41060300D01*
X58254065Y-41060300D01*
X58292647Y-41064100D01*
X58408392Y-41075500D01*
X58408395Y-41075500D01*
X58511605Y-41075500D01*
X58511608Y-41075500D01*
X58665934Y-41060300D01*
X58863954Y-41000232D01*
X58863958Y-41000230D01*
X59046451Y-40902685D01*
X59049123Y-40900900D01*
X59050736Y-40900394D01*
X59051823Y-40899814D01*
X59051933Y-40900019D01*
X59115799Y-40880020D01*
X59118016Y-40880000D01*
X60341984Y-40880000D01*
X60409023Y-40899685D01*
X60410877Y-40900900D01*
X60413548Y-40902685D01*
X60596041Y-41000230D01*
X60596043Y-41000230D01*
X60596046Y-41000232D01*
X60794066Y-41060300D01*
X60794065Y-41060300D01*
X60832647Y-41064100D01*
X60948392Y-41075500D01*
X60948395Y-41075500D01*
X61051605Y-41075500D01*
X61051608Y-41075500D01*
X61205934Y-41060300D01*
X61403954Y-41000232D01*
X61403958Y-41000230D01*
X61586451Y-40902685D01*
X61589123Y-40900900D01*
X61590736Y-40900394D01*
X61591823Y-40899814D01*
X61591933Y-40900019D01*
X61655799Y-40880020D01*
X61658016Y-40880000D01*
X61704000Y-40880000D01*
X61704000Y-40864863D01*
X61723685Y-40797824D01*
X61742770Y-40776387D01*
X61742102Y-40775719D01*
X61746407Y-40771413D01*
X61746408Y-40771411D01*
X61746410Y-40771410D01*
X61877685Y-40611450D01*
X61975232Y-40428954D01*
X62035300Y-40230934D01*
X62050500Y-40076608D01*
X62050500Y-37473392D01*
X62035300Y-37319066D01*
X61975232Y-37121046D01*
X61877685Y-36938550D01*
X61857276Y-36913682D01*
X61855211Y-36911165D01*
X61827898Y-36846855D01*
X61839689Y-36777988D01*
X61886841Y-36726427D01*
X61951064Y-36708500D01*
X63991420Y-36708500D01*
X64058459Y-36728185D01*
X64066907Y-36734124D01*
X64069716Y-36736279D01*
X64069718Y-36736282D01*
X64195159Y-36832536D01*
X64341238Y-36893044D01*
X64419619Y-36903363D01*
X64497999Y-36913682D01*
X64498000Y-36913682D01*
X64498001Y-36913682D01*
X64550254Y-36906802D01*
X64654762Y-36893044D01*
X64800841Y-36832536D01*
X64926282Y-36736282D01*
X65022536Y-36610841D01*
X65083044Y-36464762D01*
X65103682Y-36308000D01*
X65083044Y-36151238D01*
X65022536Y-36005159D01*
X64926282Y-35879718D01*
X64800841Y-35783464D01*
X64758324Y-35765853D01*
X64654762Y-35722956D01*
X64654760Y-35722955D01*
X64498001Y-35702318D01*
X64497999Y-35702318D01*
X64341239Y-35722955D01*
X64341237Y-35722956D01*
X64195160Y-35783463D01*
X64195159Y-35783464D01*
X64069718Y-35879718D01*
X64069716Y-35879720D01*
X64066907Y-35881876D01*
X64001737Y-35907070D01*
X63991420Y-35907500D01*
X61855866Y-35907500D01*
X61788827Y-35887815D01*
X61743072Y-35835011D01*
X61733128Y-35765853D01*
X61760013Y-35704835D01*
X61804733Y-35650342D01*
X61877685Y-35561450D01*
X61975232Y-35378954D01*
X62035300Y-35180934D01*
X62050500Y-35026608D01*
X62050500Y-32423392D01*
X62035300Y-32269066D01*
X61975232Y-32071046D01*
X61877685Y-31888550D01*
X61820000Y-31818260D01*
X61746410Y-31728589D01*
X61586452Y-31597317D01*
X61586453Y-31597317D01*
X61586450Y-31597315D01*
X61403954Y-31499768D01*
X61205934Y-31439700D01*
X61205932Y-31439699D01*
X61205934Y-31439699D01*
X61086805Y-31427966D01*
X61051608Y-31424500D01*
X60948392Y-31424500D01*
X60910298Y-31428251D01*
X60794067Y-31439699D01*
X60596043Y-31499769D01*
X60413546Y-31597317D01*
X60278858Y-31707853D01*
X60214548Y-31735166D01*
X60200193Y-31736000D01*
X60196500Y-31736000D01*
X60129461Y-31716315D01*
X60083706Y-31663511D01*
X60072500Y-31612000D01*
X60072500Y-31429275D01*
X60072500Y-31429273D01*
X60045207Y-31327413D01*
X60045207Y-31327412D01*
X59992480Y-31236087D01*
X58901913Y-30145520D01*
X58856250Y-30119156D01*
X58810589Y-30092793D01*
X58759657Y-30079146D01*
X58708727Y-30065500D01*
X56930727Y-30065500D01*
X56825273Y-30065500D01*
X56723410Y-30092793D01*
X56632087Y-30145520D01*
X56632084Y-30145522D01*
X55353657Y-31423950D01*
X55292334Y-31457435D01*
X55265976Y-31460269D01*
X54809189Y-31460269D01*
X54742150Y-31440584D01*
X54726962Y-31429085D01*
X54723750Y-31426240D01*
X54723750Y-31426239D01*
X54605507Y-31321486D01*
X54605505Y-31321485D01*
X54605504Y-31321484D01*
X54465632Y-31248072D01*
X54312253Y-31210269D01*
X54312252Y-31210269D01*
X54154282Y-31210269D01*
X54154281Y-31210269D01*
X54000901Y-31248072D01*
X53861029Y-31321484D01*
X53742783Y-31426240D01*
X53653048Y-31556244D01*
X53653047Y-31556245D01*
X53597029Y-31703950D01*
X53577989Y-31860768D01*
X53577989Y-31860769D01*
X53597029Y-32017587D01*
X53617303Y-32071043D01*
X53653047Y-32165292D01*
X53742784Y-32295299D01*
X53861027Y-32400052D01*
X53861029Y-32400053D01*
X54000901Y-32473465D01*
X54154281Y-32511269D01*
X54154282Y-32511269D01*
X54312252Y-32511269D01*
X54465632Y-32473465D01*
X54605507Y-32400052D01*
X54723750Y-32295299D01*
X54723750Y-32295297D01*
X54726962Y-32292453D01*
X54790196Y-32262732D01*
X54809189Y-32261269D01*
X55535956Y-32261269D01*
X55535958Y-32261269D01*
X55637819Y-32233976D01*
X55729144Y-32181249D01*
X57007574Y-30902819D01*
X57068897Y-30869334D01*
X57095255Y-30866500D01*
X58438745Y-30866500D01*
X58505784Y-30886185D01*
X58526426Y-30902819D01*
X58886293Y-31262686D01*
X58919778Y-31324009D01*
X58914794Y-31393701D01*
X58872922Y-31449634D01*
X58807458Y-31474051D01*
X58762617Y-31469028D01*
X58668848Y-31440584D01*
X58665934Y-31439700D01*
X58665932Y-31439699D01*
X58665934Y-31439699D01*
X58546805Y-31427966D01*
X58511608Y-31424500D01*
X58408392Y-31424500D01*
X58370298Y-31428251D01*
X58254067Y-31439699D01*
X58056043Y-31499769D01*
X57873546Y-31597317D01*
X57738858Y-31707853D01*
X57674548Y-31735166D01*
X57660193Y-31736000D01*
X57640000Y-31736000D01*
X57640000Y-31773892D01*
X57620315Y-31840931D01*
X57611854Y-31852556D01*
X57582317Y-31888547D01*
X57484769Y-32071043D01*
X57424699Y-32269067D01*
X57409500Y-32423395D01*
X57409500Y-38200500D01*
X57389815Y-38267539D01*
X57337011Y-38313294D01*
X57285500Y-38324500D01*
X56280965Y-38324500D01*
X56213926Y-38304815D01*
X56193284Y-38288181D01*
X53453219Y-35548116D01*
X53419734Y-35486793D01*
X53416900Y-35460435D01*
X53416900Y-34039759D01*
X53436585Y-33972720D01*
X53452246Y-33954444D01*
X53451909Y-33954145D01*
X53456881Y-33948532D01*
X53456881Y-33948531D01*
X53456883Y-33948530D01*
X53546620Y-33818523D01*
X53602637Y-33670818D01*
X53621678Y-33514000D01*
X53602637Y-33357182D01*
X53546620Y-33209477D01*
X53456883Y-33079470D01*
X53338640Y-32974717D01*
X53338638Y-32974716D01*
X53338637Y-32974715D01*
X53198765Y-32901303D01*
X53045386Y-32863500D01*
X53045385Y-32863500D01*
X52887415Y-32863500D01*
X52887414Y-32863500D01*
X52734034Y-32901303D01*
X52594162Y-32974715D01*
X52475916Y-33079471D01*
X52386181Y-33209475D01*
X52386180Y-33209476D01*
X52330162Y-33357181D01*
X52311122Y-33513999D01*
X51150500Y-33513999D01*
X51150500Y-30634980D01*
X51170185Y-30567941D01*
X51212500Y-30527593D01*
X51818753Y-30177573D01*
X57466034Y-26917112D01*
X57528034Y-26900500D01*
X64471966Y-26900500D01*
X64533965Y-26917112D01*
G37*
%TD.AperFunction*%
%TD*%
%TA.AperFunction,Conductor*%
%TO.N,Board_6-GND*%
G36*
X21333965Y-46417112D02*
G01*
X26981247Y-49677573D01*
X27587500Y-50027593D01*
X27635716Y-50078160D01*
X27649500Y-50134980D01*
X27649500Y-53416739D01*
X27649500Y-53522193D01*
X27676793Y-53624053D01*
X27729520Y-53715379D01*
X27804087Y-53789946D01*
X28137500Y-53982441D01*
X28185715Y-54033008D01*
X28199500Y-54089828D01*
X28199500Y-57410170D01*
X28179815Y-57477209D01*
X28137500Y-57517557D01*
X27806969Y-57708389D01*
X27806967Y-57708391D01*
X27804588Y-57709764D01*
X27804085Y-57710055D01*
X27729520Y-57784621D01*
X27676794Y-57875944D01*
X27676793Y-57875947D01*
X27649500Y-57977807D01*
X27649500Y-61365018D01*
X27629815Y-61432057D01*
X27587500Y-61472405D01*
X21333966Y-65082887D01*
X21271966Y-65099500D01*
X14328034Y-65099500D01*
X14266034Y-65082887D01*
X8012500Y-61472405D01*
X7964284Y-61421838D01*
X7950500Y-61365018D01*
X7950500Y-57977809D01*
X7950500Y-57977807D01*
X7923207Y-57875947D01*
X7870480Y-57784621D01*
X7795913Y-57710054D01*
X7793033Y-57708391D01*
X7793030Y-57708389D01*
X7462500Y-57517557D01*
X7414284Y-57466990D01*
X7400500Y-57410170D01*
X7400500Y-54089828D01*
X7420185Y-54022789D01*
X7462498Y-53982442D01*
X7795913Y-53789946D01*
X7870480Y-53715379D01*
X7923207Y-53624053D01*
X7950500Y-53522193D01*
X7950500Y-53013999D01*
X9111122Y-53013999D01*
X9111122Y-53014000D01*
X9130162Y-53170818D01*
X9186180Y-53318523D01*
X9186181Y-53318524D01*
X9275918Y-53448532D01*
X9280891Y-53454145D01*
X9279444Y-53455426D01*
X9311250Y-53506120D01*
X9315900Y-53539759D01*
X9315900Y-55257708D01*
X9340112Y-55348072D01*
X9346600Y-55372285D01*
X9346600Y-55372286D01*
X9346601Y-55372287D01*
X9405911Y-55475014D01*
X12566386Y-58635489D01*
X12598317Y-58653924D01*
X12669114Y-58694799D01*
X12783691Y-58725500D01*
X14085500Y-58725500D01*
X14152539Y-58745185D01*
X14198294Y-58797989D01*
X14209500Y-58849500D01*
X14209500Y-59576604D01*
X14224699Y-59730932D01*
X14224700Y-59730934D01*
X14284768Y-59928954D01*
X14382315Y-60111450D01*
X14411853Y-60147442D01*
X14439166Y-60211751D01*
X14440000Y-60226107D01*
X14440000Y-60380000D01*
X14601984Y-60380000D01*
X14669023Y-60399685D01*
X14670877Y-60400900D01*
X14673548Y-60402685D01*
X14856041Y-60500230D01*
X14856043Y-60500230D01*
X14856046Y-60500232D01*
X15054066Y-60560300D01*
X15054065Y-60560300D01*
X15092647Y-60564100D01*
X15208392Y-60575500D01*
X15208395Y-60575500D01*
X15311605Y-60575500D01*
X15311608Y-60575500D01*
X15465934Y-60560300D01*
X15663954Y-60500232D01*
X15663958Y-60500230D01*
X15846451Y-60402685D01*
X15849123Y-60400900D01*
X15850736Y-60400394D01*
X15851823Y-60399814D01*
X15851933Y-60400019D01*
X15915799Y-60380020D01*
X15918016Y-60380000D01*
X17141984Y-60380000D01*
X17209023Y-60399685D01*
X17210877Y-60400900D01*
X17213548Y-60402685D01*
X17396041Y-60500230D01*
X17396043Y-60500230D01*
X17396046Y-60500232D01*
X17594066Y-60560300D01*
X17594065Y-60560300D01*
X17632647Y-60564100D01*
X17748392Y-60575500D01*
X17748395Y-60575500D01*
X17851605Y-60575500D01*
X17851608Y-60575500D01*
X18005934Y-60560300D01*
X18203954Y-60500232D01*
X18203958Y-60500230D01*
X18386451Y-60402685D01*
X18389123Y-60400900D01*
X18390736Y-60400394D01*
X18391823Y-60399814D01*
X18391933Y-60400019D01*
X18455799Y-60380020D01*
X18458016Y-60380000D01*
X18504000Y-60380000D01*
X18504000Y-60364863D01*
X18523685Y-60297824D01*
X18542770Y-60276387D01*
X18542102Y-60275719D01*
X18546407Y-60271413D01*
X18546408Y-60271411D01*
X18546410Y-60271410D01*
X18677685Y-60111450D01*
X18775232Y-59928954D01*
X18835300Y-59730934D01*
X18850500Y-59576608D01*
X18850500Y-56973392D01*
X18835300Y-56819066D01*
X18775232Y-56621046D01*
X18677685Y-56438550D01*
X18657276Y-56413682D01*
X18655211Y-56411165D01*
X18627898Y-56346855D01*
X18639689Y-56277988D01*
X18686841Y-56226427D01*
X18751064Y-56208500D01*
X20791420Y-56208500D01*
X20858459Y-56228185D01*
X20866907Y-56234124D01*
X20869716Y-56236279D01*
X20869718Y-56236282D01*
X20995159Y-56332536D01*
X21141238Y-56393044D01*
X21219619Y-56403363D01*
X21297999Y-56413682D01*
X21298000Y-56413682D01*
X21298001Y-56413682D01*
X21350254Y-56406802D01*
X21454762Y-56393044D01*
X21600841Y-56332536D01*
X21726282Y-56236282D01*
X21822536Y-56110841D01*
X21883044Y-55964762D01*
X21903682Y-55808000D01*
X21883044Y-55651238D01*
X21822536Y-55505159D01*
X21726282Y-55379718D01*
X21600841Y-55283464D01*
X21558324Y-55265853D01*
X21454762Y-55222956D01*
X21454760Y-55222955D01*
X21298001Y-55202318D01*
X21297999Y-55202318D01*
X21141239Y-55222955D01*
X21141237Y-55222956D01*
X20995160Y-55283463D01*
X20995159Y-55283464D01*
X20869718Y-55379718D01*
X20869716Y-55379720D01*
X20866907Y-55381876D01*
X20801737Y-55407070D01*
X20791420Y-55407500D01*
X18655866Y-55407500D01*
X18588827Y-55387815D01*
X18543072Y-55335011D01*
X18533128Y-55265853D01*
X18560013Y-55204835D01*
X18604733Y-55150342D01*
X18677685Y-55061450D01*
X18775232Y-54878954D01*
X18835300Y-54680934D01*
X18850500Y-54526608D01*
X18850500Y-51923392D01*
X18835300Y-51769066D01*
X18775232Y-51571046D01*
X18677685Y-51388550D01*
X18620000Y-51318260D01*
X18546410Y-51228589D01*
X18386452Y-51097317D01*
X18386453Y-51097317D01*
X18386450Y-51097315D01*
X18203954Y-50999768D01*
X18005934Y-50939700D01*
X18005932Y-50939699D01*
X18005934Y-50939699D01*
X17886805Y-50927966D01*
X17851608Y-50924500D01*
X17748392Y-50924500D01*
X17710298Y-50928251D01*
X17594067Y-50939699D01*
X17396043Y-50999769D01*
X17213546Y-51097317D01*
X17078858Y-51207853D01*
X17014548Y-51235166D01*
X17000193Y-51236000D01*
X16996500Y-51236000D01*
X16929461Y-51216315D01*
X16883706Y-51163511D01*
X16872500Y-51112000D01*
X16872500Y-50929275D01*
X16872500Y-50929273D01*
X16845207Y-50827413D01*
X16845207Y-50827412D01*
X16792480Y-50736087D01*
X15701913Y-49645520D01*
X15656250Y-49619156D01*
X15610589Y-49592793D01*
X15559657Y-49579146D01*
X15508727Y-49565500D01*
X13730727Y-49565500D01*
X13625273Y-49565500D01*
X13523410Y-49592793D01*
X13432087Y-49645520D01*
X13432084Y-49645522D01*
X12153657Y-50923950D01*
X12092334Y-50957435D01*
X12065976Y-50960269D01*
X11609189Y-50960269D01*
X11542150Y-50940584D01*
X11526962Y-50929085D01*
X11523750Y-50926240D01*
X11523750Y-50926239D01*
X11405507Y-50821486D01*
X11405505Y-50821485D01*
X11405504Y-50821484D01*
X11265632Y-50748072D01*
X11112253Y-50710269D01*
X11112252Y-50710269D01*
X10954282Y-50710269D01*
X10954281Y-50710269D01*
X10800901Y-50748072D01*
X10661029Y-50821484D01*
X10542783Y-50926240D01*
X10453048Y-51056244D01*
X10453047Y-51056245D01*
X10397029Y-51203950D01*
X10377989Y-51360768D01*
X10377989Y-51360769D01*
X10397029Y-51517587D01*
X10417303Y-51571043D01*
X10453047Y-51665292D01*
X10542784Y-51795299D01*
X10661027Y-51900052D01*
X10661029Y-51900053D01*
X10800901Y-51973465D01*
X10954281Y-52011269D01*
X10954282Y-52011269D01*
X11112252Y-52011269D01*
X11265632Y-51973465D01*
X11405507Y-51900052D01*
X11523750Y-51795299D01*
X11523750Y-51795297D01*
X11526962Y-51792453D01*
X11590196Y-51762732D01*
X11609189Y-51761269D01*
X12335956Y-51761269D01*
X12335958Y-51761269D01*
X12437819Y-51733976D01*
X12529144Y-51681249D01*
X13807574Y-50402819D01*
X13868897Y-50369334D01*
X13895255Y-50366500D01*
X15238745Y-50366500D01*
X15305784Y-50386185D01*
X15326426Y-50402819D01*
X15686293Y-50762686D01*
X15719778Y-50824009D01*
X15714794Y-50893701D01*
X15672922Y-50949634D01*
X15607458Y-50974051D01*
X15562617Y-50969028D01*
X15468848Y-50940584D01*
X15465934Y-50939700D01*
X15465932Y-50939699D01*
X15465934Y-50939699D01*
X15346805Y-50927966D01*
X15311608Y-50924500D01*
X15208392Y-50924500D01*
X15170298Y-50928251D01*
X15054067Y-50939699D01*
X14856043Y-50999769D01*
X14673546Y-51097317D01*
X14538858Y-51207853D01*
X14474548Y-51235166D01*
X14460193Y-51236000D01*
X14440000Y-51236000D01*
X14440000Y-51273892D01*
X14420315Y-51340931D01*
X14411854Y-51352556D01*
X14382317Y-51388547D01*
X14284769Y-51571043D01*
X14224699Y-51769067D01*
X14209500Y-51923395D01*
X14209500Y-57700500D01*
X14189815Y-57767539D01*
X14137011Y-57813294D01*
X14085500Y-57824500D01*
X13080965Y-57824500D01*
X13013926Y-57804815D01*
X12993284Y-57788181D01*
X10253219Y-55048116D01*
X10219734Y-54986793D01*
X10216900Y-54960435D01*
X10216900Y-53539759D01*
X10236585Y-53472720D01*
X10252246Y-53454444D01*
X10251909Y-53454145D01*
X10256881Y-53448532D01*
X10256881Y-53448531D01*
X10256883Y-53448530D01*
X10346620Y-53318523D01*
X10402637Y-53170818D01*
X10421678Y-53014000D01*
X10402637Y-52857182D01*
X10346620Y-52709477D01*
X10256883Y-52579470D01*
X10138640Y-52474717D01*
X10138638Y-52474716D01*
X10138637Y-52474715D01*
X9998765Y-52401303D01*
X9845386Y-52363500D01*
X9845385Y-52363500D01*
X9687415Y-52363500D01*
X9687414Y-52363500D01*
X9534034Y-52401303D01*
X9394162Y-52474715D01*
X9275916Y-52579471D01*
X9186181Y-52709475D01*
X9186180Y-52709476D01*
X9130162Y-52857181D01*
X9111122Y-53013999D01*
X7950500Y-53013999D01*
X7950500Y-50134980D01*
X7970185Y-50067941D01*
X8012500Y-50027593D01*
X8618753Y-49677573D01*
X14266034Y-46417112D01*
X14328034Y-46400500D01*
X21271966Y-46400500D01*
X21333965Y-46417112D01*
G37*
%TD.AperFunction*%
%TD*%
%TA.AperFunction,Conductor*%
%TO.N,Board_7-GND*%
G36*
X42933965Y-46417112D02*
G01*
X48581247Y-49677573D01*
X49187500Y-50027593D01*
X49235716Y-50078160D01*
X49249500Y-50134980D01*
X49249500Y-53416739D01*
X49249500Y-53522193D01*
X49276793Y-53624053D01*
X49329520Y-53715379D01*
X49404087Y-53789946D01*
X49737500Y-53982441D01*
X49785715Y-54033008D01*
X49799500Y-54089828D01*
X49799500Y-57410170D01*
X49779815Y-57477209D01*
X49737500Y-57517557D01*
X49406969Y-57708389D01*
X49406967Y-57708391D01*
X49404588Y-57709764D01*
X49404085Y-57710055D01*
X49329520Y-57784621D01*
X49276794Y-57875944D01*
X49276793Y-57875947D01*
X49249500Y-57977807D01*
X49249500Y-61365018D01*
X49229815Y-61432057D01*
X49187500Y-61472405D01*
X42933966Y-65082887D01*
X42871966Y-65099500D01*
X35928034Y-65099500D01*
X35866034Y-65082887D01*
X29612500Y-61472405D01*
X29564284Y-61421838D01*
X29550500Y-61365018D01*
X29550500Y-57977809D01*
X29550500Y-57977807D01*
X29523207Y-57875947D01*
X29470480Y-57784621D01*
X29395913Y-57710054D01*
X29393033Y-57708391D01*
X29393030Y-57708389D01*
X29062500Y-57517557D01*
X29014284Y-57466990D01*
X29000500Y-57410170D01*
X29000500Y-54089828D01*
X29020185Y-54022789D01*
X29062498Y-53982442D01*
X29395913Y-53789946D01*
X29470480Y-53715379D01*
X29523207Y-53624053D01*
X29550500Y-53522193D01*
X29550500Y-53013999D01*
X30711122Y-53013999D01*
X30711122Y-53014000D01*
X30730162Y-53170818D01*
X30786180Y-53318523D01*
X30786181Y-53318524D01*
X30875918Y-53448532D01*
X30880891Y-53454145D01*
X30879444Y-53455426D01*
X30911250Y-53506120D01*
X30915900Y-53539759D01*
X30915900Y-55257708D01*
X30940112Y-55348072D01*
X30946600Y-55372285D01*
X30946600Y-55372286D01*
X30946601Y-55372287D01*
X31005911Y-55475014D01*
X34166386Y-58635489D01*
X34198317Y-58653924D01*
X34269114Y-58694799D01*
X34383691Y-58725500D01*
X35685500Y-58725500D01*
X35752539Y-58745185D01*
X35798294Y-58797989D01*
X35809500Y-58849500D01*
X35809500Y-59576604D01*
X35824699Y-59730932D01*
X35824700Y-59730934D01*
X35884768Y-59928954D01*
X35982315Y-60111450D01*
X36011853Y-60147442D01*
X36039166Y-60211751D01*
X36040000Y-60226107D01*
X36040000Y-60380000D01*
X36201984Y-60380000D01*
X36269023Y-60399685D01*
X36270877Y-60400900D01*
X36273548Y-60402685D01*
X36456041Y-60500230D01*
X36456043Y-60500230D01*
X36456046Y-60500232D01*
X36654066Y-60560300D01*
X36654065Y-60560300D01*
X36692647Y-60564100D01*
X36808392Y-60575500D01*
X36808395Y-60575500D01*
X36911605Y-60575500D01*
X36911608Y-60575500D01*
X37065934Y-60560300D01*
X37263954Y-60500232D01*
X37263958Y-60500230D01*
X37446451Y-60402685D01*
X37449123Y-60400900D01*
X37450736Y-60400394D01*
X37451823Y-60399814D01*
X37451933Y-60400019D01*
X37515799Y-60380020D01*
X37518016Y-60380000D01*
X38741984Y-60380000D01*
X38809023Y-60399685D01*
X38810877Y-60400900D01*
X38813548Y-60402685D01*
X38996041Y-60500230D01*
X38996043Y-60500230D01*
X38996046Y-60500232D01*
X39194066Y-60560300D01*
X39194065Y-60560300D01*
X39232647Y-60564100D01*
X39348392Y-60575500D01*
X39348395Y-60575500D01*
X39451605Y-60575500D01*
X39451608Y-60575500D01*
X39605934Y-60560300D01*
X39803954Y-60500232D01*
X39803958Y-60500230D01*
X39986451Y-60402685D01*
X39989123Y-60400900D01*
X39990736Y-60400394D01*
X39991823Y-60399814D01*
X39991933Y-60400019D01*
X40055799Y-60380020D01*
X40058016Y-60380000D01*
X40104000Y-60380000D01*
X40104000Y-60364863D01*
X40123685Y-60297824D01*
X40142770Y-60276387D01*
X40142102Y-60275719D01*
X40146407Y-60271413D01*
X40146408Y-60271411D01*
X40146410Y-60271410D01*
X40277685Y-60111450D01*
X40375232Y-59928954D01*
X40435300Y-59730934D01*
X40450500Y-59576608D01*
X40450500Y-56973392D01*
X40435300Y-56819066D01*
X40375232Y-56621046D01*
X40277685Y-56438550D01*
X40257276Y-56413682D01*
X40255211Y-56411165D01*
X40227898Y-56346855D01*
X40239689Y-56277988D01*
X40286841Y-56226427D01*
X40351064Y-56208500D01*
X42391420Y-56208500D01*
X42458459Y-56228185D01*
X42466907Y-56234124D01*
X42469716Y-56236279D01*
X42469718Y-56236282D01*
X42595159Y-56332536D01*
X42741238Y-56393044D01*
X42819619Y-56403363D01*
X42897999Y-56413682D01*
X42898000Y-56413682D01*
X42898001Y-56413682D01*
X42950254Y-56406802D01*
X43054762Y-56393044D01*
X43200841Y-56332536D01*
X43326282Y-56236282D01*
X43422536Y-56110841D01*
X43483044Y-55964762D01*
X43503682Y-55808000D01*
X43483044Y-55651238D01*
X43422536Y-55505159D01*
X43326282Y-55379718D01*
X43200841Y-55283464D01*
X43158324Y-55265853D01*
X43054762Y-55222956D01*
X43054760Y-55222955D01*
X42898001Y-55202318D01*
X42897999Y-55202318D01*
X42741239Y-55222955D01*
X42741237Y-55222956D01*
X42595160Y-55283463D01*
X42595159Y-55283464D01*
X42469718Y-55379718D01*
X42469716Y-55379720D01*
X42466907Y-55381876D01*
X42401737Y-55407070D01*
X42391420Y-55407500D01*
X40255866Y-55407500D01*
X40188827Y-55387815D01*
X40143072Y-55335011D01*
X40133128Y-55265853D01*
X40160013Y-55204835D01*
X40204733Y-55150342D01*
X40277685Y-55061450D01*
X40375232Y-54878954D01*
X40435300Y-54680934D01*
X40450500Y-54526608D01*
X40450500Y-51923392D01*
X40435300Y-51769066D01*
X40375232Y-51571046D01*
X40277685Y-51388550D01*
X40220000Y-51318260D01*
X40146410Y-51228589D01*
X39986452Y-51097317D01*
X39986453Y-51097317D01*
X39986450Y-51097315D01*
X39803954Y-50999768D01*
X39605934Y-50939700D01*
X39605932Y-50939699D01*
X39605934Y-50939699D01*
X39486805Y-50927966D01*
X39451608Y-50924500D01*
X39348392Y-50924500D01*
X39310298Y-50928251D01*
X39194067Y-50939699D01*
X38996043Y-50999769D01*
X38813546Y-51097317D01*
X38678858Y-51207853D01*
X38614548Y-51235166D01*
X38600193Y-51236000D01*
X38596500Y-51236000D01*
X38529461Y-51216315D01*
X38483706Y-51163511D01*
X38472500Y-51112000D01*
X38472500Y-50929275D01*
X38472500Y-50929273D01*
X38445207Y-50827413D01*
X38445207Y-50827412D01*
X38392480Y-50736087D01*
X37301913Y-49645520D01*
X37256250Y-49619156D01*
X37210589Y-49592793D01*
X37159657Y-49579146D01*
X37108727Y-49565500D01*
X35330727Y-49565500D01*
X35225273Y-49565500D01*
X35123410Y-49592793D01*
X35032087Y-49645520D01*
X35032084Y-49645522D01*
X33753657Y-50923950D01*
X33692334Y-50957435D01*
X33665976Y-50960269D01*
X33209189Y-50960269D01*
X33142150Y-50940584D01*
X33126962Y-50929085D01*
X33123750Y-50926240D01*
X33123750Y-50926239D01*
X33005507Y-50821486D01*
X33005505Y-50821485D01*
X33005504Y-50821484D01*
X32865632Y-50748072D01*
X32712253Y-50710269D01*
X32712252Y-50710269D01*
X32554282Y-50710269D01*
X32554281Y-50710269D01*
X32400901Y-50748072D01*
X32261029Y-50821484D01*
X32142783Y-50926240D01*
X32053048Y-51056244D01*
X32053047Y-51056245D01*
X31997029Y-51203950D01*
X31977989Y-51360768D01*
X31977989Y-51360769D01*
X31997029Y-51517587D01*
X32017303Y-51571043D01*
X32053047Y-51665292D01*
X32142784Y-51795299D01*
X32261027Y-51900052D01*
X32261029Y-51900053D01*
X32400901Y-51973465D01*
X32554281Y-52011269D01*
X32554282Y-52011269D01*
X32712252Y-52011269D01*
X32865632Y-51973465D01*
X33005507Y-51900052D01*
X33123750Y-51795299D01*
X33123750Y-51795297D01*
X33126962Y-51792453D01*
X33190196Y-51762732D01*
X33209189Y-51761269D01*
X33935956Y-51761269D01*
X33935958Y-51761269D01*
X34037819Y-51733976D01*
X34129144Y-51681249D01*
X35407574Y-50402819D01*
X35468897Y-50369334D01*
X35495255Y-50366500D01*
X36838745Y-50366500D01*
X36905784Y-50386185D01*
X36926426Y-50402819D01*
X37286293Y-50762686D01*
X37319778Y-50824009D01*
X37314794Y-50893701D01*
X37272922Y-50949634D01*
X37207458Y-50974051D01*
X37162617Y-50969028D01*
X37068848Y-50940584D01*
X37065934Y-50939700D01*
X37065932Y-50939699D01*
X37065934Y-50939699D01*
X36946805Y-50927966D01*
X36911608Y-50924500D01*
X36808392Y-50924500D01*
X36770298Y-50928251D01*
X36654067Y-50939699D01*
X36456043Y-50999769D01*
X36273546Y-51097317D01*
X36138858Y-51207853D01*
X36074548Y-51235166D01*
X36060193Y-51236000D01*
X36040000Y-51236000D01*
X36040000Y-51273892D01*
X36020315Y-51340931D01*
X36011854Y-51352556D01*
X35982317Y-51388547D01*
X35884769Y-51571043D01*
X35824699Y-51769067D01*
X35809500Y-51923395D01*
X35809500Y-57700500D01*
X35789815Y-57767539D01*
X35737011Y-57813294D01*
X35685500Y-57824500D01*
X34680965Y-57824500D01*
X34613926Y-57804815D01*
X34593284Y-57788181D01*
X31853219Y-55048116D01*
X31819734Y-54986793D01*
X31816900Y-54960435D01*
X31816900Y-53539759D01*
X31836585Y-53472720D01*
X31852246Y-53454444D01*
X31851909Y-53454145D01*
X31856881Y-53448532D01*
X31856881Y-53448531D01*
X31856883Y-53448530D01*
X31946620Y-53318523D01*
X32002637Y-53170818D01*
X32021678Y-53014000D01*
X32002637Y-52857182D01*
X31946620Y-52709477D01*
X31856883Y-52579470D01*
X31738640Y-52474717D01*
X31738638Y-52474716D01*
X31738637Y-52474715D01*
X31598765Y-52401303D01*
X31445386Y-52363500D01*
X31445385Y-52363500D01*
X31287415Y-52363500D01*
X31287414Y-52363500D01*
X31134034Y-52401303D01*
X30994162Y-52474715D01*
X30875916Y-52579471D01*
X30786181Y-52709475D01*
X30786180Y-52709476D01*
X30730162Y-52857181D01*
X30711122Y-53013999D01*
X29550500Y-53013999D01*
X29550500Y-50134980D01*
X29570185Y-50067941D01*
X29612500Y-50027593D01*
X30218753Y-49677573D01*
X35866034Y-46417112D01*
X35928034Y-46400500D01*
X42871966Y-46400500D01*
X42933965Y-46417112D01*
G37*
%TD.AperFunction*%
%TD*%
%TA.AperFunction,Conductor*%
%TO.N,Board_3-GND*%
G36*
X21333965Y-26917112D02*
G01*
X26981247Y-30177573D01*
X27587500Y-30527593D01*
X27635716Y-30578160D01*
X27649500Y-30634980D01*
X27649500Y-33916739D01*
X27649500Y-34022193D01*
X27676793Y-34124053D01*
X27729520Y-34215379D01*
X27804087Y-34289946D01*
X28137500Y-34482441D01*
X28185715Y-34533008D01*
X28199500Y-34589828D01*
X28199500Y-37910170D01*
X28179815Y-37977209D01*
X28137500Y-38017557D01*
X27806969Y-38208389D01*
X27806967Y-38208391D01*
X27804588Y-38209764D01*
X27804085Y-38210055D01*
X27729520Y-38284621D01*
X27676794Y-38375944D01*
X27676793Y-38375947D01*
X27649500Y-38477807D01*
X27649500Y-41865018D01*
X27629815Y-41932057D01*
X27587500Y-41972405D01*
X21333966Y-45582887D01*
X21271966Y-45599500D01*
X14328034Y-45599500D01*
X14266034Y-45582887D01*
X8012500Y-41972405D01*
X7964284Y-41921838D01*
X7950500Y-41865018D01*
X7950500Y-38477809D01*
X7950500Y-38477807D01*
X7923207Y-38375947D01*
X7870480Y-38284621D01*
X7795913Y-38210054D01*
X7793033Y-38208391D01*
X7793030Y-38208389D01*
X7462500Y-38017557D01*
X7414284Y-37966990D01*
X7400500Y-37910170D01*
X7400500Y-34589828D01*
X7420185Y-34522789D01*
X7462498Y-34482442D01*
X7795913Y-34289946D01*
X7870480Y-34215379D01*
X7923207Y-34124053D01*
X7950500Y-34022193D01*
X7950500Y-33513999D01*
X9111122Y-33513999D01*
X9111122Y-33514000D01*
X9130162Y-33670818D01*
X9186180Y-33818523D01*
X9186181Y-33818524D01*
X9275918Y-33948532D01*
X9280891Y-33954145D01*
X9279444Y-33955426D01*
X9311250Y-34006120D01*
X9315900Y-34039759D01*
X9315900Y-35757708D01*
X9340112Y-35848072D01*
X9346600Y-35872285D01*
X9346600Y-35872286D01*
X9346601Y-35872287D01*
X9405911Y-35975014D01*
X12566386Y-39135489D01*
X12598317Y-39153924D01*
X12669114Y-39194799D01*
X12783691Y-39225500D01*
X14085500Y-39225500D01*
X14152539Y-39245185D01*
X14198294Y-39297989D01*
X14209500Y-39349500D01*
X14209500Y-40076604D01*
X14224699Y-40230932D01*
X14224700Y-40230934D01*
X14284768Y-40428954D01*
X14382315Y-40611450D01*
X14411853Y-40647442D01*
X14439166Y-40711751D01*
X14440000Y-40726107D01*
X14440000Y-40880000D01*
X14601984Y-40880000D01*
X14669023Y-40899685D01*
X14670877Y-40900900D01*
X14673548Y-40902685D01*
X14856041Y-41000230D01*
X14856043Y-41000230D01*
X14856046Y-41000232D01*
X15054066Y-41060300D01*
X15054065Y-41060300D01*
X15092647Y-41064100D01*
X15208392Y-41075500D01*
X15208395Y-41075500D01*
X15311605Y-41075500D01*
X15311608Y-41075500D01*
X15465934Y-41060300D01*
X15663954Y-41000232D01*
X15663958Y-41000230D01*
X15846451Y-40902685D01*
X15849123Y-40900900D01*
X15850736Y-40900394D01*
X15851823Y-40899814D01*
X15851933Y-40900019D01*
X15915799Y-40880020D01*
X15918016Y-40880000D01*
X17141984Y-40880000D01*
X17209023Y-40899685D01*
X17210877Y-40900900D01*
X17213548Y-40902685D01*
X17396041Y-41000230D01*
X17396043Y-41000230D01*
X17396046Y-41000232D01*
X17594066Y-41060300D01*
X17594065Y-41060300D01*
X17632647Y-41064100D01*
X17748392Y-41075500D01*
X17748395Y-41075500D01*
X17851605Y-41075500D01*
X17851608Y-41075500D01*
X18005934Y-41060300D01*
X18203954Y-41000232D01*
X18203958Y-41000230D01*
X18386451Y-40902685D01*
X18389123Y-40900900D01*
X18390736Y-40900394D01*
X18391823Y-40899814D01*
X18391933Y-40900019D01*
X18455799Y-40880020D01*
X18458016Y-40880000D01*
X18504000Y-40880000D01*
X18504000Y-40864863D01*
X18523685Y-40797824D01*
X18542770Y-40776387D01*
X18542102Y-40775719D01*
X18546407Y-40771413D01*
X18546408Y-40771411D01*
X18546410Y-40771410D01*
X18677685Y-40611450D01*
X18775232Y-40428954D01*
X18835300Y-40230934D01*
X18850500Y-40076608D01*
X18850500Y-37473392D01*
X18835300Y-37319066D01*
X18775232Y-37121046D01*
X18677685Y-36938550D01*
X18657276Y-36913682D01*
X18655211Y-36911165D01*
X18627898Y-36846855D01*
X18639689Y-36777988D01*
X18686841Y-36726427D01*
X18751064Y-36708500D01*
X20791420Y-36708500D01*
X20858459Y-36728185D01*
X20866907Y-36734124D01*
X20869716Y-36736279D01*
X20869718Y-36736282D01*
X20995159Y-36832536D01*
X21141238Y-36893044D01*
X21219619Y-36903363D01*
X21297999Y-36913682D01*
X21298000Y-36913682D01*
X21298001Y-36913682D01*
X21350254Y-36906802D01*
X21454762Y-36893044D01*
X21600841Y-36832536D01*
X21726282Y-36736282D01*
X21822536Y-36610841D01*
X21883044Y-36464762D01*
X21903682Y-36308000D01*
X21883044Y-36151238D01*
X21822536Y-36005159D01*
X21726282Y-35879718D01*
X21600841Y-35783464D01*
X21558324Y-35765853D01*
X21454762Y-35722956D01*
X21454760Y-35722955D01*
X21298001Y-35702318D01*
X21297999Y-35702318D01*
X21141239Y-35722955D01*
X21141237Y-35722956D01*
X20995160Y-35783463D01*
X20995159Y-35783464D01*
X20869718Y-35879718D01*
X20869716Y-35879720D01*
X20866907Y-35881876D01*
X20801737Y-35907070D01*
X20791420Y-35907500D01*
X18655866Y-35907500D01*
X18588827Y-35887815D01*
X18543072Y-35835011D01*
X18533128Y-35765853D01*
X18560013Y-35704835D01*
X18604733Y-35650342D01*
X18677685Y-35561450D01*
X18775232Y-35378954D01*
X18835300Y-35180934D01*
X18850500Y-35026608D01*
X18850500Y-32423392D01*
X18835300Y-32269066D01*
X18775232Y-32071046D01*
X18677685Y-31888550D01*
X18620000Y-31818260D01*
X18546410Y-31728589D01*
X18386452Y-31597317D01*
X18386453Y-31597317D01*
X18386450Y-31597315D01*
X18203954Y-31499768D01*
X18005934Y-31439700D01*
X18005932Y-31439699D01*
X18005934Y-31439699D01*
X17886805Y-31427966D01*
X17851608Y-31424500D01*
X17748392Y-31424500D01*
X17710298Y-31428251D01*
X17594067Y-31439699D01*
X17396043Y-31499769D01*
X17213546Y-31597317D01*
X17078858Y-31707853D01*
X17014548Y-31735166D01*
X17000193Y-31736000D01*
X16996500Y-31736000D01*
X16929461Y-31716315D01*
X16883706Y-31663511D01*
X16872500Y-31612000D01*
X16872500Y-31429275D01*
X16872500Y-31429273D01*
X16845207Y-31327413D01*
X16845207Y-31327412D01*
X16792480Y-31236087D01*
X15701913Y-30145520D01*
X15656250Y-30119156D01*
X15610589Y-30092793D01*
X15559657Y-30079146D01*
X15508727Y-30065500D01*
X13730727Y-30065500D01*
X13625273Y-30065500D01*
X13523410Y-30092793D01*
X13432087Y-30145520D01*
X13432084Y-30145522D01*
X12153657Y-31423950D01*
X12092334Y-31457435D01*
X12065976Y-31460269D01*
X11609189Y-31460269D01*
X11542150Y-31440584D01*
X11526962Y-31429085D01*
X11523750Y-31426240D01*
X11523750Y-31426239D01*
X11405507Y-31321486D01*
X11405505Y-31321485D01*
X11405504Y-31321484D01*
X11265632Y-31248072D01*
X11112253Y-31210269D01*
X11112252Y-31210269D01*
X10954282Y-31210269D01*
X10954281Y-31210269D01*
X10800901Y-31248072D01*
X10661029Y-31321484D01*
X10542783Y-31426240D01*
X10453048Y-31556244D01*
X10453047Y-31556245D01*
X10397029Y-31703950D01*
X10377989Y-31860768D01*
X10377989Y-31860769D01*
X10397029Y-32017587D01*
X10417303Y-32071043D01*
X10453047Y-32165292D01*
X10542784Y-32295299D01*
X10661027Y-32400052D01*
X10661029Y-32400053D01*
X10800901Y-32473465D01*
X10954281Y-32511269D01*
X10954282Y-32511269D01*
X11112252Y-32511269D01*
X11265632Y-32473465D01*
X11405507Y-32400052D01*
X11523750Y-32295299D01*
X11523750Y-32295297D01*
X11526962Y-32292453D01*
X11590196Y-32262732D01*
X11609189Y-32261269D01*
X12335956Y-32261269D01*
X12335958Y-32261269D01*
X12437819Y-32233976D01*
X12529144Y-32181249D01*
X13807574Y-30902819D01*
X13868897Y-30869334D01*
X13895255Y-30866500D01*
X15238745Y-30866500D01*
X15305784Y-30886185D01*
X15326426Y-30902819D01*
X15686293Y-31262686D01*
X15719778Y-31324009D01*
X15714794Y-31393701D01*
X15672922Y-31449634D01*
X15607458Y-31474051D01*
X15562617Y-31469028D01*
X15468848Y-31440584D01*
X15465934Y-31439700D01*
X15465932Y-31439699D01*
X15465934Y-31439699D01*
X15346805Y-31427966D01*
X15311608Y-31424500D01*
X15208392Y-31424500D01*
X15170298Y-31428251D01*
X15054067Y-31439699D01*
X14856043Y-31499769D01*
X14673546Y-31597317D01*
X14538858Y-31707853D01*
X14474548Y-31735166D01*
X14460193Y-31736000D01*
X14440000Y-31736000D01*
X14440000Y-31773892D01*
X14420315Y-31840931D01*
X14411854Y-31852556D01*
X14382317Y-31888547D01*
X14284769Y-32071043D01*
X14224699Y-32269067D01*
X14209500Y-32423395D01*
X14209500Y-38200500D01*
X14189815Y-38267539D01*
X14137011Y-38313294D01*
X14085500Y-38324500D01*
X13080965Y-38324500D01*
X13013926Y-38304815D01*
X12993284Y-38288181D01*
X10253219Y-35548116D01*
X10219734Y-35486793D01*
X10216900Y-35460435D01*
X10216900Y-34039759D01*
X10236585Y-33972720D01*
X10252246Y-33954444D01*
X10251909Y-33954145D01*
X10256881Y-33948532D01*
X10256881Y-33948531D01*
X10256883Y-33948530D01*
X10346620Y-33818523D01*
X10402637Y-33670818D01*
X10421678Y-33514000D01*
X10402637Y-33357182D01*
X10346620Y-33209477D01*
X10256883Y-33079470D01*
X10138640Y-32974717D01*
X10138638Y-32974716D01*
X10138637Y-32974715D01*
X9998765Y-32901303D01*
X9845386Y-32863500D01*
X9845385Y-32863500D01*
X9687415Y-32863500D01*
X9687414Y-32863500D01*
X9534034Y-32901303D01*
X9394162Y-32974715D01*
X9275916Y-33079471D01*
X9186181Y-33209475D01*
X9186180Y-33209476D01*
X9130162Y-33357181D01*
X9111122Y-33513999D01*
X7950500Y-33513999D01*
X7950500Y-30634980D01*
X7970185Y-30567941D01*
X8012500Y-30527593D01*
X8618753Y-30177573D01*
X14266034Y-26917112D01*
X14328034Y-26900500D01*
X21271966Y-26900500D01*
X21333965Y-26917112D01*
G37*
%TD.AperFunction*%
%TD*%
M02*
