<?xml version="1.0" encoding="UTF-8" standalone="no"?>
<svg
   width="120.0"
   height="120.0"
   version="1.1"
   id="svg33"
   sodipodi:docname="SC Plate 120x120.svg"
   inkscape:version="1.4 (86a8ad7, 2024-10-11)"
   xmlns:inkscape="http://www.inkscape.org/namespaces/inkscape"
   xmlns:sodipodi="http://sodipodi.sourceforge.net/DTD/sodipodi-0.dtd"
   xmlns="http://www.w3.org/2000/svg"
   xmlns:svg="http://www.w3.org/2000/svg">
  <defs
     id="defs33" />
  <sodipodi:namedview
     id="namedview33"
     pagecolor="#ffffff"
     bordercolor="#000000"
     borderopacity="0.25"
     inkscape:showpageshadow="2"
     inkscape:pageopacity="0.0"
     inkscape:pagecheckerboard="0"
     inkscape:deskcolor="#d1d1d1"
     inkscape:zoom="10.708333"
     inkscape:cx="59.953307"
     inkscape:cy="60.046693"
     inkscape:window-width="2560"
     inkscape:window-height="1566"
     inkscape:window-x="-11"
     inkscape:window-y="-11"
     inkscape:window-maximized="1"
     inkscape:current-layer="svg33" />
  <path
     style="fill:#db3f38;stroke:#db3f38;stroke-width:0"
     d="m 83.414076,96.210117 c 0.07477,-0.115564 1.451695,-2.300778 3.059832,-4.856031 l 2.923886,-4.645915 h 1.861414 c 1.176078,0 1.849954,0.03374 1.830286,0.09163 -0.01712,0.0504 -1.375875,2.233529 -3.019455,4.851404 l -2.988327,4.759772 -1.901791,0.0046 -1.901791,0.0046 z"
     id="path33" />
  <path
     style="fill:#db3f38;stroke:#db3f38;stroke-width:0"
     d="m 85.447471,106.36344 c 0,-0.027 2.77919,-4.46042 6.175979,-9.852139 l 6.175979,-9.80313 h 1.862932 c 1.029319,0 1.848999,0.03665 1.831799,0.08191 -0.0171,0.04505 -2.799165,4.478512 -6.182326,9.85214 l -6.1512,9.770229 h -1.856582 c -1.02112,0 -1.856581,-0.0221 -1.856581,-0.049 z"
     id="path34" />
  <path
     style="fill:#db3f38;stroke:#db3f38;stroke-width:0"
     d="m 109.38055,101.33728 -1.32762,-0.7614 -0.0265,-6.243829 L 108,88.088227 100.82763,83.942946 c -3.944809,-2.279904 -7.253695,-4.145281 -7.353084,-4.145281 -0.131875,0 -9.79976,5.514092 -14.196194,8.096819 -0.23042,0.135363 -0.28545,0.113744 -1.506373,-0.5918 l -1.267217,-0.732296 0.385751,-0.219072 c 0.212164,-0.120489 3.978748,-2.293315 8.370187,-4.828502 4.39144,-2.535186 8.047471,-4.633183 8.124514,-4.662215 0.08319,-0.03135 3.610444,1.950816 8.684826,4.880485 l 8.54475,4.933269 0.0467,4.989672 0.0467,4.989671 2.75282,0.02479 2.75281,0.02479 -2.70552,2.706727 c -1.48803,1.488697 -2.7268,2.702667 -2.75281,2.697707 -0.026,-0.005 -0.64473,-0.35166 -1.37492,-0.77043 z"
     id="path35" />
  <path
     style="fill:#db3f38;stroke:#db3f38;stroke-width:0"
     d=""
     id="path36" />
  <path
     style="fill:#db3f38;stroke:#db3f38;stroke-width:0"
     d="m 93.867704,106.32246 c 0.01712,-0.0495 1.375876,-2.23256 3.019456,-4.85125 l 2.988326,-4.761261 1.895694,-0.0048 c 1.56289,-0.0039 1.88258,0.01725 1.82101,0.120718 -0.0411,0.06902 -1.41486,2.254238 -3.05286,4.856033 l -2.978183,4.73053 h -1.862286 c -1.153955,0 -1.850445,-0.0342 -1.831157,-0.09 z"
     id="path37" />
  <path
     style="fill:#db3f38;stroke:#db3f38;stroke-width:0"
     d="m 84.82013,111.3796 -8.51839,-4.92046 -0.02636,-4.9961 -0.02636,-4.996114 -2.74698,-0.04669 -2.74698,-0.04669 2.683416,-2.614786 c 1.475878,-1.438132 2.719224,-2.627694 2.762991,-2.643469 0.04377,-0.01578 0.650191,0.297857 1.347611,0.696962 l 1.268036,0.725645 0.0014,6.166851 c 7.86e-4,3.391761 0.0323,6.211561 0.07004,6.266211 0.112428,0.16283 14.437066,8.39919 14.597106,8.39302 0.08095,-0.003 3.336037,-1.84864 7.23353,-4.10117 3.8975,-2.25252 7.13095,-4.09549 7.18545,-4.09549 0.18758,0 2.47755,1.37496 2.4071,1.4453 -0.15649,0.15623 -16.752608,9.69827 -16.85878,9.69305 -0.06296,-0.003 -3.947751,-2.21982 -8.632866,-4.92607 z"
     id="path38" />
</svg>
