<?xml version="1.0" encoding="UTF-8" standalone="no"?>
<svg
   width="255.0"
   height="185.0"
   version="1.1"
   id="svg33"
   sodipodi:docname="SC Plate 255x185.svg"
   inkscape:version="1.4 (86a8ad7, 2024-10-11)"
   xmlns:inkscape="http://www.inkscape.org/namespaces/inkscape"
   xmlns:sodipodi="http://sodipodi.sourceforge.net/DTD/sodipodi-0.dtd"
   xmlns="http://www.w3.org/2000/svg"
   xmlns:svg="http://www.w3.org/2000/svg">
  <defs
     id="defs33" />
  <sodipodi:namedview
     id="namedview33"
     pagecolor="#ffffff"
     bordercolor="#000000"
     borderopacity="0.25"
     inkscape:showpageshadow="2"
     inkscape:pageopacity="0.0"
     inkscape:pagecheckerboard="0"
     inkscape:deskcolor="#d1d1d1"
     inkscape:zoom="6.9459459"
     inkscape:cx="127.55642"
     inkscape:cy="92.571984"
     inkscape:window-width="2560"
     inkscape:window-height="1566"
     inkscape:window-x="-11"
     inkscape:window-y="-11"
     inkscape:window-maximized="1"
     inkscape:current-layer="svg33" />
  <path
     style="fill:#db3f38;stroke:#db3f38;stroke-width:0"
     d="m 240.53599,162.44411 -1.25973,-0.72762 -0.002,-6.1384 c -0.001,-3.37612 -0.0498,-6.20662 -0.10798,-6.29 -0.1237,-0.17729 -14.364,-8.41455 -14.5468,-8.41455 -0.0679,0 -3.3197,1.8464 -7.22628,4.10311 -3.90659,2.25672 -7.1483,4.10312 -7.20381,4.10312 -0.0555,0 -0.63021,-0.29987 -1.27711,-0.66638 -1.04187,-0.59029 -1.14677,-0.68637 -0.91865,-0.8414 0.36662,-0.24913 16.32314,-9.44791 16.51918,-9.52314 0.0893,-0.0343 3.98215,2.14311 8.65076,4.83862 l 8.48838,4.90092 0.072,5.00075 0.072,5.00074 2.73066,0.0393 2.73066,0.0393 -2.65722,2.66013 c -1.46147,1.46308 -2.69026,2.65632 -2.73066,2.65165 -0.0404,-0.005 -0.64032,-0.33592 -1.33317,-0.73612 z"
     id="path33" />
  <path
     style="fill:#db3f38;stroke:#db3f38;stroke-width:0"
     d="m 214.82293,157.00713 c 0.1862,-0.31174 1.53709,-2.47892 3.00197,-4.81597 l 2.66343,-4.24917 1.8476,-0.007 c 1.01618,-0.004 1.826,0.047 1.79961,0.11295 -0.0264,0.066 -1.3761,2.23464 -2.99935,4.81926 l -2.95137,4.69931 -1.85022,0.004 -1.85022,0.004 z"
     id="path34" />
  <path
     style="fill:#db3f38;stroke:#db3f38;stroke-width:0"
     d="m 216.67315,167.44757 c 0,-0.0379 2.74793,-4.42903 6.1065,-9.75819 l 6.1065,-9.68938 1.81179,-0.0403 c 0.99648,-0.0222 1.80992,0.0102 1.80763,0.072 -0.002,0.0617 -2.74023,4.45294 -6.08433,9.75819 l -6.08019,9.64592 -1.83395,0.0403 c -1.00867,0.0222 -1.83395,0.009 -1.83395,-0.0285 z"
     id="path35" />
  <path
     style="fill:#db3f38;stroke:#db3f38;stroke-width:0"
     d="m 225.15509,167.25584 c 0.078,-0.13857 1.43124,-2.29271 3.00714,-4.78697 l 2.86528,-4.53502 1.82087,-0.0403 c 1.00149,-0.0222 1.82088,-0.003 1.82088,0.0416 0,0.045 -1.34431,2.21729 -2.98735,4.82721 l -2.98736,4.74531 -1.84067,5e-5 c -1.71109,4e-5 -1.83068,-0.0177 -1.69879,-0.2519 z"
     id="path36" />
  <path
     style="fill:#db3f38;stroke:#db3f38;stroke-width:0"
     d="m 215.99185,172.50471 -8.52761,-4.92494 -0.003,-5.00292 -0.003,-5.00292 h -2.77092 -2.77092 l 2.68492,-2.68492 2.68492,-2.68491 1.38023,0.7766 1.38024,0.7766 0.0375,6.24651 0.0375,6.24651 7.19417,4.15597 c 3.9568,2.28578 7.24347,4.15597 7.30372,4.15597 0.0602,0 3.32632,-1.85818 7.25793,-4.1293 l 7.14838,-4.12929 0.91668,0.49408 c 1.82639,0.9844 2.60215,0.32606 -6.73506,5.71564 -4.54137,2.62135 -8.35421,4.79988 -8.47298,4.84118 -0.12258,0.0426 -3.90308,-2.05434 -8.74356,-4.84986 z"
     id="path37" />
</svg>
